%TF.GenerationSoftware,KiCad,Pcbnew,5.0.2-bee76a0~70~ubuntu18.04.1*%
%TF.CreationDate,2019-10-02T22:42:18+02:00*%
%TF.ProjectId,BT-Pcb-328P,42542d50-6362-42d3-9332-38502e6b6963,3.0*%
%TF.SameCoordinates,Original*%
%TF.FileFunction,Paste,Top*%
%TF.FilePolarity,Positive*%
%FSLAX46Y46*%
G04 Gerber Fmt 4.6, Leading zero omitted, Abs format (unit mm)*
G04 Created by KiCad (PCBNEW 5.0.2-bee76a0~70~ubuntu18.04.1) date mer 02 ott 2019 22:42:18 CEST*
%MOMM*%
%LPD*%
G01*
G04 APERTURE LIST*
%ADD10C,0.150000*%
%ADD11C,0.975000*%
%ADD12R,1.400000X1.000000*%
%ADD13R,1.000000X1.400000*%
%ADD14R,1.750000X2.650000*%
%ADD15R,2.310000X2.520000*%
%ADD16R,2.180000X1.600000*%
%ADD17R,3.020000X1.510000*%
%ADD18R,1.900000X1.500000*%
%ADD19R,1.350000X0.400000*%
%ADD20R,1.500000X2.400000*%
%ADD21R,1.600000X0.550000*%
%ADD22R,0.550000X1.600000*%
%ADD23R,2.000000X3.800000*%
%ADD24R,2.000000X1.500000*%
%ADD25R,1.060000X0.650000*%
%ADD26R,1.900000X0.800000*%
%ADD27R,3.000000X1.200000*%
G04 APERTURE END LIST*
D10*
X184040000Y-138320000D02*
X184040000Y-81320000D01*
X127040000Y-138320000D02*
X127040000Y-81320000D01*
X127040000Y-138320000D02*
X184040000Y-138320000D01*
X127040000Y-81320000D02*
X184040000Y-81320000D01*
G36*
X156985642Y-115125174D02*
X157009303Y-115128684D01*
X157032507Y-115134496D01*
X157055029Y-115142554D01*
X157076653Y-115152782D01*
X157097170Y-115165079D01*
X157116383Y-115179329D01*
X157134107Y-115195393D01*
X157150171Y-115213117D01*
X157164421Y-115232330D01*
X157176718Y-115252847D01*
X157186946Y-115274471D01*
X157195004Y-115296993D01*
X157200816Y-115320197D01*
X157204326Y-115343858D01*
X157205500Y-115367750D01*
X157205500Y-116280250D01*
X157204326Y-116304142D01*
X157200816Y-116327803D01*
X157195004Y-116351007D01*
X157186946Y-116373529D01*
X157176718Y-116395153D01*
X157164421Y-116415670D01*
X157150171Y-116434883D01*
X157134107Y-116452607D01*
X157116383Y-116468671D01*
X157097170Y-116482921D01*
X157076653Y-116495218D01*
X157055029Y-116505446D01*
X157032507Y-116513504D01*
X157009303Y-116519316D01*
X156985642Y-116522826D01*
X156961750Y-116524000D01*
X156474250Y-116524000D01*
X156450358Y-116522826D01*
X156426697Y-116519316D01*
X156403493Y-116513504D01*
X156380971Y-116505446D01*
X156359347Y-116495218D01*
X156338830Y-116482921D01*
X156319617Y-116468671D01*
X156301893Y-116452607D01*
X156285829Y-116434883D01*
X156271579Y-116415670D01*
X156259282Y-116395153D01*
X156249054Y-116373529D01*
X156240996Y-116351007D01*
X156235184Y-116327803D01*
X156231674Y-116304142D01*
X156230500Y-116280250D01*
X156230500Y-115367750D01*
X156231674Y-115343858D01*
X156235184Y-115320197D01*
X156240996Y-115296993D01*
X156249054Y-115274471D01*
X156259282Y-115252847D01*
X156271579Y-115232330D01*
X156285829Y-115213117D01*
X156301893Y-115195393D01*
X156319617Y-115179329D01*
X156338830Y-115165079D01*
X156359347Y-115152782D01*
X156380971Y-115142554D01*
X156403493Y-115134496D01*
X156426697Y-115128684D01*
X156450358Y-115125174D01*
X156474250Y-115124000D01*
X156961750Y-115124000D01*
X156985642Y-115125174D01*
X156985642Y-115125174D01*
G37*
D11*
X156718000Y-115824000D03*
D10*
G36*
X155110642Y-115125174D02*
X155134303Y-115128684D01*
X155157507Y-115134496D01*
X155180029Y-115142554D01*
X155201653Y-115152782D01*
X155222170Y-115165079D01*
X155241383Y-115179329D01*
X155259107Y-115195393D01*
X155275171Y-115213117D01*
X155289421Y-115232330D01*
X155301718Y-115252847D01*
X155311946Y-115274471D01*
X155320004Y-115296993D01*
X155325816Y-115320197D01*
X155329326Y-115343858D01*
X155330500Y-115367750D01*
X155330500Y-116280250D01*
X155329326Y-116304142D01*
X155325816Y-116327803D01*
X155320004Y-116351007D01*
X155311946Y-116373529D01*
X155301718Y-116395153D01*
X155289421Y-116415670D01*
X155275171Y-116434883D01*
X155259107Y-116452607D01*
X155241383Y-116468671D01*
X155222170Y-116482921D01*
X155201653Y-116495218D01*
X155180029Y-116505446D01*
X155157507Y-116513504D01*
X155134303Y-116519316D01*
X155110642Y-116522826D01*
X155086750Y-116524000D01*
X154599250Y-116524000D01*
X154575358Y-116522826D01*
X154551697Y-116519316D01*
X154528493Y-116513504D01*
X154505971Y-116505446D01*
X154484347Y-116495218D01*
X154463830Y-116482921D01*
X154444617Y-116468671D01*
X154426893Y-116452607D01*
X154410829Y-116434883D01*
X154396579Y-116415670D01*
X154384282Y-116395153D01*
X154374054Y-116373529D01*
X154365996Y-116351007D01*
X154360184Y-116327803D01*
X154356674Y-116304142D01*
X154355500Y-116280250D01*
X154355500Y-115367750D01*
X154356674Y-115343858D01*
X154360184Y-115320197D01*
X154365996Y-115296993D01*
X154374054Y-115274471D01*
X154384282Y-115252847D01*
X154396579Y-115232330D01*
X154410829Y-115213117D01*
X154426893Y-115195393D01*
X154444617Y-115179329D01*
X154463830Y-115165079D01*
X154484347Y-115152782D01*
X154505971Y-115142554D01*
X154528493Y-115134496D01*
X154551697Y-115128684D01*
X154575358Y-115125174D01*
X154599250Y-115124000D01*
X155086750Y-115124000D01*
X155110642Y-115125174D01*
X155110642Y-115125174D01*
G37*
D11*
X154843000Y-115824000D03*
D12*
X156294000Y-123698000D03*
X154094000Y-124648000D03*
X154094000Y-122748000D03*
D10*
G36*
X172890642Y-130492174D02*
X172914303Y-130495684D01*
X172937507Y-130501496D01*
X172960029Y-130509554D01*
X172981653Y-130519782D01*
X173002170Y-130532079D01*
X173021383Y-130546329D01*
X173039107Y-130562393D01*
X173055171Y-130580117D01*
X173069421Y-130599330D01*
X173081718Y-130619847D01*
X173091946Y-130641471D01*
X173100004Y-130663993D01*
X173105816Y-130687197D01*
X173109326Y-130710858D01*
X173110500Y-130734750D01*
X173110500Y-131647250D01*
X173109326Y-131671142D01*
X173105816Y-131694803D01*
X173100004Y-131718007D01*
X173091946Y-131740529D01*
X173081718Y-131762153D01*
X173069421Y-131782670D01*
X173055171Y-131801883D01*
X173039107Y-131819607D01*
X173021383Y-131835671D01*
X173002170Y-131849921D01*
X172981653Y-131862218D01*
X172960029Y-131872446D01*
X172937507Y-131880504D01*
X172914303Y-131886316D01*
X172890642Y-131889826D01*
X172866750Y-131891000D01*
X172379250Y-131891000D01*
X172355358Y-131889826D01*
X172331697Y-131886316D01*
X172308493Y-131880504D01*
X172285971Y-131872446D01*
X172264347Y-131862218D01*
X172243830Y-131849921D01*
X172224617Y-131835671D01*
X172206893Y-131819607D01*
X172190829Y-131801883D01*
X172176579Y-131782670D01*
X172164282Y-131762153D01*
X172154054Y-131740529D01*
X172145996Y-131718007D01*
X172140184Y-131694803D01*
X172136674Y-131671142D01*
X172135500Y-131647250D01*
X172135500Y-130734750D01*
X172136674Y-130710858D01*
X172140184Y-130687197D01*
X172145996Y-130663993D01*
X172154054Y-130641471D01*
X172164282Y-130619847D01*
X172176579Y-130599330D01*
X172190829Y-130580117D01*
X172206893Y-130562393D01*
X172224617Y-130546329D01*
X172243830Y-130532079D01*
X172264347Y-130519782D01*
X172285971Y-130509554D01*
X172308493Y-130501496D01*
X172331697Y-130495684D01*
X172355358Y-130492174D01*
X172379250Y-130491000D01*
X172866750Y-130491000D01*
X172890642Y-130492174D01*
X172890642Y-130492174D01*
G37*
D11*
X172623000Y-131191000D03*
D10*
G36*
X174765642Y-130492174D02*
X174789303Y-130495684D01*
X174812507Y-130501496D01*
X174835029Y-130509554D01*
X174856653Y-130519782D01*
X174877170Y-130532079D01*
X174896383Y-130546329D01*
X174914107Y-130562393D01*
X174930171Y-130580117D01*
X174944421Y-130599330D01*
X174956718Y-130619847D01*
X174966946Y-130641471D01*
X174975004Y-130663993D01*
X174980816Y-130687197D01*
X174984326Y-130710858D01*
X174985500Y-130734750D01*
X174985500Y-131647250D01*
X174984326Y-131671142D01*
X174980816Y-131694803D01*
X174975004Y-131718007D01*
X174966946Y-131740529D01*
X174956718Y-131762153D01*
X174944421Y-131782670D01*
X174930171Y-131801883D01*
X174914107Y-131819607D01*
X174896383Y-131835671D01*
X174877170Y-131849921D01*
X174856653Y-131862218D01*
X174835029Y-131872446D01*
X174812507Y-131880504D01*
X174789303Y-131886316D01*
X174765642Y-131889826D01*
X174741750Y-131891000D01*
X174254250Y-131891000D01*
X174230358Y-131889826D01*
X174206697Y-131886316D01*
X174183493Y-131880504D01*
X174160971Y-131872446D01*
X174139347Y-131862218D01*
X174118830Y-131849921D01*
X174099617Y-131835671D01*
X174081893Y-131819607D01*
X174065829Y-131801883D01*
X174051579Y-131782670D01*
X174039282Y-131762153D01*
X174029054Y-131740529D01*
X174020996Y-131718007D01*
X174015184Y-131694803D01*
X174011674Y-131671142D01*
X174010500Y-131647250D01*
X174010500Y-130734750D01*
X174011674Y-130710858D01*
X174015184Y-130687197D01*
X174020996Y-130663993D01*
X174029054Y-130641471D01*
X174039282Y-130619847D01*
X174051579Y-130599330D01*
X174065829Y-130580117D01*
X174081893Y-130562393D01*
X174099617Y-130546329D01*
X174118830Y-130532079D01*
X174139347Y-130519782D01*
X174160971Y-130509554D01*
X174183493Y-130501496D01*
X174206697Y-130495684D01*
X174230358Y-130492174D01*
X174254250Y-130491000D01*
X174741750Y-130491000D01*
X174765642Y-130492174D01*
X174765642Y-130492174D01*
G37*
D11*
X174498000Y-131191000D03*
D13*
X133670000Y-108798000D03*
X134620000Y-110998000D03*
X132720000Y-110998000D03*
D10*
G36*
X138402142Y-108812174D02*
X138425803Y-108815684D01*
X138449007Y-108821496D01*
X138471529Y-108829554D01*
X138493153Y-108839782D01*
X138513670Y-108852079D01*
X138532883Y-108866329D01*
X138550607Y-108882393D01*
X138566671Y-108900117D01*
X138580921Y-108919330D01*
X138593218Y-108939847D01*
X138603446Y-108961471D01*
X138611504Y-108983993D01*
X138617316Y-109007197D01*
X138620826Y-109030858D01*
X138622000Y-109054750D01*
X138622000Y-109542250D01*
X138620826Y-109566142D01*
X138617316Y-109589803D01*
X138611504Y-109613007D01*
X138603446Y-109635529D01*
X138593218Y-109657153D01*
X138580921Y-109677670D01*
X138566671Y-109696883D01*
X138550607Y-109714607D01*
X138532883Y-109730671D01*
X138513670Y-109744921D01*
X138493153Y-109757218D01*
X138471529Y-109767446D01*
X138449007Y-109775504D01*
X138425803Y-109781316D01*
X138402142Y-109784826D01*
X138378250Y-109786000D01*
X137465750Y-109786000D01*
X137441858Y-109784826D01*
X137418197Y-109781316D01*
X137394993Y-109775504D01*
X137372471Y-109767446D01*
X137350847Y-109757218D01*
X137330330Y-109744921D01*
X137311117Y-109730671D01*
X137293393Y-109714607D01*
X137277329Y-109696883D01*
X137263079Y-109677670D01*
X137250782Y-109657153D01*
X137240554Y-109635529D01*
X137232496Y-109613007D01*
X137226684Y-109589803D01*
X137223174Y-109566142D01*
X137222000Y-109542250D01*
X137222000Y-109054750D01*
X137223174Y-109030858D01*
X137226684Y-109007197D01*
X137232496Y-108983993D01*
X137240554Y-108961471D01*
X137250782Y-108939847D01*
X137263079Y-108919330D01*
X137277329Y-108900117D01*
X137293393Y-108882393D01*
X137311117Y-108866329D01*
X137330330Y-108852079D01*
X137350847Y-108839782D01*
X137372471Y-108829554D01*
X137394993Y-108821496D01*
X137418197Y-108815684D01*
X137441858Y-108812174D01*
X137465750Y-108811000D01*
X138378250Y-108811000D01*
X138402142Y-108812174D01*
X138402142Y-108812174D01*
G37*
D11*
X137922000Y-109298500D03*
D10*
G36*
X138402142Y-110687174D02*
X138425803Y-110690684D01*
X138449007Y-110696496D01*
X138471529Y-110704554D01*
X138493153Y-110714782D01*
X138513670Y-110727079D01*
X138532883Y-110741329D01*
X138550607Y-110757393D01*
X138566671Y-110775117D01*
X138580921Y-110794330D01*
X138593218Y-110814847D01*
X138603446Y-110836471D01*
X138611504Y-110858993D01*
X138617316Y-110882197D01*
X138620826Y-110905858D01*
X138622000Y-110929750D01*
X138622000Y-111417250D01*
X138620826Y-111441142D01*
X138617316Y-111464803D01*
X138611504Y-111488007D01*
X138603446Y-111510529D01*
X138593218Y-111532153D01*
X138580921Y-111552670D01*
X138566671Y-111571883D01*
X138550607Y-111589607D01*
X138532883Y-111605671D01*
X138513670Y-111619921D01*
X138493153Y-111632218D01*
X138471529Y-111642446D01*
X138449007Y-111650504D01*
X138425803Y-111656316D01*
X138402142Y-111659826D01*
X138378250Y-111661000D01*
X137465750Y-111661000D01*
X137441858Y-111659826D01*
X137418197Y-111656316D01*
X137394993Y-111650504D01*
X137372471Y-111642446D01*
X137350847Y-111632218D01*
X137330330Y-111619921D01*
X137311117Y-111605671D01*
X137293393Y-111589607D01*
X137277329Y-111571883D01*
X137263079Y-111552670D01*
X137250782Y-111532153D01*
X137240554Y-111510529D01*
X137232496Y-111488007D01*
X137226684Y-111464803D01*
X137223174Y-111441142D01*
X137222000Y-111417250D01*
X137222000Y-110929750D01*
X137223174Y-110905858D01*
X137226684Y-110882197D01*
X137232496Y-110858993D01*
X137240554Y-110836471D01*
X137250782Y-110814847D01*
X137263079Y-110794330D01*
X137277329Y-110775117D01*
X137293393Y-110757393D01*
X137311117Y-110741329D01*
X137330330Y-110727079D01*
X137350847Y-110714782D01*
X137372471Y-110704554D01*
X137394993Y-110696496D01*
X137418197Y-110690684D01*
X137441858Y-110687174D01*
X137465750Y-110686000D01*
X138378250Y-110686000D01*
X138402142Y-110687174D01*
X138402142Y-110687174D01*
G37*
D11*
X137922000Y-111173500D03*
D10*
G36*
X129004142Y-90856674D02*
X129027803Y-90860184D01*
X129051007Y-90865996D01*
X129073529Y-90874054D01*
X129095153Y-90884282D01*
X129115670Y-90896579D01*
X129134883Y-90910829D01*
X129152607Y-90926893D01*
X129168671Y-90944617D01*
X129182921Y-90963830D01*
X129195218Y-90984347D01*
X129205446Y-91005971D01*
X129213504Y-91028493D01*
X129219316Y-91051697D01*
X129222826Y-91075358D01*
X129224000Y-91099250D01*
X129224000Y-91586750D01*
X129222826Y-91610642D01*
X129219316Y-91634303D01*
X129213504Y-91657507D01*
X129205446Y-91680029D01*
X129195218Y-91701653D01*
X129182921Y-91722170D01*
X129168671Y-91741383D01*
X129152607Y-91759107D01*
X129134883Y-91775171D01*
X129115670Y-91789421D01*
X129095153Y-91801718D01*
X129073529Y-91811946D01*
X129051007Y-91820004D01*
X129027803Y-91825816D01*
X129004142Y-91829326D01*
X128980250Y-91830500D01*
X128067750Y-91830500D01*
X128043858Y-91829326D01*
X128020197Y-91825816D01*
X127996993Y-91820004D01*
X127974471Y-91811946D01*
X127952847Y-91801718D01*
X127932330Y-91789421D01*
X127913117Y-91775171D01*
X127895393Y-91759107D01*
X127879329Y-91741383D01*
X127865079Y-91722170D01*
X127852782Y-91701653D01*
X127842554Y-91680029D01*
X127834496Y-91657507D01*
X127828684Y-91634303D01*
X127825174Y-91610642D01*
X127824000Y-91586750D01*
X127824000Y-91099250D01*
X127825174Y-91075358D01*
X127828684Y-91051697D01*
X127834496Y-91028493D01*
X127842554Y-91005971D01*
X127852782Y-90984347D01*
X127865079Y-90963830D01*
X127879329Y-90944617D01*
X127895393Y-90926893D01*
X127913117Y-90910829D01*
X127932330Y-90896579D01*
X127952847Y-90884282D01*
X127974471Y-90874054D01*
X127996993Y-90865996D01*
X128020197Y-90860184D01*
X128043858Y-90856674D01*
X128067750Y-90855500D01*
X128980250Y-90855500D01*
X129004142Y-90856674D01*
X129004142Y-90856674D01*
G37*
D11*
X128524000Y-91343000D03*
D10*
G36*
X129004142Y-92731674D02*
X129027803Y-92735184D01*
X129051007Y-92740996D01*
X129073529Y-92749054D01*
X129095153Y-92759282D01*
X129115670Y-92771579D01*
X129134883Y-92785829D01*
X129152607Y-92801893D01*
X129168671Y-92819617D01*
X129182921Y-92838830D01*
X129195218Y-92859347D01*
X129205446Y-92880971D01*
X129213504Y-92903493D01*
X129219316Y-92926697D01*
X129222826Y-92950358D01*
X129224000Y-92974250D01*
X129224000Y-93461750D01*
X129222826Y-93485642D01*
X129219316Y-93509303D01*
X129213504Y-93532507D01*
X129205446Y-93555029D01*
X129195218Y-93576653D01*
X129182921Y-93597170D01*
X129168671Y-93616383D01*
X129152607Y-93634107D01*
X129134883Y-93650171D01*
X129115670Y-93664421D01*
X129095153Y-93676718D01*
X129073529Y-93686946D01*
X129051007Y-93695004D01*
X129027803Y-93700816D01*
X129004142Y-93704326D01*
X128980250Y-93705500D01*
X128067750Y-93705500D01*
X128043858Y-93704326D01*
X128020197Y-93700816D01*
X127996993Y-93695004D01*
X127974471Y-93686946D01*
X127952847Y-93676718D01*
X127932330Y-93664421D01*
X127913117Y-93650171D01*
X127895393Y-93634107D01*
X127879329Y-93616383D01*
X127865079Y-93597170D01*
X127852782Y-93576653D01*
X127842554Y-93555029D01*
X127834496Y-93532507D01*
X127828684Y-93509303D01*
X127825174Y-93485642D01*
X127824000Y-93461750D01*
X127824000Y-92974250D01*
X127825174Y-92950358D01*
X127828684Y-92926697D01*
X127834496Y-92903493D01*
X127842554Y-92880971D01*
X127852782Y-92859347D01*
X127865079Y-92838830D01*
X127879329Y-92819617D01*
X127895393Y-92801893D01*
X127913117Y-92785829D01*
X127932330Y-92771579D01*
X127952847Y-92759282D01*
X127974471Y-92749054D01*
X127996993Y-92740996D01*
X128020197Y-92735184D01*
X128043858Y-92731674D01*
X128067750Y-92730500D01*
X128980250Y-92730500D01*
X129004142Y-92731674D01*
X129004142Y-92731674D01*
G37*
D11*
X128524000Y-93218000D03*
D14*
X169926000Y-109710000D03*
X169926000Y-105410000D03*
D15*
X139446000Y-119888000D03*
X133246000Y-119888000D03*
D16*
X147094000Y-134620000D03*
X137894000Y-134620000D03*
X173256000Y-134620000D03*
X164056000Y-134620000D03*
D17*
X169799000Y-118258000D03*
X169799000Y-121158000D03*
D10*
G36*
X179416142Y-117157174D02*
X179439803Y-117160684D01*
X179463007Y-117166496D01*
X179485529Y-117174554D01*
X179507153Y-117184782D01*
X179527670Y-117197079D01*
X179546883Y-117211329D01*
X179564607Y-117227393D01*
X179580671Y-117245117D01*
X179594921Y-117264330D01*
X179607218Y-117284847D01*
X179617446Y-117306471D01*
X179625504Y-117328993D01*
X179631316Y-117352197D01*
X179634826Y-117375858D01*
X179636000Y-117399750D01*
X179636000Y-118312250D01*
X179634826Y-118336142D01*
X179631316Y-118359803D01*
X179625504Y-118383007D01*
X179617446Y-118405529D01*
X179607218Y-118427153D01*
X179594921Y-118447670D01*
X179580671Y-118466883D01*
X179564607Y-118484607D01*
X179546883Y-118500671D01*
X179527670Y-118514921D01*
X179507153Y-118527218D01*
X179485529Y-118537446D01*
X179463007Y-118545504D01*
X179439803Y-118551316D01*
X179416142Y-118554826D01*
X179392250Y-118556000D01*
X178904750Y-118556000D01*
X178880858Y-118554826D01*
X178857197Y-118551316D01*
X178833993Y-118545504D01*
X178811471Y-118537446D01*
X178789847Y-118527218D01*
X178769330Y-118514921D01*
X178750117Y-118500671D01*
X178732393Y-118484607D01*
X178716329Y-118466883D01*
X178702079Y-118447670D01*
X178689782Y-118427153D01*
X178679554Y-118405529D01*
X178671496Y-118383007D01*
X178665684Y-118359803D01*
X178662174Y-118336142D01*
X178661000Y-118312250D01*
X178661000Y-117399750D01*
X178662174Y-117375858D01*
X178665684Y-117352197D01*
X178671496Y-117328993D01*
X178679554Y-117306471D01*
X178689782Y-117284847D01*
X178702079Y-117264330D01*
X178716329Y-117245117D01*
X178732393Y-117227393D01*
X178750117Y-117211329D01*
X178769330Y-117197079D01*
X178789847Y-117184782D01*
X178811471Y-117174554D01*
X178833993Y-117166496D01*
X178857197Y-117160684D01*
X178880858Y-117157174D01*
X178904750Y-117156000D01*
X179392250Y-117156000D01*
X179416142Y-117157174D01*
X179416142Y-117157174D01*
G37*
D11*
X179148500Y-117856000D03*
D10*
G36*
X181291142Y-117157174D02*
X181314803Y-117160684D01*
X181338007Y-117166496D01*
X181360529Y-117174554D01*
X181382153Y-117184782D01*
X181402670Y-117197079D01*
X181421883Y-117211329D01*
X181439607Y-117227393D01*
X181455671Y-117245117D01*
X181469921Y-117264330D01*
X181482218Y-117284847D01*
X181492446Y-117306471D01*
X181500504Y-117328993D01*
X181506316Y-117352197D01*
X181509826Y-117375858D01*
X181511000Y-117399750D01*
X181511000Y-118312250D01*
X181509826Y-118336142D01*
X181506316Y-118359803D01*
X181500504Y-118383007D01*
X181492446Y-118405529D01*
X181482218Y-118427153D01*
X181469921Y-118447670D01*
X181455671Y-118466883D01*
X181439607Y-118484607D01*
X181421883Y-118500671D01*
X181402670Y-118514921D01*
X181382153Y-118527218D01*
X181360529Y-118537446D01*
X181338007Y-118545504D01*
X181314803Y-118551316D01*
X181291142Y-118554826D01*
X181267250Y-118556000D01*
X180779750Y-118556000D01*
X180755858Y-118554826D01*
X180732197Y-118551316D01*
X180708993Y-118545504D01*
X180686471Y-118537446D01*
X180664847Y-118527218D01*
X180644330Y-118514921D01*
X180625117Y-118500671D01*
X180607393Y-118484607D01*
X180591329Y-118466883D01*
X180577079Y-118447670D01*
X180564782Y-118427153D01*
X180554554Y-118405529D01*
X180546496Y-118383007D01*
X180540684Y-118359803D01*
X180537174Y-118336142D01*
X180536000Y-118312250D01*
X180536000Y-117399750D01*
X180537174Y-117375858D01*
X180540684Y-117352197D01*
X180546496Y-117328993D01*
X180554554Y-117306471D01*
X180564782Y-117284847D01*
X180577079Y-117264330D01*
X180591329Y-117245117D01*
X180607393Y-117227393D01*
X180625117Y-117211329D01*
X180644330Y-117197079D01*
X180664847Y-117184782D01*
X180686471Y-117174554D01*
X180708993Y-117166496D01*
X180732197Y-117160684D01*
X180755858Y-117157174D01*
X180779750Y-117156000D01*
X181267250Y-117156000D01*
X181291142Y-117157174D01*
X181291142Y-117157174D01*
G37*
D11*
X181023500Y-117856000D03*
D10*
G36*
X133830142Y-132609674D02*
X133853803Y-132613184D01*
X133877007Y-132618996D01*
X133899529Y-132627054D01*
X133921153Y-132637282D01*
X133941670Y-132649579D01*
X133960883Y-132663829D01*
X133978607Y-132679893D01*
X133994671Y-132697617D01*
X134008921Y-132716830D01*
X134021218Y-132737347D01*
X134031446Y-132758971D01*
X134039504Y-132781493D01*
X134045316Y-132804697D01*
X134048826Y-132828358D01*
X134050000Y-132852250D01*
X134050000Y-133339750D01*
X134048826Y-133363642D01*
X134045316Y-133387303D01*
X134039504Y-133410507D01*
X134031446Y-133433029D01*
X134021218Y-133454653D01*
X134008921Y-133475170D01*
X133994671Y-133494383D01*
X133978607Y-133512107D01*
X133960883Y-133528171D01*
X133941670Y-133542421D01*
X133921153Y-133554718D01*
X133899529Y-133564946D01*
X133877007Y-133573004D01*
X133853803Y-133578816D01*
X133830142Y-133582326D01*
X133806250Y-133583500D01*
X132893750Y-133583500D01*
X132869858Y-133582326D01*
X132846197Y-133578816D01*
X132822993Y-133573004D01*
X132800471Y-133564946D01*
X132778847Y-133554718D01*
X132758330Y-133542421D01*
X132739117Y-133528171D01*
X132721393Y-133512107D01*
X132705329Y-133494383D01*
X132691079Y-133475170D01*
X132678782Y-133454653D01*
X132668554Y-133433029D01*
X132660496Y-133410507D01*
X132654684Y-133387303D01*
X132651174Y-133363642D01*
X132650000Y-133339750D01*
X132650000Y-132852250D01*
X132651174Y-132828358D01*
X132654684Y-132804697D01*
X132660496Y-132781493D01*
X132668554Y-132758971D01*
X132678782Y-132737347D01*
X132691079Y-132716830D01*
X132705329Y-132697617D01*
X132721393Y-132679893D01*
X132739117Y-132663829D01*
X132758330Y-132649579D01*
X132778847Y-132637282D01*
X132800471Y-132627054D01*
X132822993Y-132618996D01*
X132846197Y-132613184D01*
X132869858Y-132609674D01*
X132893750Y-132608500D01*
X133806250Y-132608500D01*
X133830142Y-132609674D01*
X133830142Y-132609674D01*
G37*
D11*
X133350000Y-133096000D03*
D10*
G36*
X133830142Y-130734674D02*
X133853803Y-130738184D01*
X133877007Y-130743996D01*
X133899529Y-130752054D01*
X133921153Y-130762282D01*
X133941670Y-130774579D01*
X133960883Y-130788829D01*
X133978607Y-130804893D01*
X133994671Y-130822617D01*
X134008921Y-130841830D01*
X134021218Y-130862347D01*
X134031446Y-130883971D01*
X134039504Y-130906493D01*
X134045316Y-130929697D01*
X134048826Y-130953358D01*
X134050000Y-130977250D01*
X134050000Y-131464750D01*
X134048826Y-131488642D01*
X134045316Y-131512303D01*
X134039504Y-131535507D01*
X134031446Y-131558029D01*
X134021218Y-131579653D01*
X134008921Y-131600170D01*
X133994671Y-131619383D01*
X133978607Y-131637107D01*
X133960883Y-131653171D01*
X133941670Y-131667421D01*
X133921153Y-131679718D01*
X133899529Y-131689946D01*
X133877007Y-131698004D01*
X133853803Y-131703816D01*
X133830142Y-131707326D01*
X133806250Y-131708500D01*
X132893750Y-131708500D01*
X132869858Y-131707326D01*
X132846197Y-131703816D01*
X132822993Y-131698004D01*
X132800471Y-131689946D01*
X132778847Y-131679718D01*
X132758330Y-131667421D01*
X132739117Y-131653171D01*
X132721393Y-131637107D01*
X132705329Y-131619383D01*
X132691079Y-131600170D01*
X132678782Y-131579653D01*
X132668554Y-131558029D01*
X132660496Y-131535507D01*
X132654684Y-131512303D01*
X132651174Y-131488642D01*
X132650000Y-131464750D01*
X132650000Y-130977250D01*
X132651174Y-130953358D01*
X132654684Y-130929697D01*
X132660496Y-130906493D01*
X132668554Y-130883971D01*
X132678782Y-130862347D01*
X132691079Y-130841830D01*
X132705329Y-130822617D01*
X132721393Y-130804893D01*
X132739117Y-130788829D01*
X132758330Y-130774579D01*
X132778847Y-130762282D01*
X132800471Y-130752054D01*
X132822993Y-130743996D01*
X132846197Y-130738184D01*
X132869858Y-130734674D01*
X132893750Y-130733500D01*
X133806250Y-130733500D01*
X133830142Y-130734674D01*
X133830142Y-130734674D01*
G37*
D11*
X133350000Y-131221000D03*
D10*
G36*
X133576142Y-104161674D02*
X133599803Y-104165184D01*
X133623007Y-104170996D01*
X133645529Y-104179054D01*
X133667153Y-104189282D01*
X133687670Y-104201579D01*
X133706883Y-104215829D01*
X133724607Y-104231893D01*
X133740671Y-104249617D01*
X133754921Y-104268830D01*
X133767218Y-104289347D01*
X133777446Y-104310971D01*
X133785504Y-104333493D01*
X133791316Y-104356697D01*
X133794826Y-104380358D01*
X133796000Y-104404250D01*
X133796000Y-104891750D01*
X133794826Y-104915642D01*
X133791316Y-104939303D01*
X133785504Y-104962507D01*
X133777446Y-104985029D01*
X133767218Y-105006653D01*
X133754921Y-105027170D01*
X133740671Y-105046383D01*
X133724607Y-105064107D01*
X133706883Y-105080171D01*
X133687670Y-105094421D01*
X133667153Y-105106718D01*
X133645529Y-105116946D01*
X133623007Y-105125004D01*
X133599803Y-105130816D01*
X133576142Y-105134326D01*
X133552250Y-105135500D01*
X132639750Y-105135500D01*
X132615858Y-105134326D01*
X132592197Y-105130816D01*
X132568993Y-105125004D01*
X132546471Y-105116946D01*
X132524847Y-105106718D01*
X132504330Y-105094421D01*
X132485117Y-105080171D01*
X132467393Y-105064107D01*
X132451329Y-105046383D01*
X132437079Y-105027170D01*
X132424782Y-105006653D01*
X132414554Y-104985029D01*
X132406496Y-104962507D01*
X132400684Y-104939303D01*
X132397174Y-104915642D01*
X132396000Y-104891750D01*
X132396000Y-104404250D01*
X132397174Y-104380358D01*
X132400684Y-104356697D01*
X132406496Y-104333493D01*
X132414554Y-104310971D01*
X132424782Y-104289347D01*
X132437079Y-104268830D01*
X132451329Y-104249617D01*
X132467393Y-104231893D01*
X132485117Y-104215829D01*
X132504330Y-104201579D01*
X132524847Y-104189282D01*
X132546471Y-104179054D01*
X132568993Y-104170996D01*
X132592197Y-104165184D01*
X132615858Y-104161674D01*
X132639750Y-104160500D01*
X133552250Y-104160500D01*
X133576142Y-104161674D01*
X133576142Y-104161674D01*
G37*
D11*
X133096000Y-104648000D03*
D10*
G36*
X133576142Y-102286674D02*
X133599803Y-102290184D01*
X133623007Y-102295996D01*
X133645529Y-102304054D01*
X133667153Y-102314282D01*
X133687670Y-102326579D01*
X133706883Y-102340829D01*
X133724607Y-102356893D01*
X133740671Y-102374617D01*
X133754921Y-102393830D01*
X133767218Y-102414347D01*
X133777446Y-102435971D01*
X133785504Y-102458493D01*
X133791316Y-102481697D01*
X133794826Y-102505358D01*
X133796000Y-102529250D01*
X133796000Y-103016750D01*
X133794826Y-103040642D01*
X133791316Y-103064303D01*
X133785504Y-103087507D01*
X133777446Y-103110029D01*
X133767218Y-103131653D01*
X133754921Y-103152170D01*
X133740671Y-103171383D01*
X133724607Y-103189107D01*
X133706883Y-103205171D01*
X133687670Y-103219421D01*
X133667153Y-103231718D01*
X133645529Y-103241946D01*
X133623007Y-103250004D01*
X133599803Y-103255816D01*
X133576142Y-103259326D01*
X133552250Y-103260500D01*
X132639750Y-103260500D01*
X132615858Y-103259326D01*
X132592197Y-103255816D01*
X132568993Y-103250004D01*
X132546471Y-103241946D01*
X132524847Y-103231718D01*
X132504330Y-103219421D01*
X132485117Y-103205171D01*
X132467393Y-103189107D01*
X132451329Y-103171383D01*
X132437079Y-103152170D01*
X132424782Y-103131653D01*
X132414554Y-103110029D01*
X132406496Y-103087507D01*
X132400684Y-103064303D01*
X132397174Y-103040642D01*
X132396000Y-103016750D01*
X132396000Y-102529250D01*
X132397174Y-102505358D01*
X132400684Y-102481697D01*
X132406496Y-102458493D01*
X132414554Y-102435971D01*
X132424782Y-102414347D01*
X132437079Y-102393830D01*
X132451329Y-102374617D01*
X132467393Y-102356893D01*
X132485117Y-102340829D01*
X132504330Y-102326579D01*
X132524847Y-102314282D01*
X132546471Y-102304054D01*
X132568993Y-102295996D01*
X132592197Y-102290184D01*
X132615858Y-102286674D01*
X132639750Y-102285500D01*
X133552250Y-102285500D01*
X133576142Y-102286674D01*
X133576142Y-102286674D01*
G37*
D11*
X133096000Y-102773000D03*
D10*
G36*
X144498142Y-96033674D02*
X144521803Y-96037184D01*
X144545007Y-96042996D01*
X144567529Y-96051054D01*
X144589153Y-96061282D01*
X144609670Y-96073579D01*
X144628883Y-96087829D01*
X144646607Y-96103893D01*
X144662671Y-96121617D01*
X144676921Y-96140830D01*
X144689218Y-96161347D01*
X144699446Y-96182971D01*
X144707504Y-96205493D01*
X144713316Y-96228697D01*
X144716826Y-96252358D01*
X144718000Y-96276250D01*
X144718000Y-96763750D01*
X144716826Y-96787642D01*
X144713316Y-96811303D01*
X144707504Y-96834507D01*
X144699446Y-96857029D01*
X144689218Y-96878653D01*
X144676921Y-96899170D01*
X144662671Y-96918383D01*
X144646607Y-96936107D01*
X144628883Y-96952171D01*
X144609670Y-96966421D01*
X144589153Y-96978718D01*
X144567529Y-96988946D01*
X144545007Y-96997004D01*
X144521803Y-97002816D01*
X144498142Y-97006326D01*
X144474250Y-97007500D01*
X143561750Y-97007500D01*
X143537858Y-97006326D01*
X143514197Y-97002816D01*
X143490993Y-96997004D01*
X143468471Y-96988946D01*
X143446847Y-96978718D01*
X143426330Y-96966421D01*
X143407117Y-96952171D01*
X143389393Y-96936107D01*
X143373329Y-96918383D01*
X143359079Y-96899170D01*
X143346782Y-96878653D01*
X143336554Y-96857029D01*
X143328496Y-96834507D01*
X143322684Y-96811303D01*
X143319174Y-96787642D01*
X143318000Y-96763750D01*
X143318000Y-96276250D01*
X143319174Y-96252358D01*
X143322684Y-96228697D01*
X143328496Y-96205493D01*
X143336554Y-96182971D01*
X143346782Y-96161347D01*
X143359079Y-96140830D01*
X143373329Y-96121617D01*
X143389393Y-96103893D01*
X143407117Y-96087829D01*
X143426330Y-96073579D01*
X143446847Y-96061282D01*
X143468471Y-96051054D01*
X143490993Y-96042996D01*
X143514197Y-96037184D01*
X143537858Y-96033674D01*
X143561750Y-96032500D01*
X144474250Y-96032500D01*
X144498142Y-96033674D01*
X144498142Y-96033674D01*
G37*
D11*
X144018000Y-96520000D03*
D10*
G36*
X144498142Y-94158674D02*
X144521803Y-94162184D01*
X144545007Y-94167996D01*
X144567529Y-94176054D01*
X144589153Y-94186282D01*
X144609670Y-94198579D01*
X144628883Y-94212829D01*
X144646607Y-94228893D01*
X144662671Y-94246617D01*
X144676921Y-94265830D01*
X144689218Y-94286347D01*
X144699446Y-94307971D01*
X144707504Y-94330493D01*
X144713316Y-94353697D01*
X144716826Y-94377358D01*
X144718000Y-94401250D01*
X144718000Y-94888750D01*
X144716826Y-94912642D01*
X144713316Y-94936303D01*
X144707504Y-94959507D01*
X144699446Y-94982029D01*
X144689218Y-95003653D01*
X144676921Y-95024170D01*
X144662671Y-95043383D01*
X144646607Y-95061107D01*
X144628883Y-95077171D01*
X144609670Y-95091421D01*
X144589153Y-95103718D01*
X144567529Y-95113946D01*
X144545007Y-95122004D01*
X144521803Y-95127816D01*
X144498142Y-95131326D01*
X144474250Y-95132500D01*
X143561750Y-95132500D01*
X143537858Y-95131326D01*
X143514197Y-95127816D01*
X143490993Y-95122004D01*
X143468471Y-95113946D01*
X143446847Y-95103718D01*
X143426330Y-95091421D01*
X143407117Y-95077171D01*
X143389393Y-95061107D01*
X143373329Y-95043383D01*
X143359079Y-95024170D01*
X143346782Y-95003653D01*
X143336554Y-94982029D01*
X143328496Y-94959507D01*
X143322684Y-94936303D01*
X143319174Y-94912642D01*
X143318000Y-94888750D01*
X143318000Y-94401250D01*
X143319174Y-94377358D01*
X143322684Y-94353697D01*
X143328496Y-94330493D01*
X143336554Y-94307971D01*
X143346782Y-94286347D01*
X143359079Y-94265830D01*
X143373329Y-94246617D01*
X143389393Y-94228893D01*
X143407117Y-94212829D01*
X143426330Y-94198579D01*
X143446847Y-94186282D01*
X143468471Y-94176054D01*
X143490993Y-94167996D01*
X143514197Y-94162184D01*
X143537858Y-94158674D01*
X143561750Y-94157500D01*
X144474250Y-94157500D01*
X144498142Y-94158674D01*
X144498142Y-94158674D01*
G37*
D11*
X144018000Y-94645000D03*
D10*
G36*
X129004142Y-94412674D02*
X129027803Y-94416184D01*
X129051007Y-94421996D01*
X129073529Y-94430054D01*
X129095153Y-94440282D01*
X129115670Y-94452579D01*
X129134883Y-94466829D01*
X129152607Y-94482893D01*
X129168671Y-94500617D01*
X129182921Y-94519830D01*
X129195218Y-94540347D01*
X129205446Y-94561971D01*
X129213504Y-94584493D01*
X129219316Y-94607697D01*
X129222826Y-94631358D01*
X129224000Y-94655250D01*
X129224000Y-95142750D01*
X129222826Y-95166642D01*
X129219316Y-95190303D01*
X129213504Y-95213507D01*
X129205446Y-95236029D01*
X129195218Y-95257653D01*
X129182921Y-95278170D01*
X129168671Y-95297383D01*
X129152607Y-95315107D01*
X129134883Y-95331171D01*
X129115670Y-95345421D01*
X129095153Y-95357718D01*
X129073529Y-95367946D01*
X129051007Y-95376004D01*
X129027803Y-95381816D01*
X129004142Y-95385326D01*
X128980250Y-95386500D01*
X128067750Y-95386500D01*
X128043858Y-95385326D01*
X128020197Y-95381816D01*
X127996993Y-95376004D01*
X127974471Y-95367946D01*
X127952847Y-95357718D01*
X127932330Y-95345421D01*
X127913117Y-95331171D01*
X127895393Y-95315107D01*
X127879329Y-95297383D01*
X127865079Y-95278170D01*
X127852782Y-95257653D01*
X127842554Y-95236029D01*
X127834496Y-95213507D01*
X127828684Y-95190303D01*
X127825174Y-95166642D01*
X127824000Y-95142750D01*
X127824000Y-94655250D01*
X127825174Y-94631358D01*
X127828684Y-94607697D01*
X127834496Y-94584493D01*
X127842554Y-94561971D01*
X127852782Y-94540347D01*
X127865079Y-94519830D01*
X127879329Y-94500617D01*
X127895393Y-94482893D01*
X127913117Y-94466829D01*
X127932330Y-94452579D01*
X127952847Y-94440282D01*
X127974471Y-94430054D01*
X127996993Y-94421996D01*
X128020197Y-94416184D01*
X128043858Y-94412674D01*
X128067750Y-94411500D01*
X128980250Y-94411500D01*
X129004142Y-94412674D01*
X129004142Y-94412674D01*
G37*
D11*
X128524000Y-94899000D03*
D10*
G36*
X129004142Y-96287674D02*
X129027803Y-96291184D01*
X129051007Y-96296996D01*
X129073529Y-96305054D01*
X129095153Y-96315282D01*
X129115670Y-96327579D01*
X129134883Y-96341829D01*
X129152607Y-96357893D01*
X129168671Y-96375617D01*
X129182921Y-96394830D01*
X129195218Y-96415347D01*
X129205446Y-96436971D01*
X129213504Y-96459493D01*
X129219316Y-96482697D01*
X129222826Y-96506358D01*
X129224000Y-96530250D01*
X129224000Y-97017750D01*
X129222826Y-97041642D01*
X129219316Y-97065303D01*
X129213504Y-97088507D01*
X129205446Y-97111029D01*
X129195218Y-97132653D01*
X129182921Y-97153170D01*
X129168671Y-97172383D01*
X129152607Y-97190107D01*
X129134883Y-97206171D01*
X129115670Y-97220421D01*
X129095153Y-97232718D01*
X129073529Y-97242946D01*
X129051007Y-97251004D01*
X129027803Y-97256816D01*
X129004142Y-97260326D01*
X128980250Y-97261500D01*
X128067750Y-97261500D01*
X128043858Y-97260326D01*
X128020197Y-97256816D01*
X127996993Y-97251004D01*
X127974471Y-97242946D01*
X127952847Y-97232718D01*
X127932330Y-97220421D01*
X127913117Y-97206171D01*
X127895393Y-97190107D01*
X127879329Y-97172383D01*
X127865079Y-97153170D01*
X127852782Y-97132653D01*
X127842554Y-97111029D01*
X127834496Y-97088507D01*
X127828684Y-97065303D01*
X127825174Y-97041642D01*
X127824000Y-97017750D01*
X127824000Y-96530250D01*
X127825174Y-96506358D01*
X127828684Y-96482697D01*
X127834496Y-96459493D01*
X127842554Y-96436971D01*
X127852782Y-96415347D01*
X127865079Y-96394830D01*
X127879329Y-96375617D01*
X127895393Y-96357893D01*
X127913117Y-96341829D01*
X127932330Y-96327579D01*
X127952847Y-96315282D01*
X127974471Y-96305054D01*
X127996993Y-96296996D01*
X128020197Y-96291184D01*
X128043858Y-96287674D01*
X128067750Y-96286500D01*
X128980250Y-96286500D01*
X129004142Y-96287674D01*
X129004142Y-96287674D01*
G37*
D11*
X128524000Y-96774000D03*
D10*
G36*
X147800142Y-94255674D02*
X147823803Y-94259184D01*
X147847007Y-94264996D01*
X147869529Y-94273054D01*
X147891153Y-94283282D01*
X147911670Y-94295579D01*
X147930883Y-94309829D01*
X147948607Y-94325893D01*
X147964671Y-94343617D01*
X147978921Y-94362830D01*
X147991218Y-94383347D01*
X148001446Y-94404971D01*
X148009504Y-94427493D01*
X148015316Y-94450697D01*
X148018826Y-94474358D01*
X148020000Y-94498250D01*
X148020000Y-94985750D01*
X148018826Y-95009642D01*
X148015316Y-95033303D01*
X148009504Y-95056507D01*
X148001446Y-95079029D01*
X147991218Y-95100653D01*
X147978921Y-95121170D01*
X147964671Y-95140383D01*
X147948607Y-95158107D01*
X147930883Y-95174171D01*
X147911670Y-95188421D01*
X147891153Y-95200718D01*
X147869529Y-95210946D01*
X147847007Y-95219004D01*
X147823803Y-95224816D01*
X147800142Y-95228326D01*
X147776250Y-95229500D01*
X146863750Y-95229500D01*
X146839858Y-95228326D01*
X146816197Y-95224816D01*
X146792993Y-95219004D01*
X146770471Y-95210946D01*
X146748847Y-95200718D01*
X146728330Y-95188421D01*
X146709117Y-95174171D01*
X146691393Y-95158107D01*
X146675329Y-95140383D01*
X146661079Y-95121170D01*
X146648782Y-95100653D01*
X146638554Y-95079029D01*
X146630496Y-95056507D01*
X146624684Y-95033303D01*
X146621174Y-95009642D01*
X146620000Y-94985750D01*
X146620000Y-94498250D01*
X146621174Y-94474358D01*
X146624684Y-94450697D01*
X146630496Y-94427493D01*
X146638554Y-94404971D01*
X146648782Y-94383347D01*
X146661079Y-94362830D01*
X146675329Y-94343617D01*
X146691393Y-94325893D01*
X146709117Y-94309829D01*
X146728330Y-94295579D01*
X146748847Y-94283282D01*
X146770471Y-94273054D01*
X146792993Y-94264996D01*
X146816197Y-94259184D01*
X146839858Y-94255674D01*
X146863750Y-94254500D01*
X147776250Y-94254500D01*
X147800142Y-94255674D01*
X147800142Y-94255674D01*
G37*
D11*
X147320000Y-94742000D03*
D10*
G36*
X147800142Y-96130674D02*
X147823803Y-96134184D01*
X147847007Y-96139996D01*
X147869529Y-96148054D01*
X147891153Y-96158282D01*
X147911670Y-96170579D01*
X147930883Y-96184829D01*
X147948607Y-96200893D01*
X147964671Y-96218617D01*
X147978921Y-96237830D01*
X147991218Y-96258347D01*
X148001446Y-96279971D01*
X148009504Y-96302493D01*
X148015316Y-96325697D01*
X148018826Y-96349358D01*
X148020000Y-96373250D01*
X148020000Y-96860750D01*
X148018826Y-96884642D01*
X148015316Y-96908303D01*
X148009504Y-96931507D01*
X148001446Y-96954029D01*
X147991218Y-96975653D01*
X147978921Y-96996170D01*
X147964671Y-97015383D01*
X147948607Y-97033107D01*
X147930883Y-97049171D01*
X147911670Y-97063421D01*
X147891153Y-97075718D01*
X147869529Y-97085946D01*
X147847007Y-97094004D01*
X147823803Y-97099816D01*
X147800142Y-97103326D01*
X147776250Y-97104500D01*
X146863750Y-97104500D01*
X146839858Y-97103326D01*
X146816197Y-97099816D01*
X146792993Y-97094004D01*
X146770471Y-97085946D01*
X146748847Y-97075718D01*
X146728330Y-97063421D01*
X146709117Y-97049171D01*
X146691393Y-97033107D01*
X146675329Y-97015383D01*
X146661079Y-96996170D01*
X146648782Y-96975653D01*
X146638554Y-96954029D01*
X146630496Y-96931507D01*
X146624684Y-96908303D01*
X146621174Y-96884642D01*
X146620000Y-96860750D01*
X146620000Y-96373250D01*
X146621174Y-96349358D01*
X146624684Y-96325697D01*
X146630496Y-96302493D01*
X146638554Y-96279971D01*
X146648782Y-96258347D01*
X146661079Y-96237830D01*
X146675329Y-96218617D01*
X146691393Y-96200893D01*
X146709117Y-96184829D01*
X146728330Y-96170579D01*
X146748847Y-96158282D01*
X146770471Y-96148054D01*
X146792993Y-96139996D01*
X146816197Y-96134184D01*
X146839858Y-96130674D01*
X146863750Y-96129500D01*
X147776250Y-96129500D01*
X147800142Y-96130674D01*
X147800142Y-96130674D01*
G37*
D11*
X147320000Y-96617000D03*
D10*
G36*
X177264142Y-115591674D02*
X177287803Y-115595184D01*
X177311007Y-115600996D01*
X177333529Y-115609054D01*
X177355153Y-115619282D01*
X177375670Y-115631579D01*
X177394883Y-115645829D01*
X177412607Y-115661893D01*
X177428671Y-115679617D01*
X177442921Y-115698830D01*
X177455218Y-115719347D01*
X177465446Y-115740971D01*
X177473504Y-115763493D01*
X177479316Y-115786697D01*
X177482826Y-115810358D01*
X177484000Y-115834250D01*
X177484000Y-116321750D01*
X177482826Y-116345642D01*
X177479316Y-116369303D01*
X177473504Y-116392507D01*
X177465446Y-116415029D01*
X177455218Y-116436653D01*
X177442921Y-116457170D01*
X177428671Y-116476383D01*
X177412607Y-116494107D01*
X177394883Y-116510171D01*
X177375670Y-116524421D01*
X177355153Y-116536718D01*
X177333529Y-116546946D01*
X177311007Y-116555004D01*
X177287803Y-116560816D01*
X177264142Y-116564326D01*
X177240250Y-116565500D01*
X176327750Y-116565500D01*
X176303858Y-116564326D01*
X176280197Y-116560816D01*
X176256993Y-116555004D01*
X176234471Y-116546946D01*
X176212847Y-116536718D01*
X176192330Y-116524421D01*
X176173117Y-116510171D01*
X176155393Y-116494107D01*
X176139329Y-116476383D01*
X176125079Y-116457170D01*
X176112782Y-116436653D01*
X176102554Y-116415029D01*
X176094496Y-116392507D01*
X176088684Y-116369303D01*
X176085174Y-116345642D01*
X176084000Y-116321750D01*
X176084000Y-115834250D01*
X176085174Y-115810358D01*
X176088684Y-115786697D01*
X176094496Y-115763493D01*
X176102554Y-115740971D01*
X176112782Y-115719347D01*
X176125079Y-115698830D01*
X176139329Y-115679617D01*
X176155393Y-115661893D01*
X176173117Y-115645829D01*
X176192330Y-115631579D01*
X176212847Y-115619282D01*
X176234471Y-115609054D01*
X176256993Y-115600996D01*
X176280197Y-115595184D01*
X176303858Y-115591674D01*
X176327750Y-115590500D01*
X177240250Y-115590500D01*
X177264142Y-115591674D01*
X177264142Y-115591674D01*
G37*
D11*
X176784000Y-116078000D03*
D10*
G36*
X177264142Y-113716674D02*
X177287803Y-113720184D01*
X177311007Y-113725996D01*
X177333529Y-113734054D01*
X177355153Y-113744282D01*
X177375670Y-113756579D01*
X177394883Y-113770829D01*
X177412607Y-113786893D01*
X177428671Y-113804617D01*
X177442921Y-113823830D01*
X177455218Y-113844347D01*
X177465446Y-113865971D01*
X177473504Y-113888493D01*
X177479316Y-113911697D01*
X177482826Y-113935358D01*
X177484000Y-113959250D01*
X177484000Y-114446750D01*
X177482826Y-114470642D01*
X177479316Y-114494303D01*
X177473504Y-114517507D01*
X177465446Y-114540029D01*
X177455218Y-114561653D01*
X177442921Y-114582170D01*
X177428671Y-114601383D01*
X177412607Y-114619107D01*
X177394883Y-114635171D01*
X177375670Y-114649421D01*
X177355153Y-114661718D01*
X177333529Y-114671946D01*
X177311007Y-114680004D01*
X177287803Y-114685816D01*
X177264142Y-114689326D01*
X177240250Y-114690500D01*
X176327750Y-114690500D01*
X176303858Y-114689326D01*
X176280197Y-114685816D01*
X176256993Y-114680004D01*
X176234471Y-114671946D01*
X176212847Y-114661718D01*
X176192330Y-114649421D01*
X176173117Y-114635171D01*
X176155393Y-114619107D01*
X176139329Y-114601383D01*
X176125079Y-114582170D01*
X176112782Y-114561653D01*
X176102554Y-114540029D01*
X176094496Y-114517507D01*
X176088684Y-114494303D01*
X176085174Y-114470642D01*
X176084000Y-114446750D01*
X176084000Y-113959250D01*
X176085174Y-113935358D01*
X176088684Y-113911697D01*
X176094496Y-113888493D01*
X176102554Y-113865971D01*
X176112782Y-113844347D01*
X176125079Y-113823830D01*
X176139329Y-113804617D01*
X176155393Y-113786893D01*
X176173117Y-113770829D01*
X176192330Y-113756579D01*
X176212847Y-113744282D01*
X176234471Y-113734054D01*
X176256993Y-113725996D01*
X176280197Y-113720184D01*
X176303858Y-113716674D01*
X176327750Y-113715500D01*
X177240250Y-113715500D01*
X177264142Y-113716674D01*
X177264142Y-113716674D01*
G37*
D11*
X176784000Y-114203000D03*
D18*
X182593500Y-124730000D03*
D19*
X179893500Y-126380000D03*
X179893500Y-127030000D03*
X179893500Y-124430000D03*
X179893500Y-125080000D03*
X179893500Y-125730000D03*
D18*
X182593500Y-126730000D03*
D12*
X153840000Y-103124000D03*
X156040000Y-102174000D03*
X156040000Y-104074000D03*
D13*
X173675000Y-118196000D03*
X174625000Y-120396000D03*
X172725000Y-120396000D03*
D20*
X128314000Y-126238000D03*
X133814000Y-126238000D03*
D10*
G36*
X161382142Y-115125174D02*
X161405803Y-115128684D01*
X161429007Y-115134496D01*
X161451529Y-115142554D01*
X161473153Y-115152782D01*
X161493670Y-115165079D01*
X161512883Y-115179329D01*
X161530607Y-115195393D01*
X161546671Y-115213117D01*
X161560921Y-115232330D01*
X161573218Y-115252847D01*
X161583446Y-115274471D01*
X161591504Y-115296993D01*
X161597316Y-115320197D01*
X161600826Y-115343858D01*
X161602000Y-115367750D01*
X161602000Y-116280250D01*
X161600826Y-116304142D01*
X161597316Y-116327803D01*
X161591504Y-116351007D01*
X161583446Y-116373529D01*
X161573218Y-116395153D01*
X161560921Y-116415670D01*
X161546671Y-116434883D01*
X161530607Y-116452607D01*
X161512883Y-116468671D01*
X161493670Y-116482921D01*
X161473153Y-116495218D01*
X161451529Y-116505446D01*
X161429007Y-116513504D01*
X161405803Y-116519316D01*
X161382142Y-116522826D01*
X161358250Y-116524000D01*
X160870750Y-116524000D01*
X160846858Y-116522826D01*
X160823197Y-116519316D01*
X160799993Y-116513504D01*
X160777471Y-116505446D01*
X160755847Y-116495218D01*
X160735330Y-116482921D01*
X160716117Y-116468671D01*
X160698393Y-116452607D01*
X160682329Y-116434883D01*
X160668079Y-116415670D01*
X160655782Y-116395153D01*
X160645554Y-116373529D01*
X160637496Y-116351007D01*
X160631684Y-116327803D01*
X160628174Y-116304142D01*
X160627000Y-116280250D01*
X160627000Y-115367750D01*
X160628174Y-115343858D01*
X160631684Y-115320197D01*
X160637496Y-115296993D01*
X160645554Y-115274471D01*
X160655782Y-115252847D01*
X160668079Y-115232330D01*
X160682329Y-115213117D01*
X160698393Y-115195393D01*
X160716117Y-115179329D01*
X160735330Y-115165079D01*
X160755847Y-115152782D01*
X160777471Y-115142554D01*
X160799993Y-115134496D01*
X160823197Y-115128684D01*
X160846858Y-115125174D01*
X160870750Y-115124000D01*
X161358250Y-115124000D01*
X161382142Y-115125174D01*
X161382142Y-115125174D01*
G37*
D11*
X161114500Y-115824000D03*
D10*
G36*
X163257142Y-115125174D02*
X163280803Y-115128684D01*
X163304007Y-115134496D01*
X163326529Y-115142554D01*
X163348153Y-115152782D01*
X163368670Y-115165079D01*
X163387883Y-115179329D01*
X163405607Y-115195393D01*
X163421671Y-115213117D01*
X163435921Y-115232330D01*
X163448218Y-115252847D01*
X163458446Y-115274471D01*
X163466504Y-115296993D01*
X163472316Y-115320197D01*
X163475826Y-115343858D01*
X163477000Y-115367750D01*
X163477000Y-116280250D01*
X163475826Y-116304142D01*
X163472316Y-116327803D01*
X163466504Y-116351007D01*
X163458446Y-116373529D01*
X163448218Y-116395153D01*
X163435921Y-116415670D01*
X163421671Y-116434883D01*
X163405607Y-116452607D01*
X163387883Y-116468671D01*
X163368670Y-116482921D01*
X163348153Y-116495218D01*
X163326529Y-116505446D01*
X163304007Y-116513504D01*
X163280803Y-116519316D01*
X163257142Y-116522826D01*
X163233250Y-116524000D01*
X162745750Y-116524000D01*
X162721858Y-116522826D01*
X162698197Y-116519316D01*
X162674993Y-116513504D01*
X162652471Y-116505446D01*
X162630847Y-116495218D01*
X162610330Y-116482921D01*
X162591117Y-116468671D01*
X162573393Y-116452607D01*
X162557329Y-116434883D01*
X162543079Y-116415670D01*
X162530782Y-116395153D01*
X162520554Y-116373529D01*
X162512496Y-116351007D01*
X162506684Y-116327803D01*
X162503174Y-116304142D01*
X162502000Y-116280250D01*
X162502000Y-115367750D01*
X162503174Y-115343858D01*
X162506684Y-115320197D01*
X162512496Y-115296993D01*
X162520554Y-115274471D01*
X162530782Y-115252847D01*
X162543079Y-115232330D01*
X162557329Y-115213117D01*
X162573393Y-115195393D01*
X162591117Y-115179329D01*
X162610330Y-115165079D01*
X162630847Y-115152782D01*
X162652471Y-115142554D01*
X162674993Y-115134496D01*
X162698197Y-115128684D01*
X162721858Y-115125174D01*
X162745750Y-115124000D01*
X163233250Y-115124000D01*
X163257142Y-115125174D01*
X163257142Y-115125174D01*
G37*
D11*
X162989500Y-115824000D03*
D10*
G36*
X163257142Y-103949174D02*
X163280803Y-103952684D01*
X163304007Y-103958496D01*
X163326529Y-103966554D01*
X163348153Y-103976782D01*
X163368670Y-103989079D01*
X163387883Y-104003329D01*
X163405607Y-104019393D01*
X163421671Y-104037117D01*
X163435921Y-104056330D01*
X163448218Y-104076847D01*
X163458446Y-104098471D01*
X163466504Y-104120993D01*
X163472316Y-104144197D01*
X163475826Y-104167858D01*
X163477000Y-104191750D01*
X163477000Y-105104250D01*
X163475826Y-105128142D01*
X163472316Y-105151803D01*
X163466504Y-105175007D01*
X163458446Y-105197529D01*
X163448218Y-105219153D01*
X163435921Y-105239670D01*
X163421671Y-105258883D01*
X163405607Y-105276607D01*
X163387883Y-105292671D01*
X163368670Y-105306921D01*
X163348153Y-105319218D01*
X163326529Y-105329446D01*
X163304007Y-105337504D01*
X163280803Y-105343316D01*
X163257142Y-105346826D01*
X163233250Y-105348000D01*
X162745750Y-105348000D01*
X162721858Y-105346826D01*
X162698197Y-105343316D01*
X162674993Y-105337504D01*
X162652471Y-105329446D01*
X162630847Y-105319218D01*
X162610330Y-105306921D01*
X162591117Y-105292671D01*
X162573393Y-105276607D01*
X162557329Y-105258883D01*
X162543079Y-105239670D01*
X162530782Y-105219153D01*
X162520554Y-105197529D01*
X162512496Y-105175007D01*
X162506684Y-105151803D01*
X162503174Y-105128142D01*
X162502000Y-105104250D01*
X162502000Y-104191750D01*
X162503174Y-104167858D01*
X162506684Y-104144197D01*
X162512496Y-104120993D01*
X162520554Y-104098471D01*
X162530782Y-104076847D01*
X162543079Y-104056330D01*
X162557329Y-104037117D01*
X162573393Y-104019393D01*
X162591117Y-104003329D01*
X162610330Y-103989079D01*
X162630847Y-103976782D01*
X162652471Y-103966554D01*
X162674993Y-103958496D01*
X162698197Y-103952684D01*
X162721858Y-103949174D01*
X162745750Y-103948000D01*
X163233250Y-103948000D01*
X163257142Y-103949174D01*
X163257142Y-103949174D01*
G37*
D11*
X162989500Y-104648000D03*
D10*
G36*
X161382142Y-103949174D02*
X161405803Y-103952684D01*
X161429007Y-103958496D01*
X161451529Y-103966554D01*
X161473153Y-103976782D01*
X161493670Y-103989079D01*
X161512883Y-104003329D01*
X161530607Y-104019393D01*
X161546671Y-104037117D01*
X161560921Y-104056330D01*
X161573218Y-104076847D01*
X161583446Y-104098471D01*
X161591504Y-104120993D01*
X161597316Y-104144197D01*
X161600826Y-104167858D01*
X161602000Y-104191750D01*
X161602000Y-105104250D01*
X161600826Y-105128142D01*
X161597316Y-105151803D01*
X161591504Y-105175007D01*
X161583446Y-105197529D01*
X161573218Y-105219153D01*
X161560921Y-105239670D01*
X161546671Y-105258883D01*
X161530607Y-105276607D01*
X161512883Y-105292671D01*
X161493670Y-105306921D01*
X161473153Y-105319218D01*
X161451529Y-105329446D01*
X161429007Y-105337504D01*
X161405803Y-105343316D01*
X161382142Y-105346826D01*
X161358250Y-105348000D01*
X160870750Y-105348000D01*
X160846858Y-105346826D01*
X160823197Y-105343316D01*
X160799993Y-105337504D01*
X160777471Y-105329446D01*
X160755847Y-105319218D01*
X160735330Y-105306921D01*
X160716117Y-105292671D01*
X160698393Y-105276607D01*
X160682329Y-105258883D01*
X160668079Y-105239670D01*
X160655782Y-105219153D01*
X160645554Y-105197529D01*
X160637496Y-105175007D01*
X160631684Y-105151803D01*
X160628174Y-105128142D01*
X160627000Y-105104250D01*
X160627000Y-104191750D01*
X160628174Y-104167858D01*
X160631684Y-104144197D01*
X160637496Y-104120993D01*
X160645554Y-104098471D01*
X160655782Y-104076847D01*
X160668079Y-104056330D01*
X160682329Y-104037117D01*
X160698393Y-104019393D01*
X160716117Y-104003329D01*
X160735330Y-103989079D01*
X160755847Y-103976782D01*
X160777471Y-103966554D01*
X160799993Y-103958496D01*
X160823197Y-103952684D01*
X160846858Y-103949174D01*
X160870750Y-103948000D01*
X161358250Y-103948000D01*
X161382142Y-103949174D01*
X161382142Y-103949174D01*
G37*
D11*
X161114500Y-104648000D03*
D10*
G36*
X150049142Y-109537174D02*
X150072803Y-109540684D01*
X150096007Y-109546496D01*
X150118529Y-109554554D01*
X150140153Y-109564782D01*
X150160670Y-109577079D01*
X150179883Y-109591329D01*
X150197607Y-109607393D01*
X150213671Y-109625117D01*
X150227921Y-109644330D01*
X150240218Y-109664847D01*
X150250446Y-109686471D01*
X150258504Y-109708993D01*
X150264316Y-109732197D01*
X150267826Y-109755858D01*
X150269000Y-109779750D01*
X150269000Y-110692250D01*
X150267826Y-110716142D01*
X150264316Y-110739803D01*
X150258504Y-110763007D01*
X150250446Y-110785529D01*
X150240218Y-110807153D01*
X150227921Y-110827670D01*
X150213671Y-110846883D01*
X150197607Y-110864607D01*
X150179883Y-110880671D01*
X150160670Y-110894921D01*
X150140153Y-110907218D01*
X150118529Y-110917446D01*
X150096007Y-110925504D01*
X150072803Y-110931316D01*
X150049142Y-110934826D01*
X150025250Y-110936000D01*
X149537750Y-110936000D01*
X149513858Y-110934826D01*
X149490197Y-110931316D01*
X149466993Y-110925504D01*
X149444471Y-110917446D01*
X149422847Y-110907218D01*
X149402330Y-110894921D01*
X149383117Y-110880671D01*
X149365393Y-110864607D01*
X149349329Y-110846883D01*
X149335079Y-110827670D01*
X149322782Y-110807153D01*
X149312554Y-110785529D01*
X149304496Y-110763007D01*
X149298684Y-110739803D01*
X149295174Y-110716142D01*
X149294000Y-110692250D01*
X149294000Y-109779750D01*
X149295174Y-109755858D01*
X149298684Y-109732197D01*
X149304496Y-109708993D01*
X149312554Y-109686471D01*
X149322782Y-109664847D01*
X149335079Y-109644330D01*
X149349329Y-109625117D01*
X149365393Y-109607393D01*
X149383117Y-109591329D01*
X149402330Y-109577079D01*
X149422847Y-109564782D01*
X149444471Y-109554554D01*
X149466993Y-109546496D01*
X149490197Y-109540684D01*
X149513858Y-109537174D01*
X149537750Y-109536000D01*
X150025250Y-109536000D01*
X150049142Y-109537174D01*
X150049142Y-109537174D01*
G37*
D11*
X149781500Y-110236000D03*
D10*
G36*
X148174142Y-109537174D02*
X148197803Y-109540684D01*
X148221007Y-109546496D01*
X148243529Y-109554554D01*
X148265153Y-109564782D01*
X148285670Y-109577079D01*
X148304883Y-109591329D01*
X148322607Y-109607393D01*
X148338671Y-109625117D01*
X148352921Y-109644330D01*
X148365218Y-109664847D01*
X148375446Y-109686471D01*
X148383504Y-109708993D01*
X148389316Y-109732197D01*
X148392826Y-109755858D01*
X148394000Y-109779750D01*
X148394000Y-110692250D01*
X148392826Y-110716142D01*
X148389316Y-110739803D01*
X148383504Y-110763007D01*
X148375446Y-110785529D01*
X148365218Y-110807153D01*
X148352921Y-110827670D01*
X148338671Y-110846883D01*
X148322607Y-110864607D01*
X148304883Y-110880671D01*
X148285670Y-110894921D01*
X148265153Y-110907218D01*
X148243529Y-110917446D01*
X148221007Y-110925504D01*
X148197803Y-110931316D01*
X148174142Y-110934826D01*
X148150250Y-110936000D01*
X147662750Y-110936000D01*
X147638858Y-110934826D01*
X147615197Y-110931316D01*
X147591993Y-110925504D01*
X147569471Y-110917446D01*
X147547847Y-110907218D01*
X147527330Y-110894921D01*
X147508117Y-110880671D01*
X147490393Y-110864607D01*
X147474329Y-110846883D01*
X147460079Y-110827670D01*
X147447782Y-110807153D01*
X147437554Y-110785529D01*
X147429496Y-110763007D01*
X147423684Y-110739803D01*
X147420174Y-110716142D01*
X147419000Y-110692250D01*
X147419000Y-109779750D01*
X147420174Y-109755858D01*
X147423684Y-109732197D01*
X147429496Y-109708993D01*
X147437554Y-109686471D01*
X147447782Y-109664847D01*
X147460079Y-109644330D01*
X147474329Y-109625117D01*
X147490393Y-109607393D01*
X147508117Y-109591329D01*
X147527330Y-109577079D01*
X147547847Y-109564782D01*
X147569471Y-109554554D01*
X147591993Y-109546496D01*
X147615197Y-109540684D01*
X147638858Y-109537174D01*
X147662750Y-109536000D01*
X148150250Y-109536000D01*
X148174142Y-109537174D01*
X148174142Y-109537174D01*
G37*
D11*
X147906500Y-110236000D03*
D10*
G36*
X148428142Y-115125174D02*
X148451803Y-115128684D01*
X148475007Y-115134496D01*
X148497529Y-115142554D01*
X148519153Y-115152782D01*
X148539670Y-115165079D01*
X148558883Y-115179329D01*
X148576607Y-115195393D01*
X148592671Y-115213117D01*
X148606921Y-115232330D01*
X148619218Y-115252847D01*
X148629446Y-115274471D01*
X148637504Y-115296993D01*
X148643316Y-115320197D01*
X148646826Y-115343858D01*
X148648000Y-115367750D01*
X148648000Y-116280250D01*
X148646826Y-116304142D01*
X148643316Y-116327803D01*
X148637504Y-116351007D01*
X148629446Y-116373529D01*
X148619218Y-116395153D01*
X148606921Y-116415670D01*
X148592671Y-116434883D01*
X148576607Y-116452607D01*
X148558883Y-116468671D01*
X148539670Y-116482921D01*
X148519153Y-116495218D01*
X148497529Y-116505446D01*
X148475007Y-116513504D01*
X148451803Y-116519316D01*
X148428142Y-116522826D01*
X148404250Y-116524000D01*
X147916750Y-116524000D01*
X147892858Y-116522826D01*
X147869197Y-116519316D01*
X147845993Y-116513504D01*
X147823471Y-116505446D01*
X147801847Y-116495218D01*
X147781330Y-116482921D01*
X147762117Y-116468671D01*
X147744393Y-116452607D01*
X147728329Y-116434883D01*
X147714079Y-116415670D01*
X147701782Y-116395153D01*
X147691554Y-116373529D01*
X147683496Y-116351007D01*
X147677684Y-116327803D01*
X147674174Y-116304142D01*
X147673000Y-116280250D01*
X147673000Y-115367750D01*
X147674174Y-115343858D01*
X147677684Y-115320197D01*
X147683496Y-115296993D01*
X147691554Y-115274471D01*
X147701782Y-115252847D01*
X147714079Y-115232330D01*
X147728329Y-115213117D01*
X147744393Y-115195393D01*
X147762117Y-115179329D01*
X147781330Y-115165079D01*
X147801847Y-115152782D01*
X147823471Y-115142554D01*
X147845993Y-115134496D01*
X147869197Y-115128684D01*
X147892858Y-115125174D01*
X147916750Y-115124000D01*
X148404250Y-115124000D01*
X148428142Y-115125174D01*
X148428142Y-115125174D01*
G37*
D11*
X148160500Y-115824000D03*
D10*
G36*
X150303142Y-115125174D02*
X150326803Y-115128684D01*
X150350007Y-115134496D01*
X150372529Y-115142554D01*
X150394153Y-115152782D01*
X150414670Y-115165079D01*
X150433883Y-115179329D01*
X150451607Y-115195393D01*
X150467671Y-115213117D01*
X150481921Y-115232330D01*
X150494218Y-115252847D01*
X150504446Y-115274471D01*
X150512504Y-115296993D01*
X150518316Y-115320197D01*
X150521826Y-115343858D01*
X150523000Y-115367750D01*
X150523000Y-116280250D01*
X150521826Y-116304142D01*
X150518316Y-116327803D01*
X150512504Y-116351007D01*
X150504446Y-116373529D01*
X150494218Y-116395153D01*
X150481921Y-116415670D01*
X150467671Y-116434883D01*
X150451607Y-116452607D01*
X150433883Y-116468671D01*
X150414670Y-116482921D01*
X150394153Y-116495218D01*
X150372529Y-116505446D01*
X150350007Y-116513504D01*
X150326803Y-116519316D01*
X150303142Y-116522826D01*
X150279250Y-116524000D01*
X149791750Y-116524000D01*
X149767858Y-116522826D01*
X149744197Y-116519316D01*
X149720993Y-116513504D01*
X149698471Y-116505446D01*
X149676847Y-116495218D01*
X149656330Y-116482921D01*
X149637117Y-116468671D01*
X149619393Y-116452607D01*
X149603329Y-116434883D01*
X149589079Y-116415670D01*
X149576782Y-116395153D01*
X149566554Y-116373529D01*
X149558496Y-116351007D01*
X149552684Y-116327803D01*
X149549174Y-116304142D01*
X149548000Y-116280250D01*
X149548000Y-115367750D01*
X149549174Y-115343858D01*
X149552684Y-115320197D01*
X149558496Y-115296993D01*
X149566554Y-115274471D01*
X149576782Y-115252847D01*
X149589079Y-115232330D01*
X149603329Y-115213117D01*
X149619393Y-115195393D01*
X149637117Y-115179329D01*
X149656330Y-115165079D01*
X149676847Y-115152782D01*
X149698471Y-115142554D01*
X149720993Y-115134496D01*
X149744197Y-115128684D01*
X149767858Y-115125174D01*
X149791750Y-115124000D01*
X150279250Y-115124000D01*
X150303142Y-115125174D01*
X150303142Y-115125174D01*
G37*
D11*
X150035500Y-115824000D03*
D10*
G36*
X161460642Y-109537174D02*
X161484303Y-109540684D01*
X161507507Y-109546496D01*
X161530029Y-109554554D01*
X161551653Y-109564782D01*
X161572170Y-109577079D01*
X161591383Y-109591329D01*
X161609107Y-109607393D01*
X161625171Y-109625117D01*
X161639421Y-109644330D01*
X161651718Y-109664847D01*
X161661946Y-109686471D01*
X161670004Y-109708993D01*
X161675816Y-109732197D01*
X161679326Y-109755858D01*
X161680500Y-109779750D01*
X161680500Y-110692250D01*
X161679326Y-110716142D01*
X161675816Y-110739803D01*
X161670004Y-110763007D01*
X161661946Y-110785529D01*
X161651718Y-110807153D01*
X161639421Y-110827670D01*
X161625171Y-110846883D01*
X161609107Y-110864607D01*
X161591383Y-110880671D01*
X161572170Y-110894921D01*
X161551653Y-110907218D01*
X161530029Y-110917446D01*
X161507507Y-110925504D01*
X161484303Y-110931316D01*
X161460642Y-110934826D01*
X161436750Y-110936000D01*
X160949250Y-110936000D01*
X160925358Y-110934826D01*
X160901697Y-110931316D01*
X160878493Y-110925504D01*
X160855971Y-110917446D01*
X160834347Y-110907218D01*
X160813830Y-110894921D01*
X160794617Y-110880671D01*
X160776893Y-110864607D01*
X160760829Y-110846883D01*
X160746579Y-110827670D01*
X160734282Y-110807153D01*
X160724054Y-110785529D01*
X160715996Y-110763007D01*
X160710184Y-110739803D01*
X160706674Y-110716142D01*
X160705500Y-110692250D01*
X160705500Y-109779750D01*
X160706674Y-109755858D01*
X160710184Y-109732197D01*
X160715996Y-109708993D01*
X160724054Y-109686471D01*
X160734282Y-109664847D01*
X160746579Y-109644330D01*
X160760829Y-109625117D01*
X160776893Y-109607393D01*
X160794617Y-109591329D01*
X160813830Y-109577079D01*
X160834347Y-109564782D01*
X160855971Y-109554554D01*
X160878493Y-109546496D01*
X160901697Y-109540684D01*
X160925358Y-109537174D01*
X160949250Y-109536000D01*
X161436750Y-109536000D01*
X161460642Y-109537174D01*
X161460642Y-109537174D01*
G37*
D11*
X161193000Y-110236000D03*
D10*
G36*
X163335642Y-109537174D02*
X163359303Y-109540684D01*
X163382507Y-109546496D01*
X163405029Y-109554554D01*
X163426653Y-109564782D01*
X163447170Y-109577079D01*
X163466383Y-109591329D01*
X163484107Y-109607393D01*
X163500171Y-109625117D01*
X163514421Y-109644330D01*
X163526718Y-109664847D01*
X163536946Y-109686471D01*
X163545004Y-109708993D01*
X163550816Y-109732197D01*
X163554326Y-109755858D01*
X163555500Y-109779750D01*
X163555500Y-110692250D01*
X163554326Y-110716142D01*
X163550816Y-110739803D01*
X163545004Y-110763007D01*
X163536946Y-110785529D01*
X163526718Y-110807153D01*
X163514421Y-110827670D01*
X163500171Y-110846883D01*
X163484107Y-110864607D01*
X163466383Y-110880671D01*
X163447170Y-110894921D01*
X163426653Y-110907218D01*
X163405029Y-110917446D01*
X163382507Y-110925504D01*
X163359303Y-110931316D01*
X163335642Y-110934826D01*
X163311750Y-110936000D01*
X162824250Y-110936000D01*
X162800358Y-110934826D01*
X162776697Y-110931316D01*
X162753493Y-110925504D01*
X162730971Y-110917446D01*
X162709347Y-110907218D01*
X162688830Y-110894921D01*
X162669617Y-110880671D01*
X162651893Y-110864607D01*
X162635829Y-110846883D01*
X162621579Y-110827670D01*
X162609282Y-110807153D01*
X162599054Y-110785529D01*
X162590996Y-110763007D01*
X162585184Y-110739803D01*
X162581674Y-110716142D01*
X162580500Y-110692250D01*
X162580500Y-109779750D01*
X162581674Y-109755858D01*
X162585184Y-109732197D01*
X162590996Y-109708993D01*
X162599054Y-109686471D01*
X162609282Y-109664847D01*
X162621579Y-109644330D01*
X162635829Y-109625117D01*
X162651893Y-109607393D01*
X162669617Y-109591329D01*
X162688830Y-109577079D01*
X162709347Y-109564782D01*
X162730971Y-109554554D01*
X162753493Y-109546496D01*
X162776697Y-109540684D01*
X162800358Y-109537174D01*
X162824250Y-109536000D01*
X163311750Y-109536000D01*
X163335642Y-109537174D01*
X163335642Y-109537174D01*
G37*
D11*
X163068000Y-110236000D03*
D21*
X132148000Y-91942000D03*
X132148000Y-92742000D03*
X132148000Y-93542000D03*
X132148000Y-94342000D03*
X132148000Y-95142000D03*
X132148000Y-95942000D03*
X132148000Y-96742000D03*
X132148000Y-97542000D03*
D22*
X133598000Y-98992000D03*
X134398000Y-98992000D03*
X135198000Y-98992000D03*
X135998000Y-98992000D03*
X136798000Y-98992000D03*
X137598000Y-98992000D03*
X138398000Y-98992000D03*
X139198000Y-98992000D03*
D21*
X140648000Y-97542000D03*
X140648000Y-96742000D03*
X140648000Y-95942000D03*
X140648000Y-95142000D03*
X140648000Y-94342000D03*
X140648000Y-93542000D03*
X140648000Y-92742000D03*
X140648000Y-91942000D03*
D22*
X139198000Y-90492000D03*
X138398000Y-90492000D03*
X137598000Y-90492000D03*
X136798000Y-90492000D03*
X135998000Y-90492000D03*
X135198000Y-90492000D03*
X134398000Y-90492000D03*
X133598000Y-90492000D03*
D23*
X176378000Y-126238000D03*
D24*
X170078000Y-126238000D03*
X170078000Y-128538000D03*
X170078000Y-123938000D03*
D25*
X138684000Y-125664000D03*
X138684000Y-124714000D03*
X138684000Y-123764000D03*
X136484000Y-123764000D03*
X136484000Y-125664000D03*
D26*
X179602000Y-113858000D03*
X179602000Y-115758000D03*
X182602000Y-114808000D03*
D10*
G36*
X165580142Y-122352674D02*
X165603803Y-122356184D01*
X165627007Y-122361996D01*
X165649529Y-122370054D01*
X165671153Y-122380282D01*
X165691670Y-122392579D01*
X165710883Y-122406829D01*
X165728607Y-122422893D01*
X165744671Y-122440617D01*
X165758921Y-122459830D01*
X165771218Y-122480347D01*
X165781446Y-122501971D01*
X165789504Y-122524493D01*
X165795316Y-122547697D01*
X165798826Y-122571358D01*
X165800000Y-122595250D01*
X165800000Y-123082750D01*
X165798826Y-123106642D01*
X165795316Y-123130303D01*
X165789504Y-123153507D01*
X165781446Y-123176029D01*
X165771218Y-123197653D01*
X165758921Y-123218170D01*
X165744671Y-123237383D01*
X165728607Y-123255107D01*
X165710883Y-123271171D01*
X165691670Y-123285421D01*
X165671153Y-123297718D01*
X165649529Y-123307946D01*
X165627007Y-123316004D01*
X165603803Y-123321816D01*
X165580142Y-123325326D01*
X165556250Y-123326500D01*
X164643750Y-123326500D01*
X164619858Y-123325326D01*
X164596197Y-123321816D01*
X164572993Y-123316004D01*
X164550471Y-123307946D01*
X164528847Y-123297718D01*
X164508330Y-123285421D01*
X164489117Y-123271171D01*
X164471393Y-123255107D01*
X164455329Y-123237383D01*
X164441079Y-123218170D01*
X164428782Y-123197653D01*
X164418554Y-123176029D01*
X164410496Y-123153507D01*
X164404684Y-123130303D01*
X164401174Y-123106642D01*
X164400000Y-123082750D01*
X164400000Y-122595250D01*
X164401174Y-122571358D01*
X164404684Y-122547697D01*
X164410496Y-122524493D01*
X164418554Y-122501971D01*
X164428782Y-122480347D01*
X164441079Y-122459830D01*
X164455329Y-122440617D01*
X164471393Y-122422893D01*
X164489117Y-122406829D01*
X164508330Y-122392579D01*
X164528847Y-122380282D01*
X164550471Y-122370054D01*
X164572993Y-122361996D01*
X164596197Y-122356184D01*
X164619858Y-122352674D01*
X164643750Y-122351500D01*
X165556250Y-122351500D01*
X165580142Y-122352674D01*
X165580142Y-122352674D01*
G37*
D11*
X165100000Y-122839000D03*
D10*
G36*
X165580142Y-124227674D02*
X165603803Y-124231184D01*
X165627007Y-124236996D01*
X165649529Y-124245054D01*
X165671153Y-124255282D01*
X165691670Y-124267579D01*
X165710883Y-124281829D01*
X165728607Y-124297893D01*
X165744671Y-124315617D01*
X165758921Y-124334830D01*
X165771218Y-124355347D01*
X165781446Y-124376971D01*
X165789504Y-124399493D01*
X165795316Y-124422697D01*
X165798826Y-124446358D01*
X165800000Y-124470250D01*
X165800000Y-124957750D01*
X165798826Y-124981642D01*
X165795316Y-125005303D01*
X165789504Y-125028507D01*
X165781446Y-125051029D01*
X165771218Y-125072653D01*
X165758921Y-125093170D01*
X165744671Y-125112383D01*
X165728607Y-125130107D01*
X165710883Y-125146171D01*
X165691670Y-125160421D01*
X165671153Y-125172718D01*
X165649529Y-125182946D01*
X165627007Y-125191004D01*
X165603803Y-125196816D01*
X165580142Y-125200326D01*
X165556250Y-125201500D01*
X164643750Y-125201500D01*
X164619858Y-125200326D01*
X164596197Y-125196816D01*
X164572993Y-125191004D01*
X164550471Y-125182946D01*
X164528847Y-125172718D01*
X164508330Y-125160421D01*
X164489117Y-125146171D01*
X164471393Y-125130107D01*
X164455329Y-125112383D01*
X164441079Y-125093170D01*
X164428782Y-125072653D01*
X164418554Y-125051029D01*
X164410496Y-125028507D01*
X164404684Y-125005303D01*
X164401174Y-124981642D01*
X164400000Y-124957750D01*
X164400000Y-124470250D01*
X164401174Y-124446358D01*
X164404684Y-124422697D01*
X164410496Y-124399493D01*
X164418554Y-124376971D01*
X164428782Y-124355347D01*
X164441079Y-124334830D01*
X164455329Y-124315617D01*
X164471393Y-124297893D01*
X164489117Y-124281829D01*
X164508330Y-124267579D01*
X164528847Y-124255282D01*
X164550471Y-124245054D01*
X164572993Y-124236996D01*
X164596197Y-124231184D01*
X164619858Y-124227674D01*
X164643750Y-124226500D01*
X165556250Y-124226500D01*
X165580142Y-124227674D01*
X165580142Y-124227674D01*
G37*
D11*
X165100000Y-124714000D03*
D10*
G36*
X150848142Y-106623174D02*
X150871803Y-106626684D01*
X150895007Y-106632496D01*
X150917529Y-106640554D01*
X150939153Y-106650782D01*
X150959670Y-106663079D01*
X150978883Y-106677329D01*
X150996607Y-106693393D01*
X151012671Y-106711117D01*
X151026921Y-106730330D01*
X151039218Y-106750847D01*
X151049446Y-106772471D01*
X151057504Y-106794993D01*
X151063316Y-106818197D01*
X151066826Y-106841858D01*
X151068000Y-106865750D01*
X151068000Y-107353250D01*
X151066826Y-107377142D01*
X151063316Y-107400803D01*
X151057504Y-107424007D01*
X151049446Y-107446529D01*
X151039218Y-107468153D01*
X151026921Y-107488670D01*
X151012671Y-107507883D01*
X150996607Y-107525607D01*
X150978883Y-107541671D01*
X150959670Y-107555921D01*
X150939153Y-107568218D01*
X150917529Y-107578446D01*
X150895007Y-107586504D01*
X150871803Y-107592316D01*
X150848142Y-107595826D01*
X150824250Y-107597000D01*
X149911750Y-107597000D01*
X149887858Y-107595826D01*
X149864197Y-107592316D01*
X149840993Y-107586504D01*
X149818471Y-107578446D01*
X149796847Y-107568218D01*
X149776330Y-107555921D01*
X149757117Y-107541671D01*
X149739393Y-107525607D01*
X149723329Y-107507883D01*
X149709079Y-107488670D01*
X149696782Y-107468153D01*
X149686554Y-107446529D01*
X149678496Y-107424007D01*
X149672684Y-107400803D01*
X149669174Y-107377142D01*
X149668000Y-107353250D01*
X149668000Y-106865750D01*
X149669174Y-106841858D01*
X149672684Y-106818197D01*
X149678496Y-106794993D01*
X149686554Y-106772471D01*
X149696782Y-106750847D01*
X149709079Y-106730330D01*
X149723329Y-106711117D01*
X149739393Y-106693393D01*
X149757117Y-106677329D01*
X149776330Y-106663079D01*
X149796847Y-106650782D01*
X149818471Y-106640554D01*
X149840993Y-106632496D01*
X149864197Y-106626684D01*
X149887858Y-106623174D01*
X149911750Y-106622000D01*
X150824250Y-106622000D01*
X150848142Y-106623174D01*
X150848142Y-106623174D01*
G37*
D11*
X150368000Y-107109500D03*
D10*
G36*
X150848142Y-104748174D02*
X150871803Y-104751684D01*
X150895007Y-104757496D01*
X150917529Y-104765554D01*
X150939153Y-104775782D01*
X150959670Y-104788079D01*
X150978883Y-104802329D01*
X150996607Y-104818393D01*
X151012671Y-104836117D01*
X151026921Y-104855330D01*
X151039218Y-104875847D01*
X151049446Y-104897471D01*
X151057504Y-104919993D01*
X151063316Y-104943197D01*
X151066826Y-104966858D01*
X151068000Y-104990750D01*
X151068000Y-105478250D01*
X151066826Y-105502142D01*
X151063316Y-105525803D01*
X151057504Y-105549007D01*
X151049446Y-105571529D01*
X151039218Y-105593153D01*
X151026921Y-105613670D01*
X151012671Y-105632883D01*
X150996607Y-105650607D01*
X150978883Y-105666671D01*
X150959670Y-105680921D01*
X150939153Y-105693218D01*
X150917529Y-105703446D01*
X150895007Y-105711504D01*
X150871803Y-105717316D01*
X150848142Y-105720826D01*
X150824250Y-105722000D01*
X149911750Y-105722000D01*
X149887858Y-105720826D01*
X149864197Y-105717316D01*
X149840993Y-105711504D01*
X149818471Y-105703446D01*
X149796847Y-105693218D01*
X149776330Y-105680921D01*
X149757117Y-105666671D01*
X149739393Y-105650607D01*
X149723329Y-105632883D01*
X149709079Y-105613670D01*
X149696782Y-105593153D01*
X149686554Y-105571529D01*
X149678496Y-105549007D01*
X149672684Y-105525803D01*
X149669174Y-105502142D01*
X149668000Y-105478250D01*
X149668000Y-104990750D01*
X149669174Y-104966858D01*
X149672684Y-104943197D01*
X149678496Y-104919993D01*
X149686554Y-104897471D01*
X149696782Y-104875847D01*
X149709079Y-104855330D01*
X149723329Y-104836117D01*
X149739393Y-104818393D01*
X149757117Y-104802329D01*
X149776330Y-104788079D01*
X149796847Y-104775782D01*
X149818471Y-104765554D01*
X149840993Y-104757496D01*
X149864197Y-104751684D01*
X149887858Y-104748174D01*
X149911750Y-104747000D01*
X150824250Y-104747000D01*
X150848142Y-104748174D01*
X150848142Y-104748174D01*
G37*
D11*
X150368000Y-105234500D03*
D10*
G36*
X138402142Y-104083174D02*
X138425803Y-104086684D01*
X138449007Y-104092496D01*
X138471529Y-104100554D01*
X138493153Y-104110782D01*
X138513670Y-104123079D01*
X138532883Y-104137329D01*
X138550607Y-104153393D01*
X138566671Y-104171117D01*
X138580921Y-104190330D01*
X138593218Y-104210847D01*
X138603446Y-104232471D01*
X138611504Y-104254993D01*
X138617316Y-104278197D01*
X138620826Y-104301858D01*
X138622000Y-104325750D01*
X138622000Y-104813250D01*
X138620826Y-104837142D01*
X138617316Y-104860803D01*
X138611504Y-104884007D01*
X138603446Y-104906529D01*
X138593218Y-104928153D01*
X138580921Y-104948670D01*
X138566671Y-104967883D01*
X138550607Y-104985607D01*
X138532883Y-105001671D01*
X138513670Y-105015921D01*
X138493153Y-105028218D01*
X138471529Y-105038446D01*
X138449007Y-105046504D01*
X138425803Y-105052316D01*
X138402142Y-105055826D01*
X138378250Y-105057000D01*
X137465750Y-105057000D01*
X137441858Y-105055826D01*
X137418197Y-105052316D01*
X137394993Y-105046504D01*
X137372471Y-105038446D01*
X137350847Y-105028218D01*
X137330330Y-105015921D01*
X137311117Y-105001671D01*
X137293393Y-104985607D01*
X137277329Y-104967883D01*
X137263079Y-104948670D01*
X137250782Y-104928153D01*
X137240554Y-104906529D01*
X137232496Y-104884007D01*
X137226684Y-104860803D01*
X137223174Y-104837142D01*
X137222000Y-104813250D01*
X137222000Y-104325750D01*
X137223174Y-104301858D01*
X137226684Y-104278197D01*
X137232496Y-104254993D01*
X137240554Y-104232471D01*
X137250782Y-104210847D01*
X137263079Y-104190330D01*
X137277329Y-104171117D01*
X137293393Y-104153393D01*
X137311117Y-104137329D01*
X137330330Y-104123079D01*
X137350847Y-104110782D01*
X137372471Y-104100554D01*
X137394993Y-104092496D01*
X137418197Y-104086684D01*
X137441858Y-104083174D01*
X137465750Y-104082000D01*
X138378250Y-104082000D01*
X138402142Y-104083174D01*
X138402142Y-104083174D01*
G37*
D11*
X137922000Y-104569500D03*
D10*
G36*
X138402142Y-102208174D02*
X138425803Y-102211684D01*
X138449007Y-102217496D01*
X138471529Y-102225554D01*
X138493153Y-102235782D01*
X138513670Y-102248079D01*
X138532883Y-102262329D01*
X138550607Y-102278393D01*
X138566671Y-102296117D01*
X138580921Y-102315330D01*
X138593218Y-102335847D01*
X138603446Y-102357471D01*
X138611504Y-102379993D01*
X138617316Y-102403197D01*
X138620826Y-102426858D01*
X138622000Y-102450750D01*
X138622000Y-102938250D01*
X138620826Y-102962142D01*
X138617316Y-102985803D01*
X138611504Y-103009007D01*
X138603446Y-103031529D01*
X138593218Y-103053153D01*
X138580921Y-103073670D01*
X138566671Y-103092883D01*
X138550607Y-103110607D01*
X138532883Y-103126671D01*
X138513670Y-103140921D01*
X138493153Y-103153218D01*
X138471529Y-103163446D01*
X138449007Y-103171504D01*
X138425803Y-103177316D01*
X138402142Y-103180826D01*
X138378250Y-103182000D01*
X137465750Y-103182000D01*
X137441858Y-103180826D01*
X137418197Y-103177316D01*
X137394993Y-103171504D01*
X137372471Y-103163446D01*
X137350847Y-103153218D01*
X137330330Y-103140921D01*
X137311117Y-103126671D01*
X137293393Y-103110607D01*
X137277329Y-103092883D01*
X137263079Y-103073670D01*
X137250782Y-103053153D01*
X137240554Y-103031529D01*
X137232496Y-103009007D01*
X137226684Y-102985803D01*
X137223174Y-102962142D01*
X137222000Y-102938250D01*
X137222000Y-102450750D01*
X137223174Y-102426858D01*
X137226684Y-102403197D01*
X137232496Y-102379993D01*
X137240554Y-102357471D01*
X137250782Y-102335847D01*
X137263079Y-102315330D01*
X137277329Y-102296117D01*
X137293393Y-102278393D01*
X137311117Y-102262329D01*
X137330330Y-102248079D01*
X137350847Y-102235782D01*
X137372471Y-102225554D01*
X137394993Y-102217496D01*
X137418197Y-102211684D01*
X137441858Y-102208174D01*
X137465750Y-102207000D01*
X138378250Y-102207000D01*
X138402142Y-102208174D01*
X138402142Y-102208174D01*
G37*
D11*
X137922000Y-102694500D03*
D10*
G36*
X170533142Y-113716674D02*
X170556803Y-113720184D01*
X170580007Y-113725996D01*
X170602529Y-113734054D01*
X170624153Y-113744282D01*
X170644670Y-113756579D01*
X170663883Y-113770829D01*
X170681607Y-113786893D01*
X170697671Y-113804617D01*
X170711921Y-113823830D01*
X170724218Y-113844347D01*
X170734446Y-113865971D01*
X170742504Y-113888493D01*
X170748316Y-113911697D01*
X170751826Y-113935358D01*
X170753000Y-113959250D01*
X170753000Y-114446750D01*
X170751826Y-114470642D01*
X170748316Y-114494303D01*
X170742504Y-114517507D01*
X170734446Y-114540029D01*
X170724218Y-114561653D01*
X170711921Y-114582170D01*
X170697671Y-114601383D01*
X170681607Y-114619107D01*
X170663883Y-114635171D01*
X170644670Y-114649421D01*
X170624153Y-114661718D01*
X170602529Y-114671946D01*
X170580007Y-114680004D01*
X170556803Y-114685816D01*
X170533142Y-114689326D01*
X170509250Y-114690500D01*
X169596750Y-114690500D01*
X169572858Y-114689326D01*
X169549197Y-114685816D01*
X169525993Y-114680004D01*
X169503471Y-114671946D01*
X169481847Y-114661718D01*
X169461330Y-114649421D01*
X169442117Y-114635171D01*
X169424393Y-114619107D01*
X169408329Y-114601383D01*
X169394079Y-114582170D01*
X169381782Y-114561653D01*
X169371554Y-114540029D01*
X169363496Y-114517507D01*
X169357684Y-114494303D01*
X169354174Y-114470642D01*
X169353000Y-114446750D01*
X169353000Y-113959250D01*
X169354174Y-113935358D01*
X169357684Y-113911697D01*
X169363496Y-113888493D01*
X169371554Y-113865971D01*
X169381782Y-113844347D01*
X169394079Y-113823830D01*
X169408329Y-113804617D01*
X169424393Y-113786893D01*
X169442117Y-113770829D01*
X169461330Y-113756579D01*
X169481847Y-113744282D01*
X169503471Y-113734054D01*
X169525993Y-113725996D01*
X169549197Y-113720184D01*
X169572858Y-113716674D01*
X169596750Y-113715500D01*
X170509250Y-113715500D01*
X170533142Y-113716674D01*
X170533142Y-113716674D01*
G37*
D11*
X170053000Y-114203000D03*
D10*
G36*
X170533142Y-115591674D02*
X170556803Y-115595184D01*
X170580007Y-115600996D01*
X170602529Y-115609054D01*
X170624153Y-115619282D01*
X170644670Y-115631579D01*
X170663883Y-115645829D01*
X170681607Y-115661893D01*
X170697671Y-115679617D01*
X170711921Y-115698830D01*
X170724218Y-115719347D01*
X170734446Y-115740971D01*
X170742504Y-115763493D01*
X170748316Y-115786697D01*
X170751826Y-115810358D01*
X170753000Y-115834250D01*
X170753000Y-116321750D01*
X170751826Y-116345642D01*
X170748316Y-116369303D01*
X170742504Y-116392507D01*
X170734446Y-116415029D01*
X170724218Y-116436653D01*
X170711921Y-116457170D01*
X170697671Y-116476383D01*
X170681607Y-116494107D01*
X170663883Y-116510171D01*
X170644670Y-116524421D01*
X170624153Y-116536718D01*
X170602529Y-116546946D01*
X170580007Y-116555004D01*
X170556803Y-116560816D01*
X170533142Y-116564326D01*
X170509250Y-116565500D01*
X169596750Y-116565500D01*
X169572858Y-116564326D01*
X169549197Y-116560816D01*
X169525993Y-116555004D01*
X169503471Y-116546946D01*
X169481847Y-116536718D01*
X169461330Y-116524421D01*
X169442117Y-116510171D01*
X169424393Y-116494107D01*
X169408329Y-116476383D01*
X169394079Y-116457170D01*
X169381782Y-116436653D01*
X169371554Y-116415029D01*
X169363496Y-116392507D01*
X169357684Y-116369303D01*
X169354174Y-116345642D01*
X169353000Y-116321750D01*
X169353000Y-115834250D01*
X169354174Y-115810358D01*
X169357684Y-115786697D01*
X169363496Y-115763493D01*
X169371554Y-115740971D01*
X169381782Y-115719347D01*
X169394079Y-115698830D01*
X169408329Y-115679617D01*
X169424393Y-115661893D01*
X169442117Y-115645829D01*
X169461330Y-115631579D01*
X169481847Y-115619282D01*
X169503471Y-115609054D01*
X169525993Y-115600996D01*
X169549197Y-115595184D01*
X169572858Y-115591674D01*
X169596750Y-115590500D01*
X170509250Y-115590500D01*
X170533142Y-115591674D01*
X170533142Y-115591674D01*
G37*
D11*
X170053000Y-116078000D03*
D10*
G36*
X145006142Y-124149174D02*
X145029803Y-124152684D01*
X145053007Y-124158496D01*
X145075529Y-124166554D01*
X145097153Y-124176782D01*
X145117670Y-124189079D01*
X145136883Y-124203329D01*
X145154607Y-124219393D01*
X145170671Y-124237117D01*
X145184921Y-124256330D01*
X145197218Y-124276847D01*
X145207446Y-124298471D01*
X145215504Y-124320993D01*
X145221316Y-124344197D01*
X145224826Y-124367858D01*
X145226000Y-124391750D01*
X145226000Y-124879250D01*
X145224826Y-124903142D01*
X145221316Y-124926803D01*
X145215504Y-124950007D01*
X145207446Y-124972529D01*
X145197218Y-124994153D01*
X145184921Y-125014670D01*
X145170671Y-125033883D01*
X145154607Y-125051607D01*
X145136883Y-125067671D01*
X145117670Y-125081921D01*
X145097153Y-125094218D01*
X145075529Y-125104446D01*
X145053007Y-125112504D01*
X145029803Y-125118316D01*
X145006142Y-125121826D01*
X144982250Y-125123000D01*
X144069750Y-125123000D01*
X144045858Y-125121826D01*
X144022197Y-125118316D01*
X143998993Y-125112504D01*
X143976471Y-125104446D01*
X143954847Y-125094218D01*
X143934330Y-125081921D01*
X143915117Y-125067671D01*
X143897393Y-125051607D01*
X143881329Y-125033883D01*
X143867079Y-125014670D01*
X143854782Y-124994153D01*
X143844554Y-124972529D01*
X143836496Y-124950007D01*
X143830684Y-124926803D01*
X143827174Y-124903142D01*
X143826000Y-124879250D01*
X143826000Y-124391750D01*
X143827174Y-124367858D01*
X143830684Y-124344197D01*
X143836496Y-124320993D01*
X143844554Y-124298471D01*
X143854782Y-124276847D01*
X143867079Y-124256330D01*
X143881329Y-124237117D01*
X143897393Y-124219393D01*
X143915117Y-124203329D01*
X143934330Y-124189079D01*
X143954847Y-124176782D01*
X143976471Y-124166554D01*
X143998993Y-124158496D01*
X144022197Y-124152684D01*
X144045858Y-124149174D01*
X144069750Y-124148000D01*
X144982250Y-124148000D01*
X145006142Y-124149174D01*
X145006142Y-124149174D01*
G37*
D11*
X144526000Y-124635500D03*
D10*
G36*
X145006142Y-122274174D02*
X145029803Y-122277684D01*
X145053007Y-122283496D01*
X145075529Y-122291554D01*
X145097153Y-122301782D01*
X145117670Y-122314079D01*
X145136883Y-122328329D01*
X145154607Y-122344393D01*
X145170671Y-122362117D01*
X145184921Y-122381330D01*
X145197218Y-122401847D01*
X145207446Y-122423471D01*
X145215504Y-122445993D01*
X145221316Y-122469197D01*
X145224826Y-122492858D01*
X145226000Y-122516750D01*
X145226000Y-123004250D01*
X145224826Y-123028142D01*
X145221316Y-123051803D01*
X145215504Y-123075007D01*
X145207446Y-123097529D01*
X145197218Y-123119153D01*
X145184921Y-123139670D01*
X145170671Y-123158883D01*
X145154607Y-123176607D01*
X145136883Y-123192671D01*
X145117670Y-123206921D01*
X145097153Y-123219218D01*
X145075529Y-123229446D01*
X145053007Y-123237504D01*
X145029803Y-123243316D01*
X145006142Y-123246826D01*
X144982250Y-123248000D01*
X144069750Y-123248000D01*
X144045858Y-123246826D01*
X144022197Y-123243316D01*
X143998993Y-123237504D01*
X143976471Y-123229446D01*
X143954847Y-123219218D01*
X143934330Y-123206921D01*
X143915117Y-123192671D01*
X143897393Y-123176607D01*
X143881329Y-123158883D01*
X143867079Y-123139670D01*
X143854782Y-123119153D01*
X143844554Y-123097529D01*
X143836496Y-123075007D01*
X143830684Y-123051803D01*
X143827174Y-123028142D01*
X143826000Y-123004250D01*
X143826000Y-122516750D01*
X143827174Y-122492858D01*
X143830684Y-122469197D01*
X143836496Y-122445993D01*
X143844554Y-122423471D01*
X143854782Y-122401847D01*
X143867079Y-122381330D01*
X143881329Y-122362117D01*
X143897393Y-122344393D01*
X143915117Y-122328329D01*
X143934330Y-122314079D01*
X143954847Y-122301782D01*
X143976471Y-122291554D01*
X143998993Y-122283496D01*
X144022197Y-122277684D01*
X144045858Y-122274174D01*
X144069750Y-122273000D01*
X144982250Y-122273000D01*
X145006142Y-122274174D01*
X145006142Y-122274174D01*
G37*
D11*
X144526000Y-122760500D03*
D10*
G36*
X173962142Y-113716674D02*
X173985803Y-113720184D01*
X174009007Y-113725996D01*
X174031529Y-113734054D01*
X174053153Y-113744282D01*
X174073670Y-113756579D01*
X174092883Y-113770829D01*
X174110607Y-113786893D01*
X174126671Y-113804617D01*
X174140921Y-113823830D01*
X174153218Y-113844347D01*
X174163446Y-113865971D01*
X174171504Y-113888493D01*
X174177316Y-113911697D01*
X174180826Y-113935358D01*
X174182000Y-113959250D01*
X174182000Y-114446750D01*
X174180826Y-114470642D01*
X174177316Y-114494303D01*
X174171504Y-114517507D01*
X174163446Y-114540029D01*
X174153218Y-114561653D01*
X174140921Y-114582170D01*
X174126671Y-114601383D01*
X174110607Y-114619107D01*
X174092883Y-114635171D01*
X174073670Y-114649421D01*
X174053153Y-114661718D01*
X174031529Y-114671946D01*
X174009007Y-114680004D01*
X173985803Y-114685816D01*
X173962142Y-114689326D01*
X173938250Y-114690500D01*
X173025750Y-114690500D01*
X173001858Y-114689326D01*
X172978197Y-114685816D01*
X172954993Y-114680004D01*
X172932471Y-114671946D01*
X172910847Y-114661718D01*
X172890330Y-114649421D01*
X172871117Y-114635171D01*
X172853393Y-114619107D01*
X172837329Y-114601383D01*
X172823079Y-114582170D01*
X172810782Y-114561653D01*
X172800554Y-114540029D01*
X172792496Y-114517507D01*
X172786684Y-114494303D01*
X172783174Y-114470642D01*
X172782000Y-114446750D01*
X172782000Y-113959250D01*
X172783174Y-113935358D01*
X172786684Y-113911697D01*
X172792496Y-113888493D01*
X172800554Y-113865971D01*
X172810782Y-113844347D01*
X172823079Y-113823830D01*
X172837329Y-113804617D01*
X172853393Y-113786893D01*
X172871117Y-113770829D01*
X172890330Y-113756579D01*
X172910847Y-113744282D01*
X172932471Y-113734054D01*
X172954993Y-113725996D01*
X172978197Y-113720184D01*
X173001858Y-113716674D01*
X173025750Y-113715500D01*
X173938250Y-113715500D01*
X173962142Y-113716674D01*
X173962142Y-113716674D01*
G37*
D11*
X173482000Y-114203000D03*
D10*
G36*
X173962142Y-115591674D02*
X173985803Y-115595184D01*
X174009007Y-115600996D01*
X174031529Y-115609054D01*
X174053153Y-115619282D01*
X174073670Y-115631579D01*
X174092883Y-115645829D01*
X174110607Y-115661893D01*
X174126671Y-115679617D01*
X174140921Y-115698830D01*
X174153218Y-115719347D01*
X174163446Y-115740971D01*
X174171504Y-115763493D01*
X174177316Y-115786697D01*
X174180826Y-115810358D01*
X174182000Y-115834250D01*
X174182000Y-116321750D01*
X174180826Y-116345642D01*
X174177316Y-116369303D01*
X174171504Y-116392507D01*
X174163446Y-116415029D01*
X174153218Y-116436653D01*
X174140921Y-116457170D01*
X174126671Y-116476383D01*
X174110607Y-116494107D01*
X174092883Y-116510171D01*
X174073670Y-116524421D01*
X174053153Y-116536718D01*
X174031529Y-116546946D01*
X174009007Y-116555004D01*
X173985803Y-116560816D01*
X173962142Y-116564326D01*
X173938250Y-116565500D01*
X173025750Y-116565500D01*
X173001858Y-116564326D01*
X172978197Y-116560816D01*
X172954993Y-116555004D01*
X172932471Y-116546946D01*
X172910847Y-116536718D01*
X172890330Y-116524421D01*
X172871117Y-116510171D01*
X172853393Y-116494107D01*
X172837329Y-116476383D01*
X172823079Y-116457170D01*
X172810782Y-116436653D01*
X172800554Y-116415029D01*
X172792496Y-116392507D01*
X172786684Y-116369303D01*
X172783174Y-116345642D01*
X172782000Y-116321750D01*
X172782000Y-115834250D01*
X172783174Y-115810358D01*
X172786684Y-115786697D01*
X172792496Y-115763493D01*
X172800554Y-115740971D01*
X172810782Y-115719347D01*
X172823079Y-115698830D01*
X172837329Y-115679617D01*
X172853393Y-115661893D01*
X172871117Y-115645829D01*
X172890330Y-115631579D01*
X172910847Y-115619282D01*
X172932471Y-115609054D01*
X172954993Y-115600996D01*
X172978197Y-115595184D01*
X173001858Y-115591674D01*
X173025750Y-115590500D01*
X173938250Y-115590500D01*
X173962142Y-115591674D01*
X173962142Y-115591674D01*
G37*
D11*
X173482000Y-116078000D03*
D10*
G36*
X148308142Y-124227674D02*
X148331803Y-124231184D01*
X148355007Y-124236996D01*
X148377529Y-124245054D01*
X148399153Y-124255282D01*
X148419670Y-124267579D01*
X148438883Y-124281829D01*
X148456607Y-124297893D01*
X148472671Y-124315617D01*
X148486921Y-124334830D01*
X148499218Y-124355347D01*
X148509446Y-124376971D01*
X148517504Y-124399493D01*
X148523316Y-124422697D01*
X148526826Y-124446358D01*
X148528000Y-124470250D01*
X148528000Y-124957750D01*
X148526826Y-124981642D01*
X148523316Y-125005303D01*
X148517504Y-125028507D01*
X148509446Y-125051029D01*
X148499218Y-125072653D01*
X148486921Y-125093170D01*
X148472671Y-125112383D01*
X148456607Y-125130107D01*
X148438883Y-125146171D01*
X148419670Y-125160421D01*
X148399153Y-125172718D01*
X148377529Y-125182946D01*
X148355007Y-125191004D01*
X148331803Y-125196816D01*
X148308142Y-125200326D01*
X148284250Y-125201500D01*
X147371750Y-125201500D01*
X147347858Y-125200326D01*
X147324197Y-125196816D01*
X147300993Y-125191004D01*
X147278471Y-125182946D01*
X147256847Y-125172718D01*
X147236330Y-125160421D01*
X147217117Y-125146171D01*
X147199393Y-125130107D01*
X147183329Y-125112383D01*
X147169079Y-125093170D01*
X147156782Y-125072653D01*
X147146554Y-125051029D01*
X147138496Y-125028507D01*
X147132684Y-125005303D01*
X147129174Y-124981642D01*
X147128000Y-124957750D01*
X147128000Y-124470250D01*
X147129174Y-124446358D01*
X147132684Y-124422697D01*
X147138496Y-124399493D01*
X147146554Y-124376971D01*
X147156782Y-124355347D01*
X147169079Y-124334830D01*
X147183329Y-124315617D01*
X147199393Y-124297893D01*
X147217117Y-124281829D01*
X147236330Y-124267579D01*
X147256847Y-124255282D01*
X147278471Y-124245054D01*
X147300993Y-124236996D01*
X147324197Y-124231184D01*
X147347858Y-124227674D01*
X147371750Y-124226500D01*
X148284250Y-124226500D01*
X148308142Y-124227674D01*
X148308142Y-124227674D01*
G37*
D11*
X147828000Y-124714000D03*
D10*
G36*
X148308142Y-122352674D02*
X148331803Y-122356184D01*
X148355007Y-122361996D01*
X148377529Y-122370054D01*
X148399153Y-122380282D01*
X148419670Y-122392579D01*
X148438883Y-122406829D01*
X148456607Y-122422893D01*
X148472671Y-122440617D01*
X148486921Y-122459830D01*
X148499218Y-122480347D01*
X148509446Y-122501971D01*
X148517504Y-122524493D01*
X148523316Y-122547697D01*
X148526826Y-122571358D01*
X148528000Y-122595250D01*
X148528000Y-123082750D01*
X148526826Y-123106642D01*
X148523316Y-123130303D01*
X148517504Y-123153507D01*
X148509446Y-123176029D01*
X148499218Y-123197653D01*
X148486921Y-123218170D01*
X148472671Y-123237383D01*
X148456607Y-123255107D01*
X148438883Y-123271171D01*
X148419670Y-123285421D01*
X148399153Y-123297718D01*
X148377529Y-123307946D01*
X148355007Y-123316004D01*
X148331803Y-123321816D01*
X148308142Y-123325326D01*
X148284250Y-123326500D01*
X147371750Y-123326500D01*
X147347858Y-123325326D01*
X147324197Y-123321816D01*
X147300993Y-123316004D01*
X147278471Y-123307946D01*
X147256847Y-123297718D01*
X147236330Y-123285421D01*
X147217117Y-123271171D01*
X147199393Y-123255107D01*
X147183329Y-123237383D01*
X147169079Y-123218170D01*
X147156782Y-123197653D01*
X147146554Y-123176029D01*
X147138496Y-123153507D01*
X147132684Y-123130303D01*
X147129174Y-123106642D01*
X147128000Y-123082750D01*
X147128000Y-122595250D01*
X147129174Y-122571358D01*
X147132684Y-122547697D01*
X147138496Y-122524493D01*
X147146554Y-122501971D01*
X147156782Y-122480347D01*
X147169079Y-122459830D01*
X147183329Y-122440617D01*
X147199393Y-122422893D01*
X147217117Y-122406829D01*
X147236330Y-122392579D01*
X147256847Y-122380282D01*
X147278471Y-122370054D01*
X147300993Y-122361996D01*
X147324197Y-122356184D01*
X147347858Y-122352674D01*
X147371750Y-122351500D01*
X148284250Y-122351500D01*
X148308142Y-122352674D01*
X148308142Y-122352674D01*
G37*
D11*
X147828000Y-122839000D03*
D10*
G36*
X158976142Y-122274174D02*
X158999803Y-122277684D01*
X159023007Y-122283496D01*
X159045529Y-122291554D01*
X159067153Y-122301782D01*
X159087670Y-122314079D01*
X159106883Y-122328329D01*
X159124607Y-122344393D01*
X159140671Y-122362117D01*
X159154921Y-122381330D01*
X159167218Y-122401847D01*
X159177446Y-122423471D01*
X159185504Y-122445993D01*
X159191316Y-122469197D01*
X159194826Y-122492858D01*
X159196000Y-122516750D01*
X159196000Y-123004250D01*
X159194826Y-123028142D01*
X159191316Y-123051803D01*
X159185504Y-123075007D01*
X159177446Y-123097529D01*
X159167218Y-123119153D01*
X159154921Y-123139670D01*
X159140671Y-123158883D01*
X159124607Y-123176607D01*
X159106883Y-123192671D01*
X159087670Y-123206921D01*
X159067153Y-123219218D01*
X159045529Y-123229446D01*
X159023007Y-123237504D01*
X158999803Y-123243316D01*
X158976142Y-123246826D01*
X158952250Y-123248000D01*
X158039750Y-123248000D01*
X158015858Y-123246826D01*
X157992197Y-123243316D01*
X157968993Y-123237504D01*
X157946471Y-123229446D01*
X157924847Y-123219218D01*
X157904330Y-123206921D01*
X157885117Y-123192671D01*
X157867393Y-123176607D01*
X157851329Y-123158883D01*
X157837079Y-123139670D01*
X157824782Y-123119153D01*
X157814554Y-123097529D01*
X157806496Y-123075007D01*
X157800684Y-123051803D01*
X157797174Y-123028142D01*
X157796000Y-123004250D01*
X157796000Y-122516750D01*
X157797174Y-122492858D01*
X157800684Y-122469197D01*
X157806496Y-122445993D01*
X157814554Y-122423471D01*
X157824782Y-122401847D01*
X157837079Y-122381330D01*
X157851329Y-122362117D01*
X157867393Y-122344393D01*
X157885117Y-122328329D01*
X157904330Y-122314079D01*
X157924847Y-122301782D01*
X157946471Y-122291554D01*
X157968993Y-122283496D01*
X157992197Y-122277684D01*
X158015858Y-122274174D01*
X158039750Y-122273000D01*
X158952250Y-122273000D01*
X158976142Y-122274174D01*
X158976142Y-122274174D01*
G37*
D11*
X158496000Y-122760500D03*
D10*
G36*
X158976142Y-124149174D02*
X158999803Y-124152684D01*
X159023007Y-124158496D01*
X159045529Y-124166554D01*
X159067153Y-124176782D01*
X159087670Y-124189079D01*
X159106883Y-124203329D01*
X159124607Y-124219393D01*
X159140671Y-124237117D01*
X159154921Y-124256330D01*
X159167218Y-124276847D01*
X159177446Y-124298471D01*
X159185504Y-124320993D01*
X159191316Y-124344197D01*
X159194826Y-124367858D01*
X159196000Y-124391750D01*
X159196000Y-124879250D01*
X159194826Y-124903142D01*
X159191316Y-124926803D01*
X159185504Y-124950007D01*
X159177446Y-124972529D01*
X159167218Y-124994153D01*
X159154921Y-125014670D01*
X159140671Y-125033883D01*
X159124607Y-125051607D01*
X159106883Y-125067671D01*
X159087670Y-125081921D01*
X159067153Y-125094218D01*
X159045529Y-125104446D01*
X159023007Y-125112504D01*
X158999803Y-125118316D01*
X158976142Y-125121826D01*
X158952250Y-125123000D01*
X158039750Y-125123000D01*
X158015858Y-125121826D01*
X157992197Y-125118316D01*
X157968993Y-125112504D01*
X157946471Y-125104446D01*
X157924847Y-125094218D01*
X157904330Y-125081921D01*
X157885117Y-125067671D01*
X157867393Y-125051607D01*
X157851329Y-125033883D01*
X157837079Y-125014670D01*
X157824782Y-124994153D01*
X157814554Y-124972529D01*
X157806496Y-124950007D01*
X157800684Y-124926803D01*
X157797174Y-124903142D01*
X157796000Y-124879250D01*
X157796000Y-124391750D01*
X157797174Y-124367858D01*
X157800684Y-124344197D01*
X157806496Y-124320993D01*
X157814554Y-124298471D01*
X157824782Y-124276847D01*
X157837079Y-124256330D01*
X157851329Y-124237117D01*
X157867393Y-124219393D01*
X157885117Y-124203329D01*
X157904330Y-124189079D01*
X157924847Y-124176782D01*
X157946471Y-124166554D01*
X157968993Y-124158496D01*
X157992197Y-124152684D01*
X158015858Y-124149174D01*
X158039750Y-124148000D01*
X158952250Y-124148000D01*
X158976142Y-124149174D01*
X158976142Y-124149174D01*
G37*
D11*
X158496000Y-124635500D03*
D10*
G36*
X151610142Y-124149174D02*
X151633803Y-124152684D01*
X151657007Y-124158496D01*
X151679529Y-124166554D01*
X151701153Y-124176782D01*
X151721670Y-124189079D01*
X151740883Y-124203329D01*
X151758607Y-124219393D01*
X151774671Y-124237117D01*
X151788921Y-124256330D01*
X151801218Y-124276847D01*
X151811446Y-124298471D01*
X151819504Y-124320993D01*
X151825316Y-124344197D01*
X151828826Y-124367858D01*
X151830000Y-124391750D01*
X151830000Y-124879250D01*
X151828826Y-124903142D01*
X151825316Y-124926803D01*
X151819504Y-124950007D01*
X151811446Y-124972529D01*
X151801218Y-124994153D01*
X151788921Y-125014670D01*
X151774671Y-125033883D01*
X151758607Y-125051607D01*
X151740883Y-125067671D01*
X151721670Y-125081921D01*
X151701153Y-125094218D01*
X151679529Y-125104446D01*
X151657007Y-125112504D01*
X151633803Y-125118316D01*
X151610142Y-125121826D01*
X151586250Y-125123000D01*
X150673750Y-125123000D01*
X150649858Y-125121826D01*
X150626197Y-125118316D01*
X150602993Y-125112504D01*
X150580471Y-125104446D01*
X150558847Y-125094218D01*
X150538330Y-125081921D01*
X150519117Y-125067671D01*
X150501393Y-125051607D01*
X150485329Y-125033883D01*
X150471079Y-125014670D01*
X150458782Y-124994153D01*
X150448554Y-124972529D01*
X150440496Y-124950007D01*
X150434684Y-124926803D01*
X150431174Y-124903142D01*
X150430000Y-124879250D01*
X150430000Y-124391750D01*
X150431174Y-124367858D01*
X150434684Y-124344197D01*
X150440496Y-124320993D01*
X150448554Y-124298471D01*
X150458782Y-124276847D01*
X150471079Y-124256330D01*
X150485329Y-124237117D01*
X150501393Y-124219393D01*
X150519117Y-124203329D01*
X150538330Y-124189079D01*
X150558847Y-124176782D01*
X150580471Y-124166554D01*
X150602993Y-124158496D01*
X150626197Y-124152684D01*
X150649858Y-124149174D01*
X150673750Y-124148000D01*
X151586250Y-124148000D01*
X151610142Y-124149174D01*
X151610142Y-124149174D01*
G37*
D11*
X151130000Y-124635500D03*
D10*
G36*
X151610142Y-122274174D02*
X151633803Y-122277684D01*
X151657007Y-122283496D01*
X151679529Y-122291554D01*
X151701153Y-122301782D01*
X151721670Y-122314079D01*
X151740883Y-122328329D01*
X151758607Y-122344393D01*
X151774671Y-122362117D01*
X151788921Y-122381330D01*
X151801218Y-122401847D01*
X151811446Y-122423471D01*
X151819504Y-122445993D01*
X151825316Y-122469197D01*
X151828826Y-122492858D01*
X151830000Y-122516750D01*
X151830000Y-123004250D01*
X151828826Y-123028142D01*
X151825316Y-123051803D01*
X151819504Y-123075007D01*
X151811446Y-123097529D01*
X151801218Y-123119153D01*
X151788921Y-123139670D01*
X151774671Y-123158883D01*
X151758607Y-123176607D01*
X151740883Y-123192671D01*
X151721670Y-123206921D01*
X151701153Y-123219218D01*
X151679529Y-123229446D01*
X151657007Y-123237504D01*
X151633803Y-123243316D01*
X151610142Y-123246826D01*
X151586250Y-123248000D01*
X150673750Y-123248000D01*
X150649858Y-123246826D01*
X150626197Y-123243316D01*
X150602993Y-123237504D01*
X150580471Y-123229446D01*
X150558847Y-123219218D01*
X150538330Y-123206921D01*
X150519117Y-123192671D01*
X150501393Y-123176607D01*
X150485329Y-123158883D01*
X150471079Y-123139670D01*
X150458782Y-123119153D01*
X150448554Y-123097529D01*
X150440496Y-123075007D01*
X150434684Y-123051803D01*
X150431174Y-123028142D01*
X150430000Y-123004250D01*
X150430000Y-122516750D01*
X150431174Y-122492858D01*
X150434684Y-122469197D01*
X150440496Y-122445993D01*
X150448554Y-122423471D01*
X150458782Y-122401847D01*
X150471079Y-122381330D01*
X150485329Y-122362117D01*
X150501393Y-122344393D01*
X150519117Y-122328329D01*
X150538330Y-122314079D01*
X150558847Y-122301782D01*
X150580471Y-122291554D01*
X150602993Y-122283496D01*
X150626197Y-122277684D01*
X150649858Y-122274174D01*
X150673750Y-122273000D01*
X151586250Y-122273000D01*
X151610142Y-122274174D01*
X151610142Y-122274174D01*
G37*
D11*
X151130000Y-122760500D03*
D10*
G36*
X162278142Y-124227674D02*
X162301803Y-124231184D01*
X162325007Y-124236996D01*
X162347529Y-124245054D01*
X162369153Y-124255282D01*
X162389670Y-124267579D01*
X162408883Y-124281829D01*
X162426607Y-124297893D01*
X162442671Y-124315617D01*
X162456921Y-124334830D01*
X162469218Y-124355347D01*
X162479446Y-124376971D01*
X162487504Y-124399493D01*
X162493316Y-124422697D01*
X162496826Y-124446358D01*
X162498000Y-124470250D01*
X162498000Y-124957750D01*
X162496826Y-124981642D01*
X162493316Y-125005303D01*
X162487504Y-125028507D01*
X162479446Y-125051029D01*
X162469218Y-125072653D01*
X162456921Y-125093170D01*
X162442671Y-125112383D01*
X162426607Y-125130107D01*
X162408883Y-125146171D01*
X162389670Y-125160421D01*
X162369153Y-125172718D01*
X162347529Y-125182946D01*
X162325007Y-125191004D01*
X162301803Y-125196816D01*
X162278142Y-125200326D01*
X162254250Y-125201500D01*
X161341750Y-125201500D01*
X161317858Y-125200326D01*
X161294197Y-125196816D01*
X161270993Y-125191004D01*
X161248471Y-125182946D01*
X161226847Y-125172718D01*
X161206330Y-125160421D01*
X161187117Y-125146171D01*
X161169393Y-125130107D01*
X161153329Y-125112383D01*
X161139079Y-125093170D01*
X161126782Y-125072653D01*
X161116554Y-125051029D01*
X161108496Y-125028507D01*
X161102684Y-125005303D01*
X161099174Y-124981642D01*
X161098000Y-124957750D01*
X161098000Y-124470250D01*
X161099174Y-124446358D01*
X161102684Y-124422697D01*
X161108496Y-124399493D01*
X161116554Y-124376971D01*
X161126782Y-124355347D01*
X161139079Y-124334830D01*
X161153329Y-124315617D01*
X161169393Y-124297893D01*
X161187117Y-124281829D01*
X161206330Y-124267579D01*
X161226847Y-124255282D01*
X161248471Y-124245054D01*
X161270993Y-124236996D01*
X161294197Y-124231184D01*
X161317858Y-124227674D01*
X161341750Y-124226500D01*
X162254250Y-124226500D01*
X162278142Y-124227674D01*
X162278142Y-124227674D01*
G37*
D11*
X161798000Y-124714000D03*
D10*
G36*
X162278142Y-122352674D02*
X162301803Y-122356184D01*
X162325007Y-122361996D01*
X162347529Y-122370054D01*
X162369153Y-122380282D01*
X162389670Y-122392579D01*
X162408883Y-122406829D01*
X162426607Y-122422893D01*
X162442671Y-122440617D01*
X162456921Y-122459830D01*
X162469218Y-122480347D01*
X162479446Y-122501971D01*
X162487504Y-122524493D01*
X162493316Y-122547697D01*
X162496826Y-122571358D01*
X162498000Y-122595250D01*
X162498000Y-123082750D01*
X162496826Y-123106642D01*
X162493316Y-123130303D01*
X162487504Y-123153507D01*
X162479446Y-123176029D01*
X162469218Y-123197653D01*
X162456921Y-123218170D01*
X162442671Y-123237383D01*
X162426607Y-123255107D01*
X162408883Y-123271171D01*
X162389670Y-123285421D01*
X162369153Y-123297718D01*
X162347529Y-123307946D01*
X162325007Y-123316004D01*
X162301803Y-123321816D01*
X162278142Y-123325326D01*
X162254250Y-123326500D01*
X161341750Y-123326500D01*
X161317858Y-123325326D01*
X161294197Y-123321816D01*
X161270993Y-123316004D01*
X161248471Y-123307946D01*
X161226847Y-123297718D01*
X161206330Y-123285421D01*
X161187117Y-123271171D01*
X161169393Y-123255107D01*
X161153329Y-123237383D01*
X161139079Y-123218170D01*
X161126782Y-123197653D01*
X161116554Y-123176029D01*
X161108496Y-123153507D01*
X161102684Y-123130303D01*
X161099174Y-123106642D01*
X161098000Y-123082750D01*
X161098000Y-122595250D01*
X161099174Y-122571358D01*
X161102684Y-122547697D01*
X161108496Y-122524493D01*
X161116554Y-122501971D01*
X161126782Y-122480347D01*
X161139079Y-122459830D01*
X161153329Y-122440617D01*
X161169393Y-122422893D01*
X161187117Y-122406829D01*
X161206330Y-122392579D01*
X161226847Y-122380282D01*
X161248471Y-122370054D01*
X161270993Y-122361996D01*
X161294197Y-122356184D01*
X161317858Y-122352674D01*
X161341750Y-122351500D01*
X162254250Y-122351500D01*
X162278142Y-122352674D01*
X162278142Y-122352674D01*
G37*
D11*
X161798000Y-122839000D03*
D10*
G36*
X181369642Y-119443174D02*
X181393303Y-119446684D01*
X181416507Y-119452496D01*
X181439029Y-119460554D01*
X181460653Y-119470782D01*
X181481170Y-119483079D01*
X181500383Y-119497329D01*
X181518107Y-119513393D01*
X181534171Y-119531117D01*
X181548421Y-119550330D01*
X181560718Y-119570847D01*
X181570946Y-119592471D01*
X181579004Y-119614993D01*
X181584816Y-119638197D01*
X181588326Y-119661858D01*
X181589500Y-119685750D01*
X181589500Y-120598250D01*
X181588326Y-120622142D01*
X181584816Y-120645803D01*
X181579004Y-120669007D01*
X181570946Y-120691529D01*
X181560718Y-120713153D01*
X181548421Y-120733670D01*
X181534171Y-120752883D01*
X181518107Y-120770607D01*
X181500383Y-120786671D01*
X181481170Y-120800921D01*
X181460653Y-120813218D01*
X181439029Y-120823446D01*
X181416507Y-120831504D01*
X181393303Y-120837316D01*
X181369642Y-120840826D01*
X181345750Y-120842000D01*
X180858250Y-120842000D01*
X180834358Y-120840826D01*
X180810697Y-120837316D01*
X180787493Y-120831504D01*
X180764971Y-120823446D01*
X180743347Y-120813218D01*
X180722830Y-120800921D01*
X180703617Y-120786671D01*
X180685893Y-120770607D01*
X180669829Y-120752883D01*
X180655579Y-120733670D01*
X180643282Y-120713153D01*
X180633054Y-120691529D01*
X180624996Y-120669007D01*
X180619184Y-120645803D01*
X180615674Y-120622142D01*
X180614500Y-120598250D01*
X180614500Y-119685750D01*
X180615674Y-119661858D01*
X180619184Y-119638197D01*
X180624996Y-119614993D01*
X180633054Y-119592471D01*
X180643282Y-119570847D01*
X180655579Y-119550330D01*
X180669829Y-119531117D01*
X180685893Y-119513393D01*
X180703617Y-119497329D01*
X180722830Y-119483079D01*
X180743347Y-119470782D01*
X180764971Y-119460554D01*
X180787493Y-119452496D01*
X180810697Y-119446684D01*
X180834358Y-119443174D01*
X180858250Y-119442000D01*
X181345750Y-119442000D01*
X181369642Y-119443174D01*
X181369642Y-119443174D01*
G37*
D11*
X181102000Y-120142000D03*
D10*
G36*
X179494642Y-119443174D02*
X179518303Y-119446684D01*
X179541507Y-119452496D01*
X179564029Y-119460554D01*
X179585653Y-119470782D01*
X179606170Y-119483079D01*
X179625383Y-119497329D01*
X179643107Y-119513393D01*
X179659171Y-119531117D01*
X179673421Y-119550330D01*
X179685718Y-119570847D01*
X179695946Y-119592471D01*
X179704004Y-119614993D01*
X179709816Y-119638197D01*
X179713326Y-119661858D01*
X179714500Y-119685750D01*
X179714500Y-120598250D01*
X179713326Y-120622142D01*
X179709816Y-120645803D01*
X179704004Y-120669007D01*
X179695946Y-120691529D01*
X179685718Y-120713153D01*
X179673421Y-120733670D01*
X179659171Y-120752883D01*
X179643107Y-120770607D01*
X179625383Y-120786671D01*
X179606170Y-120800921D01*
X179585653Y-120813218D01*
X179564029Y-120823446D01*
X179541507Y-120831504D01*
X179518303Y-120837316D01*
X179494642Y-120840826D01*
X179470750Y-120842000D01*
X178983250Y-120842000D01*
X178959358Y-120840826D01*
X178935697Y-120837316D01*
X178912493Y-120831504D01*
X178889971Y-120823446D01*
X178868347Y-120813218D01*
X178847830Y-120800921D01*
X178828617Y-120786671D01*
X178810893Y-120770607D01*
X178794829Y-120752883D01*
X178780579Y-120733670D01*
X178768282Y-120713153D01*
X178758054Y-120691529D01*
X178749996Y-120669007D01*
X178744184Y-120645803D01*
X178740674Y-120622142D01*
X178739500Y-120598250D01*
X178739500Y-119685750D01*
X178740674Y-119661858D01*
X178744184Y-119638197D01*
X178749996Y-119614993D01*
X178758054Y-119592471D01*
X178768282Y-119570847D01*
X178780579Y-119550330D01*
X178794829Y-119531117D01*
X178810893Y-119513393D01*
X178828617Y-119497329D01*
X178847830Y-119483079D01*
X178868347Y-119470782D01*
X178889971Y-119460554D01*
X178912493Y-119452496D01*
X178935697Y-119446684D01*
X178959358Y-119443174D01*
X178983250Y-119442000D01*
X179470750Y-119442000D01*
X179494642Y-119443174D01*
X179494642Y-119443174D01*
G37*
D11*
X179227000Y-120142000D03*
D27*
X181867000Y-96520000D03*
X181867000Y-94520000D03*
X181867000Y-92520000D03*
X181867000Y-90520000D03*
X181867000Y-88520000D03*
X181867000Y-86520000D03*
X181867000Y-84520000D03*
X181867000Y-82520000D03*
X162167000Y-82520000D03*
X162167000Y-84520000D03*
X162167000Y-86520000D03*
X162167000Y-88520000D03*
X162167000Y-90520000D03*
X162167000Y-92520000D03*
X162167000Y-94520000D03*
X162167000Y-96520000D03*
M02*
