M48
;DRILL file {KiCad 5.0.2-bee76a0~70~ubuntu18.04.1} date mer 02 ott 2019 22:42:13 CEST
;FORMAT={-:-/ absolute / inch / decimal}
FMAT,2
INCH,TZ
T1C0.0138
T2C0.0236
T3C0.0300
T4C0.0315
T5C0.0335
T6C0.0394
T7C0.0400
%
G90
G05
T1
X5.0252Y-3.395
X5.045Y-4.59
X5.05Y-3.48
X5.06Y-5.36
X5.0915Y-3.4664
X5.1483Y-3.81
X5.15Y-3.7143
X5.15Y-4.215
X5.15Y-4.435
X5.15Y-4.64
X5.155Y-3.565
X5.155Y-5.195
X5.165Y-3.255
X5.18Y-4.37
X5.18Y-4.485
X5.205Y-3.56
X5.26Y-3.365
X5.26Y-3.77
X5.26Y-4.18
X5.3012Y-4.08
X5.305Y-4.32
X5.32Y-5.02
X5.325Y-3.995
X5.325Y-4.275
X5.345Y-3.77
X5.3481Y-5.345
X5.355Y-3.965
X5.355Y-4.335
X5.3719Y-4.435
X5.3755Y-5.17
X5.3755Y-5.3955
X5.3788Y-4.04
X5.3788Y-4.18
X5.38Y-3.6274
X5.385Y-3.995
X5.41Y-4.99
X5.435Y-3.65
X5.435Y-3.72
X5.46Y-3.8
X5.46Y-5.04
X5.48Y-3.49
X5.4838Y-3.625
X5.4838Y-4.61
X5.485Y-4.21
X5.51Y-4.17
X5.52Y-4.275
X5.5338Y-4.07
X5.565Y-3.365
X5.59Y-4.02
X5.5934Y-3.86
X5.605Y-3.7802
X5.62Y-4.599
X5.62Y-4.72
X5.65Y-4.11
X5.67Y-3.49
X5.675Y-3.62
X5.675Y-3.86
X5.69Y-4.75
X5.725Y-3.645
X5.73Y-5.36
X5.735Y-4.02
X5.7488Y-3.8
X5.75Y-4.07
X5.7554Y-3.6589
X5.7738Y-4.3587
X5.8Y-4.42
X5.81Y-3.61
X5.81Y-4.03
X5.81Y-4.1
X5.82Y-4.7
X5.855Y-4.21
X5.88Y-3.52
X5.88Y-5.22
X5.91Y-3.8
X5.93Y-4.5
X5.939Y-3.61
X5.95Y-3.85
X5.95Y-4.34
X5.95Y-4.75
X5.98Y-4.57
X5.985Y-4.525
X5.99Y-3.685
X6.001Y-3.8262
X6.025Y-3.8
X6.025Y-3.94
X6.025Y-4.56
X6.065Y-3.685
X6.0696Y-4.62
X6.07Y-3.925
X6.1Y-4.68
X6.1034Y-3.66
X6.115Y-3.565
X6.13Y-3.8
X6.13Y-3.85
X6.14Y-3.685
X6.15Y-3.52
X6.155Y-3.765
X6.16Y-3.635
X6.16Y-4.94
X6.17Y-3.89
X6.175Y-3.7213
X6.235Y-4.56
X6.24Y-4.01
X6.28Y-4.3016
X6.28Y-4.43
X6.3Y-4.91
X6.3038Y-4.34
X6.36Y-4.035
X6.37Y-4.43
X6.37Y-4.75
X6.37Y-4.98
X6.37Y-5.37
X6.44Y-4.19
X6.49Y-4.22
X6.53Y-4.75
X6.535Y-4.275
X6.55Y-3.58
X6.55Y-4.07
X6.605Y-4.035
X6.63Y-3.34
X6.63Y-3.9193
X6.63Y-3.98
X6.63Y-4.555
X6.63Y-5.295
X6.655Y-3.2322
X6.67Y-3.685
X6.67Y-5.1598
X6.67Y-5.35
X6.755Y-4.495
X6.77Y-3.8
X6.77Y-3.88
X6.78Y-4.955
X6.785Y-4.65
X6.795Y-3.635
X6.795Y-5.
X6.82Y-4.065
X6.835Y-4.15
X6.835Y-4.825
X6.85Y-4.035
X6.865Y-4.955
X6.875Y-3.69
X6.895Y-4.535
X6.905Y-5.105
X6.905Y-5.205
X6.94Y-3.72
X6.945Y-4.855
X6.955Y-4.04
X6.985Y-4.19
X6.9987Y-4.605
X7.0115Y-4.32
X7.02Y-4.775
X7.025Y-5.
X7.035Y-5.105
X7.035Y-5.3
X7.15Y-4.21
X7.15Y-4.575
X7.2Y-3.85
X7.215Y-4.075
T3
X6.0236Y-4.3236
X6.1236Y-4.2236
X6.2236Y-4.3236
T4
X6.91Y-4.26
X6.91Y-4.3781
X6.4357Y-3.2488
X6.4357Y-3.3276
X6.4357Y-3.4063
X6.4357Y-3.485
X6.4357Y-3.5638
X6.4357Y-3.6425
X6.4357Y-3.7213
X6.4357Y-3.8
X7.1089Y-3.2488
X7.1089Y-3.3276
X7.1089Y-3.4063
X7.1089Y-3.485
X7.1089Y-3.5638
X7.1089Y-3.6425
X7.1089Y-3.7213
X7.1089Y-3.8
T5
X7.0824Y-4.8516
X7.0824Y-5.0484
T6
X7.165Y-5.22
X7.165Y-5.32
X5.59Y-4.11
X5.59Y-4.21
X5.59Y-4.31
X5.59Y-4.41
X7.07Y-3.93
X7.07Y-4.03
X7.07Y-4.13
X7.17Y-3.93
X7.17Y-4.03
X7.17Y-4.13
X5.08Y-3.91
X5.08Y-4.01
X5.08Y-4.11
X5.08Y-4.21
X5.08Y-4.31
X5.08Y-4.41
X6.235Y-3.325
T7
X5.11Y-3.31
X5.11Y-3.41
X5.21Y-3.31
X5.21Y-3.41
X5.31Y-3.31
X5.31Y-3.41
X5.41Y-3.31
X5.41Y-3.41
X5.51Y-3.31
X5.51Y-3.41
X5.61Y-3.31
X5.61Y-3.41
X5.71Y-3.31
X5.71Y-3.41
X5.81Y-3.31
X5.81Y-3.41
X5.91Y-3.31
X5.91Y-3.41
X6.01Y-3.31
X6.01Y-3.41
X6.11Y-3.31
X6.11Y-3.41
X6.89Y-3.28
X6.89Y-3.38
X6.89Y-3.48
X6.89Y-3.58
X6.99Y-3.28
X6.99Y-3.38
X6.99Y-3.48
X6.99Y-3.58
T2
X7.1749Y-4.8122G85X7.2025Y-4.8122
G05
X7.2025Y-5.0878G85X7.1749Y-5.0878
G05
T3
X5.0899Y-4.778G85X5.0899Y-4.682
G05
X6.96Y-4.778G85X6.96Y-4.682
G05
X5.09Y-5.162G85X5.09Y-5.258
G05
X6.9601Y-5.162G85X6.9601Y-5.258
G05
T0
M30
