%TF.GenerationSoftware,KiCad,Pcbnew,5.0.2-bee76a0~70~ubuntu18.04.1*%
%TF.CreationDate,2019-07-20T10:54:43+02:00*%
%TF.ProjectId,BT-Pcb-328P,42542d50-6362-42d3-9332-38502e6b6963,1.0*%
%TF.SameCoordinates,Original*%
%TF.FileFunction,Legend,Bot*%
%TF.FilePolarity,Positive*%
%FSLAX46Y46*%
G04 Gerber Fmt 4.6, Leading zero omitted, Abs format (unit mm)*
G04 Created by KiCad (PCBNEW 5.0.2-bee76a0~70~ubuntu18.04.1) date sab 20 lug 2019 10:54:43 CEST*
%MOMM*%
%LPD*%
G01*
G04 APERTURE LIST*
%ADD10C,0.150000*%
%ADD11C,0.120000*%
%ADD12C,0.010000*%
%ADD13C,0.160000*%
G04 APERTURE END LIST*
D10*
X159511857Y-86907666D02*
X159035666Y-86907666D01*
X159607095Y-87193380D02*
X159273761Y-86193380D01*
X158940428Y-87193380D01*
X158607095Y-87193380D02*
X158607095Y-86193380D01*
X158035666Y-87193380D01*
X158035666Y-86193380D01*
X157702333Y-86193380D02*
X157130904Y-86193380D01*
X157416619Y-87193380D02*
X157416619Y-86193380D01*
X131643428Y-112863190D02*
X131643428Y-113196523D01*
X131119619Y-113196523D02*
X132119619Y-113196523D01*
X132119619Y-112720333D01*
X132119619Y-112482238D02*
X132119619Y-111910809D01*
X131119619Y-112196523D02*
X132119619Y-112196523D01*
X131119619Y-111577476D02*
X132119619Y-111577476D01*
X132119619Y-111339380D01*
X132072000Y-111196523D01*
X131976761Y-111101285D01*
X131881523Y-111053666D01*
X131691047Y-111006047D01*
X131548190Y-111006047D01*
X131357714Y-111053666D01*
X131262476Y-111101285D01*
X131167238Y-111196523D01*
X131119619Y-111339380D01*
X131119619Y-111577476D01*
X131119619Y-110577476D02*
X132119619Y-110577476D01*
X176458619Y-106124190D02*
X177458619Y-106124190D01*
X176553857Y-105076571D02*
X176506238Y-105124190D01*
X176458619Y-105267047D01*
X176458619Y-105362285D01*
X176506238Y-105505142D01*
X176601476Y-105600380D01*
X176696714Y-105648000D01*
X176887190Y-105695619D01*
X177030047Y-105695619D01*
X177220523Y-105648000D01*
X177315761Y-105600380D01*
X177411000Y-105505142D01*
X177458619Y-105362285D01*
X177458619Y-105267047D01*
X177411000Y-105124190D01*
X177363380Y-105076571D01*
X176506238Y-104695619D02*
X176458619Y-104552761D01*
X176458619Y-104314666D01*
X176506238Y-104219428D01*
X176553857Y-104171809D01*
X176649095Y-104124190D01*
X176744333Y-104124190D01*
X176839571Y-104171809D01*
X176887190Y-104219428D01*
X176934809Y-104314666D01*
X176982428Y-104505142D01*
X177030047Y-104600380D01*
X177077666Y-104648000D01*
X177172904Y-104695619D01*
X177268142Y-104695619D01*
X177363380Y-104648000D01*
X177411000Y-104600380D01*
X177458619Y-104505142D01*
X177458619Y-104267047D01*
X177411000Y-104124190D01*
X176458619Y-103695619D02*
X177458619Y-103695619D01*
X177458619Y-103314666D01*
X177411000Y-103219428D01*
X177363380Y-103171809D01*
X177268142Y-103124190D01*
X177125285Y-103124190D01*
X177030047Y-103171809D01*
X176982428Y-103219428D01*
X176934809Y-103314666D01*
X176934809Y-103695619D01*
X184040000Y-138320000D02*
X184040000Y-81320000D01*
X127040000Y-138320000D02*
X127040000Y-81320000D01*
X127040000Y-138320000D02*
X184040000Y-138320000D01*
X127040000Y-81320000D02*
X184040000Y-81320000D01*
X178943000Y-84582000D02*
X178943000Y-81915000D01*
X178943000Y-81915000D02*
X176276000Y-81915000D01*
X178816000Y-89662000D02*
X178816000Y-92202000D01*
X178816000Y-92202000D02*
X176276000Y-92202000D01*
X178816000Y-84582000D02*
X176276000Y-84582000D01*
X176276000Y-84582000D02*
X176276000Y-82042000D01*
X178816000Y-89662000D02*
X178816000Y-82042000D01*
X178816000Y-82042000D02*
X173736000Y-82042000D01*
X173736000Y-82042000D02*
X173736000Y-92202000D01*
X173736000Y-92202000D02*
X176276000Y-92202000D01*
D11*
X175480000Y-98332000D02*
X175480000Y-100032000D01*
X175480000Y-103852000D02*
X175480000Y-102152000D01*
X171024437Y-103852000D02*
X175480000Y-103852000D01*
X171024437Y-98332000D02*
X175480000Y-98332000D01*
X169960000Y-99396437D02*
X169960000Y-100032000D01*
X169960000Y-102787563D02*
X169960000Y-102152000D01*
X169960000Y-102787563D02*
X171024437Y-103852000D01*
X169960000Y-99396437D02*
X171024437Y-98332000D01*
X169095000Y-102777000D02*
X169720000Y-102777000D01*
X169407500Y-103089500D02*
X169407500Y-102464500D01*
X171812000Y-106572000D02*
X171812000Y-108922000D01*
X171812000Y-113392000D02*
X171812000Y-111042000D01*
X166056437Y-113392000D02*
X171812000Y-113392000D01*
X166056437Y-106572000D02*
X171812000Y-106572000D01*
X164992000Y-107636437D02*
X164992000Y-108922000D01*
X164992000Y-112327563D02*
X164992000Y-111042000D01*
X164992000Y-112327563D02*
X166056437Y-113392000D01*
X164992000Y-107636437D02*
X166056437Y-106572000D01*
X163964500Y-111829500D02*
X164752000Y-111829500D01*
X164358250Y-112223250D02*
X164358250Y-111435750D01*
X133784000Y-119142000D02*
X133784000Y-121142000D01*
X132784000Y-118142000D02*
X132784000Y-122142000D01*
X131784000Y-123142000D02*
X131784000Y-117142000D01*
X130784000Y-116142000D02*
X130784000Y-124142000D01*
X175286000Y-136334000D02*
X175286000Y-128334000D01*
X174286000Y-129334000D02*
X174286000Y-135334000D01*
X173286000Y-134334000D02*
X173286000Y-130334000D01*
X172286000Y-133334000D02*
X172286000Y-131334000D01*
X163385370Y-134349789D02*
G75*
G03X166232000Y-129848000I-7845370J8111789D01*
G01*
X147694630Y-118126211D02*
G75*
G03X144848000Y-122628000I7845370J-8111789D01*
G01*
X147694630Y-134349789D02*
G75*
G02X144848000Y-129848000I7845370J8111789D01*
G01*
X163385370Y-118126211D02*
G75*
G02X166232000Y-122628000I-7845370J-8111789D01*
G01*
X169850000Y-128138000D02*
X169850000Y-129848000D01*
X166232000Y-129848000D02*
X169850000Y-129848000D01*
X159400000Y-134348000D02*
X163387300Y-134348000D01*
X157200000Y-132148000D02*
X159400000Y-134348000D01*
X153880000Y-132148000D02*
X157200000Y-132148000D01*
X153880000Y-132148000D02*
X151680000Y-134348000D01*
X147692700Y-134348000D02*
X151680000Y-134348000D01*
X141230000Y-128138000D02*
X141230000Y-129848000D01*
X141230000Y-129848000D02*
X144848000Y-129848000D01*
X144848000Y-122628000D02*
X141230000Y-122628000D01*
X141230000Y-124338000D02*
X141230000Y-122628000D01*
X163387300Y-118128000D02*
X147692700Y-118128000D01*
X169850000Y-124338000D02*
X169850000Y-122628000D01*
X169850000Y-122628000D02*
X166232000Y-122628000D01*
X157039000Y-83125000D02*
X159699000Y-83125000D01*
X157039000Y-83185000D02*
X157039000Y-83125000D01*
X159699000Y-83185000D02*
X159699000Y-83125000D01*
X157039000Y-83185000D02*
X159699000Y-83185000D01*
X157039000Y-84455000D02*
X157039000Y-85785000D01*
X157039000Y-85785000D02*
X158369000Y-85785000D01*
X178248000Y-98492000D02*
X183448000Y-98492000D01*
X178248000Y-103632000D02*
X178248000Y-98492000D01*
X183448000Y-106232000D02*
X183448000Y-98492000D01*
X178248000Y-103632000D02*
X180848000Y-103632000D01*
X180848000Y-103632000D02*
X180848000Y-106232000D01*
X180848000Y-106232000D02*
X183448000Y-106232000D01*
X178248000Y-104902000D02*
X178248000Y-106232000D01*
X178248000Y-106232000D02*
X179578000Y-106232000D01*
X127702000Y-110744000D02*
X130362000Y-110744000D01*
X127702000Y-110744000D02*
X127702000Y-97984000D01*
X127702000Y-97984000D02*
X130362000Y-97984000D01*
X130362000Y-110744000D02*
X130362000Y-97984000D01*
X130362000Y-113344000D02*
X130362000Y-112014000D01*
X129032000Y-113344000D02*
X130362000Y-113344000D01*
D12*
G36*
X155407200Y-120037075D02*
X155386587Y-120038600D01*
X155369473Y-120041020D01*
X155368575Y-120041196D01*
X155326447Y-120052141D01*
X155286587Y-120067488D01*
X155249252Y-120086980D01*
X155214698Y-120110357D01*
X155183180Y-120137359D01*
X155154953Y-120167729D01*
X155130275Y-120201207D01*
X155109401Y-120237534D01*
X155092586Y-120276451D01*
X155080087Y-120317699D01*
X155075820Y-120337580D01*
X155073194Y-120356677D01*
X155071647Y-120379083D01*
X155071180Y-120403144D01*
X155071793Y-120427202D01*
X155073488Y-120449604D01*
X155075734Y-120465850D01*
X155085721Y-120508068D01*
X155100167Y-120548050D01*
X155118865Y-120585564D01*
X155141609Y-120620383D01*
X155168191Y-120652276D01*
X155198403Y-120681014D01*
X155232040Y-120706368D01*
X155268894Y-120728108D01*
X155308758Y-120746006D01*
X155337510Y-120755873D01*
X155352750Y-120760490D01*
X155353387Y-122616807D01*
X155353427Y-122741193D01*
X155353458Y-122861638D01*
X155353481Y-122978098D01*
X155353497Y-123090533D01*
X155353505Y-123198900D01*
X155353505Y-123303157D01*
X155353497Y-123403262D01*
X155353481Y-123499174D01*
X155353458Y-123590851D01*
X155353427Y-123678250D01*
X155353388Y-123761330D01*
X155353342Y-123840048D01*
X155353289Y-123914364D01*
X155353228Y-123984234D01*
X155353159Y-124049618D01*
X155353083Y-124110473D01*
X155353000Y-124166757D01*
X155352909Y-124218428D01*
X155352811Y-124265445D01*
X155352706Y-124307766D01*
X155352594Y-124345348D01*
X155352475Y-124378150D01*
X155352348Y-124406129D01*
X155352214Y-124429245D01*
X155352074Y-124447454D01*
X155351926Y-124460716D01*
X155351771Y-124468987D01*
X155351610Y-124472227D01*
X155351585Y-124472277D01*
X155349476Y-124470616D01*
X155343583Y-124465827D01*
X155334040Y-124458019D01*
X155320977Y-124447300D01*
X155304526Y-124433779D01*
X155284821Y-124417565D01*
X155261991Y-124398767D01*
X155236170Y-124377494D01*
X155207490Y-124353855D01*
X155176081Y-124327958D01*
X155142077Y-124299912D01*
X155105609Y-124269827D01*
X155066809Y-124237810D01*
X155025808Y-124203971D01*
X154982740Y-124168418D01*
X154937735Y-124131261D01*
X154890925Y-124092608D01*
X154842444Y-124052569D01*
X154792422Y-124011251D01*
X154740991Y-123968764D01*
X154688283Y-123925216D01*
X154634431Y-123880717D01*
X154579566Y-123835375D01*
X154570085Y-123827540D01*
X154515048Y-123782052D01*
X154460997Y-123737380D01*
X154408064Y-123693634D01*
X154356383Y-123650922D01*
X154306085Y-123609354D01*
X154257301Y-123569039D01*
X154210165Y-123530086D01*
X154164809Y-123492605D01*
X154121364Y-123456704D01*
X154079963Y-123422493D01*
X154040737Y-123390080D01*
X154003820Y-123359576D01*
X153969342Y-123331089D01*
X153937437Y-123304728D01*
X153908236Y-123280603D01*
X153881872Y-123258823D01*
X153858476Y-123239496D01*
X153838182Y-123222733D01*
X153821120Y-123208642D01*
X153807423Y-123197332D01*
X153797223Y-123188913D01*
X153790652Y-123183495D01*
X153787843Y-123181185D01*
X153787750Y-123181110D01*
X153786946Y-123178241D01*
X153785483Y-123170370D01*
X153783361Y-123157494D01*
X153780579Y-123139611D01*
X153777138Y-123116718D01*
X153773036Y-123088812D01*
X153768274Y-123055891D01*
X153762850Y-123017951D01*
X153756766Y-122974990D01*
X153750019Y-122927006D01*
X153742611Y-122873995D01*
X153734540Y-122815956D01*
X153725806Y-122752885D01*
X153718332Y-122698737D01*
X153711616Y-122649990D01*
X153705094Y-122602604D01*
X153698800Y-122556821D01*
X153692766Y-122512887D01*
X153687027Y-122471044D01*
X153681615Y-122431539D01*
X153676565Y-122394614D01*
X153671908Y-122360513D01*
X153667678Y-122329481D01*
X153663910Y-122301762D01*
X153660635Y-122277600D01*
X153657888Y-122257238D01*
X153655701Y-122240922D01*
X153654108Y-122228894D01*
X153653142Y-122221400D01*
X153652837Y-122218683D01*
X153652839Y-122218677D01*
X153655237Y-122217528D01*
X153661226Y-122214592D01*
X153669849Y-122210339D01*
X153678134Y-122206240D01*
X153713661Y-122185897D01*
X153746020Y-122161842D01*
X153775057Y-122134455D01*
X153800618Y-122104115D01*
X153822548Y-122071201D01*
X153840691Y-122036091D01*
X153854893Y-121999165D01*
X153864999Y-121960802D01*
X153870854Y-121921381D01*
X153872303Y-121881281D01*
X153872183Y-121879711D01*
X153671428Y-121879711D01*
X153671391Y-121900581D01*
X153669223Y-121920261D01*
X153665418Y-121935558D01*
X153654132Y-121960994D01*
X153638780Y-121984149D01*
X153619941Y-122004419D01*
X153598190Y-122021202D01*
X153574108Y-122033895D01*
X153569351Y-122035782D01*
X153542274Y-122043386D01*
X153514991Y-122045925D01*
X153487642Y-122043395D01*
X153470078Y-122039085D01*
X153444182Y-122028634D01*
X153420979Y-122014184D01*
X153400831Y-121996221D01*
X153384099Y-121975229D01*
X153371143Y-121951692D01*
X153362324Y-121926096D01*
X153358005Y-121898926D01*
X153357618Y-121888148D01*
X153359875Y-121860795D01*
X153366802Y-121835270D01*
X153378474Y-121811398D01*
X153394967Y-121789000D01*
X153404387Y-121778950D01*
X153426142Y-121760273D01*
X153449100Y-121746471D01*
X153473588Y-121737418D01*
X153499931Y-121732985D01*
X153522680Y-121732686D01*
X153550099Y-121736460D01*
X153576007Y-121744829D01*
X153599902Y-121757410D01*
X153621283Y-121773821D01*
X153639651Y-121793678D01*
X153654503Y-121816599D01*
X153665134Y-121841575D01*
X153669341Y-121859444D01*
X153671428Y-121879711D01*
X153872183Y-121879711D01*
X153869192Y-121840882D01*
X153861365Y-121800562D01*
X153854028Y-121775625D01*
X153838243Y-121736176D01*
X153818301Y-121699468D01*
X153794459Y-121665728D01*
X153766973Y-121635183D01*
X153736100Y-121608059D01*
X153702097Y-121584582D01*
X153665221Y-121564980D01*
X153625727Y-121549478D01*
X153585389Y-121538621D01*
X153564768Y-121535348D01*
X153540921Y-121533369D01*
X153515463Y-121532684D01*
X153490006Y-121533294D01*
X153466163Y-121535199D01*
X153445547Y-121538400D01*
X153444732Y-121538572D01*
X153402313Y-121550114D01*
X153362537Y-121565907D01*
X153325606Y-121585747D01*
X153291722Y-121609432D01*
X153261089Y-121636759D01*
X153233910Y-121667525D01*
X153210387Y-121701526D01*
X153190723Y-121738561D01*
X153175121Y-121778425D01*
X153164103Y-121819405D01*
X153161139Y-121837986D01*
X153159222Y-121859956D01*
X153158369Y-121883727D01*
X153158595Y-121907714D01*
X153159918Y-121930331D01*
X153162353Y-121949991D01*
X153162724Y-121952094D01*
X153172777Y-121993261D01*
X153187307Y-122032343D01*
X153206041Y-122069059D01*
X153228708Y-122103126D01*
X153255035Y-122134263D01*
X153284749Y-122162188D01*
X153317579Y-122186618D01*
X153353251Y-122207272D01*
X153391494Y-122223868D01*
X153432035Y-122236124D01*
X153438531Y-122237622D01*
X153449321Y-122239847D01*
X153458951Y-122241549D01*
X153465804Y-122242450D01*
X153467212Y-122242525D01*
X153471825Y-122243285D01*
X153474245Y-122246432D01*
X153475524Y-122252105D01*
X153476020Y-122255535D01*
X153477176Y-122263756D01*
X153478958Y-122276521D01*
X153481331Y-122293589D01*
X153484263Y-122314716D01*
X153487720Y-122339659D01*
X153491668Y-122368173D01*
X153496074Y-122400016D01*
X153500903Y-122434944D01*
X153506122Y-122472714D01*
X153511698Y-122513083D01*
X153517597Y-122555806D01*
X153523785Y-122600642D01*
X153530228Y-122647345D01*
X153536893Y-122695673D01*
X153543747Y-122745382D01*
X153546896Y-122768227D01*
X153553814Y-122818355D01*
X153560567Y-122867140D01*
X153567119Y-122914342D01*
X153573438Y-122959725D01*
X153579489Y-123003048D01*
X153585238Y-123044075D01*
X153590652Y-123082567D01*
X153595698Y-123118285D01*
X153600340Y-123150992D01*
X153604546Y-123180448D01*
X153608282Y-123206415D01*
X153611514Y-123228656D01*
X153614207Y-123246932D01*
X153616329Y-123261004D01*
X153617846Y-123270634D01*
X153618723Y-123275584D01*
X153618907Y-123276227D01*
X153620992Y-123277923D01*
X153626868Y-123282752D01*
X153636409Y-123290611D01*
X153649490Y-123301396D01*
X153665987Y-123315005D01*
X153685775Y-123331334D01*
X153708728Y-123350280D01*
X153734721Y-123371740D01*
X153763630Y-123395610D01*
X153795330Y-123421787D01*
X153829695Y-123450168D01*
X153866600Y-123480649D01*
X153905921Y-123513128D01*
X153947532Y-123547501D01*
X153991309Y-123583665D01*
X154037126Y-123621517D01*
X154084858Y-123660952D01*
X154134381Y-123701869D01*
X154185569Y-123744164D01*
X154238297Y-123787733D01*
X154292441Y-123832473D01*
X154347875Y-123878281D01*
X154404474Y-123925055D01*
X154462114Y-123972689D01*
X154487559Y-123993718D01*
X155354020Y-124709807D01*
X155354020Y-125931315D01*
X155354016Y-126015874D01*
X155354002Y-126098458D01*
X155353980Y-126178937D01*
X155353949Y-126257179D01*
X155353909Y-126333055D01*
X155353861Y-126406431D01*
X155353806Y-126477179D01*
X155353743Y-126545166D01*
X155353672Y-126610262D01*
X155353595Y-126672336D01*
X155353510Y-126731257D01*
X155353419Y-126786894D01*
X155353321Y-126839116D01*
X155353218Y-126887792D01*
X155353108Y-126932792D01*
X155352992Y-126973984D01*
X155352871Y-127011237D01*
X155352745Y-127044420D01*
X155352614Y-127073403D01*
X155352478Y-127098054D01*
X155352337Y-127118243D01*
X155352193Y-127133838D01*
X155352044Y-127144709D01*
X155351891Y-127150725D01*
X155351780Y-127151976D01*
X155349382Y-127149865D01*
X155344293Y-127144627D01*
X155337167Y-127136959D01*
X155328658Y-127127558D01*
X155324767Y-127123190D01*
X155311248Y-127108073D01*
X155297001Y-127092416D01*
X155281796Y-127075980D01*
X155265400Y-127058529D01*
X155247582Y-127039826D01*
X155228111Y-127019634D01*
X155206754Y-126997716D01*
X155183281Y-126973835D01*
X155157459Y-126947754D01*
X155129058Y-126919236D01*
X155097846Y-126888044D01*
X155063590Y-126853942D01*
X155026061Y-126816691D01*
X155000853Y-126791720D01*
X154799444Y-126592330D01*
X153326057Y-125044200D01*
X153248121Y-124962310D01*
X153168917Y-124879089D01*
X153088602Y-124794702D01*
X153007334Y-124709313D01*
X152925267Y-124623086D01*
X152842560Y-124536186D01*
X152759368Y-124448778D01*
X152675848Y-124361026D01*
X152592156Y-124273094D01*
X152508449Y-124185147D01*
X152424884Y-124097348D01*
X152341617Y-124009864D01*
X152258804Y-123922858D01*
X152176603Y-123836494D01*
X152095169Y-123750937D01*
X152014659Y-123666351D01*
X151935230Y-123582902D01*
X151857038Y-123500753D01*
X151780240Y-123420068D01*
X151704992Y-123341013D01*
X151631451Y-123263752D01*
X151559773Y-123188448D01*
X151490114Y-123115267D01*
X151422633Y-123044374D01*
X151357484Y-122975931D01*
X151294824Y-122910105D01*
X151234810Y-122847059D01*
X151177599Y-122786958D01*
X151123347Y-122729966D01*
X151072210Y-122676247D01*
X151024345Y-122625967D01*
X151003020Y-122603567D01*
X150948483Y-122546278D01*
X150894764Y-122489847D01*
X150841973Y-122434388D01*
X150790218Y-122380016D01*
X150739610Y-122326846D01*
X150690258Y-122274994D01*
X150642271Y-122224574D01*
X150595758Y-122175702D01*
X150550830Y-122128492D01*
X150507595Y-122083059D01*
X150466164Y-122039519D01*
X150426644Y-121997986D01*
X150389147Y-121958576D01*
X150353781Y-121921404D01*
X150320656Y-121886584D01*
X150289882Y-121854232D01*
X150261567Y-121824463D01*
X150235821Y-121797391D01*
X150212754Y-121773132D01*
X150192474Y-121751801D01*
X150175093Y-121733513D01*
X150160718Y-121718382D01*
X150149460Y-121706524D01*
X150141427Y-121698055D01*
X150136730Y-121693088D01*
X150135629Y-121691913D01*
X150122098Y-121677868D01*
X150108606Y-121664886D01*
X150095788Y-121653501D01*
X150084280Y-121644247D01*
X150074718Y-121637659D01*
X150067738Y-121634272D01*
X150066788Y-121634040D01*
X150053711Y-121633393D01*
X150041836Y-121636792D01*
X150030819Y-121644488D01*
X150020315Y-121656731D01*
X150009979Y-121673769D01*
X150008758Y-121676101D01*
X149999339Y-121695795D01*
X149988963Y-121720206D01*
X149977718Y-121749083D01*
X149965695Y-121782171D01*
X149952985Y-121819220D01*
X149939677Y-121859974D01*
X149925862Y-121904183D01*
X149917236Y-121932700D01*
X149909905Y-121957396D01*
X149903741Y-121978683D01*
X149898509Y-121997565D01*
X149893975Y-122015043D01*
X149889902Y-122032122D01*
X149886058Y-122049802D01*
X149882206Y-122069087D01*
X149878113Y-122090981D01*
X149873543Y-122116485D01*
X149871522Y-122127959D01*
X149843822Y-122295796D01*
X149820167Y-122460635D01*
X149800553Y-122622546D01*
X149784976Y-122781598D01*
X149773431Y-122937859D01*
X149765914Y-123091400D01*
X149762421Y-123242289D01*
X149762947Y-123390595D01*
X149767488Y-123536389D01*
X149775057Y-123666250D01*
X149788416Y-123817940D01*
X149806729Y-123968807D01*
X149829952Y-124118725D01*
X149858043Y-124267569D01*
X149890958Y-124415214D01*
X149928653Y-124561533D01*
X149971085Y-124706404D01*
X150018212Y-124849699D01*
X150069989Y-124991293D01*
X150126373Y-125131062D01*
X150187321Y-125268880D01*
X150252790Y-125404622D01*
X150322737Y-125538163D01*
X150397117Y-125669377D01*
X150475888Y-125798139D01*
X150552940Y-125915420D01*
X150638670Y-126037322D01*
X150727544Y-126155344D01*
X150819524Y-126269447D01*
X150914573Y-126379598D01*
X151012652Y-126485760D01*
X151113725Y-126587899D01*
X151217753Y-126685978D01*
X151324698Y-126779961D01*
X151434524Y-126869814D01*
X151547192Y-126955501D01*
X151662665Y-127036986D01*
X151780904Y-127114234D01*
X151901872Y-127187209D01*
X151902160Y-127187376D01*
X152012226Y-127248652D01*
X152125018Y-127306682D01*
X152239920Y-127361203D01*
X152356315Y-127411950D01*
X152473585Y-127458659D01*
X152591115Y-127501064D01*
X152708286Y-127538902D01*
X152753060Y-127552164D01*
X152849735Y-127578918D01*
X152944678Y-127602803D01*
X153038695Y-127623957D01*
X153132593Y-127642516D01*
X153227179Y-127658617D01*
X153323258Y-127672395D01*
X153421636Y-127683989D01*
X153523120Y-127693534D01*
X153628516Y-127701167D01*
X153634440Y-127701534D01*
X153650244Y-127702302D01*
X153670467Y-127702964D01*
X153694450Y-127703520D01*
X153721535Y-127703970D01*
X153751061Y-127704313D01*
X153782370Y-127704549D01*
X153814802Y-127704679D01*
X153847699Y-127704703D01*
X153880401Y-127704619D01*
X153912248Y-127704429D01*
X153942581Y-127704132D01*
X153970742Y-127703728D01*
X153996071Y-127703217D01*
X154017908Y-127702599D01*
X154035595Y-127701873D01*
X154040840Y-127701585D01*
X154139274Y-127694943D01*
X154234884Y-127686971D01*
X154328771Y-127677532D01*
X154422036Y-127666488D01*
X154515780Y-127653702D01*
X154611105Y-127639038D01*
X154709112Y-127622356D01*
X154779980Y-127609391D01*
X154813712Y-127602781D01*
X154846209Y-127595807D01*
X154877884Y-127588321D01*
X154909148Y-127580174D01*
X154940415Y-127571214D01*
X154972097Y-127561295D01*
X155004605Y-127550266D01*
X155038354Y-127537977D01*
X155073754Y-127524281D01*
X155111219Y-127509027D01*
X155151160Y-127492066D01*
X155193990Y-127473250D01*
X155240123Y-127452428D01*
X155289969Y-127429451D01*
X155333750Y-127408971D01*
X155354452Y-127399244D01*
X155374139Y-127390016D01*
X155392238Y-127381553D01*
X155408181Y-127374121D01*
X155421395Y-127367985D01*
X155431312Y-127363412D01*
X155437360Y-127360667D01*
X155438265Y-127360270D01*
X155450119Y-127355155D01*
X155491605Y-127374733D01*
X155610133Y-127427876D01*
X155731010Y-127476571D01*
X155854063Y-127520780D01*
X155979123Y-127560466D01*
X156106019Y-127595593D01*
X156234581Y-127626124D01*
X156364637Y-127652021D01*
X156496017Y-127673248D01*
X156628551Y-127689768D01*
X156762068Y-127701545D01*
X156896398Y-127708540D01*
X157031369Y-127710717D01*
X157044390Y-127710671D01*
X157066740Y-127710538D01*
X157088325Y-127710380D01*
X157108415Y-127710204D01*
X157126276Y-127710018D01*
X157141177Y-127709830D01*
X157152386Y-127709647D01*
X157158690Y-127709494D01*
X157299089Y-127702259D01*
X157438882Y-127690028D01*
X157577928Y-127672828D01*
X157716085Y-127650689D01*
X157853210Y-127623637D01*
X157989162Y-127591701D01*
X158123799Y-127554909D01*
X158256978Y-127513289D01*
X158388557Y-127466869D01*
X158389323Y-127466583D01*
X158516682Y-127416302D01*
X158642526Y-127361209D01*
X158766741Y-127301375D01*
X158889215Y-127236871D01*
X159009834Y-127167767D01*
X159128486Y-127094135D01*
X159245057Y-127016044D01*
X159359436Y-126933565D01*
X159471508Y-126846770D01*
X159581161Y-126755729D01*
X159688281Y-126660513D01*
X159712660Y-126637926D01*
X159728510Y-126622927D01*
X159747078Y-126605019D01*
X159767747Y-126584822D01*
X159789899Y-126562957D01*
X159812917Y-126540043D01*
X159836183Y-126516702D01*
X159859080Y-126493553D01*
X159880991Y-126471216D01*
X159901297Y-126450312D01*
X159919383Y-126431461D01*
X159934629Y-126415284D01*
X159939173Y-126410376D01*
X160038661Y-126298555D01*
X160134299Y-126183474D01*
X160225997Y-126065273D01*
X160313669Y-125944091D01*
X160397226Y-125820068D01*
X160476579Y-125693345D01*
X160551640Y-125564062D01*
X160622321Y-125432357D01*
X160688534Y-125298372D01*
X160750191Y-125162246D01*
X160797226Y-125049280D01*
X160850670Y-124908908D01*
X160899509Y-124766508D01*
X160943734Y-124622212D01*
X160983334Y-124476153D01*
X161018301Y-124328463D01*
X161048627Y-124179277D01*
X161074303Y-124028726D01*
X161095319Y-123876944D01*
X161111667Y-123724063D01*
X161123337Y-123570217D01*
X161130322Y-123415538D01*
X161132612Y-123260159D01*
X161130197Y-123104213D01*
X161123070Y-122947833D01*
X161111222Y-122791152D01*
X161094642Y-122634303D01*
X161073324Y-122477419D01*
X161047256Y-122320632D01*
X161016432Y-122164076D01*
X160996426Y-122073670D01*
X160989538Y-122044307D01*
X160982088Y-122013524D01*
X160974199Y-121981776D01*
X160965997Y-121949516D01*
X160957607Y-121917199D01*
X160949155Y-121885279D01*
X160940765Y-121854211D01*
X160932563Y-121824448D01*
X160924674Y-121796445D01*
X160917223Y-121770657D01*
X160910335Y-121747536D01*
X160904136Y-121727539D01*
X160898750Y-121711118D01*
X160894303Y-121698729D01*
X160890925Y-121690835D01*
X160880036Y-121674430D01*
X160866447Y-121662200D01*
X160850611Y-121654339D01*
X160832985Y-121651042D01*
X160814024Y-121652503D01*
X160805957Y-121654527D01*
X160791419Y-121660571D01*
X160775602Y-121670413D01*
X160758326Y-121684209D01*
X160739413Y-121702117D01*
X160718686Y-121724293D01*
X160695967Y-121750893D01*
X160694761Y-121752360D01*
X160690102Y-121757738D01*
X160682123Y-121766586D01*
X160671016Y-121778701D01*
X160656971Y-121793880D01*
X160640179Y-121811919D01*
X160620831Y-121832617D01*
X160599117Y-121855770D01*
X160575230Y-121881176D01*
X160549358Y-121908632D01*
X160521694Y-121937935D01*
X160492428Y-121968882D01*
X160461751Y-122001271D01*
X160429854Y-122034899D01*
X160396927Y-122069563D01*
X160363162Y-122105060D01*
X160335000Y-122134630D01*
X160314767Y-122155861D01*
X160291156Y-122180638D01*
X160264290Y-122208831D01*
X160234295Y-122240308D01*
X160201296Y-122274937D01*
X160165417Y-122312588D01*
X160126785Y-122353129D01*
X160085524Y-122396429D01*
X160041759Y-122442357D01*
X159995615Y-122490782D01*
X159947217Y-122541572D01*
X159896691Y-122594595D01*
X159844160Y-122649722D01*
X159789752Y-122706820D01*
X159733590Y-122765758D01*
X159675799Y-122826405D01*
X159616505Y-122888631D01*
X159555833Y-122952302D01*
X159493908Y-123017289D01*
X159430854Y-123083460D01*
X159366797Y-123150684D01*
X159301863Y-123218829D01*
X159236175Y-123287765D01*
X159169859Y-123357359D01*
X159103041Y-123427482D01*
X159035844Y-123498001D01*
X158968395Y-123568785D01*
X158900818Y-123639704D01*
X158833239Y-123710625D01*
X158794443Y-123751340D01*
X158674938Y-123876755D01*
X158558882Y-123998550D01*
X158446219Y-124116784D01*
X158336895Y-124231514D01*
X158230854Y-124342799D01*
X158128040Y-124450697D01*
X158028399Y-124555266D01*
X157931875Y-124656564D01*
X157838411Y-124754648D01*
X157747955Y-124849578D01*
X157660448Y-124941411D01*
X157575838Y-125030206D01*
X157494067Y-125116020D01*
X157415081Y-125198911D01*
X157338824Y-125278938D01*
X157265242Y-125356159D01*
X157194278Y-125430631D01*
X157125877Y-125502414D01*
X157059984Y-125571564D01*
X156996543Y-125638141D01*
X156935500Y-125702202D01*
X156876798Y-125763805D01*
X156820383Y-125823008D01*
X156766199Y-125879870D01*
X156714191Y-125934449D01*
X156664303Y-125986802D01*
X156616480Y-126036988D01*
X156570666Y-126085065D01*
X156526807Y-126131091D01*
X156484847Y-126175124D01*
X156444730Y-126217222D01*
X156406402Y-126257443D01*
X156369806Y-126295846D01*
X156334888Y-126332488D01*
X156301592Y-126367428D01*
X156269862Y-126400723D01*
X156239644Y-126432433D01*
X156210882Y-126462614D01*
X156183520Y-126491324D01*
X156157504Y-126518623D01*
X156132778Y-126544568D01*
X156109286Y-126569218D01*
X156086974Y-126592629D01*
X156065785Y-126614862D01*
X156045665Y-126635972D01*
X156026558Y-126656019D01*
X156008408Y-126675061D01*
X155991161Y-126693156D01*
X155974761Y-126710361D01*
X155959153Y-126726736D01*
X155944281Y-126742338D01*
X155930090Y-126757225D01*
X155916524Y-126771455D01*
X155903529Y-126785086D01*
X155891048Y-126798177D01*
X155879027Y-126810786D01*
X155867411Y-126822970D01*
X155856143Y-126834788D01*
X155845168Y-126846298D01*
X155834431Y-126857558D01*
X155831878Y-126860236D01*
X155795889Y-126898010D01*
X155763259Y-126932332D01*
X155733809Y-126963391D01*
X155707360Y-126991382D01*
X155683735Y-127016496D01*
X155662754Y-127038926D01*
X155644238Y-127058863D01*
X155628010Y-127076501D01*
X155613890Y-127092031D01*
X155601700Y-127105645D01*
X155591261Y-127117537D01*
X155582394Y-127127898D01*
X155575338Y-127136409D01*
X155564337Y-127149837D01*
X155554353Y-127161860D01*
X155545840Y-127171943D01*
X155539255Y-127179551D01*
X155535052Y-127184150D01*
X155533725Y-127185304D01*
X155533583Y-127182803D01*
X155533447Y-127175409D01*
X155533318Y-127163306D01*
X155533194Y-127146680D01*
X155533077Y-127125717D01*
X155532966Y-127100602D01*
X155532861Y-127071522D01*
X155532762Y-127038661D01*
X155532668Y-127002206D01*
X155532581Y-126962343D01*
X155532500Y-126919256D01*
X155532425Y-126873132D01*
X155532355Y-126824157D01*
X155532292Y-126772516D01*
X155532234Y-126718395D01*
X155532182Y-126661979D01*
X155532136Y-126603454D01*
X155532095Y-126543007D01*
X155532060Y-126480822D01*
X155532031Y-126417085D01*
X155532008Y-126351983D01*
X155531989Y-126285700D01*
X155531977Y-126218423D01*
X155531970Y-126150336D01*
X155531968Y-126081627D01*
X155531972Y-126012481D01*
X155531981Y-125943082D01*
X155531996Y-125873618D01*
X155532016Y-125804273D01*
X155532041Y-125735234D01*
X155532071Y-125666686D01*
X155532107Y-125598814D01*
X155532148Y-125531805D01*
X155532193Y-125465845D01*
X155532245Y-125401118D01*
X155532301Y-125337811D01*
X155532362Y-125276109D01*
X155532428Y-125216198D01*
X155532499Y-125158264D01*
X155532575Y-125102492D01*
X155532657Y-125049069D01*
X155532742Y-124998179D01*
X155532833Y-124950009D01*
X155532929Y-124904744D01*
X155533029Y-124862569D01*
X155533134Y-124823672D01*
X155533244Y-124788237D01*
X155533358Y-124756450D01*
X155533478Y-124728497D01*
X155533601Y-124704563D01*
X155533729Y-124684834D01*
X155533862Y-124669496D01*
X155534000Y-124658735D01*
X155534141Y-124652736D01*
X155534194Y-124651770D01*
X155534926Y-124640208D01*
X155535049Y-124631018D01*
X155534567Y-124625256D01*
X155534071Y-124623957D01*
X155533828Y-124621187D01*
X155533593Y-124613551D01*
X155533369Y-124601263D01*
X155533156Y-124584537D01*
X155532955Y-124563587D01*
X155532767Y-124538627D01*
X155532594Y-124509871D01*
X155532435Y-124477532D01*
X155532292Y-124441825D01*
X155532166Y-124402964D01*
X155532058Y-124361162D01*
X155531969Y-124316634D01*
X155531900Y-124269594D01*
X155531852Y-124220255D01*
X155531825Y-124168832D01*
X155531820Y-124134584D01*
X155531820Y-123647624D01*
X156884370Y-122720324D01*
X156976960Y-122249060D01*
X157069549Y-121777797D01*
X157077290Y-121776713D01*
X157112117Y-121771019D01*
X157142949Y-121764106D01*
X157170794Y-121755627D01*
X157196663Y-121745235D01*
X157221563Y-121732585D01*
X157242510Y-121719933D01*
X157276127Y-121695281D01*
X157306400Y-121666955D01*
X157333097Y-121635297D01*
X157355986Y-121600650D01*
X157374832Y-121563357D01*
X157389403Y-121523759D01*
X157397544Y-121492010D01*
X157400063Y-121476245D01*
X157401914Y-121457012D01*
X157403046Y-121435884D01*
X157403296Y-121420890D01*
X157204188Y-121420890D01*
X157201747Y-121448251D01*
X157194660Y-121474243D01*
X157183278Y-121498410D01*
X157167950Y-121520292D01*
X157149029Y-121539433D01*
X157126865Y-121555376D01*
X157101809Y-121567662D01*
X157087964Y-121572392D01*
X157073212Y-121575287D01*
X157055450Y-121576556D01*
X157036464Y-121576253D01*
X157018037Y-121574429D01*
X157001956Y-121571138D01*
X156997400Y-121569716D01*
X156972302Y-121558392D01*
X156949471Y-121542991D01*
X156929511Y-121524111D01*
X156913028Y-121502346D01*
X156900626Y-121478296D01*
X156898164Y-121471796D01*
X156891262Y-121446149D01*
X156889030Y-121421238D01*
X156891374Y-121396021D01*
X156891481Y-121395430D01*
X156898744Y-121368545D01*
X156909938Y-121344255D01*
X156924583Y-121322768D01*
X156942200Y-121304292D01*
X156962308Y-121289037D01*
X156984428Y-121277209D01*
X157008080Y-121269018D01*
X157032783Y-121264671D01*
X157058059Y-121264377D01*
X157083426Y-121268343D01*
X157108407Y-121276780D01*
X157132519Y-121289893D01*
X157133364Y-121290455D01*
X157155552Y-121308096D01*
X157173611Y-121328633D01*
X157187718Y-121352268D01*
X157187738Y-121352310D01*
X157196000Y-121371497D01*
X157201165Y-121389056D01*
X157203710Y-121406971D01*
X157204188Y-121420890D01*
X157403296Y-121420890D01*
X157403405Y-121414434D01*
X157402939Y-121394237D01*
X157401597Y-121376866D01*
X157401419Y-121375395D01*
X157393713Y-121333913D01*
X157381382Y-121294144D01*
X157364659Y-121256423D01*
X157343778Y-121221085D01*
X157318974Y-121188464D01*
X157290480Y-121158895D01*
X157258531Y-121132713D01*
X157223360Y-121110252D01*
X157211631Y-121103990D01*
X157179298Y-121089088D01*
X157147843Y-121078054D01*
X157115793Y-121070510D01*
X157081675Y-121066073D01*
X157059630Y-121064746D01*
X157020243Y-121065079D01*
X156983198Y-121069340D01*
X156947376Y-121077767D01*
X156911653Y-121090597D01*
X156889371Y-121100715D01*
X156851823Y-121121737D01*
X156817773Y-121146400D01*
X156787340Y-121174548D01*
X156760646Y-121206026D01*
X156737812Y-121240679D01*
X156718958Y-121278350D01*
X156704205Y-121318886D01*
X156696457Y-121348548D01*
X156694254Y-121361741D01*
X156692512Y-121378585D01*
X156691278Y-121397667D01*
X156690602Y-121417575D01*
X156690529Y-121436896D01*
X156691109Y-121454219D01*
X156692389Y-121468130D01*
X156692409Y-121468270D01*
X156700698Y-121509656D01*
X156713473Y-121549377D01*
X156730487Y-121587045D01*
X156751496Y-121622273D01*
X156776254Y-121654673D01*
X156804515Y-121683857D01*
X156836034Y-121709438D01*
X156851936Y-121720127D01*
X156862843Y-121727405D01*
X156869576Y-121732920D01*
X156872565Y-121737050D01*
X156872810Y-121738390D01*
X156872323Y-121741389D01*
X156870902Y-121749114D01*
X156868599Y-121761306D01*
X156865462Y-121777707D01*
X156861543Y-121798057D01*
X156856892Y-121822099D01*
X156851558Y-121849575D01*
X156845593Y-121880224D01*
X156839047Y-121913791D01*
X156831969Y-121950014D01*
X156824411Y-121988638D01*
X156816423Y-122029402D01*
X156808054Y-122072049D01*
X156799356Y-122116319D01*
X156790378Y-122161955D01*
X156788404Y-122171980D01*
X156704030Y-122600491D01*
X156120361Y-123000655D01*
X156071173Y-123034372D01*
X156023068Y-123067336D01*
X155976215Y-123099430D01*
X155930783Y-123130539D01*
X155886940Y-123160548D01*
X155844857Y-123189342D01*
X155804700Y-123216805D01*
X155766641Y-123242823D01*
X155730846Y-123267279D01*
X155697486Y-123290059D01*
X155666728Y-123311046D01*
X155638743Y-123330127D01*
X155613698Y-123347185D01*
X155591764Y-123362105D01*
X155573107Y-123374773D01*
X155557899Y-123385072D01*
X155546307Y-123392887D01*
X155538500Y-123398103D01*
X155534647Y-123400604D01*
X155534253Y-123400820D01*
X155534062Y-123398288D01*
X155533880Y-123390728D01*
X155533708Y-123378190D01*
X155533546Y-123360726D01*
X155533394Y-123338386D01*
X155533251Y-123311223D01*
X155533119Y-123279286D01*
X155532997Y-123242628D01*
X155532884Y-123201300D01*
X155532782Y-123155352D01*
X155532691Y-123104836D01*
X155532609Y-123049803D01*
X155532538Y-122990305D01*
X155532478Y-122926392D01*
X155532428Y-122858116D01*
X155532388Y-122785527D01*
X155532360Y-122708678D01*
X155532342Y-122627619D01*
X155532335Y-122542401D01*
X155532339Y-122453076D01*
X155532354Y-122359695D01*
X155532380Y-122262309D01*
X155532417Y-122160969D01*
X155532453Y-122079554D01*
X155533090Y-120758288D01*
X155556514Y-120750180D01*
X155597309Y-120733506D01*
X155635054Y-120712778D01*
X155669792Y-120687968D01*
X155692051Y-120668436D01*
X155721058Y-120637485D01*
X155745809Y-120604142D01*
X155766303Y-120568787D01*
X155782541Y-120531798D01*
X155794522Y-120493554D01*
X155802246Y-120454435D01*
X155805713Y-120414818D01*
X155805466Y-120402350D01*
X155605480Y-120402350D01*
X155604534Y-120422327D01*
X155601389Y-120440412D01*
X155595590Y-120458483D01*
X155587253Y-120477248D01*
X155580787Y-120489346D01*
X155573788Y-120499732D01*
X155564983Y-120510124D01*
X155556163Y-120519221D01*
X155533279Y-120538678D01*
X155508589Y-120553473D01*
X155482373Y-120563524D01*
X155454912Y-120568752D01*
X155426485Y-120569075D01*
X155398470Y-120564679D01*
X155375391Y-120556933D01*
X155352510Y-120545106D01*
X155331176Y-120530063D01*
X155312737Y-120512671D01*
X155306934Y-120505834D01*
X155291000Y-120481832D01*
X155279590Y-120456055D01*
X155272745Y-120429078D01*
X155270507Y-120401474D01*
X155272916Y-120373816D01*
X155280013Y-120346680D01*
X155291839Y-120320637D01*
X155293516Y-120317719D01*
X155299059Y-120309630D01*
X155307045Y-120299648D01*
X155316191Y-120289329D01*
X155321478Y-120283845D01*
X155343793Y-120264955D01*
X155368308Y-120250614D01*
X155394787Y-120240919D01*
X155422995Y-120235967D01*
X155439110Y-120235300D01*
X155467698Y-120237714D01*
X155494379Y-120244772D01*
X155519335Y-120256550D01*
X155542747Y-120273127D01*
X155556230Y-120285510D01*
X155575518Y-120308022D01*
X155589991Y-120332110D01*
X155599704Y-120357903D01*
X155604711Y-120385531D01*
X155605480Y-120402350D01*
X155805466Y-120402350D01*
X155804924Y-120375084D01*
X155799878Y-120335611D01*
X155790575Y-120296777D01*
X155777015Y-120258962D01*
X155759198Y-120222545D01*
X155737124Y-120187905D01*
X155710792Y-120155420D01*
X155692139Y-120136347D01*
X155659160Y-120108411D01*
X155623461Y-120084752D01*
X155585146Y-120065425D01*
X155544323Y-120050486D01*
X155513249Y-120042437D01*
X155496354Y-120039673D01*
X155475888Y-120037743D01*
X155453264Y-120036659D01*
X155429897Y-120036432D01*
X155407200Y-120037075D01*
X155407200Y-120037075D01*
G37*
X155407200Y-120037075D02*
X155386587Y-120038600D01*
X155369473Y-120041020D01*
X155368575Y-120041196D01*
X155326447Y-120052141D01*
X155286587Y-120067488D01*
X155249252Y-120086980D01*
X155214698Y-120110357D01*
X155183180Y-120137359D01*
X155154953Y-120167729D01*
X155130275Y-120201207D01*
X155109401Y-120237534D01*
X155092586Y-120276451D01*
X155080087Y-120317699D01*
X155075820Y-120337580D01*
X155073194Y-120356677D01*
X155071647Y-120379083D01*
X155071180Y-120403144D01*
X155071793Y-120427202D01*
X155073488Y-120449604D01*
X155075734Y-120465850D01*
X155085721Y-120508068D01*
X155100167Y-120548050D01*
X155118865Y-120585564D01*
X155141609Y-120620383D01*
X155168191Y-120652276D01*
X155198403Y-120681014D01*
X155232040Y-120706368D01*
X155268894Y-120728108D01*
X155308758Y-120746006D01*
X155337510Y-120755873D01*
X155352750Y-120760490D01*
X155353387Y-122616807D01*
X155353427Y-122741193D01*
X155353458Y-122861638D01*
X155353481Y-122978098D01*
X155353497Y-123090533D01*
X155353505Y-123198900D01*
X155353505Y-123303157D01*
X155353497Y-123403262D01*
X155353481Y-123499174D01*
X155353458Y-123590851D01*
X155353427Y-123678250D01*
X155353388Y-123761330D01*
X155353342Y-123840048D01*
X155353289Y-123914364D01*
X155353228Y-123984234D01*
X155353159Y-124049618D01*
X155353083Y-124110473D01*
X155353000Y-124166757D01*
X155352909Y-124218428D01*
X155352811Y-124265445D01*
X155352706Y-124307766D01*
X155352594Y-124345348D01*
X155352475Y-124378150D01*
X155352348Y-124406129D01*
X155352214Y-124429245D01*
X155352074Y-124447454D01*
X155351926Y-124460716D01*
X155351771Y-124468987D01*
X155351610Y-124472227D01*
X155351585Y-124472277D01*
X155349476Y-124470616D01*
X155343583Y-124465827D01*
X155334040Y-124458019D01*
X155320977Y-124447300D01*
X155304526Y-124433779D01*
X155284821Y-124417565D01*
X155261991Y-124398767D01*
X155236170Y-124377494D01*
X155207490Y-124353855D01*
X155176081Y-124327958D01*
X155142077Y-124299912D01*
X155105609Y-124269827D01*
X155066809Y-124237810D01*
X155025808Y-124203971D01*
X154982740Y-124168418D01*
X154937735Y-124131261D01*
X154890925Y-124092608D01*
X154842444Y-124052569D01*
X154792422Y-124011251D01*
X154740991Y-123968764D01*
X154688283Y-123925216D01*
X154634431Y-123880717D01*
X154579566Y-123835375D01*
X154570085Y-123827540D01*
X154515048Y-123782052D01*
X154460997Y-123737380D01*
X154408064Y-123693634D01*
X154356383Y-123650922D01*
X154306085Y-123609354D01*
X154257301Y-123569039D01*
X154210165Y-123530086D01*
X154164809Y-123492605D01*
X154121364Y-123456704D01*
X154079963Y-123422493D01*
X154040737Y-123390080D01*
X154003820Y-123359576D01*
X153969342Y-123331089D01*
X153937437Y-123304728D01*
X153908236Y-123280603D01*
X153881872Y-123258823D01*
X153858476Y-123239496D01*
X153838182Y-123222733D01*
X153821120Y-123208642D01*
X153807423Y-123197332D01*
X153797223Y-123188913D01*
X153790652Y-123183495D01*
X153787843Y-123181185D01*
X153787750Y-123181110D01*
X153786946Y-123178241D01*
X153785483Y-123170370D01*
X153783361Y-123157494D01*
X153780579Y-123139611D01*
X153777138Y-123116718D01*
X153773036Y-123088812D01*
X153768274Y-123055891D01*
X153762850Y-123017951D01*
X153756766Y-122974990D01*
X153750019Y-122927006D01*
X153742611Y-122873995D01*
X153734540Y-122815956D01*
X153725806Y-122752885D01*
X153718332Y-122698737D01*
X153711616Y-122649990D01*
X153705094Y-122602604D01*
X153698800Y-122556821D01*
X153692766Y-122512887D01*
X153687027Y-122471044D01*
X153681615Y-122431539D01*
X153676565Y-122394614D01*
X153671908Y-122360513D01*
X153667678Y-122329481D01*
X153663910Y-122301762D01*
X153660635Y-122277600D01*
X153657888Y-122257238D01*
X153655701Y-122240922D01*
X153654108Y-122228894D01*
X153653142Y-122221400D01*
X153652837Y-122218683D01*
X153652839Y-122218677D01*
X153655237Y-122217528D01*
X153661226Y-122214592D01*
X153669849Y-122210339D01*
X153678134Y-122206240D01*
X153713661Y-122185897D01*
X153746020Y-122161842D01*
X153775057Y-122134455D01*
X153800618Y-122104115D01*
X153822548Y-122071201D01*
X153840691Y-122036091D01*
X153854893Y-121999165D01*
X153864999Y-121960802D01*
X153870854Y-121921381D01*
X153872303Y-121881281D01*
X153872183Y-121879711D01*
X153671428Y-121879711D01*
X153671391Y-121900581D01*
X153669223Y-121920261D01*
X153665418Y-121935558D01*
X153654132Y-121960994D01*
X153638780Y-121984149D01*
X153619941Y-122004419D01*
X153598190Y-122021202D01*
X153574108Y-122033895D01*
X153569351Y-122035782D01*
X153542274Y-122043386D01*
X153514991Y-122045925D01*
X153487642Y-122043395D01*
X153470078Y-122039085D01*
X153444182Y-122028634D01*
X153420979Y-122014184D01*
X153400831Y-121996221D01*
X153384099Y-121975229D01*
X153371143Y-121951692D01*
X153362324Y-121926096D01*
X153358005Y-121898926D01*
X153357618Y-121888148D01*
X153359875Y-121860795D01*
X153366802Y-121835270D01*
X153378474Y-121811398D01*
X153394967Y-121789000D01*
X153404387Y-121778950D01*
X153426142Y-121760273D01*
X153449100Y-121746471D01*
X153473588Y-121737418D01*
X153499931Y-121732985D01*
X153522680Y-121732686D01*
X153550099Y-121736460D01*
X153576007Y-121744829D01*
X153599902Y-121757410D01*
X153621283Y-121773821D01*
X153639651Y-121793678D01*
X153654503Y-121816599D01*
X153665134Y-121841575D01*
X153669341Y-121859444D01*
X153671428Y-121879711D01*
X153872183Y-121879711D01*
X153869192Y-121840882D01*
X153861365Y-121800562D01*
X153854028Y-121775625D01*
X153838243Y-121736176D01*
X153818301Y-121699468D01*
X153794459Y-121665728D01*
X153766973Y-121635183D01*
X153736100Y-121608059D01*
X153702097Y-121584582D01*
X153665221Y-121564980D01*
X153625727Y-121549478D01*
X153585389Y-121538621D01*
X153564768Y-121535348D01*
X153540921Y-121533369D01*
X153515463Y-121532684D01*
X153490006Y-121533294D01*
X153466163Y-121535199D01*
X153445547Y-121538400D01*
X153444732Y-121538572D01*
X153402313Y-121550114D01*
X153362537Y-121565907D01*
X153325606Y-121585747D01*
X153291722Y-121609432D01*
X153261089Y-121636759D01*
X153233910Y-121667525D01*
X153210387Y-121701526D01*
X153190723Y-121738561D01*
X153175121Y-121778425D01*
X153164103Y-121819405D01*
X153161139Y-121837986D01*
X153159222Y-121859956D01*
X153158369Y-121883727D01*
X153158595Y-121907714D01*
X153159918Y-121930331D01*
X153162353Y-121949991D01*
X153162724Y-121952094D01*
X153172777Y-121993261D01*
X153187307Y-122032343D01*
X153206041Y-122069059D01*
X153228708Y-122103126D01*
X153255035Y-122134263D01*
X153284749Y-122162188D01*
X153317579Y-122186618D01*
X153353251Y-122207272D01*
X153391494Y-122223868D01*
X153432035Y-122236124D01*
X153438531Y-122237622D01*
X153449321Y-122239847D01*
X153458951Y-122241549D01*
X153465804Y-122242450D01*
X153467212Y-122242525D01*
X153471825Y-122243285D01*
X153474245Y-122246432D01*
X153475524Y-122252105D01*
X153476020Y-122255535D01*
X153477176Y-122263756D01*
X153478958Y-122276521D01*
X153481331Y-122293589D01*
X153484263Y-122314716D01*
X153487720Y-122339659D01*
X153491668Y-122368173D01*
X153496074Y-122400016D01*
X153500903Y-122434944D01*
X153506122Y-122472714D01*
X153511698Y-122513083D01*
X153517597Y-122555806D01*
X153523785Y-122600642D01*
X153530228Y-122647345D01*
X153536893Y-122695673D01*
X153543747Y-122745382D01*
X153546896Y-122768227D01*
X153553814Y-122818355D01*
X153560567Y-122867140D01*
X153567119Y-122914342D01*
X153573438Y-122959725D01*
X153579489Y-123003048D01*
X153585238Y-123044075D01*
X153590652Y-123082567D01*
X153595698Y-123118285D01*
X153600340Y-123150992D01*
X153604546Y-123180448D01*
X153608282Y-123206415D01*
X153611514Y-123228656D01*
X153614207Y-123246932D01*
X153616329Y-123261004D01*
X153617846Y-123270634D01*
X153618723Y-123275584D01*
X153618907Y-123276227D01*
X153620992Y-123277923D01*
X153626868Y-123282752D01*
X153636409Y-123290611D01*
X153649490Y-123301396D01*
X153665987Y-123315005D01*
X153685775Y-123331334D01*
X153708728Y-123350280D01*
X153734721Y-123371740D01*
X153763630Y-123395610D01*
X153795330Y-123421787D01*
X153829695Y-123450168D01*
X153866600Y-123480649D01*
X153905921Y-123513128D01*
X153947532Y-123547501D01*
X153991309Y-123583665D01*
X154037126Y-123621517D01*
X154084858Y-123660952D01*
X154134381Y-123701869D01*
X154185569Y-123744164D01*
X154238297Y-123787733D01*
X154292441Y-123832473D01*
X154347875Y-123878281D01*
X154404474Y-123925055D01*
X154462114Y-123972689D01*
X154487559Y-123993718D01*
X155354020Y-124709807D01*
X155354020Y-125931315D01*
X155354016Y-126015874D01*
X155354002Y-126098458D01*
X155353980Y-126178937D01*
X155353949Y-126257179D01*
X155353909Y-126333055D01*
X155353861Y-126406431D01*
X155353806Y-126477179D01*
X155353743Y-126545166D01*
X155353672Y-126610262D01*
X155353595Y-126672336D01*
X155353510Y-126731257D01*
X155353419Y-126786894D01*
X155353321Y-126839116D01*
X155353218Y-126887792D01*
X155353108Y-126932792D01*
X155352992Y-126973984D01*
X155352871Y-127011237D01*
X155352745Y-127044420D01*
X155352614Y-127073403D01*
X155352478Y-127098054D01*
X155352337Y-127118243D01*
X155352193Y-127133838D01*
X155352044Y-127144709D01*
X155351891Y-127150725D01*
X155351780Y-127151976D01*
X155349382Y-127149865D01*
X155344293Y-127144627D01*
X155337167Y-127136959D01*
X155328658Y-127127558D01*
X155324767Y-127123190D01*
X155311248Y-127108073D01*
X155297001Y-127092416D01*
X155281796Y-127075980D01*
X155265400Y-127058529D01*
X155247582Y-127039826D01*
X155228111Y-127019634D01*
X155206754Y-126997716D01*
X155183281Y-126973835D01*
X155157459Y-126947754D01*
X155129058Y-126919236D01*
X155097846Y-126888044D01*
X155063590Y-126853942D01*
X155026061Y-126816691D01*
X155000853Y-126791720D01*
X154799444Y-126592330D01*
X153326057Y-125044200D01*
X153248121Y-124962310D01*
X153168917Y-124879089D01*
X153088602Y-124794702D01*
X153007334Y-124709313D01*
X152925267Y-124623086D01*
X152842560Y-124536186D01*
X152759368Y-124448778D01*
X152675848Y-124361026D01*
X152592156Y-124273094D01*
X152508449Y-124185147D01*
X152424884Y-124097348D01*
X152341617Y-124009864D01*
X152258804Y-123922858D01*
X152176603Y-123836494D01*
X152095169Y-123750937D01*
X152014659Y-123666351D01*
X151935230Y-123582902D01*
X151857038Y-123500753D01*
X151780240Y-123420068D01*
X151704992Y-123341013D01*
X151631451Y-123263752D01*
X151559773Y-123188448D01*
X151490114Y-123115267D01*
X151422633Y-123044374D01*
X151357484Y-122975931D01*
X151294824Y-122910105D01*
X151234810Y-122847059D01*
X151177599Y-122786958D01*
X151123347Y-122729966D01*
X151072210Y-122676247D01*
X151024345Y-122625967D01*
X151003020Y-122603567D01*
X150948483Y-122546278D01*
X150894764Y-122489847D01*
X150841973Y-122434388D01*
X150790218Y-122380016D01*
X150739610Y-122326846D01*
X150690258Y-122274994D01*
X150642271Y-122224574D01*
X150595758Y-122175702D01*
X150550830Y-122128492D01*
X150507595Y-122083059D01*
X150466164Y-122039519D01*
X150426644Y-121997986D01*
X150389147Y-121958576D01*
X150353781Y-121921404D01*
X150320656Y-121886584D01*
X150289882Y-121854232D01*
X150261567Y-121824463D01*
X150235821Y-121797391D01*
X150212754Y-121773132D01*
X150192474Y-121751801D01*
X150175093Y-121733513D01*
X150160718Y-121718382D01*
X150149460Y-121706524D01*
X150141427Y-121698055D01*
X150136730Y-121693088D01*
X150135629Y-121691913D01*
X150122098Y-121677868D01*
X150108606Y-121664886D01*
X150095788Y-121653501D01*
X150084280Y-121644247D01*
X150074718Y-121637659D01*
X150067738Y-121634272D01*
X150066788Y-121634040D01*
X150053711Y-121633393D01*
X150041836Y-121636792D01*
X150030819Y-121644488D01*
X150020315Y-121656731D01*
X150009979Y-121673769D01*
X150008758Y-121676101D01*
X149999339Y-121695795D01*
X149988963Y-121720206D01*
X149977718Y-121749083D01*
X149965695Y-121782171D01*
X149952985Y-121819220D01*
X149939677Y-121859974D01*
X149925862Y-121904183D01*
X149917236Y-121932700D01*
X149909905Y-121957396D01*
X149903741Y-121978683D01*
X149898509Y-121997565D01*
X149893975Y-122015043D01*
X149889902Y-122032122D01*
X149886058Y-122049802D01*
X149882206Y-122069087D01*
X149878113Y-122090981D01*
X149873543Y-122116485D01*
X149871522Y-122127959D01*
X149843822Y-122295796D01*
X149820167Y-122460635D01*
X149800553Y-122622546D01*
X149784976Y-122781598D01*
X149773431Y-122937859D01*
X149765914Y-123091400D01*
X149762421Y-123242289D01*
X149762947Y-123390595D01*
X149767488Y-123536389D01*
X149775057Y-123666250D01*
X149788416Y-123817940D01*
X149806729Y-123968807D01*
X149829952Y-124118725D01*
X149858043Y-124267569D01*
X149890958Y-124415214D01*
X149928653Y-124561533D01*
X149971085Y-124706404D01*
X150018212Y-124849699D01*
X150069989Y-124991293D01*
X150126373Y-125131062D01*
X150187321Y-125268880D01*
X150252790Y-125404622D01*
X150322737Y-125538163D01*
X150397117Y-125669377D01*
X150475888Y-125798139D01*
X150552940Y-125915420D01*
X150638670Y-126037322D01*
X150727544Y-126155344D01*
X150819524Y-126269447D01*
X150914573Y-126379598D01*
X151012652Y-126485760D01*
X151113725Y-126587899D01*
X151217753Y-126685978D01*
X151324698Y-126779961D01*
X151434524Y-126869814D01*
X151547192Y-126955501D01*
X151662665Y-127036986D01*
X151780904Y-127114234D01*
X151901872Y-127187209D01*
X151902160Y-127187376D01*
X152012226Y-127248652D01*
X152125018Y-127306682D01*
X152239920Y-127361203D01*
X152356315Y-127411950D01*
X152473585Y-127458659D01*
X152591115Y-127501064D01*
X152708286Y-127538902D01*
X152753060Y-127552164D01*
X152849735Y-127578918D01*
X152944678Y-127602803D01*
X153038695Y-127623957D01*
X153132593Y-127642516D01*
X153227179Y-127658617D01*
X153323258Y-127672395D01*
X153421636Y-127683989D01*
X153523120Y-127693534D01*
X153628516Y-127701167D01*
X153634440Y-127701534D01*
X153650244Y-127702302D01*
X153670467Y-127702964D01*
X153694450Y-127703520D01*
X153721535Y-127703970D01*
X153751061Y-127704313D01*
X153782370Y-127704549D01*
X153814802Y-127704679D01*
X153847699Y-127704703D01*
X153880401Y-127704619D01*
X153912248Y-127704429D01*
X153942581Y-127704132D01*
X153970742Y-127703728D01*
X153996071Y-127703217D01*
X154017908Y-127702599D01*
X154035595Y-127701873D01*
X154040840Y-127701585D01*
X154139274Y-127694943D01*
X154234884Y-127686971D01*
X154328771Y-127677532D01*
X154422036Y-127666488D01*
X154515780Y-127653702D01*
X154611105Y-127639038D01*
X154709112Y-127622356D01*
X154779980Y-127609391D01*
X154813712Y-127602781D01*
X154846209Y-127595807D01*
X154877884Y-127588321D01*
X154909148Y-127580174D01*
X154940415Y-127571214D01*
X154972097Y-127561295D01*
X155004605Y-127550266D01*
X155038354Y-127537977D01*
X155073754Y-127524281D01*
X155111219Y-127509027D01*
X155151160Y-127492066D01*
X155193990Y-127473250D01*
X155240123Y-127452428D01*
X155289969Y-127429451D01*
X155333750Y-127408971D01*
X155354452Y-127399244D01*
X155374139Y-127390016D01*
X155392238Y-127381553D01*
X155408181Y-127374121D01*
X155421395Y-127367985D01*
X155431312Y-127363412D01*
X155437360Y-127360667D01*
X155438265Y-127360270D01*
X155450119Y-127355155D01*
X155491605Y-127374733D01*
X155610133Y-127427876D01*
X155731010Y-127476571D01*
X155854063Y-127520780D01*
X155979123Y-127560466D01*
X156106019Y-127595593D01*
X156234581Y-127626124D01*
X156364637Y-127652021D01*
X156496017Y-127673248D01*
X156628551Y-127689768D01*
X156762068Y-127701545D01*
X156896398Y-127708540D01*
X157031369Y-127710717D01*
X157044390Y-127710671D01*
X157066740Y-127710538D01*
X157088325Y-127710380D01*
X157108415Y-127710204D01*
X157126276Y-127710018D01*
X157141177Y-127709830D01*
X157152386Y-127709647D01*
X157158690Y-127709494D01*
X157299089Y-127702259D01*
X157438882Y-127690028D01*
X157577928Y-127672828D01*
X157716085Y-127650689D01*
X157853210Y-127623637D01*
X157989162Y-127591701D01*
X158123799Y-127554909D01*
X158256978Y-127513289D01*
X158388557Y-127466869D01*
X158389323Y-127466583D01*
X158516682Y-127416302D01*
X158642526Y-127361209D01*
X158766741Y-127301375D01*
X158889215Y-127236871D01*
X159009834Y-127167767D01*
X159128486Y-127094135D01*
X159245057Y-127016044D01*
X159359436Y-126933565D01*
X159471508Y-126846770D01*
X159581161Y-126755729D01*
X159688281Y-126660513D01*
X159712660Y-126637926D01*
X159728510Y-126622927D01*
X159747078Y-126605019D01*
X159767747Y-126584822D01*
X159789899Y-126562957D01*
X159812917Y-126540043D01*
X159836183Y-126516702D01*
X159859080Y-126493553D01*
X159880991Y-126471216D01*
X159901297Y-126450312D01*
X159919383Y-126431461D01*
X159934629Y-126415284D01*
X159939173Y-126410376D01*
X160038661Y-126298555D01*
X160134299Y-126183474D01*
X160225997Y-126065273D01*
X160313669Y-125944091D01*
X160397226Y-125820068D01*
X160476579Y-125693345D01*
X160551640Y-125564062D01*
X160622321Y-125432357D01*
X160688534Y-125298372D01*
X160750191Y-125162246D01*
X160797226Y-125049280D01*
X160850670Y-124908908D01*
X160899509Y-124766508D01*
X160943734Y-124622212D01*
X160983334Y-124476153D01*
X161018301Y-124328463D01*
X161048627Y-124179277D01*
X161074303Y-124028726D01*
X161095319Y-123876944D01*
X161111667Y-123724063D01*
X161123337Y-123570217D01*
X161130322Y-123415538D01*
X161132612Y-123260159D01*
X161130197Y-123104213D01*
X161123070Y-122947833D01*
X161111222Y-122791152D01*
X161094642Y-122634303D01*
X161073324Y-122477419D01*
X161047256Y-122320632D01*
X161016432Y-122164076D01*
X160996426Y-122073670D01*
X160989538Y-122044307D01*
X160982088Y-122013524D01*
X160974199Y-121981776D01*
X160965997Y-121949516D01*
X160957607Y-121917199D01*
X160949155Y-121885279D01*
X160940765Y-121854211D01*
X160932563Y-121824448D01*
X160924674Y-121796445D01*
X160917223Y-121770657D01*
X160910335Y-121747536D01*
X160904136Y-121727539D01*
X160898750Y-121711118D01*
X160894303Y-121698729D01*
X160890925Y-121690835D01*
X160880036Y-121674430D01*
X160866447Y-121662200D01*
X160850611Y-121654339D01*
X160832985Y-121651042D01*
X160814024Y-121652503D01*
X160805957Y-121654527D01*
X160791419Y-121660571D01*
X160775602Y-121670413D01*
X160758326Y-121684209D01*
X160739413Y-121702117D01*
X160718686Y-121724293D01*
X160695967Y-121750893D01*
X160694761Y-121752360D01*
X160690102Y-121757738D01*
X160682123Y-121766586D01*
X160671016Y-121778701D01*
X160656971Y-121793880D01*
X160640179Y-121811919D01*
X160620831Y-121832617D01*
X160599117Y-121855770D01*
X160575230Y-121881176D01*
X160549358Y-121908632D01*
X160521694Y-121937935D01*
X160492428Y-121968882D01*
X160461751Y-122001271D01*
X160429854Y-122034899D01*
X160396927Y-122069563D01*
X160363162Y-122105060D01*
X160335000Y-122134630D01*
X160314767Y-122155861D01*
X160291156Y-122180638D01*
X160264290Y-122208831D01*
X160234295Y-122240308D01*
X160201296Y-122274937D01*
X160165417Y-122312588D01*
X160126785Y-122353129D01*
X160085524Y-122396429D01*
X160041759Y-122442357D01*
X159995615Y-122490782D01*
X159947217Y-122541572D01*
X159896691Y-122594595D01*
X159844160Y-122649722D01*
X159789752Y-122706820D01*
X159733590Y-122765758D01*
X159675799Y-122826405D01*
X159616505Y-122888631D01*
X159555833Y-122952302D01*
X159493908Y-123017289D01*
X159430854Y-123083460D01*
X159366797Y-123150684D01*
X159301863Y-123218829D01*
X159236175Y-123287765D01*
X159169859Y-123357359D01*
X159103041Y-123427482D01*
X159035844Y-123498001D01*
X158968395Y-123568785D01*
X158900818Y-123639704D01*
X158833239Y-123710625D01*
X158794443Y-123751340D01*
X158674938Y-123876755D01*
X158558882Y-123998550D01*
X158446219Y-124116784D01*
X158336895Y-124231514D01*
X158230854Y-124342799D01*
X158128040Y-124450697D01*
X158028399Y-124555266D01*
X157931875Y-124656564D01*
X157838411Y-124754648D01*
X157747955Y-124849578D01*
X157660448Y-124941411D01*
X157575838Y-125030206D01*
X157494067Y-125116020D01*
X157415081Y-125198911D01*
X157338824Y-125278938D01*
X157265242Y-125356159D01*
X157194278Y-125430631D01*
X157125877Y-125502414D01*
X157059984Y-125571564D01*
X156996543Y-125638141D01*
X156935500Y-125702202D01*
X156876798Y-125763805D01*
X156820383Y-125823008D01*
X156766199Y-125879870D01*
X156714191Y-125934449D01*
X156664303Y-125986802D01*
X156616480Y-126036988D01*
X156570666Y-126085065D01*
X156526807Y-126131091D01*
X156484847Y-126175124D01*
X156444730Y-126217222D01*
X156406402Y-126257443D01*
X156369806Y-126295846D01*
X156334888Y-126332488D01*
X156301592Y-126367428D01*
X156269862Y-126400723D01*
X156239644Y-126432433D01*
X156210882Y-126462614D01*
X156183520Y-126491324D01*
X156157504Y-126518623D01*
X156132778Y-126544568D01*
X156109286Y-126569218D01*
X156086974Y-126592629D01*
X156065785Y-126614862D01*
X156045665Y-126635972D01*
X156026558Y-126656019D01*
X156008408Y-126675061D01*
X155991161Y-126693156D01*
X155974761Y-126710361D01*
X155959153Y-126726736D01*
X155944281Y-126742338D01*
X155930090Y-126757225D01*
X155916524Y-126771455D01*
X155903529Y-126785086D01*
X155891048Y-126798177D01*
X155879027Y-126810786D01*
X155867411Y-126822970D01*
X155856143Y-126834788D01*
X155845168Y-126846298D01*
X155834431Y-126857558D01*
X155831878Y-126860236D01*
X155795889Y-126898010D01*
X155763259Y-126932332D01*
X155733809Y-126963391D01*
X155707360Y-126991382D01*
X155683735Y-127016496D01*
X155662754Y-127038926D01*
X155644238Y-127058863D01*
X155628010Y-127076501D01*
X155613890Y-127092031D01*
X155601700Y-127105645D01*
X155591261Y-127117537D01*
X155582394Y-127127898D01*
X155575338Y-127136409D01*
X155564337Y-127149837D01*
X155554353Y-127161860D01*
X155545840Y-127171943D01*
X155539255Y-127179551D01*
X155535052Y-127184150D01*
X155533725Y-127185304D01*
X155533583Y-127182803D01*
X155533447Y-127175409D01*
X155533318Y-127163306D01*
X155533194Y-127146680D01*
X155533077Y-127125717D01*
X155532966Y-127100602D01*
X155532861Y-127071522D01*
X155532762Y-127038661D01*
X155532668Y-127002206D01*
X155532581Y-126962343D01*
X155532500Y-126919256D01*
X155532425Y-126873132D01*
X155532355Y-126824157D01*
X155532292Y-126772516D01*
X155532234Y-126718395D01*
X155532182Y-126661979D01*
X155532136Y-126603454D01*
X155532095Y-126543007D01*
X155532060Y-126480822D01*
X155532031Y-126417085D01*
X155532008Y-126351983D01*
X155531989Y-126285700D01*
X155531977Y-126218423D01*
X155531970Y-126150336D01*
X155531968Y-126081627D01*
X155531972Y-126012481D01*
X155531981Y-125943082D01*
X155531996Y-125873618D01*
X155532016Y-125804273D01*
X155532041Y-125735234D01*
X155532071Y-125666686D01*
X155532107Y-125598814D01*
X155532148Y-125531805D01*
X155532193Y-125465845D01*
X155532245Y-125401118D01*
X155532301Y-125337811D01*
X155532362Y-125276109D01*
X155532428Y-125216198D01*
X155532499Y-125158264D01*
X155532575Y-125102492D01*
X155532657Y-125049069D01*
X155532742Y-124998179D01*
X155532833Y-124950009D01*
X155532929Y-124904744D01*
X155533029Y-124862569D01*
X155533134Y-124823672D01*
X155533244Y-124788237D01*
X155533358Y-124756450D01*
X155533478Y-124728497D01*
X155533601Y-124704563D01*
X155533729Y-124684834D01*
X155533862Y-124669496D01*
X155534000Y-124658735D01*
X155534141Y-124652736D01*
X155534194Y-124651770D01*
X155534926Y-124640208D01*
X155535049Y-124631018D01*
X155534567Y-124625256D01*
X155534071Y-124623957D01*
X155533828Y-124621187D01*
X155533593Y-124613551D01*
X155533369Y-124601263D01*
X155533156Y-124584537D01*
X155532955Y-124563587D01*
X155532767Y-124538627D01*
X155532594Y-124509871D01*
X155532435Y-124477532D01*
X155532292Y-124441825D01*
X155532166Y-124402964D01*
X155532058Y-124361162D01*
X155531969Y-124316634D01*
X155531900Y-124269594D01*
X155531852Y-124220255D01*
X155531825Y-124168832D01*
X155531820Y-124134584D01*
X155531820Y-123647624D01*
X156884370Y-122720324D01*
X156976960Y-122249060D01*
X157069549Y-121777797D01*
X157077290Y-121776713D01*
X157112117Y-121771019D01*
X157142949Y-121764106D01*
X157170794Y-121755627D01*
X157196663Y-121745235D01*
X157221563Y-121732585D01*
X157242510Y-121719933D01*
X157276127Y-121695281D01*
X157306400Y-121666955D01*
X157333097Y-121635297D01*
X157355986Y-121600650D01*
X157374832Y-121563357D01*
X157389403Y-121523759D01*
X157397544Y-121492010D01*
X157400063Y-121476245D01*
X157401914Y-121457012D01*
X157403046Y-121435884D01*
X157403296Y-121420890D01*
X157204188Y-121420890D01*
X157201747Y-121448251D01*
X157194660Y-121474243D01*
X157183278Y-121498410D01*
X157167950Y-121520292D01*
X157149029Y-121539433D01*
X157126865Y-121555376D01*
X157101809Y-121567662D01*
X157087964Y-121572392D01*
X157073212Y-121575287D01*
X157055450Y-121576556D01*
X157036464Y-121576253D01*
X157018037Y-121574429D01*
X157001956Y-121571138D01*
X156997400Y-121569716D01*
X156972302Y-121558392D01*
X156949471Y-121542991D01*
X156929511Y-121524111D01*
X156913028Y-121502346D01*
X156900626Y-121478296D01*
X156898164Y-121471796D01*
X156891262Y-121446149D01*
X156889030Y-121421238D01*
X156891374Y-121396021D01*
X156891481Y-121395430D01*
X156898744Y-121368545D01*
X156909938Y-121344255D01*
X156924583Y-121322768D01*
X156942200Y-121304292D01*
X156962308Y-121289037D01*
X156984428Y-121277209D01*
X157008080Y-121269018D01*
X157032783Y-121264671D01*
X157058059Y-121264377D01*
X157083426Y-121268343D01*
X157108407Y-121276780D01*
X157132519Y-121289893D01*
X157133364Y-121290455D01*
X157155552Y-121308096D01*
X157173611Y-121328633D01*
X157187718Y-121352268D01*
X157187738Y-121352310D01*
X157196000Y-121371497D01*
X157201165Y-121389056D01*
X157203710Y-121406971D01*
X157204188Y-121420890D01*
X157403296Y-121420890D01*
X157403405Y-121414434D01*
X157402939Y-121394237D01*
X157401597Y-121376866D01*
X157401419Y-121375395D01*
X157393713Y-121333913D01*
X157381382Y-121294144D01*
X157364659Y-121256423D01*
X157343778Y-121221085D01*
X157318974Y-121188464D01*
X157290480Y-121158895D01*
X157258531Y-121132713D01*
X157223360Y-121110252D01*
X157211631Y-121103990D01*
X157179298Y-121089088D01*
X157147843Y-121078054D01*
X157115793Y-121070510D01*
X157081675Y-121066073D01*
X157059630Y-121064746D01*
X157020243Y-121065079D01*
X156983198Y-121069340D01*
X156947376Y-121077767D01*
X156911653Y-121090597D01*
X156889371Y-121100715D01*
X156851823Y-121121737D01*
X156817773Y-121146400D01*
X156787340Y-121174548D01*
X156760646Y-121206026D01*
X156737812Y-121240679D01*
X156718958Y-121278350D01*
X156704205Y-121318886D01*
X156696457Y-121348548D01*
X156694254Y-121361741D01*
X156692512Y-121378585D01*
X156691278Y-121397667D01*
X156690602Y-121417575D01*
X156690529Y-121436896D01*
X156691109Y-121454219D01*
X156692389Y-121468130D01*
X156692409Y-121468270D01*
X156700698Y-121509656D01*
X156713473Y-121549377D01*
X156730487Y-121587045D01*
X156751496Y-121622273D01*
X156776254Y-121654673D01*
X156804515Y-121683857D01*
X156836034Y-121709438D01*
X156851936Y-121720127D01*
X156862843Y-121727405D01*
X156869576Y-121732920D01*
X156872565Y-121737050D01*
X156872810Y-121738390D01*
X156872323Y-121741389D01*
X156870902Y-121749114D01*
X156868599Y-121761306D01*
X156865462Y-121777707D01*
X156861543Y-121798057D01*
X156856892Y-121822099D01*
X156851558Y-121849575D01*
X156845593Y-121880224D01*
X156839047Y-121913791D01*
X156831969Y-121950014D01*
X156824411Y-121988638D01*
X156816423Y-122029402D01*
X156808054Y-122072049D01*
X156799356Y-122116319D01*
X156790378Y-122161955D01*
X156788404Y-122171980D01*
X156704030Y-122600491D01*
X156120361Y-123000655D01*
X156071173Y-123034372D01*
X156023068Y-123067336D01*
X155976215Y-123099430D01*
X155930783Y-123130539D01*
X155886940Y-123160548D01*
X155844857Y-123189342D01*
X155804700Y-123216805D01*
X155766641Y-123242823D01*
X155730846Y-123267279D01*
X155697486Y-123290059D01*
X155666728Y-123311046D01*
X155638743Y-123330127D01*
X155613698Y-123347185D01*
X155591764Y-123362105D01*
X155573107Y-123374773D01*
X155557899Y-123385072D01*
X155546307Y-123392887D01*
X155538500Y-123398103D01*
X155534647Y-123400604D01*
X155534253Y-123400820D01*
X155534062Y-123398288D01*
X155533880Y-123390728D01*
X155533708Y-123378190D01*
X155533546Y-123360726D01*
X155533394Y-123338386D01*
X155533251Y-123311223D01*
X155533119Y-123279286D01*
X155532997Y-123242628D01*
X155532884Y-123201300D01*
X155532782Y-123155352D01*
X155532691Y-123104836D01*
X155532609Y-123049803D01*
X155532538Y-122990305D01*
X155532478Y-122926392D01*
X155532428Y-122858116D01*
X155532388Y-122785527D01*
X155532360Y-122708678D01*
X155532342Y-122627619D01*
X155532335Y-122542401D01*
X155532339Y-122453076D01*
X155532354Y-122359695D01*
X155532380Y-122262309D01*
X155532417Y-122160969D01*
X155532453Y-122079554D01*
X155533090Y-120758288D01*
X155556514Y-120750180D01*
X155597309Y-120733506D01*
X155635054Y-120712778D01*
X155669792Y-120687968D01*
X155692051Y-120668436D01*
X155721058Y-120637485D01*
X155745809Y-120604142D01*
X155766303Y-120568787D01*
X155782541Y-120531798D01*
X155794522Y-120493554D01*
X155802246Y-120454435D01*
X155805713Y-120414818D01*
X155805466Y-120402350D01*
X155605480Y-120402350D01*
X155604534Y-120422327D01*
X155601389Y-120440412D01*
X155595590Y-120458483D01*
X155587253Y-120477248D01*
X155580787Y-120489346D01*
X155573788Y-120499732D01*
X155564983Y-120510124D01*
X155556163Y-120519221D01*
X155533279Y-120538678D01*
X155508589Y-120553473D01*
X155482373Y-120563524D01*
X155454912Y-120568752D01*
X155426485Y-120569075D01*
X155398470Y-120564679D01*
X155375391Y-120556933D01*
X155352510Y-120545106D01*
X155331176Y-120530063D01*
X155312737Y-120512671D01*
X155306934Y-120505834D01*
X155291000Y-120481832D01*
X155279590Y-120456055D01*
X155272745Y-120429078D01*
X155270507Y-120401474D01*
X155272916Y-120373816D01*
X155280013Y-120346680D01*
X155291839Y-120320637D01*
X155293516Y-120317719D01*
X155299059Y-120309630D01*
X155307045Y-120299648D01*
X155316191Y-120289329D01*
X155321478Y-120283845D01*
X155343793Y-120264955D01*
X155368308Y-120250614D01*
X155394787Y-120240919D01*
X155422995Y-120235967D01*
X155439110Y-120235300D01*
X155467698Y-120237714D01*
X155494379Y-120244772D01*
X155519335Y-120256550D01*
X155542747Y-120273127D01*
X155556230Y-120285510D01*
X155575518Y-120308022D01*
X155589991Y-120332110D01*
X155599704Y-120357903D01*
X155604711Y-120385531D01*
X155605480Y-120402350D01*
X155805466Y-120402350D01*
X155804924Y-120375084D01*
X155799878Y-120335611D01*
X155790575Y-120296777D01*
X155777015Y-120258962D01*
X155759198Y-120222545D01*
X155737124Y-120187905D01*
X155710792Y-120155420D01*
X155692139Y-120136347D01*
X155659160Y-120108411D01*
X155623461Y-120084752D01*
X155585146Y-120065425D01*
X155544323Y-120050486D01*
X155513249Y-120042437D01*
X155496354Y-120039673D01*
X155475888Y-120037743D01*
X155453264Y-120036659D01*
X155429897Y-120036432D01*
X155407200Y-120037075D01*
G36*
X153923870Y-127985985D02*
X153902520Y-127986213D01*
X153885788Y-127986567D01*
X153873561Y-127987048D01*
X153865723Y-127987658D01*
X153863040Y-127988096D01*
X153848049Y-127993767D01*
X153835877Y-128002430D01*
X153827526Y-128013371D01*
X153827456Y-128013507D01*
X153826227Y-128016069D01*
X153825213Y-128018814D01*
X153824395Y-128022215D01*
X153823758Y-128026750D01*
X153823284Y-128032894D01*
X153822956Y-128041122D01*
X153822757Y-128051910D01*
X153822669Y-128065734D01*
X153822677Y-128083068D01*
X153822762Y-128104390D01*
X153822908Y-128130174D01*
X153822961Y-128138800D01*
X153823670Y-128253890D01*
X153830803Y-128263238D01*
X153837803Y-128270507D01*
X153846360Y-128276982D01*
X153848583Y-128278278D01*
X153850883Y-128279472D01*
X153853235Y-128280488D01*
X153856050Y-128281343D01*
X153859738Y-128282052D01*
X153864711Y-128282631D01*
X153871380Y-128283099D01*
X153880156Y-128283469D01*
X153891449Y-128283760D01*
X153905671Y-128283987D01*
X153923232Y-128284167D01*
X153944544Y-128284316D01*
X153970017Y-128284451D01*
X154000063Y-128284588D01*
X154007820Y-128284622D01*
X154156410Y-128285274D01*
X154169129Y-128279309D01*
X154180911Y-128272116D01*
X154190696Y-128262971D01*
X154197384Y-128253055D01*
X154199586Y-128246559D01*
X154199890Y-128242303D01*
X154200139Y-128233538D01*
X154200329Y-128220836D01*
X154200457Y-128204768D01*
X154200518Y-128185905D01*
X154200510Y-128164818D01*
X154200427Y-128142078D01*
X154200346Y-128128628D01*
X154199590Y-128019006D01*
X154191700Y-128009259D01*
X154184524Y-128002170D01*
X154175475Y-127995479D01*
X154171451Y-127993151D01*
X154159094Y-127986790D01*
X154016782Y-127986043D01*
X153980886Y-127985902D01*
X153949953Y-127985882D01*
X153923870Y-127985985D01*
X153923870Y-127985985D01*
G37*
X153923870Y-127985985D02*
X153902520Y-127986213D01*
X153885788Y-127986567D01*
X153873561Y-127987048D01*
X153865723Y-127987658D01*
X153863040Y-127988096D01*
X153848049Y-127993767D01*
X153835877Y-128002430D01*
X153827526Y-128013371D01*
X153827456Y-128013507D01*
X153826227Y-128016069D01*
X153825213Y-128018814D01*
X153824395Y-128022215D01*
X153823758Y-128026750D01*
X153823284Y-128032894D01*
X153822956Y-128041122D01*
X153822757Y-128051910D01*
X153822669Y-128065734D01*
X153822677Y-128083068D01*
X153822762Y-128104390D01*
X153822908Y-128130174D01*
X153822961Y-128138800D01*
X153823670Y-128253890D01*
X153830803Y-128263238D01*
X153837803Y-128270507D01*
X153846360Y-128276982D01*
X153848583Y-128278278D01*
X153850883Y-128279472D01*
X153853235Y-128280488D01*
X153856050Y-128281343D01*
X153859738Y-128282052D01*
X153864711Y-128282631D01*
X153871380Y-128283099D01*
X153880156Y-128283469D01*
X153891449Y-128283760D01*
X153905671Y-128283987D01*
X153923232Y-128284167D01*
X153944544Y-128284316D01*
X153970017Y-128284451D01*
X154000063Y-128284588D01*
X154007820Y-128284622D01*
X154156410Y-128285274D01*
X154169129Y-128279309D01*
X154180911Y-128272116D01*
X154190696Y-128262971D01*
X154197384Y-128253055D01*
X154199586Y-128246559D01*
X154199890Y-128242303D01*
X154200139Y-128233538D01*
X154200329Y-128220836D01*
X154200457Y-128204768D01*
X154200518Y-128185905D01*
X154200510Y-128164818D01*
X154200427Y-128142078D01*
X154200346Y-128128628D01*
X154199590Y-128019006D01*
X154191700Y-128009259D01*
X154184524Y-128002170D01*
X154175475Y-127995479D01*
X154171451Y-127993151D01*
X154159094Y-127986790D01*
X154016782Y-127986043D01*
X153980886Y-127985902D01*
X153949953Y-127985882D01*
X153923870Y-127985985D01*
G36*
X156569170Y-129272515D02*
X156560060Y-129278658D01*
X156551504Y-129286577D01*
X156544829Y-129294869D01*
X156541408Y-129301921D01*
X156541121Y-129305630D01*
X156540889Y-129313848D01*
X156540716Y-129326007D01*
X156540604Y-129341537D01*
X156540558Y-129359868D01*
X156540581Y-129380431D01*
X156540677Y-129402655D01*
X156540736Y-129411930D01*
X156541470Y-129516271D01*
X156548384Y-129525333D01*
X156554750Y-129531720D01*
X156563400Y-129538063D01*
X156568568Y-129541007D01*
X156581838Y-129547620D01*
X158058123Y-129547620D01*
X158071492Y-129540957D01*
X158084351Y-129532357D01*
X158091676Y-129524002D01*
X158098490Y-129513710D01*
X158099236Y-129413871D01*
X158099382Y-129383979D01*
X158099341Y-129358588D01*
X158099115Y-129337810D01*
X158098706Y-129321758D01*
X158098117Y-129310546D01*
X158097350Y-129304287D01*
X158097264Y-129303942D01*
X158091107Y-129290540D01*
X158080707Y-129279130D01*
X158070866Y-129272553D01*
X158060390Y-129266950D01*
X156579570Y-129266950D01*
X156569170Y-129272515D01*
X156569170Y-129272515D01*
G37*
X156569170Y-129272515D02*
X156560060Y-129278658D01*
X156551504Y-129286577D01*
X156544829Y-129294869D01*
X156541408Y-129301921D01*
X156541121Y-129305630D01*
X156540889Y-129313848D01*
X156540716Y-129326007D01*
X156540604Y-129341537D01*
X156540558Y-129359868D01*
X156540581Y-129380431D01*
X156540677Y-129402655D01*
X156540736Y-129411930D01*
X156541470Y-129516271D01*
X156548384Y-129525333D01*
X156554750Y-129531720D01*
X156563400Y-129538063D01*
X156568568Y-129541007D01*
X156581838Y-129547620D01*
X158058123Y-129547620D01*
X158071492Y-129540957D01*
X158084351Y-129532357D01*
X158091676Y-129524002D01*
X158098490Y-129513710D01*
X158099236Y-129413871D01*
X158099382Y-129383979D01*
X158099341Y-129358588D01*
X158099115Y-129337810D01*
X158098706Y-129321758D01*
X158098117Y-129310546D01*
X158097350Y-129304287D01*
X158097264Y-129303942D01*
X158091107Y-129290540D01*
X158080707Y-129279130D01*
X158070866Y-129272553D01*
X158060390Y-129266950D01*
X156579570Y-129266950D01*
X156569170Y-129272515D01*
G36*
X154741975Y-127985944D02*
X154721560Y-127986039D01*
X154690731Y-127986210D01*
X154664571Y-127986384D01*
X154642671Y-127986577D01*
X154624620Y-127986801D01*
X154610008Y-127987070D01*
X154598425Y-127987400D01*
X154589461Y-127987804D01*
X154582704Y-127988297D01*
X154577746Y-127988892D01*
X154574176Y-127989604D01*
X154571583Y-127990446D01*
X154569836Y-127991279D01*
X154558793Y-127999108D01*
X154548583Y-128009458D01*
X154541082Y-128020390D01*
X154540425Y-128021709D01*
X154540017Y-128022798D01*
X154539636Y-128024399D01*
X154539280Y-128026680D01*
X154538949Y-128029807D01*
X154538642Y-128033947D01*
X154538359Y-128039265D01*
X154538097Y-128045930D01*
X154537857Y-128054108D01*
X154537637Y-128063965D01*
X154537436Y-128075668D01*
X154537255Y-128089384D01*
X154537091Y-128105279D01*
X154536943Y-128123521D01*
X154536812Y-128144275D01*
X154536696Y-128167709D01*
X154536594Y-128193989D01*
X154536505Y-128223283D01*
X154536428Y-128255755D01*
X154536364Y-128291575D01*
X154536309Y-128330907D01*
X154536265Y-128373919D01*
X154536229Y-128420777D01*
X154536201Y-128471649D01*
X154536180Y-128526700D01*
X154536166Y-128586098D01*
X154536156Y-128650009D01*
X154536151Y-128718600D01*
X154536150Y-128792037D01*
X154536150Y-128822833D01*
X154536151Y-128898038D01*
X154536154Y-128968331D01*
X154536160Y-129033879D01*
X154536170Y-129094850D01*
X154536184Y-129151412D01*
X154536204Y-129203732D01*
X154536230Y-129251979D01*
X154536265Y-129296319D01*
X154536308Y-129336921D01*
X154536361Y-129373952D01*
X154536424Y-129407580D01*
X154536500Y-129437972D01*
X154536588Y-129465297D01*
X154536691Y-129489721D01*
X154536808Y-129511414D01*
X154536941Y-129530541D01*
X154537091Y-129547272D01*
X154537259Y-129561774D01*
X154537446Y-129574213D01*
X154537653Y-129584759D01*
X154537881Y-129593579D01*
X154538131Y-129600840D01*
X154538404Y-129606711D01*
X154538702Y-129611358D01*
X154539024Y-129614949D01*
X154539372Y-129617653D01*
X154539748Y-129619637D01*
X154540152Y-129621069D01*
X154540584Y-129622116D01*
X154541014Y-129622890D01*
X154546298Y-129629674D01*
X154553255Y-129636423D01*
X154554860Y-129637709D01*
X154558771Y-129640614D01*
X154562577Y-129643088D01*
X154566700Y-129645165D01*
X154571562Y-129646878D01*
X154577586Y-129648263D01*
X154585193Y-129649351D01*
X154594806Y-129650177D01*
X154606848Y-129650775D01*
X154621739Y-129651178D01*
X154639903Y-129651420D01*
X154661762Y-129651535D01*
X154687739Y-129651556D01*
X154718254Y-129651517D01*
X154727679Y-129651500D01*
X154754102Y-129651417D01*
X154779170Y-129651276D01*
X154802391Y-129651083D01*
X154823274Y-129650844D01*
X154841326Y-129650567D01*
X154856055Y-129650260D01*
X154866970Y-129649928D01*
X154873577Y-129649580D01*
X154875230Y-129649376D01*
X154884574Y-129646183D01*
X154894484Y-129641411D01*
X154902983Y-129636111D01*
X154907309Y-129632345D01*
X154911371Y-129626737D01*
X154915456Y-129619713D01*
X154915564Y-129619501D01*
X154915957Y-129618439D01*
X154916325Y-129616747D01*
X154916668Y-129614261D01*
X154916986Y-129610813D01*
X154917282Y-129606238D01*
X154917555Y-129600370D01*
X154917806Y-129593043D01*
X154918037Y-129584092D01*
X154918249Y-129573349D01*
X154918441Y-129560650D01*
X154918615Y-129545829D01*
X154918772Y-129528719D01*
X154918912Y-129509155D01*
X154919037Y-129486970D01*
X154919147Y-129461999D01*
X154919244Y-129434077D01*
X154919327Y-129403036D01*
X154919398Y-129368712D01*
X154919458Y-129330938D01*
X154919507Y-129289548D01*
X154919546Y-129244376D01*
X154919577Y-129195258D01*
X154919600Y-129142025D01*
X154919616Y-129084514D01*
X154919625Y-129022558D01*
X154919629Y-128955990D01*
X154919628Y-128884646D01*
X154919625Y-128821941D01*
X154919619Y-128746816D01*
X154919611Y-128676602D01*
X154919600Y-128611133D01*
X154919585Y-128550238D01*
X154919566Y-128493750D01*
X154919541Y-128441501D01*
X154919509Y-128393323D01*
X154919469Y-128349046D01*
X154919421Y-128308504D01*
X154919362Y-128271527D01*
X154919293Y-128237947D01*
X154919213Y-128207597D01*
X154919119Y-128180307D01*
X154919012Y-128155910D01*
X154918890Y-128134238D01*
X154918752Y-128115121D01*
X154918598Y-128098392D01*
X154918425Y-128083882D01*
X154918235Y-128071424D01*
X154918024Y-128060849D01*
X154917793Y-128051988D01*
X154917540Y-128044674D01*
X154917264Y-128038738D01*
X154916965Y-128034012D01*
X154916641Y-128030328D01*
X154916292Y-128027517D01*
X154915915Y-128025411D01*
X154915512Y-128023842D01*
X154915079Y-128022641D01*
X154914909Y-128022251D01*
X154908362Y-128012065D01*
X154898738Y-128002099D01*
X154887684Y-127993787D01*
X154876849Y-127988564D01*
X154875891Y-127988281D01*
X154871703Y-127987583D01*
X154864464Y-127987009D01*
X154853906Y-127986554D01*
X154839761Y-127986216D01*
X154821764Y-127985989D01*
X154799645Y-127985871D01*
X154773138Y-127985857D01*
X154741975Y-127985944D01*
X154741975Y-127985944D01*
G37*
X154741975Y-127985944D02*
X154721560Y-127986039D01*
X154690731Y-127986210D01*
X154664571Y-127986384D01*
X154642671Y-127986577D01*
X154624620Y-127986801D01*
X154610008Y-127987070D01*
X154598425Y-127987400D01*
X154589461Y-127987804D01*
X154582704Y-127988297D01*
X154577746Y-127988892D01*
X154574176Y-127989604D01*
X154571583Y-127990446D01*
X154569836Y-127991279D01*
X154558793Y-127999108D01*
X154548583Y-128009458D01*
X154541082Y-128020390D01*
X154540425Y-128021709D01*
X154540017Y-128022798D01*
X154539636Y-128024399D01*
X154539280Y-128026680D01*
X154538949Y-128029807D01*
X154538642Y-128033947D01*
X154538359Y-128039265D01*
X154538097Y-128045930D01*
X154537857Y-128054108D01*
X154537637Y-128063965D01*
X154537436Y-128075668D01*
X154537255Y-128089384D01*
X154537091Y-128105279D01*
X154536943Y-128123521D01*
X154536812Y-128144275D01*
X154536696Y-128167709D01*
X154536594Y-128193989D01*
X154536505Y-128223283D01*
X154536428Y-128255755D01*
X154536364Y-128291575D01*
X154536309Y-128330907D01*
X154536265Y-128373919D01*
X154536229Y-128420777D01*
X154536201Y-128471649D01*
X154536180Y-128526700D01*
X154536166Y-128586098D01*
X154536156Y-128650009D01*
X154536151Y-128718600D01*
X154536150Y-128792037D01*
X154536150Y-128822833D01*
X154536151Y-128898038D01*
X154536154Y-128968331D01*
X154536160Y-129033879D01*
X154536170Y-129094850D01*
X154536184Y-129151412D01*
X154536204Y-129203732D01*
X154536230Y-129251979D01*
X154536265Y-129296319D01*
X154536308Y-129336921D01*
X154536361Y-129373952D01*
X154536424Y-129407580D01*
X154536500Y-129437972D01*
X154536588Y-129465297D01*
X154536691Y-129489721D01*
X154536808Y-129511414D01*
X154536941Y-129530541D01*
X154537091Y-129547272D01*
X154537259Y-129561774D01*
X154537446Y-129574213D01*
X154537653Y-129584759D01*
X154537881Y-129593579D01*
X154538131Y-129600840D01*
X154538404Y-129606711D01*
X154538702Y-129611358D01*
X154539024Y-129614949D01*
X154539372Y-129617653D01*
X154539748Y-129619637D01*
X154540152Y-129621069D01*
X154540584Y-129622116D01*
X154541014Y-129622890D01*
X154546298Y-129629674D01*
X154553255Y-129636423D01*
X154554860Y-129637709D01*
X154558771Y-129640614D01*
X154562577Y-129643088D01*
X154566700Y-129645165D01*
X154571562Y-129646878D01*
X154577586Y-129648263D01*
X154585193Y-129649351D01*
X154594806Y-129650177D01*
X154606848Y-129650775D01*
X154621739Y-129651178D01*
X154639903Y-129651420D01*
X154661762Y-129651535D01*
X154687739Y-129651556D01*
X154718254Y-129651517D01*
X154727679Y-129651500D01*
X154754102Y-129651417D01*
X154779170Y-129651276D01*
X154802391Y-129651083D01*
X154823274Y-129650844D01*
X154841326Y-129650567D01*
X154856055Y-129650260D01*
X154866970Y-129649928D01*
X154873577Y-129649580D01*
X154875230Y-129649376D01*
X154884574Y-129646183D01*
X154894484Y-129641411D01*
X154902983Y-129636111D01*
X154907309Y-129632345D01*
X154911371Y-129626737D01*
X154915456Y-129619713D01*
X154915564Y-129619501D01*
X154915957Y-129618439D01*
X154916325Y-129616747D01*
X154916668Y-129614261D01*
X154916986Y-129610813D01*
X154917282Y-129606238D01*
X154917555Y-129600370D01*
X154917806Y-129593043D01*
X154918037Y-129584092D01*
X154918249Y-129573349D01*
X154918441Y-129560650D01*
X154918615Y-129545829D01*
X154918772Y-129528719D01*
X154918912Y-129509155D01*
X154919037Y-129486970D01*
X154919147Y-129461999D01*
X154919244Y-129434077D01*
X154919327Y-129403036D01*
X154919398Y-129368712D01*
X154919458Y-129330938D01*
X154919507Y-129289548D01*
X154919546Y-129244376D01*
X154919577Y-129195258D01*
X154919600Y-129142025D01*
X154919616Y-129084514D01*
X154919625Y-129022558D01*
X154919629Y-128955990D01*
X154919628Y-128884646D01*
X154919625Y-128821941D01*
X154919619Y-128746816D01*
X154919611Y-128676602D01*
X154919600Y-128611133D01*
X154919585Y-128550238D01*
X154919566Y-128493750D01*
X154919541Y-128441501D01*
X154919509Y-128393323D01*
X154919469Y-128349046D01*
X154919421Y-128308504D01*
X154919362Y-128271527D01*
X154919293Y-128237947D01*
X154919213Y-128207597D01*
X154919119Y-128180307D01*
X154919012Y-128155910D01*
X154918890Y-128134238D01*
X154918752Y-128115121D01*
X154918598Y-128098392D01*
X154918425Y-128083882D01*
X154918235Y-128071424D01*
X154918024Y-128060849D01*
X154917793Y-128051988D01*
X154917540Y-128044674D01*
X154917264Y-128038738D01*
X154916965Y-128034012D01*
X154916641Y-128030328D01*
X154916292Y-128027517D01*
X154915915Y-128025411D01*
X154915512Y-128023842D01*
X154915079Y-128022641D01*
X154914909Y-128022251D01*
X154908362Y-128012065D01*
X154898738Y-128002099D01*
X154887684Y-127993787D01*
X154876849Y-127988564D01*
X154875891Y-127988281D01*
X154871703Y-127987583D01*
X154864464Y-127987009D01*
X154853906Y-127986554D01*
X154839761Y-127986216D01*
X154821764Y-127985989D01*
X154799645Y-127985871D01*
X154773138Y-127985857D01*
X154741975Y-127985944D01*
G36*
X158625697Y-127985943D02*
X158605018Y-127986039D01*
X158461306Y-127986790D01*
X158449128Y-127994410D01*
X158440359Y-128001086D01*
X158432054Y-128009297D01*
X158429011Y-128013074D01*
X158421070Y-128024119D01*
X158420408Y-128818254D01*
X158420346Y-128898581D01*
X158420298Y-128973945D01*
X158420265Y-129044463D01*
X158420246Y-129110253D01*
X158420243Y-129171432D01*
X158420255Y-129228117D01*
X158420282Y-129280425D01*
X158420326Y-129328473D01*
X158420387Y-129372379D01*
X158420464Y-129412260D01*
X158420558Y-129448233D01*
X158420670Y-129480415D01*
X158420800Y-129508923D01*
X158420948Y-129533875D01*
X158421114Y-129555388D01*
X158421299Y-129573579D01*
X158421503Y-129588565D01*
X158421726Y-129600463D01*
X158421970Y-129609391D01*
X158422233Y-129615465D01*
X158422517Y-129618804D01*
X158422664Y-129619477D01*
X158426309Y-129625269D01*
X158432312Y-129632062D01*
X158435915Y-129635409D01*
X158439918Y-129638770D01*
X158443748Y-129641635D01*
X158447823Y-129644045D01*
X158452565Y-129646035D01*
X158458393Y-129647645D01*
X158465728Y-129648914D01*
X158474988Y-129649878D01*
X158486595Y-129650576D01*
X158500969Y-129651048D01*
X158518530Y-129651330D01*
X158539697Y-129651461D01*
X158564891Y-129651480D01*
X158594532Y-129651424D01*
X158611397Y-129651379D01*
X158637778Y-129651289D01*
X158662777Y-129651169D01*
X158685905Y-129651024D01*
X158706673Y-129650858D01*
X158724595Y-129650677D01*
X158739182Y-129650484D01*
X158749946Y-129650284D01*
X158756399Y-129650083D01*
X158757969Y-129649968D01*
X158768652Y-129646470D01*
X158779924Y-129639852D01*
X158789993Y-129631404D01*
X158797068Y-129622418D01*
X158797625Y-129621376D01*
X158803340Y-129610043D01*
X158803285Y-128821276D01*
X158803279Y-128746184D01*
X158803271Y-128676003D01*
X158803260Y-128610566D01*
X158803245Y-128549703D01*
X158803226Y-128493248D01*
X158803201Y-128441030D01*
X158803169Y-128392883D01*
X158803129Y-128348637D01*
X158803081Y-128308124D01*
X158803022Y-128271177D01*
X158802953Y-128237626D01*
X158802872Y-128207303D01*
X158802779Y-128180041D01*
X158802671Y-128155670D01*
X158802549Y-128134022D01*
X158802411Y-128114929D01*
X158802256Y-128098223D01*
X158802084Y-128083735D01*
X158801893Y-128071297D01*
X158801682Y-128060740D01*
X158801451Y-128051897D01*
X158801197Y-128044599D01*
X158800921Y-128038677D01*
X158800622Y-128033964D01*
X158800298Y-128030290D01*
X158799948Y-128027488D01*
X158799571Y-128025389D01*
X158799167Y-128023825D01*
X158798734Y-128022628D01*
X158798569Y-128022251D01*
X158792022Y-128012065D01*
X158782398Y-128002099D01*
X158771344Y-127993787D01*
X158760509Y-127988564D01*
X158759551Y-127988281D01*
X158755366Y-127987584D01*
X158748130Y-127987010D01*
X158737577Y-127986555D01*
X158723440Y-127986217D01*
X158705450Y-127985990D01*
X158683342Y-127985871D01*
X158656846Y-127985857D01*
X158625697Y-127985943D01*
X158625697Y-127985943D01*
G37*
X158625697Y-127985943D02*
X158605018Y-127986039D01*
X158461306Y-127986790D01*
X158449128Y-127994410D01*
X158440359Y-128001086D01*
X158432054Y-128009297D01*
X158429011Y-128013074D01*
X158421070Y-128024119D01*
X158420408Y-128818254D01*
X158420346Y-128898581D01*
X158420298Y-128973945D01*
X158420265Y-129044463D01*
X158420246Y-129110253D01*
X158420243Y-129171432D01*
X158420255Y-129228117D01*
X158420282Y-129280425D01*
X158420326Y-129328473D01*
X158420387Y-129372379D01*
X158420464Y-129412260D01*
X158420558Y-129448233D01*
X158420670Y-129480415D01*
X158420800Y-129508923D01*
X158420948Y-129533875D01*
X158421114Y-129555388D01*
X158421299Y-129573579D01*
X158421503Y-129588565D01*
X158421726Y-129600463D01*
X158421970Y-129609391D01*
X158422233Y-129615465D01*
X158422517Y-129618804D01*
X158422664Y-129619477D01*
X158426309Y-129625269D01*
X158432312Y-129632062D01*
X158435915Y-129635409D01*
X158439918Y-129638770D01*
X158443748Y-129641635D01*
X158447823Y-129644045D01*
X158452565Y-129646035D01*
X158458393Y-129647645D01*
X158465728Y-129648914D01*
X158474988Y-129649878D01*
X158486595Y-129650576D01*
X158500969Y-129651048D01*
X158518530Y-129651330D01*
X158539697Y-129651461D01*
X158564891Y-129651480D01*
X158594532Y-129651424D01*
X158611397Y-129651379D01*
X158637778Y-129651289D01*
X158662777Y-129651169D01*
X158685905Y-129651024D01*
X158706673Y-129650858D01*
X158724595Y-129650677D01*
X158739182Y-129650484D01*
X158749946Y-129650284D01*
X158756399Y-129650083D01*
X158757969Y-129649968D01*
X158768652Y-129646470D01*
X158779924Y-129639852D01*
X158789993Y-129631404D01*
X158797068Y-129622418D01*
X158797625Y-129621376D01*
X158803340Y-129610043D01*
X158803285Y-128821276D01*
X158803279Y-128746184D01*
X158803271Y-128676003D01*
X158803260Y-128610566D01*
X158803245Y-128549703D01*
X158803226Y-128493248D01*
X158803201Y-128441030D01*
X158803169Y-128392883D01*
X158803129Y-128348637D01*
X158803081Y-128308124D01*
X158803022Y-128271177D01*
X158802953Y-128237626D01*
X158802872Y-128207303D01*
X158802779Y-128180041D01*
X158802671Y-128155670D01*
X158802549Y-128134022D01*
X158802411Y-128114929D01*
X158802256Y-128098223D01*
X158802084Y-128083735D01*
X158801893Y-128071297D01*
X158801682Y-128060740D01*
X158801451Y-128051897D01*
X158801197Y-128044599D01*
X158800921Y-128038677D01*
X158800622Y-128033964D01*
X158800298Y-128030290D01*
X158799948Y-128027488D01*
X158799571Y-128025389D01*
X158799167Y-128023825D01*
X158798734Y-128022628D01*
X158798569Y-128022251D01*
X158792022Y-128012065D01*
X158782398Y-128002099D01*
X158771344Y-127993787D01*
X158760509Y-127988564D01*
X158759551Y-127988281D01*
X158755366Y-127987584D01*
X158748130Y-127987010D01*
X158737577Y-127986555D01*
X158723440Y-127986217D01*
X158705450Y-127985990D01*
X158683342Y-127985871D01*
X158656846Y-127985857D01*
X158625697Y-127985943D01*
G36*
X151015326Y-127985959D02*
X150998740Y-127986272D01*
X150985177Y-127986800D01*
X150974227Y-127987581D01*
X150965477Y-127988655D01*
X150958517Y-127990060D01*
X150952935Y-127991835D01*
X150948320Y-127994019D01*
X150944261Y-127996651D01*
X150940346Y-127999769D01*
X150936164Y-128003413D01*
X150936104Y-128003466D01*
X150924260Y-128013891D01*
X150924260Y-128717040D01*
X150679005Y-128717040D01*
X150632547Y-128717063D01*
X150591054Y-128717135D01*
X150554409Y-128717257D01*
X150522498Y-128717429D01*
X150495205Y-128717654D01*
X150472416Y-128717932D01*
X150454014Y-128718264D01*
X150439884Y-128718652D01*
X150429910Y-128719098D01*
X150423979Y-128719602D01*
X150422614Y-128719844D01*
X150411924Y-128724298D01*
X150401239Y-128731645D01*
X150392231Y-128740520D01*
X150386720Y-128749189D01*
X150385532Y-128754686D01*
X150384570Y-128764370D01*
X150383833Y-128777367D01*
X150383320Y-128792799D01*
X150383032Y-128809793D01*
X150382969Y-128827472D01*
X150383131Y-128844961D01*
X150383517Y-128861384D01*
X150384127Y-128875867D01*
X150384962Y-128887533D01*
X150386021Y-128895508D01*
X150386738Y-128898096D01*
X150393946Y-128909197D01*
X150404972Y-128918899D01*
X150414990Y-128924550D01*
X150416894Y-128925306D01*
X150419256Y-128925976D01*
X150422383Y-128926567D01*
X150426579Y-128927084D01*
X150432153Y-128927534D01*
X150439409Y-128927923D01*
X150448654Y-128928258D01*
X150460194Y-128928543D01*
X150474336Y-128928787D01*
X150491385Y-128928994D01*
X150511648Y-128929171D01*
X150535431Y-128929324D01*
X150563039Y-128929460D01*
X150594781Y-128929585D01*
X150630960Y-128929704D01*
X150671884Y-128929824D01*
X150676044Y-128929836D01*
X150926937Y-128930542D01*
X150926129Y-129373066D01*
X150926019Y-129430221D01*
X150925905Y-129482504D01*
X150925786Y-129530124D01*
X150925659Y-129573287D01*
X150925523Y-129612202D01*
X150925376Y-129647077D01*
X150925215Y-129678119D01*
X150925040Y-129705538D01*
X150924847Y-129729540D01*
X150924634Y-129750334D01*
X150924401Y-129768127D01*
X150924144Y-129783128D01*
X150923863Y-129795545D01*
X150923555Y-129805586D01*
X150923217Y-129813458D01*
X150922849Y-129819369D01*
X150922448Y-129823528D01*
X150922012Y-129826142D01*
X150921865Y-129826685D01*
X150915405Y-129839617D01*
X150905409Y-129849863D01*
X150892939Y-129856395D01*
X150890406Y-129857125D01*
X150886371Y-129857691D01*
X150878918Y-129858191D01*
X150867868Y-129858626D01*
X150853046Y-129859000D01*
X150834275Y-129859313D01*
X150811378Y-129859569D01*
X150784179Y-129859770D01*
X150752500Y-129859917D01*
X150716166Y-129860014D01*
X150675000Y-129860061D01*
X150657071Y-129860067D01*
X150623728Y-129860089D01*
X150591689Y-129860145D01*
X150561338Y-129860232D01*
X150533061Y-129860347D01*
X150507244Y-129860489D01*
X150484271Y-129860653D01*
X150464527Y-129860837D01*
X150448398Y-129861039D01*
X150436269Y-129861256D01*
X150428525Y-129861486D01*
X150425739Y-129861677D01*
X150412940Y-129865647D01*
X150400521Y-129872695D01*
X150390111Y-129881705D01*
X150383875Y-129890423D01*
X150382117Y-129894123D01*
X150380762Y-129897845D01*
X150379757Y-129902279D01*
X150379051Y-129908118D01*
X150378590Y-129916054D01*
X150378323Y-129926778D01*
X150378198Y-129940982D01*
X150378162Y-129959358D01*
X150378160Y-129966069D01*
X150378233Y-129987698D01*
X150378468Y-130004786D01*
X150378891Y-130017871D01*
X150379527Y-130027489D01*
X150380404Y-130034178D01*
X150381546Y-130038476D01*
X150381653Y-130038741D01*
X150388412Y-130050220D01*
X150398289Y-130061300D01*
X150409543Y-130070103D01*
X150412210Y-130071644D01*
X150422610Y-130077210D01*
X150676610Y-130077472D01*
X150713115Y-130077490D01*
X150748880Y-130077471D01*
X150783490Y-130077416D01*
X150816527Y-130077329D01*
X150847574Y-130077210D01*
X150876215Y-130077063D01*
X150902031Y-130076889D01*
X150924607Y-130076691D01*
X150943524Y-130076472D01*
X150958366Y-130076233D01*
X150968716Y-130075977D01*
X150971558Y-130075868D01*
X151021630Y-130072739D01*
X151066962Y-130068112D01*
X151107681Y-130061948D01*
X151143913Y-130054209D01*
X151175783Y-130044857D01*
X151203418Y-130033854D01*
X151226944Y-130021161D01*
X151246486Y-130006741D01*
X151262171Y-129990556D01*
X151264884Y-129987066D01*
X151276390Y-129969797D01*
X151285344Y-129951794D01*
X151292099Y-129932015D01*
X151297004Y-129909420D01*
X151300412Y-129882968D01*
X151300562Y-129881391D01*
X151300981Y-129874433D01*
X151301379Y-129862723D01*
X151301757Y-129846235D01*
X151302114Y-129824941D01*
X151302451Y-129798816D01*
X151302768Y-129767832D01*
X151303065Y-129731962D01*
X151303342Y-129691181D01*
X151303601Y-129645462D01*
X151303839Y-129594777D01*
X151304059Y-129539101D01*
X151304261Y-129478406D01*
X151304443Y-129412667D01*
X151304497Y-129390819D01*
X151305602Y-128930488D01*
X151439416Y-128929162D01*
X151467028Y-128928916D01*
X151499117Y-128928679D01*
X151535354Y-128928450D01*
X151575412Y-128928230D01*
X151618959Y-128928021D01*
X151665668Y-128927821D01*
X151715209Y-128927632D01*
X151767252Y-128927455D01*
X151821469Y-128927288D01*
X151877531Y-128927134D01*
X151935109Y-128926992D01*
X151993873Y-128926863D01*
X152053493Y-128926747D01*
X152113642Y-128926645D01*
X152173990Y-128926557D01*
X152234208Y-128926484D01*
X152293966Y-128926426D01*
X152352935Y-128926383D01*
X152410787Y-128926356D01*
X152467192Y-128926345D01*
X152521821Y-128926351D01*
X152574345Y-128926375D01*
X152624434Y-128926416D01*
X152671760Y-128926475D01*
X152715994Y-128926553D01*
X152756806Y-128926650D01*
X152793867Y-128926766D01*
X152826848Y-128926902D01*
X152855419Y-128927058D01*
X152879253Y-128927235D01*
X152880060Y-128927242D01*
X152917799Y-128927580D01*
X152950794Y-128927886D01*
X152979383Y-128928171D01*
X153003902Y-128928446D01*
X153024687Y-128928721D01*
X153042075Y-128929008D01*
X153056404Y-128929317D01*
X153068008Y-128929660D01*
X153077225Y-128930047D01*
X153084392Y-128930489D01*
X153089845Y-128930998D01*
X153093921Y-128931584D01*
X153096956Y-128932257D01*
X153099286Y-128933030D01*
X153101250Y-128933913D01*
X153102310Y-128934457D01*
X153112796Y-128942503D01*
X153120599Y-128954417D01*
X153124670Y-128965418D01*
X153125116Y-128969221D01*
X153125541Y-128977515D01*
X153125945Y-128990352D01*
X153126330Y-129007785D01*
X153126696Y-129029866D01*
X153127043Y-129056647D01*
X153127372Y-129088182D01*
X153127684Y-129124522D01*
X153127979Y-129165720D01*
X153128258Y-129211828D01*
X153128522Y-129262898D01*
X153128770Y-129318984D01*
X153128827Y-129332990D01*
X153130250Y-129691130D01*
X153136027Y-129699228D01*
X153141501Y-129704770D01*
X153149649Y-129710682D01*
X153156347Y-129714468D01*
X153170890Y-129721610D01*
X153465530Y-129721610D01*
X153478230Y-129715080D01*
X153489566Y-129707361D01*
X153498550Y-129697717D01*
X153506170Y-129686883D01*
X153506922Y-129374046D01*
X153507033Y-129322330D01*
X153507100Y-129275415D01*
X153507119Y-129233022D01*
X153507084Y-129194872D01*
X153506988Y-129160686D01*
X153506827Y-129130185D01*
X153506595Y-129103090D01*
X153506287Y-129079122D01*
X153505895Y-129058002D01*
X153505416Y-129039451D01*
X153504844Y-129023190D01*
X153504172Y-129008940D01*
X153503396Y-128996423D01*
X153502509Y-128985359D01*
X153501507Y-128975469D01*
X153500383Y-128966474D01*
X153499131Y-128958096D01*
X153498495Y-128954274D01*
X153490156Y-128916380D01*
X153478815Y-128882506D01*
X153464403Y-128852526D01*
X153446853Y-128826312D01*
X153426097Y-128803738D01*
X153410607Y-128790770D01*
X153389188Y-128776135D01*
X153366184Y-128763474D01*
X153341032Y-128752601D01*
X153313170Y-128743333D01*
X153282036Y-128735483D01*
X153247068Y-128728868D01*
X153207705Y-128723303D01*
X153203910Y-128722846D01*
X153200083Y-128722414D01*
X153195979Y-128722010D01*
X153191426Y-128721634D01*
X153186248Y-128721284D01*
X153180273Y-128720960D01*
X153173327Y-128720659D01*
X153165237Y-128720382D01*
X153155829Y-128720128D01*
X153144930Y-128719895D01*
X153132365Y-128719683D01*
X153117962Y-128719491D01*
X153101546Y-128719317D01*
X153082945Y-128719161D01*
X153061984Y-128719022D01*
X153038491Y-128718899D01*
X153012291Y-128718790D01*
X152983210Y-128718696D01*
X152951077Y-128718615D01*
X152915716Y-128718545D01*
X152876954Y-128718487D01*
X152834618Y-128718439D01*
X152788534Y-128718401D01*
X152738529Y-128718370D01*
X152684429Y-128718347D01*
X152626060Y-128718331D01*
X152563249Y-128718320D01*
X152495822Y-128718313D01*
X152423607Y-128718310D01*
X152372060Y-128718310D01*
X152307214Y-128718307D01*
X152242872Y-128718301D01*
X152179274Y-128718291D01*
X152116657Y-128718277D01*
X152055262Y-128718260D01*
X151995328Y-128718239D01*
X151937093Y-128718215D01*
X151880796Y-128718188D01*
X151826677Y-128718158D01*
X151774974Y-128718125D01*
X151725927Y-128718090D01*
X151679774Y-128718052D01*
X151636755Y-128718012D01*
X151597109Y-128717970D01*
X151561074Y-128717926D01*
X151528890Y-128717880D01*
X151500795Y-128717833D01*
X151477029Y-128717784D01*
X151457831Y-128717733D01*
X151443439Y-128717682D01*
X151441785Y-128717675D01*
X151305260Y-128717040D01*
X151305260Y-128372788D01*
X151305256Y-128323534D01*
X151305240Y-128279107D01*
X151305209Y-128239256D01*
X151305162Y-128203726D01*
X151305094Y-128172266D01*
X151305004Y-128144623D01*
X151304889Y-128120545D01*
X151304745Y-128099779D01*
X151304571Y-128082072D01*
X151304362Y-128067172D01*
X151304117Y-128054826D01*
X151303832Y-128044781D01*
X151303505Y-128036786D01*
X151303133Y-128030587D01*
X151302712Y-128025932D01*
X151302242Y-128022568D01*
X151301717Y-128020243D01*
X151301329Y-128019128D01*
X151293997Y-128006528D01*
X151283286Y-127996665D01*
X151276050Y-127992257D01*
X151273797Y-127991099D01*
X151271408Y-127990114D01*
X151268471Y-127989287D01*
X151264569Y-127988601D01*
X151259288Y-127988040D01*
X151252214Y-127987587D01*
X151242932Y-127987225D01*
X151231027Y-127986939D01*
X151216085Y-127986712D01*
X151197690Y-127986527D01*
X151175429Y-127986368D01*
X151148887Y-127986219D01*
X151120131Y-127986074D01*
X151087338Y-127985918D01*
X151059214Y-127985821D01*
X151035347Y-127985821D01*
X151015326Y-127985959D01*
X151015326Y-127985959D01*
G37*
X151015326Y-127985959D02*
X150998740Y-127986272D01*
X150985177Y-127986800D01*
X150974227Y-127987581D01*
X150965477Y-127988655D01*
X150958517Y-127990060D01*
X150952935Y-127991835D01*
X150948320Y-127994019D01*
X150944261Y-127996651D01*
X150940346Y-127999769D01*
X150936164Y-128003413D01*
X150936104Y-128003466D01*
X150924260Y-128013891D01*
X150924260Y-128717040D01*
X150679005Y-128717040D01*
X150632547Y-128717063D01*
X150591054Y-128717135D01*
X150554409Y-128717257D01*
X150522498Y-128717429D01*
X150495205Y-128717654D01*
X150472416Y-128717932D01*
X150454014Y-128718264D01*
X150439884Y-128718652D01*
X150429910Y-128719098D01*
X150423979Y-128719602D01*
X150422614Y-128719844D01*
X150411924Y-128724298D01*
X150401239Y-128731645D01*
X150392231Y-128740520D01*
X150386720Y-128749189D01*
X150385532Y-128754686D01*
X150384570Y-128764370D01*
X150383833Y-128777367D01*
X150383320Y-128792799D01*
X150383032Y-128809793D01*
X150382969Y-128827472D01*
X150383131Y-128844961D01*
X150383517Y-128861384D01*
X150384127Y-128875867D01*
X150384962Y-128887533D01*
X150386021Y-128895508D01*
X150386738Y-128898096D01*
X150393946Y-128909197D01*
X150404972Y-128918899D01*
X150414990Y-128924550D01*
X150416894Y-128925306D01*
X150419256Y-128925976D01*
X150422383Y-128926567D01*
X150426579Y-128927084D01*
X150432153Y-128927534D01*
X150439409Y-128927923D01*
X150448654Y-128928258D01*
X150460194Y-128928543D01*
X150474336Y-128928787D01*
X150491385Y-128928994D01*
X150511648Y-128929171D01*
X150535431Y-128929324D01*
X150563039Y-128929460D01*
X150594781Y-128929585D01*
X150630960Y-128929704D01*
X150671884Y-128929824D01*
X150676044Y-128929836D01*
X150926937Y-128930542D01*
X150926129Y-129373066D01*
X150926019Y-129430221D01*
X150925905Y-129482504D01*
X150925786Y-129530124D01*
X150925659Y-129573287D01*
X150925523Y-129612202D01*
X150925376Y-129647077D01*
X150925215Y-129678119D01*
X150925040Y-129705538D01*
X150924847Y-129729540D01*
X150924634Y-129750334D01*
X150924401Y-129768127D01*
X150924144Y-129783128D01*
X150923863Y-129795545D01*
X150923555Y-129805586D01*
X150923217Y-129813458D01*
X150922849Y-129819369D01*
X150922448Y-129823528D01*
X150922012Y-129826142D01*
X150921865Y-129826685D01*
X150915405Y-129839617D01*
X150905409Y-129849863D01*
X150892939Y-129856395D01*
X150890406Y-129857125D01*
X150886371Y-129857691D01*
X150878918Y-129858191D01*
X150867868Y-129858626D01*
X150853046Y-129859000D01*
X150834275Y-129859313D01*
X150811378Y-129859569D01*
X150784179Y-129859770D01*
X150752500Y-129859917D01*
X150716166Y-129860014D01*
X150675000Y-129860061D01*
X150657071Y-129860067D01*
X150623728Y-129860089D01*
X150591689Y-129860145D01*
X150561338Y-129860232D01*
X150533061Y-129860347D01*
X150507244Y-129860489D01*
X150484271Y-129860653D01*
X150464527Y-129860837D01*
X150448398Y-129861039D01*
X150436269Y-129861256D01*
X150428525Y-129861486D01*
X150425739Y-129861677D01*
X150412940Y-129865647D01*
X150400521Y-129872695D01*
X150390111Y-129881705D01*
X150383875Y-129890423D01*
X150382117Y-129894123D01*
X150380762Y-129897845D01*
X150379757Y-129902279D01*
X150379051Y-129908118D01*
X150378590Y-129916054D01*
X150378323Y-129926778D01*
X150378198Y-129940982D01*
X150378162Y-129959358D01*
X150378160Y-129966069D01*
X150378233Y-129987698D01*
X150378468Y-130004786D01*
X150378891Y-130017871D01*
X150379527Y-130027489D01*
X150380404Y-130034178D01*
X150381546Y-130038476D01*
X150381653Y-130038741D01*
X150388412Y-130050220D01*
X150398289Y-130061300D01*
X150409543Y-130070103D01*
X150412210Y-130071644D01*
X150422610Y-130077210D01*
X150676610Y-130077472D01*
X150713115Y-130077490D01*
X150748880Y-130077471D01*
X150783490Y-130077416D01*
X150816527Y-130077329D01*
X150847574Y-130077210D01*
X150876215Y-130077063D01*
X150902031Y-130076889D01*
X150924607Y-130076691D01*
X150943524Y-130076472D01*
X150958366Y-130076233D01*
X150968716Y-130075977D01*
X150971558Y-130075868D01*
X151021630Y-130072739D01*
X151066962Y-130068112D01*
X151107681Y-130061948D01*
X151143913Y-130054209D01*
X151175783Y-130044857D01*
X151203418Y-130033854D01*
X151226944Y-130021161D01*
X151246486Y-130006741D01*
X151262171Y-129990556D01*
X151264884Y-129987066D01*
X151276390Y-129969797D01*
X151285344Y-129951794D01*
X151292099Y-129932015D01*
X151297004Y-129909420D01*
X151300412Y-129882968D01*
X151300562Y-129881391D01*
X151300981Y-129874433D01*
X151301379Y-129862723D01*
X151301757Y-129846235D01*
X151302114Y-129824941D01*
X151302451Y-129798816D01*
X151302768Y-129767832D01*
X151303065Y-129731962D01*
X151303342Y-129691181D01*
X151303601Y-129645462D01*
X151303839Y-129594777D01*
X151304059Y-129539101D01*
X151304261Y-129478406D01*
X151304443Y-129412667D01*
X151304497Y-129390819D01*
X151305602Y-128930488D01*
X151439416Y-128929162D01*
X151467028Y-128928916D01*
X151499117Y-128928679D01*
X151535354Y-128928450D01*
X151575412Y-128928230D01*
X151618959Y-128928021D01*
X151665668Y-128927821D01*
X151715209Y-128927632D01*
X151767252Y-128927455D01*
X151821469Y-128927288D01*
X151877531Y-128927134D01*
X151935109Y-128926992D01*
X151993873Y-128926863D01*
X152053493Y-128926747D01*
X152113642Y-128926645D01*
X152173990Y-128926557D01*
X152234208Y-128926484D01*
X152293966Y-128926426D01*
X152352935Y-128926383D01*
X152410787Y-128926356D01*
X152467192Y-128926345D01*
X152521821Y-128926351D01*
X152574345Y-128926375D01*
X152624434Y-128926416D01*
X152671760Y-128926475D01*
X152715994Y-128926553D01*
X152756806Y-128926650D01*
X152793867Y-128926766D01*
X152826848Y-128926902D01*
X152855419Y-128927058D01*
X152879253Y-128927235D01*
X152880060Y-128927242D01*
X152917799Y-128927580D01*
X152950794Y-128927886D01*
X152979383Y-128928171D01*
X153003902Y-128928446D01*
X153024687Y-128928721D01*
X153042075Y-128929008D01*
X153056404Y-128929317D01*
X153068008Y-128929660D01*
X153077225Y-128930047D01*
X153084392Y-128930489D01*
X153089845Y-128930998D01*
X153093921Y-128931584D01*
X153096956Y-128932257D01*
X153099286Y-128933030D01*
X153101250Y-128933913D01*
X153102310Y-128934457D01*
X153112796Y-128942503D01*
X153120599Y-128954417D01*
X153124670Y-128965418D01*
X153125116Y-128969221D01*
X153125541Y-128977515D01*
X153125945Y-128990352D01*
X153126330Y-129007785D01*
X153126696Y-129029866D01*
X153127043Y-129056647D01*
X153127372Y-129088182D01*
X153127684Y-129124522D01*
X153127979Y-129165720D01*
X153128258Y-129211828D01*
X153128522Y-129262898D01*
X153128770Y-129318984D01*
X153128827Y-129332990D01*
X153130250Y-129691130D01*
X153136027Y-129699228D01*
X153141501Y-129704770D01*
X153149649Y-129710682D01*
X153156347Y-129714468D01*
X153170890Y-129721610D01*
X153465530Y-129721610D01*
X153478230Y-129715080D01*
X153489566Y-129707361D01*
X153498550Y-129697717D01*
X153506170Y-129686883D01*
X153506922Y-129374046D01*
X153507033Y-129322330D01*
X153507100Y-129275415D01*
X153507119Y-129233022D01*
X153507084Y-129194872D01*
X153506988Y-129160686D01*
X153506827Y-129130185D01*
X153506595Y-129103090D01*
X153506287Y-129079122D01*
X153505895Y-129058002D01*
X153505416Y-129039451D01*
X153504844Y-129023190D01*
X153504172Y-129008940D01*
X153503396Y-128996423D01*
X153502509Y-128985359D01*
X153501507Y-128975469D01*
X153500383Y-128966474D01*
X153499131Y-128958096D01*
X153498495Y-128954274D01*
X153490156Y-128916380D01*
X153478815Y-128882506D01*
X153464403Y-128852526D01*
X153446853Y-128826312D01*
X153426097Y-128803738D01*
X153410607Y-128790770D01*
X153389188Y-128776135D01*
X153366184Y-128763474D01*
X153341032Y-128752601D01*
X153313170Y-128743333D01*
X153282036Y-128735483D01*
X153247068Y-128728868D01*
X153207705Y-128723303D01*
X153203910Y-128722846D01*
X153200083Y-128722414D01*
X153195979Y-128722010D01*
X153191426Y-128721634D01*
X153186248Y-128721284D01*
X153180273Y-128720960D01*
X153173327Y-128720659D01*
X153165237Y-128720382D01*
X153155829Y-128720128D01*
X153144930Y-128719895D01*
X153132365Y-128719683D01*
X153117962Y-128719491D01*
X153101546Y-128719317D01*
X153082945Y-128719161D01*
X153061984Y-128719022D01*
X153038491Y-128718899D01*
X153012291Y-128718790D01*
X152983210Y-128718696D01*
X152951077Y-128718615D01*
X152915716Y-128718545D01*
X152876954Y-128718487D01*
X152834618Y-128718439D01*
X152788534Y-128718401D01*
X152738529Y-128718370D01*
X152684429Y-128718347D01*
X152626060Y-128718331D01*
X152563249Y-128718320D01*
X152495822Y-128718313D01*
X152423607Y-128718310D01*
X152372060Y-128718310D01*
X152307214Y-128718307D01*
X152242872Y-128718301D01*
X152179274Y-128718291D01*
X152116657Y-128718277D01*
X152055262Y-128718260D01*
X151995328Y-128718239D01*
X151937093Y-128718215D01*
X151880796Y-128718188D01*
X151826677Y-128718158D01*
X151774974Y-128718125D01*
X151725927Y-128718090D01*
X151679774Y-128718052D01*
X151636755Y-128718012D01*
X151597109Y-128717970D01*
X151561074Y-128717926D01*
X151528890Y-128717880D01*
X151500795Y-128717833D01*
X151477029Y-128717784D01*
X151457831Y-128717733D01*
X151443439Y-128717682D01*
X151441785Y-128717675D01*
X151305260Y-128717040D01*
X151305260Y-128372788D01*
X151305256Y-128323534D01*
X151305240Y-128279107D01*
X151305209Y-128239256D01*
X151305162Y-128203726D01*
X151305094Y-128172266D01*
X151305004Y-128144623D01*
X151304889Y-128120545D01*
X151304745Y-128099779D01*
X151304571Y-128082072D01*
X151304362Y-128067172D01*
X151304117Y-128054826D01*
X151303832Y-128044781D01*
X151303505Y-128036786D01*
X151303133Y-128030587D01*
X151302712Y-128025932D01*
X151302242Y-128022568D01*
X151301717Y-128020243D01*
X151301329Y-128019128D01*
X151293997Y-128006528D01*
X151283286Y-127996665D01*
X151276050Y-127992257D01*
X151273797Y-127991099D01*
X151271408Y-127990114D01*
X151268471Y-127989287D01*
X151264569Y-127988601D01*
X151259288Y-127988040D01*
X151252214Y-127987587D01*
X151242932Y-127987225D01*
X151231027Y-127986939D01*
X151216085Y-127986712D01*
X151197690Y-127986527D01*
X151175429Y-127986368D01*
X151148887Y-127986219D01*
X151120131Y-127986074D01*
X151087338Y-127985918D01*
X151059214Y-127985821D01*
X151035347Y-127985821D01*
X151015326Y-127985959D01*
G36*
X159622301Y-128717488D02*
X159587209Y-128717571D01*
X159547887Y-128717736D01*
X159504106Y-128717981D01*
X159455641Y-128718305D01*
X159416750Y-128718596D01*
X159122110Y-128720881D01*
X159111635Y-128726469D01*
X159100746Y-128734006D01*
X159091882Y-128743414D01*
X159086383Y-128753226D01*
X159085915Y-128754700D01*
X159085399Y-128759024D01*
X159084936Y-128767667D01*
X159084546Y-128779870D01*
X159084249Y-128794872D01*
X159084064Y-128811915D01*
X159084010Y-128827719D01*
X159084010Y-128893948D01*
X159091007Y-128904517D01*
X159100781Y-128915080D01*
X159111327Y-128921924D01*
X159124650Y-128928762D01*
X159416750Y-128928171D01*
X159462981Y-128928075D01*
X159504407Y-128927994D01*
X159541303Y-128927940D01*
X159573943Y-128927926D01*
X159602603Y-128927965D01*
X159627557Y-128928069D01*
X159649080Y-128928250D01*
X159667447Y-128928522D01*
X159682934Y-128928896D01*
X159695814Y-128929387D01*
X159706363Y-128930005D01*
X159714856Y-128930764D01*
X159721567Y-128931677D01*
X159726772Y-128932756D01*
X159730745Y-128934013D01*
X159733761Y-128935462D01*
X159736095Y-128937114D01*
X159738021Y-128938983D01*
X159739816Y-128941081D01*
X159741462Y-128943077D01*
X159743114Y-128944963D01*
X159744622Y-128946669D01*
X159745992Y-128948424D01*
X159747231Y-128950458D01*
X159748344Y-128953001D01*
X159749339Y-128956283D01*
X159750223Y-128960532D01*
X159751001Y-128965980D01*
X159751681Y-128972854D01*
X159752269Y-128981387D01*
X159752772Y-128991805D01*
X159753196Y-129004341D01*
X159753549Y-129019223D01*
X159753836Y-129036680D01*
X159754064Y-129056944D01*
X159754240Y-129080242D01*
X159754371Y-129106806D01*
X159754463Y-129136864D01*
X159754523Y-129170647D01*
X159754557Y-129208384D01*
X159754572Y-129250305D01*
X159754575Y-129296639D01*
X159754572Y-129347617D01*
X159754570Y-129397760D01*
X159754569Y-129452476D01*
X159754562Y-129502345D01*
X159754547Y-129547597D01*
X159754522Y-129588465D01*
X159754484Y-129625181D01*
X159754432Y-129657975D01*
X159754361Y-129687082D01*
X159754271Y-129712731D01*
X159754159Y-129735155D01*
X159754022Y-129754587D01*
X159753858Y-129771257D01*
X159753664Y-129785398D01*
X159753437Y-129797241D01*
X159753177Y-129807019D01*
X159752879Y-129814963D01*
X159752542Y-129821305D01*
X159752163Y-129826278D01*
X159751740Y-129830112D01*
X159751270Y-129833041D01*
X159750751Y-129835295D01*
X159750180Y-129837106D01*
X159749943Y-129837742D01*
X159742842Y-129850474D01*
X159732665Y-129859302D01*
X159718962Y-129864607D01*
X159717690Y-129864893D01*
X159714601Y-129865172D01*
X159707966Y-129865436D01*
X159697704Y-129865683D01*
X159683738Y-129865914D01*
X159665989Y-129866130D01*
X159644378Y-129866330D01*
X159618827Y-129866515D01*
X159589256Y-129866686D01*
X159555588Y-129866842D01*
X159517743Y-129866984D01*
X159475643Y-129867111D01*
X159429209Y-129867225D01*
X159378363Y-129867326D01*
X159323026Y-129867413D01*
X159263119Y-129867487D01*
X159198563Y-129867549D01*
X159129281Y-129867598D01*
X159055193Y-129867634D01*
X158976220Y-129867659D01*
X158892285Y-129867672D01*
X158849570Y-129867674D01*
X158763820Y-129867683D01*
X158682260Y-129867706D01*
X158604942Y-129867744D01*
X158531915Y-129867797D01*
X158463229Y-129867864D01*
X158398934Y-129867945D01*
X158339079Y-129868040D01*
X158283714Y-129868149D01*
X158232890Y-129868272D01*
X158186654Y-129868408D01*
X158145059Y-129868557D01*
X158108153Y-129868720D01*
X158075986Y-129868897D01*
X158048607Y-129869086D01*
X158026068Y-129869288D01*
X158008417Y-129869502D01*
X157995704Y-129869729D01*
X157987979Y-129869969D01*
X157985373Y-129870182D01*
X157972225Y-129875483D01*
X157960343Y-129883279D01*
X157951157Y-129892495D01*
X157947278Y-129898806D01*
X157945749Y-129902594D01*
X157944573Y-129906842D01*
X157943703Y-129912243D01*
X157943092Y-129919488D01*
X157942696Y-129929270D01*
X157942468Y-129942282D01*
X157942362Y-129959215D01*
X157942336Y-129973166D01*
X157942338Y-129992866D01*
X157942418Y-130008183D01*
X157942629Y-130019814D01*
X157943023Y-130028455D01*
X157943652Y-130034805D01*
X157944570Y-130039559D01*
X157945830Y-130043415D01*
X157947483Y-130047069D01*
X157947995Y-130048096D01*
X157955269Y-130057910D01*
X157965992Y-130066751D01*
X157978537Y-130073504D01*
X157989859Y-130076842D01*
X157993284Y-130076989D01*
X158001565Y-130077127D01*
X158014480Y-130077255D01*
X158031803Y-130077374D01*
X158053312Y-130077484D01*
X158078784Y-130077584D01*
X158107994Y-130077675D01*
X158140720Y-130077758D01*
X158176737Y-130077831D01*
X158215822Y-130077896D01*
X158257752Y-130077953D01*
X158302302Y-130078001D01*
X158349250Y-130078041D01*
X158398372Y-130078073D01*
X158449445Y-130078097D01*
X158502244Y-130078113D01*
X158556547Y-130078121D01*
X158612129Y-130078122D01*
X158668767Y-130078115D01*
X158726238Y-130078101D01*
X158784318Y-130078080D01*
X158842784Y-130078052D01*
X158901412Y-130078018D01*
X158959978Y-130077976D01*
X159018259Y-130077928D01*
X159076031Y-130077873D01*
X159133072Y-130077812D01*
X159189156Y-130077744D01*
X159244061Y-130077671D01*
X159297564Y-130077592D01*
X159349440Y-130077506D01*
X159399466Y-130077416D01*
X159447419Y-130077319D01*
X159493074Y-130077217D01*
X159536210Y-130077110D01*
X159576601Y-130076998D01*
X159614024Y-130076881D01*
X159648256Y-130076759D01*
X159679074Y-130076632D01*
X159706253Y-130076500D01*
X159729571Y-130076365D01*
X159748803Y-130076224D01*
X159763726Y-130076080D01*
X159774117Y-130075931D01*
X159779752Y-130075779D01*
X159779970Y-130075768D01*
X159829461Y-130071913D01*
X159874468Y-130065982D01*
X159915178Y-130057898D01*
X159951778Y-130047588D01*
X159984453Y-130034976D01*
X160013389Y-130019986D01*
X160038773Y-130002543D01*
X160060791Y-129982572D01*
X160079628Y-129959998D01*
X160084756Y-129952603D01*
X160097834Y-129930031D01*
X160108875Y-129904601D01*
X160118088Y-129875716D01*
X160125681Y-129842776D01*
X160128466Y-129827415D01*
X160129068Y-129823611D01*
X160129615Y-129819508D01*
X160130109Y-129814859D01*
X160130553Y-129809414D01*
X160130951Y-129802926D01*
X160131303Y-129795147D01*
X160131614Y-129785829D01*
X160131885Y-129774724D01*
X160132120Y-129761584D01*
X160132320Y-129746161D01*
X160132490Y-129728207D01*
X160132630Y-129707474D01*
X160132744Y-129683713D01*
X160132835Y-129656678D01*
X160132904Y-129626120D01*
X160132956Y-129591791D01*
X160132991Y-129553443D01*
X160133014Y-129510827D01*
X160133026Y-129463697D01*
X160133030Y-129411804D01*
X160133030Y-128992630D01*
X160127104Y-128959826D01*
X160119226Y-128923741D01*
X160109302Y-128891904D01*
X160097094Y-128863821D01*
X160082368Y-128838994D01*
X160064886Y-128816927D01*
X160053737Y-128805524D01*
X160033205Y-128788153D01*
X160010241Y-128772932D01*
X159984527Y-128759767D01*
X159955746Y-128748561D01*
X159923583Y-128739218D01*
X159887721Y-128731642D01*
X159847842Y-128725738D01*
X159803629Y-128721410D01*
X159768540Y-128719195D01*
X159756711Y-128718703D01*
X159742238Y-128718294D01*
X159724897Y-128717968D01*
X159704460Y-128717725D01*
X159680699Y-128717564D01*
X159653389Y-128717485D01*
X159622301Y-128717488D01*
X159622301Y-128717488D01*
G37*
X159622301Y-128717488D02*
X159587209Y-128717571D01*
X159547887Y-128717736D01*
X159504106Y-128717981D01*
X159455641Y-128718305D01*
X159416750Y-128718596D01*
X159122110Y-128720881D01*
X159111635Y-128726469D01*
X159100746Y-128734006D01*
X159091882Y-128743414D01*
X159086383Y-128753226D01*
X159085915Y-128754700D01*
X159085399Y-128759024D01*
X159084936Y-128767667D01*
X159084546Y-128779870D01*
X159084249Y-128794872D01*
X159084064Y-128811915D01*
X159084010Y-128827719D01*
X159084010Y-128893948D01*
X159091007Y-128904517D01*
X159100781Y-128915080D01*
X159111327Y-128921924D01*
X159124650Y-128928762D01*
X159416750Y-128928171D01*
X159462981Y-128928075D01*
X159504407Y-128927994D01*
X159541303Y-128927940D01*
X159573943Y-128927926D01*
X159602603Y-128927965D01*
X159627557Y-128928069D01*
X159649080Y-128928250D01*
X159667447Y-128928522D01*
X159682934Y-128928896D01*
X159695814Y-128929387D01*
X159706363Y-128930005D01*
X159714856Y-128930764D01*
X159721567Y-128931677D01*
X159726772Y-128932756D01*
X159730745Y-128934013D01*
X159733761Y-128935462D01*
X159736095Y-128937114D01*
X159738021Y-128938983D01*
X159739816Y-128941081D01*
X159741462Y-128943077D01*
X159743114Y-128944963D01*
X159744622Y-128946669D01*
X159745992Y-128948424D01*
X159747231Y-128950458D01*
X159748344Y-128953001D01*
X159749339Y-128956283D01*
X159750223Y-128960532D01*
X159751001Y-128965980D01*
X159751681Y-128972854D01*
X159752269Y-128981387D01*
X159752772Y-128991805D01*
X159753196Y-129004341D01*
X159753549Y-129019223D01*
X159753836Y-129036680D01*
X159754064Y-129056944D01*
X159754240Y-129080242D01*
X159754371Y-129106806D01*
X159754463Y-129136864D01*
X159754523Y-129170647D01*
X159754557Y-129208384D01*
X159754572Y-129250305D01*
X159754575Y-129296639D01*
X159754572Y-129347617D01*
X159754570Y-129397760D01*
X159754569Y-129452476D01*
X159754562Y-129502345D01*
X159754547Y-129547597D01*
X159754522Y-129588465D01*
X159754484Y-129625181D01*
X159754432Y-129657975D01*
X159754361Y-129687082D01*
X159754271Y-129712731D01*
X159754159Y-129735155D01*
X159754022Y-129754587D01*
X159753858Y-129771257D01*
X159753664Y-129785398D01*
X159753437Y-129797241D01*
X159753177Y-129807019D01*
X159752879Y-129814963D01*
X159752542Y-129821305D01*
X159752163Y-129826278D01*
X159751740Y-129830112D01*
X159751270Y-129833041D01*
X159750751Y-129835295D01*
X159750180Y-129837106D01*
X159749943Y-129837742D01*
X159742842Y-129850474D01*
X159732665Y-129859302D01*
X159718962Y-129864607D01*
X159717690Y-129864893D01*
X159714601Y-129865172D01*
X159707966Y-129865436D01*
X159697704Y-129865683D01*
X159683738Y-129865914D01*
X159665989Y-129866130D01*
X159644378Y-129866330D01*
X159618827Y-129866515D01*
X159589256Y-129866686D01*
X159555588Y-129866842D01*
X159517743Y-129866984D01*
X159475643Y-129867111D01*
X159429209Y-129867225D01*
X159378363Y-129867326D01*
X159323026Y-129867413D01*
X159263119Y-129867487D01*
X159198563Y-129867549D01*
X159129281Y-129867598D01*
X159055193Y-129867634D01*
X158976220Y-129867659D01*
X158892285Y-129867672D01*
X158849570Y-129867674D01*
X158763820Y-129867683D01*
X158682260Y-129867706D01*
X158604942Y-129867744D01*
X158531915Y-129867797D01*
X158463229Y-129867864D01*
X158398934Y-129867945D01*
X158339079Y-129868040D01*
X158283714Y-129868149D01*
X158232890Y-129868272D01*
X158186654Y-129868408D01*
X158145059Y-129868557D01*
X158108153Y-129868720D01*
X158075986Y-129868897D01*
X158048607Y-129869086D01*
X158026068Y-129869288D01*
X158008417Y-129869502D01*
X157995704Y-129869729D01*
X157987979Y-129869969D01*
X157985373Y-129870182D01*
X157972225Y-129875483D01*
X157960343Y-129883279D01*
X157951157Y-129892495D01*
X157947278Y-129898806D01*
X157945749Y-129902594D01*
X157944573Y-129906842D01*
X157943703Y-129912243D01*
X157943092Y-129919488D01*
X157942696Y-129929270D01*
X157942468Y-129942282D01*
X157942362Y-129959215D01*
X157942336Y-129973166D01*
X157942338Y-129992866D01*
X157942418Y-130008183D01*
X157942629Y-130019814D01*
X157943023Y-130028455D01*
X157943652Y-130034805D01*
X157944570Y-130039559D01*
X157945830Y-130043415D01*
X157947483Y-130047069D01*
X157947995Y-130048096D01*
X157955269Y-130057910D01*
X157965992Y-130066751D01*
X157978537Y-130073504D01*
X157989859Y-130076842D01*
X157993284Y-130076989D01*
X158001565Y-130077127D01*
X158014480Y-130077255D01*
X158031803Y-130077374D01*
X158053312Y-130077484D01*
X158078784Y-130077584D01*
X158107994Y-130077675D01*
X158140720Y-130077758D01*
X158176737Y-130077831D01*
X158215822Y-130077896D01*
X158257752Y-130077953D01*
X158302302Y-130078001D01*
X158349250Y-130078041D01*
X158398372Y-130078073D01*
X158449445Y-130078097D01*
X158502244Y-130078113D01*
X158556547Y-130078121D01*
X158612129Y-130078122D01*
X158668767Y-130078115D01*
X158726238Y-130078101D01*
X158784318Y-130078080D01*
X158842784Y-130078052D01*
X158901412Y-130078018D01*
X158959978Y-130077976D01*
X159018259Y-130077928D01*
X159076031Y-130077873D01*
X159133072Y-130077812D01*
X159189156Y-130077744D01*
X159244061Y-130077671D01*
X159297564Y-130077592D01*
X159349440Y-130077506D01*
X159399466Y-130077416D01*
X159447419Y-130077319D01*
X159493074Y-130077217D01*
X159536210Y-130077110D01*
X159576601Y-130076998D01*
X159614024Y-130076881D01*
X159648256Y-130076759D01*
X159679074Y-130076632D01*
X159706253Y-130076500D01*
X159729571Y-130076365D01*
X159748803Y-130076224D01*
X159763726Y-130076080D01*
X159774117Y-130075931D01*
X159779752Y-130075779D01*
X159779970Y-130075768D01*
X159829461Y-130071913D01*
X159874468Y-130065982D01*
X159915178Y-130057898D01*
X159951778Y-130047588D01*
X159984453Y-130034976D01*
X160013389Y-130019986D01*
X160038773Y-130002543D01*
X160060791Y-129982572D01*
X160079628Y-129959998D01*
X160084756Y-129952603D01*
X160097834Y-129930031D01*
X160108875Y-129904601D01*
X160118088Y-129875716D01*
X160125681Y-129842776D01*
X160128466Y-129827415D01*
X160129068Y-129823611D01*
X160129615Y-129819508D01*
X160130109Y-129814859D01*
X160130553Y-129809414D01*
X160130951Y-129802926D01*
X160131303Y-129795147D01*
X160131614Y-129785829D01*
X160131885Y-129774724D01*
X160132120Y-129761584D01*
X160132320Y-129746161D01*
X160132490Y-129728207D01*
X160132630Y-129707474D01*
X160132744Y-129683713D01*
X160132835Y-129656678D01*
X160132904Y-129626120D01*
X160132956Y-129591791D01*
X160132991Y-129553443D01*
X160133014Y-129510827D01*
X160133026Y-129463697D01*
X160133030Y-129411804D01*
X160133030Y-128992630D01*
X160127104Y-128959826D01*
X160119226Y-128923741D01*
X160109302Y-128891904D01*
X160097094Y-128863821D01*
X160082368Y-128838994D01*
X160064886Y-128816927D01*
X160053737Y-128805524D01*
X160033205Y-128788153D01*
X160010241Y-128772932D01*
X159984527Y-128759767D01*
X159955746Y-128748561D01*
X159923583Y-128739218D01*
X159887721Y-128731642D01*
X159847842Y-128725738D01*
X159803629Y-128721410D01*
X159768540Y-128719195D01*
X159756711Y-128718703D01*
X159742238Y-128718294D01*
X159724897Y-128717968D01*
X159704460Y-128717725D01*
X159680699Y-128717564D01*
X159653389Y-128717485D01*
X159622301Y-128717488D01*
G36*
X155723638Y-128718787D02*
X155685542Y-128718840D01*
X155643093Y-128718924D01*
X155595988Y-128719032D01*
X155576270Y-128719078D01*
X155530405Y-128719204D01*
X155487039Y-128719360D01*
X155446399Y-128719543D01*
X155408710Y-128719753D01*
X155374198Y-128719986D01*
X155343089Y-128720240D01*
X155315608Y-128720514D01*
X155291980Y-128720805D01*
X155272432Y-128721111D01*
X155257189Y-128721430D01*
X155246476Y-128721759D01*
X155240519Y-128722098D01*
X155239469Y-128722247D01*
X155225439Y-128728241D01*
X155213160Y-128737819D01*
X155207288Y-128744940D01*
X155205581Y-128747579D01*
X155204246Y-128750244D01*
X155203247Y-128753551D01*
X155202543Y-128758116D01*
X155202096Y-128764554D01*
X155201868Y-128773480D01*
X155201818Y-128785510D01*
X155201908Y-128801260D01*
X155202099Y-128821345D01*
X155202148Y-128826160D01*
X155202399Y-128848861D01*
X155202747Y-128867073D01*
X155203356Y-128881383D01*
X155204389Y-128892382D01*
X155206012Y-128900658D01*
X155208389Y-128906801D01*
X155211683Y-128911400D01*
X155216059Y-128915045D01*
X155221681Y-128918324D01*
X155228713Y-128921827D01*
X155228819Y-128921879D01*
X155243194Y-128928912D01*
X155534192Y-128928243D01*
X155580236Y-128928136D01*
X155621477Y-128928045D01*
X155658191Y-128927983D01*
X155690656Y-128927961D01*
X155719147Y-128927992D01*
X155743943Y-128928089D01*
X155765319Y-128928262D01*
X155783553Y-128928525D01*
X155798921Y-128928889D01*
X155811700Y-128929367D01*
X155822166Y-128929970D01*
X155830598Y-128930711D01*
X155837270Y-128931602D01*
X155842461Y-128932655D01*
X155846446Y-128933882D01*
X155849503Y-128935295D01*
X155851909Y-128936907D01*
X155853940Y-128938729D01*
X155855873Y-128940774D01*
X155857372Y-128942405D01*
X155859076Y-128944150D01*
X155860631Y-128945725D01*
X155862043Y-128947356D01*
X155863321Y-128949274D01*
X155864470Y-128951706D01*
X155865497Y-128954882D01*
X155866409Y-128959030D01*
X155867213Y-128964378D01*
X155867915Y-128971156D01*
X155868523Y-128979592D01*
X155869043Y-128989914D01*
X155869482Y-129002352D01*
X155869847Y-129017134D01*
X155870145Y-129034489D01*
X155870382Y-129054645D01*
X155870565Y-129077832D01*
X155870701Y-129104277D01*
X155870797Y-129134209D01*
X155870860Y-129167858D01*
X155870896Y-129205452D01*
X155870912Y-129247219D01*
X155870916Y-129293388D01*
X155870913Y-129344189D01*
X155870910Y-129397760D01*
X155870909Y-129452476D01*
X155870902Y-129502345D01*
X155870887Y-129547597D01*
X155870862Y-129588465D01*
X155870824Y-129625181D01*
X155870772Y-129657975D01*
X155870701Y-129687082D01*
X155870611Y-129712731D01*
X155870499Y-129735155D01*
X155870362Y-129754587D01*
X155870198Y-129771257D01*
X155870004Y-129785398D01*
X155869777Y-129797241D01*
X155869517Y-129807019D01*
X155869219Y-129814963D01*
X155868882Y-129821305D01*
X155868503Y-129826278D01*
X155868080Y-129830112D01*
X155867610Y-129833041D01*
X155867091Y-129835295D01*
X155866520Y-129837106D01*
X155866283Y-129837742D01*
X155859182Y-129850474D01*
X155849005Y-129859302D01*
X155835302Y-129864607D01*
X155834030Y-129864893D01*
X155830896Y-129865180D01*
X155824199Y-129865450D01*
X155813858Y-129865703D01*
X155799794Y-129865939D01*
X155781926Y-129866158D01*
X155760174Y-129866362D01*
X155734457Y-129866549D01*
X155704696Y-129866721D01*
X155670811Y-129866877D01*
X155632720Y-129867018D01*
X155590344Y-129867145D01*
X155543602Y-129867257D01*
X155492415Y-129867354D01*
X155436702Y-129867438D01*
X155376383Y-129867508D01*
X155311377Y-129867564D01*
X155241605Y-129867607D01*
X155166986Y-129867637D01*
X155087440Y-129867654D01*
X155010995Y-129867660D01*
X154200860Y-129867660D01*
X154200805Y-129317115D01*
X154200797Y-129254763D01*
X154200786Y-129197289D01*
X154200771Y-129144490D01*
X154200749Y-129096163D01*
X154200719Y-129052106D01*
X154200679Y-129012116D01*
X154200627Y-128975991D01*
X154200562Y-128943529D01*
X154200482Y-128914526D01*
X154200385Y-128888780D01*
X154200270Y-128866088D01*
X154200135Y-128846249D01*
X154199978Y-128829059D01*
X154199797Y-128814317D01*
X154199592Y-128801818D01*
X154199359Y-128791362D01*
X154199098Y-128782745D01*
X154198807Y-128775764D01*
X154198484Y-128770218D01*
X154198127Y-128765904D01*
X154197734Y-128762619D01*
X154197305Y-128760160D01*
X154196837Y-128758326D01*
X154196328Y-128756913D01*
X154196108Y-128756410D01*
X154189774Y-128746369D01*
X154180630Y-128736513D01*
X154170208Y-128728216D01*
X154160042Y-128722853D01*
X154157976Y-128722199D01*
X154153064Y-128721519D01*
X154143782Y-128720964D01*
X154130023Y-128720535D01*
X154111682Y-128720228D01*
X154088652Y-128720043D01*
X154060826Y-128719978D01*
X154028099Y-128720032D01*
X154003441Y-128720134D01*
X153859230Y-128720850D01*
X153847247Y-128727894D01*
X153838600Y-128734342D01*
X153830224Y-128742733D01*
X153826927Y-128746944D01*
X153818590Y-128758950D01*
X153817938Y-129309186D01*
X153817286Y-129859423D01*
X153595688Y-129861167D01*
X153571650Y-129861331D01*
X153542881Y-129861483D01*
X153509732Y-129861624D01*
X153472551Y-129861752D01*
X153431687Y-129861867D01*
X153387492Y-129861970D01*
X153340313Y-129862058D01*
X153290500Y-129862133D01*
X153238404Y-129862193D01*
X153184373Y-129862238D01*
X153128757Y-129862269D01*
X153071906Y-129862283D01*
X153014168Y-129862282D01*
X152955894Y-129862264D01*
X152897433Y-129862229D01*
X152839134Y-129862177D01*
X152783540Y-129862110D01*
X152192990Y-129861310D01*
X152181982Y-129855434D01*
X152173320Y-129849391D01*
X152167357Y-129841201D01*
X152165637Y-129837654D01*
X152164508Y-129834796D01*
X152163479Y-129831330D01*
X152162542Y-129827011D01*
X152161691Y-129821596D01*
X152160921Y-129814842D01*
X152160225Y-129806505D01*
X152159596Y-129796343D01*
X152159029Y-129784111D01*
X152158517Y-129769566D01*
X152158054Y-129752466D01*
X152157633Y-129732566D01*
X152157248Y-129709623D01*
X152156893Y-129683395D01*
X152156562Y-129653637D01*
X152156248Y-129620106D01*
X152155945Y-129582559D01*
X152155647Y-129540752D01*
X152155347Y-129494443D01*
X152155039Y-129443387D01*
X152154922Y-129423160D01*
X152154658Y-129376512D01*
X152154424Y-129334671D01*
X152154204Y-129297367D01*
X152153983Y-129264326D01*
X152153745Y-129235277D01*
X152153475Y-129209948D01*
X152153157Y-129188066D01*
X152152775Y-129169359D01*
X152152315Y-129153556D01*
X152151760Y-129140384D01*
X152151096Y-129129572D01*
X152150307Y-129120847D01*
X152149377Y-129113937D01*
X152148291Y-129108570D01*
X152147034Y-129104475D01*
X152145589Y-129101378D01*
X152143942Y-129099009D01*
X152142077Y-129097095D01*
X152139978Y-129095363D01*
X152137631Y-129093543D01*
X152136107Y-129092303D01*
X152132373Y-129089280D01*
X152128639Y-129086706D01*
X152124482Y-129084545D01*
X152119481Y-129082762D01*
X152113213Y-129081319D01*
X152105257Y-129080181D01*
X152095190Y-129079312D01*
X152082591Y-129078675D01*
X152067037Y-129078235D01*
X152048106Y-129077956D01*
X152025377Y-129077801D01*
X151998426Y-129077734D01*
X151966833Y-129077720D01*
X151965603Y-129077720D01*
X151934126Y-129077730D01*
X151907301Y-129077787D01*
X151884700Y-129077923D01*
X151865894Y-129078176D01*
X151850457Y-129078579D01*
X151837959Y-129079168D01*
X151827973Y-129079978D01*
X151820071Y-129081044D01*
X151813824Y-129082403D01*
X151808805Y-129084087D01*
X151804586Y-129086134D01*
X151800738Y-129088578D01*
X151796834Y-129091454D01*
X151796633Y-129091607D01*
X151793972Y-129093506D01*
X151791592Y-129095105D01*
X151789476Y-129096683D01*
X151787608Y-129098516D01*
X151785973Y-129100884D01*
X151784554Y-129104063D01*
X151783334Y-129108331D01*
X151782298Y-129113967D01*
X151781429Y-129121247D01*
X151780711Y-129130450D01*
X151780127Y-129141852D01*
X151779663Y-129155733D01*
X151779300Y-129172370D01*
X151779024Y-129192040D01*
X151778817Y-129215021D01*
X151778664Y-129241591D01*
X151778548Y-129272027D01*
X151778454Y-129306608D01*
X151778364Y-129345611D01*
X151778263Y-129389314D01*
X151778220Y-129406650D01*
X151778099Y-129460322D01*
X151778032Y-129509192D01*
X151778029Y-129553538D01*
X151778100Y-129593638D01*
X151778255Y-129629768D01*
X151778505Y-129662208D01*
X151778860Y-129691235D01*
X151779331Y-129717127D01*
X151779927Y-129740160D01*
X151780659Y-129760614D01*
X151781538Y-129778767D01*
X151782573Y-129794894D01*
X151783774Y-129809276D01*
X151785153Y-129822189D01*
X151786718Y-129833910D01*
X151788482Y-129844719D01*
X151790453Y-129854893D01*
X151792643Y-129864708D01*
X151795060Y-129874445D01*
X151795610Y-129876550D01*
X151806722Y-129910480D01*
X151821355Y-129940956D01*
X151839602Y-129968063D01*
X151861559Y-129991884D01*
X151887319Y-130012503D01*
X151916978Y-130030003D01*
X151950629Y-130044470D01*
X151988368Y-130055985D01*
X152001322Y-130059060D01*
X152026627Y-130064144D01*
X152052801Y-130068255D01*
X152080932Y-130071522D01*
X152112110Y-130074076D01*
X152141632Y-130075774D01*
X152148694Y-130075992D01*
X152160684Y-130076204D01*
X152177449Y-130076410D01*
X152198838Y-130076610D01*
X152224697Y-130076803D01*
X152254874Y-130076990D01*
X152289218Y-130077171D01*
X152327575Y-130077345D01*
X152369793Y-130077512D01*
X152415721Y-130077673D01*
X152465205Y-130077826D01*
X152518093Y-130077972D01*
X152574234Y-130078111D01*
X152633474Y-130078243D01*
X152695662Y-130078367D01*
X152760644Y-130078483D01*
X152828269Y-130078591D01*
X152898385Y-130078692D01*
X152970839Y-130078784D01*
X153045478Y-130078868D01*
X153122151Y-130078944D01*
X153200705Y-130079012D01*
X153280987Y-130079071D01*
X153362846Y-130079121D01*
X153446129Y-130079162D01*
X153530683Y-130079194D01*
X153616357Y-130079218D01*
X153702998Y-130079232D01*
X153790454Y-130079236D01*
X153878572Y-130079232D01*
X153967201Y-130079217D01*
X154056186Y-130079193D01*
X154145378Y-130079159D01*
X154234622Y-130079115D01*
X154323767Y-130079061D01*
X154412661Y-130078996D01*
X154501150Y-130078921D01*
X154589083Y-130078836D01*
X154676308Y-130078740D01*
X154762672Y-130078633D01*
X154848022Y-130078516D01*
X154932207Y-130078387D01*
X155015074Y-130078247D01*
X155030170Y-130078220D01*
X155096881Y-130078095D01*
X155162333Y-130077963D01*
X155226341Y-130077824D01*
X155288720Y-130077680D01*
X155349285Y-130077530D01*
X155407849Y-130077376D01*
X155464228Y-130077218D01*
X155518237Y-130077058D01*
X155569689Y-130076895D01*
X155618401Y-130076730D01*
X155664185Y-130076564D01*
X155706857Y-130076398D01*
X155746232Y-130076232D01*
X155782124Y-130076068D01*
X155814348Y-130075905D01*
X155842718Y-130075744D01*
X155867049Y-130075587D01*
X155887156Y-130075433D01*
X155902853Y-130075284D01*
X155913955Y-130075141D01*
X155920276Y-130075003D01*
X155921710Y-130074921D01*
X155928141Y-130073968D01*
X155938260Y-130072619D01*
X155950710Y-130071049D01*
X155964132Y-130069433D01*
X155964890Y-130069344D01*
X156009629Y-130062601D01*
X156050063Y-130053285D01*
X156086334Y-130041283D01*
X156118582Y-130026481D01*
X156146948Y-130008766D01*
X156171573Y-129988023D01*
X156192599Y-129964139D01*
X156210165Y-129937001D01*
X156224413Y-129906494D01*
X156235484Y-129872504D01*
X156241517Y-129846070D01*
X156242722Y-129839599D01*
X156243817Y-129833105D01*
X156244806Y-129826325D01*
X156245695Y-129818997D01*
X156246490Y-129810861D01*
X156247195Y-129801654D01*
X156247816Y-129791116D01*
X156248358Y-129778984D01*
X156248826Y-129764998D01*
X156249226Y-129748896D01*
X156249563Y-129730415D01*
X156249843Y-129709296D01*
X156250070Y-129685276D01*
X156250250Y-129658093D01*
X156250388Y-129627487D01*
X156250490Y-129593196D01*
X156250560Y-129554958D01*
X156250605Y-129512513D01*
X156250629Y-129465597D01*
X156250637Y-129413951D01*
X156250637Y-129395585D01*
X156250631Y-129343245D01*
X156250612Y-129295729D01*
X156250578Y-129252782D01*
X156250526Y-129214149D01*
X156250454Y-129179573D01*
X156250359Y-129148799D01*
X156250239Y-129121572D01*
X156250092Y-129097636D01*
X156249914Y-129076736D01*
X156249704Y-129058615D01*
X156249459Y-129043019D01*
X156249177Y-129029692D01*
X156248855Y-129018378D01*
X156248491Y-129008822D01*
X156248082Y-129000767D01*
X156247626Y-128993960D01*
X156247120Y-128988143D01*
X156246696Y-128984183D01*
X156240853Y-128945978D01*
X156232606Y-128911887D01*
X156221773Y-128881456D01*
X156208171Y-128854229D01*
X156191619Y-128829753D01*
X156178621Y-128814487D01*
X156155238Y-128792819D01*
X156128063Y-128774109D01*
X156096989Y-128758308D01*
X156061904Y-128745364D01*
X156022701Y-128735226D01*
X156000513Y-128731023D01*
X155989807Y-128729228D01*
X155979926Y-128727610D01*
X155970566Y-128726161D01*
X155961422Y-128724872D01*
X155952189Y-128723735D01*
X155942563Y-128722740D01*
X155932239Y-128721880D01*
X155920914Y-128721146D01*
X155908281Y-128720529D01*
X155894038Y-128720021D01*
X155877879Y-128719613D01*
X155859499Y-128719297D01*
X155838595Y-128719063D01*
X155814861Y-128718904D01*
X155787993Y-128718811D01*
X155757687Y-128718775D01*
X155723638Y-128718787D01*
X155723638Y-128718787D01*
G37*
X155723638Y-128718787D02*
X155685542Y-128718840D01*
X155643093Y-128718924D01*
X155595988Y-128719032D01*
X155576270Y-128719078D01*
X155530405Y-128719204D01*
X155487039Y-128719360D01*
X155446399Y-128719543D01*
X155408710Y-128719753D01*
X155374198Y-128719986D01*
X155343089Y-128720240D01*
X155315608Y-128720514D01*
X155291980Y-128720805D01*
X155272432Y-128721111D01*
X155257189Y-128721430D01*
X155246476Y-128721759D01*
X155240519Y-128722098D01*
X155239469Y-128722247D01*
X155225439Y-128728241D01*
X155213160Y-128737819D01*
X155207288Y-128744940D01*
X155205581Y-128747579D01*
X155204246Y-128750244D01*
X155203247Y-128753551D01*
X155202543Y-128758116D01*
X155202096Y-128764554D01*
X155201868Y-128773480D01*
X155201818Y-128785510D01*
X155201908Y-128801260D01*
X155202099Y-128821345D01*
X155202148Y-128826160D01*
X155202399Y-128848861D01*
X155202747Y-128867073D01*
X155203356Y-128881383D01*
X155204389Y-128892382D01*
X155206012Y-128900658D01*
X155208389Y-128906801D01*
X155211683Y-128911400D01*
X155216059Y-128915045D01*
X155221681Y-128918324D01*
X155228713Y-128921827D01*
X155228819Y-128921879D01*
X155243194Y-128928912D01*
X155534192Y-128928243D01*
X155580236Y-128928136D01*
X155621477Y-128928045D01*
X155658191Y-128927983D01*
X155690656Y-128927961D01*
X155719147Y-128927992D01*
X155743943Y-128928089D01*
X155765319Y-128928262D01*
X155783553Y-128928525D01*
X155798921Y-128928889D01*
X155811700Y-128929367D01*
X155822166Y-128929970D01*
X155830598Y-128930711D01*
X155837270Y-128931602D01*
X155842461Y-128932655D01*
X155846446Y-128933882D01*
X155849503Y-128935295D01*
X155851909Y-128936907D01*
X155853940Y-128938729D01*
X155855873Y-128940774D01*
X155857372Y-128942405D01*
X155859076Y-128944150D01*
X155860631Y-128945725D01*
X155862043Y-128947356D01*
X155863321Y-128949274D01*
X155864470Y-128951706D01*
X155865497Y-128954882D01*
X155866409Y-128959030D01*
X155867213Y-128964378D01*
X155867915Y-128971156D01*
X155868523Y-128979592D01*
X155869043Y-128989914D01*
X155869482Y-129002352D01*
X155869847Y-129017134D01*
X155870145Y-129034489D01*
X155870382Y-129054645D01*
X155870565Y-129077832D01*
X155870701Y-129104277D01*
X155870797Y-129134209D01*
X155870860Y-129167858D01*
X155870896Y-129205452D01*
X155870912Y-129247219D01*
X155870916Y-129293388D01*
X155870913Y-129344189D01*
X155870910Y-129397760D01*
X155870909Y-129452476D01*
X155870902Y-129502345D01*
X155870887Y-129547597D01*
X155870862Y-129588465D01*
X155870824Y-129625181D01*
X155870772Y-129657975D01*
X155870701Y-129687082D01*
X155870611Y-129712731D01*
X155870499Y-129735155D01*
X155870362Y-129754587D01*
X155870198Y-129771257D01*
X155870004Y-129785398D01*
X155869777Y-129797241D01*
X155869517Y-129807019D01*
X155869219Y-129814963D01*
X155868882Y-129821305D01*
X155868503Y-129826278D01*
X155868080Y-129830112D01*
X155867610Y-129833041D01*
X155867091Y-129835295D01*
X155866520Y-129837106D01*
X155866283Y-129837742D01*
X155859182Y-129850474D01*
X155849005Y-129859302D01*
X155835302Y-129864607D01*
X155834030Y-129864893D01*
X155830896Y-129865180D01*
X155824199Y-129865450D01*
X155813858Y-129865703D01*
X155799794Y-129865939D01*
X155781926Y-129866158D01*
X155760174Y-129866362D01*
X155734457Y-129866549D01*
X155704696Y-129866721D01*
X155670811Y-129866877D01*
X155632720Y-129867018D01*
X155590344Y-129867145D01*
X155543602Y-129867257D01*
X155492415Y-129867354D01*
X155436702Y-129867438D01*
X155376383Y-129867508D01*
X155311377Y-129867564D01*
X155241605Y-129867607D01*
X155166986Y-129867637D01*
X155087440Y-129867654D01*
X155010995Y-129867660D01*
X154200860Y-129867660D01*
X154200805Y-129317115D01*
X154200797Y-129254763D01*
X154200786Y-129197289D01*
X154200771Y-129144490D01*
X154200749Y-129096163D01*
X154200719Y-129052106D01*
X154200679Y-129012116D01*
X154200627Y-128975991D01*
X154200562Y-128943529D01*
X154200482Y-128914526D01*
X154200385Y-128888780D01*
X154200270Y-128866088D01*
X154200135Y-128846249D01*
X154199978Y-128829059D01*
X154199797Y-128814317D01*
X154199592Y-128801818D01*
X154199359Y-128791362D01*
X154199098Y-128782745D01*
X154198807Y-128775764D01*
X154198484Y-128770218D01*
X154198127Y-128765904D01*
X154197734Y-128762619D01*
X154197305Y-128760160D01*
X154196837Y-128758326D01*
X154196328Y-128756913D01*
X154196108Y-128756410D01*
X154189774Y-128746369D01*
X154180630Y-128736513D01*
X154170208Y-128728216D01*
X154160042Y-128722853D01*
X154157976Y-128722199D01*
X154153064Y-128721519D01*
X154143782Y-128720964D01*
X154130023Y-128720535D01*
X154111682Y-128720228D01*
X154088652Y-128720043D01*
X154060826Y-128719978D01*
X154028099Y-128720032D01*
X154003441Y-128720134D01*
X153859230Y-128720850D01*
X153847247Y-128727894D01*
X153838600Y-128734342D01*
X153830224Y-128742733D01*
X153826927Y-128746944D01*
X153818590Y-128758950D01*
X153817938Y-129309186D01*
X153817286Y-129859423D01*
X153595688Y-129861167D01*
X153571650Y-129861331D01*
X153542881Y-129861483D01*
X153509732Y-129861624D01*
X153472551Y-129861752D01*
X153431687Y-129861867D01*
X153387492Y-129861970D01*
X153340313Y-129862058D01*
X153290500Y-129862133D01*
X153238404Y-129862193D01*
X153184373Y-129862238D01*
X153128757Y-129862269D01*
X153071906Y-129862283D01*
X153014168Y-129862282D01*
X152955894Y-129862264D01*
X152897433Y-129862229D01*
X152839134Y-129862177D01*
X152783540Y-129862110D01*
X152192990Y-129861310D01*
X152181982Y-129855434D01*
X152173320Y-129849391D01*
X152167357Y-129841201D01*
X152165637Y-129837654D01*
X152164508Y-129834796D01*
X152163479Y-129831330D01*
X152162542Y-129827011D01*
X152161691Y-129821596D01*
X152160921Y-129814842D01*
X152160225Y-129806505D01*
X152159596Y-129796343D01*
X152159029Y-129784111D01*
X152158517Y-129769566D01*
X152158054Y-129752466D01*
X152157633Y-129732566D01*
X152157248Y-129709623D01*
X152156893Y-129683395D01*
X152156562Y-129653637D01*
X152156248Y-129620106D01*
X152155945Y-129582559D01*
X152155647Y-129540752D01*
X152155347Y-129494443D01*
X152155039Y-129443387D01*
X152154922Y-129423160D01*
X152154658Y-129376512D01*
X152154424Y-129334671D01*
X152154204Y-129297367D01*
X152153983Y-129264326D01*
X152153745Y-129235277D01*
X152153475Y-129209948D01*
X152153157Y-129188066D01*
X152152775Y-129169359D01*
X152152315Y-129153556D01*
X152151760Y-129140384D01*
X152151096Y-129129572D01*
X152150307Y-129120847D01*
X152149377Y-129113937D01*
X152148291Y-129108570D01*
X152147034Y-129104475D01*
X152145589Y-129101378D01*
X152143942Y-129099009D01*
X152142077Y-129097095D01*
X152139978Y-129095363D01*
X152137631Y-129093543D01*
X152136107Y-129092303D01*
X152132373Y-129089280D01*
X152128639Y-129086706D01*
X152124482Y-129084545D01*
X152119481Y-129082762D01*
X152113213Y-129081319D01*
X152105257Y-129080181D01*
X152095190Y-129079312D01*
X152082591Y-129078675D01*
X152067037Y-129078235D01*
X152048106Y-129077956D01*
X152025377Y-129077801D01*
X151998426Y-129077734D01*
X151966833Y-129077720D01*
X151965603Y-129077720D01*
X151934126Y-129077730D01*
X151907301Y-129077787D01*
X151884700Y-129077923D01*
X151865894Y-129078176D01*
X151850457Y-129078579D01*
X151837959Y-129079168D01*
X151827973Y-129079978D01*
X151820071Y-129081044D01*
X151813824Y-129082403D01*
X151808805Y-129084087D01*
X151804586Y-129086134D01*
X151800738Y-129088578D01*
X151796834Y-129091454D01*
X151796633Y-129091607D01*
X151793972Y-129093506D01*
X151791592Y-129095105D01*
X151789476Y-129096683D01*
X151787608Y-129098516D01*
X151785973Y-129100884D01*
X151784554Y-129104063D01*
X151783334Y-129108331D01*
X151782298Y-129113967D01*
X151781429Y-129121247D01*
X151780711Y-129130450D01*
X151780127Y-129141852D01*
X151779663Y-129155733D01*
X151779300Y-129172370D01*
X151779024Y-129192040D01*
X151778817Y-129215021D01*
X151778664Y-129241591D01*
X151778548Y-129272027D01*
X151778454Y-129306608D01*
X151778364Y-129345611D01*
X151778263Y-129389314D01*
X151778220Y-129406650D01*
X151778099Y-129460322D01*
X151778032Y-129509192D01*
X151778029Y-129553538D01*
X151778100Y-129593638D01*
X151778255Y-129629768D01*
X151778505Y-129662208D01*
X151778860Y-129691235D01*
X151779331Y-129717127D01*
X151779927Y-129740160D01*
X151780659Y-129760614D01*
X151781538Y-129778767D01*
X151782573Y-129794894D01*
X151783774Y-129809276D01*
X151785153Y-129822189D01*
X151786718Y-129833910D01*
X151788482Y-129844719D01*
X151790453Y-129854893D01*
X151792643Y-129864708D01*
X151795060Y-129874445D01*
X151795610Y-129876550D01*
X151806722Y-129910480D01*
X151821355Y-129940956D01*
X151839602Y-129968063D01*
X151861559Y-129991884D01*
X151887319Y-130012503D01*
X151916978Y-130030003D01*
X151950629Y-130044470D01*
X151988368Y-130055985D01*
X152001322Y-130059060D01*
X152026627Y-130064144D01*
X152052801Y-130068255D01*
X152080932Y-130071522D01*
X152112110Y-130074076D01*
X152141632Y-130075774D01*
X152148694Y-130075992D01*
X152160684Y-130076204D01*
X152177449Y-130076410D01*
X152198838Y-130076610D01*
X152224697Y-130076803D01*
X152254874Y-130076990D01*
X152289218Y-130077171D01*
X152327575Y-130077345D01*
X152369793Y-130077512D01*
X152415721Y-130077673D01*
X152465205Y-130077826D01*
X152518093Y-130077972D01*
X152574234Y-130078111D01*
X152633474Y-130078243D01*
X152695662Y-130078367D01*
X152760644Y-130078483D01*
X152828269Y-130078591D01*
X152898385Y-130078692D01*
X152970839Y-130078784D01*
X153045478Y-130078868D01*
X153122151Y-130078944D01*
X153200705Y-130079012D01*
X153280987Y-130079071D01*
X153362846Y-130079121D01*
X153446129Y-130079162D01*
X153530683Y-130079194D01*
X153616357Y-130079218D01*
X153702998Y-130079232D01*
X153790454Y-130079236D01*
X153878572Y-130079232D01*
X153967201Y-130079217D01*
X154056186Y-130079193D01*
X154145378Y-130079159D01*
X154234622Y-130079115D01*
X154323767Y-130079061D01*
X154412661Y-130078996D01*
X154501150Y-130078921D01*
X154589083Y-130078836D01*
X154676308Y-130078740D01*
X154762672Y-130078633D01*
X154848022Y-130078516D01*
X154932207Y-130078387D01*
X155015074Y-130078247D01*
X155030170Y-130078220D01*
X155096881Y-130078095D01*
X155162333Y-130077963D01*
X155226341Y-130077824D01*
X155288720Y-130077680D01*
X155349285Y-130077530D01*
X155407849Y-130077376D01*
X155464228Y-130077218D01*
X155518237Y-130077058D01*
X155569689Y-130076895D01*
X155618401Y-130076730D01*
X155664185Y-130076564D01*
X155706857Y-130076398D01*
X155746232Y-130076232D01*
X155782124Y-130076068D01*
X155814348Y-130075905D01*
X155842718Y-130075744D01*
X155867049Y-130075587D01*
X155887156Y-130075433D01*
X155902853Y-130075284D01*
X155913955Y-130075141D01*
X155920276Y-130075003D01*
X155921710Y-130074921D01*
X155928141Y-130073968D01*
X155938260Y-130072619D01*
X155950710Y-130071049D01*
X155964132Y-130069433D01*
X155964890Y-130069344D01*
X156009629Y-130062601D01*
X156050063Y-130053285D01*
X156086334Y-130041283D01*
X156118582Y-130026481D01*
X156146948Y-130008766D01*
X156171573Y-129988023D01*
X156192599Y-129964139D01*
X156210165Y-129937001D01*
X156224413Y-129906494D01*
X156235484Y-129872504D01*
X156241517Y-129846070D01*
X156242722Y-129839599D01*
X156243817Y-129833105D01*
X156244806Y-129826325D01*
X156245695Y-129818997D01*
X156246490Y-129810861D01*
X156247195Y-129801654D01*
X156247816Y-129791116D01*
X156248358Y-129778984D01*
X156248826Y-129764998D01*
X156249226Y-129748896D01*
X156249563Y-129730415D01*
X156249843Y-129709296D01*
X156250070Y-129685276D01*
X156250250Y-129658093D01*
X156250388Y-129627487D01*
X156250490Y-129593196D01*
X156250560Y-129554958D01*
X156250605Y-129512513D01*
X156250629Y-129465597D01*
X156250637Y-129413951D01*
X156250637Y-129395585D01*
X156250631Y-129343245D01*
X156250612Y-129295729D01*
X156250578Y-129252782D01*
X156250526Y-129214149D01*
X156250454Y-129179573D01*
X156250359Y-129148799D01*
X156250239Y-129121572D01*
X156250092Y-129097636D01*
X156249914Y-129076736D01*
X156249704Y-129058615D01*
X156249459Y-129043019D01*
X156249177Y-129029692D01*
X156248855Y-129018378D01*
X156248491Y-129008822D01*
X156248082Y-129000767D01*
X156247626Y-128993960D01*
X156247120Y-128988143D01*
X156246696Y-128984183D01*
X156240853Y-128945978D01*
X156232606Y-128911887D01*
X156221773Y-128881456D01*
X156208171Y-128854229D01*
X156191619Y-128829753D01*
X156178621Y-128814487D01*
X156155238Y-128792819D01*
X156128063Y-128774109D01*
X156096989Y-128758308D01*
X156061904Y-128745364D01*
X156022701Y-128735226D01*
X156000513Y-128731023D01*
X155989807Y-128729228D01*
X155979926Y-128727610D01*
X155970566Y-128726161D01*
X155961422Y-128724872D01*
X155952189Y-128723735D01*
X155942563Y-128722740D01*
X155932239Y-128721880D01*
X155920914Y-128721146D01*
X155908281Y-128720529D01*
X155894038Y-128720021D01*
X155877879Y-128719613D01*
X155859499Y-128719297D01*
X155838595Y-128719063D01*
X155814861Y-128718904D01*
X155787993Y-128718811D01*
X155757687Y-128718775D01*
X155723638Y-128718787D01*
D13*
X172027904Y-86258476D02*
X172675523Y-86258476D01*
X172751714Y-86296571D01*
X172789809Y-86334666D01*
X172827904Y-86410857D01*
X172827904Y-86563238D01*
X172789809Y-86639428D01*
X172751714Y-86677523D01*
X172675523Y-86715619D01*
X172027904Y-86715619D01*
X172027904Y-87020380D02*
X172027904Y-87553714D01*
X172827904Y-87210857D01*
D10*
X173362857Y-105149142D02*
X173410476Y-105196761D01*
X173553333Y-105244380D01*
X173648571Y-105244380D01*
X173791428Y-105196761D01*
X173886666Y-105101523D01*
X173934285Y-105006285D01*
X173981904Y-104815809D01*
X173981904Y-104672952D01*
X173934285Y-104482476D01*
X173886666Y-104387238D01*
X173791428Y-104292000D01*
X173648571Y-104244380D01*
X173553333Y-104244380D01*
X173410476Y-104292000D01*
X173362857Y-104339619D01*
X172410476Y-105244380D02*
X172981904Y-105244380D01*
X172696190Y-105244380D02*
X172696190Y-104244380D01*
X172791428Y-104387238D01*
X172886666Y-104482476D01*
X172981904Y-104530095D01*
X171553333Y-104577714D02*
X171553333Y-105244380D01*
X171791428Y-104196761D02*
X172029523Y-104911047D01*
X171410476Y-104911047D01*
X155662380Y-93472095D02*
X156471904Y-93472095D01*
X156567142Y-93519714D01*
X156614761Y-93567333D01*
X156662380Y-93662571D01*
X156662380Y-93853047D01*
X156614761Y-93948285D01*
X156567142Y-93995904D01*
X156471904Y-94043523D01*
X155662380Y-94043523D01*
X156090952Y-94662571D02*
X156043333Y-94567333D01*
X155995714Y-94519714D01*
X155900476Y-94472095D01*
X155852857Y-94472095D01*
X155757619Y-94519714D01*
X155710000Y-94567333D01*
X155662380Y-94662571D01*
X155662380Y-94853047D01*
X155710000Y-94948285D01*
X155757619Y-94995904D01*
X155852857Y-95043523D01*
X155900476Y-95043523D01*
X155995714Y-94995904D01*
X156043333Y-94948285D01*
X156090952Y-94853047D01*
X156090952Y-94662571D01*
X156138571Y-94567333D01*
X156186190Y-94519714D01*
X156281428Y-94472095D01*
X156471904Y-94472095D01*
X156567142Y-94519714D01*
X156614761Y-94567333D01*
X156662380Y-94662571D01*
X156662380Y-94853047D01*
X156614761Y-94948285D01*
X156567142Y-94995904D01*
X156471904Y-95043523D01*
X156281428Y-95043523D01*
X156186190Y-94995904D01*
X156138571Y-94948285D01*
X156090952Y-94853047D01*
X169044857Y-114689142D02*
X169092476Y-114736761D01*
X169235333Y-114784380D01*
X169330571Y-114784380D01*
X169473428Y-114736761D01*
X169568666Y-114641523D01*
X169616285Y-114546285D01*
X169663904Y-114355809D01*
X169663904Y-114212952D01*
X169616285Y-114022476D01*
X169568666Y-113927238D01*
X169473428Y-113832000D01*
X169330571Y-113784380D01*
X169235333Y-113784380D01*
X169092476Y-113832000D01*
X169044857Y-113879619D01*
X168092476Y-114784380D02*
X168663904Y-114784380D01*
X168378190Y-114784380D02*
X168378190Y-113784380D01*
X168473428Y-113927238D01*
X168568666Y-114022476D01*
X168663904Y-114070095D01*
X167759142Y-113784380D02*
X167140095Y-113784380D01*
X167473428Y-114165333D01*
X167330571Y-114165333D01*
X167235333Y-114212952D01*
X167187714Y-114260571D01*
X167140095Y-114355809D01*
X167140095Y-114593904D01*
X167187714Y-114689142D01*
X167235333Y-114736761D01*
X167330571Y-114784380D01*
X167616285Y-114784380D01*
X167711523Y-114736761D01*
X167759142Y-114689142D01*
X170203714Y-120324571D02*
X170060857Y-120372190D01*
X170013238Y-120419809D01*
X169965619Y-120515047D01*
X169965619Y-120657904D01*
X170013238Y-120753142D01*
X170060857Y-120800761D01*
X170156095Y-120848380D01*
X170537047Y-120848380D01*
X170537047Y-119848380D01*
X170203714Y-119848380D01*
X170108476Y-119896000D01*
X170060857Y-119943619D01*
X170013238Y-120038857D01*
X170013238Y-120134095D01*
X170060857Y-120229333D01*
X170108476Y-120276952D01*
X170203714Y-120324571D01*
X170537047Y-120324571D01*
X169679904Y-119848380D02*
X169108476Y-119848380D01*
X169394190Y-120848380D02*
X169394190Y-119848380D01*
X168251333Y-120848380D02*
X168822761Y-120848380D01*
X168537047Y-120848380D02*
X168537047Y-119848380D01*
X168632285Y-119991238D01*
X168727523Y-120086476D01*
X168822761Y-120134095D01*
X173862952Y-120213428D02*
X173101047Y-120213428D01*
X173482000Y-120594380D02*
X173482000Y-119832476D01*
X135762952Y-120213428D02*
X135001047Y-120213428D01*
X137437714Y-132262571D02*
X137294857Y-132310190D01*
X137247238Y-132357809D01*
X137199619Y-132453047D01*
X137199619Y-132595904D01*
X137247238Y-132691142D01*
X137294857Y-132738761D01*
X137390095Y-132786380D01*
X137771047Y-132786380D01*
X137771047Y-131786380D01*
X137437714Y-131786380D01*
X137342476Y-131834000D01*
X137294857Y-131881619D01*
X137247238Y-131976857D01*
X137247238Y-132072095D01*
X137294857Y-132167333D01*
X137342476Y-132214952D01*
X137437714Y-132262571D01*
X137771047Y-132262571D01*
X136913904Y-131786380D02*
X136342476Y-131786380D01*
X136628190Y-132786380D02*
X136628190Y-131786380D01*
X136056761Y-131881619D02*
X136009142Y-131834000D01*
X135913904Y-131786380D01*
X135675809Y-131786380D01*
X135580571Y-131834000D01*
X135532952Y-131881619D01*
X135485333Y-131976857D01*
X135485333Y-132072095D01*
X135532952Y-132214952D01*
X136104380Y-132786380D01*
X135485333Y-132786380D01*
X171068952Y-132405428D02*
X170307047Y-132405428D01*
X132968952Y-132405428D02*
X132207047Y-132405428D01*
X132588000Y-132786380D02*
X132588000Y-132024476D01*
X145184714Y-126039571D02*
X145041857Y-126087190D01*
X144994238Y-126134809D01*
X144946619Y-126230047D01*
X144946619Y-126372904D01*
X144994238Y-126468142D01*
X145041857Y-126515761D01*
X145137095Y-126563380D01*
X145518047Y-126563380D01*
X145518047Y-125563380D01*
X145184714Y-125563380D01*
X145089476Y-125611000D01*
X145041857Y-125658619D01*
X144994238Y-125753857D01*
X144994238Y-125849095D01*
X145041857Y-125944333D01*
X145089476Y-125991952D01*
X145184714Y-126039571D01*
X145518047Y-126039571D01*
X144660904Y-125563380D02*
X144089476Y-125563380D01*
X144375190Y-126563380D02*
X144375190Y-125563380D01*
X143851380Y-125563380D02*
X143232333Y-125563380D01*
X143565666Y-125944333D01*
X143422809Y-125944333D01*
X143327571Y-125991952D01*
X143279952Y-126039571D01*
X143232333Y-126134809D01*
X143232333Y-126372904D01*
X143279952Y-126468142D01*
X143327571Y-126515761D01*
X143422809Y-126563380D01*
X143708523Y-126563380D01*
X143803761Y-126515761D01*
X143851380Y-126468142D01*
X158829333Y-81621380D02*
X158829333Y-82335666D01*
X158876952Y-82478523D01*
X158972190Y-82573761D01*
X159115047Y-82621380D01*
X159210285Y-82621380D01*
X157924571Y-81954714D02*
X157924571Y-82621380D01*
X158162666Y-81573761D02*
X158400761Y-82288047D01*
X157781714Y-82288047D01*
X181181333Y-106684380D02*
X181181333Y-107398666D01*
X181228952Y-107541523D01*
X181324190Y-107636761D01*
X181467047Y-107684380D01*
X181562285Y-107684380D01*
X180800380Y-106684380D02*
X180181333Y-106684380D01*
X180514666Y-107065333D01*
X180371809Y-107065333D01*
X180276571Y-107112952D01*
X180228952Y-107160571D01*
X180181333Y-107255809D01*
X180181333Y-107493904D01*
X180228952Y-107589142D01*
X180276571Y-107636761D01*
X180371809Y-107684380D01*
X180657523Y-107684380D01*
X180752761Y-107636761D01*
X180800380Y-107589142D01*
X132119619Y-105997333D02*
X131405333Y-105997333D01*
X131262476Y-106044952D01*
X131167238Y-106140190D01*
X131119619Y-106283047D01*
X131119619Y-106378285D01*
X132024380Y-105568761D02*
X132072000Y-105521142D01*
X132119619Y-105425904D01*
X132119619Y-105187809D01*
X132072000Y-105092571D01*
X132024380Y-105044952D01*
X131929142Y-104997333D01*
X131833904Y-104997333D01*
X131691047Y-105044952D01*
X131119619Y-105616380D01*
X131119619Y-104997333D01*
M02*
