%TF.GenerationSoftware,KiCad,Pcbnew,5.0.2-bee76a0~70~ubuntu18.04.1*%
%TF.CreationDate,2019-07-19T18:37:29+02:00*%
%TF.ProjectId,BT-Pcb-328P,42542d50-6362-42d3-9332-38502e6b6963,1.0*%
%TF.SameCoordinates,Original*%
%TF.FileFunction,Legend,Top*%
%TF.FilePolarity,Positive*%
%FSLAX46Y46*%
G04 Gerber Fmt 4.6, Leading zero omitted, Abs format (unit mm)*
G04 Created by KiCad (PCBNEW 5.0.2-bee76a0~70~ubuntu18.04.1) date ven 19 lug 2019 18:37:29 CEST*
%MOMM*%
%LPD*%
G01*
G04 APERTURE LIST*
%ADD10C,0.200000*%
%ADD11C,0.150000*%
%ADD12C,0.120000*%
%ADD13C,0.203200*%
%ADD14C,0.127000*%
%ADD15C,0.100000*%
%ADD16C,0.050000*%
%ADD17C,0.160000*%
G04 APERTURE END LIST*
D10*
X149359952Y-117958142D02*
X149545666Y-118020047D01*
X149607571Y-118081952D01*
X149669476Y-118205761D01*
X149669476Y-118391476D01*
X149607571Y-118515285D01*
X149545666Y-118577190D01*
X149421857Y-118639095D01*
X148926619Y-118639095D01*
X148926619Y-117339095D01*
X149359952Y-117339095D01*
X149483761Y-117401000D01*
X149545666Y-117462904D01*
X149607571Y-117586714D01*
X149607571Y-117710523D01*
X149545666Y-117834333D01*
X149483761Y-117896238D01*
X149359952Y-117958142D01*
X148926619Y-117958142D01*
X150040904Y-117339095D02*
X150783761Y-117339095D01*
X150412333Y-118639095D02*
X150412333Y-117339095D01*
X151217095Y-118143857D02*
X152207571Y-118143857D01*
X152826619Y-118639095D02*
X152826619Y-117339095D01*
X153321857Y-117339095D01*
X153445666Y-117401000D01*
X153507571Y-117462904D01*
X153569476Y-117586714D01*
X153569476Y-117772428D01*
X153507571Y-117896238D01*
X153445666Y-117958142D01*
X153321857Y-118020047D01*
X152826619Y-118020047D01*
X154869476Y-118515285D02*
X154807571Y-118577190D01*
X154621857Y-118639095D01*
X154498047Y-118639095D01*
X154312333Y-118577190D01*
X154188523Y-118453380D01*
X154126619Y-118329571D01*
X154064714Y-118081952D01*
X154064714Y-117896238D01*
X154126619Y-117648619D01*
X154188523Y-117524809D01*
X154312333Y-117401000D01*
X154498047Y-117339095D01*
X154621857Y-117339095D01*
X154807571Y-117401000D01*
X154869476Y-117462904D01*
X155859952Y-117958142D02*
X156045666Y-118020047D01*
X156107571Y-118081952D01*
X156169476Y-118205761D01*
X156169476Y-118391476D01*
X156107571Y-118515285D01*
X156045666Y-118577190D01*
X155921857Y-118639095D01*
X155426619Y-118639095D01*
X155426619Y-117339095D01*
X155859952Y-117339095D01*
X155983761Y-117401000D01*
X156045666Y-117462904D01*
X156107571Y-117586714D01*
X156107571Y-117710523D01*
X156045666Y-117834333D01*
X155983761Y-117896238D01*
X155859952Y-117958142D01*
X155426619Y-117958142D01*
X156726619Y-118143857D02*
X157717095Y-118143857D01*
X158212333Y-117339095D02*
X159017095Y-117339095D01*
X158583761Y-117834333D01*
X158769476Y-117834333D01*
X158893285Y-117896238D01*
X158955190Y-117958142D01*
X159017095Y-118081952D01*
X159017095Y-118391476D01*
X158955190Y-118515285D01*
X158893285Y-118577190D01*
X158769476Y-118639095D01*
X158398047Y-118639095D01*
X158274238Y-118577190D01*
X158212333Y-118515285D01*
X159512333Y-117462904D02*
X159574238Y-117401000D01*
X159698047Y-117339095D01*
X160007571Y-117339095D01*
X160131380Y-117401000D01*
X160193285Y-117462904D01*
X160255190Y-117586714D01*
X160255190Y-117710523D01*
X160193285Y-117896238D01*
X159450428Y-118639095D01*
X160255190Y-118639095D01*
X160998047Y-117896238D02*
X160874238Y-117834333D01*
X160812333Y-117772428D01*
X160750428Y-117648619D01*
X160750428Y-117586714D01*
X160812333Y-117462904D01*
X160874238Y-117401000D01*
X160998047Y-117339095D01*
X161245666Y-117339095D01*
X161369476Y-117401000D01*
X161431380Y-117462904D01*
X161493285Y-117586714D01*
X161493285Y-117648619D01*
X161431380Y-117772428D01*
X161369476Y-117834333D01*
X161245666Y-117896238D01*
X160998047Y-117896238D01*
X160874238Y-117958142D01*
X160812333Y-118020047D01*
X160750428Y-118143857D01*
X160750428Y-118391476D01*
X160812333Y-118515285D01*
X160874238Y-118577190D01*
X160998047Y-118639095D01*
X161245666Y-118639095D01*
X161369476Y-118577190D01*
X161431380Y-118515285D01*
X161493285Y-118391476D01*
X161493285Y-118143857D01*
X161431380Y-118020047D01*
X161369476Y-117958142D01*
X161245666Y-117896238D01*
X162050428Y-118639095D02*
X162050428Y-117339095D01*
X162545666Y-117339095D01*
X162669476Y-117401000D01*
X162731380Y-117462904D01*
X162793285Y-117586714D01*
X162793285Y-117772428D01*
X162731380Y-117896238D01*
X162669476Y-117958142D01*
X162545666Y-118020047D01*
X162050428Y-118020047D01*
X153662333Y-119922428D02*
X153971857Y-120789095D01*
X154281380Y-119922428D01*
X154776619Y-120665285D02*
X154838523Y-120727190D01*
X154776619Y-120789095D01*
X154714714Y-120727190D01*
X154776619Y-120665285D01*
X154776619Y-120789095D01*
X156076619Y-120789095D02*
X155333761Y-120789095D01*
X155705190Y-120789095D02*
X155705190Y-119489095D01*
X155581380Y-119674809D01*
X155457571Y-119798619D01*
X155333761Y-119860523D01*
X156633761Y-120665285D02*
X156695666Y-120727190D01*
X156633761Y-120789095D01*
X156571857Y-120727190D01*
X156633761Y-120665285D01*
X156633761Y-120789095D01*
X157500428Y-119489095D02*
X157624238Y-119489095D01*
X157748047Y-119551000D01*
X157809952Y-119612904D01*
X157871857Y-119736714D01*
X157933761Y-119984333D01*
X157933761Y-120293857D01*
X157871857Y-120541476D01*
X157809952Y-120665285D01*
X157748047Y-120727190D01*
X157624238Y-120789095D01*
X157500428Y-120789095D01*
X157376619Y-120727190D01*
X157314714Y-120665285D01*
X157252809Y-120541476D01*
X157190904Y-120293857D01*
X157190904Y-119984333D01*
X157252809Y-119736714D01*
X157314714Y-119612904D01*
X157376619Y-119551000D01*
X157500428Y-119489095D01*
D11*
X144375238Y-105648428D02*
X144327619Y-105791285D01*
X144327619Y-106029380D01*
X144375238Y-106124619D01*
X144422857Y-106172238D01*
X144518095Y-106219857D01*
X144613333Y-106219857D01*
X144708571Y-106172238D01*
X144756190Y-106124619D01*
X144803809Y-106029380D01*
X144851428Y-105838904D01*
X144899047Y-105743666D01*
X144946666Y-105696047D01*
X145041904Y-105648428D01*
X145137142Y-105648428D01*
X145232380Y-105696047D01*
X145280000Y-105743666D01*
X145327619Y-105838904D01*
X145327619Y-106077000D01*
X145280000Y-106219857D01*
X144327619Y-106648428D02*
X144994285Y-106648428D01*
X145327619Y-106648428D02*
X145280000Y-106600809D01*
X145232380Y-106648428D01*
X145280000Y-106696047D01*
X145327619Y-106648428D01*
X145232380Y-106648428D01*
X145327619Y-107029380D02*
X145327619Y-107696047D01*
X144327619Y-107267476D01*
X145327619Y-108267476D02*
X145327619Y-108362714D01*
X145280000Y-108457952D01*
X145232380Y-108505571D01*
X145137142Y-108553190D01*
X144946666Y-108600809D01*
X144708571Y-108600809D01*
X144518095Y-108553190D01*
X144422857Y-108505571D01*
X144375238Y-108457952D01*
X144327619Y-108362714D01*
X144327619Y-108267476D01*
X144375238Y-108172238D01*
X144422857Y-108124619D01*
X144518095Y-108077000D01*
X144708571Y-108029380D01*
X144946666Y-108029380D01*
X145137142Y-108077000D01*
X145232380Y-108124619D01*
X145280000Y-108172238D01*
X145327619Y-108267476D01*
X145232380Y-108981761D02*
X145280000Y-109029380D01*
X145327619Y-109124619D01*
X145327619Y-109362714D01*
X145280000Y-109457952D01*
X145232380Y-109505571D01*
X145137142Y-109553190D01*
X145041904Y-109553190D01*
X144899047Y-109505571D01*
X144327619Y-108934142D01*
X144327619Y-109553190D01*
X144327619Y-110505571D02*
X144327619Y-109934142D01*
X144327619Y-110219857D02*
X145327619Y-110219857D01*
X145184761Y-110124619D01*
X145089523Y-110029380D01*
X145041904Y-109934142D01*
D10*
X167190000Y-98170000D02*
X167190000Y-121470000D01*
X143890000Y-121470000D02*
X143890000Y-98170000D01*
X143890000Y-121470000D02*
X167190000Y-121470000D01*
X143890000Y-98170000D02*
X167190000Y-98170000D01*
D11*
X184040000Y-138320000D02*
X184040000Y-81320000D01*
X127040000Y-138320000D02*
X127040000Y-81320000D01*
X127040000Y-138320000D02*
X184040000Y-138320000D01*
X127040000Y-81320000D02*
X184040000Y-81320000D01*
D12*
X173301922Y-130481000D02*
X173819078Y-130481000D01*
X173301922Y-131901000D02*
X173819078Y-131901000D01*
D11*
X131064000Y-87884000D02*
X156464000Y-87884000D01*
X156464000Y-87884000D02*
X156464000Y-82804000D01*
X156464000Y-82804000D02*
X128524000Y-82804000D01*
X128524000Y-82804000D02*
X128524000Y-85344000D01*
X128244000Y-86614000D02*
X128244000Y-88164000D01*
X128524000Y-85344000D02*
X131064000Y-85344000D01*
X131064000Y-85344000D02*
X131064000Y-87884000D01*
X128244000Y-88164000D02*
X129794000Y-88164000D01*
D13*
X132247600Y-110050400D02*
X132247600Y-109237600D01*
X132247600Y-109237600D02*
X132906400Y-109237600D01*
X135092400Y-109237600D02*
X135092400Y-110050400D01*
X134433600Y-109237600D02*
X135092400Y-109237600D01*
D12*
X138632000Y-109977422D02*
X138632000Y-110494578D01*
X137212000Y-109977422D02*
X137212000Y-110494578D01*
X183321000Y-131258000D02*
X180661000Y-131258000D01*
X183321000Y-133858000D02*
X183321000Y-131258000D01*
X180661000Y-133858000D02*
X180661000Y-131258000D01*
X183321000Y-133858000D02*
X180661000Y-133858000D01*
X183321000Y-135128000D02*
X183321000Y-136458000D01*
X183321000Y-136458000D02*
X181991000Y-136458000D01*
X129234000Y-92021922D02*
X129234000Y-92539078D01*
X127814000Y-92021922D02*
X127814000Y-92539078D01*
D14*
X133350000Y-134212000D02*
X133350000Y-134685000D01*
X133350000Y-134212000D02*
X132650000Y-134212000D01*
X134050000Y-134212000D02*
X133350000Y-134212000D01*
X133350000Y-133512000D02*
X134050000Y-134212000D01*
X133350000Y-133512000D02*
X132650000Y-134212000D01*
X133350000Y-133512000D02*
X134050000Y-133512000D01*
X132650000Y-133512000D02*
X133350000Y-133512000D01*
X132073610Y-131312000D02*
G75*
G03X132073610Y-131312000I-223610J0D01*
G01*
X168649610Y-104760000D02*
G75*
G03X168649610Y-104760000I-223610J0D01*
G01*
X169226000Y-106960000D02*
X169926000Y-106960000D01*
X169926000Y-106960000D02*
X170626000Y-106960000D01*
X169926000Y-106960000D02*
X169226000Y-107660000D01*
X169926000Y-106960000D02*
X170626000Y-107660000D01*
X170626000Y-107660000D02*
X169926000Y-107660000D01*
X169926000Y-107660000D02*
X169226000Y-107660000D01*
X169926000Y-107660000D02*
X169926000Y-108133000D01*
X140096000Y-121388000D02*
X140096000Y-122138000D01*
X140096000Y-122138000D02*
X132596000Y-122138000D01*
X132596000Y-122138000D02*
X132596000Y-121388000D01*
X140096000Y-118388000D02*
X140096000Y-117638000D01*
X140096000Y-117638000D02*
X132596000Y-117638000D01*
X132596000Y-117638000D02*
X132596000Y-118388000D01*
D11*
G36*
X137848490Y-122138000D02*
X137346000Y-122138000D01*
X137346000Y-117634260D01*
X137848490Y-117634260D01*
X137848490Y-122138000D01*
G37*
D14*
X145494000Y-132870000D02*
X139494000Y-132870000D01*
X145494000Y-136370000D02*
X145494000Y-132870000D01*
X139494000Y-136370000D02*
X145494000Y-136370000D01*
X139494000Y-132870000D02*
X139494000Y-136370000D01*
X171656000Y-136370000D02*
X171656000Y-132870000D01*
X171656000Y-132870000D02*
X165656000Y-132870000D01*
X165656000Y-132870000D02*
X165656000Y-136370000D01*
X165656000Y-136370000D02*
X171656000Y-136370000D01*
X171299000Y-119338000D02*
X171299000Y-120078000D01*
X168299000Y-119338000D02*
X168299000Y-120078000D01*
D12*
X180344578Y-117146000D02*
X179827422Y-117146000D01*
X180344578Y-118566000D02*
X179827422Y-118566000D01*
X128576000Y-136735078D02*
X128576000Y-136217922D01*
X129996000Y-136735078D02*
X129996000Y-136217922D01*
X155521922Y-116534000D02*
X156039078Y-116534000D01*
X155521922Y-115114000D02*
X156039078Y-115114000D01*
X132386000Y-103969078D02*
X132386000Y-103451922D01*
X133806000Y-103969078D02*
X133806000Y-103451922D01*
X143308000Y-95323922D02*
X143308000Y-95841078D01*
X144728000Y-95323922D02*
X144728000Y-95841078D01*
X129234000Y-95577922D02*
X129234000Y-96095078D01*
X127814000Y-95577922D02*
X127814000Y-96095078D01*
X148030000Y-95938078D02*
X148030000Y-95420922D01*
X146610000Y-95938078D02*
X146610000Y-95420922D01*
X176074000Y-115399078D02*
X176074000Y-114881922D01*
X177494000Y-115399078D02*
X177494000Y-114881922D01*
X143316000Y-103064000D02*
X140656000Y-103064000D01*
X143316000Y-110744000D02*
X143316000Y-103064000D01*
X140656000Y-110744000D02*
X140656000Y-103064000D01*
X143316000Y-110744000D02*
X140656000Y-110744000D01*
X143316000Y-112014000D02*
X143316000Y-113344000D01*
X143316000Y-113344000D02*
X141986000Y-113344000D01*
X179593500Y-129630000D02*
X179593500Y-129180000D01*
X181443500Y-129630000D02*
X179593500Y-129630000D01*
X183993500Y-121830000D02*
X183743500Y-121830000D01*
X183993500Y-129630000D02*
X183743500Y-129630000D01*
X181443500Y-121830000D02*
X179593500Y-121830000D01*
X179593500Y-121830000D02*
X179593500Y-122280000D01*
X179043500Y-127430000D02*
X179043500Y-126980000D01*
X179043500Y-127430000D02*
X179493500Y-127430000D01*
D13*
X156465600Y-134043600D02*
X157124400Y-134043600D01*
X157124400Y-134043600D02*
X157124400Y-134856400D01*
X154279600Y-134043600D02*
X154938400Y-134043600D01*
X154279600Y-134856400D02*
X154279600Y-134043600D01*
X155387600Y-101447600D02*
X156200400Y-101447600D01*
X156200400Y-101447600D02*
X156200400Y-102106400D01*
X156200400Y-104292400D02*
X155387600Y-104292400D01*
X156200400Y-103633600D02*
X156200400Y-104292400D01*
X159105600Y-134856400D02*
X159105600Y-134043600D01*
X159105600Y-134043600D02*
X159764400Y-134043600D01*
X161950400Y-134043600D02*
X161950400Y-134856400D01*
X161291600Y-134043600D02*
X161950400Y-134043600D01*
X151385600Y-134129600D02*
X152044400Y-134129600D01*
X152044400Y-134129600D02*
X152044400Y-134942400D01*
X149199600Y-134129600D02*
X149858400Y-134129600D01*
X149199600Y-134942400D02*
X149199600Y-134129600D01*
X172252600Y-119448400D02*
X172252600Y-118635600D01*
X172252600Y-118635600D02*
X172911400Y-118635600D01*
X175097400Y-118635600D02*
X175097400Y-119448400D01*
X174438600Y-118635600D02*
X175097400Y-118635600D01*
D12*
X134364000Y-127738000D02*
X134364000Y-129438000D01*
X134364000Y-129438000D02*
X127764000Y-129438000D01*
X127764000Y-129438000D02*
X127764000Y-127738000D01*
X127764000Y-124738000D02*
X127764000Y-123038000D01*
X127764000Y-123038000D02*
X134364000Y-123038000D01*
X134364000Y-123038000D02*
X134364000Y-124738000D01*
X177611000Y-135271000D02*
G75*
G02X178311000Y-135971000I0J-700000D01*
G01*
X178311000Y-136571000D02*
G75*
G02X177611000Y-137271000I-700000J0D01*
G01*
X176211000Y-137271000D02*
G75*
G02X175511000Y-136571000I0J700000D01*
G01*
X175511000Y-135971000D02*
G75*
G02X176211000Y-135271000I700000J0D01*
G01*
X175511000Y-136571000D02*
X175511000Y-135971000D01*
X177611000Y-137271000D02*
X176211000Y-137271000D01*
X178311000Y-135971000D02*
X178311000Y-136571000D01*
X176211000Y-135271000D02*
X177611000Y-135271000D01*
X170446000Y-100376000D02*
X170446000Y-99776000D01*
X173896000Y-101076000D02*
X171096000Y-101076000D01*
X174546000Y-99776000D02*
X174546000Y-100376000D01*
X171096000Y-99076000D02*
X173896000Y-99076000D01*
X173846000Y-99076000D02*
G75*
G02X174546000Y-99776000I0J-700000D01*
G01*
X174546000Y-100376000D02*
G75*
G02X173846000Y-101076000I-700000J0D01*
G01*
X171146000Y-101076000D02*
G75*
G02X170446000Y-100376000I0J700000D01*
G01*
X170446000Y-99776000D02*
G75*
G02X171146000Y-99076000I700000J0D01*
G01*
X149154000Y-126429500D02*
X149154000Y-129114500D01*
X149154000Y-129114500D02*
X151074000Y-129114500D01*
X151074000Y-129114500D02*
X151074000Y-126429500D01*
X161996000Y-129193000D02*
X161996000Y-126508000D01*
X160076000Y-129193000D02*
X161996000Y-129193000D01*
X160076000Y-126508000D02*
X160076000Y-129193000D01*
X154580000Y-126429500D02*
X154580000Y-129114500D01*
X154580000Y-129114500D02*
X156500000Y-129114500D01*
X156500000Y-129114500D02*
X156500000Y-126429500D01*
X145740000Y-129193000D02*
X145740000Y-126508000D01*
X143820000Y-129193000D02*
X145740000Y-129193000D01*
X143820000Y-126508000D02*
X143820000Y-129193000D01*
X165410000Y-126508000D02*
X165410000Y-129193000D01*
X165410000Y-129193000D02*
X167330000Y-129193000D01*
X167330000Y-129193000D02*
X167330000Y-126508000D01*
X173414000Y-108304000D02*
X173414000Y-111104000D01*
X177614000Y-108304000D02*
X177614000Y-111104000D01*
X173404758Y-111090037D02*
G75*
G03X177614000Y-111104000I2109242J1386037D01*
G01*
X177623242Y-108317963D02*
G75*
G03X173414000Y-108304000I-2109242J-1386037D01*
G01*
D11*
X132773000Y-91117000D02*
X132773000Y-91342000D01*
X140023000Y-91117000D02*
X140023000Y-91442000D01*
X140023000Y-98367000D02*
X140023000Y-98042000D01*
X132773000Y-98367000D02*
X132773000Y-98042000D01*
X132773000Y-91117000D02*
X133098000Y-91117000D01*
X132773000Y-98367000D02*
X133098000Y-98367000D01*
X140023000Y-98367000D02*
X139698000Y-98367000D01*
X140023000Y-91117000D02*
X139698000Y-91117000D01*
X132773000Y-91342000D02*
X131348000Y-91342000D01*
D12*
X175138000Y-129648000D02*
X175138000Y-128388000D01*
X175138000Y-122828000D02*
X175138000Y-124088000D01*
X171378000Y-129648000D02*
X175138000Y-129648000D01*
X169128000Y-122828000D02*
X175138000Y-122828000D01*
X138484000Y-123104000D02*
X136684000Y-123104000D01*
X136684000Y-126324000D02*
X139134000Y-126324000D01*
X181862000Y-116388000D02*
X181862000Y-115458000D01*
X181862000Y-113228000D02*
X181862000Y-114158000D01*
X181862000Y-113228000D02*
X178702000Y-113228000D01*
X181862000Y-116388000D02*
X180402000Y-116388000D01*
X160326000Y-123781078D02*
X160326000Y-123263922D01*
X161746000Y-123781078D02*
X161746000Y-123263922D01*
X150166000Y-104135422D02*
X150166000Y-104652578D01*
X151586000Y-104135422D02*
X151586000Y-104652578D01*
X137212000Y-103373422D02*
X137212000Y-103890578D01*
X138632000Y-103373422D02*
X138632000Y-103890578D01*
X170763000Y-114881922D02*
X170763000Y-115399078D01*
X169343000Y-114881922D02*
X169343000Y-115399078D01*
X158802000Y-103959922D02*
X158802000Y-104477078D01*
X160222000Y-103959922D02*
X160222000Y-104477078D01*
X174192000Y-114881922D02*
X174192000Y-115399078D01*
X172772000Y-114881922D02*
X172772000Y-115399078D01*
X156158000Y-123781078D02*
X156158000Y-123263922D01*
X154738000Y-123781078D02*
X154738000Y-123263922D01*
X149404000Y-123781078D02*
X149404000Y-123263922D01*
X150824000Y-123781078D02*
X150824000Y-123263922D01*
X145490000Y-123878078D02*
X145490000Y-123360922D01*
X144070000Y-123878078D02*
X144070000Y-123360922D01*
X137233922Y-128322000D02*
X137751078Y-128322000D01*
X137233922Y-129742000D02*
X137751078Y-129742000D01*
X167080000Y-123702578D02*
X167080000Y-123185422D01*
X165660000Y-123702578D02*
X165660000Y-123185422D01*
X180423078Y-120852000D02*
X179905922Y-120852000D01*
X180423078Y-119432000D02*
X179905922Y-119432000D01*
D15*
X159140000Y-112520000D02*
X160040000Y-113320000D01*
X160040000Y-113320000D02*
X159240000Y-114120000D01*
X159240000Y-114120000D02*
X158440000Y-113320000D01*
X160091099Y-109820000D02*
G75*
G03X160091099Y-109820000I-4551099J0D01*
G01*
D11*
X171456142Y-131357666D02*
X171503761Y-131405285D01*
X171551380Y-131548142D01*
X171551380Y-131643380D01*
X171503761Y-131786238D01*
X171408523Y-131881476D01*
X171313285Y-131929095D01*
X171122809Y-131976714D01*
X170979952Y-131976714D01*
X170789476Y-131929095D01*
X170694238Y-131881476D01*
X170599000Y-131786238D01*
X170551380Y-131643380D01*
X170551380Y-131548142D01*
X170599000Y-131405285D01*
X170646619Y-131357666D01*
X170646619Y-130976714D02*
X170599000Y-130929095D01*
X170551380Y-130833857D01*
X170551380Y-130595761D01*
X170599000Y-130500523D01*
X170646619Y-130452904D01*
X170741857Y-130405285D01*
X170837095Y-130405285D01*
X170979952Y-130452904D01*
X171551380Y-131024333D01*
X171551380Y-130405285D01*
X128293904Y-89606380D02*
X128293904Y-88606380D01*
X128674857Y-88606380D01*
X128770095Y-88654000D01*
X128817714Y-88701619D01*
X128865333Y-88796857D01*
X128865333Y-88939714D01*
X128817714Y-89034952D01*
X128770095Y-89082571D01*
X128674857Y-89130190D01*
X128293904Y-89130190D01*
X129817714Y-89606380D02*
X129246285Y-89606380D01*
X129532000Y-89606380D02*
X129532000Y-88606380D01*
X129436761Y-88749238D01*
X129341523Y-88844476D01*
X129246285Y-88892095D01*
X145685285Y-89225380D02*
X145685285Y-88225380D01*
X146018619Y-88939666D01*
X146351952Y-88225380D01*
X146351952Y-89225380D01*
X147018619Y-88749190D02*
X147018619Y-89225380D01*
X146685285Y-88225380D02*
X147018619Y-88749190D01*
X147351952Y-88225380D01*
X147637666Y-89177761D02*
X147780523Y-89225380D01*
X148018619Y-89225380D01*
X148113857Y-89177761D01*
X148161476Y-89130142D01*
X148209095Y-89034904D01*
X148209095Y-88939666D01*
X148161476Y-88844428D01*
X148113857Y-88796809D01*
X148018619Y-88749190D01*
X147828142Y-88701571D01*
X147732904Y-88653952D01*
X147685285Y-88606333D01*
X147637666Y-88511095D01*
X147637666Y-88415857D01*
X147685285Y-88320619D01*
X147732904Y-88273000D01*
X147828142Y-88225380D01*
X148066238Y-88225380D01*
X148209095Y-88273000D01*
X148542428Y-88225380D02*
X149209095Y-89225380D01*
X149209095Y-88225380D02*
X148542428Y-89225380D01*
X149351952Y-89320619D02*
X150113857Y-89320619D01*
X150304333Y-88320619D02*
X150351952Y-88273000D01*
X150447190Y-88225380D01*
X150685285Y-88225380D01*
X150780523Y-88273000D01*
X150828142Y-88320619D01*
X150875761Y-88415857D01*
X150875761Y-88511095D01*
X150828142Y-88653952D01*
X150256714Y-89225380D01*
X150875761Y-89225380D01*
X151304333Y-89130142D02*
X151351952Y-89177761D01*
X151304333Y-89225380D01*
X151256714Y-89177761D01*
X151304333Y-89130142D01*
X151304333Y-89225380D01*
X152209095Y-88225380D02*
X152018619Y-88225380D01*
X151923380Y-88273000D01*
X151875761Y-88320619D01*
X151780523Y-88463476D01*
X151732904Y-88653952D01*
X151732904Y-89034904D01*
X151780523Y-89130142D01*
X151828142Y-89177761D01*
X151923380Y-89225380D01*
X152113857Y-89225380D01*
X152209095Y-89177761D01*
X152256714Y-89130142D01*
X152304333Y-89034904D01*
X152304333Y-88796809D01*
X152256714Y-88701571D01*
X152209095Y-88653952D01*
X152113857Y-88606333D01*
X151923380Y-88606333D01*
X151828142Y-88653952D01*
X151780523Y-88701571D01*
X151732904Y-88796809D01*
D16*
X135305780Y-108557583D02*
X135229560Y-108519473D01*
X135153340Y-108443253D01*
X135039011Y-108328924D01*
X134962791Y-108290814D01*
X134886571Y-108290814D01*
X134924681Y-108481363D02*
X134848462Y-108443253D01*
X134772242Y-108367034D01*
X134734132Y-108214594D01*
X134734132Y-107947825D01*
X134772242Y-107795386D01*
X134848462Y-107719166D01*
X134924681Y-107681056D01*
X135077121Y-107681056D01*
X135153340Y-107719166D01*
X135229560Y-107795386D01*
X135267670Y-107947825D01*
X135267670Y-108214594D01*
X135229560Y-108367034D01*
X135153340Y-108443253D01*
X135077121Y-108481363D01*
X134924681Y-108481363D01*
X135953647Y-107681056D02*
X135801208Y-107681056D01*
X135724988Y-107719166D01*
X135686878Y-107757276D01*
X135610659Y-107871605D01*
X135572549Y-108024045D01*
X135572549Y-108328924D01*
X135610659Y-108405143D01*
X135648769Y-108443253D01*
X135724988Y-108481363D01*
X135877428Y-108481363D01*
X135953647Y-108443253D01*
X135991757Y-108405143D01*
X136029867Y-108328924D01*
X136029867Y-108138374D01*
X135991757Y-108062155D01*
X135953647Y-108024045D01*
X135877428Y-107985935D01*
X135724988Y-107985935D01*
X135648769Y-108024045D01*
X135610659Y-108062155D01*
X135572549Y-108138374D01*
X131981232Y-112624819D02*
X131767591Y-112624819D01*
X131767591Y-112960542D02*
X131767591Y-112319617D01*
X132072793Y-112319617D01*
X132316955Y-112960542D02*
X132316955Y-112319617D01*
X132469556Y-112319617D01*
X132561117Y-112350137D01*
X132622157Y-112411177D01*
X132652678Y-112472218D01*
X132683198Y-112594299D01*
X132683198Y-112685860D01*
X132652678Y-112807941D01*
X132622157Y-112868981D01*
X132561117Y-112930022D01*
X132469556Y-112960542D01*
X132316955Y-112960542D01*
X132957880Y-112960542D02*
X132957880Y-112319617D01*
X133324123Y-112960542D01*
X133324123Y-112319617D01*
X133568285Y-112319617D02*
X133965048Y-112319617D01*
X133751406Y-112563779D01*
X133842967Y-112563779D01*
X133904007Y-112594299D01*
X133934528Y-112624819D01*
X133965048Y-112685860D01*
X133965048Y-112838461D01*
X133934528Y-112899501D01*
X133904007Y-112930022D01*
X133842967Y-112960542D01*
X133659845Y-112960542D01*
X133598805Y-112930022D01*
X133568285Y-112899501D01*
X134178689Y-112319617D02*
X134575453Y-112319617D01*
X134361811Y-112563779D01*
X134453372Y-112563779D01*
X134514412Y-112594299D01*
X134544932Y-112624819D01*
X134575453Y-112685860D01*
X134575453Y-112838461D01*
X134544932Y-112899501D01*
X134514412Y-112930022D01*
X134453372Y-112960542D01*
X134270250Y-112960542D01*
X134209210Y-112930022D01*
X134178689Y-112899501D01*
X134789094Y-112319617D02*
X135216378Y-112319617D01*
X134941695Y-112960542D01*
X135460539Y-112960542D02*
X135460539Y-112319617D01*
X135826782Y-112960542D01*
X135826782Y-112319617D01*
D11*
X140024380Y-110402666D02*
X139548190Y-110736000D01*
X140024380Y-110974095D02*
X139024380Y-110974095D01*
X139024380Y-110593142D01*
X139072000Y-110497904D01*
X139119619Y-110450285D01*
X139214857Y-110402666D01*
X139357714Y-110402666D01*
X139452952Y-110450285D01*
X139500571Y-110497904D01*
X139548190Y-110593142D01*
X139548190Y-110974095D01*
X139024380Y-110069333D02*
X139024380Y-109450285D01*
X139405333Y-109783619D01*
X139405333Y-109640761D01*
X139452952Y-109545523D01*
X139500571Y-109497904D01*
X139595809Y-109450285D01*
X139833904Y-109450285D01*
X139929142Y-109497904D01*
X139976761Y-109545523D01*
X140024380Y-109640761D01*
X140024380Y-109926476D01*
X139976761Y-110021714D01*
X139929142Y-110069333D01*
X181657666Y-136910380D02*
X181657666Y-137624666D01*
X181610047Y-137767523D01*
X181514809Y-137862761D01*
X181371952Y-137910380D01*
X181276714Y-137910380D01*
X182562428Y-136910380D02*
X182371952Y-136910380D01*
X182276714Y-136958000D01*
X182229095Y-137005619D01*
X182133857Y-137148476D01*
X182086238Y-137338952D01*
X182086238Y-137719904D01*
X182133857Y-137815142D01*
X182181476Y-137862761D01*
X182276714Y-137910380D01*
X182467190Y-137910380D01*
X182562428Y-137862761D01*
X182610047Y-137815142D01*
X182657666Y-137719904D01*
X182657666Y-137481809D01*
X182610047Y-137386571D01*
X182562428Y-137338952D01*
X182467190Y-137291333D01*
X182276714Y-137291333D01*
X182181476Y-137338952D01*
X182133857Y-137386571D01*
X182086238Y-137481809D01*
X130531142Y-92923357D02*
X130578761Y-92970976D01*
X130626380Y-93113833D01*
X130626380Y-93209071D01*
X130578761Y-93351928D01*
X130483523Y-93447166D01*
X130388285Y-93494785D01*
X130197809Y-93542404D01*
X130054952Y-93542404D01*
X129864476Y-93494785D01*
X129769238Y-93447166D01*
X129674000Y-93351928D01*
X129626380Y-93209071D01*
X129626380Y-93113833D01*
X129674000Y-92970976D01*
X129721619Y-92923357D01*
X130626380Y-91970976D02*
X130626380Y-92542404D01*
X130626380Y-92256690D02*
X129626380Y-92256690D01*
X129769238Y-92351928D01*
X129864476Y-92447166D01*
X129912095Y-92542404D01*
X129721619Y-91590023D02*
X129674000Y-91542404D01*
X129626380Y-91447166D01*
X129626380Y-91209071D01*
X129674000Y-91113833D01*
X129721619Y-91066214D01*
X129816857Y-91018595D01*
X129912095Y-91018595D01*
X130054952Y-91066214D01*
X130626380Y-91637642D01*
X130626380Y-91018595D01*
D12*
X131551704Y-134702476D02*
X130751704Y-134702476D01*
X130751704Y-134512000D01*
X130789800Y-134397714D01*
X130865990Y-134321523D01*
X130942180Y-134283428D01*
X131094561Y-134245333D01*
X131208847Y-134245333D01*
X131361228Y-134283428D01*
X131437419Y-134321523D01*
X131513609Y-134397714D01*
X131551704Y-134512000D01*
X131551704Y-134702476D01*
X130751704Y-133978666D02*
X130751704Y-133445333D01*
X131551704Y-133788190D01*
X135832949Y-135483428D02*
X135871044Y-135369142D01*
X135871044Y-135178666D01*
X135832949Y-135102476D01*
X135794854Y-135064380D01*
X135718663Y-135026285D01*
X135642473Y-135026285D01*
X135566282Y-135064380D01*
X135528187Y-135102476D01*
X135490092Y-135178666D01*
X135451997Y-135331047D01*
X135413901Y-135407238D01*
X135375806Y-135445333D01*
X135299616Y-135483428D01*
X135223425Y-135483428D01*
X135147235Y-135445333D01*
X135109140Y-135407238D01*
X135071044Y-135331047D01*
X135071044Y-135140571D01*
X135109140Y-135026285D01*
X135832949Y-134721523D02*
X135871044Y-134607238D01*
X135871044Y-134416761D01*
X135832949Y-134340571D01*
X135794854Y-134302476D01*
X135718663Y-134264380D01*
X135642473Y-134264380D01*
X135566282Y-134302476D01*
X135528187Y-134340571D01*
X135490092Y-134416761D01*
X135451997Y-134569142D01*
X135413901Y-134645333D01*
X135375806Y-134683428D01*
X135299616Y-134721523D01*
X135223425Y-134721523D01*
X135147235Y-134683428D01*
X135109140Y-134645333D01*
X135071044Y-134569142D01*
X135071044Y-134378666D01*
X135109140Y-134264380D01*
X135871044Y-133502476D02*
X135871044Y-133959619D01*
X135871044Y-133731047D02*
X135071044Y-133731047D01*
X135185330Y-133807238D01*
X135261520Y-133883428D01*
X135299616Y-133959619D01*
X135337711Y-132816761D02*
X135871044Y-132816761D01*
X135032949Y-133007238D02*
X135604378Y-133197714D01*
X135604378Y-132702476D01*
X168255904Y-109810476D02*
X167455904Y-109810476D01*
X167455904Y-109620000D01*
X167494000Y-109505714D01*
X167570190Y-109429523D01*
X167646380Y-109391428D01*
X167798761Y-109353333D01*
X167913047Y-109353333D01*
X168065428Y-109391428D01*
X168141619Y-109429523D01*
X168217809Y-109505714D01*
X168255904Y-109620000D01*
X168255904Y-109810476D01*
X168255904Y-108591428D02*
X168255904Y-109048571D01*
X168255904Y-108820000D02*
X167455904Y-108820000D01*
X167570190Y-108896190D01*
X167646380Y-108972380D01*
X167684476Y-109048571D01*
X172281809Y-107797428D02*
X172319904Y-107683142D01*
X172319904Y-107492666D01*
X172281809Y-107416476D01*
X172243714Y-107378380D01*
X172167523Y-107340285D01*
X172091333Y-107340285D01*
X172015142Y-107378380D01*
X171977047Y-107416476D01*
X171938952Y-107492666D01*
X171900857Y-107645047D01*
X171862761Y-107721238D01*
X171824666Y-107759333D01*
X171748476Y-107797428D01*
X171672285Y-107797428D01*
X171596095Y-107759333D01*
X171558000Y-107721238D01*
X171519904Y-107645047D01*
X171519904Y-107454571D01*
X171558000Y-107340285D01*
X172281809Y-107035523D02*
X172319904Y-106921238D01*
X172319904Y-106730761D01*
X172281809Y-106654571D01*
X172243714Y-106616476D01*
X172167523Y-106578380D01*
X172091333Y-106578380D01*
X172015142Y-106616476D01*
X171977047Y-106654571D01*
X171938952Y-106730761D01*
X171900857Y-106883142D01*
X171862761Y-106959333D01*
X171824666Y-106997428D01*
X171748476Y-107035523D01*
X171672285Y-107035523D01*
X171596095Y-106997428D01*
X171558000Y-106959333D01*
X171519904Y-106883142D01*
X171519904Y-106692666D01*
X171558000Y-106578380D01*
X172319904Y-105816476D02*
X172319904Y-106273619D01*
X172319904Y-106045047D02*
X171519904Y-106045047D01*
X171634190Y-106121238D01*
X171710380Y-106197428D01*
X171748476Y-106273619D01*
X171786571Y-105130761D02*
X172319904Y-105130761D01*
X171481809Y-105321238D02*
X172053238Y-105511714D01*
X172053238Y-105016476D01*
D16*
X136000243Y-120372335D02*
X135952598Y-120419980D01*
X135809664Y-120467625D01*
X135714374Y-120467625D01*
X135571440Y-120419980D01*
X135476150Y-120324690D01*
X135428506Y-120229401D01*
X135380861Y-120038822D01*
X135380861Y-119895888D01*
X135428506Y-119705309D01*
X135476150Y-119610019D01*
X135571440Y-119514730D01*
X135714374Y-119467085D01*
X135809664Y-119467085D01*
X135952598Y-119514730D01*
X136000243Y-119562374D01*
X136571980Y-119895888D02*
X136476690Y-119848243D01*
X136429046Y-119800598D01*
X136381401Y-119705309D01*
X136381401Y-119657664D01*
X136429046Y-119562374D01*
X136476690Y-119514730D01*
X136571980Y-119467085D01*
X136762559Y-119467085D01*
X136857849Y-119514730D01*
X136905493Y-119562374D01*
X136953138Y-119657664D01*
X136953138Y-119705309D01*
X136905493Y-119800598D01*
X136857849Y-119848243D01*
X136762559Y-119895888D01*
X136571980Y-119895888D01*
X136476690Y-119943532D01*
X136429046Y-119991177D01*
X136381401Y-120086467D01*
X136381401Y-120277046D01*
X136429046Y-120372335D01*
X136476690Y-120419980D01*
X136571980Y-120467625D01*
X136762559Y-120467625D01*
X136857849Y-120419980D01*
X136905493Y-120372335D01*
X136953138Y-120277046D01*
X136953138Y-120086467D01*
X136905493Y-119991177D01*
X136857849Y-119943532D01*
X136762559Y-119895888D01*
X130821612Y-117095913D02*
X130249675Y-117095913D01*
X130535644Y-117095913D02*
X130535644Y-116095023D01*
X130440321Y-116238007D01*
X130344998Y-116333330D01*
X130249675Y-116380992D01*
X131441211Y-116095023D02*
X131536534Y-116095023D01*
X131631857Y-116142685D01*
X131679518Y-116190346D01*
X131727180Y-116285669D01*
X131774841Y-116476315D01*
X131774841Y-116714622D01*
X131727180Y-116905267D01*
X131679518Y-117000590D01*
X131631857Y-117048252D01*
X131536534Y-117095913D01*
X131441211Y-117095913D01*
X131345888Y-117048252D01*
X131298227Y-117000590D01*
X131250565Y-116905267D01*
X131202904Y-116714622D01*
X131202904Y-116476315D01*
X131250565Y-116285669D01*
X131298227Y-116190346D01*
X131345888Y-116142685D01*
X131441211Y-116095023D01*
X132394440Y-116095023D02*
X132489762Y-116095023D01*
X132585085Y-116142685D01*
X132632747Y-116190346D01*
X132680408Y-116285669D01*
X132728070Y-116476315D01*
X132728070Y-116714622D01*
X132680408Y-116905267D01*
X132632747Y-117000590D01*
X132585085Y-117048252D01*
X132489762Y-117095913D01*
X132394440Y-117095913D01*
X132299117Y-117048252D01*
X132251455Y-117000590D01*
X132203794Y-116905267D01*
X132156132Y-116714622D01*
X132156132Y-116476315D01*
X132203794Y-116285669D01*
X132251455Y-116190346D01*
X132299117Y-116142685D01*
X132394440Y-116095023D01*
X133585975Y-116428653D02*
X133585975Y-117095913D01*
X133157022Y-116428653D02*
X133157022Y-116952929D01*
X133204684Y-117048252D01*
X133300007Y-117095913D01*
X133442991Y-117095913D01*
X133538314Y-117048252D01*
X133585975Y-117000590D01*
X134396220Y-116571637D02*
X134062590Y-116571637D01*
X134062590Y-117095913D02*
X134062590Y-116095023D01*
X134539204Y-116095023D01*
X134920495Y-116714622D02*
X135683078Y-116714622D01*
X136016708Y-116095023D02*
X136588645Y-116095023D01*
X136302677Y-117095913D02*
X136302677Y-116095023D01*
X137351228Y-117095913D02*
X137351228Y-116571637D01*
X137303567Y-116476315D01*
X137208244Y-116428653D01*
X137017598Y-116428653D01*
X136922275Y-116476315D01*
X137351228Y-117048252D02*
X137255905Y-117095913D01*
X137017598Y-117095913D01*
X136922275Y-117048252D01*
X136874614Y-116952929D01*
X136874614Y-116857606D01*
X136922275Y-116762283D01*
X137017598Y-116714622D01*
X137255905Y-116714622D01*
X137351228Y-116666960D01*
X137827842Y-116428653D02*
X137827842Y-117095913D01*
X137827842Y-116523976D02*
X137875504Y-116476315D01*
X137970827Y-116428653D01*
X138113811Y-116428653D01*
X138209134Y-116476315D01*
X138256795Y-116571637D01*
X138256795Y-117095913D01*
X138590425Y-116428653D02*
X138971717Y-116428653D01*
X138733410Y-116095023D02*
X138733410Y-116952929D01*
X138781071Y-117048252D01*
X138876394Y-117095913D01*
X138971717Y-117095913D01*
X139734300Y-117095913D02*
X139734300Y-116571637D01*
X139686638Y-116476315D01*
X139591315Y-116428653D01*
X139400670Y-116428653D01*
X139305347Y-116476315D01*
X139734300Y-117048252D02*
X139638977Y-117095913D01*
X139400670Y-117095913D01*
X139305347Y-117048252D01*
X139257685Y-116952929D01*
X139257685Y-116857606D01*
X139305347Y-116762283D01*
X139400670Y-116714622D01*
X139638977Y-116714622D01*
X139734300Y-116666960D01*
X140353898Y-117095913D02*
X140258575Y-117048252D01*
X140210914Y-116952929D01*
X140210914Y-116095023D01*
X141164142Y-116428653D02*
X141164142Y-117095913D01*
X140735190Y-116428653D02*
X140735190Y-116952929D01*
X140782851Y-117048252D01*
X140878174Y-117095913D01*
X141021158Y-117095913D01*
X141116481Y-117048252D01*
X141164142Y-117000590D01*
X141640757Y-117095913D02*
X141640757Y-116428653D01*
X141640757Y-116523976D02*
X141688418Y-116476315D01*
X141783741Y-116428653D01*
X141926725Y-116428653D01*
X142022048Y-116476315D01*
X142069710Y-116571637D01*
X142069710Y-117095913D01*
X142069710Y-116571637D02*
X142117371Y-116476315D01*
X142212694Y-116428653D01*
X142355678Y-116428653D01*
X142451001Y-116476315D01*
X142498662Y-116571637D01*
X142498662Y-117095913D01*
X141309433Y-135106600D02*
X141436351Y-135148906D01*
X141647880Y-135148906D01*
X141732492Y-135106600D01*
X141774798Y-135064294D01*
X141817104Y-134979682D01*
X141817104Y-134895070D01*
X141774798Y-134810458D01*
X141732492Y-134768152D01*
X141647880Y-134725847D01*
X141478657Y-134683541D01*
X141394045Y-134641235D01*
X141351739Y-134598929D01*
X141309433Y-134514317D01*
X141309433Y-134429705D01*
X141351739Y-134345093D01*
X141394045Y-134302787D01*
X141478657Y-134260481D01*
X141690186Y-134260481D01*
X141817104Y-134302787D01*
X142113246Y-134260481D02*
X142324776Y-135148906D01*
X142494000Y-134514317D01*
X142663223Y-135148906D01*
X142874753Y-134260481D01*
X143678566Y-135148906D02*
X143170895Y-135148906D01*
X143424730Y-135148906D02*
X143424730Y-134260481D01*
X143340119Y-134387399D01*
X143255507Y-134472011D01*
X143170895Y-134514317D01*
X139239499Y-137942529D02*
X138732304Y-137942529D01*
X138985902Y-137942529D02*
X138985902Y-137054938D01*
X138901369Y-137181736D01*
X138816837Y-137266269D01*
X138732304Y-137308535D01*
X140000291Y-137350801D02*
X140000291Y-137942529D01*
X139788960Y-137012672D02*
X139577629Y-137646665D01*
X140127090Y-137646665D01*
X140380688Y-137054938D02*
X140930149Y-137054938D01*
X140634285Y-137393068D01*
X140761084Y-137393068D01*
X140845616Y-137435334D01*
X140887882Y-137477600D01*
X140930149Y-137562133D01*
X140930149Y-137773464D01*
X140887882Y-137857996D01*
X140845616Y-137900263D01*
X140761084Y-137942529D01*
X140507486Y-137942529D01*
X140422954Y-137900263D01*
X140380688Y-137857996D01*
X141226012Y-137054938D02*
X141817740Y-137054938D01*
X141437344Y-137942529D01*
X142578532Y-137054938D02*
X142155870Y-137054938D01*
X142113603Y-137477600D01*
X142155870Y-137435334D01*
X142240402Y-137393068D01*
X142451733Y-137393068D01*
X142536266Y-137435334D01*
X142578532Y-137477600D01*
X142620798Y-137562133D01*
X142620798Y-137773464D01*
X142578532Y-137857996D01*
X142536266Y-137900263D01*
X142451733Y-137942529D01*
X142240402Y-137942529D01*
X142155870Y-137900263D01*
X142113603Y-137857996D01*
X143381591Y-137054938D02*
X143212526Y-137054938D01*
X143127993Y-137097204D01*
X143085727Y-137139470D01*
X143001194Y-137266269D01*
X142958928Y-137435334D01*
X142958928Y-137773464D01*
X143001194Y-137857996D01*
X143043461Y-137900263D01*
X143127993Y-137942529D01*
X143297058Y-137942529D01*
X143381591Y-137900263D01*
X143423857Y-137857996D01*
X143466123Y-137773464D01*
X143466123Y-137562133D01*
X143423857Y-137477600D01*
X143381591Y-137435334D01*
X143297058Y-137393068D01*
X143127993Y-137393068D01*
X143043461Y-137435334D01*
X143001194Y-137477600D01*
X142958928Y-137562133D01*
X144226915Y-137054938D02*
X144057850Y-137054938D01*
X143973318Y-137097204D01*
X143931052Y-137139470D01*
X143846519Y-137266269D01*
X143804253Y-137435334D01*
X143804253Y-137773464D01*
X143846519Y-137857996D01*
X143888785Y-137900263D01*
X143973318Y-137942529D01*
X144142383Y-137942529D01*
X144226915Y-137900263D01*
X144269182Y-137857996D01*
X144311448Y-137773464D01*
X144311448Y-137562133D01*
X144269182Y-137477600D01*
X144226915Y-137435334D01*
X144142383Y-137393068D01*
X143973318Y-137393068D01*
X143888785Y-137435334D01*
X143846519Y-137477600D01*
X143804253Y-137562133D01*
X144691844Y-137604399D02*
X145368104Y-137604399D01*
X145706234Y-137054938D02*
X146255695Y-137054938D01*
X145959831Y-137393068D01*
X146086630Y-137393068D01*
X146171162Y-137435334D01*
X146213428Y-137477600D01*
X146255695Y-137562133D01*
X146255695Y-137773464D01*
X146213428Y-137857996D01*
X146171162Y-137900263D01*
X146086630Y-137942529D01*
X145833032Y-137942529D01*
X145748500Y-137900263D01*
X145706234Y-137857996D01*
X167471433Y-134979600D02*
X167598351Y-135021906D01*
X167809880Y-135021906D01*
X167894492Y-134979600D01*
X167936798Y-134937294D01*
X167979104Y-134852682D01*
X167979104Y-134768070D01*
X167936798Y-134683458D01*
X167894492Y-134641152D01*
X167809880Y-134598847D01*
X167640657Y-134556541D01*
X167556045Y-134514235D01*
X167513739Y-134471929D01*
X167471433Y-134387317D01*
X167471433Y-134302705D01*
X167513739Y-134218093D01*
X167556045Y-134175787D01*
X167640657Y-134133481D01*
X167852186Y-134133481D01*
X167979104Y-134175787D01*
X168275246Y-134133481D02*
X168486776Y-135021906D01*
X168656000Y-134387317D01*
X168825223Y-135021906D01*
X169036753Y-134133481D01*
X169332895Y-134218093D02*
X169375201Y-134175787D01*
X169459813Y-134133481D01*
X169671342Y-134133481D01*
X169755954Y-134175787D01*
X169798260Y-134218093D01*
X169840566Y-134302705D01*
X169840566Y-134387317D01*
X169798260Y-134514235D01*
X169290589Y-135021906D01*
X169840566Y-135021906D01*
X165401499Y-137815529D02*
X164894304Y-137815529D01*
X165147902Y-137815529D02*
X165147902Y-136927938D01*
X165063369Y-137054736D01*
X164978837Y-137139269D01*
X164894304Y-137181535D01*
X166162291Y-137223801D02*
X166162291Y-137815529D01*
X165950960Y-136885672D02*
X165739629Y-137519665D01*
X166289090Y-137519665D01*
X166542688Y-136927938D02*
X167092149Y-136927938D01*
X166796285Y-137266068D01*
X166923084Y-137266068D01*
X167007616Y-137308334D01*
X167049882Y-137350600D01*
X167092149Y-137435133D01*
X167092149Y-137646464D01*
X167049882Y-137730996D01*
X167007616Y-137773263D01*
X166923084Y-137815529D01*
X166669486Y-137815529D01*
X166584954Y-137773263D01*
X166542688Y-137730996D01*
X167388012Y-136927938D02*
X167979740Y-136927938D01*
X167599344Y-137815529D01*
X168740532Y-136927938D02*
X168317870Y-136927938D01*
X168275603Y-137350600D01*
X168317870Y-137308334D01*
X168402402Y-137266068D01*
X168613733Y-137266068D01*
X168698266Y-137308334D01*
X168740532Y-137350600D01*
X168782798Y-137435133D01*
X168782798Y-137646464D01*
X168740532Y-137730996D01*
X168698266Y-137773263D01*
X168613733Y-137815529D01*
X168402402Y-137815529D01*
X168317870Y-137773263D01*
X168275603Y-137730996D01*
X169543591Y-136927938D02*
X169374526Y-136927938D01*
X169289993Y-136970204D01*
X169247727Y-137012470D01*
X169163194Y-137139269D01*
X169120928Y-137308334D01*
X169120928Y-137646464D01*
X169163194Y-137730996D01*
X169205461Y-137773263D01*
X169289993Y-137815529D01*
X169459058Y-137815529D01*
X169543591Y-137773263D01*
X169585857Y-137730996D01*
X169628123Y-137646464D01*
X169628123Y-137435133D01*
X169585857Y-137350600D01*
X169543591Y-137308334D01*
X169459058Y-137266068D01*
X169289993Y-137266068D01*
X169205461Y-137308334D01*
X169163194Y-137350600D01*
X169120928Y-137435133D01*
X170388915Y-136927938D02*
X170219850Y-136927938D01*
X170135318Y-136970204D01*
X170093052Y-137012470D01*
X170008519Y-137139269D01*
X169966253Y-137308334D01*
X169966253Y-137646464D01*
X170008519Y-137730996D01*
X170050785Y-137773263D01*
X170135318Y-137815529D01*
X170304383Y-137815529D01*
X170388915Y-137773263D01*
X170431182Y-137730996D01*
X170473448Y-137646464D01*
X170473448Y-137435133D01*
X170431182Y-137350600D01*
X170388915Y-137308334D01*
X170304383Y-137266068D01*
X170135318Y-137266068D01*
X170050785Y-137308334D01*
X170008519Y-137350600D01*
X169966253Y-137435133D01*
X170853844Y-137477399D02*
X171530104Y-137477399D01*
X171868234Y-136927938D02*
X172417695Y-136927938D01*
X172121831Y-137266068D01*
X172248630Y-137266068D01*
X172333162Y-137308334D01*
X172375428Y-137350600D01*
X172417695Y-137435133D01*
X172417695Y-137646464D01*
X172375428Y-137730996D01*
X172333162Y-137773263D01*
X172248630Y-137815529D01*
X171995032Y-137815529D01*
X171910500Y-137773263D01*
X171868234Y-137730996D01*
X169939607Y-119773616D02*
X169958355Y-119792364D01*
X169977102Y-119848607D01*
X169977102Y-119886102D01*
X169958355Y-119942345D01*
X169920859Y-119979841D01*
X169883364Y-119998588D01*
X169808373Y-120017336D01*
X169752130Y-120017336D01*
X169677140Y-119998588D01*
X169639644Y-119979841D01*
X169602149Y-119942345D01*
X169583401Y-119886102D01*
X169583401Y-119848607D01*
X169602149Y-119792364D01*
X169620897Y-119773616D01*
X169977102Y-119398663D02*
X169977102Y-119623635D01*
X169977102Y-119511149D02*
X169583401Y-119511149D01*
X169639644Y-119548644D01*
X169677140Y-119586140D01*
X169695887Y-119623635D01*
X167588897Y-121758972D02*
X167570149Y-121740224D01*
X167551401Y-121702729D01*
X167551401Y-121608991D01*
X167570149Y-121571495D01*
X167588897Y-121552748D01*
X167626392Y-121534000D01*
X167663887Y-121534000D01*
X167720130Y-121552748D01*
X167945102Y-121777720D01*
X167945102Y-121534000D01*
X167588897Y-121384019D02*
X167570149Y-121365271D01*
X167551401Y-121327776D01*
X167551401Y-121234037D01*
X167570149Y-121196542D01*
X167588897Y-121177794D01*
X167626392Y-121159047D01*
X167663887Y-121159047D01*
X167720130Y-121177794D01*
X167945102Y-121402766D01*
X167945102Y-121159047D01*
X167682635Y-120821589D02*
X167945102Y-120821589D01*
X167682635Y-120990318D02*
X167888859Y-120990318D01*
X167926355Y-120971570D01*
X167945102Y-120934075D01*
X167945102Y-120877832D01*
X167926355Y-120840336D01*
X167907607Y-120821589D01*
X167738878Y-120502878D02*
X167738878Y-120634112D01*
X167945102Y-120634112D02*
X167551401Y-120634112D01*
X167551401Y-120446635D01*
X167795121Y-120296654D02*
X167795121Y-119996691D01*
X167551401Y-119865458D02*
X167551401Y-119640486D01*
X167945102Y-119752972D02*
X167551401Y-119752972D01*
X167945102Y-119340523D02*
X167738878Y-119340523D01*
X167701383Y-119359271D01*
X167682635Y-119396766D01*
X167682635Y-119471757D01*
X167701383Y-119509252D01*
X167926355Y-119340523D02*
X167945102Y-119378018D01*
X167945102Y-119471757D01*
X167926355Y-119509252D01*
X167888859Y-119528000D01*
X167851364Y-119528000D01*
X167813869Y-119509252D01*
X167795121Y-119471757D01*
X167795121Y-119378018D01*
X167776373Y-119340523D01*
X167682635Y-119153046D02*
X167945102Y-119153046D01*
X167720130Y-119153046D02*
X167701383Y-119134299D01*
X167682635Y-119096803D01*
X167682635Y-119040560D01*
X167701383Y-119003065D01*
X167738878Y-118984317D01*
X167945102Y-118984317D01*
X167682635Y-118853084D02*
X167682635Y-118703102D01*
X167551401Y-118796841D02*
X167888859Y-118796841D01*
X167926355Y-118778093D01*
X167945102Y-118740598D01*
X167945102Y-118703102D01*
X167945102Y-118403140D02*
X167738878Y-118403140D01*
X167701383Y-118421887D01*
X167682635Y-118459383D01*
X167682635Y-118534373D01*
X167701383Y-118571869D01*
X167926355Y-118403140D02*
X167945102Y-118440635D01*
X167945102Y-118534373D01*
X167926355Y-118571869D01*
X167888859Y-118590616D01*
X167851364Y-118590616D01*
X167813869Y-118571869D01*
X167795121Y-118534373D01*
X167795121Y-118440635D01*
X167776373Y-118403140D01*
X167945102Y-118159420D02*
X167926355Y-118196915D01*
X167888859Y-118215663D01*
X167551401Y-118215663D01*
X167682635Y-117840710D02*
X167945102Y-117840710D01*
X167682635Y-118009439D02*
X167888859Y-118009439D01*
X167926355Y-117990691D01*
X167945102Y-117953196D01*
X167945102Y-117896953D01*
X167926355Y-117859457D01*
X167907607Y-117840710D01*
X167945102Y-117653233D02*
X167682635Y-117653233D01*
X167720130Y-117653233D02*
X167701383Y-117634485D01*
X167682635Y-117596990D01*
X167682635Y-117540747D01*
X167701383Y-117503252D01*
X167738878Y-117484504D01*
X167945102Y-117484504D01*
X167738878Y-117484504D02*
X167701383Y-117465756D01*
X167682635Y-117428261D01*
X167682635Y-117372018D01*
X167701383Y-117334523D01*
X167738878Y-117315775D01*
X167945102Y-117315775D01*
D12*
X182365714Y-118141714D02*
X182327619Y-118179809D01*
X182213333Y-118217904D01*
X182137142Y-118217904D01*
X182022857Y-118179809D01*
X181946666Y-118103619D01*
X181908571Y-118027428D01*
X181870476Y-117875047D01*
X181870476Y-117760761D01*
X181908571Y-117608380D01*
X181946666Y-117532190D01*
X182022857Y-117456000D01*
X182137142Y-117417904D01*
X182213333Y-117417904D01*
X182327619Y-117456000D01*
X182365714Y-117494095D01*
X183127619Y-118217904D02*
X182670476Y-118217904D01*
X182899047Y-118217904D02*
X182899047Y-117417904D01*
X182822857Y-117532190D01*
X182746666Y-117608380D01*
X182670476Y-117646476D01*
X183889523Y-118217904D02*
X183432380Y-118217904D01*
X183660952Y-118217904D02*
X183660952Y-117417904D01*
X183584761Y-117532190D01*
X183508571Y-117608380D01*
X183432380Y-117646476D01*
X128047714Y-136609833D02*
X128085809Y-136647928D01*
X128123904Y-136762214D01*
X128123904Y-136838404D01*
X128085809Y-136952690D01*
X128009619Y-137028880D01*
X127933428Y-137066976D01*
X127781047Y-137105071D01*
X127666761Y-137105071D01*
X127514380Y-137066976D01*
X127438190Y-137028880D01*
X127362000Y-136952690D01*
X127323904Y-136838404D01*
X127323904Y-136762214D01*
X127362000Y-136647928D01*
X127400095Y-136609833D01*
X128123904Y-136228880D02*
X128123904Y-136076500D01*
X128085809Y-136000309D01*
X128047714Y-135962214D01*
X127933428Y-135886023D01*
X127781047Y-135847928D01*
X127476285Y-135847928D01*
X127400095Y-135886023D01*
X127362000Y-135924119D01*
X127323904Y-136000309D01*
X127323904Y-136152690D01*
X127362000Y-136228880D01*
X127400095Y-136266976D01*
X127476285Y-136305071D01*
X127666761Y-136305071D01*
X127742952Y-136266976D01*
X127781047Y-136228880D01*
X127819142Y-136152690D01*
X127819142Y-136000309D01*
X127781047Y-135924119D01*
X127742952Y-135886023D01*
X127666761Y-135847928D01*
D11*
X153122333Y-115292142D02*
X153074714Y-115339761D01*
X152931857Y-115387380D01*
X152836619Y-115387380D01*
X152693761Y-115339761D01*
X152598523Y-115244523D01*
X152550904Y-115149285D01*
X152503285Y-114958809D01*
X152503285Y-114815952D01*
X152550904Y-114625476D01*
X152598523Y-114530238D01*
X152693761Y-114435000D01*
X152836619Y-114387380D01*
X152931857Y-114387380D01*
X153074714Y-114435000D01*
X153122333Y-114482619D01*
X153455666Y-114387380D02*
X154122333Y-114387380D01*
X153693761Y-115387380D01*
X131803142Y-103877166D02*
X131850761Y-103924785D01*
X131898380Y-104067642D01*
X131898380Y-104162880D01*
X131850761Y-104305738D01*
X131755523Y-104400976D01*
X131660285Y-104448595D01*
X131469809Y-104496214D01*
X131326952Y-104496214D01*
X131136476Y-104448595D01*
X131041238Y-104400976D01*
X130946000Y-104305738D01*
X130898380Y-104162880D01*
X130898380Y-104067642D01*
X130946000Y-103924785D01*
X130993619Y-103877166D01*
X130898380Y-103020023D02*
X130898380Y-103210500D01*
X130946000Y-103305738D01*
X130993619Y-103353357D01*
X131136476Y-103448595D01*
X131326952Y-103496214D01*
X131707904Y-103496214D01*
X131803142Y-103448595D01*
X131850761Y-103400976D01*
X131898380Y-103305738D01*
X131898380Y-103115261D01*
X131850761Y-103020023D01*
X131803142Y-102972404D01*
X131707904Y-102924785D01*
X131469809Y-102924785D01*
X131374571Y-102972404D01*
X131326952Y-103020023D01*
X131279333Y-103115261D01*
X131279333Y-103305738D01*
X131326952Y-103400976D01*
X131374571Y-103448595D01*
X131469809Y-103496214D01*
X142851142Y-95749166D02*
X142898761Y-95796785D01*
X142946380Y-95939642D01*
X142946380Y-96034880D01*
X142898761Y-96177738D01*
X142803523Y-96272976D01*
X142708285Y-96320595D01*
X142517809Y-96368214D01*
X142374952Y-96368214D01*
X142184476Y-96320595D01*
X142089238Y-96272976D01*
X141994000Y-96177738D01*
X141946380Y-96034880D01*
X141946380Y-95939642D01*
X141994000Y-95796785D01*
X142041619Y-95749166D01*
X141946380Y-94844404D02*
X141946380Y-95320595D01*
X142422571Y-95368214D01*
X142374952Y-95320595D01*
X142327333Y-95225357D01*
X142327333Y-94987261D01*
X142374952Y-94892023D01*
X142422571Y-94844404D01*
X142517809Y-94796785D01*
X142755904Y-94796785D01*
X142851142Y-94844404D01*
X142898761Y-94892023D01*
X142946380Y-94987261D01*
X142946380Y-95225357D01*
X142898761Y-95320595D01*
X142851142Y-95368214D01*
X130531142Y-96003166D02*
X130578761Y-96050785D01*
X130626380Y-96193642D01*
X130626380Y-96288880D01*
X130578761Y-96431738D01*
X130483523Y-96526976D01*
X130388285Y-96574595D01*
X130197809Y-96622214D01*
X130054952Y-96622214D01*
X129864476Y-96574595D01*
X129769238Y-96526976D01*
X129674000Y-96431738D01*
X129626380Y-96288880D01*
X129626380Y-96193642D01*
X129674000Y-96050785D01*
X129721619Y-96003166D01*
X129959714Y-95146023D02*
X130626380Y-95146023D01*
X129578761Y-95384119D02*
X130293047Y-95622214D01*
X130293047Y-95003166D01*
X146027142Y-95846166D02*
X146074761Y-95893785D01*
X146122380Y-96036642D01*
X146122380Y-96131880D01*
X146074761Y-96274738D01*
X145979523Y-96369976D01*
X145884285Y-96417595D01*
X145693809Y-96465214D01*
X145550952Y-96465214D01*
X145360476Y-96417595D01*
X145265238Y-96369976D01*
X145170000Y-96274738D01*
X145122380Y-96131880D01*
X145122380Y-96036642D01*
X145170000Y-95893785D01*
X145217619Y-95846166D01*
X145122380Y-95512833D02*
X145122380Y-94893785D01*
X145503333Y-95227119D01*
X145503333Y-95084261D01*
X145550952Y-94989023D01*
X145598571Y-94941404D01*
X145693809Y-94893785D01*
X145931904Y-94893785D01*
X146027142Y-94941404D01*
X146074761Y-94989023D01*
X146122380Y-95084261D01*
X146122380Y-95369976D01*
X146074761Y-95465214D01*
X146027142Y-95512833D01*
D12*
X176269714Y-113218714D02*
X176231619Y-113256809D01*
X176117333Y-113294904D01*
X176041142Y-113294904D01*
X175926857Y-113256809D01*
X175850666Y-113180619D01*
X175812571Y-113104428D01*
X175774476Y-112952047D01*
X175774476Y-112837761D01*
X175812571Y-112685380D01*
X175850666Y-112609190D01*
X175926857Y-112533000D01*
X176041142Y-112494904D01*
X176117333Y-112494904D01*
X176231619Y-112533000D01*
X176269714Y-112571095D01*
X177031619Y-113294904D02*
X176574476Y-113294904D01*
X176803047Y-113294904D02*
X176803047Y-112494904D01*
X176726857Y-112609190D01*
X176650666Y-112685380D01*
X176574476Y-112723476D01*
X177526857Y-112494904D02*
X177603047Y-112494904D01*
X177679238Y-112533000D01*
X177717333Y-112571095D01*
X177755428Y-112647285D01*
X177793523Y-112799666D01*
X177793523Y-112990142D01*
X177755428Y-113142523D01*
X177717333Y-113218714D01*
X177679238Y-113256809D01*
X177603047Y-113294904D01*
X177526857Y-113294904D01*
X177450666Y-113256809D01*
X177412571Y-113218714D01*
X177374476Y-113142523D01*
X177336380Y-112990142D01*
X177336380Y-112799666D01*
X177374476Y-112647285D01*
X177412571Y-112571095D01*
X177450666Y-112533000D01*
X177526857Y-112494904D01*
D11*
X141652666Y-101306380D02*
X141652666Y-102020666D01*
X141605047Y-102163523D01*
X141509809Y-102258761D01*
X141366952Y-102306380D01*
X141271714Y-102306380D01*
X142605047Y-101306380D02*
X142128857Y-101306380D01*
X142081238Y-101782571D01*
X142128857Y-101734952D01*
X142224095Y-101687333D01*
X142462190Y-101687333D01*
X142557428Y-101734952D01*
X142605047Y-101782571D01*
X142652666Y-101877809D01*
X142652666Y-102115904D01*
X142605047Y-102211142D01*
X142557428Y-102258761D01*
X142462190Y-102306380D01*
X142224095Y-102306380D01*
X142128857Y-102258761D01*
X142081238Y-102211142D01*
D12*
X177869904Y-122694666D02*
X178441333Y-122694666D01*
X178555619Y-122732761D01*
X178631809Y-122808952D01*
X178669904Y-122923238D01*
X178669904Y-122999428D01*
X178669904Y-121894666D02*
X178669904Y-122351809D01*
X178669904Y-122123238D02*
X177869904Y-122123238D01*
X177984190Y-122199428D01*
X178060380Y-122275619D01*
X178098476Y-122351809D01*
D16*
X155625780Y-132518263D02*
X155549560Y-132480153D01*
X155473340Y-132403933D01*
X155359011Y-132289604D01*
X155282791Y-132251494D01*
X155206571Y-132251494D01*
X155244681Y-132442043D02*
X155168462Y-132403933D01*
X155092242Y-132327714D01*
X155054132Y-132175274D01*
X155054132Y-131908505D01*
X155092242Y-131756066D01*
X155168462Y-131679846D01*
X155244681Y-131641736D01*
X155397121Y-131641736D01*
X155473340Y-131679846D01*
X155549560Y-131756066D01*
X155587670Y-131908505D01*
X155587670Y-132175274D01*
X155549560Y-132327714D01*
X155473340Y-132403933D01*
X155397121Y-132442043D01*
X155244681Y-132442043D01*
X155854439Y-131641736D02*
X156349867Y-131641736D01*
X156083098Y-131946615D01*
X156197428Y-131946615D01*
X156273647Y-131984725D01*
X156311757Y-132022835D01*
X156349867Y-132099054D01*
X156349867Y-132289604D01*
X156311757Y-132365823D01*
X156273647Y-132403933D01*
X156197428Y-132442043D01*
X155968769Y-132442043D01*
X155892549Y-132403933D01*
X155854439Y-132365823D01*
X154013232Y-137430819D02*
X153799591Y-137430819D01*
X153799591Y-137766542D02*
X153799591Y-137125617D01*
X154104793Y-137125617D01*
X154348955Y-137766542D02*
X154348955Y-137125617D01*
X154501556Y-137125617D01*
X154593117Y-137156137D01*
X154654157Y-137217177D01*
X154684678Y-137278218D01*
X154715198Y-137400299D01*
X154715198Y-137491860D01*
X154684678Y-137613941D01*
X154654157Y-137674981D01*
X154593117Y-137736022D01*
X154501556Y-137766542D01*
X154348955Y-137766542D01*
X154989880Y-137766542D02*
X154989880Y-137125617D01*
X155356123Y-137766542D01*
X155356123Y-137125617D01*
X155600285Y-137125617D02*
X155997048Y-137125617D01*
X155783406Y-137369779D01*
X155874967Y-137369779D01*
X155936007Y-137400299D01*
X155966528Y-137430819D01*
X155997048Y-137491860D01*
X155997048Y-137644461D01*
X155966528Y-137705501D01*
X155936007Y-137736022D01*
X155874967Y-137766542D01*
X155691845Y-137766542D01*
X155630805Y-137736022D01*
X155600285Y-137705501D01*
X156210689Y-137125617D02*
X156607453Y-137125617D01*
X156393811Y-137369779D01*
X156485372Y-137369779D01*
X156546412Y-137400299D01*
X156576932Y-137430819D01*
X156607453Y-137491860D01*
X156607453Y-137644461D01*
X156576932Y-137705501D01*
X156546412Y-137736022D01*
X156485372Y-137766542D01*
X156302250Y-137766542D01*
X156241210Y-137736022D01*
X156210689Y-137705501D01*
X156821094Y-137125617D02*
X157248378Y-137125617D01*
X156973695Y-137766542D01*
X157492539Y-137766542D02*
X157492539Y-137125617D01*
X157858782Y-137766542D01*
X157858782Y-137125617D01*
X157664263Y-101168219D02*
X157626153Y-101244439D01*
X157549933Y-101320659D01*
X157435604Y-101434988D01*
X157397494Y-101511208D01*
X157397494Y-101587428D01*
X157588043Y-101549318D02*
X157549933Y-101625538D01*
X157473714Y-101701757D01*
X157321274Y-101739867D01*
X157054505Y-101739867D01*
X156902066Y-101701757D01*
X156825846Y-101625538D01*
X156787736Y-101549318D01*
X156787736Y-101396878D01*
X156825846Y-101320659D01*
X156902066Y-101244439D01*
X157054505Y-101206329D01*
X157321274Y-101206329D01*
X157473714Y-101244439D01*
X157549933Y-101320659D01*
X157588043Y-101396878D01*
X157588043Y-101549318D01*
X156863956Y-100901450D02*
X156825846Y-100863340D01*
X156787736Y-100787121D01*
X156787736Y-100596571D01*
X156825846Y-100520352D01*
X156863956Y-100482242D01*
X156940176Y-100444132D01*
X157016395Y-100444132D01*
X157130725Y-100482242D01*
X157588043Y-100939560D01*
X157588043Y-100444132D01*
X152721619Y-104813141D02*
X152721619Y-105026782D01*
X153057342Y-105026782D02*
X152416417Y-105026782D01*
X152416417Y-104721580D01*
X153057342Y-104477418D02*
X152416417Y-104477418D01*
X152416417Y-104324817D01*
X152446937Y-104233256D01*
X152507977Y-104172216D01*
X152569018Y-104141695D01*
X152691099Y-104111175D01*
X152782660Y-104111175D01*
X152904741Y-104141695D01*
X152965781Y-104172216D01*
X153026822Y-104233256D01*
X153057342Y-104324817D01*
X153057342Y-104477418D01*
X153057342Y-103836493D02*
X152416417Y-103836493D01*
X153057342Y-103470250D01*
X152416417Y-103470250D01*
X152416417Y-103226088D02*
X152416417Y-102829325D01*
X152660579Y-103042967D01*
X152660579Y-102951406D01*
X152691099Y-102890366D01*
X152721619Y-102859845D01*
X152782660Y-102829325D01*
X152935261Y-102829325D01*
X152996301Y-102859845D01*
X153026822Y-102890366D01*
X153057342Y-102951406D01*
X153057342Y-103134528D01*
X153026822Y-103195568D01*
X152996301Y-103226088D01*
X152416417Y-102615684D02*
X152416417Y-102218920D01*
X152660579Y-102432562D01*
X152660579Y-102341001D01*
X152691099Y-102279961D01*
X152721619Y-102249441D01*
X152782660Y-102218920D01*
X152935261Y-102218920D01*
X152996301Y-102249441D01*
X153026822Y-102279961D01*
X153057342Y-102341001D01*
X153057342Y-102524123D01*
X153026822Y-102585163D01*
X152996301Y-102615684D01*
X152416417Y-102005279D02*
X152416417Y-101577995D01*
X153057342Y-101852678D01*
X153057342Y-101333834D02*
X152416417Y-101333834D01*
X153057342Y-100967591D01*
X152416417Y-100967591D01*
X160517807Y-132432108D02*
X160441614Y-132394012D01*
X160365421Y-132317819D01*
X160251132Y-132203530D01*
X160174939Y-132165433D01*
X160098747Y-132165433D01*
X160136843Y-132355915D02*
X160060650Y-132317819D01*
X159984457Y-132241626D01*
X159946361Y-132089240D01*
X159946361Y-131822566D01*
X159984457Y-131670180D01*
X160060650Y-131593988D01*
X160136843Y-131555891D01*
X160289228Y-131555891D01*
X160365421Y-131593988D01*
X160441614Y-131670180D01*
X160479710Y-131822566D01*
X160479710Y-132089240D01*
X160441614Y-132241626D01*
X160365421Y-132317819D01*
X160289228Y-132355915D01*
X160136843Y-132355915D01*
X161203542Y-131555891D02*
X160822578Y-131555891D01*
X160784481Y-131936855D01*
X160822578Y-131898759D01*
X160898771Y-131860662D01*
X161089252Y-131860662D01*
X161165445Y-131898759D01*
X161203542Y-131936855D01*
X161241638Y-132013048D01*
X161241638Y-132203530D01*
X161203542Y-132279722D01*
X161165445Y-132317819D01*
X161089252Y-132355915D01*
X160898771Y-132355915D01*
X160822578Y-132317819D01*
X160784481Y-132279722D01*
X158853826Y-137431911D02*
X158640099Y-137431911D01*
X158640099Y-137767767D02*
X158640099Y-137126587D01*
X158945423Y-137126587D01*
X159189682Y-137767767D02*
X159189682Y-137126587D01*
X159342344Y-137126587D01*
X159433941Y-137157120D01*
X159495006Y-137218184D01*
X159525538Y-137279249D01*
X159556071Y-137401379D01*
X159556071Y-137492976D01*
X159525538Y-137615105D01*
X159495006Y-137676170D01*
X159433941Y-137737235D01*
X159342344Y-137767767D01*
X159189682Y-137767767D01*
X159830862Y-137767767D02*
X159830862Y-137126587D01*
X160197251Y-137767767D01*
X160197251Y-137126587D01*
X160441510Y-137126587D02*
X160838431Y-137126587D01*
X160624704Y-137370846D01*
X160716301Y-137370846D01*
X160777366Y-137401379D01*
X160807898Y-137431911D01*
X160838431Y-137492976D01*
X160838431Y-137645638D01*
X160807898Y-137706702D01*
X160777366Y-137737235D01*
X160716301Y-137767767D01*
X160533107Y-137767767D01*
X160472042Y-137737235D01*
X160441510Y-137706702D01*
X161052157Y-137126587D02*
X161449078Y-137126587D01*
X161235352Y-137370846D01*
X161326949Y-137370846D01*
X161388014Y-137401379D01*
X161418546Y-137431911D01*
X161449078Y-137492976D01*
X161449078Y-137645638D01*
X161418546Y-137706702D01*
X161388014Y-137737235D01*
X161326949Y-137767767D01*
X161143755Y-137767767D01*
X161082690Y-137737235D01*
X161052157Y-137706702D01*
X161815467Y-137401379D02*
X161754402Y-137370846D01*
X161723870Y-137340314D01*
X161693337Y-137279249D01*
X161693337Y-137248717D01*
X161723870Y-137187652D01*
X161754402Y-137157120D01*
X161815467Y-137126587D01*
X161937597Y-137126587D01*
X161998661Y-137157120D01*
X162029194Y-137187652D01*
X162059726Y-137248717D01*
X162059726Y-137279249D01*
X162029194Y-137340314D01*
X161998661Y-137370846D01*
X161937597Y-137401379D01*
X161815467Y-137401379D01*
X161754402Y-137431911D01*
X161723870Y-137462443D01*
X161693337Y-137523508D01*
X161693337Y-137645638D01*
X161723870Y-137706702D01*
X161754402Y-137737235D01*
X161815467Y-137767767D01*
X161937597Y-137767767D01*
X161998661Y-137737235D01*
X162029194Y-137706702D01*
X162059726Y-137645638D01*
X162059726Y-137523508D01*
X162029194Y-137462443D01*
X161998661Y-137431911D01*
X161937597Y-137401379D01*
X162334517Y-137767767D02*
X162334517Y-137126587D01*
X162578777Y-137126587D01*
X162639841Y-137157120D01*
X162670374Y-137187652D01*
X162700906Y-137248717D01*
X162700906Y-137340314D01*
X162670374Y-137401379D01*
X162639841Y-137431911D01*
X162578777Y-137462443D01*
X162334517Y-137462443D01*
X150479807Y-132518108D02*
X150403614Y-132480012D01*
X150327421Y-132403819D01*
X150213132Y-132289530D01*
X150136939Y-132251433D01*
X150060747Y-132251433D01*
X150098843Y-132441915D02*
X150022650Y-132403819D01*
X149946457Y-132327626D01*
X149908361Y-132175240D01*
X149908361Y-131908566D01*
X149946457Y-131756180D01*
X150022650Y-131679988D01*
X150098843Y-131641891D01*
X150251228Y-131641891D01*
X150327421Y-131679988D01*
X150403614Y-131756180D01*
X150441710Y-131908566D01*
X150441710Y-132175240D01*
X150403614Y-132327626D01*
X150327421Y-132403819D01*
X150251228Y-132441915D01*
X150098843Y-132441915D01*
X151127445Y-131908566D02*
X151127445Y-132441915D01*
X150936963Y-131603795D02*
X150746481Y-132175240D01*
X151241734Y-132175240D01*
X148947826Y-137517911D02*
X148734099Y-137517911D01*
X148734099Y-137853767D02*
X148734099Y-137212587D01*
X149039423Y-137212587D01*
X149283682Y-137853767D02*
X149283682Y-137212587D01*
X149436344Y-137212587D01*
X149527941Y-137243120D01*
X149589006Y-137304184D01*
X149619538Y-137365249D01*
X149650071Y-137487379D01*
X149650071Y-137578976D01*
X149619538Y-137701105D01*
X149589006Y-137762170D01*
X149527941Y-137823235D01*
X149436344Y-137853767D01*
X149283682Y-137853767D01*
X149924862Y-137853767D02*
X149924862Y-137212587D01*
X150291251Y-137853767D01*
X150291251Y-137212587D01*
X150535510Y-137212587D02*
X150932431Y-137212587D01*
X150718704Y-137456846D01*
X150810301Y-137456846D01*
X150871366Y-137487379D01*
X150901898Y-137517911D01*
X150932431Y-137578976D01*
X150932431Y-137731638D01*
X150901898Y-137792702D01*
X150871366Y-137823235D01*
X150810301Y-137853767D01*
X150627107Y-137853767D01*
X150566042Y-137823235D01*
X150535510Y-137792702D01*
X151146157Y-137212587D02*
X151543078Y-137212587D01*
X151329352Y-137456846D01*
X151420949Y-137456846D01*
X151482014Y-137487379D01*
X151512546Y-137517911D01*
X151543078Y-137578976D01*
X151543078Y-137731638D01*
X151512546Y-137792702D01*
X151482014Y-137823235D01*
X151420949Y-137853767D01*
X151237755Y-137853767D01*
X151176690Y-137823235D01*
X151146157Y-137792702D01*
X151909467Y-137487379D02*
X151848402Y-137456846D01*
X151817870Y-137426314D01*
X151787337Y-137365249D01*
X151787337Y-137334717D01*
X151817870Y-137273652D01*
X151848402Y-137243120D01*
X151909467Y-137212587D01*
X152031597Y-137212587D01*
X152092661Y-137243120D01*
X152123194Y-137273652D01*
X152153726Y-137334717D01*
X152153726Y-137365249D01*
X152123194Y-137426314D01*
X152092661Y-137456846D01*
X152031597Y-137487379D01*
X151909467Y-137487379D01*
X151848402Y-137517911D01*
X151817870Y-137548443D01*
X151787337Y-137609508D01*
X151787337Y-137731638D01*
X151817870Y-137792702D01*
X151848402Y-137823235D01*
X151909467Y-137853767D01*
X152031597Y-137853767D01*
X152092661Y-137823235D01*
X152123194Y-137792702D01*
X152153726Y-137731638D01*
X152153726Y-137609508D01*
X152123194Y-137548443D01*
X152092661Y-137517911D01*
X152031597Y-137487379D01*
X152428517Y-137853767D02*
X152428517Y-137212587D01*
X152672777Y-137212587D01*
X152733841Y-137243120D01*
X152764374Y-137273652D01*
X152794906Y-137334717D01*
X152794906Y-137426314D01*
X152764374Y-137487379D01*
X152733841Y-137517911D01*
X152672777Y-137548443D01*
X152428517Y-137548443D01*
X175376807Y-117956108D02*
X175300614Y-117918012D01*
X175224421Y-117841819D01*
X175110132Y-117727530D01*
X175033939Y-117689433D01*
X174957747Y-117689433D01*
X174995843Y-117879915D02*
X174919650Y-117841819D01*
X174843457Y-117765626D01*
X174805361Y-117613240D01*
X174805361Y-117346566D01*
X174843457Y-117194180D01*
X174919650Y-117117988D01*
X174995843Y-117079891D01*
X175148228Y-117079891D01*
X175224421Y-117117988D01*
X175300614Y-117194180D01*
X175338710Y-117346566D01*
X175338710Y-117613240D01*
X175300614Y-117765626D01*
X175224421Y-117841819D01*
X175148228Y-117879915D01*
X174995843Y-117879915D01*
X176100638Y-117879915D02*
X175643481Y-117879915D01*
X175872060Y-117879915D02*
X175872060Y-117079891D01*
X175795867Y-117194180D01*
X175719674Y-117270373D01*
X175643481Y-117308469D01*
X172000826Y-122023911D02*
X171787099Y-122023911D01*
X171787099Y-122359767D02*
X171787099Y-121718587D01*
X172092423Y-121718587D01*
X172336682Y-122359767D02*
X172336682Y-121718587D01*
X172489344Y-121718587D01*
X172580941Y-121749120D01*
X172642006Y-121810184D01*
X172672538Y-121871249D01*
X172703071Y-121993379D01*
X172703071Y-122084976D01*
X172672538Y-122207105D01*
X172642006Y-122268170D01*
X172580941Y-122329235D01*
X172489344Y-122359767D01*
X172336682Y-122359767D01*
X172977862Y-122359767D02*
X172977862Y-121718587D01*
X173344251Y-122359767D01*
X173344251Y-121718587D01*
X173588510Y-121718587D02*
X173985431Y-121718587D01*
X173771704Y-121962846D01*
X173863301Y-121962846D01*
X173924366Y-121993379D01*
X173954898Y-122023911D01*
X173985431Y-122084976D01*
X173985431Y-122237638D01*
X173954898Y-122298702D01*
X173924366Y-122329235D01*
X173863301Y-122359767D01*
X173680107Y-122359767D01*
X173619042Y-122329235D01*
X173588510Y-122298702D01*
X174199157Y-121718587D02*
X174596078Y-121718587D01*
X174382352Y-121962846D01*
X174473949Y-121962846D01*
X174535014Y-121993379D01*
X174565546Y-122023911D01*
X174596078Y-122084976D01*
X174596078Y-122237638D01*
X174565546Y-122298702D01*
X174535014Y-122329235D01*
X174473949Y-122359767D01*
X174290755Y-122359767D01*
X174229690Y-122329235D01*
X174199157Y-122298702D01*
X174962467Y-121993379D02*
X174901402Y-121962846D01*
X174870870Y-121932314D01*
X174840337Y-121871249D01*
X174840337Y-121840717D01*
X174870870Y-121779652D01*
X174901402Y-121749120D01*
X174962467Y-121718587D01*
X175084597Y-121718587D01*
X175145661Y-121749120D01*
X175176194Y-121779652D01*
X175206726Y-121840717D01*
X175206726Y-121871249D01*
X175176194Y-121932314D01*
X175145661Y-121962846D01*
X175084597Y-121993379D01*
X174962467Y-121993379D01*
X174901402Y-122023911D01*
X174870870Y-122054443D01*
X174840337Y-122115508D01*
X174840337Y-122237638D01*
X174870870Y-122298702D01*
X174901402Y-122329235D01*
X174962467Y-122359767D01*
X175084597Y-122359767D01*
X175145661Y-122329235D01*
X175176194Y-122298702D01*
X175206726Y-122237638D01*
X175206726Y-122115508D01*
X175176194Y-122054443D01*
X175145661Y-122023911D01*
X175084597Y-121993379D01*
X175481517Y-122359767D02*
X175481517Y-121718587D01*
X175725777Y-121718587D01*
X175786841Y-121749120D01*
X175817374Y-121779652D01*
X175847906Y-121840717D01*
X175847906Y-121932314D01*
X175817374Y-121993379D01*
X175786841Y-122023911D01*
X175725777Y-122054443D01*
X175481517Y-122054443D01*
D11*
X130897333Y-126690380D02*
X130421142Y-126690380D01*
X130421142Y-125690380D01*
X131754476Y-126690380D02*
X131183047Y-126690380D01*
X131468761Y-126690380D02*
X131468761Y-125690380D01*
X131373523Y-125833238D01*
X131278285Y-125928476D01*
X131183047Y-125976095D01*
D12*
X178900904Y-136937666D02*
X179472333Y-136937666D01*
X179586619Y-136975761D01*
X179662809Y-137051952D01*
X179700904Y-137166238D01*
X179700904Y-137242428D01*
X179700904Y-136556714D02*
X178900904Y-136556714D01*
X178900904Y-136251952D01*
X178939000Y-136175761D01*
X178977095Y-136137666D01*
X179053285Y-136099571D01*
X179167571Y-136099571D01*
X179243761Y-136137666D01*
X179281857Y-136175761D01*
X179319952Y-136251952D01*
X179319952Y-136556714D01*
X178977095Y-135794809D02*
X178939000Y-135756714D01*
X178900904Y-135680523D01*
X178900904Y-135490047D01*
X178939000Y-135413857D01*
X178977095Y-135375761D01*
X179053285Y-135337666D01*
X179129476Y-135337666D01*
X179243761Y-135375761D01*
X179700904Y-135832904D01*
X179700904Y-135337666D01*
D11*
X171662666Y-97728380D02*
X171662666Y-98442666D01*
X171615047Y-98585523D01*
X171519809Y-98680761D01*
X171376952Y-98728380D01*
X171281714Y-98728380D01*
X172138857Y-98728380D02*
X172138857Y-97728380D01*
X172519809Y-97728380D01*
X172615047Y-97776000D01*
X172662666Y-97823619D01*
X172710285Y-97918857D01*
X172710285Y-98061714D01*
X172662666Y-98156952D01*
X172615047Y-98204571D01*
X172519809Y-98252190D01*
X172138857Y-98252190D01*
X173043619Y-97728380D02*
X173662666Y-97728380D01*
X173329333Y-98109333D01*
X173472190Y-98109333D01*
X173567428Y-98156952D01*
X173615047Y-98204571D01*
X173662666Y-98299809D01*
X173662666Y-98537904D01*
X173615047Y-98633142D01*
X173567428Y-98680761D01*
X173472190Y-98728380D01*
X173186476Y-98728380D01*
X173091238Y-98680761D01*
X173043619Y-98633142D01*
X174762666Y-99528380D02*
X175381714Y-99528380D01*
X175048380Y-99909333D01*
X175191238Y-99909333D01*
X175286476Y-99956952D01*
X175334095Y-100004571D01*
X175381714Y-100099809D01*
X175381714Y-100337904D01*
X175334095Y-100433142D01*
X175286476Y-100480761D01*
X175191238Y-100528380D01*
X174905523Y-100528380D01*
X174810285Y-100480761D01*
X174762666Y-100433142D01*
X170181714Y-100528380D02*
X169610285Y-100528380D01*
X169896000Y-100528380D02*
X169896000Y-99528380D01*
X169800761Y-99671238D01*
X169705523Y-99766476D01*
X169610285Y-99814095D01*
X148916380Y-128167595D02*
X147916380Y-128167595D01*
X147916380Y-127929500D01*
X147964000Y-127786642D01*
X148059238Y-127691404D01*
X148154476Y-127643785D01*
X148344952Y-127596166D01*
X148487809Y-127596166D01*
X148678285Y-127643785D01*
X148773523Y-127691404D01*
X148868761Y-127786642D01*
X148916380Y-127929500D01*
X148916380Y-128167595D01*
X147916380Y-127262833D02*
X147916380Y-126643785D01*
X148297333Y-126977119D01*
X148297333Y-126834261D01*
X148344952Y-126739023D01*
X148392571Y-126691404D01*
X148487809Y-126643785D01*
X148725904Y-126643785D01*
X148821142Y-126691404D01*
X148868761Y-126739023D01*
X148916380Y-126834261D01*
X148916380Y-127119976D01*
X148868761Y-127215214D01*
X148821142Y-127262833D01*
X159838380Y-128246095D02*
X158838380Y-128246095D01*
X158838380Y-128008000D01*
X158886000Y-127865142D01*
X158981238Y-127769904D01*
X159076476Y-127722285D01*
X159266952Y-127674666D01*
X159409809Y-127674666D01*
X159600285Y-127722285D01*
X159695523Y-127769904D01*
X159790761Y-127865142D01*
X159838380Y-128008000D01*
X159838380Y-128246095D01*
X159171714Y-126817523D02*
X159838380Y-126817523D01*
X158790761Y-127055619D02*
X159505047Y-127293714D01*
X159505047Y-126674666D01*
X154342380Y-128167595D02*
X153342380Y-128167595D01*
X153342380Y-127929500D01*
X153390000Y-127786642D01*
X153485238Y-127691404D01*
X153580476Y-127643785D01*
X153770952Y-127596166D01*
X153913809Y-127596166D01*
X154104285Y-127643785D01*
X154199523Y-127691404D01*
X154294761Y-127786642D01*
X154342380Y-127929500D01*
X154342380Y-128167595D01*
X153437619Y-127215214D02*
X153390000Y-127167595D01*
X153342380Y-127072357D01*
X153342380Y-126834261D01*
X153390000Y-126739023D01*
X153437619Y-126691404D01*
X153532857Y-126643785D01*
X153628095Y-126643785D01*
X153770952Y-126691404D01*
X154342380Y-127262833D01*
X154342380Y-126643785D01*
X143582380Y-128246095D02*
X142582380Y-128246095D01*
X142582380Y-128008000D01*
X142630000Y-127865142D01*
X142725238Y-127769904D01*
X142820476Y-127722285D01*
X143010952Y-127674666D01*
X143153809Y-127674666D01*
X143344285Y-127722285D01*
X143439523Y-127769904D01*
X143534761Y-127865142D01*
X143582380Y-128008000D01*
X143582380Y-128246095D01*
X142582380Y-126769904D02*
X142582380Y-127246095D01*
X143058571Y-127293714D01*
X143010952Y-127246095D01*
X142963333Y-127150857D01*
X142963333Y-126912761D01*
X143010952Y-126817523D01*
X143058571Y-126769904D01*
X143153809Y-126722285D01*
X143391904Y-126722285D01*
X143487142Y-126769904D01*
X143534761Y-126817523D01*
X143582380Y-126912761D01*
X143582380Y-127150857D01*
X143534761Y-127246095D01*
X143487142Y-127293714D01*
X165172380Y-128246095D02*
X164172380Y-128246095D01*
X164172380Y-128008000D01*
X164220000Y-127865142D01*
X164315238Y-127769904D01*
X164410476Y-127722285D01*
X164600952Y-127674666D01*
X164743809Y-127674666D01*
X164934285Y-127722285D01*
X165029523Y-127769904D01*
X165124761Y-127865142D01*
X165172380Y-128008000D01*
X165172380Y-128246095D01*
X164172380Y-126817523D02*
X164172380Y-127008000D01*
X164220000Y-127103238D01*
X164267619Y-127150857D01*
X164410476Y-127246095D01*
X164600952Y-127293714D01*
X164981904Y-127293714D01*
X165077142Y-127246095D01*
X165124761Y-127198476D01*
X165172380Y-127103238D01*
X165172380Y-126912761D01*
X165124761Y-126817523D01*
X165077142Y-126769904D01*
X164981904Y-126722285D01*
X164743809Y-126722285D01*
X164648571Y-126769904D01*
X164600952Y-126817523D01*
X164553333Y-126912761D01*
X164553333Y-127103238D01*
X164600952Y-127198476D01*
X164648571Y-127246095D01*
X164743809Y-127293714D01*
X175347333Y-106624380D02*
X175014000Y-106148190D01*
X174775904Y-106624380D02*
X174775904Y-105624380D01*
X175156857Y-105624380D01*
X175252095Y-105672000D01*
X175299714Y-105719619D01*
X175347333Y-105814857D01*
X175347333Y-105957714D01*
X175299714Y-106052952D01*
X175252095Y-106100571D01*
X175156857Y-106148190D01*
X174775904Y-106148190D01*
X176204476Y-105624380D02*
X176014000Y-105624380D01*
X175918761Y-105672000D01*
X175871142Y-105719619D01*
X175775904Y-105862476D01*
X175728285Y-106052952D01*
X175728285Y-106433904D01*
X175775904Y-106529142D01*
X175823523Y-106576761D01*
X175918761Y-106624380D01*
X176109238Y-106624380D01*
X176204476Y-106576761D01*
X176252095Y-106529142D01*
X176299714Y-106433904D01*
X176299714Y-106195809D01*
X176252095Y-106100571D01*
X176204476Y-106052952D01*
X176109238Y-106005333D01*
X175918761Y-106005333D01*
X175823523Y-106052952D01*
X175775904Y-106100571D01*
X175728285Y-106195809D01*
X135636095Y-94194380D02*
X135636095Y-95003904D01*
X135683714Y-95099142D01*
X135731333Y-95146761D01*
X135826571Y-95194380D01*
X136017047Y-95194380D01*
X136112285Y-95146761D01*
X136159904Y-95099142D01*
X136207523Y-95003904D01*
X136207523Y-94194380D01*
X136588476Y-94194380D02*
X137207523Y-94194380D01*
X136874190Y-94575333D01*
X137017047Y-94575333D01*
X137112285Y-94622952D01*
X137159904Y-94670571D01*
X137207523Y-94765809D01*
X137207523Y-95003904D01*
X137159904Y-95099142D01*
X137112285Y-95146761D01*
X137017047Y-95194380D01*
X136731333Y-95194380D01*
X136636095Y-95146761D01*
X136588476Y-95099142D01*
X172680380Y-126999904D02*
X173489904Y-126999904D01*
X173585142Y-126952285D01*
X173632761Y-126904666D01*
X173680380Y-126809428D01*
X173680380Y-126618952D01*
X173632761Y-126523714D01*
X173585142Y-126476095D01*
X173489904Y-126428476D01*
X172680380Y-126428476D01*
X173680380Y-125428476D02*
X173680380Y-125999904D01*
X173680380Y-125714190D02*
X172680380Y-125714190D01*
X172823238Y-125809428D01*
X172918476Y-125904666D01*
X172966095Y-125999904D01*
X139914380Y-125475904D02*
X140723904Y-125475904D01*
X140819142Y-125428285D01*
X140866761Y-125380666D01*
X140914380Y-125285428D01*
X140914380Y-125094952D01*
X140866761Y-124999714D01*
X140819142Y-124952095D01*
X140723904Y-124904476D01*
X139914380Y-124904476D01*
X139914380Y-123952095D02*
X139914380Y-124428285D01*
X140390571Y-124475904D01*
X140342952Y-124428285D01*
X140295333Y-124333047D01*
X140295333Y-124094952D01*
X140342952Y-123999714D01*
X140390571Y-123952095D01*
X140485809Y-123904476D01*
X140723904Y-123904476D01*
X140819142Y-123952095D01*
X140866761Y-123999714D01*
X140914380Y-124094952D01*
X140914380Y-124333047D01*
X140866761Y-124428285D01*
X140819142Y-124475904D01*
X182118095Y-112736380D02*
X182118095Y-113545904D01*
X182165714Y-113641142D01*
X182213333Y-113688761D01*
X182308571Y-113736380D01*
X182499047Y-113736380D01*
X182594285Y-113688761D01*
X182641904Y-113641142D01*
X182689523Y-113545904D01*
X182689523Y-112736380D01*
X183594285Y-112736380D02*
X183403809Y-112736380D01*
X183308571Y-112784000D01*
X183260952Y-112831619D01*
X183165714Y-112974476D01*
X183118095Y-113164952D01*
X183118095Y-113545904D01*
X183165714Y-113641142D01*
X183213333Y-113688761D01*
X183308571Y-113736380D01*
X183499047Y-113736380D01*
X183594285Y-113688761D01*
X183641904Y-113641142D01*
X183689523Y-113545904D01*
X183689523Y-113307809D01*
X183641904Y-113212571D01*
X183594285Y-113164952D01*
X183499047Y-113117333D01*
X183308571Y-113117333D01*
X183213333Y-113164952D01*
X183165714Y-113212571D01*
X183118095Y-113307809D01*
X159838380Y-124165357D02*
X159362190Y-124498690D01*
X159838380Y-124736785D02*
X158838380Y-124736785D01*
X158838380Y-124355833D01*
X158886000Y-124260595D01*
X158933619Y-124212976D01*
X159028857Y-124165357D01*
X159171714Y-124165357D01*
X159266952Y-124212976D01*
X159314571Y-124260595D01*
X159362190Y-124355833D01*
X159362190Y-124736785D01*
X159838380Y-123212976D02*
X159838380Y-123784404D01*
X159838380Y-123498690D02*
X158838380Y-123498690D01*
X158981238Y-123593928D01*
X159076476Y-123689166D01*
X159124095Y-123784404D01*
X159838380Y-122260595D02*
X159838380Y-122832023D01*
X159838380Y-122546309D02*
X158838380Y-122546309D01*
X158981238Y-122641547D01*
X159076476Y-122736785D01*
X159124095Y-122832023D01*
X149550380Y-104560666D02*
X149074190Y-104894000D01*
X149550380Y-105132095D02*
X148550380Y-105132095D01*
X148550380Y-104751142D01*
X148598000Y-104655904D01*
X148645619Y-104608285D01*
X148740857Y-104560666D01*
X148883714Y-104560666D01*
X148978952Y-104608285D01*
X149026571Y-104655904D01*
X149074190Y-104751142D01*
X149074190Y-105132095D01*
X148883714Y-103703523D02*
X149550380Y-103703523D01*
X148502761Y-103941619D02*
X149217047Y-104179714D01*
X149217047Y-103560666D01*
X140024380Y-103798666D02*
X139548190Y-104132000D01*
X140024380Y-104370095D02*
X139024380Y-104370095D01*
X139024380Y-103989142D01*
X139072000Y-103893904D01*
X139119619Y-103846285D01*
X139214857Y-103798666D01*
X139357714Y-103798666D01*
X139452952Y-103846285D01*
X139500571Y-103893904D01*
X139548190Y-103989142D01*
X139548190Y-104370095D01*
X139119619Y-103417714D02*
X139072000Y-103370095D01*
X139024380Y-103274857D01*
X139024380Y-103036761D01*
X139072000Y-102941523D01*
X139119619Y-102893904D01*
X139214857Y-102846285D01*
X139310095Y-102846285D01*
X139452952Y-102893904D01*
X140024380Y-103465333D01*
X140024380Y-102846285D01*
X169886333Y-113355380D02*
X169553000Y-112879190D01*
X169314904Y-113355380D02*
X169314904Y-112355380D01*
X169695857Y-112355380D01*
X169791095Y-112403000D01*
X169838714Y-112450619D01*
X169886333Y-112545857D01*
X169886333Y-112688714D01*
X169838714Y-112783952D01*
X169791095Y-112831571D01*
X169695857Y-112879190D01*
X169314904Y-112879190D01*
X170838714Y-113355380D02*
X170267285Y-113355380D01*
X170553000Y-113355380D02*
X170553000Y-112355380D01*
X170457761Y-112498238D01*
X170362523Y-112593476D01*
X170267285Y-112641095D01*
X161614380Y-104385166D02*
X161138190Y-104718500D01*
X161614380Y-104956595D02*
X160614380Y-104956595D01*
X160614380Y-104575642D01*
X160662000Y-104480404D01*
X160709619Y-104432785D01*
X160804857Y-104385166D01*
X160947714Y-104385166D01*
X161042952Y-104432785D01*
X161090571Y-104480404D01*
X161138190Y-104575642D01*
X161138190Y-104956595D01*
X160614380Y-103480404D02*
X160614380Y-103956595D01*
X161090571Y-104004214D01*
X161042952Y-103956595D01*
X160995333Y-103861357D01*
X160995333Y-103623261D01*
X161042952Y-103528023D01*
X161090571Y-103480404D01*
X161185809Y-103432785D01*
X161423904Y-103432785D01*
X161519142Y-103480404D01*
X161566761Y-103528023D01*
X161614380Y-103623261D01*
X161614380Y-103861357D01*
X161566761Y-103956595D01*
X161519142Y-104004214D01*
D12*
X173348666Y-113391904D02*
X173082000Y-113010952D01*
X172891523Y-113391904D02*
X172891523Y-112591904D01*
X173196285Y-112591904D01*
X173272476Y-112630000D01*
X173310571Y-112668095D01*
X173348666Y-112744285D01*
X173348666Y-112858571D01*
X173310571Y-112934761D01*
X173272476Y-112972857D01*
X173196285Y-113010952D01*
X172891523Y-113010952D01*
X173615333Y-112591904D02*
X174148666Y-112591904D01*
X173805809Y-113391904D01*
D11*
X154250380Y-123689166D02*
X153774190Y-124022500D01*
X154250380Y-124260595D02*
X153250380Y-124260595D01*
X153250380Y-123879642D01*
X153298000Y-123784404D01*
X153345619Y-123736785D01*
X153440857Y-123689166D01*
X153583714Y-123689166D01*
X153678952Y-123736785D01*
X153726571Y-123784404D01*
X153774190Y-123879642D01*
X153774190Y-124260595D01*
X153678952Y-123117738D02*
X153631333Y-123212976D01*
X153583714Y-123260595D01*
X153488476Y-123308214D01*
X153440857Y-123308214D01*
X153345619Y-123260595D01*
X153298000Y-123212976D01*
X153250380Y-123117738D01*
X153250380Y-122927261D01*
X153298000Y-122832023D01*
X153345619Y-122784404D01*
X153440857Y-122736785D01*
X153488476Y-122736785D01*
X153583714Y-122784404D01*
X153631333Y-122832023D01*
X153678952Y-122927261D01*
X153678952Y-123117738D01*
X153726571Y-123212976D01*
X153774190Y-123260595D01*
X153869428Y-123308214D01*
X154059904Y-123308214D01*
X154155142Y-123260595D01*
X154202761Y-123212976D01*
X154250380Y-123117738D01*
X154250380Y-122927261D01*
X154202761Y-122832023D01*
X154155142Y-122784404D01*
X154059904Y-122736785D01*
X153869428Y-122736785D01*
X153774190Y-122784404D01*
X153726571Y-122832023D01*
X153678952Y-122927261D01*
X148916380Y-124165357D02*
X148440190Y-124498690D01*
X148916380Y-124736785D02*
X147916380Y-124736785D01*
X147916380Y-124355833D01*
X147964000Y-124260595D01*
X148011619Y-124212976D01*
X148106857Y-124165357D01*
X148249714Y-124165357D01*
X148344952Y-124212976D01*
X148392571Y-124260595D01*
X148440190Y-124355833D01*
X148440190Y-124736785D01*
X148916380Y-123212976D02*
X148916380Y-123784404D01*
X148916380Y-123498690D02*
X147916380Y-123498690D01*
X148059238Y-123593928D01*
X148154476Y-123689166D01*
X148202095Y-123784404D01*
X147916380Y-122593928D02*
X147916380Y-122498690D01*
X147964000Y-122403452D01*
X148011619Y-122355833D01*
X148106857Y-122308214D01*
X148297333Y-122260595D01*
X148535428Y-122260595D01*
X148725904Y-122308214D01*
X148821142Y-122355833D01*
X148868761Y-122403452D01*
X148916380Y-122498690D01*
X148916380Y-122593928D01*
X148868761Y-122689166D01*
X148821142Y-122736785D01*
X148725904Y-122784404D01*
X148535428Y-122832023D01*
X148297333Y-122832023D01*
X148106857Y-122784404D01*
X148011619Y-122736785D01*
X147964000Y-122689166D01*
X147916380Y-122593928D01*
X143582380Y-124262357D02*
X143106190Y-124595690D01*
X143582380Y-124833785D02*
X142582380Y-124833785D01*
X142582380Y-124452833D01*
X142630000Y-124357595D01*
X142677619Y-124309976D01*
X142772857Y-124262357D01*
X142915714Y-124262357D01*
X143010952Y-124309976D01*
X143058571Y-124357595D01*
X143106190Y-124452833D01*
X143106190Y-124833785D01*
X143582380Y-123309976D02*
X143582380Y-123881404D01*
X143582380Y-123595690D02*
X142582380Y-123595690D01*
X142725238Y-123690928D01*
X142820476Y-123786166D01*
X142868095Y-123881404D01*
X142677619Y-122929023D02*
X142630000Y-122881404D01*
X142582380Y-122786166D01*
X142582380Y-122548071D01*
X142630000Y-122452833D01*
X142677619Y-122405214D01*
X142772857Y-122357595D01*
X142868095Y-122357595D01*
X143010952Y-122405214D01*
X143582380Y-122976642D01*
X143582380Y-122357595D01*
X136849642Y-127834380D02*
X136516309Y-127358190D01*
X136278214Y-127834380D02*
X136278214Y-126834380D01*
X136659166Y-126834380D01*
X136754404Y-126882000D01*
X136802023Y-126929619D01*
X136849642Y-127024857D01*
X136849642Y-127167714D01*
X136802023Y-127262952D01*
X136754404Y-127310571D01*
X136659166Y-127358190D01*
X136278214Y-127358190D01*
X137802023Y-127834380D02*
X137230595Y-127834380D01*
X137516309Y-127834380D02*
X137516309Y-126834380D01*
X137421071Y-126977238D01*
X137325833Y-127072476D01*
X137230595Y-127120095D01*
X138659166Y-127167714D02*
X138659166Y-127834380D01*
X138421071Y-126786761D02*
X138182976Y-127501047D01*
X138802023Y-127501047D01*
X165172380Y-124086857D02*
X164696190Y-124420190D01*
X165172380Y-124658285D02*
X164172380Y-124658285D01*
X164172380Y-124277333D01*
X164220000Y-124182095D01*
X164267619Y-124134476D01*
X164362857Y-124086857D01*
X164505714Y-124086857D01*
X164600952Y-124134476D01*
X164648571Y-124182095D01*
X164696190Y-124277333D01*
X164696190Y-124658285D01*
X165172380Y-123134476D02*
X165172380Y-123705904D01*
X165172380Y-123420190D02*
X164172380Y-123420190D01*
X164315238Y-123515428D01*
X164410476Y-123610666D01*
X164458095Y-123705904D01*
X164172380Y-122801142D02*
X164172380Y-122182095D01*
X164553333Y-122515428D01*
X164553333Y-122372571D01*
X164600952Y-122277333D01*
X164648571Y-122229714D01*
X164743809Y-122182095D01*
X164981904Y-122182095D01*
X165077142Y-122229714D01*
X165124761Y-122277333D01*
X165172380Y-122372571D01*
X165172380Y-122658285D01*
X165124761Y-122753523D01*
X165077142Y-122801142D01*
D12*
X182746666Y-120503904D02*
X182480000Y-120122952D01*
X182289523Y-120503904D02*
X182289523Y-119703904D01*
X182594285Y-119703904D01*
X182670476Y-119742000D01*
X182708571Y-119780095D01*
X182746666Y-119856285D01*
X182746666Y-119970571D01*
X182708571Y-120046761D01*
X182670476Y-120084857D01*
X182594285Y-120122952D01*
X182289523Y-120122952D01*
X183127619Y-120503904D02*
X183280000Y-120503904D01*
X183356190Y-120465809D01*
X183394285Y-120427714D01*
X183470476Y-120313428D01*
X183508571Y-120161047D01*
X183508571Y-119856285D01*
X183470476Y-119780095D01*
X183432380Y-119742000D01*
X183356190Y-119703904D01*
X183203809Y-119703904D01*
X183127619Y-119742000D01*
X183089523Y-119780095D01*
X183051428Y-119856285D01*
X183051428Y-120046761D01*
X183089523Y-120122952D01*
X183127619Y-120161047D01*
X183203809Y-120199142D01*
X183356190Y-120199142D01*
X183432380Y-120161047D01*
X183470476Y-120122952D01*
X183508571Y-120046761D01*
D11*
X148992380Y-110481904D02*
X149801904Y-110481904D01*
X149897142Y-110434285D01*
X149944761Y-110386666D01*
X149992380Y-110291428D01*
X149992380Y-110100952D01*
X149944761Y-110005714D01*
X149897142Y-109958095D01*
X149801904Y-109910476D01*
X148992380Y-109910476D01*
X149087619Y-109481904D02*
X149040000Y-109434285D01*
X148992380Y-109339047D01*
X148992380Y-109100952D01*
X149040000Y-109005714D01*
X149087619Y-108958095D01*
X149182857Y-108910476D01*
X149278095Y-108910476D01*
X149420952Y-108958095D01*
X149992380Y-109529523D01*
X149992380Y-108910476D01*
D17*
X171094476Y-88461904D02*
X171094476Y-89109523D01*
X171132571Y-89185714D01*
X171170666Y-89223809D01*
X171246857Y-89261904D01*
X171399238Y-89261904D01*
X171475428Y-89223809D01*
X171513523Y-89185714D01*
X171551619Y-89109523D01*
X171551619Y-88461904D01*
X172275428Y-88728571D02*
X172275428Y-89261904D01*
X172084952Y-88423809D02*
X171894476Y-88995238D01*
X172389714Y-88995238D01*
M02*
