%TF.GenerationSoftware,KiCad,Pcbnew,5.0.2-bee76a0~70~ubuntu18.04.1*%
%TF.CreationDate,2019-07-20T10:54:43+02:00*%
%TF.ProjectId,BT-Pcb-328P,42542d50-6362-42d3-9332-38502e6b6963,1.0*%
%TF.SameCoordinates,Original*%
%TF.FileFunction,Paste,Bot*%
%TF.FilePolarity,Positive*%
%FSLAX46Y46*%
G04 Gerber Fmt 4.6, Leading zero omitted, Abs format (unit mm)*
G04 Created by KiCad (PCBNEW 5.0.2-bee76a0~70~ubuntu18.04.1) date sab 20 lug 2019 10:54:43 CEST*
%MOMM*%
%LPD*%
G01*
G04 APERTURE LIST*
%ADD10C,0.150000*%
%ADD11C,1.600000*%
%ADD12R,2.000000X1.000000*%
%ADD13R,2.540000X3.510000*%
G04 APERTURE END LIST*
D10*
X184040000Y-138320000D02*
X184040000Y-81320000D01*
X127040000Y-138320000D02*
X127040000Y-81320000D01*
X127040000Y-138320000D02*
X184040000Y-138320000D01*
X127040000Y-81320000D02*
X184040000Y-81320000D01*
G36*
X171794504Y-100293204D02*
X171818773Y-100296804D01*
X171842571Y-100302765D01*
X171865671Y-100311030D01*
X171887849Y-100321520D01*
X171908893Y-100334133D01*
X171928598Y-100348747D01*
X171946777Y-100365223D01*
X171963253Y-100383402D01*
X171977867Y-100403107D01*
X171990480Y-100424151D01*
X172000970Y-100446329D01*
X172009235Y-100469429D01*
X172015196Y-100493227D01*
X172018796Y-100517496D01*
X172020000Y-100542000D01*
X172020000Y-101642000D01*
X172018796Y-101666504D01*
X172015196Y-101690773D01*
X172009235Y-101714571D01*
X172000970Y-101737671D01*
X171990480Y-101759849D01*
X171977867Y-101780893D01*
X171963253Y-101800598D01*
X171946777Y-101818777D01*
X171928598Y-101835253D01*
X171908893Y-101849867D01*
X171887849Y-101862480D01*
X171865671Y-101872970D01*
X171842571Y-101881235D01*
X171818773Y-101887196D01*
X171794504Y-101890796D01*
X171770000Y-101892000D01*
X169270000Y-101892000D01*
X169245496Y-101890796D01*
X169221227Y-101887196D01*
X169197429Y-101881235D01*
X169174329Y-101872970D01*
X169152151Y-101862480D01*
X169131107Y-101849867D01*
X169111402Y-101835253D01*
X169093223Y-101818777D01*
X169076747Y-101800598D01*
X169062133Y-101780893D01*
X169049520Y-101759849D01*
X169039030Y-101737671D01*
X169030765Y-101714571D01*
X169024804Y-101690773D01*
X169021204Y-101666504D01*
X169020000Y-101642000D01*
X169020000Y-100542000D01*
X169021204Y-100517496D01*
X169024804Y-100493227D01*
X169030765Y-100469429D01*
X169039030Y-100446329D01*
X169049520Y-100424151D01*
X169062133Y-100403107D01*
X169076747Y-100383402D01*
X169093223Y-100365223D01*
X169111402Y-100348747D01*
X169131107Y-100334133D01*
X169152151Y-100321520D01*
X169174329Y-100311030D01*
X169197429Y-100302765D01*
X169221227Y-100296804D01*
X169245496Y-100293204D01*
X169270000Y-100292000D01*
X171770000Y-100292000D01*
X171794504Y-100293204D01*
X171794504Y-100293204D01*
G37*
D11*
X170520000Y-101092000D03*
D10*
G36*
X176194504Y-100293204D02*
X176218773Y-100296804D01*
X176242571Y-100302765D01*
X176265671Y-100311030D01*
X176287849Y-100321520D01*
X176308893Y-100334133D01*
X176328598Y-100348747D01*
X176346777Y-100365223D01*
X176363253Y-100383402D01*
X176377867Y-100403107D01*
X176390480Y-100424151D01*
X176400970Y-100446329D01*
X176409235Y-100469429D01*
X176415196Y-100493227D01*
X176418796Y-100517496D01*
X176420000Y-100542000D01*
X176420000Y-101642000D01*
X176418796Y-101666504D01*
X176415196Y-101690773D01*
X176409235Y-101714571D01*
X176400970Y-101737671D01*
X176390480Y-101759849D01*
X176377867Y-101780893D01*
X176363253Y-101800598D01*
X176346777Y-101818777D01*
X176328598Y-101835253D01*
X176308893Y-101849867D01*
X176287849Y-101862480D01*
X176265671Y-101872970D01*
X176242571Y-101881235D01*
X176218773Y-101887196D01*
X176194504Y-101890796D01*
X176170000Y-101892000D01*
X173670000Y-101892000D01*
X173645496Y-101890796D01*
X173621227Y-101887196D01*
X173597429Y-101881235D01*
X173574329Y-101872970D01*
X173552151Y-101862480D01*
X173531107Y-101849867D01*
X173511402Y-101835253D01*
X173493223Y-101818777D01*
X173476747Y-101800598D01*
X173462133Y-101780893D01*
X173449520Y-101759849D01*
X173439030Y-101737671D01*
X173430765Y-101714571D01*
X173424804Y-101690773D01*
X173421204Y-101666504D01*
X173420000Y-101642000D01*
X173420000Y-100542000D01*
X173421204Y-100517496D01*
X173424804Y-100493227D01*
X173430765Y-100469429D01*
X173439030Y-100446329D01*
X173449520Y-100424151D01*
X173462133Y-100403107D01*
X173476747Y-100383402D01*
X173493223Y-100365223D01*
X173511402Y-100348747D01*
X173531107Y-100334133D01*
X173552151Y-100321520D01*
X173574329Y-100311030D01*
X173597429Y-100302765D01*
X173621227Y-100296804D01*
X173645496Y-100293204D01*
X173670000Y-100292000D01*
X176170000Y-100292000D01*
X176194504Y-100293204D01*
X176194504Y-100293204D01*
G37*
D11*
X174920000Y-101092000D03*
D12*
X158560000Y-89834000D03*
X158560000Y-91104000D03*
X158560000Y-92374000D03*
X158560000Y-93644000D03*
X158560000Y-94914000D03*
X158560000Y-96184000D03*
X158560000Y-97454000D03*
X158560000Y-98724000D03*
D10*
G36*
X167126504Y-109183204D02*
X167150773Y-109186804D01*
X167174571Y-109192765D01*
X167197671Y-109201030D01*
X167219849Y-109211520D01*
X167240893Y-109224133D01*
X167260598Y-109238747D01*
X167278777Y-109255223D01*
X167295253Y-109273402D01*
X167309867Y-109293107D01*
X167322480Y-109314151D01*
X167332970Y-109336329D01*
X167341235Y-109359429D01*
X167347196Y-109383227D01*
X167350796Y-109407496D01*
X167352000Y-109432000D01*
X167352000Y-110532000D01*
X167350796Y-110556504D01*
X167347196Y-110580773D01*
X167341235Y-110604571D01*
X167332970Y-110627671D01*
X167322480Y-110649849D01*
X167309867Y-110670893D01*
X167295253Y-110690598D01*
X167278777Y-110708777D01*
X167260598Y-110725253D01*
X167240893Y-110739867D01*
X167219849Y-110752480D01*
X167197671Y-110762970D01*
X167174571Y-110771235D01*
X167150773Y-110777196D01*
X167126504Y-110780796D01*
X167102000Y-110782000D01*
X164102000Y-110782000D01*
X164077496Y-110780796D01*
X164053227Y-110777196D01*
X164029429Y-110771235D01*
X164006329Y-110762970D01*
X163984151Y-110752480D01*
X163963107Y-110739867D01*
X163943402Y-110725253D01*
X163925223Y-110708777D01*
X163908747Y-110690598D01*
X163894133Y-110670893D01*
X163881520Y-110649849D01*
X163871030Y-110627671D01*
X163862765Y-110604571D01*
X163856804Y-110580773D01*
X163853204Y-110556504D01*
X163852000Y-110532000D01*
X163852000Y-109432000D01*
X163853204Y-109407496D01*
X163856804Y-109383227D01*
X163862765Y-109359429D01*
X163871030Y-109336329D01*
X163881520Y-109314151D01*
X163894133Y-109293107D01*
X163908747Y-109273402D01*
X163925223Y-109255223D01*
X163943402Y-109238747D01*
X163963107Y-109224133D01*
X163984151Y-109211520D01*
X164006329Y-109201030D01*
X164029429Y-109192765D01*
X164053227Y-109186804D01*
X164077496Y-109183204D01*
X164102000Y-109182000D01*
X167102000Y-109182000D01*
X167126504Y-109183204D01*
X167126504Y-109183204D01*
G37*
D11*
X165602000Y-109982000D03*
D10*
G36*
X172726504Y-109183204D02*
X172750773Y-109186804D01*
X172774571Y-109192765D01*
X172797671Y-109201030D01*
X172819849Y-109211520D01*
X172840893Y-109224133D01*
X172860598Y-109238747D01*
X172878777Y-109255223D01*
X172895253Y-109273402D01*
X172909867Y-109293107D01*
X172922480Y-109314151D01*
X172932970Y-109336329D01*
X172941235Y-109359429D01*
X172947196Y-109383227D01*
X172950796Y-109407496D01*
X172952000Y-109432000D01*
X172952000Y-110532000D01*
X172950796Y-110556504D01*
X172947196Y-110580773D01*
X172941235Y-110604571D01*
X172932970Y-110627671D01*
X172922480Y-110649849D01*
X172909867Y-110670893D01*
X172895253Y-110690598D01*
X172878777Y-110708777D01*
X172860598Y-110725253D01*
X172840893Y-110739867D01*
X172819849Y-110752480D01*
X172797671Y-110762970D01*
X172774571Y-110771235D01*
X172750773Y-110777196D01*
X172726504Y-110780796D01*
X172702000Y-110782000D01*
X169702000Y-110782000D01*
X169677496Y-110780796D01*
X169653227Y-110777196D01*
X169629429Y-110771235D01*
X169606329Y-110762970D01*
X169584151Y-110752480D01*
X169563107Y-110739867D01*
X169543402Y-110725253D01*
X169525223Y-110708777D01*
X169508747Y-110690598D01*
X169494133Y-110670893D01*
X169481520Y-110649849D01*
X169471030Y-110627671D01*
X169462765Y-110604571D01*
X169456804Y-110580773D01*
X169453204Y-110556504D01*
X169452000Y-110532000D01*
X169452000Y-109432000D01*
X169453204Y-109407496D01*
X169456804Y-109383227D01*
X169462765Y-109359429D01*
X169471030Y-109336329D01*
X169481520Y-109314151D01*
X169494133Y-109293107D01*
X169508747Y-109273402D01*
X169525223Y-109255223D01*
X169543402Y-109238747D01*
X169563107Y-109224133D01*
X169584151Y-109211520D01*
X169606329Y-109201030D01*
X169629429Y-109192765D01*
X169653227Y-109186804D01*
X169677496Y-109183204D01*
X169702000Y-109182000D01*
X172702000Y-109182000D01*
X172726504Y-109183204D01*
X172726504Y-109183204D01*
G37*
D11*
X171202000Y-109982000D03*
D13*
X170220000Y-126238000D03*
X140860000Y-126238000D03*
M02*
