G04 #@! TF.GenerationSoftware,KiCad,Pcbnew,5.1.6-c6e7f7d~87~ubuntu18.04.1*
G04 #@! TF.CreationDate,2020-07-15T21:48:52+02:00*
G04 #@! TF.ProjectId,BT-Pcb-328P,42542d50-6362-42d3-9332-38502e6b6963,3.0*
G04 #@! TF.SameCoordinates,Original*
G04 #@! TF.FileFunction,Soldermask,Top*
G04 #@! TF.FilePolarity,Negative*
%FSLAX46Y46*%
G04 Gerber Fmt 4.6, Leading zero omitted, Abs format (unit mm)*
G04 Created by KiCad (PCBNEW 5.1.6-c6e7f7d~87~ubuntu18.04.1) date 2020-07-15 21:48:52*
%MOMM*%
%LPD*%
G01*
G04 APERTURE LIST*
G04 #@! TA.AperFunction,Profile*
%ADD10C,0.150000*%
G04 #@! TD*
%ADD11C,0.100000*%
G04 APERTURE END LIST*
D10*
X184040000Y-138320000D02*
X184040000Y-81320000D01*
X127040000Y-138320000D02*
X127040000Y-81320000D01*
X127040000Y-138320000D02*
X184040000Y-138320000D01*
X127040000Y-81320000D02*
X184040000Y-81320000D01*
D11*
G36*
X132488798Y-135346023D02*
G01*
X132492141Y-135346688D01*
X132497045Y-135346929D01*
X132522556Y-135346929D01*
X132537072Y-135348358D01*
X132628379Y-135366521D01*
X132630742Y-135367238D01*
X132630748Y-135367239D01*
X132639984Y-135370041D01*
X132639986Y-135370042D01*
X132642347Y-135370758D01*
X132728366Y-135406388D01*
X132741224Y-135413260D01*
X132818644Y-135464991D01*
X132820547Y-135466553D01*
X132820552Y-135466556D01*
X132828013Y-135472679D01*
X132829920Y-135474244D01*
X132895756Y-135540080D01*
X132897320Y-135541986D01*
X132897321Y-135541987D01*
X132903444Y-135549448D01*
X132903447Y-135549453D01*
X132905009Y-135551356D01*
X132956740Y-135628776D01*
X132963612Y-135641634D01*
X132999242Y-135727653D01*
X132999958Y-135730014D01*
X132999959Y-135730016D01*
X133002761Y-135739252D01*
X133002762Y-135739258D01*
X133003479Y-135741621D01*
X133021642Y-135832928D01*
X133023071Y-135847444D01*
X133023071Y-135872955D01*
X133024032Y-135882709D01*
X133024186Y-135883325D01*
X133025479Y-135896453D01*
X133025479Y-136391547D01*
X133023977Y-136406798D01*
X133023312Y-136410141D01*
X133023071Y-136415045D01*
X133023071Y-136440556D01*
X133021642Y-136455072D01*
X133003479Y-136546379D01*
X133002762Y-136548742D01*
X133002761Y-136548748D01*
X132999959Y-136557984D01*
X132999242Y-136560347D01*
X132963612Y-136646366D01*
X132956740Y-136659224D01*
X132905009Y-136736644D01*
X132903447Y-136738547D01*
X132903444Y-136738552D01*
X132897321Y-136746013D01*
X132895756Y-136747920D01*
X132829920Y-136813756D01*
X132828014Y-136815320D01*
X132828013Y-136815321D01*
X132820552Y-136821444D01*
X132820547Y-136821447D01*
X132818644Y-136823009D01*
X132741224Y-136874740D01*
X132728366Y-136881612D01*
X132642347Y-136917242D01*
X132639986Y-136917958D01*
X132639984Y-136917959D01*
X132630748Y-136920761D01*
X132630742Y-136920762D01*
X132628379Y-136921479D01*
X132537072Y-136939642D01*
X132522556Y-136941071D01*
X132497045Y-136941071D01*
X132487291Y-136942032D01*
X132486675Y-136942186D01*
X132473547Y-136943479D01*
X131978453Y-136943479D01*
X131966395Y-136942292D01*
X131957159Y-136939490D01*
X131948646Y-136934940D01*
X131941184Y-136928816D01*
X131935060Y-136921354D01*
X131930510Y-136912841D01*
X131927708Y-136903605D01*
X131926521Y-136891547D01*
X131926521Y-135396453D01*
X131927708Y-135384395D01*
X131930510Y-135375159D01*
X131935060Y-135366646D01*
X131941184Y-135359184D01*
X131948646Y-135353060D01*
X131957159Y-135348510D01*
X131966395Y-135345708D01*
X131978453Y-135344521D01*
X132473547Y-135344521D01*
X132488798Y-135346023D01*
G37*
G36*
X131685605Y-135345708D02*
G01*
X131694841Y-135348510D01*
X131703354Y-135353060D01*
X131710816Y-135359184D01*
X131716940Y-135366646D01*
X131721490Y-135375159D01*
X131724292Y-135384395D01*
X131725479Y-135396453D01*
X131725479Y-136891547D01*
X131724292Y-136903605D01*
X131721490Y-136912841D01*
X131716940Y-136921354D01*
X131710816Y-136928816D01*
X131703354Y-136934940D01*
X131694841Y-136939490D01*
X131685605Y-136942292D01*
X131673547Y-136943479D01*
X131178453Y-136943479D01*
X131163202Y-136941977D01*
X131159859Y-136941312D01*
X131154955Y-136941071D01*
X131129444Y-136941071D01*
X131114928Y-136939642D01*
X131023621Y-136921479D01*
X131021258Y-136920762D01*
X131021252Y-136920761D01*
X131012016Y-136917959D01*
X131012014Y-136917958D01*
X131009653Y-136917242D01*
X130923634Y-136881612D01*
X130910776Y-136874740D01*
X130833356Y-136823009D01*
X130831453Y-136821447D01*
X130831448Y-136821444D01*
X130823987Y-136815321D01*
X130823986Y-136815320D01*
X130822080Y-136813756D01*
X130756244Y-136747920D01*
X130754679Y-136746013D01*
X130748556Y-136738552D01*
X130748553Y-136738547D01*
X130746991Y-136736644D01*
X130695260Y-136659224D01*
X130688388Y-136646366D01*
X130652758Y-136560347D01*
X130652041Y-136557984D01*
X130649239Y-136548748D01*
X130649238Y-136548742D01*
X130648521Y-136546379D01*
X130630358Y-136455072D01*
X130628929Y-136440556D01*
X130628929Y-136415045D01*
X130627968Y-136405291D01*
X130627814Y-136404675D01*
X130626521Y-136391547D01*
X130626521Y-135896453D01*
X130628023Y-135881202D01*
X130628688Y-135877859D01*
X130628929Y-135872955D01*
X130628929Y-135847444D01*
X130630358Y-135832928D01*
X130648521Y-135741621D01*
X130649238Y-135739258D01*
X130649239Y-135739252D01*
X130652041Y-135730016D01*
X130652042Y-135730014D01*
X130652758Y-135727653D01*
X130688388Y-135641634D01*
X130695260Y-135628776D01*
X130746991Y-135551356D01*
X130748553Y-135549453D01*
X130748556Y-135549448D01*
X130754679Y-135541987D01*
X130754680Y-135541986D01*
X130756244Y-135540080D01*
X130822080Y-135474244D01*
X130823987Y-135472679D01*
X130831448Y-135466556D01*
X130831453Y-135466553D01*
X130833356Y-135464991D01*
X130910776Y-135413260D01*
X130923634Y-135406388D01*
X131009653Y-135370758D01*
X131012014Y-135370042D01*
X131012016Y-135370041D01*
X131021252Y-135367239D01*
X131021258Y-135367238D01*
X131023621Y-135366521D01*
X131114928Y-135348358D01*
X131129444Y-135346929D01*
X131154955Y-135346929D01*
X131164709Y-135345968D01*
X131165325Y-135345814D01*
X131178453Y-135344521D01*
X131673547Y-135344521D01*
X131685605Y-135345708D01*
G37*
G36*
X182890000Y-136027000D02*
G01*
X181092000Y-136027000D01*
X181092000Y-134229000D01*
X182890000Y-134229000D01*
X182890000Y-136027000D01*
G37*
G36*
X174395000Y-135469000D02*
G01*
X172117000Y-135469000D01*
X172117000Y-133771000D01*
X174395000Y-133771000D01*
X174395000Y-135469000D01*
G37*
G36*
X165195000Y-135469000D02*
G01*
X162917000Y-135469000D01*
X162917000Y-133771000D01*
X165195000Y-133771000D01*
X165195000Y-135469000D01*
G37*
G36*
X148233000Y-135469000D02*
G01*
X145955000Y-135469000D01*
X145955000Y-133771000D01*
X148233000Y-133771000D01*
X148233000Y-135469000D01*
G37*
G36*
X139033000Y-135469000D02*
G01*
X136755000Y-135469000D01*
X136755000Y-133771000D01*
X139033000Y-133771000D01*
X139033000Y-135469000D01*
G37*
G36*
X129444982Y-130315734D02*
G01*
X129521420Y-130338921D01*
X129597857Y-130362108D01*
X129738747Y-130437415D01*
X129862238Y-130538762D01*
X129963585Y-130662252D01*
X130038892Y-130803142D01*
X130053135Y-130850095D01*
X130085266Y-130956017D01*
X130097000Y-131075156D01*
X130097000Y-133592844D01*
X130085266Y-133711983D01*
X130067363Y-133771000D01*
X130038892Y-133864858D01*
X129963585Y-134005748D01*
X129862238Y-134129238D01*
X129738748Y-134230585D01*
X129597858Y-134305892D01*
X129521421Y-134329079D01*
X129444983Y-134352266D01*
X129286000Y-134367924D01*
X129127018Y-134352266D01*
X129050580Y-134329079D01*
X128974143Y-134305892D01*
X128833253Y-134230585D01*
X128709763Y-134129238D01*
X128608416Y-134005748D01*
X128533109Y-133864858D01*
X128504638Y-133771000D01*
X128486735Y-133711983D01*
X128475001Y-133592844D01*
X128475000Y-131075157D01*
X128486734Y-130956018D01*
X128518866Y-130850095D01*
X128533108Y-130803143D01*
X128608415Y-130662253D01*
X128709762Y-130538762D01*
X128833252Y-130437415D01*
X128974142Y-130362108D01*
X129050579Y-130338922D01*
X129127017Y-130315734D01*
X129286000Y-130300076D01*
X129444982Y-130315734D01*
G37*
G36*
X176944982Y-130315734D02*
G01*
X177021420Y-130338921D01*
X177097857Y-130362108D01*
X177238747Y-130437415D01*
X177362238Y-130538762D01*
X177463585Y-130662252D01*
X177538892Y-130803142D01*
X177553135Y-130850095D01*
X177585266Y-130956017D01*
X177597000Y-131075156D01*
X177597000Y-133592844D01*
X177585266Y-133711983D01*
X177567363Y-133771000D01*
X177538892Y-133864858D01*
X177463585Y-134005748D01*
X177362238Y-134129238D01*
X177238748Y-134230585D01*
X177097858Y-134305892D01*
X177021421Y-134329079D01*
X176944983Y-134352266D01*
X176786000Y-134367924D01*
X176627018Y-134352266D01*
X176550580Y-134329079D01*
X176474143Y-134305892D01*
X176333253Y-134230585D01*
X176209763Y-134129238D01*
X176108416Y-134005748D01*
X176033109Y-133864858D01*
X176004638Y-133771000D01*
X175986735Y-133711983D01*
X175975001Y-133592844D01*
X175975000Y-131075157D01*
X175986734Y-130956018D01*
X176018866Y-130850095D01*
X176033108Y-130803143D01*
X176108415Y-130662253D01*
X176209762Y-130538762D01*
X176333252Y-130437415D01*
X176474142Y-130362108D01*
X176550579Y-130338922D01*
X176627017Y-130315734D01*
X176786000Y-130300076D01*
X176944982Y-130315734D01*
G37*
G36*
X133903159Y-132564411D02*
G01*
X133948744Y-132578239D01*
X133990761Y-132600698D01*
X134027583Y-132630917D01*
X134057802Y-132667739D01*
X134080261Y-132709756D01*
X134094089Y-132755341D01*
X134099000Y-132805204D01*
X134099000Y-133386796D01*
X134094089Y-133436659D01*
X134080261Y-133482244D01*
X134057802Y-133524261D01*
X134027583Y-133561083D01*
X133990761Y-133591302D01*
X133948744Y-133613761D01*
X133903159Y-133627589D01*
X133853296Y-133632500D01*
X132846704Y-133632500D01*
X132796841Y-133627589D01*
X132751256Y-133613761D01*
X132709239Y-133591302D01*
X132672417Y-133561083D01*
X132642198Y-133524261D01*
X132619739Y-133482244D01*
X132605911Y-133436659D01*
X132601000Y-133386796D01*
X132601000Y-132805204D01*
X132605911Y-132755341D01*
X132619739Y-132709756D01*
X132642198Y-132667739D01*
X132672417Y-132630917D01*
X132709239Y-132600698D01*
X132751256Y-132578239D01*
X132796841Y-132564411D01*
X132846704Y-132559500D01*
X133853296Y-132559500D01*
X133903159Y-132564411D01*
G37*
G36*
X182253227Y-131723547D02*
G01*
X182253230Y-131723548D01*
X182253229Y-131723548D01*
X182416836Y-131791316D01*
X182564079Y-131889701D01*
X182689299Y-132014921D01*
X182787684Y-132162164D01*
X182787684Y-132162165D01*
X182855453Y-132325773D01*
X182890000Y-132499455D01*
X182890000Y-132676545D01*
X182855453Y-132850227D01*
X182855452Y-132850229D01*
X182787684Y-133013836D01*
X182689299Y-133161079D01*
X182564079Y-133286299D01*
X182416836Y-133384684D01*
X182301147Y-133432604D01*
X182253227Y-133452453D01*
X182079545Y-133487000D01*
X181902455Y-133487000D01*
X181728773Y-133452453D01*
X181680853Y-133432604D01*
X181565164Y-133384684D01*
X181417921Y-133286299D01*
X181292701Y-133161079D01*
X181194316Y-133013836D01*
X181126548Y-132850229D01*
X181126547Y-132850227D01*
X181092000Y-132676545D01*
X181092000Y-132499455D01*
X181126547Y-132325773D01*
X181194316Y-132162165D01*
X181194316Y-132162164D01*
X181292701Y-132014921D01*
X181417921Y-131889701D01*
X181565164Y-131791316D01*
X181728771Y-131723548D01*
X181728770Y-131723548D01*
X181728773Y-131723547D01*
X181902455Y-131689000D01*
X182079545Y-131689000D01*
X182253227Y-131723547D01*
G37*
G36*
X174838659Y-130446911D02*
G01*
X174884244Y-130460739D01*
X174926261Y-130483198D01*
X174963083Y-130513417D01*
X174993302Y-130550239D01*
X175015761Y-130592256D01*
X175029589Y-130637841D01*
X175034500Y-130687704D01*
X175034500Y-131694296D01*
X175029589Y-131744159D01*
X175015761Y-131789744D01*
X174993302Y-131831761D01*
X174963083Y-131868583D01*
X174926261Y-131898802D01*
X174884244Y-131921261D01*
X174838659Y-131935089D01*
X174788796Y-131940000D01*
X174207204Y-131940000D01*
X174157341Y-131935089D01*
X174111756Y-131921261D01*
X174069739Y-131898802D01*
X174032917Y-131868583D01*
X174002698Y-131831761D01*
X173980239Y-131789744D01*
X173966411Y-131744159D01*
X173961500Y-131694296D01*
X173961500Y-130687704D01*
X173966411Y-130637841D01*
X173980239Y-130592256D01*
X174002698Y-130550239D01*
X174032917Y-130513417D01*
X174069739Y-130483198D01*
X174111756Y-130460739D01*
X174157341Y-130446911D01*
X174207204Y-130442000D01*
X174788796Y-130442000D01*
X174838659Y-130446911D01*
G37*
G36*
X172963659Y-130446911D02*
G01*
X173009244Y-130460739D01*
X173051261Y-130483198D01*
X173088083Y-130513417D01*
X173118302Y-130550239D01*
X173140761Y-130592256D01*
X173154589Y-130637841D01*
X173159500Y-130687704D01*
X173159500Y-131694296D01*
X173154589Y-131744159D01*
X173140761Y-131789744D01*
X173118302Y-131831761D01*
X173088083Y-131868583D01*
X173051261Y-131898802D01*
X173009244Y-131921261D01*
X172963659Y-131935089D01*
X172913796Y-131940000D01*
X172332204Y-131940000D01*
X172282341Y-131935089D01*
X172236756Y-131921261D01*
X172194739Y-131898802D01*
X172157917Y-131868583D01*
X172127698Y-131831761D01*
X172105239Y-131789744D01*
X172091411Y-131744159D01*
X172086500Y-131694296D01*
X172086500Y-130687704D01*
X172091411Y-130637841D01*
X172105239Y-130592256D01*
X172127698Y-130550239D01*
X172157917Y-130513417D01*
X172194739Y-130483198D01*
X172236756Y-130460739D01*
X172282341Y-130446911D01*
X172332204Y-130442000D01*
X172913796Y-130442000D01*
X172963659Y-130446911D01*
G37*
G36*
X133903159Y-130689411D02*
G01*
X133948744Y-130703239D01*
X133990761Y-130725698D01*
X134027583Y-130755917D01*
X134057802Y-130792739D01*
X134080261Y-130834756D01*
X134094089Y-130880341D01*
X134099000Y-130930204D01*
X134099000Y-131511796D01*
X134094089Y-131561659D01*
X134080261Y-131607244D01*
X134057802Y-131649261D01*
X134027583Y-131686083D01*
X133990761Y-131716302D01*
X133948744Y-131738761D01*
X133903159Y-131752589D01*
X133853296Y-131757500D01*
X132846704Y-131757500D01*
X132796841Y-131752589D01*
X132751256Y-131738761D01*
X132709239Y-131716302D01*
X132672417Y-131686083D01*
X132642198Y-131649261D01*
X132619739Y-131607244D01*
X132605911Y-131561659D01*
X132601000Y-131511796D01*
X132601000Y-130930204D01*
X132605911Y-130880341D01*
X132619739Y-130834756D01*
X132642198Y-130792739D01*
X132672417Y-130755917D01*
X132709239Y-130725698D01*
X132751256Y-130703239D01*
X132796841Y-130689411D01*
X132846704Y-130684500D01*
X133853296Y-130684500D01*
X133903159Y-130689411D01*
G37*
G36*
X183592500Y-129195662D02*
G01*
X183592741Y-129200563D01*
X183595640Y-129230000D01*
X183592741Y-129259437D01*
X183592500Y-129264338D01*
X183592500Y-129305072D01*
X183589938Y-129309865D01*
X183586373Y-129324098D01*
X183583110Y-129357225D01*
X183559390Y-129435419D01*
X183545999Y-129479563D01*
X183485735Y-129592310D01*
X183404633Y-129691133D01*
X183305810Y-129772235D01*
X183193063Y-129832499D01*
X183158530Y-129842974D01*
X183070726Y-129869610D01*
X182975384Y-129879000D01*
X182211616Y-129879000D01*
X182116274Y-129869610D01*
X182028470Y-129842974D01*
X181993937Y-129832499D01*
X181881190Y-129772235D01*
X181782367Y-129691133D01*
X181701265Y-129592310D01*
X181641001Y-129479563D01*
X181627610Y-129435419D01*
X181603890Y-129357225D01*
X181600627Y-129324098D01*
X181598715Y-129314484D01*
X181594964Y-129305429D01*
X181594500Y-129304735D01*
X181594500Y-129264338D01*
X181594259Y-129259437D01*
X181591360Y-129230000D01*
X181594259Y-129200563D01*
X181594500Y-129195662D01*
X181594500Y-127981000D01*
X183592500Y-127981000D01*
X183592500Y-129195662D01*
G37*
G36*
X171127000Y-129337000D02*
G01*
X169029000Y-129337000D01*
X169029000Y-127739000D01*
X171127000Y-127739000D01*
X171127000Y-129337000D01*
G37*
G36*
X180069422Y-127475829D02*
G01*
X180119267Y-127485744D01*
X180260126Y-127544090D01*
X180386896Y-127628795D01*
X180494705Y-127736604D01*
X180579410Y-127863374D01*
X180637756Y-128004233D01*
X180667500Y-128153768D01*
X180667500Y-128306232D01*
X180637756Y-128455767D01*
X180579410Y-128596626D01*
X180494705Y-128723396D01*
X180386896Y-128831205D01*
X180260126Y-128915910D01*
X180119267Y-128974256D01*
X180069422Y-128984171D01*
X179969734Y-129004000D01*
X179817266Y-129004000D01*
X179717578Y-128984171D01*
X179667733Y-128974256D01*
X179526874Y-128915910D01*
X179400104Y-128831205D01*
X179292295Y-128723396D01*
X179207590Y-128596626D01*
X179149244Y-128455767D01*
X179119500Y-128306232D01*
X179119500Y-128153768D01*
X179149244Y-128004233D01*
X179207590Y-127863374D01*
X179292295Y-127736604D01*
X179400104Y-127628795D01*
X179526874Y-127544090D01*
X179667733Y-127485744D01*
X179717578Y-127475829D01*
X179817266Y-127456000D01*
X179969734Y-127456000D01*
X180069422Y-127475829D01*
G37*
G36*
X177427000Y-128187000D02*
G01*
X175329000Y-128187000D01*
X175329000Y-124289000D01*
X177427000Y-124289000D01*
X177427000Y-128187000D01*
G37*
G36*
X183592500Y-127529000D02*
G01*
X181594500Y-127529000D01*
X181594500Y-125931000D01*
X183592500Y-125931000D01*
X183592500Y-127529000D01*
G37*
G36*
X129113000Y-127487000D02*
G01*
X127515000Y-127487000D01*
X127515000Y-124989000D01*
X129113000Y-124989000D01*
X129113000Y-127487000D01*
G37*
G36*
X134613000Y-127487000D02*
G01*
X133015000Y-127487000D01*
X133015000Y-124989000D01*
X134613000Y-124989000D01*
X134613000Y-127487000D01*
G37*
G36*
X180617500Y-127279000D02*
G01*
X179169500Y-127279000D01*
X179169500Y-126781000D01*
X180617500Y-126781000D01*
X180617500Y-127279000D01*
G37*
G36*
X171127000Y-127037000D02*
G01*
X169029000Y-127037000D01*
X169029000Y-125439000D01*
X171127000Y-125439000D01*
X171127000Y-127037000D01*
G37*
G36*
X180617500Y-126629000D02*
G01*
X179169500Y-126629000D01*
X179169500Y-126131000D01*
X180617500Y-126131000D01*
X180617500Y-126629000D01*
G37*
G36*
X137063000Y-126038000D02*
G01*
X135905000Y-126038000D01*
X135905000Y-125290000D01*
X137063000Y-125290000D01*
X137063000Y-126038000D01*
G37*
G36*
X139263000Y-126038000D02*
G01*
X138105000Y-126038000D01*
X138105000Y-125290000D01*
X139263000Y-125290000D01*
X139263000Y-126038000D01*
G37*
G36*
X180617500Y-125979000D02*
G01*
X179169500Y-125979000D01*
X179169500Y-125481000D01*
X180617500Y-125481000D01*
X180617500Y-125979000D01*
G37*
G36*
X183592500Y-125529000D02*
G01*
X181594500Y-125529000D01*
X181594500Y-123931000D01*
X183592500Y-123931000D01*
X183592500Y-125529000D01*
G37*
G36*
X180617500Y-125329000D02*
G01*
X179169500Y-125329000D01*
X179169500Y-124831000D01*
X180617500Y-124831000D01*
X180617500Y-125329000D01*
G37*
G36*
X162351159Y-124182411D02*
G01*
X162396744Y-124196239D01*
X162438761Y-124218698D01*
X162475583Y-124248917D01*
X162505802Y-124285739D01*
X162528261Y-124327756D01*
X162542089Y-124373341D01*
X162547000Y-124423204D01*
X162547000Y-125004796D01*
X162542089Y-125054659D01*
X162528261Y-125100244D01*
X162505802Y-125142261D01*
X162475583Y-125179083D01*
X162438761Y-125209302D01*
X162396744Y-125231761D01*
X162351159Y-125245589D01*
X162301296Y-125250500D01*
X161294704Y-125250500D01*
X161244841Y-125245589D01*
X161199256Y-125231761D01*
X161157239Y-125209302D01*
X161120417Y-125179083D01*
X161090198Y-125142261D01*
X161067739Y-125100244D01*
X161053911Y-125054659D01*
X161049000Y-125004796D01*
X161049000Y-124423204D01*
X161053911Y-124373341D01*
X161067739Y-124327756D01*
X161090198Y-124285739D01*
X161120417Y-124248917D01*
X161157239Y-124218698D01*
X161199256Y-124196239D01*
X161244841Y-124182411D01*
X161294704Y-124177500D01*
X162301296Y-124177500D01*
X162351159Y-124182411D01*
G37*
G36*
X148381159Y-124182411D02*
G01*
X148426744Y-124196239D01*
X148468761Y-124218698D01*
X148505583Y-124248917D01*
X148535802Y-124285739D01*
X148558261Y-124327756D01*
X148572089Y-124373341D01*
X148577000Y-124423204D01*
X148577000Y-125004796D01*
X148572089Y-125054659D01*
X148558261Y-125100244D01*
X148535802Y-125142261D01*
X148505583Y-125179083D01*
X148468761Y-125209302D01*
X148426744Y-125231761D01*
X148381159Y-125245589D01*
X148331296Y-125250500D01*
X147324704Y-125250500D01*
X147274841Y-125245589D01*
X147229256Y-125231761D01*
X147187239Y-125209302D01*
X147150417Y-125179083D01*
X147120198Y-125142261D01*
X147097739Y-125100244D01*
X147083911Y-125054659D01*
X147079000Y-125004796D01*
X147079000Y-124423204D01*
X147083911Y-124373341D01*
X147097739Y-124327756D01*
X147120198Y-124285739D01*
X147150417Y-124248917D01*
X147187239Y-124218698D01*
X147229256Y-124196239D01*
X147274841Y-124182411D01*
X147324704Y-124177500D01*
X148331296Y-124177500D01*
X148381159Y-124182411D01*
G37*
G36*
X165653159Y-124182411D02*
G01*
X165698744Y-124196239D01*
X165740761Y-124218698D01*
X165777583Y-124248917D01*
X165807802Y-124285739D01*
X165830261Y-124327756D01*
X165844089Y-124373341D01*
X165849000Y-124423204D01*
X165849000Y-125004796D01*
X165844089Y-125054659D01*
X165830261Y-125100244D01*
X165807802Y-125142261D01*
X165777583Y-125179083D01*
X165740761Y-125209302D01*
X165698744Y-125231761D01*
X165653159Y-125245589D01*
X165603296Y-125250500D01*
X164596704Y-125250500D01*
X164546841Y-125245589D01*
X164501256Y-125231761D01*
X164459239Y-125209302D01*
X164422417Y-125179083D01*
X164392198Y-125142261D01*
X164369739Y-125100244D01*
X164355911Y-125054659D01*
X164351000Y-125004796D01*
X164351000Y-124423204D01*
X164355911Y-124373341D01*
X164369739Y-124327756D01*
X164392198Y-124285739D01*
X164422417Y-124248917D01*
X164459239Y-124218698D01*
X164501256Y-124196239D01*
X164546841Y-124182411D01*
X164596704Y-124177500D01*
X165603296Y-124177500D01*
X165653159Y-124182411D01*
G37*
G36*
X154843000Y-125197000D02*
G01*
X153345000Y-125197000D01*
X153345000Y-124099000D01*
X154843000Y-124099000D01*
X154843000Y-125197000D01*
G37*
G36*
X151683159Y-124103911D02*
G01*
X151728744Y-124117739D01*
X151770761Y-124140198D01*
X151807583Y-124170417D01*
X151837802Y-124207239D01*
X151860261Y-124249256D01*
X151874089Y-124294841D01*
X151879000Y-124344704D01*
X151879000Y-124926296D01*
X151874089Y-124976159D01*
X151860261Y-125021744D01*
X151837802Y-125063761D01*
X151807583Y-125100583D01*
X151770761Y-125130802D01*
X151728744Y-125153261D01*
X151683159Y-125167089D01*
X151633296Y-125172000D01*
X150626704Y-125172000D01*
X150576841Y-125167089D01*
X150531256Y-125153261D01*
X150489239Y-125130802D01*
X150452417Y-125100583D01*
X150422198Y-125063761D01*
X150399739Y-125021744D01*
X150385911Y-124976159D01*
X150381000Y-124926296D01*
X150381000Y-124344704D01*
X150385911Y-124294841D01*
X150399739Y-124249256D01*
X150422198Y-124207239D01*
X150452417Y-124170417D01*
X150489239Y-124140198D01*
X150531256Y-124117739D01*
X150576841Y-124103911D01*
X150626704Y-124099000D01*
X151633296Y-124099000D01*
X151683159Y-124103911D01*
G37*
G36*
X159049159Y-124103911D02*
G01*
X159094744Y-124117739D01*
X159136761Y-124140198D01*
X159173583Y-124170417D01*
X159203802Y-124207239D01*
X159226261Y-124249256D01*
X159240089Y-124294841D01*
X159245000Y-124344704D01*
X159245000Y-124926296D01*
X159240089Y-124976159D01*
X159226261Y-125021744D01*
X159203802Y-125063761D01*
X159173583Y-125100583D01*
X159136761Y-125130802D01*
X159094744Y-125153261D01*
X159049159Y-125167089D01*
X158999296Y-125172000D01*
X157992704Y-125172000D01*
X157942841Y-125167089D01*
X157897256Y-125153261D01*
X157855239Y-125130802D01*
X157818417Y-125100583D01*
X157788198Y-125063761D01*
X157765739Y-125021744D01*
X157751911Y-124976159D01*
X157747000Y-124926296D01*
X157747000Y-124344704D01*
X157751911Y-124294841D01*
X157765739Y-124249256D01*
X157788198Y-124207239D01*
X157818417Y-124170417D01*
X157855239Y-124140198D01*
X157897256Y-124117739D01*
X157942841Y-124103911D01*
X157992704Y-124099000D01*
X158999296Y-124099000D01*
X159049159Y-124103911D01*
G37*
G36*
X145079159Y-124103911D02*
G01*
X145124744Y-124117739D01*
X145166761Y-124140198D01*
X145203583Y-124170417D01*
X145233802Y-124207239D01*
X145256261Y-124249256D01*
X145270089Y-124294841D01*
X145275000Y-124344704D01*
X145275000Y-124926296D01*
X145270089Y-124976159D01*
X145256261Y-125021744D01*
X145233802Y-125063761D01*
X145203583Y-125100583D01*
X145166761Y-125130802D01*
X145124744Y-125153261D01*
X145079159Y-125167089D01*
X145029296Y-125172000D01*
X144022704Y-125172000D01*
X143972841Y-125167089D01*
X143927256Y-125153261D01*
X143885239Y-125130802D01*
X143848417Y-125100583D01*
X143818198Y-125063761D01*
X143795739Y-125021744D01*
X143781911Y-124976159D01*
X143777000Y-124926296D01*
X143777000Y-124344704D01*
X143781911Y-124294841D01*
X143795739Y-124249256D01*
X143818198Y-124207239D01*
X143848417Y-124170417D01*
X143885239Y-124140198D01*
X143927256Y-124117739D01*
X143972841Y-124103911D01*
X144022704Y-124099000D01*
X145029296Y-124099000D01*
X145079159Y-124103911D01*
G37*
G36*
X139263000Y-125088000D02*
G01*
X138105000Y-125088000D01*
X138105000Y-124340000D01*
X139263000Y-124340000D01*
X139263000Y-125088000D01*
G37*
G36*
X171127000Y-124737000D02*
G01*
X169029000Y-124737000D01*
X169029000Y-123139000D01*
X171127000Y-123139000D01*
X171127000Y-124737000D01*
G37*
G36*
X180617500Y-124679000D02*
G01*
X179169500Y-124679000D01*
X179169500Y-124181000D01*
X180617500Y-124181000D01*
X180617500Y-124679000D01*
G37*
G36*
X157043000Y-124247000D02*
G01*
X155545000Y-124247000D01*
X155545000Y-123149000D01*
X157043000Y-123149000D01*
X157043000Y-124247000D01*
G37*
G36*
X137063000Y-124138000D02*
G01*
X135905000Y-124138000D01*
X135905000Y-123390000D01*
X137063000Y-123390000D01*
X137063000Y-124138000D01*
G37*
G36*
X139263000Y-124138000D02*
G01*
X138105000Y-124138000D01*
X138105000Y-123390000D01*
X139263000Y-123390000D01*
X139263000Y-124138000D01*
G37*
G36*
X180069422Y-122475829D02*
G01*
X180119267Y-122485744D01*
X180260126Y-122544090D01*
X180386896Y-122628795D01*
X180494705Y-122736604D01*
X180579410Y-122863374D01*
X180637756Y-123004233D01*
X180637756Y-123004234D01*
X180667500Y-123153766D01*
X180667500Y-123306234D01*
X180657449Y-123356761D01*
X180637756Y-123455767D01*
X180579410Y-123596626D01*
X180494705Y-123723396D01*
X180386896Y-123831205D01*
X180260126Y-123915910D01*
X180119267Y-123974256D01*
X180069422Y-123984171D01*
X179969734Y-124004000D01*
X179817266Y-124004000D01*
X179717578Y-123984171D01*
X179667733Y-123974256D01*
X179526874Y-123915910D01*
X179400104Y-123831205D01*
X179292295Y-123723396D01*
X179207590Y-123596626D01*
X179149244Y-123455767D01*
X179129551Y-123356761D01*
X179119500Y-123306234D01*
X179119500Y-123153766D01*
X179149244Y-123004234D01*
X179149244Y-123004233D01*
X179207590Y-122863374D01*
X179292295Y-122736604D01*
X179400104Y-122628795D01*
X179526874Y-122544090D01*
X179667733Y-122485744D01*
X179717578Y-122475829D01*
X179817266Y-122456000D01*
X179969734Y-122456000D01*
X180069422Y-122475829D01*
G37*
G36*
X183070726Y-121590390D02*
G01*
X183158530Y-121617026D01*
X183193063Y-121627501D01*
X183305810Y-121687765D01*
X183404633Y-121768867D01*
X183485735Y-121867690D01*
X183522909Y-121937238D01*
X183545998Y-121980435D01*
X183583110Y-122102775D01*
X183586373Y-122135902D01*
X183588285Y-122145516D01*
X183592036Y-122154571D01*
X183592500Y-122155265D01*
X183592500Y-122195662D01*
X183592741Y-122200563D01*
X183595640Y-122230000D01*
X183592741Y-122259437D01*
X183592500Y-122264338D01*
X183592500Y-123479000D01*
X181594500Y-123479000D01*
X181594500Y-122264338D01*
X181594259Y-122259437D01*
X181591360Y-122230000D01*
X181594259Y-122200563D01*
X181594500Y-122195662D01*
X181594500Y-122154928D01*
X181597062Y-122150135D01*
X181600627Y-122135902D01*
X181603890Y-122102775D01*
X181641002Y-121980435D01*
X181664091Y-121937238D01*
X181701265Y-121867690D01*
X181782367Y-121768867D01*
X181881190Y-121687765D01*
X181993937Y-121627501D01*
X182028470Y-121617026D01*
X182116274Y-121590390D01*
X182211616Y-121581000D01*
X182975384Y-121581000D01*
X183070726Y-121590390D01*
G37*
G36*
X162351159Y-122307411D02*
G01*
X162396744Y-122321239D01*
X162438761Y-122343698D01*
X162475583Y-122373917D01*
X162505802Y-122410739D01*
X162528261Y-122452756D01*
X162542089Y-122498341D01*
X162547000Y-122548204D01*
X162547000Y-123129796D01*
X162542089Y-123179659D01*
X162528261Y-123225244D01*
X162505802Y-123267261D01*
X162475583Y-123304083D01*
X162438761Y-123334302D01*
X162396744Y-123356761D01*
X162351159Y-123370589D01*
X162301296Y-123375500D01*
X161294704Y-123375500D01*
X161244841Y-123370589D01*
X161199256Y-123356761D01*
X161157239Y-123334302D01*
X161120417Y-123304083D01*
X161090198Y-123267261D01*
X161067739Y-123225244D01*
X161053911Y-123179659D01*
X161049000Y-123129796D01*
X161049000Y-122548204D01*
X161053911Y-122498341D01*
X161067739Y-122452756D01*
X161090198Y-122410739D01*
X161120417Y-122373917D01*
X161157239Y-122343698D01*
X161199256Y-122321239D01*
X161244841Y-122307411D01*
X161294704Y-122302500D01*
X162301296Y-122302500D01*
X162351159Y-122307411D01*
G37*
G36*
X148381159Y-122307411D02*
G01*
X148426744Y-122321239D01*
X148468761Y-122343698D01*
X148505583Y-122373917D01*
X148535802Y-122410739D01*
X148558261Y-122452756D01*
X148572089Y-122498341D01*
X148577000Y-122548204D01*
X148577000Y-123129796D01*
X148572089Y-123179659D01*
X148558261Y-123225244D01*
X148535802Y-123267261D01*
X148505583Y-123304083D01*
X148468761Y-123334302D01*
X148426744Y-123356761D01*
X148381159Y-123370589D01*
X148331296Y-123375500D01*
X147324704Y-123375500D01*
X147274841Y-123370589D01*
X147229256Y-123356761D01*
X147187239Y-123334302D01*
X147150417Y-123304083D01*
X147120198Y-123267261D01*
X147097739Y-123225244D01*
X147083911Y-123179659D01*
X147079000Y-123129796D01*
X147079000Y-122548204D01*
X147083911Y-122498341D01*
X147097739Y-122452756D01*
X147120198Y-122410739D01*
X147150417Y-122373917D01*
X147187239Y-122343698D01*
X147229256Y-122321239D01*
X147274841Y-122307411D01*
X147324704Y-122302500D01*
X148331296Y-122302500D01*
X148381159Y-122307411D01*
G37*
G36*
X165653159Y-122307411D02*
G01*
X165698744Y-122321239D01*
X165740761Y-122343698D01*
X165777583Y-122373917D01*
X165807802Y-122410739D01*
X165830261Y-122452756D01*
X165844089Y-122498341D01*
X165849000Y-122548204D01*
X165849000Y-123129796D01*
X165844089Y-123179659D01*
X165830261Y-123225244D01*
X165807802Y-123267261D01*
X165777583Y-123304083D01*
X165740761Y-123334302D01*
X165698744Y-123356761D01*
X165653159Y-123370589D01*
X165603296Y-123375500D01*
X164596704Y-123375500D01*
X164546841Y-123370589D01*
X164501256Y-123356761D01*
X164459239Y-123334302D01*
X164422417Y-123304083D01*
X164392198Y-123267261D01*
X164369739Y-123225244D01*
X164355911Y-123179659D01*
X164351000Y-123129796D01*
X164351000Y-122548204D01*
X164355911Y-122498341D01*
X164369739Y-122452756D01*
X164392198Y-122410739D01*
X164422417Y-122373917D01*
X164459239Y-122343698D01*
X164501256Y-122321239D01*
X164546841Y-122307411D01*
X164596704Y-122302500D01*
X165603296Y-122302500D01*
X165653159Y-122307411D01*
G37*
G36*
X159049159Y-122228911D02*
G01*
X159094744Y-122242739D01*
X159136761Y-122265198D01*
X159173583Y-122295417D01*
X159203802Y-122332239D01*
X159226261Y-122374256D01*
X159240089Y-122419841D01*
X159245000Y-122469704D01*
X159245000Y-123051296D01*
X159240089Y-123101159D01*
X159226261Y-123146744D01*
X159203802Y-123188761D01*
X159173583Y-123225583D01*
X159136761Y-123255802D01*
X159094744Y-123278261D01*
X159049159Y-123292089D01*
X158999296Y-123297000D01*
X157992704Y-123297000D01*
X157942841Y-123292089D01*
X157897256Y-123278261D01*
X157855239Y-123255802D01*
X157818417Y-123225583D01*
X157788198Y-123188761D01*
X157765739Y-123146744D01*
X157751911Y-123101159D01*
X157747000Y-123051296D01*
X157747000Y-122469704D01*
X157751911Y-122419841D01*
X157765739Y-122374256D01*
X157788198Y-122332239D01*
X157818417Y-122295417D01*
X157855239Y-122265198D01*
X157897256Y-122242739D01*
X157942841Y-122228911D01*
X157992704Y-122224000D01*
X158999296Y-122224000D01*
X159049159Y-122228911D01*
G37*
G36*
X154843000Y-123297000D02*
G01*
X153345000Y-123297000D01*
X153345000Y-122199000D01*
X154843000Y-122199000D01*
X154843000Y-123297000D01*
G37*
G36*
X151683159Y-122228911D02*
G01*
X151728744Y-122242739D01*
X151770761Y-122265198D01*
X151807583Y-122295417D01*
X151837802Y-122332239D01*
X151860261Y-122374256D01*
X151874089Y-122419841D01*
X151879000Y-122469704D01*
X151879000Y-123051296D01*
X151874089Y-123101159D01*
X151860261Y-123146744D01*
X151837802Y-123188761D01*
X151807583Y-123225583D01*
X151770761Y-123255802D01*
X151728744Y-123278261D01*
X151683159Y-123292089D01*
X151633296Y-123297000D01*
X150626704Y-123297000D01*
X150576841Y-123292089D01*
X150531256Y-123278261D01*
X150489239Y-123255802D01*
X150452417Y-123225583D01*
X150422198Y-123188761D01*
X150399739Y-123146744D01*
X150385911Y-123101159D01*
X150381000Y-123051296D01*
X150381000Y-122469704D01*
X150385911Y-122419841D01*
X150399739Y-122374256D01*
X150422198Y-122332239D01*
X150452417Y-122295417D01*
X150489239Y-122265198D01*
X150531256Y-122242739D01*
X150576841Y-122228911D01*
X150626704Y-122224000D01*
X151633296Y-122224000D01*
X151683159Y-122228911D01*
G37*
G36*
X145079159Y-122228911D02*
G01*
X145124744Y-122242739D01*
X145166761Y-122265198D01*
X145203583Y-122295417D01*
X145233802Y-122332239D01*
X145256261Y-122374256D01*
X145270089Y-122419841D01*
X145275000Y-122469704D01*
X145275000Y-123051296D01*
X145270089Y-123101159D01*
X145256261Y-123146744D01*
X145233802Y-123188761D01*
X145203583Y-123225583D01*
X145166761Y-123255802D01*
X145124744Y-123278261D01*
X145079159Y-123292089D01*
X145029296Y-123297000D01*
X144022704Y-123297000D01*
X143972841Y-123292089D01*
X143927256Y-123278261D01*
X143885239Y-123255802D01*
X143848417Y-123225583D01*
X143818198Y-123188761D01*
X143795739Y-123146744D01*
X143781911Y-123101159D01*
X143777000Y-123051296D01*
X143777000Y-122469704D01*
X143781911Y-122419841D01*
X143795739Y-122374256D01*
X143818198Y-122332239D01*
X143848417Y-122295417D01*
X143885239Y-122265198D01*
X143927256Y-122242739D01*
X143972841Y-122228911D01*
X144022704Y-122224000D01*
X145029296Y-122224000D01*
X145079159Y-122228911D01*
G37*
G36*
X129442983Y-118123734D02*
G01*
X129519421Y-118146921D01*
X129595858Y-118170108D01*
X129736748Y-118245415D01*
X129860238Y-118346762D01*
X129961585Y-118470252D01*
X130036892Y-118611142D01*
X130060079Y-118687579D01*
X130083266Y-118764017D01*
X130095000Y-118883156D01*
X130095000Y-121400844D01*
X130083266Y-121519983D01*
X130064756Y-121581000D01*
X130036892Y-121672858D01*
X129961585Y-121813748D01*
X129860238Y-121937238D01*
X129736747Y-122038585D01*
X129595857Y-122113892D01*
X129523298Y-122135902D01*
X129442982Y-122160266D01*
X129284000Y-122175924D01*
X129125017Y-122160266D01*
X129044701Y-122135902D01*
X128972142Y-122113892D01*
X128831252Y-122038585D01*
X128707762Y-121937238D01*
X128606415Y-121813747D01*
X128531108Y-121672857D01*
X128484735Y-121519984D01*
X128484734Y-121519982D01*
X128473000Y-121400843D01*
X128473001Y-118883156D01*
X128484735Y-118764017D01*
X128507922Y-118687579D01*
X128531109Y-118611142D01*
X128606416Y-118470252D01*
X128707763Y-118346762D01*
X128831253Y-118245415D01*
X128972143Y-118170108D01*
X129048580Y-118146921D01*
X129125018Y-118123734D01*
X129284000Y-118108076D01*
X129442983Y-118123734D01*
G37*
G36*
X176942983Y-118123734D02*
G01*
X177019421Y-118146921D01*
X177095858Y-118170108D01*
X177236748Y-118245415D01*
X177360238Y-118346762D01*
X177461585Y-118470252D01*
X177536892Y-118611142D01*
X177560079Y-118687579D01*
X177583266Y-118764017D01*
X177595000Y-118883156D01*
X177595000Y-121400844D01*
X177583266Y-121519983D01*
X177564756Y-121581000D01*
X177536892Y-121672858D01*
X177461585Y-121813748D01*
X177360238Y-121937238D01*
X177236747Y-122038585D01*
X177095857Y-122113892D01*
X177023298Y-122135902D01*
X176942982Y-122160266D01*
X176784000Y-122175924D01*
X176625017Y-122160266D01*
X176544701Y-122135902D01*
X176472142Y-122113892D01*
X176331252Y-122038585D01*
X176207762Y-121937238D01*
X176106415Y-121813747D01*
X176031108Y-121672857D01*
X175984735Y-121519984D01*
X175984734Y-121519982D01*
X175973000Y-121400843D01*
X175973001Y-118883156D01*
X175984735Y-118764017D01*
X176007922Y-118687579D01*
X176031109Y-118611142D01*
X176106416Y-118470252D01*
X176207763Y-118346762D01*
X176331253Y-118245415D01*
X176472143Y-118170108D01*
X176548580Y-118146921D01*
X176625018Y-118123734D01*
X176784000Y-118108076D01*
X176942983Y-118123734D01*
G37*
G36*
X171358000Y-121962000D02*
G01*
X168240000Y-121962000D01*
X168240000Y-120354000D01*
X171358000Y-120354000D01*
X171358000Y-121962000D01*
G37*
G36*
X164420150Y-119931235D02*
G01*
X164523060Y-119951705D01*
X164668468Y-120011935D01*
X164799333Y-120099376D01*
X164910624Y-120210667D01*
X164998065Y-120341532D01*
X165058295Y-120486940D01*
X165089000Y-120641305D01*
X165089000Y-120798695D01*
X165058295Y-120953060D01*
X164998065Y-121098468D01*
X164910624Y-121229333D01*
X164799333Y-121340624D01*
X164668468Y-121428065D01*
X164523060Y-121488295D01*
X164420150Y-121508765D01*
X164368696Y-121519000D01*
X164211304Y-121519000D01*
X164159850Y-121508765D01*
X164056940Y-121488295D01*
X163911532Y-121428065D01*
X163780667Y-121340624D01*
X163669376Y-121229333D01*
X163581935Y-121098468D01*
X163521705Y-120953060D01*
X163491000Y-120798695D01*
X163491000Y-120641305D01*
X163521705Y-120486940D01*
X163581935Y-120341532D01*
X163669376Y-120210667D01*
X163780667Y-120099376D01*
X163911532Y-120011935D01*
X164056940Y-119951705D01*
X164159850Y-119931235D01*
X164211304Y-119921000D01*
X164368696Y-119921000D01*
X164420150Y-119931235D01*
G37*
G36*
X146920150Y-119931235D02*
G01*
X147023060Y-119951705D01*
X147168468Y-120011935D01*
X147299333Y-120099376D01*
X147410624Y-120210667D01*
X147498065Y-120341532D01*
X147558295Y-120486940D01*
X147589000Y-120641305D01*
X147589000Y-120798695D01*
X147558295Y-120953060D01*
X147498065Y-121098468D01*
X147410624Y-121229333D01*
X147299333Y-121340624D01*
X147168468Y-121428065D01*
X147023060Y-121488295D01*
X146920150Y-121508765D01*
X146868696Y-121519000D01*
X146711304Y-121519000D01*
X146659850Y-121508765D01*
X146556940Y-121488295D01*
X146411532Y-121428065D01*
X146280667Y-121340624D01*
X146169376Y-121229333D01*
X146081935Y-121098468D01*
X146021705Y-120953060D01*
X145991000Y-120798695D01*
X145991000Y-120641305D01*
X146021705Y-120486940D01*
X146081935Y-120341532D01*
X146169376Y-120210667D01*
X146280667Y-120099376D01*
X146411532Y-120011935D01*
X146556940Y-119951705D01*
X146659850Y-119931235D01*
X146711304Y-119921000D01*
X146868696Y-119921000D01*
X146920150Y-119931235D01*
G37*
G36*
X134450000Y-121197000D02*
G01*
X132042000Y-121197000D01*
X132042000Y-118579000D01*
X134450000Y-118579000D01*
X134450000Y-121197000D01*
G37*
G36*
X140650000Y-121197000D02*
G01*
X138242000Y-121197000D01*
X138242000Y-118579000D01*
X140650000Y-118579000D01*
X140650000Y-121197000D01*
G37*
G36*
X173274000Y-121145000D02*
G01*
X172176000Y-121145000D01*
X172176000Y-119647000D01*
X173274000Y-119647000D01*
X173274000Y-121145000D01*
G37*
G36*
X175174000Y-121145000D02*
G01*
X174076000Y-121145000D01*
X174076000Y-119647000D01*
X175174000Y-119647000D01*
X175174000Y-121145000D01*
G37*
G36*
X179567659Y-119397911D02*
G01*
X179613244Y-119411739D01*
X179655261Y-119434198D01*
X179692083Y-119464417D01*
X179722302Y-119501239D01*
X179744761Y-119543256D01*
X179758589Y-119588841D01*
X179763500Y-119638704D01*
X179763500Y-120645296D01*
X179758589Y-120695159D01*
X179744761Y-120740744D01*
X179722302Y-120782761D01*
X179692083Y-120819583D01*
X179655261Y-120849802D01*
X179613244Y-120872261D01*
X179567659Y-120886089D01*
X179517796Y-120891000D01*
X178936204Y-120891000D01*
X178886341Y-120886089D01*
X178840756Y-120872261D01*
X178798739Y-120849802D01*
X178761917Y-120819583D01*
X178731698Y-120782761D01*
X178709239Y-120740744D01*
X178695411Y-120695159D01*
X178690500Y-120645296D01*
X178690500Y-119638704D01*
X178695411Y-119588841D01*
X178709239Y-119543256D01*
X178731698Y-119501239D01*
X178761917Y-119464417D01*
X178798739Y-119434198D01*
X178840756Y-119411739D01*
X178886341Y-119397911D01*
X178936204Y-119393000D01*
X179517796Y-119393000D01*
X179567659Y-119397911D01*
G37*
G36*
X181442659Y-119397911D02*
G01*
X181488244Y-119411739D01*
X181530261Y-119434198D01*
X181567083Y-119464417D01*
X181597302Y-119501239D01*
X181619761Y-119543256D01*
X181633589Y-119588841D01*
X181638500Y-119638704D01*
X181638500Y-120645296D01*
X181633589Y-120695159D01*
X181619761Y-120740744D01*
X181597302Y-120782761D01*
X181567083Y-120819583D01*
X181530261Y-120849802D01*
X181488244Y-120872261D01*
X181442659Y-120886089D01*
X181392796Y-120891000D01*
X180811204Y-120891000D01*
X180761341Y-120886089D01*
X180715756Y-120872261D01*
X180673739Y-120849802D01*
X180636917Y-120819583D01*
X180606698Y-120782761D01*
X180584239Y-120740744D01*
X180570411Y-120695159D01*
X180565500Y-120645296D01*
X180565500Y-119638704D01*
X180570411Y-119588841D01*
X180584239Y-119543256D01*
X180606698Y-119501239D01*
X180636917Y-119464417D01*
X180673739Y-119434198D01*
X180715756Y-119411739D01*
X180761341Y-119397911D01*
X180811204Y-119393000D01*
X181392796Y-119393000D01*
X181442659Y-119397911D01*
G37*
G36*
X166570150Y-117781235D02*
G01*
X166673060Y-117801705D01*
X166818468Y-117861935D01*
X166949333Y-117949376D01*
X167060624Y-118060667D01*
X167148065Y-118191532D01*
X167208295Y-118336940D01*
X167212742Y-118359296D01*
X167237902Y-118485782D01*
X167239000Y-118491305D01*
X167239000Y-118648695D01*
X167208295Y-118803060D01*
X167148065Y-118948468D01*
X167060624Y-119079333D01*
X166949333Y-119190624D01*
X166818468Y-119278065D01*
X166673060Y-119338295D01*
X166570150Y-119358765D01*
X166518696Y-119369000D01*
X166361304Y-119369000D01*
X166309850Y-119358765D01*
X166206940Y-119338295D01*
X166061532Y-119278065D01*
X165930667Y-119190624D01*
X165819376Y-119079333D01*
X165731935Y-118948468D01*
X165671705Y-118803060D01*
X165641000Y-118648695D01*
X165641000Y-118491305D01*
X165642099Y-118485782D01*
X165667258Y-118359296D01*
X165671705Y-118336940D01*
X165731935Y-118191532D01*
X165819376Y-118060667D01*
X165930667Y-117949376D01*
X166061532Y-117861935D01*
X166206940Y-117801705D01*
X166309850Y-117781235D01*
X166361304Y-117771000D01*
X166518696Y-117771000D01*
X166570150Y-117781235D01*
G37*
G36*
X144770150Y-117781235D02*
G01*
X144873060Y-117801705D01*
X145018468Y-117861935D01*
X145149333Y-117949376D01*
X145260624Y-118060667D01*
X145348065Y-118191532D01*
X145408295Y-118336940D01*
X145412742Y-118359296D01*
X145437902Y-118485782D01*
X145439000Y-118491305D01*
X145439000Y-118648695D01*
X145408295Y-118803060D01*
X145348065Y-118948468D01*
X145260624Y-119079333D01*
X145149333Y-119190624D01*
X145018468Y-119278065D01*
X144873060Y-119338295D01*
X144770150Y-119358765D01*
X144718696Y-119369000D01*
X144561304Y-119369000D01*
X144509850Y-119358765D01*
X144406940Y-119338295D01*
X144261532Y-119278065D01*
X144130667Y-119190624D01*
X144019376Y-119079333D01*
X143931935Y-118948468D01*
X143871705Y-118803060D01*
X143841000Y-118648695D01*
X143841000Y-118491305D01*
X143842099Y-118485782D01*
X143867258Y-118359296D01*
X143871705Y-118336940D01*
X143931935Y-118191532D01*
X144019376Y-118060667D01*
X144130667Y-117949376D01*
X144261532Y-117861935D01*
X144406940Y-117801705D01*
X144509850Y-117781235D01*
X144561304Y-117771000D01*
X144718696Y-117771000D01*
X144770150Y-117781235D01*
G37*
G36*
X171358000Y-119062000D02*
G01*
X168240000Y-119062000D01*
X168240000Y-117454000D01*
X171358000Y-117454000D01*
X171358000Y-119062000D01*
G37*
G36*
X174224000Y-118945000D02*
G01*
X173126000Y-118945000D01*
X173126000Y-117447000D01*
X174224000Y-117447000D01*
X174224000Y-118945000D01*
G37*
G36*
X181364159Y-117111911D02*
G01*
X181409744Y-117125739D01*
X181451761Y-117148198D01*
X181488583Y-117178417D01*
X181518802Y-117215239D01*
X181541261Y-117257256D01*
X181555089Y-117302841D01*
X181560000Y-117352704D01*
X181560000Y-118359296D01*
X181555089Y-118409159D01*
X181541261Y-118454744D01*
X181518802Y-118496761D01*
X181488583Y-118533583D01*
X181451761Y-118563802D01*
X181409744Y-118586261D01*
X181364159Y-118600089D01*
X181314296Y-118605000D01*
X180732704Y-118605000D01*
X180682841Y-118600089D01*
X180637256Y-118586261D01*
X180595239Y-118563802D01*
X180558417Y-118533583D01*
X180528198Y-118496761D01*
X180505739Y-118454744D01*
X180491911Y-118409159D01*
X180487000Y-118359296D01*
X180487000Y-117352704D01*
X180491911Y-117302841D01*
X180505739Y-117257256D01*
X180528198Y-117215239D01*
X180558417Y-117178417D01*
X180595239Y-117148198D01*
X180637256Y-117125739D01*
X180682841Y-117111911D01*
X180732704Y-117107000D01*
X181314296Y-117107000D01*
X181364159Y-117111911D01*
G37*
G36*
X179489159Y-117111911D02*
G01*
X179534744Y-117125739D01*
X179576761Y-117148198D01*
X179613583Y-117178417D01*
X179643802Y-117215239D01*
X179666261Y-117257256D01*
X179680089Y-117302841D01*
X179685000Y-117352704D01*
X179685000Y-118359296D01*
X179680089Y-118409159D01*
X179666261Y-118454744D01*
X179643802Y-118496761D01*
X179613583Y-118533583D01*
X179576761Y-118563802D01*
X179534744Y-118586261D01*
X179489159Y-118600089D01*
X179439296Y-118605000D01*
X178857704Y-118605000D01*
X178807841Y-118600089D01*
X178762256Y-118586261D01*
X178720239Y-118563802D01*
X178683417Y-118533583D01*
X178653198Y-118496761D01*
X178630739Y-118454744D01*
X178616911Y-118409159D01*
X178612000Y-118359296D01*
X178612000Y-117352704D01*
X178616911Y-117302841D01*
X178630739Y-117257256D01*
X178653198Y-117215239D01*
X178683417Y-117178417D01*
X178720239Y-117148198D01*
X178762256Y-117125739D01*
X178807841Y-117111911D01*
X178857704Y-117107000D01*
X179439296Y-117107000D01*
X179489159Y-117111911D01*
G37*
G36*
X177337159Y-115546411D02*
G01*
X177382744Y-115560239D01*
X177424761Y-115582698D01*
X177461583Y-115612917D01*
X177491802Y-115649739D01*
X177514261Y-115691756D01*
X177528089Y-115737341D01*
X177533000Y-115787204D01*
X177533000Y-116368796D01*
X177528089Y-116418659D01*
X177514261Y-116464244D01*
X177491802Y-116506261D01*
X177461583Y-116543083D01*
X177424761Y-116573302D01*
X177382744Y-116595761D01*
X177337159Y-116609589D01*
X177287296Y-116614500D01*
X176280704Y-116614500D01*
X176230841Y-116609589D01*
X176185256Y-116595761D01*
X176143239Y-116573302D01*
X176106417Y-116543083D01*
X176076198Y-116506261D01*
X176053739Y-116464244D01*
X176039911Y-116418659D01*
X176035000Y-116368796D01*
X176035000Y-115787204D01*
X176039911Y-115737341D01*
X176053739Y-115691756D01*
X176076198Y-115649739D01*
X176106417Y-115612917D01*
X176143239Y-115582698D01*
X176185256Y-115560239D01*
X176230841Y-115546411D01*
X176280704Y-115541500D01*
X177287296Y-115541500D01*
X177337159Y-115546411D01*
G37*
G36*
X174035159Y-115546411D02*
G01*
X174080744Y-115560239D01*
X174122761Y-115582698D01*
X174159583Y-115612917D01*
X174189802Y-115649739D01*
X174212261Y-115691756D01*
X174226089Y-115737341D01*
X174231000Y-115787204D01*
X174231000Y-116368796D01*
X174226089Y-116418659D01*
X174212261Y-116464244D01*
X174189802Y-116506261D01*
X174159583Y-116543083D01*
X174122761Y-116573302D01*
X174080744Y-116595761D01*
X174035159Y-116609589D01*
X173985296Y-116614500D01*
X172978704Y-116614500D01*
X172928841Y-116609589D01*
X172883256Y-116595761D01*
X172841239Y-116573302D01*
X172804417Y-116543083D01*
X172774198Y-116506261D01*
X172751739Y-116464244D01*
X172737911Y-116418659D01*
X172733000Y-116368796D01*
X172733000Y-115787204D01*
X172737911Y-115737341D01*
X172751739Y-115691756D01*
X172774198Y-115649739D01*
X172804417Y-115612917D01*
X172841239Y-115582698D01*
X172883256Y-115560239D01*
X172928841Y-115546411D01*
X172978704Y-115541500D01*
X173985296Y-115541500D01*
X174035159Y-115546411D01*
G37*
G36*
X170606159Y-115546411D02*
G01*
X170651744Y-115560239D01*
X170693761Y-115582698D01*
X170730583Y-115612917D01*
X170760802Y-115649739D01*
X170783261Y-115691756D01*
X170797089Y-115737341D01*
X170802000Y-115787204D01*
X170802000Y-116368796D01*
X170797089Y-116418659D01*
X170783261Y-116464244D01*
X170760802Y-116506261D01*
X170730583Y-116543083D01*
X170693761Y-116573302D01*
X170651744Y-116595761D01*
X170606159Y-116609589D01*
X170556296Y-116614500D01*
X169549704Y-116614500D01*
X169499841Y-116609589D01*
X169454256Y-116595761D01*
X169412239Y-116573302D01*
X169375417Y-116543083D01*
X169345198Y-116506261D01*
X169322739Y-116464244D01*
X169308911Y-116418659D01*
X169304000Y-116368796D01*
X169304000Y-115787204D01*
X169308911Y-115737341D01*
X169322739Y-115691756D01*
X169345198Y-115649739D01*
X169375417Y-115612917D01*
X169412239Y-115582698D01*
X169454256Y-115560239D01*
X169499841Y-115546411D01*
X169549704Y-115541500D01*
X170556296Y-115541500D01*
X170606159Y-115546411D01*
G37*
G36*
X157058659Y-115079911D02*
G01*
X157104244Y-115093739D01*
X157146261Y-115116198D01*
X157183083Y-115146417D01*
X157213302Y-115183239D01*
X157235761Y-115225256D01*
X157249589Y-115270841D01*
X157254500Y-115320704D01*
X157254500Y-116327296D01*
X157249589Y-116377159D01*
X157235761Y-116422744D01*
X157213302Y-116464761D01*
X157183083Y-116501583D01*
X157146261Y-116531802D01*
X157104244Y-116554261D01*
X157058659Y-116568089D01*
X157008796Y-116573000D01*
X156427204Y-116573000D01*
X156377341Y-116568089D01*
X156331756Y-116554261D01*
X156289739Y-116531802D01*
X156252917Y-116501583D01*
X156222698Y-116464761D01*
X156200239Y-116422744D01*
X156186411Y-116377159D01*
X156181500Y-116327296D01*
X156181500Y-115320704D01*
X156186411Y-115270841D01*
X156200239Y-115225256D01*
X156222698Y-115183239D01*
X156252917Y-115146417D01*
X156289739Y-115116198D01*
X156331756Y-115093739D01*
X156377341Y-115079911D01*
X156427204Y-115075000D01*
X157008796Y-115075000D01*
X157058659Y-115079911D01*
G37*
G36*
X155183659Y-115079911D02*
G01*
X155229244Y-115093739D01*
X155271261Y-115116198D01*
X155308083Y-115146417D01*
X155338302Y-115183239D01*
X155360761Y-115225256D01*
X155374589Y-115270841D01*
X155379500Y-115320704D01*
X155379500Y-116327296D01*
X155374589Y-116377159D01*
X155360761Y-116422744D01*
X155338302Y-116464761D01*
X155308083Y-116501583D01*
X155271261Y-116531802D01*
X155229244Y-116554261D01*
X155183659Y-116568089D01*
X155133796Y-116573000D01*
X154552204Y-116573000D01*
X154502341Y-116568089D01*
X154456756Y-116554261D01*
X154414739Y-116531802D01*
X154377917Y-116501583D01*
X154347698Y-116464761D01*
X154325239Y-116422744D01*
X154311411Y-116377159D01*
X154306500Y-116327296D01*
X154306500Y-115320704D01*
X154311411Y-115270841D01*
X154325239Y-115225256D01*
X154347698Y-115183239D01*
X154377917Y-115146417D01*
X154414739Y-115116198D01*
X154456756Y-115093739D01*
X154502341Y-115079911D01*
X154552204Y-115075000D01*
X155133796Y-115075000D01*
X155183659Y-115079911D01*
G37*
G36*
X161455159Y-115079911D02*
G01*
X161500744Y-115093739D01*
X161542761Y-115116198D01*
X161579583Y-115146417D01*
X161609802Y-115183239D01*
X161632261Y-115225256D01*
X161646089Y-115270841D01*
X161651000Y-115320704D01*
X161651000Y-116327296D01*
X161646089Y-116377159D01*
X161632261Y-116422744D01*
X161609802Y-116464761D01*
X161579583Y-116501583D01*
X161542761Y-116531802D01*
X161500744Y-116554261D01*
X161455159Y-116568089D01*
X161405296Y-116573000D01*
X160823704Y-116573000D01*
X160773841Y-116568089D01*
X160728256Y-116554261D01*
X160686239Y-116531802D01*
X160649417Y-116501583D01*
X160619198Y-116464761D01*
X160596739Y-116422744D01*
X160582911Y-116377159D01*
X160578000Y-116327296D01*
X160578000Y-115320704D01*
X160582911Y-115270841D01*
X160596739Y-115225256D01*
X160619198Y-115183239D01*
X160649417Y-115146417D01*
X160686239Y-115116198D01*
X160728256Y-115093739D01*
X160773841Y-115079911D01*
X160823704Y-115075000D01*
X161405296Y-115075000D01*
X161455159Y-115079911D01*
G37*
G36*
X163330159Y-115079911D02*
G01*
X163375744Y-115093739D01*
X163417761Y-115116198D01*
X163454583Y-115146417D01*
X163484802Y-115183239D01*
X163507261Y-115225256D01*
X163521089Y-115270841D01*
X163526000Y-115320704D01*
X163526000Y-116327296D01*
X163521089Y-116377159D01*
X163507261Y-116422744D01*
X163484802Y-116464761D01*
X163454583Y-116501583D01*
X163417761Y-116531802D01*
X163375744Y-116554261D01*
X163330159Y-116568089D01*
X163280296Y-116573000D01*
X162698704Y-116573000D01*
X162648841Y-116568089D01*
X162603256Y-116554261D01*
X162561239Y-116531802D01*
X162524417Y-116501583D01*
X162494198Y-116464761D01*
X162471739Y-116422744D01*
X162457911Y-116377159D01*
X162453000Y-116327296D01*
X162453000Y-115320704D01*
X162457911Y-115270841D01*
X162471739Y-115225256D01*
X162494198Y-115183239D01*
X162524417Y-115146417D01*
X162561239Y-115116198D01*
X162603256Y-115093739D01*
X162648841Y-115079911D01*
X162698704Y-115075000D01*
X163280296Y-115075000D01*
X163330159Y-115079911D01*
G37*
G36*
X148501159Y-115079911D02*
G01*
X148546744Y-115093739D01*
X148588761Y-115116198D01*
X148625583Y-115146417D01*
X148655802Y-115183239D01*
X148678261Y-115225256D01*
X148692089Y-115270841D01*
X148697000Y-115320704D01*
X148697000Y-116327296D01*
X148692089Y-116377159D01*
X148678261Y-116422744D01*
X148655802Y-116464761D01*
X148625583Y-116501583D01*
X148588761Y-116531802D01*
X148546744Y-116554261D01*
X148501159Y-116568089D01*
X148451296Y-116573000D01*
X147869704Y-116573000D01*
X147819841Y-116568089D01*
X147774256Y-116554261D01*
X147732239Y-116531802D01*
X147695417Y-116501583D01*
X147665198Y-116464761D01*
X147642739Y-116422744D01*
X147628911Y-116377159D01*
X147624000Y-116327296D01*
X147624000Y-115320704D01*
X147628911Y-115270841D01*
X147642739Y-115225256D01*
X147665198Y-115183239D01*
X147695417Y-115146417D01*
X147732239Y-115116198D01*
X147774256Y-115093739D01*
X147819841Y-115079911D01*
X147869704Y-115075000D01*
X148451296Y-115075000D01*
X148501159Y-115079911D01*
G37*
G36*
X150376159Y-115079911D02*
G01*
X150421744Y-115093739D01*
X150463761Y-115116198D01*
X150500583Y-115146417D01*
X150530802Y-115183239D01*
X150553261Y-115225256D01*
X150567089Y-115270841D01*
X150572000Y-115320704D01*
X150572000Y-116327296D01*
X150567089Y-116377159D01*
X150553261Y-116422744D01*
X150530802Y-116464761D01*
X150500583Y-116501583D01*
X150463761Y-116531802D01*
X150421744Y-116554261D01*
X150376159Y-116568089D01*
X150326296Y-116573000D01*
X149744704Y-116573000D01*
X149694841Y-116568089D01*
X149649256Y-116554261D01*
X149607239Y-116531802D01*
X149570417Y-116501583D01*
X149540198Y-116464761D01*
X149517739Y-116422744D01*
X149503911Y-116377159D01*
X149499000Y-116327296D01*
X149499000Y-115320704D01*
X149503911Y-115270841D01*
X149517739Y-115225256D01*
X149540198Y-115183239D01*
X149570417Y-115146417D01*
X149607239Y-115116198D01*
X149649256Y-115093739D01*
X149694841Y-115079911D01*
X149744704Y-115075000D01*
X150326296Y-115075000D01*
X150376159Y-115079911D01*
G37*
G36*
X180601000Y-116207000D02*
G01*
X178603000Y-116207000D01*
X178603000Y-115309000D01*
X180601000Y-115309000D01*
X180601000Y-116207000D01*
G37*
G36*
X183601000Y-115257000D02*
G01*
X181603000Y-115257000D01*
X181603000Y-114359000D01*
X183601000Y-114359000D01*
X183601000Y-115257000D01*
G37*
G36*
X170606159Y-113671411D02*
G01*
X170651744Y-113685239D01*
X170693761Y-113707698D01*
X170730583Y-113737917D01*
X170760802Y-113774739D01*
X170783261Y-113816756D01*
X170797089Y-113862341D01*
X170802000Y-113912204D01*
X170802000Y-114493796D01*
X170797089Y-114543659D01*
X170783261Y-114589244D01*
X170760802Y-114631261D01*
X170730583Y-114668083D01*
X170693761Y-114698302D01*
X170651744Y-114720761D01*
X170606159Y-114734589D01*
X170556296Y-114739500D01*
X169549704Y-114739500D01*
X169499841Y-114734589D01*
X169454256Y-114720761D01*
X169412239Y-114698302D01*
X169375417Y-114668083D01*
X169345198Y-114631261D01*
X169322739Y-114589244D01*
X169308911Y-114543659D01*
X169304000Y-114493796D01*
X169304000Y-113912204D01*
X169308911Y-113862341D01*
X169322739Y-113816756D01*
X169345198Y-113774739D01*
X169375417Y-113737917D01*
X169412239Y-113707698D01*
X169454256Y-113685239D01*
X169499841Y-113671411D01*
X169549704Y-113666500D01*
X170556296Y-113666500D01*
X170606159Y-113671411D01*
G37*
G36*
X174035159Y-113671411D02*
G01*
X174080744Y-113685239D01*
X174122761Y-113707698D01*
X174159583Y-113737917D01*
X174189802Y-113774739D01*
X174212261Y-113816756D01*
X174226089Y-113862341D01*
X174231000Y-113912204D01*
X174231000Y-114493796D01*
X174226089Y-114543659D01*
X174212261Y-114589244D01*
X174189802Y-114631261D01*
X174159583Y-114668083D01*
X174122761Y-114698302D01*
X174080744Y-114720761D01*
X174035159Y-114734589D01*
X173985296Y-114739500D01*
X172978704Y-114739500D01*
X172928841Y-114734589D01*
X172883256Y-114720761D01*
X172841239Y-114698302D01*
X172804417Y-114668083D01*
X172774198Y-114631261D01*
X172751739Y-114589244D01*
X172737911Y-114543659D01*
X172733000Y-114493796D01*
X172733000Y-113912204D01*
X172737911Y-113862341D01*
X172751739Y-113816756D01*
X172774198Y-113774739D01*
X172804417Y-113737917D01*
X172841239Y-113707698D01*
X172883256Y-113685239D01*
X172928841Y-113671411D01*
X172978704Y-113666500D01*
X173985296Y-113666500D01*
X174035159Y-113671411D01*
G37*
G36*
X177337159Y-113671411D02*
G01*
X177382744Y-113685239D01*
X177424761Y-113707698D01*
X177461583Y-113737917D01*
X177491802Y-113774739D01*
X177514261Y-113816756D01*
X177528089Y-113862341D01*
X177533000Y-113912204D01*
X177533000Y-114493796D01*
X177528089Y-114543659D01*
X177514261Y-114589244D01*
X177491802Y-114631261D01*
X177461583Y-114668083D01*
X177424761Y-114698302D01*
X177382744Y-114720761D01*
X177337159Y-114734589D01*
X177287296Y-114739500D01*
X176280704Y-114739500D01*
X176230841Y-114734589D01*
X176185256Y-114720761D01*
X176143239Y-114698302D01*
X176106417Y-114668083D01*
X176076198Y-114631261D01*
X176053739Y-114589244D01*
X176039911Y-114543659D01*
X176035000Y-114493796D01*
X176035000Y-113912204D01*
X176039911Y-113862341D01*
X176053739Y-113816756D01*
X176076198Y-113774739D01*
X176106417Y-113737917D01*
X176143239Y-113707698D01*
X176185256Y-113685239D01*
X176230841Y-113671411D01*
X176280704Y-113666500D01*
X177287296Y-113666500D01*
X177337159Y-113671411D01*
G37*
G36*
X180601000Y-114307000D02*
G01*
X178603000Y-114307000D01*
X178603000Y-113409000D01*
X180601000Y-113409000D01*
X180601000Y-114307000D01*
G37*
G36*
X129931000Y-112913000D02*
G01*
X128133000Y-112913000D01*
X128133000Y-111115000D01*
X129931000Y-111115000D01*
X129931000Y-112913000D01*
G37*
G36*
X142885000Y-112913000D02*
G01*
X141087000Y-112913000D01*
X141087000Y-111115000D01*
X142885000Y-111115000D01*
X142885000Y-112913000D01*
G37*
G36*
X175761642Y-110387626D02*
G01*
X175916151Y-110451625D01*
X176055205Y-110544538D01*
X176173462Y-110662795D01*
X176266375Y-110801849D01*
X176330374Y-110956358D01*
X176363000Y-111120379D01*
X176363000Y-111287621D01*
X176330374Y-111451642D01*
X176266375Y-111606151D01*
X176173462Y-111745205D01*
X176055205Y-111863462D01*
X175916151Y-111956375D01*
X175761642Y-112020374D01*
X175597621Y-112053000D01*
X175430379Y-112053000D01*
X175266358Y-112020374D01*
X175111849Y-111956375D01*
X174972795Y-111863462D01*
X174854538Y-111745205D01*
X174761625Y-111606151D01*
X174697626Y-111451642D01*
X174665000Y-111287621D01*
X174665000Y-111120379D01*
X174697626Y-110956358D01*
X174761625Y-110801849D01*
X174854538Y-110662795D01*
X174972795Y-110544538D01*
X175111849Y-110451625D01*
X175266358Y-110387626D01*
X175430379Y-110355000D01*
X175597621Y-110355000D01*
X175761642Y-110387626D01*
G37*
G36*
X133269000Y-111747000D02*
G01*
X132171000Y-111747000D01*
X132171000Y-110249000D01*
X133269000Y-110249000D01*
X133269000Y-111747000D01*
G37*
G36*
X135169000Y-111747000D02*
G01*
X134071000Y-111747000D01*
X134071000Y-110249000D01*
X135169000Y-110249000D01*
X135169000Y-111747000D01*
G37*
G36*
X138475159Y-110641911D02*
G01*
X138520744Y-110655739D01*
X138562761Y-110678198D01*
X138599583Y-110708417D01*
X138629802Y-110745239D01*
X138652261Y-110787256D01*
X138666089Y-110832841D01*
X138671000Y-110882704D01*
X138671000Y-111464296D01*
X138666089Y-111514159D01*
X138652261Y-111559744D01*
X138629802Y-111601761D01*
X138599583Y-111638583D01*
X138562761Y-111668802D01*
X138520744Y-111691261D01*
X138475159Y-111705089D01*
X138425296Y-111710000D01*
X137418704Y-111710000D01*
X137368841Y-111705089D01*
X137323256Y-111691261D01*
X137281239Y-111668802D01*
X137244417Y-111638583D01*
X137214198Y-111601761D01*
X137191739Y-111559744D01*
X137177911Y-111514159D01*
X137173000Y-111464296D01*
X137173000Y-110882704D01*
X137177911Y-110832841D01*
X137191739Y-110787256D01*
X137214198Y-110745239D01*
X137244417Y-110708417D01*
X137281239Y-110678198D01*
X137323256Y-110655739D01*
X137368841Y-110641911D01*
X137418704Y-110637000D01*
X138425296Y-110637000D01*
X138475159Y-110641911D01*
G37*
G36*
X181256071Y-108474762D02*
G01*
X181256074Y-108474763D01*
X181256073Y-108474763D01*
X181510675Y-108580222D01*
X181739810Y-108733326D01*
X181934674Y-108928190D01*
X182087778Y-109157325D01*
X182175143Y-109368245D01*
X182193238Y-109411929D01*
X182247000Y-109682209D01*
X182247000Y-109957791D01*
X182193238Y-110228071D01*
X182193237Y-110228073D01*
X182087778Y-110482675D01*
X181934674Y-110711810D01*
X181739810Y-110906674D01*
X181510675Y-111059778D01*
X181299755Y-111147143D01*
X181256071Y-111165238D01*
X180985791Y-111219000D01*
X180710209Y-111219000D01*
X180439929Y-111165238D01*
X180396245Y-111147143D01*
X180185325Y-111059778D01*
X179956190Y-110906674D01*
X179761326Y-110711810D01*
X179608222Y-110482675D01*
X179502763Y-110228073D01*
X179502762Y-110228071D01*
X179449000Y-109957791D01*
X179449000Y-109682209D01*
X179502762Y-109411929D01*
X179520857Y-109368245D01*
X179608222Y-109157325D01*
X179761326Y-108928190D01*
X179956190Y-108733326D01*
X180185325Y-108580222D01*
X180439927Y-108474763D01*
X180439926Y-108474763D01*
X180439929Y-108474762D01*
X180710209Y-108421000D01*
X180985791Y-108421000D01*
X181256071Y-108474762D01*
G37*
G36*
X170850000Y-111084000D02*
G01*
X169002000Y-111084000D01*
X169002000Y-108336000D01*
X170850000Y-108336000D01*
X170850000Y-111084000D01*
G37*
G36*
X163408659Y-109491911D02*
G01*
X163454244Y-109505739D01*
X163496261Y-109528198D01*
X163533083Y-109558417D01*
X163563302Y-109595239D01*
X163585761Y-109637256D01*
X163599589Y-109682841D01*
X163604500Y-109732704D01*
X163604500Y-110739296D01*
X163599589Y-110789159D01*
X163585761Y-110834744D01*
X163563302Y-110876761D01*
X163533083Y-110913583D01*
X163496261Y-110943802D01*
X163454244Y-110966261D01*
X163408659Y-110980089D01*
X163358796Y-110985000D01*
X162777204Y-110985000D01*
X162727341Y-110980089D01*
X162681756Y-110966261D01*
X162639739Y-110943802D01*
X162602917Y-110913583D01*
X162572698Y-110876761D01*
X162550239Y-110834744D01*
X162536411Y-110789159D01*
X162531500Y-110739296D01*
X162531500Y-109732704D01*
X162536411Y-109682841D01*
X162550239Y-109637256D01*
X162572698Y-109595239D01*
X162602917Y-109558417D01*
X162639739Y-109528198D01*
X162681756Y-109505739D01*
X162727341Y-109491911D01*
X162777204Y-109487000D01*
X163358796Y-109487000D01*
X163408659Y-109491911D01*
G37*
G36*
X161533659Y-109491911D02*
G01*
X161579244Y-109505739D01*
X161621261Y-109528198D01*
X161658083Y-109558417D01*
X161688302Y-109595239D01*
X161710761Y-109637256D01*
X161724589Y-109682841D01*
X161729500Y-109732704D01*
X161729500Y-110739296D01*
X161724589Y-110789159D01*
X161710761Y-110834744D01*
X161688302Y-110876761D01*
X161658083Y-110913583D01*
X161621261Y-110943802D01*
X161579244Y-110966261D01*
X161533659Y-110980089D01*
X161483796Y-110985000D01*
X160902204Y-110985000D01*
X160852341Y-110980089D01*
X160806756Y-110966261D01*
X160764739Y-110943802D01*
X160727917Y-110913583D01*
X160697698Y-110876761D01*
X160675239Y-110834744D01*
X160661411Y-110789159D01*
X160656500Y-110739296D01*
X160656500Y-109732704D01*
X160661411Y-109682841D01*
X160675239Y-109637256D01*
X160697698Y-109595239D01*
X160727917Y-109558417D01*
X160764739Y-109528198D01*
X160806756Y-109505739D01*
X160852341Y-109491911D01*
X160902204Y-109487000D01*
X161483796Y-109487000D01*
X161533659Y-109491911D01*
G37*
G36*
X150122159Y-109491911D02*
G01*
X150167744Y-109505739D01*
X150209761Y-109528198D01*
X150246583Y-109558417D01*
X150276802Y-109595239D01*
X150299261Y-109637256D01*
X150313089Y-109682841D01*
X150318000Y-109732704D01*
X150318000Y-110739296D01*
X150313089Y-110789159D01*
X150299261Y-110834744D01*
X150276802Y-110876761D01*
X150246583Y-110913583D01*
X150209761Y-110943802D01*
X150167744Y-110966261D01*
X150122159Y-110980089D01*
X150072296Y-110985000D01*
X149490704Y-110985000D01*
X149440841Y-110980089D01*
X149395256Y-110966261D01*
X149353239Y-110943802D01*
X149316417Y-110913583D01*
X149286198Y-110876761D01*
X149263739Y-110834744D01*
X149249911Y-110789159D01*
X149245000Y-110739296D01*
X149245000Y-109732704D01*
X149249911Y-109682841D01*
X149263739Y-109637256D01*
X149286198Y-109595239D01*
X149316417Y-109558417D01*
X149353239Y-109528198D01*
X149395256Y-109505739D01*
X149440841Y-109491911D01*
X149490704Y-109487000D01*
X150072296Y-109487000D01*
X150122159Y-109491911D01*
G37*
G36*
X148247159Y-109491911D02*
G01*
X148292744Y-109505739D01*
X148334761Y-109528198D01*
X148371583Y-109558417D01*
X148401802Y-109595239D01*
X148424261Y-109637256D01*
X148438089Y-109682841D01*
X148443000Y-109732704D01*
X148443000Y-110739296D01*
X148438089Y-110789159D01*
X148424261Y-110834744D01*
X148401802Y-110876761D01*
X148371583Y-110913583D01*
X148334761Y-110943802D01*
X148292744Y-110966261D01*
X148247159Y-110980089D01*
X148197296Y-110985000D01*
X147615704Y-110985000D01*
X147565841Y-110980089D01*
X147520256Y-110966261D01*
X147478239Y-110943802D01*
X147441417Y-110913583D01*
X147411198Y-110876761D01*
X147388739Y-110834744D01*
X147374911Y-110789159D01*
X147370000Y-110739296D01*
X147370000Y-109732704D01*
X147374911Y-109682841D01*
X147388739Y-109637256D01*
X147411198Y-109595239D01*
X147441417Y-109558417D01*
X147478239Y-109528198D01*
X147520256Y-109505739D01*
X147565841Y-109491911D01*
X147615704Y-109487000D01*
X148197296Y-109487000D01*
X148247159Y-109491911D01*
G37*
G36*
X158212105Y-109019389D02*
G01*
X158316560Y-109040166D01*
X158464153Y-109101301D01*
X158596982Y-109190055D01*
X158709945Y-109303018D01*
X158798699Y-109435847D01*
X158859834Y-109583440D01*
X158870917Y-109639159D01*
X158890226Y-109736229D01*
X158891000Y-109740123D01*
X158891000Y-109899877D01*
X158859834Y-110056560D01*
X158798699Y-110204153D01*
X158709945Y-110336982D01*
X158596982Y-110449945D01*
X158464153Y-110538699D01*
X158316560Y-110599834D01*
X158212105Y-110620611D01*
X158159878Y-110631000D01*
X158000122Y-110631000D01*
X157947895Y-110620611D01*
X157843440Y-110599834D01*
X157695847Y-110538699D01*
X157563018Y-110449945D01*
X157450055Y-110336982D01*
X157361301Y-110204153D01*
X157300166Y-110056560D01*
X157269000Y-109899877D01*
X157269000Y-109740123D01*
X157269775Y-109736229D01*
X157289083Y-109639159D01*
X157300166Y-109583440D01*
X157361301Y-109435847D01*
X157450055Y-109303018D01*
X157563018Y-109190055D01*
X157695847Y-109101301D01*
X157843440Y-109040166D01*
X157947895Y-109019389D01*
X158000122Y-109009000D01*
X158159878Y-109009000D01*
X158212105Y-109019389D01*
G37*
G36*
X153132105Y-109019389D02*
G01*
X153236560Y-109040166D01*
X153384153Y-109101301D01*
X153516982Y-109190055D01*
X153629945Y-109303018D01*
X153718699Y-109435847D01*
X153779834Y-109583440D01*
X153790917Y-109639159D01*
X153810226Y-109736229D01*
X153811000Y-109740123D01*
X153811000Y-109899877D01*
X153779834Y-110056560D01*
X153718699Y-110204153D01*
X153629945Y-110336982D01*
X153516982Y-110449945D01*
X153384153Y-110538699D01*
X153236560Y-110599834D01*
X153132105Y-110620611D01*
X153079878Y-110631000D01*
X152920122Y-110631000D01*
X152867895Y-110620611D01*
X152763440Y-110599834D01*
X152615847Y-110538699D01*
X152483018Y-110449945D01*
X152370055Y-110336982D01*
X152281301Y-110204153D01*
X152220166Y-110056560D01*
X152189000Y-109899877D01*
X152189000Y-109740123D01*
X152189775Y-109736229D01*
X152209083Y-109639159D01*
X152220166Y-109583440D01*
X152281301Y-109435847D01*
X152370055Y-109303018D01*
X152483018Y-109190055D01*
X152615847Y-109101301D01*
X152763440Y-109040166D01*
X152867895Y-109019389D01*
X152920122Y-109009000D01*
X153079878Y-109009000D01*
X153132105Y-109019389D01*
G37*
G36*
X142248227Y-108609547D02*
G01*
X142248230Y-108609548D01*
X142248229Y-108609548D01*
X142411836Y-108677316D01*
X142559079Y-108775701D01*
X142684299Y-108900921D01*
X142782684Y-109048164D01*
X142782684Y-109048165D01*
X142850453Y-109211773D01*
X142885000Y-109385455D01*
X142885000Y-109562545D01*
X142850453Y-109736227D01*
X142848839Y-109740123D01*
X142782684Y-109899836D01*
X142684299Y-110047079D01*
X142559079Y-110172299D01*
X142411836Y-110270684D01*
X142296147Y-110318604D01*
X142248227Y-110338453D01*
X142074545Y-110373000D01*
X141897455Y-110373000D01*
X141723773Y-110338453D01*
X141675853Y-110318604D01*
X141560164Y-110270684D01*
X141412921Y-110172299D01*
X141287701Y-110047079D01*
X141189316Y-109899836D01*
X141123161Y-109740123D01*
X141121547Y-109736227D01*
X141087000Y-109562545D01*
X141087000Y-109385455D01*
X141121547Y-109211773D01*
X141189316Y-109048165D01*
X141189316Y-109048164D01*
X141287701Y-108900921D01*
X141412921Y-108775701D01*
X141560164Y-108677316D01*
X141723771Y-108609548D01*
X141723770Y-108609548D01*
X141723773Y-108609547D01*
X141897455Y-108575000D01*
X142074545Y-108575000D01*
X142248227Y-108609547D01*
G37*
G36*
X129294227Y-108609547D02*
G01*
X129294230Y-108609548D01*
X129294229Y-108609548D01*
X129457836Y-108677316D01*
X129605079Y-108775701D01*
X129730299Y-108900921D01*
X129828684Y-109048164D01*
X129828684Y-109048165D01*
X129896453Y-109211773D01*
X129931000Y-109385455D01*
X129931000Y-109562545D01*
X129896453Y-109736227D01*
X129894839Y-109740123D01*
X129828684Y-109899836D01*
X129730299Y-110047079D01*
X129605079Y-110172299D01*
X129457836Y-110270684D01*
X129342147Y-110318604D01*
X129294227Y-110338453D01*
X129120545Y-110373000D01*
X128943455Y-110373000D01*
X128769773Y-110338453D01*
X128721853Y-110318604D01*
X128606164Y-110270684D01*
X128458921Y-110172299D01*
X128333701Y-110047079D01*
X128235316Y-109899836D01*
X128169161Y-109740123D01*
X128167547Y-109736227D01*
X128133000Y-109562545D01*
X128133000Y-109385455D01*
X128167547Y-109211773D01*
X128235316Y-109048165D01*
X128235316Y-109048164D01*
X128333701Y-108900921D01*
X128458921Y-108775701D01*
X128606164Y-108677316D01*
X128769771Y-108609548D01*
X128769770Y-108609548D01*
X128769773Y-108609547D01*
X128943455Y-108575000D01*
X129120545Y-108575000D01*
X129294227Y-108609547D01*
G37*
G36*
X138475159Y-108766911D02*
G01*
X138520744Y-108780739D01*
X138562761Y-108803198D01*
X138599583Y-108833417D01*
X138629802Y-108870239D01*
X138652261Y-108912256D01*
X138666089Y-108957841D01*
X138671000Y-109007704D01*
X138671000Y-109589296D01*
X138666089Y-109639159D01*
X138652261Y-109684744D01*
X138629802Y-109726761D01*
X138599583Y-109763583D01*
X138562761Y-109793802D01*
X138520744Y-109816261D01*
X138475159Y-109830089D01*
X138425296Y-109835000D01*
X137418704Y-109835000D01*
X137368841Y-109830089D01*
X137323256Y-109816261D01*
X137281239Y-109793802D01*
X137244417Y-109763583D01*
X137214198Y-109726761D01*
X137191739Y-109684744D01*
X137177911Y-109639159D01*
X137173000Y-109589296D01*
X137173000Y-109007704D01*
X137177911Y-108957841D01*
X137191739Y-108912256D01*
X137214198Y-108870239D01*
X137244417Y-108833417D01*
X137281239Y-108803198D01*
X137323256Y-108780739D01*
X137368841Y-108766911D01*
X137418704Y-108762000D01*
X138425296Y-108762000D01*
X138475159Y-108766911D01*
G37*
G36*
X134219000Y-109547000D02*
G01*
X133121000Y-109547000D01*
X133121000Y-108049000D01*
X134219000Y-108049000D01*
X134219000Y-109547000D01*
G37*
G36*
X175761642Y-107387626D02*
G01*
X175916151Y-107451625D01*
X176055205Y-107544538D01*
X176173462Y-107662795D01*
X176266375Y-107801849D01*
X176330374Y-107956358D01*
X176363000Y-108120379D01*
X176363000Y-108287621D01*
X176330374Y-108451642D01*
X176266375Y-108606151D01*
X176173462Y-108745205D01*
X176055205Y-108863462D01*
X175916151Y-108956375D01*
X175761642Y-109020374D01*
X175597621Y-109053000D01*
X175430379Y-109053000D01*
X175266358Y-109020374D01*
X175111849Y-108956375D01*
X174972795Y-108863462D01*
X174854538Y-108745205D01*
X174761625Y-108606151D01*
X174697626Y-108451642D01*
X174665000Y-108287621D01*
X174665000Y-108120379D01*
X174697626Y-107956358D01*
X174761625Y-107801849D01*
X174854538Y-107662795D01*
X174972795Y-107544538D01*
X175111849Y-107451625D01*
X175266358Y-107387626D01*
X175430379Y-107355000D01*
X175597621Y-107355000D01*
X175761642Y-107387626D01*
G37*
G36*
X155672105Y-106479389D02*
G01*
X155776560Y-106500166D01*
X155924153Y-106561301D01*
X156056982Y-106650055D01*
X156169945Y-106763018D01*
X156258699Y-106895847D01*
X156319834Y-107043440D01*
X156319834Y-107043442D01*
X156351000Y-107200122D01*
X156351000Y-107359878D01*
X156345480Y-107387627D01*
X156319834Y-107516560D01*
X156258699Y-107664153D01*
X156169945Y-107796982D01*
X156056982Y-107909945D01*
X155924153Y-107998699D01*
X155776560Y-108059834D01*
X155672105Y-108080611D01*
X155619878Y-108091000D01*
X155460122Y-108091000D01*
X155407895Y-108080611D01*
X155303440Y-108059834D01*
X155155847Y-107998699D01*
X155023018Y-107909945D01*
X154910055Y-107796982D01*
X154821301Y-107664153D01*
X154760166Y-107516560D01*
X154734520Y-107387627D01*
X154729000Y-107359878D01*
X154729000Y-107200122D01*
X154760166Y-107043442D01*
X154760166Y-107043440D01*
X154821301Y-106895847D01*
X154910055Y-106763018D01*
X155023018Y-106650055D01*
X155155847Y-106561301D01*
X155303440Y-106500166D01*
X155407895Y-106479389D01*
X155460122Y-106469000D01*
X155619878Y-106469000D01*
X155672105Y-106479389D01*
G37*
G36*
X129294227Y-106069547D02*
G01*
X129294230Y-106069548D01*
X129294229Y-106069548D01*
X129457836Y-106137316D01*
X129605079Y-106235701D01*
X129730299Y-106360921D01*
X129828684Y-106508164D01*
X129828684Y-106508165D01*
X129896453Y-106671773D01*
X129931000Y-106845455D01*
X129931000Y-107022545D01*
X129896453Y-107196227D01*
X129894839Y-107200123D01*
X129828684Y-107359836D01*
X129730299Y-107507079D01*
X129605079Y-107632299D01*
X129457836Y-107730684D01*
X129342147Y-107778604D01*
X129294227Y-107798453D01*
X129120545Y-107833000D01*
X128943455Y-107833000D01*
X128769773Y-107798453D01*
X128721853Y-107778604D01*
X128606164Y-107730684D01*
X128458921Y-107632299D01*
X128333701Y-107507079D01*
X128235316Y-107359836D01*
X128169161Y-107200123D01*
X128167547Y-107196227D01*
X128133000Y-107022545D01*
X128133000Y-106845455D01*
X128167547Y-106671773D01*
X128235316Y-106508165D01*
X128235316Y-106508164D01*
X128333701Y-106360921D01*
X128458921Y-106235701D01*
X128606164Y-106137316D01*
X128769771Y-106069548D01*
X128769770Y-106069548D01*
X128769773Y-106069547D01*
X128943455Y-106035000D01*
X129120545Y-106035000D01*
X129294227Y-106069547D01*
G37*
G36*
X142248227Y-106069547D02*
G01*
X142248230Y-106069548D01*
X142248229Y-106069548D01*
X142411836Y-106137316D01*
X142559079Y-106235701D01*
X142684299Y-106360921D01*
X142782684Y-106508164D01*
X142782684Y-106508165D01*
X142850453Y-106671773D01*
X142885000Y-106845455D01*
X142885000Y-107022545D01*
X142850453Y-107196227D01*
X142848839Y-107200123D01*
X142782684Y-107359836D01*
X142684299Y-107507079D01*
X142559079Y-107632299D01*
X142411836Y-107730684D01*
X142296147Y-107778604D01*
X142248227Y-107798453D01*
X142074545Y-107833000D01*
X141897455Y-107833000D01*
X141723773Y-107798453D01*
X141675853Y-107778604D01*
X141560164Y-107730684D01*
X141412921Y-107632299D01*
X141287701Y-107507079D01*
X141189316Y-107359836D01*
X141123161Y-107200123D01*
X141121547Y-107196227D01*
X141087000Y-107022545D01*
X141087000Y-106845455D01*
X141121547Y-106671773D01*
X141189316Y-106508165D01*
X141189316Y-106508164D01*
X141287701Y-106360921D01*
X141412921Y-106235701D01*
X141560164Y-106137316D01*
X141723771Y-106069548D01*
X141723770Y-106069548D01*
X141723773Y-106069547D01*
X141897455Y-106035000D01*
X142074545Y-106035000D01*
X142248227Y-106069547D01*
G37*
G36*
X150921159Y-106577911D02*
G01*
X150966744Y-106591739D01*
X151008761Y-106614198D01*
X151045583Y-106644417D01*
X151075802Y-106681239D01*
X151098261Y-106723256D01*
X151112089Y-106768841D01*
X151117000Y-106818704D01*
X151117000Y-107400296D01*
X151112089Y-107450159D01*
X151098261Y-107495744D01*
X151075802Y-107537761D01*
X151045583Y-107574583D01*
X151008761Y-107604802D01*
X150966744Y-107627261D01*
X150921159Y-107641089D01*
X150871296Y-107646000D01*
X149864704Y-107646000D01*
X149814841Y-107641089D01*
X149769256Y-107627261D01*
X149727239Y-107604802D01*
X149690417Y-107574583D01*
X149660198Y-107537761D01*
X149637739Y-107495744D01*
X149623911Y-107450159D01*
X149619000Y-107400296D01*
X149619000Y-106818704D01*
X149623911Y-106768841D01*
X149637739Y-106723256D01*
X149660198Y-106681239D01*
X149690417Y-106644417D01*
X149727239Y-106614198D01*
X149769256Y-106591739D01*
X149814841Y-106577911D01*
X149864704Y-106573000D01*
X150871296Y-106573000D01*
X150921159Y-106577911D01*
G37*
G36*
X170850000Y-106784000D02*
G01*
X169002000Y-106784000D01*
X169002000Y-104036000D01*
X170850000Y-104036000D01*
X170850000Y-106784000D01*
G37*
G36*
X180477000Y-105801000D02*
G01*
X178679000Y-105801000D01*
X178679000Y-104003000D01*
X180477000Y-104003000D01*
X180477000Y-105801000D01*
G37*
G36*
X182380227Y-104037547D02*
G01*
X182381692Y-104038154D01*
X182543836Y-104105316D01*
X182614748Y-104152698D01*
X182683438Y-104198595D01*
X182691079Y-104203701D01*
X182816299Y-104328921D01*
X182914684Y-104476164D01*
X182917327Y-104482545D01*
X182982453Y-104639773D01*
X183017000Y-104813455D01*
X183017000Y-104990545D01*
X182982453Y-105164227D01*
X182976190Y-105179346D01*
X182914684Y-105327836D01*
X182871751Y-105392089D01*
X182816300Y-105475078D01*
X182691078Y-105600300D01*
X182660481Y-105620744D01*
X182543836Y-105698684D01*
X182478391Y-105725792D01*
X182380227Y-105766453D01*
X182206545Y-105801000D01*
X182029455Y-105801000D01*
X181855773Y-105766453D01*
X181757609Y-105725792D01*
X181692164Y-105698684D01*
X181575519Y-105620744D01*
X181544922Y-105600300D01*
X181419700Y-105475078D01*
X181364249Y-105392089D01*
X181321316Y-105327836D01*
X181259810Y-105179346D01*
X181253547Y-105164227D01*
X181219000Y-104990545D01*
X181219000Y-104813455D01*
X181253547Y-104639773D01*
X181318673Y-104482545D01*
X181321316Y-104476164D01*
X181419701Y-104328921D01*
X181544921Y-104203701D01*
X181552563Y-104198595D01*
X181621252Y-104152698D01*
X181692164Y-104105316D01*
X181854308Y-104038154D01*
X181855773Y-104037547D01*
X182029455Y-104003000D01*
X182206545Y-104003000D01*
X182380227Y-104037547D01*
G37*
G36*
X150921159Y-104702911D02*
G01*
X150966744Y-104716739D01*
X151008761Y-104739198D01*
X151045583Y-104769417D01*
X151075802Y-104806239D01*
X151098261Y-104848256D01*
X151112089Y-104893841D01*
X151117000Y-104943704D01*
X151117000Y-105525296D01*
X151112089Y-105575159D01*
X151098261Y-105620744D01*
X151075802Y-105662761D01*
X151045583Y-105699583D01*
X151008761Y-105729802D01*
X150966744Y-105752261D01*
X150921159Y-105766089D01*
X150871296Y-105771000D01*
X149864704Y-105771000D01*
X149814841Y-105766089D01*
X149769256Y-105752261D01*
X149727239Y-105729802D01*
X149690417Y-105699583D01*
X149660198Y-105662761D01*
X149637739Y-105620744D01*
X149623911Y-105575159D01*
X149619000Y-105525296D01*
X149619000Y-104943704D01*
X149623911Y-104893841D01*
X149637739Y-104848256D01*
X149660198Y-104806239D01*
X149690417Y-104769417D01*
X149727239Y-104739198D01*
X149769256Y-104716739D01*
X149814841Y-104702911D01*
X149864704Y-104698000D01*
X150871296Y-104698000D01*
X150921159Y-104702911D01*
G37*
G36*
X163330159Y-103903911D02*
G01*
X163375744Y-103917739D01*
X163417761Y-103940198D01*
X163454583Y-103970417D01*
X163484802Y-104007239D01*
X163507261Y-104049256D01*
X163521089Y-104094841D01*
X163526000Y-104144704D01*
X163526000Y-105151296D01*
X163521089Y-105201159D01*
X163507261Y-105246744D01*
X163484802Y-105288761D01*
X163454583Y-105325583D01*
X163417761Y-105355802D01*
X163375744Y-105378261D01*
X163330159Y-105392089D01*
X163280296Y-105397000D01*
X162698704Y-105397000D01*
X162648841Y-105392089D01*
X162603256Y-105378261D01*
X162561239Y-105355802D01*
X162524417Y-105325583D01*
X162494198Y-105288761D01*
X162471739Y-105246744D01*
X162457911Y-105201159D01*
X162453000Y-105151296D01*
X162453000Y-104144704D01*
X162457911Y-104094841D01*
X162471739Y-104049256D01*
X162494198Y-104007239D01*
X162524417Y-103970417D01*
X162561239Y-103940198D01*
X162603256Y-103917739D01*
X162648841Y-103903911D01*
X162698704Y-103899000D01*
X163280296Y-103899000D01*
X163330159Y-103903911D01*
G37*
G36*
X161455159Y-103903911D02*
G01*
X161500744Y-103917739D01*
X161542761Y-103940198D01*
X161579583Y-103970417D01*
X161609802Y-104007239D01*
X161632261Y-104049256D01*
X161646089Y-104094841D01*
X161651000Y-104144704D01*
X161651000Y-105151296D01*
X161646089Y-105201159D01*
X161632261Y-105246744D01*
X161609802Y-105288761D01*
X161579583Y-105325583D01*
X161542761Y-105355802D01*
X161500744Y-105378261D01*
X161455159Y-105392089D01*
X161405296Y-105397000D01*
X160823704Y-105397000D01*
X160773841Y-105392089D01*
X160728256Y-105378261D01*
X160686239Y-105355802D01*
X160649417Y-105325583D01*
X160619198Y-105288761D01*
X160596739Y-105246744D01*
X160582911Y-105201159D01*
X160578000Y-105151296D01*
X160578000Y-104144704D01*
X160582911Y-104094841D01*
X160596739Y-104049256D01*
X160619198Y-104007239D01*
X160649417Y-103970417D01*
X160686239Y-103940198D01*
X160728256Y-103917739D01*
X160773841Y-103903911D01*
X160823704Y-103899000D01*
X161405296Y-103899000D01*
X161455159Y-103903911D01*
G37*
G36*
X142248227Y-103529547D02*
G01*
X142248230Y-103529548D01*
X142248229Y-103529548D01*
X142411836Y-103597316D01*
X142559079Y-103695701D01*
X142684299Y-103820921D01*
X142782684Y-103968164D01*
X142797113Y-104003000D01*
X142850453Y-104131773D01*
X142885000Y-104305455D01*
X142885000Y-104482545D01*
X142850453Y-104656227D01*
X142850452Y-104656229D01*
X142782684Y-104819836D01*
X142770714Y-104837750D01*
X142684300Y-104967078D01*
X142559078Y-105092300D01*
X142538574Y-105106000D01*
X142411836Y-105190684D01*
X142313526Y-105231405D01*
X142248227Y-105258453D01*
X142074545Y-105293000D01*
X141897455Y-105293000D01*
X141723773Y-105258453D01*
X141658474Y-105231405D01*
X141560164Y-105190684D01*
X141433426Y-105106000D01*
X141412922Y-105092300D01*
X141287700Y-104967078D01*
X141201286Y-104837750D01*
X141189316Y-104819836D01*
X141121548Y-104656229D01*
X141121547Y-104656227D01*
X141087000Y-104482545D01*
X141087000Y-104305455D01*
X141121547Y-104131773D01*
X141174887Y-104003000D01*
X141189316Y-103968164D01*
X141287701Y-103820921D01*
X141412921Y-103695701D01*
X141560164Y-103597316D01*
X141723771Y-103529548D01*
X141723770Y-103529548D01*
X141723773Y-103529547D01*
X141897455Y-103495000D01*
X142074545Y-103495000D01*
X142248227Y-103529547D01*
G37*
G36*
X129294227Y-103529547D02*
G01*
X129294230Y-103529548D01*
X129294229Y-103529548D01*
X129457836Y-103597316D01*
X129605079Y-103695701D01*
X129730299Y-103820921D01*
X129828684Y-103968164D01*
X129843113Y-104003000D01*
X129896453Y-104131773D01*
X129931000Y-104305455D01*
X129931000Y-104482545D01*
X129896453Y-104656227D01*
X129896452Y-104656229D01*
X129828684Y-104819836D01*
X129816714Y-104837750D01*
X129730300Y-104967078D01*
X129605078Y-105092300D01*
X129584574Y-105106000D01*
X129457836Y-105190684D01*
X129359526Y-105231405D01*
X129294227Y-105258453D01*
X129120545Y-105293000D01*
X128943455Y-105293000D01*
X128769773Y-105258453D01*
X128704474Y-105231405D01*
X128606164Y-105190684D01*
X128479426Y-105106000D01*
X128458922Y-105092300D01*
X128333700Y-104967078D01*
X128247286Y-104837750D01*
X128235316Y-104819836D01*
X128167548Y-104656229D01*
X128167547Y-104656227D01*
X128133000Y-104482545D01*
X128133000Y-104305455D01*
X128167547Y-104131773D01*
X128220887Y-104003000D01*
X128235316Y-103968164D01*
X128333701Y-103820921D01*
X128458921Y-103695701D01*
X128606164Y-103597316D01*
X128769771Y-103529548D01*
X128769770Y-103529548D01*
X128769773Y-103529547D01*
X128943455Y-103495000D01*
X129120545Y-103495000D01*
X129294227Y-103529547D01*
G37*
G36*
X133649159Y-104116411D02*
G01*
X133694744Y-104130239D01*
X133736761Y-104152698D01*
X133773583Y-104182917D01*
X133803802Y-104219739D01*
X133826261Y-104261756D01*
X133840089Y-104307341D01*
X133845000Y-104357204D01*
X133845000Y-104938796D01*
X133840089Y-104988659D01*
X133826261Y-105034244D01*
X133803802Y-105076261D01*
X133773583Y-105113083D01*
X133736761Y-105143302D01*
X133694744Y-105165761D01*
X133649159Y-105179589D01*
X133599296Y-105184500D01*
X132592704Y-105184500D01*
X132542841Y-105179589D01*
X132497256Y-105165761D01*
X132455239Y-105143302D01*
X132418417Y-105113083D01*
X132388198Y-105076261D01*
X132365739Y-105034244D01*
X132351911Y-104988659D01*
X132347000Y-104938796D01*
X132347000Y-104357204D01*
X132351911Y-104307341D01*
X132365739Y-104261756D01*
X132388198Y-104219739D01*
X132418417Y-104182917D01*
X132455239Y-104152698D01*
X132497256Y-104130239D01*
X132542841Y-104116411D01*
X132592704Y-104111500D01*
X133599296Y-104111500D01*
X133649159Y-104116411D01*
G37*
G36*
X138475159Y-104037911D02*
G01*
X138520744Y-104051739D01*
X138562761Y-104074198D01*
X138599583Y-104104417D01*
X138629802Y-104141239D01*
X138652261Y-104183256D01*
X138666089Y-104228841D01*
X138671000Y-104278704D01*
X138671000Y-104860296D01*
X138666089Y-104910159D01*
X138652261Y-104955744D01*
X138629802Y-104997761D01*
X138599583Y-105034583D01*
X138562761Y-105064802D01*
X138520744Y-105087261D01*
X138475159Y-105101089D01*
X138425296Y-105106000D01*
X137418704Y-105106000D01*
X137368841Y-105101089D01*
X137323256Y-105087261D01*
X137281239Y-105064802D01*
X137244417Y-105034583D01*
X137214198Y-104997761D01*
X137191739Y-104955744D01*
X137177911Y-104910159D01*
X137173000Y-104860296D01*
X137173000Y-104278704D01*
X137177911Y-104228841D01*
X137191739Y-104183256D01*
X137214198Y-104141239D01*
X137244417Y-104104417D01*
X137281239Y-104074198D01*
X137323256Y-104051739D01*
X137368841Y-104037911D01*
X137418704Y-104033000D01*
X138425296Y-104033000D01*
X138475159Y-104037911D01*
G37*
G36*
X156789000Y-104623000D02*
G01*
X155291000Y-104623000D01*
X155291000Y-103525000D01*
X156789000Y-103525000D01*
X156789000Y-104623000D01*
G37*
G36*
X154589000Y-103673000D02*
G01*
X153091000Y-103673000D01*
X153091000Y-102575000D01*
X154589000Y-102575000D01*
X154589000Y-103673000D01*
G37*
G36*
X133649159Y-102241411D02*
G01*
X133694744Y-102255239D01*
X133736761Y-102277698D01*
X133773583Y-102307917D01*
X133803802Y-102344739D01*
X133826261Y-102386756D01*
X133840089Y-102432341D01*
X133845000Y-102482204D01*
X133845000Y-103063796D01*
X133840089Y-103113659D01*
X133826261Y-103159244D01*
X133803802Y-103201261D01*
X133773583Y-103238083D01*
X133736761Y-103268302D01*
X133694744Y-103290761D01*
X133649159Y-103304589D01*
X133599296Y-103309500D01*
X132592704Y-103309500D01*
X132542841Y-103304589D01*
X132497256Y-103290761D01*
X132455239Y-103268302D01*
X132418417Y-103238083D01*
X132388198Y-103201261D01*
X132365739Y-103159244D01*
X132351911Y-103113659D01*
X132347000Y-103063796D01*
X132347000Y-102482204D01*
X132351911Y-102432341D01*
X132365739Y-102386756D01*
X132388198Y-102344739D01*
X132418417Y-102307917D01*
X132455239Y-102277698D01*
X132497256Y-102255239D01*
X132542841Y-102241411D01*
X132592704Y-102236500D01*
X133599296Y-102236500D01*
X133649159Y-102241411D01*
G37*
G36*
X179840227Y-101497547D02*
G01*
X179840230Y-101497548D01*
X179840229Y-101497548D01*
X180003836Y-101565316D01*
X180151079Y-101663701D01*
X180276299Y-101788921D01*
X180374684Y-101936164D01*
X180377327Y-101942545D01*
X180442453Y-102099773D01*
X180477000Y-102273455D01*
X180477000Y-102450545D01*
X180442453Y-102624227D01*
X180442452Y-102624229D01*
X180374684Y-102787836D01*
X180308946Y-102886220D01*
X180276300Y-102935078D01*
X180151078Y-103060300D01*
X180120481Y-103080744D01*
X180003836Y-103158684D01*
X179938391Y-103185792D01*
X179840227Y-103226453D01*
X179666545Y-103261000D01*
X179489455Y-103261000D01*
X179315773Y-103226453D01*
X179217609Y-103185792D01*
X179152164Y-103158684D01*
X179035519Y-103080744D01*
X179004922Y-103060300D01*
X178879700Y-102935078D01*
X178847054Y-102886220D01*
X178781316Y-102787836D01*
X178713548Y-102624229D01*
X178713547Y-102624227D01*
X178679000Y-102450545D01*
X178679000Y-102273455D01*
X178713547Y-102099773D01*
X178778673Y-101942545D01*
X178781316Y-101936164D01*
X178879701Y-101788921D01*
X179004921Y-101663701D01*
X179152164Y-101565316D01*
X179315771Y-101497548D01*
X179315770Y-101497548D01*
X179315773Y-101497547D01*
X179489455Y-101463000D01*
X179666545Y-101463000D01*
X179840227Y-101497547D01*
G37*
G36*
X182380227Y-101497547D02*
G01*
X182380230Y-101497548D01*
X182380229Y-101497548D01*
X182543836Y-101565316D01*
X182691079Y-101663701D01*
X182816299Y-101788921D01*
X182914684Y-101936164D01*
X182917327Y-101942545D01*
X182982453Y-102099773D01*
X183017000Y-102273455D01*
X183017000Y-102450545D01*
X182982453Y-102624227D01*
X182982452Y-102624229D01*
X182914684Y-102787836D01*
X182848946Y-102886220D01*
X182816300Y-102935078D01*
X182691078Y-103060300D01*
X182660481Y-103080744D01*
X182543836Y-103158684D01*
X182478391Y-103185792D01*
X182380227Y-103226453D01*
X182206545Y-103261000D01*
X182029455Y-103261000D01*
X181855773Y-103226453D01*
X181757609Y-103185792D01*
X181692164Y-103158684D01*
X181575519Y-103080744D01*
X181544922Y-103060300D01*
X181419700Y-102935078D01*
X181387054Y-102886220D01*
X181321316Y-102787836D01*
X181253548Y-102624229D01*
X181253547Y-102624227D01*
X181219000Y-102450545D01*
X181219000Y-102273455D01*
X181253547Y-102099773D01*
X181318673Y-101942545D01*
X181321316Y-101936164D01*
X181419701Y-101788921D01*
X181544921Y-101663701D01*
X181692164Y-101565316D01*
X181855771Y-101497548D01*
X181855770Y-101497548D01*
X181855773Y-101497547D01*
X182029455Y-101463000D01*
X182206545Y-101463000D01*
X182380227Y-101497547D01*
G37*
G36*
X138475159Y-102162911D02*
G01*
X138520744Y-102176739D01*
X138562761Y-102199198D01*
X138599583Y-102229417D01*
X138629802Y-102266239D01*
X138652261Y-102308256D01*
X138666089Y-102353841D01*
X138671000Y-102403704D01*
X138671000Y-102985296D01*
X138666089Y-103035159D01*
X138652261Y-103080744D01*
X138629802Y-103122761D01*
X138599583Y-103159583D01*
X138562761Y-103189802D01*
X138520744Y-103212261D01*
X138475159Y-103226089D01*
X138425296Y-103231000D01*
X137418704Y-103231000D01*
X137368841Y-103226089D01*
X137323256Y-103212261D01*
X137281239Y-103189802D01*
X137244417Y-103159583D01*
X137214198Y-103122761D01*
X137191739Y-103080744D01*
X137177911Y-103035159D01*
X137173000Y-102985296D01*
X137173000Y-102403704D01*
X137177911Y-102353841D01*
X137191739Y-102308256D01*
X137214198Y-102266239D01*
X137244417Y-102229417D01*
X137281239Y-102199198D01*
X137323256Y-102176739D01*
X137368841Y-102162911D01*
X137418704Y-102158000D01*
X138425296Y-102158000D01*
X138475159Y-102162911D01*
G37*
G36*
X129294227Y-100989547D02*
G01*
X129298471Y-100991305D01*
X129457836Y-101057316D01*
X129556220Y-101123054D01*
X129594596Y-101148696D01*
X129605079Y-101155701D01*
X129730299Y-101280921D01*
X129828684Y-101428164D01*
X129837094Y-101448468D01*
X129896453Y-101591773D01*
X129931000Y-101765455D01*
X129931000Y-101942545D01*
X129896453Y-102116227D01*
X129896452Y-102116229D01*
X129828684Y-102279836D01*
X129730299Y-102427079D01*
X129605079Y-102552299D01*
X129457836Y-102650684D01*
X129342147Y-102698604D01*
X129294227Y-102718453D01*
X129120545Y-102753000D01*
X128943455Y-102753000D01*
X128769773Y-102718453D01*
X128721853Y-102698604D01*
X128606164Y-102650684D01*
X128458921Y-102552299D01*
X128333701Y-102427079D01*
X128235316Y-102279836D01*
X128167548Y-102116229D01*
X128167547Y-102116227D01*
X128133000Y-101942545D01*
X128133000Y-101765455D01*
X128167547Y-101591773D01*
X128226906Y-101448468D01*
X128235316Y-101428164D01*
X128333701Y-101280921D01*
X128458921Y-101155701D01*
X128469405Y-101148696D01*
X128507780Y-101123054D01*
X128606164Y-101057316D01*
X128765529Y-100991305D01*
X128769773Y-100989547D01*
X128943455Y-100955000D01*
X129120545Y-100955000D01*
X129294227Y-100989547D01*
G37*
G36*
X156789000Y-102723000D02*
G01*
X155291000Y-102723000D01*
X155291000Y-101625000D01*
X156789000Y-101625000D01*
X156789000Y-102723000D01*
G37*
G36*
X166570150Y-100281235D02*
G01*
X166673060Y-100301705D01*
X166818468Y-100361935D01*
X166949333Y-100449376D01*
X167060624Y-100560667D01*
X167148065Y-100691532D01*
X167208295Y-100836940D01*
X167215961Y-100875479D01*
X167239000Y-100991304D01*
X167239000Y-101148696D01*
X167228765Y-101200150D01*
X167208295Y-101303060D01*
X167148065Y-101448468D01*
X167060624Y-101579333D01*
X166949333Y-101690624D01*
X166818468Y-101778065D01*
X166673060Y-101838295D01*
X166570150Y-101858765D01*
X166518696Y-101869000D01*
X166361304Y-101869000D01*
X166309850Y-101858765D01*
X166206940Y-101838295D01*
X166061532Y-101778065D01*
X165930667Y-101690624D01*
X165819376Y-101579333D01*
X165731935Y-101448468D01*
X165671705Y-101303060D01*
X165651235Y-101200150D01*
X165641000Y-101148696D01*
X165641000Y-100991304D01*
X165664039Y-100875479D01*
X165671705Y-100836940D01*
X165731935Y-100691532D01*
X165819376Y-100560667D01*
X165930667Y-100449376D01*
X166061532Y-100361935D01*
X166206940Y-100301705D01*
X166309850Y-100281235D01*
X166361304Y-100271000D01*
X166518696Y-100271000D01*
X166570150Y-100281235D01*
G37*
G36*
X144770150Y-100281235D02*
G01*
X144873060Y-100301705D01*
X145018468Y-100361935D01*
X145149333Y-100449376D01*
X145260624Y-100560667D01*
X145348065Y-100691532D01*
X145408295Y-100836940D01*
X145415961Y-100875479D01*
X145439000Y-100991304D01*
X145439000Y-101148696D01*
X145428765Y-101200150D01*
X145408295Y-101303060D01*
X145348065Y-101448468D01*
X145260624Y-101579333D01*
X145149333Y-101690624D01*
X145018468Y-101778065D01*
X144873060Y-101838295D01*
X144770150Y-101858765D01*
X144718696Y-101869000D01*
X144561304Y-101869000D01*
X144509850Y-101858765D01*
X144406940Y-101838295D01*
X144261532Y-101778065D01*
X144130667Y-101690624D01*
X144019376Y-101579333D01*
X143931935Y-101448468D01*
X143871705Y-101303060D01*
X143851235Y-101200150D01*
X143841000Y-101148696D01*
X143841000Y-100991304D01*
X143864039Y-100875479D01*
X143871705Y-100836940D01*
X143931935Y-100691532D01*
X144019376Y-100560667D01*
X144130667Y-100449376D01*
X144261532Y-100361935D01*
X144406940Y-100301705D01*
X144509850Y-100281235D01*
X144561304Y-100271000D01*
X144718696Y-100271000D01*
X144770150Y-100281235D01*
G37*
G36*
X173808798Y-99278023D02*
G01*
X173812141Y-99278688D01*
X173817045Y-99278929D01*
X173842556Y-99278929D01*
X173857072Y-99280358D01*
X173948379Y-99298521D01*
X173950742Y-99299238D01*
X173950748Y-99299239D01*
X173959984Y-99302041D01*
X173959986Y-99302042D01*
X173962347Y-99302758D01*
X174048366Y-99338388D01*
X174061224Y-99345260D01*
X174138644Y-99396991D01*
X174140547Y-99398553D01*
X174140552Y-99398556D01*
X174148013Y-99404679D01*
X174149920Y-99406244D01*
X174215756Y-99472080D01*
X174217320Y-99473986D01*
X174217321Y-99473987D01*
X174223444Y-99481448D01*
X174223447Y-99481453D01*
X174225009Y-99483356D01*
X174276740Y-99560776D01*
X174283612Y-99573634D01*
X174319242Y-99659653D01*
X174319958Y-99662014D01*
X174319959Y-99662016D01*
X174322761Y-99671252D01*
X174322762Y-99671258D01*
X174323479Y-99673621D01*
X174341642Y-99764928D01*
X174343071Y-99779444D01*
X174343071Y-99804955D01*
X174344032Y-99814709D01*
X174344186Y-99815325D01*
X174345479Y-99828453D01*
X174345479Y-100323547D01*
X174343977Y-100338798D01*
X174343312Y-100342141D01*
X174343071Y-100347045D01*
X174343071Y-100372556D01*
X174341642Y-100387072D01*
X174323479Y-100478379D01*
X174322762Y-100480742D01*
X174322761Y-100480748D01*
X174319959Y-100489984D01*
X174319242Y-100492347D01*
X174283612Y-100578366D01*
X174276740Y-100591224D01*
X174225009Y-100668644D01*
X174223447Y-100670547D01*
X174223444Y-100670552D01*
X174217321Y-100678013D01*
X174215756Y-100679920D01*
X174149920Y-100745756D01*
X174148014Y-100747320D01*
X174148013Y-100747321D01*
X174140552Y-100753444D01*
X174140547Y-100753447D01*
X174138644Y-100755009D01*
X174061224Y-100806740D01*
X174048366Y-100813612D01*
X173962347Y-100849242D01*
X173959986Y-100849958D01*
X173959984Y-100849959D01*
X173950748Y-100852761D01*
X173950742Y-100852762D01*
X173948379Y-100853479D01*
X173857072Y-100871642D01*
X173842556Y-100873071D01*
X173817045Y-100873071D01*
X173807291Y-100874032D01*
X173806675Y-100874186D01*
X173793547Y-100875479D01*
X173248453Y-100875479D01*
X173236395Y-100874292D01*
X173227159Y-100871490D01*
X173218646Y-100866940D01*
X173211184Y-100860816D01*
X173205060Y-100853354D01*
X173200510Y-100844841D01*
X173197708Y-100835605D01*
X173196521Y-100823547D01*
X173196521Y-99328453D01*
X173197708Y-99316395D01*
X173200510Y-99307159D01*
X173205060Y-99298646D01*
X173211184Y-99291184D01*
X173218646Y-99285060D01*
X173227159Y-99280510D01*
X173236395Y-99277708D01*
X173248453Y-99276521D01*
X173793547Y-99276521D01*
X173808798Y-99278023D01*
G37*
G36*
X171755605Y-99277708D02*
G01*
X171764841Y-99280510D01*
X171773354Y-99285060D01*
X171780816Y-99291184D01*
X171786940Y-99298646D01*
X171791490Y-99307159D01*
X171794292Y-99316395D01*
X171795479Y-99328453D01*
X171795479Y-100823547D01*
X171794292Y-100835605D01*
X171791490Y-100844841D01*
X171786940Y-100853354D01*
X171780816Y-100860816D01*
X171773354Y-100866940D01*
X171764841Y-100871490D01*
X171755605Y-100874292D01*
X171743547Y-100875479D01*
X171198453Y-100875479D01*
X171183202Y-100873977D01*
X171179859Y-100873312D01*
X171174955Y-100873071D01*
X171149444Y-100873071D01*
X171134928Y-100871642D01*
X171043621Y-100853479D01*
X171041258Y-100852762D01*
X171041252Y-100852761D01*
X171032016Y-100849959D01*
X171032014Y-100849958D01*
X171029653Y-100849242D01*
X170943634Y-100813612D01*
X170930776Y-100806740D01*
X170853356Y-100755009D01*
X170851453Y-100753447D01*
X170851448Y-100753444D01*
X170843987Y-100747321D01*
X170843986Y-100747320D01*
X170842080Y-100745756D01*
X170776244Y-100679920D01*
X170774679Y-100678013D01*
X170768556Y-100670552D01*
X170768553Y-100670547D01*
X170766991Y-100668644D01*
X170715260Y-100591224D01*
X170708388Y-100578366D01*
X170672758Y-100492347D01*
X170672041Y-100489984D01*
X170669239Y-100480748D01*
X170669238Y-100480742D01*
X170668521Y-100478379D01*
X170650358Y-100387072D01*
X170648929Y-100372556D01*
X170648929Y-100347045D01*
X170647968Y-100337291D01*
X170647814Y-100336675D01*
X170646521Y-100323547D01*
X170646521Y-99828453D01*
X170648023Y-99813202D01*
X170648688Y-99809859D01*
X170648929Y-99804955D01*
X170648929Y-99779444D01*
X170650358Y-99764928D01*
X170668521Y-99673621D01*
X170669238Y-99671258D01*
X170669239Y-99671252D01*
X170672041Y-99662016D01*
X170672042Y-99662014D01*
X170672758Y-99659653D01*
X170708388Y-99573634D01*
X170715260Y-99560776D01*
X170766991Y-99483356D01*
X170768553Y-99481453D01*
X170768556Y-99481448D01*
X170774679Y-99473987D01*
X170774680Y-99473986D01*
X170776244Y-99472080D01*
X170842080Y-99406244D01*
X170843987Y-99404679D01*
X170851448Y-99398556D01*
X170851453Y-99398553D01*
X170853356Y-99396991D01*
X170930776Y-99345260D01*
X170943634Y-99338388D01*
X171029653Y-99302758D01*
X171032014Y-99302042D01*
X171032016Y-99302041D01*
X171041252Y-99299239D01*
X171041258Y-99299238D01*
X171043621Y-99298521D01*
X171134928Y-99280358D01*
X171149444Y-99278929D01*
X171174955Y-99278929D01*
X171184709Y-99277968D01*
X171185325Y-99277814D01*
X171198453Y-99276521D01*
X171743547Y-99276521D01*
X171755605Y-99277708D01*
G37*
G36*
X173045000Y-100875000D02*
G01*
X171947000Y-100875000D01*
X171947000Y-99277000D01*
X173045000Y-99277000D01*
X173045000Y-100875000D01*
G37*
G36*
X182380227Y-98957547D02*
G01*
X182380230Y-98957548D01*
X182380229Y-98957548D01*
X182543836Y-99025316D01*
X182642220Y-99091054D01*
X182691078Y-99123700D01*
X182816300Y-99248922D01*
X182837144Y-99280117D01*
X182914684Y-99396164D01*
X182917327Y-99402545D01*
X182982453Y-99559773D01*
X183017000Y-99733455D01*
X183017000Y-99910545D01*
X182982453Y-100084227D01*
X182982452Y-100084229D01*
X182914684Y-100247836D01*
X182864095Y-100323547D01*
X182829710Y-100375009D01*
X182816299Y-100395079D01*
X182691079Y-100520299D01*
X182543836Y-100618684D01*
X182428147Y-100666604D01*
X182380227Y-100686453D01*
X182206545Y-100721000D01*
X182029455Y-100721000D01*
X181855773Y-100686453D01*
X181807853Y-100666604D01*
X181692164Y-100618684D01*
X181544921Y-100520299D01*
X181419701Y-100395079D01*
X181406291Y-100375009D01*
X181371905Y-100323547D01*
X181321316Y-100247836D01*
X181253548Y-100084229D01*
X181253547Y-100084227D01*
X181219000Y-99910545D01*
X181219000Y-99733455D01*
X181253547Y-99559773D01*
X181318673Y-99402545D01*
X181321316Y-99396164D01*
X181398856Y-99280117D01*
X181419700Y-99248922D01*
X181544922Y-99123700D01*
X181593780Y-99091054D01*
X181692164Y-99025316D01*
X181855771Y-98957548D01*
X181855770Y-98957548D01*
X181855773Y-98957547D01*
X182029455Y-98923000D01*
X182206545Y-98923000D01*
X182380227Y-98957547D01*
G37*
G36*
X179840227Y-98957547D02*
G01*
X179840230Y-98957548D01*
X179840229Y-98957548D01*
X180003836Y-99025316D01*
X180102220Y-99091054D01*
X180151078Y-99123700D01*
X180276300Y-99248922D01*
X180297144Y-99280117D01*
X180374684Y-99396164D01*
X180377327Y-99402545D01*
X180442453Y-99559773D01*
X180477000Y-99733455D01*
X180477000Y-99910545D01*
X180442453Y-100084227D01*
X180442452Y-100084229D01*
X180374684Y-100247836D01*
X180324095Y-100323547D01*
X180289710Y-100375009D01*
X180276299Y-100395079D01*
X180151079Y-100520299D01*
X180003836Y-100618684D01*
X179888147Y-100666604D01*
X179840227Y-100686453D01*
X179666545Y-100721000D01*
X179489455Y-100721000D01*
X179315773Y-100686453D01*
X179267853Y-100666604D01*
X179152164Y-100618684D01*
X179004921Y-100520299D01*
X178879701Y-100395079D01*
X178866291Y-100375009D01*
X178831905Y-100323547D01*
X178781316Y-100247836D01*
X178713548Y-100084229D01*
X178713547Y-100084227D01*
X178679000Y-99910545D01*
X178679000Y-99733455D01*
X178713547Y-99559773D01*
X178778673Y-99402545D01*
X178781316Y-99396164D01*
X178858856Y-99280117D01*
X178879700Y-99248922D01*
X179004922Y-99123700D01*
X179053780Y-99091054D01*
X179152164Y-99025316D01*
X179315771Y-98957548D01*
X179315770Y-98957548D01*
X179315773Y-98957547D01*
X179489455Y-98923000D01*
X179666545Y-98923000D01*
X179840227Y-98957547D01*
G37*
G36*
X129294227Y-98449547D02*
G01*
X129294230Y-98449548D01*
X129294229Y-98449548D01*
X129457836Y-98517316D01*
X129605079Y-98615701D01*
X129730299Y-98740921D01*
X129828684Y-98888164D01*
X129828684Y-98888165D01*
X129896453Y-99051773D01*
X129931000Y-99225455D01*
X129931000Y-99402545D01*
X129896453Y-99576227D01*
X129896452Y-99576229D01*
X129828684Y-99739836D01*
X129730299Y-99887079D01*
X129605079Y-100012299D01*
X129457836Y-100110684D01*
X129342147Y-100158604D01*
X129294227Y-100178453D01*
X129120545Y-100213000D01*
X128943455Y-100213000D01*
X128769773Y-100178453D01*
X128721853Y-100158604D01*
X128606164Y-100110684D01*
X128458921Y-100012299D01*
X128333701Y-99887079D01*
X128235316Y-99739836D01*
X128167548Y-99576229D01*
X128167547Y-99576227D01*
X128133000Y-99402545D01*
X128133000Y-99225455D01*
X128167547Y-99051773D01*
X128235316Y-98888165D01*
X128235316Y-98888164D01*
X128333701Y-98740921D01*
X128458921Y-98615701D01*
X128606164Y-98517316D01*
X128769771Y-98449548D01*
X128769770Y-98449548D01*
X128769773Y-98449547D01*
X128943455Y-98415000D01*
X129120545Y-98415000D01*
X129294227Y-98449547D01*
G37*
G36*
X137922000Y-99841000D02*
G01*
X137274000Y-99841000D01*
X137274000Y-98143000D01*
X137922000Y-98143000D01*
X137922000Y-99841000D01*
G37*
G36*
X137122000Y-99841000D02*
G01*
X136474000Y-99841000D01*
X136474000Y-98143000D01*
X137122000Y-98143000D01*
X137122000Y-99841000D01*
G37*
G36*
X136322000Y-99841000D02*
G01*
X135674000Y-99841000D01*
X135674000Y-98143000D01*
X136322000Y-98143000D01*
X136322000Y-99841000D01*
G37*
G36*
X135522000Y-99841000D02*
G01*
X134874000Y-99841000D01*
X134874000Y-98143000D01*
X135522000Y-98143000D01*
X135522000Y-99841000D01*
G37*
G36*
X138722000Y-99841000D02*
G01*
X138074000Y-99841000D01*
X138074000Y-98143000D01*
X138722000Y-98143000D01*
X138722000Y-99841000D01*
G37*
G36*
X139522000Y-99841000D02*
G01*
X138874000Y-99841000D01*
X138874000Y-98143000D01*
X139522000Y-98143000D01*
X139522000Y-99841000D01*
G37*
G36*
X134722000Y-99841000D02*
G01*
X134074000Y-99841000D01*
X134074000Y-98143000D01*
X134722000Y-98143000D01*
X134722000Y-99841000D01*
G37*
G36*
X133922000Y-99841000D02*
G01*
X133274000Y-99841000D01*
X133274000Y-98143000D01*
X133922000Y-98143000D01*
X133922000Y-99841000D01*
G37*
G36*
X164420150Y-98131235D02*
G01*
X164523060Y-98151705D01*
X164668468Y-98211935D01*
X164799333Y-98299376D01*
X164910624Y-98410667D01*
X164998065Y-98541532D01*
X165058295Y-98686940D01*
X165089000Y-98841305D01*
X165089000Y-98998695D01*
X165058295Y-99153060D01*
X164998065Y-99298468D01*
X164910624Y-99429333D01*
X164799333Y-99540624D01*
X164668468Y-99628065D01*
X164523060Y-99688295D01*
X164420150Y-99708765D01*
X164368696Y-99719000D01*
X164211304Y-99719000D01*
X164159850Y-99708765D01*
X164056940Y-99688295D01*
X163911532Y-99628065D01*
X163780667Y-99540624D01*
X163669376Y-99429333D01*
X163581935Y-99298468D01*
X163521705Y-99153060D01*
X163491000Y-98998695D01*
X163491000Y-98841305D01*
X163521705Y-98686940D01*
X163581935Y-98541532D01*
X163669376Y-98410667D01*
X163780667Y-98299376D01*
X163911532Y-98211935D01*
X164056940Y-98151705D01*
X164159850Y-98131235D01*
X164211304Y-98121000D01*
X164368696Y-98121000D01*
X164420150Y-98131235D01*
G37*
G36*
X146920150Y-98131235D02*
G01*
X147023060Y-98151705D01*
X147168468Y-98211935D01*
X147299333Y-98299376D01*
X147410624Y-98410667D01*
X147498065Y-98541532D01*
X147558295Y-98686940D01*
X147589000Y-98841305D01*
X147589000Y-98998695D01*
X147558295Y-99153060D01*
X147498065Y-99298468D01*
X147410624Y-99429333D01*
X147299333Y-99540624D01*
X147168468Y-99628065D01*
X147023060Y-99688295D01*
X146920150Y-99708765D01*
X146868696Y-99719000D01*
X146711304Y-99719000D01*
X146659850Y-99708765D01*
X146556940Y-99688295D01*
X146411532Y-99628065D01*
X146280667Y-99540624D01*
X146169376Y-99429333D01*
X146081935Y-99298468D01*
X146021705Y-99153060D01*
X145991000Y-98998695D01*
X145991000Y-98841305D01*
X146021705Y-98686940D01*
X146081935Y-98541532D01*
X146169376Y-98410667D01*
X146280667Y-98299376D01*
X146411532Y-98211935D01*
X146556940Y-98151705D01*
X146659850Y-98131235D01*
X146711304Y-98121000D01*
X146868696Y-98121000D01*
X146920150Y-98131235D01*
G37*
G36*
X141497000Y-97866000D02*
G01*
X139799000Y-97866000D01*
X139799000Y-97218000D01*
X141497000Y-97218000D01*
X141497000Y-97866000D01*
G37*
G36*
X132997000Y-97866000D02*
G01*
X131299000Y-97866000D01*
X131299000Y-97218000D01*
X132997000Y-97218000D01*
X132997000Y-97866000D01*
G37*
G36*
X181616000Y-95821001D02*
G01*
X181616961Y-95830755D01*
X181619806Y-95840135D01*
X181624426Y-95848779D01*
X181630644Y-95856356D01*
X181638221Y-95862574D01*
X181646865Y-95867194D01*
X181656245Y-95870039D01*
X181665999Y-95871000D01*
X183416000Y-95871000D01*
X183416000Y-97169000D01*
X181665999Y-97169000D01*
X181656245Y-97169961D01*
X181646865Y-97172806D01*
X181638221Y-97177426D01*
X181630644Y-97183644D01*
X181624426Y-97191221D01*
X181619806Y-97199865D01*
X181616961Y-97209245D01*
X181616000Y-97218999D01*
X181616000Y-97432600D01*
X179518000Y-97432600D01*
X179518000Y-95607400D01*
X181616000Y-95607400D01*
X181616000Y-95821001D01*
G37*
G36*
X163645040Y-95624935D02*
G01*
X163733196Y-95642470D01*
X163830484Y-95682768D01*
X163899277Y-95711263D01*
X163899278Y-95711264D01*
X164048749Y-95811137D01*
X164175863Y-95938251D01*
X164175864Y-95938253D01*
X164275737Y-96087723D01*
X164294804Y-96133756D01*
X164344530Y-96253804D01*
X164350279Y-96282708D01*
X164363416Y-96348750D01*
X164379600Y-96430117D01*
X164379600Y-96609883D01*
X164344530Y-96786196D01*
X164334340Y-96810796D01*
X164275737Y-96952277D01*
X164251931Y-96987905D01*
X164175863Y-97101749D01*
X164048749Y-97228863D01*
X163973505Y-97279139D01*
X163899277Y-97328737D01*
X163830484Y-97357232D01*
X163733196Y-97397530D01*
X163645040Y-97415065D01*
X163556885Y-97432600D01*
X163377115Y-97432600D01*
X163288961Y-97415065D01*
X163200804Y-97397530D01*
X163103516Y-97357232D01*
X163034723Y-97328737D01*
X162960495Y-97279139D01*
X162885251Y-97228863D01*
X162840027Y-97183639D01*
X162832456Y-97177426D01*
X162823812Y-97172806D01*
X162814432Y-97169961D01*
X162804678Y-97169000D01*
X160618000Y-97169000D01*
X160618000Y-95871000D01*
X162804678Y-95871000D01*
X162814432Y-95870039D01*
X162823812Y-95867194D01*
X162832456Y-95862574D01*
X162840027Y-95856361D01*
X162885251Y-95811137D01*
X163034722Y-95711264D01*
X163034723Y-95711263D01*
X163103516Y-95682768D01*
X163200804Y-95642470D01*
X163288960Y-95624935D01*
X163377115Y-95607400D01*
X163556885Y-95607400D01*
X163645040Y-95624935D01*
G37*
G36*
X129077159Y-96242411D02*
G01*
X129122744Y-96256239D01*
X129164761Y-96278698D01*
X129201583Y-96308917D01*
X129231802Y-96345739D01*
X129254261Y-96387756D01*
X129268089Y-96433341D01*
X129273000Y-96483204D01*
X129273000Y-97064796D01*
X129268089Y-97114659D01*
X129254261Y-97160244D01*
X129231802Y-97202261D01*
X129201583Y-97239083D01*
X129164761Y-97269302D01*
X129122744Y-97291761D01*
X129077159Y-97305589D01*
X129027296Y-97310500D01*
X128020704Y-97310500D01*
X127970841Y-97305589D01*
X127925256Y-97291761D01*
X127883239Y-97269302D01*
X127846417Y-97239083D01*
X127816198Y-97202261D01*
X127793739Y-97160244D01*
X127779911Y-97114659D01*
X127775000Y-97064796D01*
X127775000Y-96483204D01*
X127779911Y-96433341D01*
X127793739Y-96387756D01*
X127816198Y-96345739D01*
X127846417Y-96308917D01*
X127883239Y-96278698D01*
X127925256Y-96256239D01*
X127970841Y-96242411D01*
X128020704Y-96237500D01*
X129027296Y-96237500D01*
X129077159Y-96242411D01*
G37*
G36*
X147873159Y-96085411D02*
G01*
X147918744Y-96099239D01*
X147960761Y-96121698D01*
X147997583Y-96151917D01*
X148027802Y-96188739D01*
X148050261Y-96230756D01*
X148064089Y-96276341D01*
X148069000Y-96326204D01*
X148069000Y-96907796D01*
X148064089Y-96957659D01*
X148050261Y-97003244D01*
X148027802Y-97045261D01*
X147997583Y-97082083D01*
X147960761Y-97112302D01*
X147918744Y-97134761D01*
X147873159Y-97148589D01*
X147823296Y-97153500D01*
X146816704Y-97153500D01*
X146766841Y-97148589D01*
X146721256Y-97134761D01*
X146679239Y-97112302D01*
X146642417Y-97082083D01*
X146612198Y-97045261D01*
X146589739Y-97003244D01*
X146575911Y-96957659D01*
X146571000Y-96907796D01*
X146571000Y-96326204D01*
X146575911Y-96276341D01*
X146589739Y-96230756D01*
X146612198Y-96188739D01*
X146642417Y-96151917D01*
X146679239Y-96121698D01*
X146721256Y-96099239D01*
X146766841Y-96085411D01*
X146816704Y-96080500D01*
X147823296Y-96080500D01*
X147873159Y-96085411D01*
G37*
G36*
X141497000Y-97066000D02*
G01*
X139799000Y-97066000D01*
X139799000Y-96418000D01*
X141497000Y-96418000D01*
X141497000Y-97066000D01*
G37*
G36*
X132997000Y-97066000D02*
G01*
X131299000Y-97066000D01*
X131299000Y-96418000D01*
X132997000Y-96418000D01*
X132997000Y-97066000D01*
G37*
G36*
X144571159Y-95988411D02*
G01*
X144616744Y-96002239D01*
X144658761Y-96024698D01*
X144695583Y-96054917D01*
X144725802Y-96091739D01*
X144748261Y-96133756D01*
X144762089Y-96179341D01*
X144767000Y-96229204D01*
X144767000Y-96810796D01*
X144762089Y-96860659D01*
X144748261Y-96906244D01*
X144725802Y-96948261D01*
X144695583Y-96985083D01*
X144658761Y-97015302D01*
X144616744Y-97037761D01*
X144571159Y-97051589D01*
X144521296Y-97056500D01*
X143514704Y-97056500D01*
X143464841Y-97051589D01*
X143419256Y-97037761D01*
X143377239Y-97015302D01*
X143340417Y-96985083D01*
X143310198Y-96948261D01*
X143287739Y-96906244D01*
X143273911Y-96860659D01*
X143269000Y-96810796D01*
X143269000Y-96229204D01*
X143273911Y-96179341D01*
X143287739Y-96133756D01*
X143310198Y-96091739D01*
X143340417Y-96054917D01*
X143377239Y-96024698D01*
X143419256Y-96002239D01*
X143464841Y-95988411D01*
X143514704Y-95983500D01*
X144521296Y-95983500D01*
X144571159Y-95988411D01*
G37*
G36*
X132997000Y-96266000D02*
G01*
X131299000Y-96266000D01*
X131299000Y-95618000D01*
X132997000Y-95618000D01*
X132997000Y-96266000D01*
G37*
G36*
X141497000Y-96266000D02*
G01*
X139799000Y-96266000D01*
X139799000Y-95618000D01*
X141497000Y-95618000D01*
X141497000Y-96266000D01*
G37*
G36*
X132997000Y-95466000D02*
G01*
X131299000Y-95466000D01*
X131299000Y-94818000D01*
X132997000Y-94818000D01*
X132997000Y-95466000D01*
G37*
G36*
X141497000Y-95466000D02*
G01*
X139799000Y-95466000D01*
X139799000Y-94818000D01*
X141497000Y-94818000D01*
X141497000Y-95466000D01*
G37*
G36*
X129077159Y-94367411D02*
G01*
X129122744Y-94381239D01*
X129164761Y-94403698D01*
X129201583Y-94433917D01*
X129231802Y-94470739D01*
X129254261Y-94512756D01*
X129268089Y-94558341D01*
X129273000Y-94608204D01*
X129273000Y-95189796D01*
X129268089Y-95239659D01*
X129254261Y-95285244D01*
X129231802Y-95327261D01*
X129201583Y-95364083D01*
X129164761Y-95394302D01*
X129122744Y-95416761D01*
X129077159Y-95430589D01*
X129027296Y-95435500D01*
X128020704Y-95435500D01*
X127970841Y-95430589D01*
X127925256Y-95416761D01*
X127883239Y-95394302D01*
X127846417Y-95364083D01*
X127816198Y-95327261D01*
X127793739Y-95285244D01*
X127779911Y-95239659D01*
X127775000Y-95189796D01*
X127775000Y-94608204D01*
X127779911Y-94558341D01*
X127793739Y-94512756D01*
X127816198Y-94470739D01*
X127846417Y-94433917D01*
X127883239Y-94403698D01*
X127925256Y-94381239D01*
X127970841Y-94367411D01*
X128020704Y-94362500D01*
X129027296Y-94362500D01*
X129077159Y-94367411D01*
G37*
G36*
X180745039Y-93624935D02*
G01*
X180833196Y-93642470D01*
X180913977Y-93675931D01*
X180999277Y-93711263D01*
X181073505Y-93760861D01*
X181148749Y-93811137D01*
X181193973Y-93856361D01*
X181201544Y-93862574D01*
X181210188Y-93867194D01*
X181219568Y-93870039D01*
X181229322Y-93871000D01*
X183416000Y-93871000D01*
X183416000Y-95169000D01*
X181229322Y-95169000D01*
X181219568Y-95169961D01*
X181210188Y-95172806D01*
X181201544Y-95177426D01*
X181193973Y-95183639D01*
X181148749Y-95228863D01*
X181105021Y-95258081D01*
X180999277Y-95328737D01*
X180931210Y-95356931D01*
X180833196Y-95397530D01*
X180745040Y-95415065D01*
X180656885Y-95432600D01*
X180477115Y-95432600D01*
X180388960Y-95415065D01*
X180300804Y-95397530D01*
X180202790Y-95356931D01*
X180134723Y-95328737D01*
X180028979Y-95258081D01*
X179985251Y-95228863D01*
X179858137Y-95101749D01*
X179800778Y-95015905D01*
X179758263Y-94952277D01*
X179702644Y-94818000D01*
X179689470Y-94786196D01*
X179665562Y-94666000D01*
X179654400Y-94609885D01*
X179654400Y-94430115D01*
X179675425Y-94324417D01*
X179689470Y-94253804D01*
X179741895Y-94127239D01*
X179758263Y-94087723D01*
X179858136Y-93938253D01*
X179858137Y-93938251D01*
X179985251Y-93811137D01*
X180060495Y-93760861D01*
X180134723Y-93711263D01*
X180220023Y-93675931D01*
X180300804Y-93642470D01*
X180388961Y-93624935D01*
X180477115Y-93607400D01*
X180656885Y-93607400D01*
X180745039Y-93624935D01*
G37*
G36*
X163645039Y-93624935D02*
G01*
X163733196Y-93642470D01*
X163813977Y-93675931D01*
X163899277Y-93711263D01*
X163973505Y-93760861D01*
X164048749Y-93811137D01*
X164175863Y-93938251D01*
X164175864Y-93938253D01*
X164275737Y-94087723D01*
X164292105Y-94127239D01*
X164344530Y-94253804D01*
X164358575Y-94324417D01*
X164379600Y-94430115D01*
X164379600Y-94609885D01*
X164368438Y-94666000D01*
X164344530Y-94786196D01*
X164331356Y-94818000D01*
X164275737Y-94952277D01*
X164233222Y-95015905D01*
X164175863Y-95101749D01*
X164048749Y-95228863D01*
X164005021Y-95258081D01*
X163899277Y-95328737D01*
X163831210Y-95356931D01*
X163733196Y-95397530D01*
X163645040Y-95415065D01*
X163556885Y-95432600D01*
X163377115Y-95432600D01*
X163288960Y-95415065D01*
X163200804Y-95397530D01*
X163102790Y-95356931D01*
X163034723Y-95328737D01*
X162928979Y-95258081D01*
X162885251Y-95228863D01*
X162840027Y-95183639D01*
X162832456Y-95177426D01*
X162823812Y-95172806D01*
X162814432Y-95169961D01*
X162804678Y-95169000D01*
X160618000Y-95169000D01*
X160618000Y-93871000D01*
X162804678Y-93871000D01*
X162814432Y-93870039D01*
X162823812Y-93867194D01*
X162832456Y-93862574D01*
X162840027Y-93856361D01*
X162885251Y-93811137D01*
X162960495Y-93760861D01*
X163034723Y-93711263D01*
X163120023Y-93675931D01*
X163200804Y-93642470D01*
X163288961Y-93624935D01*
X163377115Y-93607400D01*
X163556885Y-93607400D01*
X163645039Y-93624935D01*
G37*
G36*
X147873159Y-94210411D02*
G01*
X147918744Y-94224239D01*
X147960761Y-94246698D01*
X147997583Y-94276917D01*
X148027802Y-94313739D01*
X148050261Y-94355756D01*
X148064089Y-94401341D01*
X148069000Y-94451204D01*
X148069000Y-95032796D01*
X148064089Y-95082659D01*
X148050261Y-95128244D01*
X148027802Y-95170261D01*
X147997583Y-95207083D01*
X147960761Y-95237302D01*
X147918744Y-95259761D01*
X147873159Y-95273589D01*
X147823296Y-95278500D01*
X146816704Y-95278500D01*
X146766841Y-95273589D01*
X146721256Y-95259761D01*
X146679239Y-95237302D01*
X146642417Y-95207083D01*
X146612198Y-95170261D01*
X146589739Y-95128244D01*
X146575911Y-95082659D01*
X146571000Y-95032796D01*
X146571000Y-94451204D01*
X146575911Y-94401341D01*
X146589739Y-94355756D01*
X146612198Y-94313739D01*
X146642417Y-94276917D01*
X146679239Y-94246698D01*
X146721256Y-94224239D01*
X146766841Y-94210411D01*
X146816704Y-94205500D01*
X147823296Y-94205500D01*
X147873159Y-94210411D01*
G37*
G36*
X144571159Y-94113411D02*
G01*
X144616744Y-94127239D01*
X144658761Y-94149698D01*
X144695583Y-94179917D01*
X144725802Y-94216739D01*
X144748261Y-94258756D01*
X144762089Y-94304341D01*
X144767000Y-94354204D01*
X144767000Y-94935796D01*
X144762089Y-94985659D01*
X144748261Y-95031244D01*
X144725802Y-95073261D01*
X144695583Y-95110083D01*
X144658761Y-95140302D01*
X144616744Y-95162761D01*
X144571159Y-95176589D01*
X144521296Y-95181500D01*
X143514704Y-95181500D01*
X143464841Y-95176589D01*
X143419256Y-95162761D01*
X143377239Y-95140302D01*
X143340417Y-95110083D01*
X143310198Y-95073261D01*
X143287739Y-95031244D01*
X143273911Y-94985659D01*
X143269000Y-94935796D01*
X143269000Y-94354204D01*
X143273911Y-94304341D01*
X143287739Y-94258756D01*
X143310198Y-94216739D01*
X143340417Y-94179917D01*
X143377239Y-94149698D01*
X143419256Y-94127239D01*
X143464841Y-94113411D01*
X143514704Y-94108500D01*
X144521296Y-94108500D01*
X144571159Y-94113411D01*
G37*
G36*
X132997000Y-94666000D02*
G01*
X131299000Y-94666000D01*
X131299000Y-94018000D01*
X132997000Y-94018000D01*
X132997000Y-94666000D01*
G37*
G36*
X141497000Y-94666000D02*
G01*
X139799000Y-94666000D01*
X139799000Y-94018000D01*
X141497000Y-94018000D01*
X141497000Y-94666000D01*
G37*
G36*
X141497000Y-93866000D02*
G01*
X139799000Y-93866000D01*
X139799000Y-93218000D01*
X141497000Y-93218000D01*
X141497000Y-93866000D01*
G37*
G36*
X132997000Y-93866000D02*
G01*
X131299000Y-93866000D01*
X131299000Y-93218000D01*
X132997000Y-93218000D01*
X132997000Y-93866000D01*
G37*
G36*
X129077159Y-92686411D02*
G01*
X129122744Y-92700239D01*
X129164761Y-92722698D01*
X129201583Y-92752917D01*
X129231802Y-92789739D01*
X129254261Y-92831756D01*
X129268089Y-92877341D01*
X129273000Y-92927204D01*
X129273000Y-93508796D01*
X129268089Y-93558659D01*
X129254261Y-93604244D01*
X129231802Y-93646261D01*
X129201583Y-93683083D01*
X129164761Y-93713302D01*
X129122744Y-93735761D01*
X129077159Y-93749589D01*
X129027296Y-93754500D01*
X128020704Y-93754500D01*
X127970841Y-93749589D01*
X127925256Y-93735761D01*
X127883239Y-93713302D01*
X127846417Y-93683083D01*
X127816198Y-93646261D01*
X127793739Y-93604244D01*
X127779911Y-93558659D01*
X127775000Y-93508796D01*
X127775000Y-92927204D01*
X127779911Y-92877341D01*
X127793739Y-92831756D01*
X127816198Y-92789739D01*
X127846417Y-92752917D01*
X127883239Y-92722698D01*
X127925256Y-92700239D01*
X127970841Y-92686411D01*
X128020704Y-92681500D01*
X129027296Y-92681500D01*
X129077159Y-92686411D01*
G37*
G36*
X163645039Y-91624935D02*
G01*
X163733196Y-91642470D01*
X163830484Y-91682768D01*
X163899277Y-91711263D01*
X163899278Y-91711264D01*
X164048749Y-91811137D01*
X164175863Y-91938251D01*
X164175864Y-91938253D01*
X164275737Y-92087723D01*
X164304232Y-92156516D01*
X164344530Y-92253804D01*
X164379600Y-92430117D01*
X164379600Y-92609883D01*
X164344530Y-92786196D01*
X164306776Y-92877341D01*
X164275737Y-92952277D01*
X164275736Y-92952278D01*
X164175863Y-93101749D01*
X164048749Y-93228863D01*
X163973505Y-93279139D01*
X163899277Y-93328737D01*
X163830484Y-93357232D01*
X163733196Y-93397530D01*
X163645040Y-93415065D01*
X163556885Y-93432600D01*
X163377115Y-93432600D01*
X163288960Y-93415065D01*
X163200804Y-93397530D01*
X163103516Y-93357232D01*
X163034723Y-93328737D01*
X162960495Y-93279139D01*
X162885251Y-93228863D01*
X162840027Y-93183639D01*
X162832456Y-93177426D01*
X162823812Y-93172806D01*
X162814432Y-93169961D01*
X162804678Y-93169000D01*
X160618000Y-93169000D01*
X160618000Y-91871000D01*
X162804678Y-91871000D01*
X162814432Y-91870039D01*
X162823812Y-91867194D01*
X162832456Y-91862574D01*
X162840027Y-91856361D01*
X162885251Y-91811137D01*
X163034722Y-91711264D01*
X163034723Y-91711263D01*
X163103516Y-91682768D01*
X163200804Y-91642470D01*
X163288961Y-91624935D01*
X163377115Y-91607400D01*
X163556885Y-91607400D01*
X163645039Y-91624935D01*
G37*
G36*
X180745039Y-91624935D02*
G01*
X180833196Y-91642470D01*
X180930484Y-91682768D01*
X180999277Y-91711263D01*
X180999278Y-91711264D01*
X181148749Y-91811137D01*
X181193973Y-91856361D01*
X181201544Y-91862574D01*
X181210188Y-91867194D01*
X181219568Y-91870039D01*
X181229322Y-91871000D01*
X183416000Y-91871000D01*
X183416000Y-93169000D01*
X181229322Y-93169000D01*
X181219568Y-93169961D01*
X181210188Y-93172806D01*
X181201544Y-93177426D01*
X181193973Y-93183639D01*
X181148749Y-93228863D01*
X181073505Y-93279139D01*
X180999277Y-93328737D01*
X180930484Y-93357232D01*
X180833196Y-93397530D01*
X180745040Y-93415065D01*
X180656885Y-93432600D01*
X180477115Y-93432600D01*
X180388960Y-93415065D01*
X180300804Y-93397530D01*
X180203516Y-93357232D01*
X180134723Y-93328737D01*
X180060495Y-93279139D01*
X179985251Y-93228863D01*
X179858137Y-93101749D01*
X179758264Y-92952278D01*
X179758263Y-92952277D01*
X179727224Y-92877341D01*
X179689470Y-92786196D01*
X179654400Y-92609883D01*
X179654400Y-92430117D01*
X179689470Y-92253804D01*
X179729768Y-92156516D01*
X179758263Y-92087723D01*
X179858136Y-91938253D01*
X179858137Y-91938251D01*
X179985251Y-91811137D01*
X180134722Y-91711264D01*
X180134723Y-91711263D01*
X180203516Y-91682768D01*
X180300804Y-91642470D01*
X180388961Y-91624935D01*
X180477115Y-91607400D01*
X180656885Y-91607400D01*
X180745039Y-91624935D01*
G37*
G36*
X132997000Y-93066000D02*
G01*
X131299000Y-93066000D01*
X131299000Y-92418000D01*
X132997000Y-92418000D01*
X132997000Y-93066000D01*
G37*
G36*
X141497000Y-93066000D02*
G01*
X139799000Y-93066000D01*
X139799000Y-92418000D01*
X141497000Y-92418000D01*
X141497000Y-93066000D01*
G37*
G36*
X141497000Y-92266000D02*
G01*
X139799000Y-92266000D01*
X139799000Y-91618000D01*
X141497000Y-91618000D01*
X141497000Y-92266000D01*
G37*
G36*
X132997000Y-92266000D02*
G01*
X131299000Y-92266000D01*
X131299000Y-91618000D01*
X132997000Y-91618000D01*
X132997000Y-92266000D01*
G37*
G36*
X129077159Y-90811411D02*
G01*
X129122744Y-90825239D01*
X129164761Y-90847698D01*
X129201583Y-90877917D01*
X129231802Y-90914739D01*
X129254261Y-90956756D01*
X129268089Y-91002341D01*
X129273000Y-91052204D01*
X129273000Y-91633796D01*
X129268089Y-91683659D01*
X129254261Y-91729244D01*
X129231802Y-91771261D01*
X129201583Y-91808083D01*
X129164761Y-91838302D01*
X129122744Y-91860761D01*
X129077159Y-91874589D01*
X129027296Y-91879500D01*
X128020704Y-91879500D01*
X127970841Y-91874589D01*
X127925256Y-91860761D01*
X127883239Y-91838302D01*
X127846417Y-91808083D01*
X127816198Y-91771261D01*
X127793739Y-91729244D01*
X127779911Y-91683659D01*
X127775000Y-91633796D01*
X127775000Y-91052204D01*
X127779911Y-91002341D01*
X127793739Y-90956756D01*
X127816198Y-90914739D01*
X127846417Y-90877917D01*
X127883239Y-90847698D01*
X127925256Y-90825239D01*
X127970841Y-90811411D01*
X128020704Y-90806500D01*
X129027296Y-90806500D01*
X129077159Y-90811411D01*
G37*
G36*
X175184039Y-90036935D02*
G01*
X175272196Y-90054470D01*
X175352475Y-90087723D01*
X175438277Y-90123263D01*
X175438278Y-90123264D01*
X175587749Y-90223137D01*
X175714863Y-90350251D01*
X175714864Y-90350253D01*
X175814737Y-90499723D01*
X175843232Y-90568516D01*
X175883530Y-90665804D01*
X175883530Y-90665806D01*
X175918600Y-90842115D01*
X175918600Y-91021885D01*
X175902714Y-91101747D01*
X175883530Y-91198196D01*
X175843232Y-91295484D01*
X175814737Y-91364277D01*
X175814736Y-91364278D01*
X175714863Y-91513749D01*
X175587749Y-91640863D01*
X175553746Y-91663583D01*
X175438277Y-91740737D01*
X175369484Y-91769232D01*
X175272196Y-91809530D01*
X175184039Y-91827065D01*
X175095885Y-91844600D01*
X174916115Y-91844600D01*
X174827961Y-91827065D01*
X174739804Y-91809530D01*
X174642516Y-91769232D01*
X174573723Y-91740737D01*
X174458254Y-91663583D01*
X174424251Y-91640863D01*
X174297137Y-91513749D01*
X174197264Y-91364278D01*
X174197263Y-91364277D01*
X174168768Y-91295484D01*
X174128470Y-91198196D01*
X174109286Y-91101747D01*
X174093400Y-91021885D01*
X174093400Y-90842115D01*
X174128470Y-90665806D01*
X174128470Y-90665804D01*
X174168768Y-90568516D01*
X174197263Y-90499723D01*
X174297136Y-90350253D01*
X174297137Y-90350251D01*
X174424251Y-90223137D01*
X174573722Y-90123264D01*
X174573723Y-90123263D01*
X174659525Y-90087723D01*
X174739804Y-90054470D01*
X174827961Y-90036935D01*
X174916115Y-90019400D01*
X175095885Y-90019400D01*
X175184039Y-90036935D01*
G37*
G36*
X177724039Y-90036935D02*
G01*
X177812196Y-90054470D01*
X177892475Y-90087723D01*
X177978277Y-90123263D01*
X177978278Y-90123264D01*
X178127749Y-90223137D01*
X178254863Y-90350251D01*
X178254864Y-90350253D01*
X178354737Y-90499723D01*
X178383232Y-90568516D01*
X178423530Y-90665804D01*
X178423530Y-90665806D01*
X178458600Y-90842115D01*
X178458600Y-91021885D01*
X178442714Y-91101747D01*
X178423530Y-91198196D01*
X178383232Y-91295484D01*
X178354737Y-91364277D01*
X178354736Y-91364278D01*
X178254863Y-91513749D01*
X178127749Y-91640863D01*
X178093746Y-91663583D01*
X177978277Y-91740737D01*
X177909484Y-91769232D01*
X177812196Y-91809530D01*
X177724039Y-91827065D01*
X177635885Y-91844600D01*
X177456115Y-91844600D01*
X177367961Y-91827065D01*
X177279804Y-91809530D01*
X177182516Y-91769232D01*
X177113723Y-91740737D01*
X176998254Y-91663583D01*
X176964251Y-91640863D01*
X176837137Y-91513749D01*
X176737264Y-91364278D01*
X176737263Y-91364277D01*
X176708768Y-91295484D01*
X176668470Y-91198196D01*
X176649286Y-91101747D01*
X176633400Y-91021885D01*
X176633400Y-90842115D01*
X176668470Y-90665806D01*
X176668470Y-90665804D01*
X176708768Y-90568516D01*
X176737263Y-90499723D01*
X176837136Y-90350253D01*
X176837137Y-90350251D01*
X176964251Y-90223137D01*
X177113722Y-90123264D01*
X177113723Y-90123263D01*
X177199525Y-90087723D01*
X177279804Y-90054470D01*
X177367961Y-90036935D01*
X177456115Y-90019400D01*
X177635885Y-90019400D01*
X177724039Y-90036935D01*
G37*
G36*
X180745040Y-89624935D02*
G01*
X180833196Y-89642470D01*
X180930484Y-89682768D01*
X180999277Y-89711263D01*
X180999278Y-89711264D01*
X181148749Y-89811137D01*
X181193973Y-89856361D01*
X181201544Y-89862574D01*
X181210188Y-89867194D01*
X181219568Y-89870039D01*
X181229322Y-89871000D01*
X183416000Y-89871000D01*
X183416000Y-91169000D01*
X181229322Y-91169000D01*
X181219568Y-91169961D01*
X181210188Y-91172806D01*
X181201544Y-91177426D01*
X181193973Y-91183639D01*
X181148749Y-91228863D01*
X181073505Y-91279139D01*
X180999277Y-91328737D01*
X180930484Y-91357232D01*
X180833196Y-91397530D01*
X180745040Y-91415065D01*
X180656885Y-91432600D01*
X180477115Y-91432600D01*
X180388961Y-91415065D01*
X180300804Y-91397530D01*
X180203516Y-91357232D01*
X180134723Y-91328737D01*
X180060495Y-91279139D01*
X179985251Y-91228863D01*
X179858137Y-91101749D01*
X179758264Y-90952278D01*
X179758263Y-90952277D01*
X179714945Y-90847698D01*
X179689470Y-90786196D01*
X179671935Y-90698039D01*
X179654400Y-90609885D01*
X179654400Y-90430115D01*
X179689470Y-90253806D01*
X179689470Y-90253804D01*
X179743542Y-90123263D01*
X179758263Y-90087723D01*
X179858136Y-89938253D01*
X179858137Y-89938251D01*
X179985251Y-89811137D01*
X180134722Y-89711264D01*
X180134723Y-89711263D01*
X180203516Y-89682768D01*
X180300804Y-89642470D01*
X180388961Y-89624935D01*
X180477115Y-89607400D01*
X180656885Y-89607400D01*
X180745040Y-89624935D01*
G37*
G36*
X163645040Y-89624935D02*
G01*
X163733196Y-89642470D01*
X163830484Y-89682768D01*
X163899277Y-89711263D01*
X163899278Y-89711264D01*
X164048749Y-89811137D01*
X164175863Y-89938251D01*
X164175864Y-89938253D01*
X164275737Y-90087723D01*
X164290458Y-90123263D01*
X164344530Y-90253804D01*
X164344530Y-90253806D01*
X164379600Y-90430115D01*
X164379600Y-90609885D01*
X164362065Y-90698039D01*
X164344530Y-90786196D01*
X164319055Y-90847698D01*
X164275737Y-90952277D01*
X164275736Y-90952278D01*
X164175863Y-91101749D01*
X164048749Y-91228863D01*
X163973505Y-91279139D01*
X163899277Y-91328737D01*
X163830484Y-91357232D01*
X163733196Y-91397530D01*
X163645040Y-91415065D01*
X163556885Y-91432600D01*
X163377115Y-91432600D01*
X163288961Y-91415065D01*
X163200804Y-91397530D01*
X163103516Y-91357232D01*
X163034723Y-91328737D01*
X162960495Y-91279139D01*
X162885251Y-91228863D01*
X162840027Y-91183639D01*
X162832456Y-91177426D01*
X162823812Y-91172806D01*
X162814432Y-91169961D01*
X162804678Y-91169000D01*
X160618000Y-91169000D01*
X160618000Y-89871000D01*
X162804678Y-89871000D01*
X162814432Y-89870039D01*
X162823812Y-89867194D01*
X162832456Y-89862574D01*
X162840027Y-89856361D01*
X162885251Y-89811137D01*
X163034722Y-89711264D01*
X163034723Y-89711263D01*
X163103516Y-89682768D01*
X163200804Y-89642470D01*
X163288961Y-89624935D01*
X163377115Y-89607400D01*
X163556885Y-89607400D01*
X163645040Y-89624935D01*
G37*
G36*
X135522000Y-91341000D02*
G01*
X134874000Y-91341000D01*
X134874000Y-89643000D01*
X135522000Y-89643000D01*
X135522000Y-91341000D01*
G37*
G36*
X133922000Y-91341000D02*
G01*
X133274000Y-91341000D01*
X133274000Y-89643000D01*
X133922000Y-89643000D01*
X133922000Y-91341000D01*
G37*
G36*
X134722000Y-91341000D02*
G01*
X134074000Y-91341000D01*
X134074000Y-89643000D01*
X134722000Y-89643000D01*
X134722000Y-91341000D01*
G37*
G36*
X137122000Y-91341000D02*
G01*
X136474000Y-91341000D01*
X136474000Y-89643000D01*
X137122000Y-89643000D01*
X137122000Y-91341000D01*
G37*
G36*
X137922000Y-91341000D02*
G01*
X137274000Y-91341000D01*
X137274000Y-89643000D01*
X137922000Y-89643000D01*
X137922000Y-91341000D01*
G37*
G36*
X138722000Y-91341000D02*
G01*
X138074000Y-91341000D01*
X138074000Y-89643000D01*
X138722000Y-89643000D01*
X138722000Y-91341000D01*
G37*
G36*
X139522000Y-91341000D02*
G01*
X138874000Y-91341000D01*
X138874000Y-89643000D01*
X139522000Y-89643000D01*
X139522000Y-91341000D01*
G37*
G36*
X136322000Y-91341000D02*
G01*
X135674000Y-91341000D01*
X135674000Y-89643000D01*
X136322000Y-89643000D01*
X136322000Y-91341000D01*
G37*
G36*
X163645039Y-87624935D02*
G01*
X163733196Y-87642470D01*
X163830484Y-87682768D01*
X163899277Y-87711263D01*
X163899278Y-87711264D01*
X164048749Y-87811137D01*
X164175863Y-87938251D01*
X164175864Y-87938253D01*
X164275737Y-88087723D01*
X164291510Y-88125804D01*
X164344530Y-88253804D01*
X164379600Y-88430117D01*
X164379600Y-88609883D01*
X164344530Y-88786196D01*
X164304232Y-88883484D01*
X164275737Y-88952277D01*
X164275736Y-88952278D01*
X164175863Y-89101749D01*
X164048749Y-89228863D01*
X163987886Y-89269530D01*
X163899277Y-89328737D01*
X163830484Y-89357232D01*
X163733196Y-89397530D01*
X163645040Y-89415065D01*
X163556885Y-89432600D01*
X163377115Y-89432600D01*
X163288961Y-89415065D01*
X163200804Y-89397530D01*
X163103516Y-89357232D01*
X163034723Y-89328737D01*
X162946114Y-89269530D01*
X162885251Y-89228863D01*
X162840027Y-89183639D01*
X162832456Y-89177426D01*
X162823812Y-89172806D01*
X162814432Y-89169961D01*
X162804678Y-89169000D01*
X160618000Y-89169000D01*
X160618000Y-87871000D01*
X162804678Y-87871000D01*
X162814432Y-87870039D01*
X162823812Y-87867194D01*
X162832456Y-87862574D01*
X162840027Y-87856361D01*
X162885251Y-87811137D01*
X163034722Y-87711264D01*
X163034723Y-87711263D01*
X163103516Y-87682768D01*
X163200804Y-87642470D01*
X163288961Y-87624935D01*
X163377115Y-87607400D01*
X163556885Y-87607400D01*
X163645039Y-87624935D01*
G37*
G36*
X180745039Y-87624935D02*
G01*
X180833196Y-87642470D01*
X180930484Y-87682768D01*
X180999277Y-87711263D01*
X180999278Y-87711264D01*
X181148749Y-87811137D01*
X181193973Y-87856361D01*
X181201544Y-87862574D01*
X181210188Y-87867194D01*
X181219568Y-87870039D01*
X181229322Y-87871000D01*
X183416000Y-87871000D01*
X183416000Y-89169000D01*
X181229322Y-89169000D01*
X181219568Y-89169961D01*
X181210188Y-89172806D01*
X181201544Y-89177426D01*
X181193973Y-89183639D01*
X181148749Y-89228863D01*
X181087886Y-89269530D01*
X180999277Y-89328737D01*
X180930484Y-89357232D01*
X180833196Y-89397530D01*
X180745040Y-89415065D01*
X180656885Y-89432600D01*
X180477115Y-89432600D01*
X180388961Y-89415065D01*
X180300804Y-89397530D01*
X180203516Y-89357232D01*
X180134723Y-89328737D01*
X180046114Y-89269530D01*
X179985251Y-89228863D01*
X179858137Y-89101749D01*
X179758264Y-88952278D01*
X179758263Y-88952277D01*
X179729768Y-88883484D01*
X179689470Y-88786196D01*
X179654400Y-88609883D01*
X179654400Y-88430117D01*
X179689470Y-88253804D01*
X179742490Y-88125804D01*
X179758263Y-88087723D01*
X179858136Y-87938253D01*
X179858137Y-87938251D01*
X179985251Y-87811137D01*
X180134722Y-87711264D01*
X180134723Y-87711263D01*
X180203516Y-87682768D01*
X180300804Y-87642470D01*
X180388961Y-87624935D01*
X180477115Y-87607400D01*
X180656885Y-87607400D01*
X180745039Y-87624935D01*
G37*
G36*
X175184040Y-87496935D02*
G01*
X175272196Y-87514470D01*
X175369484Y-87554768D01*
X175438277Y-87583263D01*
X175438278Y-87583264D01*
X175587749Y-87683137D01*
X175714863Y-87810251D01*
X175714864Y-87810253D01*
X175814737Y-87959723D01*
X175843232Y-88028516D01*
X175883530Y-88125804D01*
X175918600Y-88302117D01*
X175918600Y-88481883D01*
X175883530Y-88658196D01*
X175843232Y-88755484D01*
X175814737Y-88824277D01*
X175814736Y-88824278D01*
X175714863Y-88973749D01*
X175587749Y-89100863D01*
X175586426Y-89101747D01*
X175438277Y-89200737D01*
X175370374Y-89228863D01*
X175272196Y-89269530D01*
X175184040Y-89287065D01*
X175095885Y-89304600D01*
X174916115Y-89304600D01*
X174827960Y-89287065D01*
X174739804Y-89269530D01*
X174641626Y-89228863D01*
X174573723Y-89200737D01*
X174425574Y-89101747D01*
X174424251Y-89100863D01*
X174297137Y-88973749D01*
X174197264Y-88824278D01*
X174197263Y-88824277D01*
X174168768Y-88755484D01*
X174128470Y-88658196D01*
X174093400Y-88481883D01*
X174093400Y-88302117D01*
X174128470Y-88125804D01*
X174168768Y-88028516D01*
X174197263Y-87959723D01*
X174297136Y-87810253D01*
X174297137Y-87810251D01*
X174424251Y-87683137D01*
X174573722Y-87583264D01*
X174573723Y-87583263D01*
X174642516Y-87554768D01*
X174739804Y-87514470D01*
X174827960Y-87496935D01*
X174916115Y-87479400D01*
X175095885Y-87479400D01*
X175184040Y-87496935D01*
G37*
G36*
X177724040Y-87496935D02*
G01*
X177812196Y-87514470D01*
X177909484Y-87554768D01*
X177978277Y-87583263D01*
X177978278Y-87583264D01*
X178127749Y-87683137D01*
X178254863Y-87810251D01*
X178254864Y-87810253D01*
X178354737Y-87959723D01*
X178383232Y-88028516D01*
X178423530Y-88125804D01*
X178458600Y-88302117D01*
X178458600Y-88481883D01*
X178423530Y-88658196D01*
X178383232Y-88755484D01*
X178354737Y-88824277D01*
X178354736Y-88824278D01*
X178254863Y-88973749D01*
X178127749Y-89100863D01*
X178126426Y-89101747D01*
X177978277Y-89200737D01*
X177910374Y-89228863D01*
X177812196Y-89269530D01*
X177724040Y-89287065D01*
X177635885Y-89304600D01*
X177456115Y-89304600D01*
X177367960Y-89287065D01*
X177279804Y-89269530D01*
X177181626Y-89228863D01*
X177113723Y-89200737D01*
X176965574Y-89101747D01*
X176964251Y-89100863D01*
X176837137Y-88973749D01*
X176737264Y-88824278D01*
X176737263Y-88824277D01*
X176708768Y-88755484D01*
X176668470Y-88658196D01*
X176633400Y-88481883D01*
X176633400Y-88302117D01*
X176668470Y-88125804D01*
X176708768Y-88028516D01*
X176737263Y-87959723D01*
X176837136Y-87810253D01*
X176837137Y-87810251D01*
X176964251Y-87683137D01*
X177113722Y-87583264D01*
X177113723Y-87583263D01*
X177182516Y-87554768D01*
X177279804Y-87514470D01*
X177367960Y-87496935D01*
X177456115Y-87479400D01*
X177635885Y-87479400D01*
X177724040Y-87496935D01*
G37*
G36*
X142672040Y-85718935D02*
G01*
X142760196Y-85736470D01*
X142857484Y-85776768D01*
X142926277Y-85805263D01*
X142935068Y-85811137D01*
X143075749Y-85905137D01*
X143202863Y-86032251D01*
X143202864Y-86032253D01*
X143302737Y-86181723D01*
X143331232Y-86250516D01*
X143371530Y-86347804D01*
X143406600Y-86524117D01*
X143406600Y-86703883D01*
X143371530Y-86880196D01*
X143341673Y-86952277D01*
X143302737Y-87046277D01*
X143302736Y-87046278D01*
X143202863Y-87195749D01*
X143075749Y-87322863D01*
X143000505Y-87373139D01*
X142926277Y-87422737D01*
X142857484Y-87451232D01*
X142760196Y-87491530D01*
X142672039Y-87509065D01*
X142583885Y-87526600D01*
X142404115Y-87526600D01*
X142315960Y-87509065D01*
X142227804Y-87491530D01*
X142130516Y-87451232D01*
X142061723Y-87422737D01*
X141987495Y-87373139D01*
X141912251Y-87322863D01*
X141785137Y-87195749D01*
X141685264Y-87046278D01*
X141685263Y-87046277D01*
X141646327Y-86952277D01*
X141616470Y-86880196D01*
X141581400Y-86703883D01*
X141581400Y-86524117D01*
X141616470Y-86347804D01*
X141656768Y-86250516D01*
X141685263Y-86181723D01*
X141785136Y-86032253D01*
X141785137Y-86032251D01*
X141912251Y-85905137D01*
X142052932Y-85811137D01*
X142061723Y-85805263D01*
X142130516Y-85776768D01*
X142227804Y-85736470D01*
X142315960Y-85718935D01*
X142404115Y-85701400D01*
X142583885Y-85701400D01*
X142672040Y-85718935D01*
G37*
G36*
X147752040Y-85718935D02*
G01*
X147840196Y-85736470D01*
X147937484Y-85776768D01*
X148006277Y-85805263D01*
X148015068Y-85811137D01*
X148155749Y-85905137D01*
X148282863Y-86032251D01*
X148282864Y-86032253D01*
X148382737Y-86181723D01*
X148411232Y-86250516D01*
X148451530Y-86347804D01*
X148486600Y-86524117D01*
X148486600Y-86703883D01*
X148451530Y-86880196D01*
X148421673Y-86952277D01*
X148382737Y-87046277D01*
X148382736Y-87046278D01*
X148282863Y-87195749D01*
X148155749Y-87322863D01*
X148080505Y-87373139D01*
X148006277Y-87422737D01*
X147937484Y-87451232D01*
X147840196Y-87491530D01*
X147752039Y-87509065D01*
X147663885Y-87526600D01*
X147484115Y-87526600D01*
X147395960Y-87509065D01*
X147307804Y-87491530D01*
X147210516Y-87451232D01*
X147141723Y-87422737D01*
X147067495Y-87373139D01*
X146992251Y-87322863D01*
X146865137Y-87195749D01*
X146765264Y-87046278D01*
X146765263Y-87046277D01*
X146726327Y-86952277D01*
X146696470Y-86880196D01*
X146661400Y-86703883D01*
X146661400Y-86524117D01*
X146696470Y-86347804D01*
X146736768Y-86250516D01*
X146765263Y-86181723D01*
X146865136Y-86032253D01*
X146865137Y-86032251D01*
X146992251Y-85905137D01*
X147132932Y-85811137D01*
X147141723Y-85805263D01*
X147210516Y-85776768D01*
X147307804Y-85736470D01*
X147395960Y-85718935D01*
X147484115Y-85701400D01*
X147663885Y-85701400D01*
X147752040Y-85718935D01*
G37*
G36*
X140132040Y-85718935D02*
G01*
X140220196Y-85736470D01*
X140317484Y-85776768D01*
X140386277Y-85805263D01*
X140395068Y-85811137D01*
X140535749Y-85905137D01*
X140662863Y-86032251D01*
X140662864Y-86032253D01*
X140762737Y-86181723D01*
X140791232Y-86250516D01*
X140831530Y-86347804D01*
X140866600Y-86524117D01*
X140866600Y-86703883D01*
X140831530Y-86880196D01*
X140801673Y-86952277D01*
X140762737Y-87046277D01*
X140762736Y-87046278D01*
X140662863Y-87195749D01*
X140535749Y-87322863D01*
X140460505Y-87373139D01*
X140386277Y-87422737D01*
X140317484Y-87451232D01*
X140220196Y-87491530D01*
X140132039Y-87509065D01*
X140043885Y-87526600D01*
X139864115Y-87526600D01*
X139775960Y-87509065D01*
X139687804Y-87491530D01*
X139590516Y-87451232D01*
X139521723Y-87422737D01*
X139447495Y-87373139D01*
X139372251Y-87322863D01*
X139245137Y-87195749D01*
X139145264Y-87046278D01*
X139145263Y-87046277D01*
X139106327Y-86952277D01*
X139076470Y-86880196D01*
X139041400Y-86703883D01*
X139041400Y-86524117D01*
X139076470Y-86347804D01*
X139116768Y-86250516D01*
X139145263Y-86181723D01*
X139245136Y-86032253D01*
X139245137Y-86032251D01*
X139372251Y-85905137D01*
X139512932Y-85811137D01*
X139521723Y-85805263D01*
X139590516Y-85776768D01*
X139687804Y-85736470D01*
X139775960Y-85718935D01*
X139864115Y-85701400D01*
X140043885Y-85701400D01*
X140132040Y-85718935D01*
G37*
G36*
X150292040Y-85718935D02*
G01*
X150380196Y-85736470D01*
X150477484Y-85776768D01*
X150546277Y-85805263D01*
X150555068Y-85811137D01*
X150695749Y-85905137D01*
X150822863Y-86032251D01*
X150822864Y-86032253D01*
X150922737Y-86181723D01*
X150951232Y-86250516D01*
X150991530Y-86347804D01*
X151026600Y-86524117D01*
X151026600Y-86703883D01*
X150991530Y-86880196D01*
X150961673Y-86952277D01*
X150922737Y-87046277D01*
X150922736Y-87046278D01*
X150822863Y-87195749D01*
X150695749Y-87322863D01*
X150620505Y-87373139D01*
X150546277Y-87422737D01*
X150477484Y-87451232D01*
X150380196Y-87491530D01*
X150292039Y-87509065D01*
X150203885Y-87526600D01*
X150024115Y-87526600D01*
X149935960Y-87509065D01*
X149847804Y-87491530D01*
X149750516Y-87451232D01*
X149681723Y-87422737D01*
X149607495Y-87373139D01*
X149532251Y-87322863D01*
X149405137Y-87195749D01*
X149305264Y-87046278D01*
X149305263Y-87046277D01*
X149266327Y-86952277D01*
X149236470Y-86880196D01*
X149201400Y-86703883D01*
X149201400Y-86524117D01*
X149236470Y-86347804D01*
X149276768Y-86250516D01*
X149305263Y-86181723D01*
X149405136Y-86032253D01*
X149405137Y-86032251D01*
X149532251Y-85905137D01*
X149672932Y-85811137D01*
X149681723Y-85805263D01*
X149750516Y-85776768D01*
X149847804Y-85736470D01*
X149935960Y-85718935D01*
X150024115Y-85701400D01*
X150203885Y-85701400D01*
X150292040Y-85718935D01*
G37*
G36*
X130706600Y-87526600D02*
G01*
X128881400Y-87526600D01*
X128881400Y-85701400D01*
X130706600Y-85701400D01*
X130706600Y-87526600D01*
G37*
G36*
X152832040Y-85718935D02*
G01*
X152920196Y-85736470D01*
X153017484Y-85776768D01*
X153086277Y-85805263D01*
X153095068Y-85811137D01*
X153235749Y-85905137D01*
X153362863Y-86032251D01*
X153362864Y-86032253D01*
X153462737Y-86181723D01*
X153491232Y-86250516D01*
X153531530Y-86347804D01*
X153566600Y-86524117D01*
X153566600Y-86703883D01*
X153531530Y-86880196D01*
X153501673Y-86952277D01*
X153462737Y-87046277D01*
X153462736Y-87046278D01*
X153362863Y-87195749D01*
X153235749Y-87322863D01*
X153160505Y-87373139D01*
X153086277Y-87422737D01*
X153017484Y-87451232D01*
X152920196Y-87491530D01*
X152832039Y-87509065D01*
X152743885Y-87526600D01*
X152564115Y-87526600D01*
X152475960Y-87509065D01*
X152387804Y-87491530D01*
X152290516Y-87451232D01*
X152221723Y-87422737D01*
X152147495Y-87373139D01*
X152072251Y-87322863D01*
X151945137Y-87195749D01*
X151845264Y-87046278D01*
X151845263Y-87046277D01*
X151806327Y-86952277D01*
X151776470Y-86880196D01*
X151741400Y-86703883D01*
X151741400Y-86524117D01*
X151776470Y-86347804D01*
X151816768Y-86250516D01*
X151845263Y-86181723D01*
X151945136Y-86032253D01*
X151945137Y-86032251D01*
X152072251Y-85905137D01*
X152212932Y-85811137D01*
X152221723Y-85805263D01*
X152290516Y-85776768D01*
X152387804Y-85736470D01*
X152475960Y-85718935D01*
X152564115Y-85701400D01*
X152743885Y-85701400D01*
X152832040Y-85718935D01*
G37*
G36*
X145212040Y-85718935D02*
G01*
X145300196Y-85736470D01*
X145397484Y-85776768D01*
X145466277Y-85805263D01*
X145475068Y-85811137D01*
X145615749Y-85905137D01*
X145742863Y-86032251D01*
X145742864Y-86032253D01*
X145842737Y-86181723D01*
X145871232Y-86250516D01*
X145911530Y-86347804D01*
X145946600Y-86524117D01*
X145946600Y-86703883D01*
X145911530Y-86880196D01*
X145881673Y-86952277D01*
X145842737Y-87046277D01*
X145842736Y-87046278D01*
X145742863Y-87195749D01*
X145615749Y-87322863D01*
X145540505Y-87373139D01*
X145466277Y-87422737D01*
X145397484Y-87451232D01*
X145300196Y-87491530D01*
X145212039Y-87509065D01*
X145123885Y-87526600D01*
X144944115Y-87526600D01*
X144855960Y-87509065D01*
X144767804Y-87491530D01*
X144670516Y-87451232D01*
X144601723Y-87422737D01*
X144527495Y-87373139D01*
X144452251Y-87322863D01*
X144325137Y-87195749D01*
X144225264Y-87046278D01*
X144225263Y-87046277D01*
X144186327Y-86952277D01*
X144156470Y-86880196D01*
X144121400Y-86703883D01*
X144121400Y-86524117D01*
X144156470Y-86347804D01*
X144196768Y-86250516D01*
X144225263Y-86181723D01*
X144325136Y-86032253D01*
X144325137Y-86032251D01*
X144452251Y-85905137D01*
X144592932Y-85811137D01*
X144601723Y-85805263D01*
X144670516Y-85776768D01*
X144767804Y-85736470D01*
X144855960Y-85718935D01*
X144944115Y-85701400D01*
X145123885Y-85701400D01*
X145212040Y-85718935D01*
G37*
G36*
X137592040Y-85718935D02*
G01*
X137680196Y-85736470D01*
X137777484Y-85776768D01*
X137846277Y-85805263D01*
X137855068Y-85811137D01*
X137995749Y-85905137D01*
X138122863Y-86032251D01*
X138122864Y-86032253D01*
X138222737Y-86181723D01*
X138251232Y-86250516D01*
X138291530Y-86347804D01*
X138326600Y-86524117D01*
X138326600Y-86703883D01*
X138291530Y-86880196D01*
X138261673Y-86952277D01*
X138222737Y-87046277D01*
X138222736Y-87046278D01*
X138122863Y-87195749D01*
X137995749Y-87322863D01*
X137920505Y-87373139D01*
X137846277Y-87422737D01*
X137777484Y-87451232D01*
X137680196Y-87491530D01*
X137592039Y-87509065D01*
X137503885Y-87526600D01*
X137324115Y-87526600D01*
X137235960Y-87509065D01*
X137147804Y-87491530D01*
X137050516Y-87451232D01*
X136981723Y-87422737D01*
X136907495Y-87373139D01*
X136832251Y-87322863D01*
X136705137Y-87195749D01*
X136605264Y-87046278D01*
X136605263Y-87046277D01*
X136566327Y-86952277D01*
X136536470Y-86880196D01*
X136501400Y-86703883D01*
X136501400Y-86524117D01*
X136536470Y-86347804D01*
X136576768Y-86250516D01*
X136605263Y-86181723D01*
X136705136Y-86032253D01*
X136705137Y-86032251D01*
X136832251Y-85905137D01*
X136972932Y-85811137D01*
X136981723Y-85805263D01*
X137050516Y-85776768D01*
X137147804Y-85736470D01*
X137235960Y-85718935D01*
X137324115Y-85701400D01*
X137503885Y-85701400D01*
X137592040Y-85718935D01*
G37*
G36*
X155372040Y-85718935D02*
G01*
X155460196Y-85736470D01*
X155557484Y-85776768D01*
X155626277Y-85805263D01*
X155635068Y-85811137D01*
X155775749Y-85905137D01*
X155902863Y-86032251D01*
X155902864Y-86032253D01*
X156002737Y-86181723D01*
X156031232Y-86250516D01*
X156071530Y-86347804D01*
X156106600Y-86524117D01*
X156106600Y-86703883D01*
X156071530Y-86880196D01*
X156041673Y-86952277D01*
X156002737Y-87046277D01*
X156002736Y-87046278D01*
X155902863Y-87195749D01*
X155775749Y-87322863D01*
X155700505Y-87373139D01*
X155626277Y-87422737D01*
X155557484Y-87451232D01*
X155460196Y-87491530D01*
X155372039Y-87509065D01*
X155283885Y-87526600D01*
X155104115Y-87526600D01*
X155015960Y-87509065D01*
X154927804Y-87491530D01*
X154830516Y-87451232D01*
X154761723Y-87422737D01*
X154687495Y-87373139D01*
X154612251Y-87322863D01*
X154485137Y-87195749D01*
X154385264Y-87046278D01*
X154385263Y-87046277D01*
X154346327Y-86952277D01*
X154316470Y-86880196D01*
X154281400Y-86703883D01*
X154281400Y-86524117D01*
X154316470Y-86347804D01*
X154356768Y-86250516D01*
X154385263Y-86181723D01*
X154485136Y-86032253D01*
X154485137Y-86032251D01*
X154612251Y-85905137D01*
X154752932Y-85811137D01*
X154761723Y-85805263D01*
X154830516Y-85776768D01*
X154927804Y-85736470D01*
X155015960Y-85718935D01*
X155104115Y-85701400D01*
X155283885Y-85701400D01*
X155372040Y-85718935D01*
G37*
G36*
X135052040Y-85718935D02*
G01*
X135140196Y-85736470D01*
X135237484Y-85776768D01*
X135306277Y-85805263D01*
X135315068Y-85811137D01*
X135455749Y-85905137D01*
X135582863Y-86032251D01*
X135582864Y-86032253D01*
X135682737Y-86181723D01*
X135711232Y-86250516D01*
X135751530Y-86347804D01*
X135786600Y-86524117D01*
X135786600Y-86703883D01*
X135751530Y-86880196D01*
X135721673Y-86952277D01*
X135682737Y-87046277D01*
X135682736Y-87046278D01*
X135582863Y-87195749D01*
X135455749Y-87322863D01*
X135380505Y-87373139D01*
X135306277Y-87422737D01*
X135237484Y-87451232D01*
X135140196Y-87491530D01*
X135052039Y-87509065D01*
X134963885Y-87526600D01*
X134784115Y-87526600D01*
X134695960Y-87509065D01*
X134607804Y-87491530D01*
X134510516Y-87451232D01*
X134441723Y-87422737D01*
X134367495Y-87373139D01*
X134292251Y-87322863D01*
X134165137Y-87195749D01*
X134065264Y-87046278D01*
X134065263Y-87046277D01*
X134026327Y-86952277D01*
X133996470Y-86880196D01*
X133961400Y-86703883D01*
X133961400Y-86524117D01*
X133996470Y-86347804D01*
X134036768Y-86250516D01*
X134065263Y-86181723D01*
X134165136Y-86032253D01*
X134165137Y-86032251D01*
X134292251Y-85905137D01*
X134432932Y-85811137D01*
X134441723Y-85805263D01*
X134510516Y-85776768D01*
X134607804Y-85736470D01*
X134695960Y-85718935D01*
X134784115Y-85701400D01*
X134963885Y-85701400D01*
X135052040Y-85718935D01*
G37*
G36*
X132512040Y-85718935D02*
G01*
X132600196Y-85736470D01*
X132697484Y-85776768D01*
X132766277Y-85805263D01*
X132775068Y-85811137D01*
X132915749Y-85905137D01*
X133042863Y-86032251D01*
X133042864Y-86032253D01*
X133142737Y-86181723D01*
X133171232Y-86250516D01*
X133211530Y-86347804D01*
X133246600Y-86524117D01*
X133246600Y-86703883D01*
X133211530Y-86880196D01*
X133181673Y-86952277D01*
X133142737Y-87046277D01*
X133142736Y-87046278D01*
X133042863Y-87195749D01*
X132915749Y-87322863D01*
X132840505Y-87373139D01*
X132766277Y-87422737D01*
X132697484Y-87451232D01*
X132600196Y-87491530D01*
X132512039Y-87509065D01*
X132423885Y-87526600D01*
X132244115Y-87526600D01*
X132155960Y-87509065D01*
X132067804Y-87491530D01*
X131970516Y-87451232D01*
X131901723Y-87422737D01*
X131827495Y-87373139D01*
X131752251Y-87322863D01*
X131625137Y-87195749D01*
X131525264Y-87046278D01*
X131525263Y-87046277D01*
X131486327Y-86952277D01*
X131456470Y-86880196D01*
X131421400Y-86703883D01*
X131421400Y-86524117D01*
X131456470Y-86347804D01*
X131496768Y-86250516D01*
X131525263Y-86181723D01*
X131625136Y-86032253D01*
X131625137Y-86032251D01*
X131752251Y-85905137D01*
X131892932Y-85811137D01*
X131901723Y-85805263D01*
X131970516Y-85776768D01*
X132067804Y-85736470D01*
X132155960Y-85718935D01*
X132244115Y-85701400D01*
X132423885Y-85701400D01*
X132512040Y-85718935D01*
G37*
G36*
X163645039Y-85624935D02*
G01*
X163733196Y-85642470D01*
X163830484Y-85682768D01*
X163899277Y-85711263D01*
X163899278Y-85711264D01*
X164048749Y-85811137D01*
X164175863Y-85938251D01*
X164178291Y-85941885D01*
X164275737Y-86087723D01*
X164288358Y-86118194D01*
X164344530Y-86253804D01*
X164379600Y-86430117D01*
X164379600Y-86609883D01*
X164344530Y-86786196D01*
X164305594Y-86880194D01*
X164275737Y-86952277D01*
X164275736Y-86952278D01*
X164175863Y-87101749D01*
X164048749Y-87228863D01*
X163973505Y-87279139D01*
X163899277Y-87328737D01*
X163830484Y-87357232D01*
X163733196Y-87397530D01*
X163645039Y-87415065D01*
X163556885Y-87432600D01*
X163377115Y-87432600D01*
X163288960Y-87415065D01*
X163200804Y-87397530D01*
X163103516Y-87357232D01*
X163034723Y-87328737D01*
X162960495Y-87279139D01*
X162885251Y-87228863D01*
X162840027Y-87183639D01*
X162832456Y-87177426D01*
X162823812Y-87172806D01*
X162814432Y-87169961D01*
X162804678Y-87169000D01*
X160618000Y-87169000D01*
X160618000Y-85871000D01*
X162804678Y-85871000D01*
X162814432Y-85870039D01*
X162823812Y-85867194D01*
X162832456Y-85862574D01*
X162840027Y-85856361D01*
X162885251Y-85811137D01*
X163034722Y-85711264D01*
X163034723Y-85711263D01*
X163103516Y-85682768D01*
X163200804Y-85642470D01*
X163288961Y-85624935D01*
X163377115Y-85607400D01*
X163556885Y-85607400D01*
X163645039Y-85624935D01*
G37*
G36*
X180745039Y-85624935D02*
G01*
X180833196Y-85642470D01*
X180930484Y-85682768D01*
X180999277Y-85711263D01*
X180999278Y-85711264D01*
X181148749Y-85811137D01*
X181193973Y-85856361D01*
X181201544Y-85862574D01*
X181210188Y-85867194D01*
X181219568Y-85870039D01*
X181229322Y-85871000D01*
X183416000Y-85871000D01*
X183416000Y-87169000D01*
X181229322Y-87169000D01*
X181219568Y-87169961D01*
X181210188Y-87172806D01*
X181201544Y-87177426D01*
X181193973Y-87183639D01*
X181148749Y-87228863D01*
X181073505Y-87279139D01*
X180999277Y-87328737D01*
X180930484Y-87357232D01*
X180833196Y-87397530D01*
X180745039Y-87415065D01*
X180656885Y-87432600D01*
X180477115Y-87432600D01*
X180388960Y-87415065D01*
X180300804Y-87397530D01*
X180203516Y-87357232D01*
X180134723Y-87328737D01*
X180060495Y-87279139D01*
X179985251Y-87228863D01*
X179858137Y-87101749D01*
X179758264Y-86952278D01*
X179758263Y-86952277D01*
X179728406Y-86880194D01*
X179689470Y-86786196D01*
X179654400Y-86609883D01*
X179654400Y-86430117D01*
X179689470Y-86253804D01*
X179745642Y-86118194D01*
X179758263Y-86087723D01*
X179855709Y-85941885D01*
X179858137Y-85938251D01*
X179985251Y-85811137D01*
X180134722Y-85711264D01*
X180134723Y-85711263D01*
X180203516Y-85682768D01*
X180300804Y-85642470D01*
X180388961Y-85624935D01*
X180477115Y-85607400D01*
X180656885Y-85607400D01*
X180745039Y-85624935D01*
G37*
G36*
X177700622Y-84952277D02*
G01*
X177812196Y-84974470D01*
X177909484Y-85014768D01*
X177978277Y-85043263D01*
X177978278Y-85043264D01*
X178127749Y-85143137D01*
X178254863Y-85270251D01*
X178254864Y-85270253D01*
X178354737Y-85419723D01*
X178383232Y-85488516D01*
X178423530Y-85585804D01*
X178458600Y-85762117D01*
X178458600Y-85941883D01*
X178423530Y-86118196D01*
X178397216Y-86181722D01*
X178354737Y-86284277D01*
X178354736Y-86284278D01*
X178254863Y-86433749D01*
X178127749Y-86560863D01*
X178054385Y-86609883D01*
X177978277Y-86660737D01*
X177909484Y-86689232D01*
X177812196Y-86729530D01*
X177724039Y-86747065D01*
X177635885Y-86764600D01*
X177456115Y-86764600D01*
X177367961Y-86747065D01*
X177279804Y-86729530D01*
X177182516Y-86689232D01*
X177113723Y-86660737D01*
X177037615Y-86609883D01*
X176964251Y-86560863D01*
X176837137Y-86433749D01*
X176737264Y-86284278D01*
X176737263Y-86284277D01*
X176694784Y-86181722D01*
X176668470Y-86118196D01*
X176633400Y-85941883D01*
X176633400Y-85762117D01*
X176668470Y-85585804D01*
X176708768Y-85488516D01*
X176737263Y-85419723D01*
X176837136Y-85270253D01*
X176837137Y-85270251D01*
X176964251Y-85143137D01*
X177113722Y-85043264D01*
X177113723Y-85043263D01*
X177182516Y-85014768D01*
X177279804Y-84974470D01*
X177391378Y-84952277D01*
X177456115Y-84939400D01*
X177635885Y-84939400D01*
X177700622Y-84952277D01*
G37*
G36*
X175160622Y-84952277D02*
G01*
X175272196Y-84974470D01*
X175369484Y-85014768D01*
X175438277Y-85043263D01*
X175438278Y-85043264D01*
X175587749Y-85143137D01*
X175714863Y-85270251D01*
X175714864Y-85270253D01*
X175814737Y-85419723D01*
X175843232Y-85488516D01*
X175883530Y-85585804D01*
X175918600Y-85762117D01*
X175918600Y-85941883D01*
X175883530Y-86118196D01*
X175857216Y-86181722D01*
X175814737Y-86284277D01*
X175814736Y-86284278D01*
X175714863Y-86433749D01*
X175587749Y-86560863D01*
X175514385Y-86609883D01*
X175438277Y-86660737D01*
X175369484Y-86689232D01*
X175272196Y-86729530D01*
X175184039Y-86747065D01*
X175095885Y-86764600D01*
X174916115Y-86764600D01*
X174827961Y-86747065D01*
X174739804Y-86729530D01*
X174642516Y-86689232D01*
X174573723Y-86660737D01*
X174497615Y-86609883D01*
X174424251Y-86560863D01*
X174297137Y-86433749D01*
X174197264Y-86284278D01*
X174197263Y-86284277D01*
X174154784Y-86181722D01*
X174128470Y-86118196D01*
X174093400Y-85941883D01*
X174093400Y-85762117D01*
X174128470Y-85585804D01*
X174168768Y-85488516D01*
X174197263Y-85419723D01*
X174297136Y-85270253D01*
X174297137Y-85270251D01*
X174424251Y-85143137D01*
X174573722Y-85043264D01*
X174573723Y-85043263D01*
X174642516Y-85014768D01*
X174739804Y-84974470D01*
X174851378Y-84952277D01*
X174916115Y-84939400D01*
X175095885Y-84939400D01*
X175160622Y-84952277D01*
G37*
G36*
X180745040Y-83624935D02*
G01*
X180833196Y-83642470D01*
X180930484Y-83682768D01*
X180999277Y-83711263D01*
X180999278Y-83711264D01*
X181148749Y-83811137D01*
X181193973Y-83856361D01*
X181201544Y-83862574D01*
X181210188Y-83867194D01*
X181219568Y-83870039D01*
X181229322Y-83871000D01*
X183416000Y-83871000D01*
X183416000Y-85169000D01*
X181229322Y-85169000D01*
X181219568Y-85169961D01*
X181210188Y-85172806D01*
X181201544Y-85177426D01*
X181193973Y-85183639D01*
X181148749Y-85228863D01*
X181086807Y-85270251D01*
X180999277Y-85328737D01*
X180938286Y-85354000D01*
X180833196Y-85397530D01*
X180745039Y-85415065D01*
X180656885Y-85432600D01*
X180477115Y-85432600D01*
X180388960Y-85415065D01*
X180300804Y-85397530D01*
X180195714Y-85354000D01*
X180134723Y-85328737D01*
X180047193Y-85270251D01*
X179985251Y-85228863D01*
X179858137Y-85101749D01*
X179758264Y-84952278D01*
X179758263Y-84952277D01*
X179729459Y-84882736D01*
X179689470Y-84786196D01*
X179654400Y-84609883D01*
X179654400Y-84430117D01*
X179689470Y-84253804D01*
X179729768Y-84156516D01*
X179758263Y-84087723D01*
X179807861Y-84013495D01*
X179858137Y-83938251D01*
X179985251Y-83811137D01*
X180134722Y-83711264D01*
X180134723Y-83711263D01*
X180203516Y-83682768D01*
X180300804Y-83642470D01*
X180388960Y-83624935D01*
X180477115Y-83607400D01*
X180656885Y-83607400D01*
X180745040Y-83624935D01*
G37*
G36*
X163645040Y-83624935D02*
G01*
X163733196Y-83642470D01*
X163830484Y-83682768D01*
X163899277Y-83711263D01*
X163899278Y-83711264D01*
X164048749Y-83811137D01*
X164175863Y-83938251D01*
X164226139Y-84013495D01*
X164275737Y-84087723D01*
X164304232Y-84156516D01*
X164344530Y-84253804D01*
X164379600Y-84430117D01*
X164379600Y-84609883D01*
X164344530Y-84786196D01*
X164304541Y-84882736D01*
X164275737Y-84952277D01*
X164275736Y-84952278D01*
X164175863Y-85101749D01*
X164048749Y-85228863D01*
X163986807Y-85270251D01*
X163899277Y-85328737D01*
X163838286Y-85354000D01*
X163733196Y-85397530D01*
X163645039Y-85415065D01*
X163556885Y-85432600D01*
X163377115Y-85432600D01*
X163288960Y-85415065D01*
X163200804Y-85397530D01*
X163095714Y-85354000D01*
X163034723Y-85328737D01*
X162947193Y-85270251D01*
X162885251Y-85228863D01*
X162840027Y-85183639D01*
X162832456Y-85177426D01*
X162823812Y-85172806D01*
X162814432Y-85169961D01*
X162804678Y-85169000D01*
X160618000Y-85169000D01*
X160618000Y-83871000D01*
X162804678Y-83871000D01*
X162814432Y-83870039D01*
X162823812Y-83867194D01*
X162832456Y-83862574D01*
X162840027Y-83856361D01*
X162885251Y-83811137D01*
X163034722Y-83711264D01*
X163034723Y-83711263D01*
X163103516Y-83682768D01*
X163200804Y-83642470D01*
X163288960Y-83624935D01*
X163377115Y-83607400D01*
X163556885Y-83607400D01*
X163645040Y-83624935D01*
G37*
G36*
X159268000Y-85354000D02*
G01*
X157470000Y-85354000D01*
X157470000Y-83556000D01*
X159268000Y-83556000D01*
X159268000Y-85354000D01*
G37*
G36*
X135044453Y-83177426D02*
G01*
X135140196Y-83196470D01*
X135218399Y-83228863D01*
X135306277Y-83265263D01*
X135306278Y-83265264D01*
X135455749Y-83365137D01*
X135582863Y-83492251D01*
X135582864Y-83492253D01*
X135682737Y-83641723D01*
X135683046Y-83642470D01*
X135751530Y-83807804D01*
X135786600Y-83984117D01*
X135786600Y-84163883D01*
X135751530Y-84340196D01*
X135714284Y-84430115D01*
X135682737Y-84506277D01*
X135682736Y-84506278D01*
X135582863Y-84655749D01*
X135455749Y-84782863D01*
X135380505Y-84833139D01*
X135306277Y-84882737D01*
X135237484Y-84911232D01*
X135140196Y-84951530D01*
X135052039Y-84969065D01*
X134963885Y-84986600D01*
X134784115Y-84986600D01*
X134695961Y-84969065D01*
X134607804Y-84951530D01*
X134510516Y-84911232D01*
X134441723Y-84882737D01*
X134367495Y-84833139D01*
X134292251Y-84782863D01*
X134165137Y-84655749D01*
X134065264Y-84506278D01*
X134065263Y-84506277D01*
X134033716Y-84430115D01*
X133996470Y-84340196D01*
X133961400Y-84163883D01*
X133961400Y-83984117D01*
X133996470Y-83807804D01*
X134064954Y-83642470D01*
X134065263Y-83641723D01*
X134165136Y-83492253D01*
X134165137Y-83492251D01*
X134292251Y-83365137D01*
X134441722Y-83265264D01*
X134441723Y-83265263D01*
X134529601Y-83228863D01*
X134607804Y-83196470D01*
X134703547Y-83177426D01*
X134784115Y-83161400D01*
X134963885Y-83161400D01*
X135044453Y-83177426D01*
G37*
G36*
X137584453Y-83177426D02*
G01*
X137680196Y-83196470D01*
X137758399Y-83228863D01*
X137846277Y-83265263D01*
X137846278Y-83265264D01*
X137995749Y-83365137D01*
X138122863Y-83492251D01*
X138122864Y-83492253D01*
X138222737Y-83641723D01*
X138223046Y-83642470D01*
X138291530Y-83807804D01*
X138326600Y-83984117D01*
X138326600Y-84163883D01*
X138291530Y-84340196D01*
X138254284Y-84430115D01*
X138222737Y-84506277D01*
X138222736Y-84506278D01*
X138122863Y-84655749D01*
X137995749Y-84782863D01*
X137920505Y-84833139D01*
X137846277Y-84882737D01*
X137777484Y-84911232D01*
X137680196Y-84951530D01*
X137592039Y-84969065D01*
X137503885Y-84986600D01*
X137324115Y-84986600D01*
X137235961Y-84969065D01*
X137147804Y-84951530D01*
X137050516Y-84911232D01*
X136981723Y-84882737D01*
X136907495Y-84833139D01*
X136832251Y-84782863D01*
X136705137Y-84655749D01*
X136605264Y-84506278D01*
X136605263Y-84506277D01*
X136573716Y-84430115D01*
X136536470Y-84340196D01*
X136501400Y-84163883D01*
X136501400Y-83984117D01*
X136536470Y-83807804D01*
X136604954Y-83642470D01*
X136605263Y-83641723D01*
X136705136Y-83492253D01*
X136705137Y-83492251D01*
X136832251Y-83365137D01*
X136981722Y-83265264D01*
X136981723Y-83265263D01*
X137069601Y-83228863D01*
X137147804Y-83196470D01*
X137243547Y-83177426D01*
X137324115Y-83161400D01*
X137503885Y-83161400D01*
X137584453Y-83177426D01*
G37*
G36*
X129964453Y-83177426D02*
G01*
X130060196Y-83196470D01*
X130138399Y-83228863D01*
X130226277Y-83265263D01*
X130226278Y-83265264D01*
X130375749Y-83365137D01*
X130502863Y-83492251D01*
X130502864Y-83492253D01*
X130602737Y-83641723D01*
X130603046Y-83642470D01*
X130671530Y-83807804D01*
X130706600Y-83984117D01*
X130706600Y-84163883D01*
X130671530Y-84340196D01*
X130634284Y-84430115D01*
X130602737Y-84506277D01*
X130602736Y-84506278D01*
X130502863Y-84655749D01*
X130375749Y-84782863D01*
X130300505Y-84833139D01*
X130226277Y-84882737D01*
X130157484Y-84911232D01*
X130060196Y-84951530D01*
X129972039Y-84969065D01*
X129883885Y-84986600D01*
X129704115Y-84986600D01*
X129615961Y-84969065D01*
X129527804Y-84951530D01*
X129430516Y-84911232D01*
X129361723Y-84882737D01*
X129287495Y-84833139D01*
X129212251Y-84782863D01*
X129085137Y-84655749D01*
X128985264Y-84506278D01*
X128985263Y-84506277D01*
X128953716Y-84430115D01*
X128916470Y-84340196D01*
X128881400Y-84163883D01*
X128881400Y-83984117D01*
X128916470Y-83807804D01*
X128984954Y-83642470D01*
X128985263Y-83641723D01*
X129085136Y-83492253D01*
X129085137Y-83492251D01*
X129212251Y-83365137D01*
X129361722Y-83265264D01*
X129361723Y-83265263D01*
X129449601Y-83228863D01*
X129527804Y-83196470D01*
X129623547Y-83177426D01*
X129704115Y-83161400D01*
X129883885Y-83161400D01*
X129964453Y-83177426D01*
G37*
G36*
X132504453Y-83177426D02*
G01*
X132600196Y-83196470D01*
X132678399Y-83228863D01*
X132766277Y-83265263D01*
X132766278Y-83265264D01*
X132915749Y-83365137D01*
X133042863Y-83492251D01*
X133042864Y-83492253D01*
X133142737Y-83641723D01*
X133143046Y-83642470D01*
X133211530Y-83807804D01*
X133246600Y-83984117D01*
X133246600Y-84163883D01*
X133211530Y-84340196D01*
X133174284Y-84430115D01*
X133142737Y-84506277D01*
X133142736Y-84506278D01*
X133042863Y-84655749D01*
X132915749Y-84782863D01*
X132840505Y-84833139D01*
X132766277Y-84882737D01*
X132697484Y-84911232D01*
X132600196Y-84951530D01*
X132512039Y-84969065D01*
X132423885Y-84986600D01*
X132244115Y-84986600D01*
X132155961Y-84969065D01*
X132067804Y-84951530D01*
X131970516Y-84911232D01*
X131901723Y-84882737D01*
X131827495Y-84833139D01*
X131752251Y-84782863D01*
X131625137Y-84655749D01*
X131525264Y-84506278D01*
X131525263Y-84506277D01*
X131493716Y-84430115D01*
X131456470Y-84340196D01*
X131421400Y-84163883D01*
X131421400Y-83984117D01*
X131456470Y-83807804D01*
X131524954Y-83642470D01*
X131525263Y-83641723D01*
X131625136Y-83492253D01*
X131625137Y-83492251D01*
X131752251Y-83365137D01*
X131901722Y-83265264D01*
X131901723Y-83265263D01*
X131989601Y-83228863D01*
X132067804Y-83196470D01*
X132163547Y-83177426D01*
X132244115Y-83161400D01*
X132423885Y-83161400D01*
X132504453Y-83177426D01*
G37*
G36*
X152824453Y-83177426D02*
G01*
X152920196Y-83196470D01*
X152998399Y-83228863D01*
X153086277Y-83265263D01*
X153086278Y-83265264D01*
X153235749Y-83365137D01*
X153362863Y-83492251D01*
X153362864Y-83492253D01*
X153462737Y-83641723D01*
X153463046Y-83642470D01*
X153531530Y-83807804D01*
X153566600Y-83984117D01*
X153566600Y-84163883D01*
X153531530Y-84340196D01*
X153494284Y-84430115D01*
X153462737Y-84506277D01*
X153462736Y-84506278D01*
X153362863Y-84655749D01*
X153235749Y-84782863D01*
X153160505Y-84833139D01*
X153086277Y-84882737D01*
X153017484Y-84911232D01*
X152920196Y-84951530D01*
X152832039Y-84969065D01*
X152743885Y-84986600D01*
X152564115Y-84986600D01*
X152475961Y-84969065D01*
X152387804Y-84951530D01*
X152290516Y-84911232D01*
X152221723Y-84882737D01*
X152147495Y-84833139D01*
X152072251Y-84782863D01*
X151945137Y-84655749D01*
X151845264Y-84506278D01*
X151845263Y-84506277D01*
X151813716Y-84430115D01*
X151776470Y-84340196D01*
X151741400Y-84163883D01*
X151741400Y-83984117D01*
X151776470Y-83807804D01*
X151844954Y-83642470D01*
X151845263Y-83641723D01*
X151945136Y-83492253D01*
X151945137Y-83492251D01*
X152072251Y-83365137D01*
X152221722Y-83265264D01*
X152221723Y-83265263D01*
X152309601Y-83228863D01*
X152387804Y-83196470D01*
X152483547Y-83177426D01*
X152564115Y-83161400D01*
X152743885Y-83161400D01*
X152824453Y-83177426D01*
G37*
G36*
X150284453Y-83177426D02*
G01*
X150380196Y-83196470D01*
X150458399Y-83228863D01*
X150546277Y-83265263D01*
X150546278Y-83265264D01*
X150695749Y-83365137D01*
X150822863Y-83492251D01*
X150822864Y-83492253D01*
X150922737Y-83641723D01*
X150923046Y-83642470D01*
X150991530Y-83807804D01*
X151026600Y-83984117D01*
X151026600Y-84163883D01*
X150991530Y-84340196D01*
X150954284Y-84430115D01*
X150922737Y-84506277D01*
X150922736Y-84506278D01*
X150822863Y-84655749D01*
X150695749Y-84782863D01*
X150620505Y-84833139D01*
X150546277Y-84882737D01*
X150477484Y-84911232D01*
X150380196Y-84951530D01*
X150292039Y-84969065D01*
X150203885Y-84986600D01*
X150024115Y-84986600D01*
X149935961Y-84969065D01*
X149847804Y-84951530D01*
X149750516Y-84911232D01*
X149681723Y-84882737D01*
X149607495Y-84833139D01*
X149532251Y-84782863D01*
X149405137Y-84655749D01*
X149305264Y-84506278D01*
X149305263Y-84506277D01*
X149273716Y-84430115D01*
X149236470Y-84340196D01*
X149201400Y-84163883D01*
X149201400Y-83984117D01*
X149236470Y-83807804D01*
X149304954Y-83642470D01*
X149305263Y-83641723D01*
X149405136Y-83492253D01*
X149405137Y-83492251D01*
X149532251Y-83365137D01*
X149681722Y-83265264D01*
X149681723Y-83265263D01*
X149769601Y-83228863D01*
X149847804Y-83196470D01*
X149943547Y-83177426D01*
X150024115Y-83161400D01*
X150203885Y-83161400D01*
X150284453Y-83177426D01*
G37*
G36*
X147744453Y-83177426D02*
G01*
X147840196Y-83196470D01*
X147918399Y-83228863D01*
X148006277Y-83265263D01*
X148006278Y-83265264D01*
X148155749Y-83365137D01*
X148282863Y-83492251D01*
X148282864Y-83492253D01*
X148382737Y-83641723D01*
X148383046Y-83642470D01*
X148451530Y-83807804D01*
X148486600Y-83984117D01*
X148486600Y-84163883D01*
X148451530Y-84340196D01*
X148414284Y-84430115D01*
X148382737Y-84506277D01*
X148382736Y-84506278D01*
X148282863Y-84655749D01*
X148155749Y-84782863D01*
X148080505Y-84833139D01*
X148006277Y-84882737D01*
X147937484Y-84911232D01*
X147840196Y-84951530D01*
X147752039Y-84969065D01*
X147663885Y-84986600D01*
X147484115Y-84986600D01*
X147395961Y-84969065D01*
X147307804Y-84951530D01*
X147210516Y-84911232D01*
X147141723Y-84882737D01*
X147067495Y-84833139D01*
X146992251Y-84782863D01*
X146865137Y-84655749D01*
X146765264Y-84506278D01*
X146765263Y-84506277D01*
X146733716Y-84430115D01*
X146696470Y-84340196D01*
X146661400Y-84163883D01*
X146661400Y-83984117D01*
X146696470Y-83807804D01*
X146764954Y-83642470D01*
X146765263Y-83641723D01*
X146865136Y-83492253D01*
X146865137Y-83492251D01*
X146992251Y-83365137D01*
X147141722Y-83265264D01*
X147141723Y-83265263D01*
X147229601Y-83228863D01*
X147307804Y-83196470D01*
X147403547Y-83177426D01*
X147484115Y-83161400D01*
X147663885Y-83161400D01*
X147744453Y-83177426D01*
G37*
G36*
X145204453Y-83177426D02*
G01*
X145300196Y-83196470D01*
X145378399Y-83228863D01*
X145466277Y-83265263D01*
X145466278Y-83265264D01*
X145615749Y-83365137D01*
X145742863Y-83492251D01*
X145742864Y-83492253D01*
X145842737Y-83641723D01*
X145843046Y-83642470D01*
X145911530Y-83807804D01*
X145946600Y-83984117D01*
X145946600Y-84163883D01*
X145911530Y-84340196D01*
X145874284Y-84430115D01*
X145842737Y-84506277D01*
X145842736Y-84506278D01*
X145742863Y-84655749D01*
X145615749Y-84782863D01*
X145540505Y-84833139D01*
X145466277Y-84882737D01*
X145397484Y-84911232D01*
X145300196Y-84951530D01*
X145212039Y-84969065D01*
X145123885Y-84986600D01*
X144944115Y-84986600D01*
X144855961Y-84969065D01*
X144767804Y-84951530D01*
X144670516Y-84911232D01*
X144601723Y-84882737D01*
X144527495Y-84833139D01*
X144452251Y-84782863D01*
X144325137Y-84655749D01*
X144225264Y-84506278D01*
X144225263Y-84506277D01*
X144193716Y-84430115D01*
X144156470Y-84340196D01*
X144121400Y-84163883D01*
X144121400Y-83984117D01*
X144156470Y-83807804D01*
X144224954Y-83642470D01*
X144225263Y-83641723D01*
X144325136Y-83492253D01*
X144325137Y-83492251D01*
X144452251Y-83365137D01*
X144601722Y-83265264D01*
X144601723Y-83265263D01*
X144689601Y-83228863D01*
X144767804Y-83196470D01*
X144863547Y-83177426D01*
X144944115Y-83161400D01*
X145123885Y-83161400D01*
X145204453Y-83177426D01*
G37*
G36*
X155364453Y-83177426D02*
G01*
X155460196Y-83196470D01*
X155538399Y-83228863D01*
X155626277Y-83265263D01*
X155626278Y-83265264D01*
X155775749Y-83365137D01*
X155902863Y-83492251D01*
X155902864Y-83492253D01*
X156002737Y-83641723D01*
X156003046Y-83642470D01*
X156071530Y-83807804D01*
X156106600Y-83984117D01*
X156106600Y-84163883D01*
X156071530Y-84340196D01*
X156034284Y-84430115D01*
X156002737Y-84506277D01*
X156002736Y-84506278D01*
X155902863Y-84655749D01*
X155775749Y-84782863D01*
X155700505Y-84833139D01*
X155626277Y-84882737D01*
X155557484Y-84911232D01*
X155460196Y-84951530D01*
X155372039Y-84969065D01*
X155283885Y-84986600D01*
X155104115Y-84986600D01*
X155015961Y-84969065D01*
X154927804Y-84951530D01*
X154830516Y-84911232D01*
X154761723Y-84882737D01*
X154687495Y-84833139D01*
X154612251Y-84782863D01*
X154485137Y-84655749D01*
X154385264Y-84506278D01*
X154385263Y-84506277D01*
X154353716Y-84430115D01*
X154316470Y-84340196D01*
X154281400Y-84163883D01*
X154281400Y-83984117D01*
X154316470Y-83807804D01*
X154384954Y-83642470D01*
X154385263Y-83641723D01*
X154485136Y-83492253D01*
X154485137Y-83492251D01*
X154612251Y-83365137D01*
X154761722Y-83265264D01*
X154761723Y-83265263D01*
X154849601Y-83228863D01*
X154927804Y-83196470D01*
X155023547Y-83177426D01*
X155104115Y-83161400D01*
X155283885Y-83161400D01*
X155364453Y-83177426D01*
G37*
G36*
X140124453Y-83177426D02*
G01*
X140220196Y-83196470D01*
X140298399Y-83228863D01*
X140386277Y-83265263D01*
X140386278Y-83265264D01*
X140535749Y-83365137D01*
X140662863Y-83492251D01*
X140662864Y-83492253D01*
X140762737Y-83641723D01*
X140763046Y-83642470D01*
X140831530Y-83807804D01*
X140866600Y-83984117D01*
X140866600Y-84163883D01*
X140831530Y-84340196D01*
X140794284Y-84430115D01*
X140762737Y-84506277D01*
X140762736Y-84506278D01*
X140662863Y-84655749D01*
X140535749Y-84782863D01*
X140460505Y-84833139D01*
X140386277Y-84882737D01*
X140317484Y-84911232D01*
X140220196Y-84951530D01*
X140132039Y-84969065D01*
X140043885Y-84986600D01*
X139864115Y-84986600D01*
X139775961Y-84969065D01*
X139687804Y-84951530D01*
X139590516Y-84911232D01*
X139521723Y-84882737D01*
X139447495Y-84833139D01*
X139372251Y-84782863D01*
X139245137Y-84655749D01*
X139145264Y-84506278D01*
X139145263Y-84506277D01*
X139113716Y-84430115D01*
X139076470Y-84340196D01*
X139041400Y-84163883D01*
X139041400Y-83984117D01*
X139076470Y-83807804D01*
X139144954Y-83642470D01*
X139145263Y-83641723D01*
X139245136Y-83492253D01*
X139245137Y-83492251D01*
X139372251Y-83365137D01*
X139521722Y-83265264D01*
X139521723Y-83265263D01*
X139609601Y-83228863D01*
X139687804Y-83196470D01*
X139783547Y-83177426D01*
X139864115Y-83161400D01*
X140043885Y-83161400D01*
X140124453Y-83177426D01*
G37*
G36*
X142664453Y-83177426D02*
G01*
X142760196Y-83196470D01*
X142838399Y-83228863D01*
X142926277Y-83265263D01*
X142926278Y-83265264D01*
X143075749Y-83365137D01*
X143202863Y-83492251D01*
X143202864Y-83492253D01*
X143302737Y-83641723D01*
X143303046Y-83642470D01*
X143371530Y-83807804D01*
X143406600Y-83984117D01*
X143406600Y-84163883D01*
X143371530Y-84340196D01*
X143334284Y-84430115D01*
X143302737Y-84506277D01*
X143302736Y-84506278D01*
X143202863Y-84655749D01*
X143075749Y-84782863D01*
X143000505Y-84833139D01*
X142926277Y-84882737D01*
X142857484Y-84911232D01*
X142760196Y-84951530D01*
X142672039Y-84969065D01*
X142583885Y-84986600D01*
X142404115Y-84986600D01*
X142315961Y-84969065D01*
X142227804Y-84951530D01*
X142130516Y-84911232D01*
X142061723Y-84882737D01*
X141987495Y-84833139D01*
X141912251Y-84782863D01*
X141785137Y-84655749D01*
X141685264Y-84506278D01*
X141685263Y-84506277D01*
X141653716Y-84430115D01*
X141616470Y-84340196D01*
X141581400Y-84163883D01*
X141581400Y-83984117D01*
X141616470Y-83807804D01*
X141684954Y-83642470D01*
X141685263Y-83641723D01*
X141785136Y-83492253D01*
X141785137Y-83492251D01*
X141912251Y-83365137D01*
X142061722Y-83265264D01*
X142061723Y-83265263D01*
X142149601Y-83228863D01*
X142227804Y-83196470D01*
X142323547Y-83177426D01*
X142404115Y-83161400D01*
X142583885Y-83161400D01*
X142664453Y-83177426D01*
G37*
G36*
X175184039Y-82416935D02*
G01*
X175272196Y-82434470D01*
X175369484Y-82474768D01*
X175438277Y-82503263D01*
X175438278Y-82503264D01*
X175587749Y-82603137D01*
X175714863Y-82730251D01*
X175714864Y-82730253D01*
X175814737Y-82879723D01*
X175843232Y-82948516D01*
X175883530Y-83045804D01*
X175883530Y-83045806D01*
X175910948Y-83183644D01*
X175918600Y-83222117D01*
X175918600Y-83401883D01*
X175883530Y-83578196D01*
X175843232Y-83675484D01*
X175814737Y-83744277D01*
X175814736Y-83744278D01*
X175714863Y-83893749D01*
X175587749Y-84020863D01*
X175512505Y-84071139D01*
X175438277Y-84120737D01*
X175369484Y-84149232D01*
X175272196Y-84189530D01*
X175184039Y-84207065D01*
X175095885Y-84224600D01*
X174916115Y-84224600D01*
X174827961Y-84207065D01*
X174739804Y-84189530D01*
X174642516Y-84149232D01*
X174573723Y-84120737D01*
X174499495Y-84071139D01*
X174424251Y-84020863D01*
X174297137Y-83893749D01*
X174197264Y-83744278D01*
X174197263Y-83744277D01*
X174168768Y-83675484D01*
X174128470Y-83578196D01*
X174093400Y-83401883D01*
X174093400Y-83222117D01*
X174101053Y-83183644D01*
X174128470Y-83045806D01*
X174128470Y-83045804D01*
X174168768Y-82948516D01*
X174197263Y-82879723D01*
X174297136Y-82730253D01*
X174297137Y-82730251D01*
X174424251Y-82603137D01*
X174573722Y-82503264D01*
X174573723Y-82503263D01*
X174642516Y-82474768D01*
X174739804Y-82434470D01*
X174827961Y-82416935D01*
X174916115Y-82399400D01*
X175095885Y-82399400D01*
X175184039Y-82416935D01*
G37*
G36*
X178458600Y-84224600D02*
G01*
X176633400Y-84224600D01*
X176633400Y-82399400D01*
X178458600Y-82399400D01*
X178458600Y-84224600D01*
G37*
G36*
X180745039Y-81624935D02*
G01*
X180833196Y-81642470D01*
X180930484Y-81682768D01*
X180999277Y-81711263D01*
X180999278Y-81711264D01*
X181148749Y-81811137D01*
X181193973Y-81856361D01*
X181201544Y-81862574D01*
X181210188Y-81867194D01*
X181219568Y-81870039D01*
X181229322Y-81871000D01*
X183416000Y-81871000D01*
X183416000Y-83169000D01*
X181229322Y-83169000D01*
X181219568Y-83169961D01*
X181210188Y-83172806D01*
X181201544Y-83177426D01*
X181193973Y-83183639D01*
X181148749Y-83228863D01*
X181094272Y-83265263D01*
X180999277Y-83328737D01*
X180930484Y-83357232D01*
X180833196Y-83397530D01*
X180745039Y-83415065D01*
X180656885Y-83432600D01*
X180477115Y-83432600D01*
X180388961Y-83415065D01*
X180300804Y-83397530D01*
X180203516Y-83357232D01*
X180134723Y-83328737D01*
X180039728Y-83265263D01*
X179985251Y-83228863D01*
X179858137Y-83101749D01*
X179758264Y-82952278D01*
X179758263Y-82952277D01*
X179729768Y-82883484D01*
X179689470Y-82786196D01*
X179654400Y-82609883D01*
X179654400Y-82430117D01*
X179689470Y-82253804D01*
X179729768Y-82156516D01*
X179758263Y-82087723D01*
X179858136Y-81938253D01*
X179858137Y-81938251D01*
X179985251Y-81811137D01*
X180134722Y-81711264D01*
X180134723Y-81711263D01*
X180203516Y-81682768D01*
X180300804Y-81642470D01*
X180388960Y-81624935D01*
X180477115Y-81607400D01*
X180656885Y-81607400D01*
X180745039Y-81624935D01*
G37*
G36*
X163645039Y-81624935D02*
G01*
X163733196Y-81642470D01*
X163830484Y-81682768D01*
X163899277Y-81711263D01*
X163899278Y-81711264D01*
X164048749Y-81811137D01*
X164175863Y-81938251D01*
X164175864Y-81938253D01*
X164275737Y-82087723D01*
X164304232Y-82156516D01*
X164344530Y-82253804D01*
X164379600Y-82430117D01*
X164379600Y-82609883D01*
X164344530Y-82786196D01*
X164304232Y-82883484D01*
X164275737Y-82952277D01*
X164275736Y-82952278D01*
X164175863Y-83101749D01*
X164048749Y-83228863D01*
X163994272Y-83265263D01*
X163899277Y-83328737D01*
X163830484Y-83357232D01*
X163733196Y-83397530D01*
X163645039Y-83415065D01*
X163556885Y-83432600D01*
X163377115Y-83432600D01*
X163288961Y-83415065D01*
X163200804Y-83397530D01*
X163103516Y-83357232D01*
X163034723Y-83328737D01*
X162939728Y-83265263D01*
X162885251Y-83228863D01*
X162840027Y-83183639D01*
X162832456Y-83177426D01*
X162823812Y-83172806D01*
X162814432Y-83169961D01*
X162804678Y-83169000D01*
X160618000Y-83169000D01*
X160618000Y-81871000D01*
X162804678Y-81871000D01*
X162814432Y-81870039D01*
X162823812Y-81867194D01*
X162832456Y-81862574D01*
X162840027Y-81856361D01*
X162885251Y-81811137D01*
X163034722Y-81711264D01*
X163034723Y-81711263D01*
X163103516Y-81682768D01*
X163200804Y-81642470D01*
X163288960Y-81624935D01*
X163377115Y-81607400D01*
X163556885Y-81607400D01*
X163645039Y-81624935D01*
G37*
M02*
