M48
INCH,TZ
T1C0.0138
T2C0.0236
T3C0.0300
T4C0.0315
T5C0.0335
T6C0.0394
T7C0.0400
%
G90
G05
T1
X50252Y-33950
X50450Y-45900
X50500Y-34800
X50600Y-53600
X50915Y-34664
X51483Y-38100
X51500Y-37143
X51500Y-42150
X51500Y-44350
X51500Y-46400
X51550Y-35650
X51550Y-51950
X51650Y-32550
X51800Y-43700
X51800Y-44850
X52050Y-35600
X52600Y-33650
X52600Y-37700
X52600Y-41800
X53012Y-40800
X53050Y-43200
X53200Y-50200
X53250Y-39950
X53250Y-42750
X53450Y-37700
X53481Y-53450
X53550Y-39650
X53550Y-43350
X53719Y-44350
X53755Y-51700
X53755Y-53955
X53788Y-40400
X53788Y-41800
X53800Y-36274
X53850Y-39950
X54100Y-49900
X54350Y-36500
X54350Y-37200
X54600Y-38000
X54600Y-50400
X54800Y-34900
X54838Y-36250
X54838Y-46100
X54850Y-42100
X55100Y-41700
X55200Y-42750
X55338Y-40700
X55650Y-33650
X55900Y-40200
X55934Y-38600
X56050Y-37802
X56200Y-45990
X56200Y-47200
X56500Y-41100
X56700Y-34900
X56750Y-36200
X56750Y-38600
X56900Y-47500
X57250Y-36450
X57300Y-53600
X57350Y-40200
X57488Y-38000
X57500Y-40700
X57554Y-36589
X57738Y-43587
X58000Y-44200
X58100Y-36100
X58100Y-40300
X58100Y-41000
X58200Y-47000
X58550Y-42100
X58800Y-35200
X58800Y-52200
X59100Y-38000
X59300Y-45000
X59390Y-36100
X59500Y-38500
X59500Y-43400
X59500Y-47500
X59800Y-45700
X59850Y-45250
X59900Y-36850
X60010Y-38262
X60250Y-38000
X60250Y-39400
X60250Y-45600
X60650Y-36850
X60696Y-46200
X60700Y-39250
X61000Y-46800
X61034Y-36600
X61150Y-35650
X61300Y-38000
X61300Y-38500
X61400Y-36850
X61500Y-35200
X61550Y-37650
X61600Y-36350
X61600Y-49400
X61700Y-38900
X61750Y-37213
X62350Y-45600
X62400Y-40100
X62800Y-43016
X62800Y-44300
X63000Y-49100
X63026Y-36900
X63038Y-43400
X63600Y-40350
X63700Y-44300
X63700Y-47500
X63700Y-49800
X63700Y-53700
X64400Y-41900
X64900Y-42200
X65300Y-47500
X65350Y-42750
X65500Y-35800
X65500Y-40700
X66050Y-40350
X66300Y-33400
X66300Y-39193
X66300Y-39800
X66300Y-45550
X66300Y-52950
X66550Y-32322
X66700Y-36850
X66700Y-51598
X66700Y-53500
X67550Y-44950
X67700Y-38000
X67700Y-38800
X67800Y-49550
X67850Y-46500
X67950Y-36350
X67950Y-50000
X68200Y-40650
X68350Y-41500
X68350Y-48250
X68500Y-40350
X68650Y-49550
X68750Y-36900
X68950Y-45350
X69050Y-51050
X69050Y-52050
X69400Y-37200
X69450Y-48550
X69550Y-40400
X69850Y-41900
X69987Y-46050
X70115Y-43200
X70200Y-47750
X70250Y-50000
X70350Y-51050
X70350Y-53000
X71500Y-42100
X71500Y-45750
X72000Y-38500
X72150Y-40750
T3
X60236Y-43236
X61236Y-42236
X62236Y-43236
T4
X69100Y-42600
X69100Y-43781
X64357Y-32488
X64357Y-33276
X64357Y-34063
X64357Y-34850
X64357Y-35638
X64357Y-36425
X64357Y-37213
X64357Y-38000
X71089Y-32488
X71089Y-33276
X71089Y-34063
X71089Y-34850
X71089Y-35638
X71089Y-36425
X71089Y-37213
X71089Y-38000
T5
X70824Y-48516
X70824Y-50484
T6
X71650Y-52200
X71650Y-53200
X55900Y-41100
X55900Y-42100
X55900Y-43100
X55900Y-44100
X50800Y-39100
X50800Y-40100
X50800Y-41100
X50800Y-42100
X50800Y-43100
X50800Y-44100
X62350Y-33250
X70700Y-39300
X70700Y-40300
X70700Y-41300
X71700Y-39300
X71700Y-40300
X71700Y-41300
T7
X68900Y-32800
X68900Y-33800
X68900Y-34800
X68900Y-35800
X69900Y-32800
X69900Y-33800
X69900Y-34800
X69900Y-35800
X51100Y-33100
X51100Y-34100
X52100Y-33100
X52100Y-34100
X53100Y-33100
X53100Y-34100
X54100Y-33100
X54100Y-34100
X55100Y-33100
X55100Y-34100
X56100Y-33100
X56100Y-34100
X57100Y-33100
X57100Y-34100
X58100Y-33100
X58100Y-34100
X59100Y-33100
X59100Y-34100
X60100Y-33100
X60100Y-34100
X61100Y-33100
X61100Y-34100
T2
G00X71749Y-48122
M15
G01X72025Y-48122
M16
G05
G00X72025Y-50878
M15
G01X71749Y-50878
M16
G05
T3
G00X50899Y-47780
M15
G01X50899Y-46820
M16
G05
G00X69600Y-47780
M15
G01X69600Y-46820
M16
G05
G00X50900Y-51620
M15
G01X50900Y-52580
M16
G05
G00X69601Y-51620
M15
G01X69601Y-52580
M16
G05
T0
M30
