G04 #@! TF.GenerationSoftware,KiCad,Pcbnew,5.1.6-c6e7f7d~87~ubuntu18.04.1*
G04 #@! TF.CreationDate,2020-07-15T21:48:52+02:00*
G04 #@! TF.ProjectId,BT-Pcb-328P,42542d50-6362-42d3-9332-38502e6b6963,3.0*
G04 #@! TF.SameCoordinates,Original*
G04 #@! TF.FileFunction,Soldermask,Bot*
G04 #@! TF.FilePolarity,Negative*
%FSLAX46Y46*%
G04 Gerber Fmt 4.6, Leading zero omitted, Abs format (unit mm)*
G04 Created by KiCad (PCBNEW 5.1.6-c6e7f7d~87~ubuntu18.04.1) date 2020-07-15 21:48:52*
%MOMM*%
%LPD*%
G01*
G04 APERTURE LIST*
G04 #@! TA.AperFunction,Profile*
%ADD10C,0.150000*%
G04 #@! TD*
%ADD11C,0.100000*%
G04 APERTURE END LIST*
D10*
X184040000Y-138320000D02*
X184040000Y-81320000D01*
X127040000Y-138320000D02*
X127040000Y-81320000D01*
X127040000Y-138320000D02*
X184040000Y-138320000D01*
X127040000Y-81320000D02*
X184040000Y-81320000D01*
D11*
G36*
X182890000Y-136027000D02*
G01*
X181092000Y-136027000D01*
X181092000Y-134229000D01*
X182890000Y-134229000D01*
X182890000Y-136027000D01*
G37*
G36*
X129444982Y-130315734D02*
G01*
X129521420Y-130338921D01*
X129597857Y-130362108D01*
X129738747Y-130437415D01*
X129862238Y-130538762D01*
X129963585Y-130662252D01*
X130038892Y-130803142D01*
X130038892Y-130803143D01*
X130085266Y-130956017D01*
X130097000Y-131075156D01*
X130097000Y-133592844D01*
X130085266Y-133711983D01*
X130062078Y-133788421D01*
X130038892Y-133864858D01*
X129963585Y-134005748D01*
X129862238Y-134129238D01*
X129738748Y-134230585D01*
X129597858Y-134305892D01*
X129521421Y-134329079D01*
X129444983Y-134352266D01*
X129286000Y-134367924D01*
X129127018Y-134352266D01*
X129050580Y-134329079D01*
X128974143Y-134305892D01*
X128833253Y-134230585D01*
X128709763Y-134129238D01*
X128608416Y-134005748D01*
X128533109Y-133864858D01*
X128509923Y-133788421D01*
X128486735Y-133711983D01*
X128475001Y-133592844D01*
X128475000Y-131075157D01*
X128486734Y-130956018D01*
X128509921Y-130879580D01*
X128533108Y-130803143D01*
X128608415Y-130662253D01*
X128709762Y-130538762D01*
X128833252Y-130437415D01*
X128974142Y-130362108D01*
X129050579Y-130338922D01*
X129127017Y-130315734D01*
X129286000Y-130300076D01*
X129444982Y-130315734D01*
G37*
G36*
X176944982Y-130315734D02*
G01*
X177021420Y-130338921D01*
X177097857Y-130362108D01*
X177238747Y-130437415D01*
X177362238Y-130538762D01*
X177463585Y-130662252D01*
X177538892Y-130803142D01*
X177538892Y-130803143D01*
X177585266Y-130956017D01*
X177597000Y-131075156D01*
X177597000Y-133592844D01*
X177585266Y-133711983D01*
X177562078Y-133788421D01*
X177538892Y-133864858D01*
X177463585Y-134005748D01*
X177362238Y-134129238D01*
X177238748Y-134230585D01*
X177097858Y-134305892D01*
X177021421Y-134329079D01*
X176944983Y-134352266D01*
X176786000Y-134367924D01*
X176627018Y-134352266D01*
X176550580Y-134329079D01*
X176474143Y-134305892D01*
X176333253Y-134230585D01*
X176209763Y-134129238D01*
X176108416Y-134005748D01*
X176033109Y-133864858D01*
X176009923Y-133788421D01*
X175986735Y-133711983D01*
X175975001Y-133592844D01*
X175975000Y-131075157D01*
X175986734Y-130956018D01*
X176009921Y-130879580D01*
X176033108Y-130803143D01*
X176108415Y-130662253D01*
X176209762Y-130538762D01*
X176333252Y-130437415D01*
X176474142Y-130362108D01*
X176550579Y-130338922D01*
X176627017Y-130315734D01*
X176786000Y-130300076D01*
X176944982Y-130315734D01*
G37*
G36*
X182253227Y-131723547D02*
G01*
X182253230Y-131723548D01*
X182253229Y-131723548D01*
X182416836Y-131791316D01*
X182564079Y-131889701D01*
X182689299Y-132014921D01*
X182787684Y-132162164D01*
X182787684Y-132162165D01*
X182855453Y-132325773D01*
X182890000Y-132499455D01*
X182890000Y-132676545D01*
X182855453Y-132850227D01*
X182855452Y-132850229D01*
X182787684Y-133013836D01*
X182689299Y-133161079D01*
X182564079Y-133286299D01*
X182416836Y-133384684D01*
X182301147Y-133432604D01*
X182253227Y-133452453D01*
X182079545Y-133487000D01*
X181902455Y-133487000D01*
X181728773Y-133452453D01*
X181680853Y-133432604D01*
X181565164Y-133384684D01*
X181417921Y-133286299D01*
X181292701Y-133161079D01*
X181194316Y-133013836D01*
X181126548Y-132850229D01*
X181126547Y-132850227D01*
X181092000Y-132676545D01*
X181092000Y-132499455D01*
X181126547Y-132325773D01*
X181194316Y-132162165D01*
X181194316Y-132162164D01*
X181292701Y-132014921D01*
X181417921Y-131889701D01*
X181565164Y-131791316D01*
X181728771Y-131723548D01*
X181728770Y-131723548D01*
X181728773Y-131723547D01*
X181902455Y-131689000D01*
X182079545Y-131689000D01*
X182253227Y-131723547D01*
G37*
G36*
X183070726Y-128590390D02*
G01*
X183158530Y-128617026D01*
X183193063Y-128627501D01*
X183305810Y-128687765D01*
X183404633Y-128768867D01*
X183485735Y-128867690D01*
X183511509Y-128915910D01*
X183545998Y-128980435D01*
X183583110Y-129102774D01*
X183595640Y-129230000D01*
X183583110Y-129357226D01*
X183556474Y-129445030D01*
X183545999Y-129479563D01*
X183485735Y-129592310D01*
X183404633Y-129691133D01*
X183305810Y-129772235D01*
X183193063Y-129832499D01*
X183158530Y-129842974D01*
X183070726Y-129869610D01*
X182975384Y-129879000D01*
X182211616Y-129879000D01*
X182116274Y-129869610D01*
X182028470Y-129842974D01*
X181993937Y-129832499D01*
X181881190Y-129772235D01*
X181782367Y-129691133D01*
X181701265Y-129592310D01*
X181641001Y-129479563D01*
X181630526Y-129445030D01*
X181603890Y-129357226D01*
X181591360Y-129230000D01*
X181603890Y-129102774D01*
X181641002Y-128980435D01*
X181675491Y-128915910D01*
X181701265Y-128867690D01*
X181782367Y-128768867D01*
X181881190Y-128687765D01*
X181993937Y-128627501D01*
X182028470Y-128617026D01*
X182116274Y-128590390D01*
X182211616Y-128581000D01*
X182975384Y-128581000D01*
X183070726Y-128590390D01*
G37*
G36*
X142179000Y-129642000D02*
G01*
X139541000Y-129642000D01*
X139541000Y-126034000D01*
X142179000Y-126034000D01*
X142179000Y-129642000D01*
G37*
G36*
X171539000Y-129642000D02*
G01*
X168901000Y-129642000D01*
X168901000Y-126034000D01*
X171539000Y-126034000D01*
X171539000Y-129642000D01*
G37*
G36*
X180069422Y-127475829D02*
G01*
X180119267Y-127485744D01*
X180260126Y-127544090D01*
X180386896Y-127628795D01*
X180494705Y-127736604D01*
X180579410Y-127863374D01*
X180637756Y-128004233D01*
X180667500Y-128153768D01*
X180667500Y-128306232D01*
X180637756Y-128455767D01*
X180579410Y-128596626D01*
X180494705Y-128723396D01*
X180386896Y-128831205D01*
X180260126Y-128915910D01*
X180119267Y-128974256D01*
X180069422Y-128984171D01*
X179969734Y-129004000D01*
X179817266Y-129004000D01*
X179717578Y-128984171D01*
X179667733Y-128974256D01*
X179526874Y-128915910D01*
X179400104Y-128831205D01*
X179292295Y-128723396D01*
X179207590Y-128596626D01*
X179149244Y-128455767D01*
X179119500Y-128306232D01*
X179119500Y-128153768D01*
X179149244Y-128004233D01*
X179207590Y-127863374D01*
X179292295Y-127736604D01*
X179400104Y-127628795D01*
X179526874Y-127544090D01*
X179667733Y-127485744D01*
X179717578Y-127475829D01*
X179817266Y-127456000D01*
X179969734Y-127456000D01*
X180069422Y-127475829D01*
G37*
G36*
X180069422Y-122475829D02*
G01*
X180119267Y-122485744D01*
X180260126Y-122544090D01*
X180386896Y-122628795D01*
X180494705Y-122736604D01*
X180579410Y-122863374D01*
X180637756Y-123004233D01*
X180667500Y-123153768D01*
X180667500Y-123306232D01*
X180637756Y-123455767D01*
X180579410Y-123596626D01*
X180494705Y-123723396D01*
X180386896Y-123831205D01*
X180260126Y-123915910D01*
X180119267Y-123974256D01*
X180069422Y-123984171D01*
X179969734Y-124004000D01*
X179817266Y-124004000D01*
X179717578Y-123984171D01*
X179667733Y-123974256D01*
X179526874Y-123915910D01*
X179400104Y-123831205D01*
X179292295Y-123723396D01*
X179207590Y-123596626D01*
X179149244Y-123455767D01*
X179119500Y-123306232D01*
X179119500Y-123153768D01*
X179149244Y-123004233D01*
X179207590Y-122863374D01*
X179292295Y-122736604D01*
X179400104Y-122628795D01*
X179526874Y-122544090D01*
X179667733Y-122485744D01*
X179717578Y-122475829D01*
X179817266Y-122456000D01*
X179969734Y-122456000D01*
X180069422Y-122475829D01*
G37*
G36*
X183070726Y-121590390D02*
G01*
X183158530Y-121617026D01*
X183193063Y-121627501D01*
X183305810Y-121687765D01*
X183404633Y-121768867D01*
X183485735Y-121867690D01*
X183522909Y-121937238D01*
X183545998Y-121980435D01*
X183583110Y-122102774D01*
X183595640Y-122230000D01*
X183583110Y-122357226D01*
X183556474Y-122445030D01*
X183545999Y-122479563D01*
X183485735Y-122592310D01*
X183404633Y-122691133D01*
X183305810Y-122772235D01*
X183193063Y-122832499D01*
X183158530Y-122842974D01*
X183070726Y-122869610D01*
X182975384Y-122879000D01*
X182211616Y-122879000D01*
X182116274Y-122869610D01*
X182028470Y-122842974D01*
X181993937Y-122832499D01*
X181881190Y-122772235D01*
X181782367Y-122691133D01*
X181701265Y-122592310D01*
X181641001Y-122479563D01*
X181630526Y-122445030D01*
X181603890Y-122357226D01*
X181591360Y-122230000D01*
X181603890Y-122102774D01*
X181641002Y-121980435D01*
X181664091Y-121937238D01*
X181701265Y-121867690D01*
X181782367Y-121768867D01*
X181881190Y-121687765D01*
X181993937Y-121627501D01*
X182028470Y-121617026D01*
X182116274Y-121590390D01*
X182211616Y-121581000D01*
X182975384Y-121581000D01*
X183070726Y-121590390D01*
G37*
G36*
X176942983Y-118123734D02*
G01*
X177019421Y-118146921D01*
X177095858Y-118170108D01*
X177236748Y-118245415D01*
X177360238Y-118346762D01*
X177461585Y-118470252D01*
X177536892Y-118611142D01*
X177560079Y-118687579D01*
X177583266Y-118764017D01*
X177595000Y-118883156D01*
X177595000Y-121400844D01*
X177583266Y-121519983D01*
X177564756Y-121581000D01*
X177536892Y-121672858D01*
X177461585Y-121813748D01*
X177360238Y-121937238D01*
X177236747Y-122038585D01*
X177095857Y-122113892D01*
X177019420Y-122137079D01*
X176942982Y-122160266D01*
X176784000Y-122175924D01*
X176625017Y-122160266D01*
X176548579Y-122137078D01*
X176472142Y-122113892D01*
X176331252Y-122038585D01*
X176207762Y-121937238D01*
X176106415Y-121813747D01*
X176031108Y-121672857D01*
X175984735Y-121519984D01*
X175984734Y-121519982D01*
X175973000Y-121400843D01*
X175973001Y-118883156D01*
X175984735Y-118764017D01*
X176007922Y-118687579D01*
X176031109Y-118611142D01*
X176106416Y-118470252D01*
X176207763Y-118346762D01*
X176331253Y-118245415D01*
X176472143Y-118170108D01*
X176548580Y-118146921D01*
X176625018Y-118123734D01*
X176784000Y-118108076D01*
X176942983Y-118123734D01*
G37*
G36*
X129442983Y-118123734D02*
G01*
X129519421Y-118146921D01*
X129595858Y-118170108D01*
X129736748Y-118245415D01*
X129860238Y-118346762D01*
X129961585Y-118470252D01*
X130036892Y-118611142D01*
X130060079Y-118687579D01*
X130083266Y-118764017D01*
X130095000Y-118883156D01*
X130095000Y-121400844D01*
X130083266Y-121519983D01*
X130064756Y-121581000D01*
X130036892Y-121672858D01*
X129961585Y-121813748D01*
X129860238Y-121937238D01*
X129736747Y-122038585D01*
X129595857Y-122113892D01*
X129519420Y-122137078D01*
X129442982Y-122160266D01*
X129284000Y-122175924D01*
X129125017Y-122160266D01*
X129048579Y-122137078D01*
X128972142Y-122113892D01*
X128831252Y-122038585D01*
X128707762Y-121937238D01*
X128606415Y-121813747D01*
X128531108Y-121672857D01*
X128484735Y-121519984D01*
X128484734Y-121519982D01*
X128473000Y-121400843D01*
X128473001Y-118883156D01*
X128484735Y-118764017D01*
X128507922Y-118687579D01*
X128531109Y-118611142D01*
X128606416Y-118470252D01*
X128707763Y-118346762D01*
X128831253Y-118245415D01*
X128972143Y-118170108D01*
X129048580Y-118146921D01*
X129125018Y-118123734D01*
X129284000Y-118108076D01*
X129442983Y-118123734D01*
G37*
G36*
X146920150Y-119931235D02*
G01*
X147023060Y-119951705D01*
X147168468Y-120011935D01*
X147299333Y-120099376D01*
X147410624Y-120210667D01*
X147498065Y-120341532D01*
X147558295Y-120486940D01*
X147589000Y-120641305D01*
X147589000Y-120798695D01*
X147558295Y-120953060D01*
X147498065Y-121098468D01*
X147410624Y-121229333D01*
X147299333Y-121340624D01*
X147168468Y-121428065D01*
X147023060Y-121488295D01*
X146920150Y-121508765D01*
X146868696Y-121519000D01*
X146711304Y-121519000D01*
X146659850Y-121508765D01*
X146556940Y-121488295D01*
X146411532Y-121428065D01*
X146280667Y-121340624D01*
X146169376Y-121229333D01*
X146081935Y-121098468D01*
X146021705Y-120953060D01*
X145991000Y-120798695D01*
X145991000Y-120641305D01*
X146021705Y-120486940D01*
X146081935Y-120341532D01*
X146169376Y-120210667D01*
X146280667Y-120099376D01*
X146411532Y-120011935D01*
X146556940Y-119951705D01*
X146659850Y-119931235D01*
X146711304Y-119921000D01*
X146868696Y-119921000D01*
X146920150Y-119931235D01*
G37*
G36*
X164420150Y-119931235D02*
G01*
X164523060Y-119951705D01*
X164668468Y-120011935D01*
X164799333Y-120099376D01*
X164910624Y-120210667D01*
X164998065Y-120341532D01*
X165058295Y-120486940D01*
X165089000Y-120641305D01*
X165089000Y-120798695D01*
X165058295Y-120953060D01*
X164998065Y-121098468D01*
X164910624Y-121229333D01*
X164799333Y-121340624D01*
X164668468Y-121428065D01*
X164523060Y-121488295D01*
X164420150Y-121508765D01*
X164368696Y-121519000D01*
X164211304Y-121519000D01*
X164159850Y-121508765D01*
X164056940Y-121488295D01*
X163911532Y-121428065D01*
X163780667Y-121340624D01*
X163669376Y-121229333D01*
X163581935Y-121098468D01*
X163521705Y-120953060D01*
X163491000Y-120798695D01*
X163491000Y-120641305D01*
X163521705Y-120486940D01*
X163581935Y-120341532D01*
X163669376Y-120210667D01*
X163780667Y-120099376D01*
X163911532Y-120011935D01*
X164056940Y-119951705D01*
X164159850Y-119931235D01*
X164211304Y-119921000D01*
X164368696Y-119921000D01*
X164420150Y-119931235D01*
G37*
G36*
X144770150Y-117781235D02*
G01*
X144873060Y-117801705D01*
X145018468Y-117861935D01*
X145149333Y-117949376D01*
X145260624Y-118060667D01*
X145348065Y-118191532D01*
X145408295Y-118336940D01*
X145439000Y-118491305D01*
X145439000Y-118648695D01*
X145408295Y-118803060D01*
X145348065Y-118948468D01*
X145260624Y-119079333D01*
X145149333Y-119190624D01*
X145018468Y-119278065D01*
X144873060Y-119338295D01*
X144770150Y-119358765D01*
X144718696Y-119369000D01*
X144561304Y-119369000D01*
X144509850Y-119358765D01*
X144406940Y-119338295D01*
X144261532Y-119278065D01*
X144130667Y-119190624D01*
X144019376Y-119079333D01*
X143931935Y-118948468D01*
X143871705Y-118803060D01*
X143841000Y-118648695D01*
X143841000Y-118491305D01*
X143871705Y-118336940D01*
X143931935Y-118191532D01*
X144019376Y-118060667D01*
X144130667Y-117949376D01*
X144261532Y-117861935D01*
X144406940Y-117801705D01*
X144509850Y-117781235D01*
X144561304Y-117771000D01*
X144718696Y-117771000D01*
X144770150Y-117781235D01*
G37*
G36*
X166570150Y-117781235D02*
G01*
X166673060Y-117801705D01*
X166818468Y-117861935D01*
X166949333Y-117949376D01*
X167060624Y-118060667D01*
X167148065Y-118191532D01*
X167208295Y-118336940D01*
X167239000Y-118491305D01*
X167239000Y-118648695D01*
X167208295Y-118803060D01*
X167148065Y-118948468D01*
X167060624Y-119079333D01*
X166949333Y-119190624D01*
X166818468Y-119278065D01*
X166673060Y-119338295D01*
X166570150Y-119358765D01*
X166518696Y-119369000D01*
X166361304Y-119369000D01*
X166309850Y-119358765D01*
X166206940Y-119338295D01*
X166061532Y-119278065D01*
X165930667Y-119190624D01*
X165819376Y-119079333D01*
X165731935Y-118948468D01*
X165671705Y-118803060D01*
X165641000Y-118648695D01*
X165641000Y-118491305D01*
X165671705Y-118336940D01*
X165731935Y-118191532D01*
X165819376Y-118060667D01*
X165930667Y-117949376D01*
X166061532Y-117861935D01*
X166206940Y-117801705D01*
X166309850Y-117781235D01*
X166361304Y-117771000D01*
X166518696Y-117771000D01*
X166570150Y-117781235D01*
G37*
G36*
X142885000Y-112913000D02*
G01*
X141087000Y-112913000D01*
X141087000Y-111115000D01*
X142885000Y-111115000D01*
X142885000Y-112913000D01*
G37*
G36*
X129931000Y-112913000D02*
G01*
X128133000Y-112913000D01*
X128133000Y-111115000D01*
X129931000Y-111115000D01*
X129931000Y-112913000D01*
G37*
G36*
X175761642Y-110387626D02*
G01*
X175916151Y-110451625D01*
X176055205Y-110544538D01*
X176173462Y-110662795D01*
X176266375Y-110801849D01*
X176330374Y-110956358D01*
X176363000Y-111120379D01*
X176363000Y-111287621D01*
X176330374Y-111451642D01*
X176266375Y-111606151D01*
X176173462Y-111745205D01*
X176055205Y-111863462D01*
X175916151Y-111956375D01*
X175761642Y-112020374D01*
X175597621Y-112053000D01*
X175430379Y-112053000D01*
X175266358Y-112020374D01*
X175111849Y-111956375D01*
X174972795Y-111863462D01*
X174854538Y-111745205D01*
X174761625Y-111606151D01*
X174697626Y-111451642D01*
X174665000Y-111287621D01*
X174665000Y-111120379D01*
X174697626Y-110956358D01*
X174761625Y-110801849D01*
X174854538Y-110662795D01*
X174972795Y-110544538D01*
X175111849Y-110451625D01*
X175266358Y-110387626D01*
X175430379Y-110355000D01*
X175597621Y-110355000D01*
X175761642Y-110387626D01*
G37*
G36*
X181256071Y-108474762D02*
G01*
X181256074Y-108474763D01*
X181256073Y-108474763D01*
X181510675Y-108580222D01*
X181739810Y-108733326D01*
X181934674Y-108928190D01*
X182087778Y-109157325D01*
X182154717Y-109318932D01*
X182193238Y-109411929D01*
X182247000Y-109682209D01*
X182247000Y-109957791D01*
X182193238Y-110228071D01*
X182193237Y-110228073D01*
X182087778Y-110482675D01*
X181934674Y-110711810D01*
X181739810Y-110906674D01*
X181510675Y-111059778D01*
X181299755Y-111147143D01*
X181256071Y-111165238D01*
X180985791Y-111219000D01*
X180710209Y-111219000D01*
X180439929Y-111165238D01*
X180396245Y-111147143D01*
X180185325Y-111059778D01*
X179956190Y-110906674D01*
X179761326Y-110711810D01*
X179608222Y-110482675D01*
X179502763Y-110228073D01*
X179502762Y-110228071D01*
X179449000Y-109957791D01*
X179449000Y-109682209D01*
X179502762Y-109411929D01*
X179541283Y-109318932D01*
X179608222Y-109157325D01*
X179761326Y-108928190D01*
X179956190Y-108733326D01*
X180185325Y-108580222D01*
X180439927Y-108474763D01*
X180439926Y-108474763D01*
X180439929Y-108474762D01*
X180710209Y-108421000D01*
X180985791Y-108421000D01*
X181256071Y-108474762D01*
G37*
G36*
X172815068Y-109137674D02*
G01*
X172858347Y-109150803D01*
X172898228Y-109172120D01*
X172933188Y-109200812D01*
X172961880Y-109235772D01*
X172983197Y-109275653D01*
X172996326Y-109318932D01*
X173001000Y-109366392D01*
X173001000Y-110597608D01*
X172996326Y-110645068D01*
X172983197Y-110688347D01*
X172961880Y-110728228D01*
X172933188Y-110763188D01*
X172898228Y-110791880D01*
X172858347Y-110813197D01*
X172815068Y-110826326D01*
X172767608Y-110831000D01*
X169636392Y-110831000D01*
X169588932Y-110826326D01*
X169545653Y-110813197D01*
X169505772Y-110791880D01*
X169470812Y-110763188D01*
X169442120Y-110728228D01*
X169420803Y-110688347D01*
X169407674Y-110645068D01*
X169403000Y-110597608D01*
X169403000Y-109366392D01*
X169407674Y-109318932D01*
X169420803Y-109275653D01*
X169442120Y-109235772D01*
X169470812Y-109200812D01*
X169505772Y-109172120D01*
X169545653Y-109150803D01*
X169588932Y-109137674D01*
X169636392Y-109133000D01*
X172767608Y-109133000D01*
X172815068Y-109137674D01*
G37*
G36*
X167215068Y-109137674D02*
G01*
X167258347Y-109150803D01*
X167298228Y-109172120D01*
X167333188Y-109200812D01*
X167361880Y-109235772D01*
X167383197Y-109275653D01*
X167396326Y-109318932D01*
X167401000Y-109366392D01*
X167401000Y-110597608D01*
X167396326Y-110645068D01*
X167383197Y-110688347D01*
X167361880Y-110728228D01*
X167333188Y-110763188D01*
X167298228Y-110791880D01*
X167258347Y-110813197D01*
X167215068Y-110826326D01*
X167167608Y-110831000D01*
X164036392Y-110831000D01*
X163988932Y-110826326D01*
X163945653Y-110813197D01*
X163905772Y-110791880D01*
X163870812Y-110763188D01*
X163842120Y-110728228D01*
X163820803Y-110688347D01*
X163807674Y-110645068D01*
X163803000Y-110597608D01*
X163803000Y-109366392D01*
X163807674Y-109318932D01*
X163820803Y-109275653D01*
X163842120Y-109235772D01*
X163870812Y-109200812D01*
X163905772Y-109172120D01*
X163945653Y-109150803D01*
X163988932Y-109137674D01*
X164036392Y-109133000D01*
X167167608Y-109133000D01*
X167215068Y-109137674D01*
G37*
G36*
X158212105Y-109019389D02*
G01*
X158316560Y-109040166D01*
X158464153Y-109101301D01*
X158596982Y-109190055D01*
X158709945Y-109303018D01*
X158798699Y-109435847D01*
X158859834Y-109583440D01*
X158859834Y-109583442D01*
X158890226Y-109736229D01*
X158891000Y-109740123D01*
X158891000Y-109899877D01*
X158859834Y-110056560D01*
X158798699Y-110204153D01*
X158709945Y-110336982D01*
X158596982Y-110449945D01*
X158464153Y-110538699D01*
X158316560Y-110599834D01*
X158228008Y-110617448D01*
X158159878Y-110631000D01*
X158000122Y-110631000D01*
X157931992Y-110617448D01*
X157843440Y-110599834D01*
X157695847Y-110538699D01*
X157563018Y-110449945D01*
X157450055Y-110336982D01*
X157361301Y-110204153D01*
X157300166Y-110056560D01*
X157269000Y-109899877D01*
X157269000Y-109740123D01*
X157269775Y-109736229D01*
X157300166Y-109583442D01*
X157300166Y-109583440D01*
X157361301Y-109435847D01*
X157450055Y-109303018D01*
X157563018Y-109190055D01*
X157695847Y-109101301D01*
X157843440Y-109040166D01*
X157947895Y-109019389D01*
X158000122Y-109009000D01*
X158159878Y-109009000D01*
X158212105Y-109019389D01*
G37*
G36*
X153132105Y-109019389D02*
G01*
X153236560Y-109040166D01*
X153384153Y-109101301D01*
X153516982Y-109190055D01*
X153629945Y-109303018D01*
X153718699Y-109435847D01*
X153779834Y-109583440D01*
X153779834Y-109583442D01*
X153810226Y-109736229D01*
X153811000Y-109740123D01*
X153811000Y-109899877D01*
X153779834Y-110056560D01*
X153718699Y-110204153D01*
X153629945Y-110336982D01*
X153516982Y-110449945D01*
X153384153Y-110538699D01*
X153236560Y-110599834D01*
X153148008Y-110617448D01*
X153079878Y-110631000D01*
X152920122Y-110631000D01*
X152851992Y-110617448D01*
X152763440Y-110599834D01*
X152615847Y-110538699D01*
X152483018Y-110449945D01*
X152370055Y-110336982D01*
X152281301Y-110204153D01*
X152220166Y-110056560D01*
X152189000Y-109899877D01*
X152189000Y-109740123D01*
X152189775Y-109736229D01*
X152220166Y-109583442D01*
X152220166Y-109583440D01*
X152281301Y-109435847D01*
X152370055Y-109303018D01*
X152483018Y-109190055D01*
X152615847Y-109101301D01*
X152763440Y-109040166D01*
X152867895Y-109019389D01*
X152920122Y-109009000D01*
X153079878Y-109009000D01*
X153132105Y-109019389D01*
G37*
G36*
X129294227Y-108609547D02*
G01*
X129294230Y-108609548D01*
X129294229Y-108609548D01*
X129457836Y-108677316D01*
X129605079Y-108775701D01*
X129730299Y-108900921D01*
X129828684Y-109048164D01*
X129873900Y-109157325D01*
X129896453Y-109211773D01*
X129931000Y-109385455D01*
X129931000Y-109562545D01*
X129896453Y-109736227D01*
X129894839Y-109740123D01*
X129828684Y-109899836D01*
X129730299Y-110047079D01*
X129605079Y-110172299D01*
X129457836Y-110270684D01*
X129342147Y-110318604D01*
X129294227Y-110338453D01*
X129120545Y-110373000D01*
X128943455Y-110373000D01*
X128769773Y-110338453D01*
X128721853Y-110318604D01*
X128606164Y-110270684D01*
X128458921Y-110172299D01*
X128333701Y-110047079D01*
X128235316Y-109899836D01*
X128169161Y-109740123D01*
X128167547Y-109736227D01*
X128133000Y-109562545D01*
X128133000Y-109385455D01*
X128167547Y-109211773D01*
X128190100Y-109157325D01*
X128235316Y-109048164D01*
X128333701Y-108900921D01*
X128458921Y-108775701D01*
X128606164Y-108677316D01*
X128769771Y-108609548D01*
X128769770Y-108609548D01*
X128769773Y-108609547D01*
X128943455Y-108575000D01*
X129120545Y-108575000D01*
X129294227Y-108609547D01*
G37*
G36*
X142248227Y-108609547D02*
G01*
X142248230Y-108609548D01*
X142248229Y-108609548D01*
X142411836Y-108677316D01*
X142559079Y-108775701D01*
X142684299Y-108900921D01*
X142782684Y-109048164D01*
X142827900Y-109157325D01*
X142850453Y-109211773D01*
X142885000Y-109385455D01*
X142885000Y-109562545D01*
X142850453Y-109736227D01*
X142848839Y-109740123D01*
X142782684Y-109899836D01*
X142684299Y-110047079D01*
X142559079Y-110172299D01*
X142411836Y-110270684D01*
X142296147Y-110318604D01*
X142248227Y-110338453D01*
X142074545Y-110373000D01*
X141897455Y-110373000D01*
X141723773Y-110338453D01*
X141675853Y-110318604D01*
X141560164Y-110270684D01*
X141412921Y-110172299D01*
X141287701Y-110047079D01*
X141189316Y-109899836D01*
X141123161Y-109740123D01*
X141121547Y-109736227D01*
X141087000Y-109562545D01*
X141087000Y-109385455D01*
X141121547Y-109211773D01*
X141144100Y-109157325D01*
X141189316Y-109048164D01*
X141287701Y-108900921D01*
X141412921Y-108775701D01*
X141560164Y-108677316D01*
X141723771Y-108609548D01*
X141723770Y-108609548D01*
X141723773Y-108609547D01*
X141897455Y-108575000D01*
X142074545Y-108575000D01*
X142248227Y-108609547D01*
G37*
G36*
X175761642Y-107387626D02*
G01*
X175916151Y-107451625D01*
X176055205Y-107544538D01*
X176173462Y-107662795D01*
X176266375Y-107801849D01*
X176330374Y-107956358D01*
X176363000Y-108120379D01*
X176363000Y-108287621D01*
X176330374Y-108451642D01*
X176266375Y-108606151D01*
X176173462Y-108745205D01*
X176055205Y-108863462D01*
X175916151Y-108956375D01*
X175761642Y-109020374D01*
X175597621Y-109053000D01*
X175430379Y-109053000D01*
X175266358Y-109020374D01*
X175111849Y-108956375D01*
X174972795Y-108863462D01*
X174854538Y-108745205D01*
X174761625Y-108606151D01*
X174697626Y-108451642D01*
X174665000Y-108287621D01*
X174665000Y-108120379D01*
X174697626Y-107956358D01*
X174761625Y-107801849D01*
X174854538Y-107662795D01*
X174972795Y-107544538D01*
X175111849Y-107451625D01*
X175266358Y-107387626D01*
X175430379Y-107355000D01*
X175597621Y-107355000D01*
X175761642Y-107387626D01*
G37*
G36*
X155672105Y-106479389D02*
G01*
X155776560Y-106500166D01*
X155924153Y-106561301D01*
X156056982Y-106650055D01*
X156169945Y-106763018D01*
X156258699Y-106895847D01*
X156319834Y-107043440D01*
X156319834Y-107043442D01*
X156351000Y-107200122D01*
X156351000Y-107359878D01*
X156345480Y-107387627D01*
X156319834Y-107516560D01*
X156258699Y-107664153D01*
X156169945Y-107796982D01*
X156056982Y-107909945D01*
X155924153Y-107998699D01*
X155776560Y-108059834D01*
X155672105Y-108080611D01*
X155619878Y-108091000D01*
X155460122Y-108091000D01*
X155407895Y-108080611D01*
X155303440Y-108059834D01*
X155155847Y-107998699D01*
X155023018Y-107909945D01*
X154910055Y-107796982D01*
X154821301Y-107664153D01*
X154760166Y-107516560D01*
X154734520Y-107387627D01*
X154729000Y-107359878D01*
X154729000Y-107200122D01*
X154760166Y-107043442D01*
X154760166Y-107043440D01*
X154821301Y-106895847D01*
X154910055Y-106763018D01*
X155023018Y-106650055D01*
X155155847Y-106561301D01*
X155303440Y-106500166D01*
X155407895Y-106479389D01*
X155460122Y-106469000D01*
X155619878Y-106469000D01*
X155672105Y-106479389D01*
G37*
G36*
X129294227Y-106069547D02*
G01*
X129294230Y-106069548D01*
X129294229Y-106069548D01*
X129457836Y-106137316D01*
X129605079Y-106235701D01*
X129730299Y-106360921D01*
X129828684Y-106508164D01*
X129828684Y-106508165D01*
X129896453Y-106671773D01*
X129931000Y-106845455D01*
X129931000Y-107022545D01*
X129896453Y-107196227D01*
X129894839Y-107200123D01*
X129828684Y-107359836D01*
X129730299Y-107507079D01*
X129605079Y-107632299D01*
X129457836Y-107730684D01*
X129342147Y-107778604D01*
X129294227Y-107798453D01*
X129120545Y-107833000D01*
X128943455Y-107833000D01*
X128769773Y-107798453D01*
X128721853Y-107778604D01*
X128606164Y-107730684D01*
X128458921Y-107632299D01*
X128333701Y-107507079D01*
X128235316Y-107359836D01*
X128169161Y-107200123D01*
X128167547Y-107196227D01*
X128133000Y-107022545D01*
X128133000Y-106845455D01*
X128167547Y-106671773D01*
X128235316Y-106508165D01*
X128235316Y-106508164D01*
X128333701Y-106360921D01*
X128458921Y-106235701D01*
X128606164Y-106137316D01*
X128769771Y-106069548D01*
X128769770Y-106069548D01*
X128769773Y-106069547D01*
X128943455Y-106035000D01*
X129120545Y-106035000D01*
X129294227Y-106069547D01*
G37*
G36*
X142248227Y-106069547D02*
G01*
X142248230Y-106069548D01*
X142248229Y-106069548D01*
X142411836Y-106137316D01*
X142559079Y-106235701D01*
X142684299Y-106360921D01*
X142782684Y-106508164D01*
X142782684Y-106508165D01*
X142850453Y-106671773D01*
X142885000Y-106845455D01*
X142885000Y-107022545D01*
X142850453Y-107196227D01*
X142848839Y-107200123D01*
X142782684Y-107359836D01*
X142684299Y-107507079D01*
X142559079Y-107632299D01*
X142411836Y-107730684D01*
X142296147Y-107778604D01*
X142248227Y-107798453D01*
X142074545Y-107833000D01*
X141897455Y-107833000D01*
X141723773Y-107798453D01*
X141675853Y-107778604D01*
X141560164Y-107730684D01*
X141412921Y-107632299D01*
X141287701Y-107507079D01*
X141189316Y-107359836D01*
X141123161Y-107200123D01*
X141121547Y-107196227D01*
X141087000Y-107022545D01*
X141087000Y-106845455D01*
X141121547Y-106671773D01*
X141189316Y-106508165D01*
X141189316Y-106508164D01*
X141287701Y-106360921D01*
X141412921Y-106235701D01*
X141560164Y-106137316D01*
X141723771Y-106069548D01*
X141723770Y-106069548D01*
X141723773Y-106069547D01*
X141897455Y-106035000D01*
X142074545Y-106035000D01*
X142248227Y-106069547D01*
G37*
G36*
X180477000Y-105801000D02*
G01*
X178679000Y-105801000D01*
X178679000Y-104003000D01*
X180477000Y-104003000D01*
X180477000Y-105801000D01*
G37*
G36*
X182380227Y-104037547D02*
G01*
X182380230Y-104037548D01*
X182380229Y-104037548D01*
X182543836Y-104105316D01*
X182691079Y-104203701D01*
X182816299Y-104328921D01*
X182914684Y-104476164D01*
X182917327Y-104482545D01*
X182982453Y-104639773D01*
X183017000Y-104813455D01*
X183017000Y-104990545D01*
X182982453Y-105164227D01*
X182982452Y-105164229D01*
X182914684Y-105327836D01*
X182816299Y-105475079D01*
X182691079Y-105600299D01*
X182543836Y-105698684D01*
X182428147Y-105746604D01*
X182380227Y-105766453D01*
X182206545Y-105801000D01*
X182029455Y-105801000D01*
X181855773Y-105766453D01*
X181807853Y-105746604D01*
X181692164Y-105698684D01*
X181544921Y-105600299D01*
X181419701Y-105475079D01*
X181321316Y-105327836D01*
X181253548Y-105164229D01*
X181253547Y-105164227D01*
X181219000Y-104990545D01*
X181219000Y-104813455D01*
X181253547Y-104639773D01*
X181318673Y-104482545D01*
X181321316Y-104476164D01*
X181419701Y-104328921D01*
X181544921Y-104203701D01*
X181692164Y-104105316D01*
X181855771Y-104037548D01*
X181855770Y-104037548D01*
X181855773Y-104037547D01*
X182029455Y-104003000D01*
X182206545Y-104003000D01*
X182380227Y-104037547D01*
G37*
G36*
X142248227Y-103529547D02*
G01*
X142248230Y-103529548D01*
X142248229Y-103529548D01*
X142411836Y-103597316D01*
X142559079Y-103695701D01*
X142684299Y-103820921D01*
X142782684Y-103968164D01*
X142782684Y-103968165D01*
X142850453Y-104131773D01*
X142885000Y-104305455D01*
X142885000Y-104482545D01*
X142850453Y-104656227D01*
X142850452Y-104656229D01*
X142782684Y-104819836D01*
X142684299Y-104967079D01*
X142559079Y-105092299D01*
X142411836Y-105190684D01*
X142296147Y-105238604D01*
X142248227Y-105258453D01*
X142074545Y-105293000D01*
X141897455Y-105293000D01*
X141723773Y-105258453D01*
X141675853Y-105238604D01*
X141560164Y-105190684D01*
X141412921Y-105092299D01*
X141287701Y-104967079D01*
X141189316Y-104819836D01*
X141121548Y-104656229D01*
X141121547Y-104656227D01*
X141087000Y-104482545D01*
X141087000Y-104305455D01*
X141121547Y-104131773D01*
X141189316Y-103968165D01*
X141189316Y-103968164D01*
X141287701Y-103820921D01*
X141412921Y-103695701D01*
X141560164Y-103597316D01*
X141723771Y-103529548D01*
X141723770Y-103529548D01*
X141723773Y-103529547D01*
X141897455Y-103495000D01*
X142074545Y-103495000D01*
X142248227Y-103529547D01*
G37*
G36*
X129294227Y-103529547D02*
G01*
X129294230Y-103529548D01*
X129294229Y-103529548D01*
X129457836Y-103597316D01*
X129605079Y-103695701D01*
X129730299Y-103820921D01*
X129828684Y-103968164D01*
X129828684Y-103968165D01*
X129896453Y-104131773D01*
X129931000Y-104305455D01*
X129931000Y-104482545D01*
X129896453Y-104656227D01*
X129896452Y-104656229D01*
X129828684Y-104819836D01*
X129730299Y-104967079D01*
X129605079Y-105092299D01*
X129457836Y-105190684D01*
X129342147Y-105238604D01*
X129294227Y-105258453D01*
X129120545Y-105293000D01*
X128943455Y-105293000D01*
X128769773Y-105258453D01*
X128721853Y-105238604D01*
X128606164Y-105190684D01*
X128458921Y-105092299D01*
X128333701Y-104967079D01*
X128235316Y-104819836D01*
X128167548Y-104656229D01*
X128167547Y-104656227D01*
X128133000Y-104482545D01*
X128133000Y-104305455D01*
X128167547Y-104131773D01*
X128235316Y-103968165D01*
X128235316Y-103968164D01*
X128333701Y-103820921D01*
X128458921Y-103695701D01*
X128606164Y-103597316D01*
X128769771Y-103529548D01*
X128769770Y-103529548D01*
X128769773Y-103529547D01*
X128943455Y-103495000D01*
X129120545Y-103495000D01*
X129294227Y-103529547D01*
G37*
G36*
X179840227Y-101497547D02*
G01*
X179840230Y-101497548D01*
X179840229Y-101497548D01*
X180003836Y-101565316D01*
X180102220Y-101631054D01*
X180151078Y-101663700D01*
X180276300Y-101788922D01*
X180299128Y-101823087D01*
X180374684Y-101936164D01*
X180377327Y-101942545D01*
X180442453Y-102099773D01*
X180477000Y-102273455D01*
X180477000Y-102450545D01*
X180442453Y-102624227D01*
X180442452Y-102624229D01*
X180374684Y-102787836D01*
X180276299Y-102935079D01*
X180151079Y-103060299D01*
X180003836Y-103158684D01*
X179888147Y-103206604D01*
X179840227Y-103226453D01*
X179666545Y-103261000D01*
X179489455Y-103261000D01*
X179315773Y-103226453D01*
X179267853Y-103206604D01*
X179152164Y-103158684D01*
X179004921Y-103060299D01*
X178879701Y-102935079D01*
X178781316Y-102787836D01*
X178713548Y-102624229D01*
X178713547Y-102624227D01*
X178679000Y-102450545D01*
X178679000Y-102273455D01*
X178713547Y-102099773D01*
X178778673Y-101942545D01*
X178781316Y-101936164D01*
X178856872Y-101823087D01*
X178879700Y-101788922D01*
X179004922Y-101663700D01*
X179053780Y-101631054D01*
X179152164Y-101565316D01*
X179315771Y-101497548D01*
X179315770Y-101497548D01*
X179315773Y-101497547D01*
X179489455Y-101463000D01*
X179666545Y-101463000D01*
X179840227Y-101497547D01*
G37*
G36*
X182380227Y-101497547D02*
G01*
X182380230Y-101497548D01*
X182380229Y-101497548D01*
X182543836Y-101565316D01*
X182642220Y-101631054D01*
X182691078Y-101663700D01*
X182816300Y-101788922D01*
X182839128Y-101823087D01*
X182914684Y-101936164D01*
X182917327Y-101942545D01*
X182982453Y-102099773D01*
X183017000Y-102273455D01*
X183017000Y-102450545D01*
X182982453Y-102624227D01*
X182982452Y-102624229D01*
X182914684Y-102787836D01*
X182816299Y-102935079D01*
X182691079Y-103060299D01*
X182543836Y-103158684D01*
X182428147Y-103206604D01*
X182380227Y-103226453D01*
X182206545Y-103261000D01*
X182029455Y-103261000D01*
X181855773Y-103226453D01*
X181807853Y-103206604D01*
X181692164Y-103158684D01*
X181544921Y-103060299D01*
X181419701Y-102935079D01*
X181321316Y-102787836D01*
X181253548Y-102624229D01*
X181253547Y-102624227D01*
X181219000Y-102450545D01*
X181219000Y-102273455D01*
X181253547Y-102099773D01*
X181318673Y-101942545D01*
X181321316Y-101936164D01*
X181396872Y-101823087D01*
X181419700Y-101788922D01*
X181544922Y-101663700D01*
X181593780Y-101631054D01*
X181692164Y-101565316D01*
X181855771Y-101497548D01*
X181855770Y-101497548D01*
X181855773Y-101497547D01*
X182029455Y-101463000D01*
X182206545Y-101463000D01*
X182380227Y-101497547D01*
G37*
G36*
X129294227Y-100989547D02*
G01*
X129298471Y-100991305D01*
X129457836Y-101057316D01*
X129556220Y-101123054D01*
X129594596Y-101148696D01*
X129605079Y-101155701D01*
X129730299Y-101280921D01*
X129828684Y-101428164D01*
X129837094Y-101448468D01*
X129896453Y-101591773D01*
X129931000Y-101765455D01*
X129931000Y-101942545D01*
X129896453Y-102116227D01*
X129896452Y-102116229D01*
X129828684Y-102279836D01*
X129730299Y-102427079D01*
X129605079Y-102552299D01*
X129457836Y-102650684D01*
X129342147Y-102698604D01*
X129294227Y-102718453D01*
X129120545Y-102753000D01*
X128943455Y-102753000D01*
X128769773Y-102718453D01*
X128721853Y-102698604D01*
X128606164Y-102650684D01*
X128458921Y-102552299D01*
X128333701Y-102427079D01*
X128235316Y-102279836D01*
X128167548Y-102116229D01*
X128167547Y-102116227D01*
X128133000Y-101942545D01*
X128133000Y-101765455D01*
X128167547Y-101591773D01*
X128226906Y-101448468D01*
X128235316Y-101428164D01*
X128333701Y-101280921D01*
X128458921Y-101155701D01*
X128469405Y-101148696D01*
X128507780Y-101123054D01*
X128606164Y-101057316D01*
X128765529Y-100991305D01*
X128769773Y-100989547D01*
X128943455Y-100955000D01*
X129120545Y-100955000D01*
X129294227Y-100989547D01*
G37*
G36*
X171883068Y-100247674D02*
G01*
X171926347Y-100260803D01*
X171966228Y-100282120D01*
X172001188Y-100310812D01*
X172029880Y-100345772D01*
X172051197Y-100385653D01*
X172064326Y-100428932D01*
X172069000Y-100476392D01*
X172069000Y-101707608D01*
X172064326Y-101755068D01*
X172051197Y-101798347D01*
X172029880Y-101838228D01*
X172001188Y-101873188D01*
X171966228Y-101901880D01*
X171926347Y-101923197D01*
X171883068Y-101936326D01*
X171835608Y-101941000D01*
X169204392Y-101941000D01*
X169156932Y-101936326D01*
X169113653Y-101923197D01*
X169073772Y-101901880D01*
X169038812Y-101873188D01*
X169010120Y-101838228D01*
X168988803Y-101798347D01*
X168975674Y-101755068D01*
X168971000Y-101707608D01*
X168971000Y-100476392D01*
X168975674Y-100428932D01*
X168988803Y-100385653D01*
X169010120Y-100345772D01*
X169038812Y-100310812D01*
X169073772Y-100282120D01*
X169113653Y-100260803D01*
X169156932Y-100247674D01*
X169204392Y-100243000D01*
X171835608Y-100243000D01*
X171883068Y-100247674D01*
G37*
G36*
X176283068Y-100247674D02*
G01*
X176326347Y-100260803D01*
X176366228Y-100282120D01*
X176401188Y-100310812D01*
X176429880Y-100345772D01*
X176451197Y-100385653D01*
X176464326Y-100428932D01*
X176469000Y-100476392D01*
X176469000Y-101707608D01*
X176464326Y-101755068D01*
X176451197Y-101798347D01*
X176429880Y-101838228D01*
X176401188Y-101873188D01*
X176366228Y-101901880D01*
X176326347Y-101923197D01*
X176283068Y-101936326D01*
X176235608Y-101941000D01*
X173604392Y-101941000D01*
X173556932Y-101936326D01*
X173513653Y-101923197D01*
X173473772Y-101901880D01*
X173438812Y-101873188D01*
X173410120Y-101838228D01*
X173388803Y-101798347D01*
X173375674Y-101755068D01*
X173371000Y-101707608D01*
X173371000Y-100476392D01*
X173375674Y-100428932D01*
X173388803Y-100385653D01*
X173410120Y-100345772D01*
X173438812Y-100310812D01*
X173473772Y-100282120D01*
X173513653Y-100260803D01*
X173556932Y-100247674D01*
X173604392Y-100243000D01*
X176235608Y-100243000D01*
X176283068Y-100247674D01*
G37*
G36*
X166570150Y-100281235D02*
G01*
X166673060Y-100301705D01*
X166818468Y-100361935D01*
X166949333Y-100449376D01*
X167060624Y-100560667D01*
X167148065Y-100691532D01*
X167208295Y-100836940D01*
X167208295Y-100836942D01*
X167239000Y-100991304D01*
X167239000Y-101148696D01*
X167228765Y-101200150D01*
X167208295Y-101303060D01*
X167148065Y-101448468D01*
X167060624Y-101579333D01*
X166949333Y-101690624D01*
X166818468Y-101778065D01*
X166673060Y-101838295D01*
X166570150Y-101858765D01*
X166518696Y-101869000D01*
X166361304Y-101869000D01*
X166309850Y-101858765D01*
X166206940Y-101838295D01*
X166061532Y-101778065D01*
X165930667Y-101690624D01*
X165819376Y-101579333D01*
X165731935Y-101448468D01*
X165671705Y-101303060D01*
X165651235Y-101200150D01*
X165641000Y-101148696D01*
X165641000Y-100991304D01*
X165671705Y-100836942D01*
X165671705Y-100836940D01*
X165731935Y-100691532D01*
X165819376Y-100560667D01*
X165930667Y-100449376D01*
X166061532Y-100361935D01*
X166206940Y-100301705D01*
X166309850Y-100281235D01*
X166361304Y-100271000D01*
X166518696Y-100271000D01*
X166570150Y-100281235D01*
G37*
G36*
X144770150Y-100281235D02*
G01*
X144873060Y-100301705D01*
X145018468Y-100361935D01*
X145149333Y-100449376D01*
X145260624Y-100560667D01*
X145348065Y-100691532D01*
X145408295Y-100836940D01*
X145408295Y-100836942D01*
X145439000Y-100991304D01*
X145439000Y-101148696D01*
X145428765Y-101200150D01*
X145408295Y-101303060D01*
X145348065Y-101448468D01*
X145260624Y-101579333D01*
X145149333Y-101690624D01*
X145018468Y-101778065D01*
X144873060Y-101838295D01*
X144770150Y-101858765D01*
X144718696Y-101869000D01*
X144561304Y-101869000D01*
X144509850Y-101858765D01*
X144406940Y-101838295D01*
X144261532Y-101778065D01*
X144130667Y-101690624D01*
X144019376Y-101579333D01*
X143931935Y-101448468D01*
X143871705Y-101303060D01*
X143851235Y-101200150D01*
X143841000Y-101148696D01*
X143841000Y-100991304D01*
X143871705Y-100836942D01*
X143871705Y-100836940D01*
X143931935Y-100691532D01*
X144019376Y-100560667D01*
X144130667Y-100449376D01*
X144261532Y-100361935D01*
X144406940Y-100301705D01*
X144509850Y-100281235D01*
X144561304Y-100271000D01*
X144718696Y-100271000D01*
X144770150Y-100281235D01*
G37*
G36*
X182380227Y-98957547D02*
G01*
X182380230Y-98957548D01*
X182380229Y-98957548D01*
X182543836Y-99025316D01*
X182691079Y-99123701D01*
X182816299Y-99248921D01*
X182914684Y-99396164D01*
X182917327Y-99402545D01*
X182982453Y-99559773D01*
X183017000Y-99733455D01*
X183017000Y-99910545D01*
X182982453Y-100084227D01*
X182982452Y-100084229D01*
X182914684Y-100247836D01*
X182865992Y-100320708D01*
X182822598Y-100385653D01*
X182816299Y-100395079D01*
X182691079Y-100520299D01*
X182543836Y-100618684D01*
X182428147Y-100666604D01*
X182380227Y-100686453D01*
X182206545Y-100721000D01*
X182029455Y-100721000D01*
X181855773Y-100686453D01*
X181807853Y-100666604D01*
X181692164Y-100618684D01*
X181544921Y-100520299D01*
X181419701Y-100395079D01*
X181413403Y-100385653D01*
X181370008Y-100320708D01*
X181321316Y-100247836D01*
X181253548Y-100084229D01*
X181253547Y-100084227D01*
X181219000Y-99910545D01*
X181219000Y-99733455D01*
X181253547Y-99559773D01*
X181318673Y-99402545D01*
X181321316Y-99396164D01*
X181419701Y-99248921D01*
X181544921Y-99123701D01*
X181692164Y-99025316D01*
X181855771Y-98957548D01*
X181855770Y-98957548D01*
X181855773Y-98957547D01*
X182029455Y-98923000D01*
X182206545Y-98923000D01*
X182380227Y-98957547D01*
G37*
G36*
X179840227Y-98957547D02*
G01*
X179840230Y-98957548D01*
X179840229Y-98957548D01*
X180003836Y-99025316D01*
X180151079Y-99123701D01*
X180276299Y-99248921D01*
X180374684Y-99396164D01*
X180377327Y-99402545D01*
X180442453Y-99559773D01*
X180477000Y-99733455D01*
X180477000Y-99910545D01*
X180442453Y-100084227D01*
X180442452Y-100084229D01*
X180374684Y-100247836D01*
X180325992Y-100320708D01*
X180282598Y-100385653D01*
X180276299Y-100395079D01*
X180151079Y-100520299D01*
X180003836Y-100618684D01*
X179888147Y-100666604D01*
X179840227Y-100686453D01*
X179666545Y-100721000D01*
X179489455Y-100721000D01*
X179315773Y-100686453D01*
X179267853Y-100666604D01*
X179152164Y-100618684D01*
X179004921Y-100520299D01*
X178879701Y-100395079D01*
X178873403Y-100385653D01*
X178830008Y-100320708D01*
X178781316Y-100247836D01*
X178713548Y-100084229D01*
X178713547Y-100084227D01*
X178679000Y-99910545D01*
X178679000Y-99733455D01*
X178713547Y-99559773D01*
X178778673Y-99402545D01*
X178781316Y-99396164D01*
X178879701Y-99248921D01*
X179004921Y-99123701D01*
X179152164Y-99025316D01*
X179315771Y-98957548D01*
X179315770Y-98957548D01*
X179315773Y-98957547D01*
X179489455Y-98923000D01*
X179666545Y-98923000D01*
X179840227Y-98957547D01*
G37*
G36*
X129294227Y-98449547D02*
G01*
X129294230Y-98449548D01*
X129294229Y-98449548D01*
X129457836Y-98517316D01*
X129605079Y-98615701D01*
X129730299Y-98740921D01*
X129828684Y-98888164D01*
X129828684Y-98888165D01*
X129896453Y-99051773D01*
X129931000Y-99225455D01*
X129931000Y-99402545D01*
X129896453Y-99576227D01*
X129896452Y-99576229D01*
X129828684Y-99739836D01*
X129730299Y-99887079D01*
X129605079Y-100012299D01*
X129457836Y-100110684D01*
X129342147Y-100158604D01*
X129294227Y-100178453D01*
X129120545Y-100213000D01*
X128943455Y-100213000D01*
X128769773Y-100178453D01*
X128721853Y-100158604D01*
X128606164Y-100110684D01*
X128458921Y-100012299D01*
X128333701Y-99887079D01*
X128235316Y-99739836D01*
X128167548Y-99576229D01*
X128167547Y-99576227D01*
X128133000Y-99402545D01*
X128133000Y-99225455D01*
X128167547Y-99051773D01*
X128235316Y-98888165D01*
X128235316Y-98888164D01*
X128333701Y-98740921D01*
X128458921Y-98615701D01*
X128606164Y-98517316D01*
X128769771Y-98449548D01*
X128769770Y-98449548D01*
X128769773Y-98449547D01*
X128943455Y-98415000D01*
X129120545Y-98415000D01*
X129294227Y-98449547D01*
G37*
G36*
X164420150Y-98131235D02*
G01*
X164523060Y-98151705D01*
X164668468Y-98211935D01*
X164799333Y-98299376D01*
X164910624Y-98410667D01*
X164998065Y-98541532D01*
X165058295Y-98686940D01*
X165089000Y-98841305D01*
X165089000Y-98998695D01*
X165058295Y-99153060D01*
X164998065Y-99298468D01*
X164910624Y-99429333D01*
X164799333Y-99540624D01*
X164668468Y-99628065D01*
X164523060Y-99688295D01*
X164420150Y-99708765D01*
X164368696Y-99719000D01*
X164211304Y-99719000D01*
X164159850Y-99708765D01*
X164056940Y-99688295D01*
X163911532Y-99628065D01*
X163780667Y-99540624D01*
X163669376Y-99429333D01*
X163581935Y-99298468D01*
X163521705Y-99153060D01*
X163491000Y-98998695D01*
X163491000Y-98841305D01*
X163521705Y-98686940D01*
X163581935Y-98541532D01*
X163669376Y-98410667D01*
X163780667Y-98299376D01*
X163911532Y-98211935D01*
X164056940Y-98151705D01*
X164159850Y-98131235D01*
X164211304Y-98121000D01*
X164368696Y-98121000D01*
X164420150Y-98131235D01*
G37*
G36*
X146920150Y-98131235D02*
G01*
X147023060Y-98151705D01*
X147168468Y-98211935D01*
X147299333Y-98299376D01*
X147410624Y-98410667D01*
X147498065Y-98541532D01*
X147558295Y-98686940D01*
X147589000Y-98841305D01*
X147589000Y-98998695D01*
X147558295Y-99153060D01*
X147498065Y-99298468D01*
X147410624Y-99429333D01*
X147299333Y-99540624D01*
X147168468Y-99628065D01*
X147023060Y-99688295D01*
X146920150Y-99708765D01*
X146868696Y-99719000D01*
X146711304Y-99719000D01*
X146659850Y-99708765D01*
X146556940Y-99688295D01*
X146411532Y-99628065D01*
X146280667Y-99540624D01*
X146169376Y-99429333D01*
X146081935Y-99298468D01*
X146021705Y-99153060D01*
X145991000Y-98998695D01*
X145991000Y-98841305D01*
X146021705Y-98686940D01*
X146081935Y-98541532D01*
X146169376Y-98410667D01*
X146280667Y-98299376D01*
X146411532Y-98211935D01*
X146556940Y-98151705D01*
X146659850Y-98131235D01*
X146711304Y-98121000D01*
X146868696Y-98121000D01*
X146920150Y-98131235D01*
G37*
G36*
X159609000Y-99273000D02*
G01*
X157511000Y-99273000D01*
X157511000Y-98175000D01*
X159609000Y-98175000D01*
X159609000Y-99273000D01*
G37*
G36*
X159609000Y-98003000D02*
G01*
X157511000Y-98003000D01*
X157511000Y-96905000D01*
X159609000Y-96905000D01*
X159609000Y-98003000D01*
G37*
G36*
X163645040Y-95624935D02*
G01*
X163733196Y-95642470D01*
X163830484Y-95682768D01*
X163899277Y-95711263D01*
X163899278Y-95711264D01*
X164048749Y-95811137D01*
X164175863Y-95938251D01*
X164175864Y-95938253D01*
X164275737Y-96087723D01*
X164304232Y-96156516D01*
X164344530Y-96253804D01*
X164379600Y-96430117D01*
X164379600Y-96609883D01*
X164344530Y-96786196D01*
X164304232Y-96883484D01*
X164275737Y-96952277D01*
X164275736Y-96952278D01*
X164175863Y-97101749D01*
X164048749Y-97228863D01*
X163973505Y-97279139D01*
X163899277Y-97328737D01*
X163830484Y-97357232D01*
X163733196Y-97397530D01*
X163645040Y-97415065D01*
X163556885Y-97432600D01*
X163377115Y-97432600D01*
X163288961Y-97415065D01*
X163200804Y-97397530D01*
X163103516Y-97357232D01*
X163034723Y-97328737D01*
X162960495Y-97279139D01*
X162885251Y-97228863D01*
X162758137Y-97101749D01*
X162658264Y-96952278D01*
X162658263Y-96952277D01*
X162629768Y-96883484D01*
X162589470Y-96786196D01*
X162554400Y-96609883D01*
X162554400Y-96430117D01*
X162589470Y-96253804D01*
X162629768Y-96156516D01*
X162658263Y-96087723D01*
X162758136Y-95938253D01*
X162758137Y-95938251D01*
X162885251Y-95811137D01*
X163034722Y-95711264D01*
X163034723Y-95711263D01*
X163103516Y-95682768D01*
X163200804Y-95642470D01*
X163288960Y-95624935D01*
X163377115Y-95607400D01*
X163556885Y-95607400D01*
X163645040Y-95624935D01*
G37*
G36*
X181616000Y-97432600D02*
G01*
X179518000Y-97432600D01*
X179518000Y-95607400D01*
X181616000Y-95607400D01*
X181616000Y-97432600D01*
G37*
G36*
X159609000Y-96733000D02*
G01*
X157511000Y-96733000D01*
X157511000Y-95635000D01*
X159609000Y-95635000D01*
X159609000Y-96733000D01*
G37*
G36*
X159609000Y-95463000D02*
G01*
X157511000Y-95463000D01*
X157511000Y-94365000D01*
X159609000Y-94365000D01*
X159609000Y-95463000D01*
G37*
G36*
X163645039Y-93624935D02*
G01*
X163733196Y-93642470D01*
X163830484Y-93682768D01*
X163899277Y-93711263D01*
X163899278Y-93711264D01*
X164048749Y-93811137D01*
X164175863Y-93938251D01*
X164175864Y-93938253D01*
X164275737Y-94087723D01*
X164304232Y-94156516D01*
X164344530Y-94253804D01*
X164379600Y-94430117D01*
X164379600Y-94609883D01*
X164344530Y-94786196D01*
X164304232Y-94883484D01*
X164275737Y-94952277D01*
X164275736Y-94952278D01*
X164175863Y-95101749D01*
X164048749Y-95228863D01*
X163973505Y-95279139D01*
X163899277Y-95328737D01*
X163830484Y-95357232D01*
X163733196Y-95397530D01*
X163645040Y-95415065D01*
X163556885Y-95432600D01*
X163377115Y-95432600D01*
X163288960Y-95415065D01*
X163200804Y-95397530D01*
X163103516Y-95357232D01*
X163034723Y-95328737D01*
X162960495Y-95279139D01*
X162885251Y-95228863D01*
X162758137Y-95101749D01*
X162658264Y-94952278D01*
X162658263Y-94952277D01*
X162629768Y-94883484D01*
X162589470Y-94786196D01*
X162554400Y-94609883D01*
X162554400Y-94430117D01*
X162589470Y-94253804D01*
X162629768Y-94156516D01*
X162658263Y-94087723D01*
X162758136Y-93938253D01*
X162758137Y-93938251D01*
X162885251Y-93811137D01*
X163034722Y-93711264D01*
X163034723Y-93711263D01*
X163103516Y-93682768D01*
X163200804Y-93642470D01*
X163288961Y-93624935D01*
X163377115Y-93607400D01*
X163556885Y-93607400D01*
X163645039Y-93624935D01*
G37*
G36*
X180745039Y-93624935D02*
G01*
X180833196Y-93642470D01*
X180930484Y-93682768D01*
X180999277Y-93711263D01*
X180999278Y-93711264D01*
X181148749Y-93811137D01*
X181275863Y-93938251D01*
X181275864Y-93938253D01*
X181375737Y-94087723D01*
X181404232Y-94156516D01*
X181444530Y-94253804D01*
X181479600Y-94430117D01*
X181479600Y-94609883D01*
X181444530Y-94786196D01*
X181404232Y-94883484D01*
X181375737Y-94952277D01*
X181375736Y-94952278D01*
X181275863Y-95101749D01*
X181148749Y-95228863D01*
X181073505Y-95279139D01*
X180999277Y-95328737D01*
X180930484Y-95357232D01*
X180833196Y-95397530D01*
X180745040Y-95415065D01*
X180656885Y-95432600D01*
X180477115Y-95432600D01*
X180388960Y-95415065D01*
X180300804Y-95397530D01*
X180203516Y-95357232D01*
X180134723Y-95328737D01*
X180060495Y-95279139D01*
X179985251Y-95228863D01*
X179858137Y-95101749D01*
X179758264Y-94952278D01*
X179758263Y-94952277D01*
X179729768Y-94883484D01*
X179689470Y-94786196D01*
X179654400Y-94609883D01*
X179654400Y-94430117D01*
X179689470Y-94253804D01*
X179729768Y-94156516D01*
X179758263Y-94087723D01*
X179858136Y-93938253D01*
X179858137Y-93938251D01*
X179985251Y-93811137D01*
X180134722Y-93711264D01*
X180134723Y-93711263D01*
X180203516Y-93682768D01*
X180300804Y-93642470D01*
X180388961Y-93624935D01*
X180477115Y-93607400D01*
X180656885Y-93607400D01*
X180745039Y-93624935D01*
G37*
G36*
X159609000Y-94193000D02*
G01*
X157511000Y-94193000D01*
X157511000Y-93095000D01*
X159609000Y-93095000D01*
X159609000Y-94193000D01*
G37*
G36*
X180745039Y-91624935D02*
G01*
X180833196Y-91642470D01*
X180930484Y-91682768D01*
X180999277Y-91711263D01*
X180999278Y-91711264D01*
X181148749Y-91811137D01*
X181275863Y-91938251D01*
X181275864Y-91938253D01*
X181375737Y-92087723D01*
X181404232Y-92156516D01*
X181444530Y-92253804D01*
X181479600Y-92430117D01*
X181479600Y-92609883D01*
X181444530Y-92786196D01*
X181404232Y-92883484D01*
X181375737Y-92952277D01*
X181375736Y-92952278D01*
X181275863Y-93101749D01*
X181148749Y-93228863D01*
X181073505Y-93279139D01*
X180999277Y-93328737D01*
X180930484Y-93357232D01*
X180833196Y-93397530D01*
X180745040Y-93415065D01*
X180656885Y-93432600D01*
X180477115Y-93432600D01*
X180388960Y-93415065D01*
X180300804Y-93397530D01*
X180203516Y-93357232D01*
X180134723Y-93328737D01*
X180060495Y-93279139D01*
X179985251Y-93228863D01*
X179858137Y-93101749D01*
X179758264Y-92952278D01*
X179758263Y-92952277D01*
X179729768Y-92883484D01*
X179689470Y-92786196D01*
X179654400Y-92609883D01*
X179654400Y-92430117D01*
X179689470Y-92253804D01*
X179729768Y-92156516D01*
X179758263Y-92087723D01*
X179858136Y-91938253D01*
X179858137Y-91938251D01*
X179985251Y-91811137D01*
X180134722Y-91711264D01*
X180134723Y-91711263D01*
X180203516Y-91682768D01*
X180300804Y-91642470D01*
X180388961Y-91624935D01*
X180477115Y-91607400D01*
X180656885Y-91607400D01*
X180745039Y-91624935D01*
G37*
G36*
X163645039Y-91624935D02*
G01*
X163733196Y-91642470D01*
X163830484Y-91682768D01*
X163899277Y-91711263D01*
X163899278Y-91711264D01*
X164048749Y-91811137D01*
X164175863Y-91938251D01*
X164175864Y-91938253D01*
X164275737Y-92087723D01*
X164304232Y-92156516D01*
X164344530Y-92253804D01*
X164379600Y-92430117D01*
X164379600Y-92609883D01*
X164344530Y-92786196D01*
X164304232Y-92883484D01*
X164275737Y-92952277D01*
X164275736Y-92952278D01*
X164175863Y-93101749D01*
X164048749Y-93228863D01*
X163973505Y-93279139D01*
X163899277Y-93328737D01*
X163830484Y-93357232D01*
X163733196Y-93397530D01*
X163645040Y-93415065D01*
X163556885Y-93432600D01*
X163377115Y-93432600D01*
X163288960Y-93415065D01*
X163200804Y-93397530D01*
X163103516Y-93357232D01*
X163034723Y-93328737D01*
X162960495Y-93279139D01*
X162885251Y-93228863D01*
X162758137Y-93101749D01*
X162658264Y-92952278D01*
X162658263Y-92952277D01*
X162629768Y-92883484D01*
X162589470Y-92786196D01*
X162554400Y-92609883D01*
X162554400Y-92430117D01*
X162589470Y-92253804D01*
X162629768Y-92156516D01*
X162658263Y-92087723D01*
X162758136Y-91938253D01*
X162758137Y-91938251D01*
X162885251Y-91811137D01*
X163034722Y-91711264D01*
X163034723Y-91711263D01*
X163103516Y-91682768D01*
X163200804Y-91642470D01*
X163288961Y-91624935D01*
X163377115Y-91607400D01*
X163556885Y-91607400D01*
X163645039Y-91624935D01*
G37*
G36*
X159609000Y-92923000D02*
G01*
X157511000Y-92923000D01*
X157511000Y-91825000D01*
X159609000Y-91825000D01*
X159609000Y-92923000D01*
G37*
G36*
X175184039Y-90036935D02*
G01*
X175272196Y-90054470D01*
X175352475Y-90087723D01*
X175438277Y-90123263D01*
X175438278Y-90123264D01*
X175587749Y-90223137D01*
X175714863Y-90350251D01*
X175714864Y-90350253D01*
X175814737Y-90499723D01*
X175837633Y-90555000D01*
X175883530Y-90665804D01*
X175883530Y-90665806D01*
X175907477Y-90786194D01*
X175918600Y-90842117D01*
X175918600Y-91021883D01*
X175883530Y-91198196D01*
X175843232Y-91295484D01*
X175814737Y-91364277D01*
X175814736Y-91364278D01*
X175714863Y-91513749D01*
X175587749Y-91640863D01*
X175512505Y-91691139D01*
X175438277Y-91740737D01*
X175369484Y-91769232D01*
X175272196Y-91809530D01*
X175194421Y-91825000D01*
X175095885Y-91844600D01*
X174916115Y-91844600D01*
X174817579Y-91825000D01*
X174739804Y-91809530D01*
X174642516Y-91769232D01*
X174573723Y-91740737D01*
X174499495Y-91691139D01*
X174424251Y-91640863D01*
X174297137Y-91513749D01*
X174197264Y-91364278D01*
X174197263Y-91364277D01*
X174168768Y-91295484D01*
X174128470Y-91198196D01*
X174093400Y-91021883D01*
X174093400Y-90842117D01*
X174104524Y-90786194D01*
X174128470Y-90665806D01*
X174128470Y-90665804D01*
X174174367Y-90555000D01*
X174197263Y-90499723D01*
X174297136Y-90350253D01*
X174297137Y-90350251D01*
X174424251Y-90223137D01*
X174573722Y-90123264D01*
X174573723Y-90123263D01*
X174659525Y-90087723D01*
X174739804Y-90054470D01*
X174827961Y-90036935D01*
X174916115Y-90019400D01*
X175095885Y-90019400D01*
X175184039Y-90036935D01*
G37*
G36*
X177724039Y-90036935D02*
G01*
X177812196Y-90054470D01*
X177892475Y-90087723D01*
X177978277Y-90123263D01*
X177978278Y-90123264D01*
X178127749Y-90223137D01*
X178254863Y-90350251D01*
X178254864Y-90350253D01*
X178354737Y-90499723D01*
X178377633Y-90555000D01*
X178423530Y-90665804D01*
X178423530Y-90665806D01*
X178447477Y-90786194D01*
X178458600Y-90842117D01*
X178458600Y-91021883D01*
X178423530Y-91198196D01*
X178383232Y-91295484D01*
X178354737Y-91364277D01*
X178354736Y-91364278D01*
X178254863Y-91513749D01*
X178127749Y-91640863D01*
X178052505Y-91691139D01*
X177978277Y-91740737D01*
X177909484Y-91769232D01*
X177812196Y-91809530D01*
X177734421Y-91825000D01*
X177635885Y-91844600D01*
X177456115Y-91844600D01*
X177357579Y-91825000D01*
X177279804Y-91809530D01*
X177182516Y-91769232D01*
X177113723Y-91740737D01*
X177039495Y-91691139D01*
X176964251Y-91640863D01*
X176837137Y-91513749D01*
X176737264Y-91364278D01*
X176737263Y-91364277D01*
X176708768Y-91295484D01*
X176668470Y-91198196D01*
X176633400Y-91021883D01*
X176633400Y-90842117D01*
X176644524Y-90786194D01*
X176668470Y-90665806D01*
X176668470Y-90665804D01*
X176714367Y-90555000D01*
X176737263Y-90499723D01*
X176837136Y-90350253D01*
X176837137Y-90350251D01*
X176964251Y-90223137D01*
X177113722Y-90123264D01*
X177113723Y-90123263D01*
X177199525Y-90087723D01*
X177279804Y-90054470D01*
X177367961Y-90036935D01*
X177456115Y-90019400D01*
X177635885Y-90019400D01*
X177724039Y-90036935D01*
G37*
G36*
X159609000Y-91653000D02*
G01*
X157511000Y-91653000D01*
X157511000Y-90555000D01*
X159609000Y-90555000D01*
X159609000Y-91653000D01*
G37*
G36*
X180745040Y-89624935D02*
G01*
X180833196Y-89642470D01*
X180930484Y-89682768D01*
X180999277Y-89711263D01*
X180999278Y-89711264D01*
X181148749Y-89811137D01*
X181275863Y-89938251D01*
X181275864Y-89938253D01*
X181375737Y-90087723D01*
X181390458Y-90123263D01*
X181444530Y-90253804D01*
X181444530Y-90253806D01*
X181479600Y-90430115D01*
X181479600Y-90609885D01*
X181462065Y-90698039D01*
X181444530Y-90786196D01*
X181404232Y-90883484D01*
X181375737Y-90952277D01*
X181375736Y-90952278D01*
X181275863Y-91101749D01*
X181148749Y-91228863D01*
X181073505Y-91279139D01*
X180999277Y-91328737D01*
X180930484Y-91357232D01*
X180833196Y-91397530D01*
X180745040Y-91415065D01*
X180656885Y-91432600D01*
X180477115Y-91432600D01*
X180388961Y-91415065D01*
X180300804Y-91397530D01*
X180203516Y-91357232D01*
X180134723Y-91328737D01*
X180060495Y-91279139D01*
X179985251Y-91228863D01*
X179858137Y-91101749D01*
X179758264Y-90952278D01*
X179758263Y-90952277D01*
X179729768Y-90883484D01*
X179689470Y-90786196D01*
X179671935Y-90698039D01*
X179654400Y-90609885D01*
X179654400Y-90430115D01*
X179689470Y-90253806D01*
X179689470Y-90253804D01*
X179743542Y-90123263D01*
X179758263Y-90087723D01*
X179858136Y-89938253D01*
X179858137Y-89938251D01*
X179985251Y-89811137D01*
X180134722Y-89711264D01*
X180134723Y-89711263D01*
X180203516Y-89682768D01*
X180300804Y-89642470D01*
X180388961Y-89624935D01*
X180477115Y-89607400D01*
X180656885Y-89607400D01*
X180745040Y-89624935D01*
G37*
G36*
X163645040Y-89624935D02*
G01*
X163733196Y-89642470D01*
X163830484Y-89682768D01*
X163899277Y-89711263D01*
X163899278Y-89711264D01*
X164048749Y-89811137D01*
X164175863Y-89938251D01*
X164175864Y-89938253D01*
X164275737Y-90087723D01*
X164290458Y-90123263D01*
X164344530Y-90253804D01*
X164344530Y-90253806D01*
X164379600Y-90430115D01*
X164379600Y-90609885D01*
X164362065Y-90698039D01*
X164344530Y-90786196D01*
X164304232Y-90883484D01*
X164275737Y-90952277D01*
X164275736Y-90952278D01*
X164175863Y-91101749D01*
X164048749Y-91228863D01*
X163973505Y-91279139D01*
X163899277Y-91328737D01*
X163830484Y-91357232D01*
X163733196Y-91397530D01*
X163645040Y-91415065D01*
X163556885Y-91432600D01*
X163377115Y-91432600D01*
X163288961Y-91415065D01*
X163200804Y-91397530D01*
X163103516Y-91357232D01*
X163034723Y-91328737D01*
X162960495Y-91279139D01*
X162885251Y-91228863D01*
X162758137Y-91101749D01*
X162658264Y-90952278D01*
X162658263Y-90952277D01*
X162629768Y-90883484D01*
X162589470Y-90786196D01*
X162571935Y-90698039D01*
X162554400Y-90609885D01*
X162554400Y-90430115D01*
X162589470Y-90253806D01*
X162589470Y-90253804D01*
X162643542Y-90123263D01*
X162658263Y-90087723D01*
X162758136Y-89938253D01*
X162758137Y-89938251D01*
X162885251Y-89811137D01*
X163034722Y-89711264D01*
X163034723Y-89711263D01*
X163103516Y-89682768D01*
X163200804Y-89642470D01*
X163288961Y-89624935D01*
X163377115Y-89607400D01*
X163556885Y-89607400D01*
X163645040Y-89624935D01*
G37*
G36*
X159609000Y-90383000D02*
G01*
X157511000Y-90383000D01*
X157511000Y-89285000D01*
X159609000Y-89285000D01*
X159609000Y-90383000D01*
G37*
G36*
X180745039Y-87624935D02*
G01*
X180833196Y-87642470D01*
X180930484Y-87682768D01*
X180999277Y-87711263D01*
X180999278Y-87711264D01*
X181148749Y-87811137D01*
X181275863Y-87938251D01*
X181275864Y-87938253D01*
X181375737Y-88087723D01*
X181391510Y-88125804D01*
X181444530Y-88253804D01*
X181479600Y-88430117D01*
X181479600Y-88609883D01*
X181444530Y-88786196D01*
X181404232Y-88883484D01*
X181375737Y-88952277D01*
X181375736Y-88952278D01*
X181275863Y-89101749D01*
X181148749Y-89228863D01*
X181087886Y-89269530D01*
X180999277Y-89328737D01*
X180930484Y-89357232D01*
X180833196Y-89397530D01*
X180745040Y-89415065D01*
X180656885Y-89432600D01*
X180477115Y-89432600D01*
X180388961Y-89415065D01*
X180300804Y-89397530D01*
X180203516Y-89357232D01*
X180134723Y-89328737D01*
X180046114Y-89269530D01*
X179985251Y-89228863D01*
X179858137Y-89101749D01*
X179758264Y-88952278D01*
X179758263Y-88952277D01*
X179729768Y-88883484D01*
X179689470Y-88786196D01*
X179654400Y-88609883D01*
X179654400Y-88430117D01*
X179689470Y-88253804D01*
X179742490Y-88125804D01*
X179758263Y-88087723D01*
X179858136Y-87938253D01*
X179858137Y-87938251D01*
X179985251Y-87811137D01*
X180134722Y-87711264D01*
X180134723Y-87711263D01*
X180203516Y-87682768D01*
X180300804Y-87642470D01*
X180388961Y-87624935D01*
X180477115Y-87607400D01*
X180656885Y-87607400D01*
X180745039Y-87624935D01*
G37*
G36*
X163645039Y-87624935D02*
G01*
X163733196Y-87642470D01*
X163830484Y-87682768D01*
X163899277Y-87711263D01*
X163899278Y-87711264D01*
X164048749Y-87811137D01*
X164175863Y-87938251D01*
X164175864Y-87938253D01*
X164275737Y-88087723D01*
X164291510Y-88125804D01*
X164344530Y-88253804D01*
X164379600Y-88430117D01*
X164379600Y-88609883D01*
X164344530Y-88786196D01*
X164304232Y-88883484D01*
X164275737Y-88952277D01*
X164275736Y-88952278D01*
X164175863Y-89101749D01*
X164048749Y-89228863D01*
X163987886Y-89269530D01*
X163899277Y-89328737D01*
X163830484Y-89357232D01*
X163733196Y-89397530D01*
X163645040Y-89415065D01*
X163556885Y-89432600D01*
X163377115Y-89432600D01*
X163288961Y-89415065D01*
X163200804Y-89397530D01*
X163103516Y-89357232D01*
X163034723Y-89328737D01*
X162946114Y-89269530D01*
X162885251Y-89228863D01*
X162758137Y-89101749D01*
X162658264Y-88952278D01*
X162658263Y-88952277D01*
X162629768Y-88883484D01*
X162589470Y-88786196D01*
X162554400Y-88609883D01*
X162554400Y-88430117D01*
X162589470Y-88253804D01*
X162642490Y-88125804D01*
X162658263Y-88087723D01*
X162758136Y-87938253D01*
X162758137Y-87938251D01*
X162885251Y-87811137D01*
X163034722Y-87711264D01*
X163034723Y-87711263D01*
X163103516Y-87682768D01*
X163200804Y-87642470D01*
X163288961Y-87624935D01*
X163377115Y-87607400D01*
X163556885Y-87607400D01*
X163645039Y-87624935D01*
G37*
G36*
X177724040Y-87496935D02*
G01*
X177812196Y-87514470D01*
X177909484Y-87554768D01*
X177978277Y-87583263D01*
X177978278Y-87583264D01*
X178127749Y-87683137D01*
X178254863Y-87810251D01*
X178254864Y-87810253D01*
X178354737Y-87959723D01*
X178383232Y-88028516D01*
X178423530Y-88125804D01*
X178458600Y-88302117D01*
X178458600Y-88481883D01*
X178423530Y-88658196D01*
X178383232Y-88755484D01*
X178354737Y-88824277D01*
X178354736Y-88824278D01*
X178254863Y-88973749D01*
X178127749Y-89100863D01*
X178126426Y-89101747D01*
X177978277Y-89200737D01*
X177910374Y-89228863D01*
X177812196Y-89269530D01*
X177734421Y-89285000D01*
X177635885Y-89304600D01*
X177456115Y-89304600D01*
X177357579Y-89285000D01*
X177279804Y-89269530D01*
X177181626Y-89228863D01*
X177113723Y-89200737D01*
X176965574Y-89101747D01*
X176964251Y-89100863D01*
X176837137Y-88973749D01*
X176737264Y-88824278D01*
X176737263Y-88824277D01*
X176708768Y-88755484D01*
X176668470Y-88658196D01*
X176633400Y-88481883D01*
X176633400Y-88302117D01*
X176668470Y-88125804D01*
X176708768Y-88028516D01*
X176737263Y-87959723D01*
X176837136Y-87810253D01*
X176837137Y-87810251D01*
X176964251Y-87683137D01*
X177113722Y-87583264D01*
X177113723Y-87583263D01*
X177182516Y-87554768D01*
X177279804Y-87514470D01*
X177367960Y-87496935D01*
X177456115Y-87479400D01*
X177635885Y-87479400D01*
X177724040Y-87496935D01*
G37*
G36*
X175184040Y-87496935D02*
G01*
X175272196Y-87514470D01*
X175369484Y-87554768D01*
X175438277Y-87583263D01*
X175438278Y-87583264D01*
X175587749Y-87683137D01*
X175714863Y-87810251D01*
X175714864Y-87810253D01*
X175814737Y-87959723D01*
X175843232Y-88028516D01*
X175883530Y-88125804D01*
X175918600Y-88302117D01*
X175918600Y-88481883D01*
X175883530Y-88658196D01*
X175843232Y-88755484D01*
X175814737Y-88824277D01*
X175814736Y-88824278D01*
X175714863Y-88973749D01*
X175587749Y-89100863D01*
X175586426Y-89101747D01*
X175438277Y-89200737D01*
X175370374Y-89228863D01*
X175272196Y-89269530D01*
X175194421Y-89285000D01*
X175095885Y-89304600D01*
X174916115Y-89304600D01*
X174817579Y-89285000D01*
X174739804Y-89269530D01*
X174641626Y-89228863D01*
X174573723Y-89200737D01*
X174425574Y-89101747D01*
X174424251Y-89100863D01*
X174297137Y-88973749D01*
X174197264Y-88824278D01*
X174197263Y-88824277D01*
X174168768Y-88755484D01*
X174128470Y-88658196D01*
X174093400Y-88481883D01*
X174093400Y-88302117D01*
X174128470Y-88125804D01*
X174168768Y-88028516D01*
X174197263Y-87959723D01*
X174297136Y-87810253D01*
X174297137Y-87810251D01*
X174424251Y-87683137D01*
X174573722Y-87583264D01*
X174573723Y-87583263D01*
X174642516Y-87554768D01*
X174739804Y-87514470D01*
X174827960Y-87496935D01*
X174916115Y-87479400D01*
X175095885Y-87479400D01*
X175184040Y-87496935D01*
G37*
G36*
X135052040Y-85718935D02*
G01*
X135140196Y-85736470D01*
X135237484Y-85776768D01*
X135306277Y-85805263D01*
X135315068Y-85811137D01*
X135455749Y-85905137D01*
X135582863Y-86032251D01*
X135582864Y-86032253D01*
X135682737Y-86181723D01*
X135711232Y-86250516D01*
X135751530Y-86347804D01*
X135786600Y-86524117D01*
X135786600Y-86703883D01*
X135751530Y-86880196D01*
X135721673Y-86952277D01*
X135682737Y-87046277D01*
X135682736Y-87046278D01*
X135582863Y-87195749D01*
X135455749Y-87322863D01*
X135380505Y-87373139D01*
X135306277Y-87422737D01*
X135237484Y-87451232D01*
X135140196Y-87491530D01*
X135052039Y-87509065D01*
X134963885Y-87526600D01*
X134784115Y-87526600D01*
X134695960Y-87509065D01*
X134607804Y-87491530D01*
X134510516Y-87451232D01*
X134441723Y-87422737D01*
X134367495Y-87373139D01*
X134292251Y-87322863D01*
X134165137Y-87195749D01*
X134065264Y-87046278D01*
X134065263Y-87046277D01*
X134026327Y-86952277D01*
X133996470Y-86880196D01*
X133961400Y-86703883D01*
X133961400Y-86524117D01*
X133996470Y-86347804D01*
X134036768Y-86250516D01*
X134065263Y-86181723D01*
X134165136Y-86032253D01*
X134165137Y-86032251D01*
X134292251Y-85905137D01*
X134432932Y-85811137D01*
X134441723Y-85805263D01*
X134510516Y-85776768D01*
X134607804Y-85736470D01*
X134695960Y-85718935D01*
X134784115Y-85701400D01*
X134963885Y-85701400D01*
X135052040Y-85718935D01*
G37*
G36*
X130706600Y-87526600D02*
G01*
X128881400Y-87526600D01*
X128881400Y-85701400D01*
X130706600Y-85701400D01*
X130706600Y-87526600D01*
G37*
G36*
X132512040Y-85718935D02*
G01*
X132600196Y-85736470D01*
X132697484Y-85776768D01*
X132766277Y-85805263D01*
X132775068Y-85811137D01*
X132915749Y-85905137D01*
X133042863Y-86032251D01*
X133042864Y-86032253D01*
X133142737Y-86181723D01*
X133171232Y-86250516D01*
X133211530Y-86347804D01*
X133246600Y-86524117D01*
X133246600Y-86703883D01*
X133211530Y-86880196D01*
X133181673Y-86952277D01*
X133142737Y-87046277D01*
X133142736Y-87046278D01*
X133042863Y-87195749D01*
X132915749Y-87322863D01*
X132840505Y-87373139D01*
X132766277Y-87422737D01*
X132697484Y-87451232D01*
X132600196Y-87491530D01*
X132512039Y-87509065D01*
X132423885Y-87526600D01*
X132244115Y-87526600D01*
X132155960Y-87509065D01*
X132067804Y-87491530D01*
X131970516Y-87451232D01*
X131901723Y-87422737D01*
X131827495Y-87373139D01*
X131752251Y-87322863D01*
X131625137Y-87195749D01*
X131525264Y-87046278D01*
X131525263Y-87046277D01*
X131486327Y-86952277D01*
X131456470Y-86880196D01*
X131421400Y-86703883D01*
X131421400Y-86524117D01*
X131456470Y-86347804D01*
X131496768Y-86250516D01*
X131525263Y-86181723D01*
X131625136Y-86032253D01*
X131625137Y-86032251D01*
X131752251Y-85905137D01*
X131892932Y-85811137D01*
X131901723Y-85805263D01*
X131970516Y-85776768D01*
X132067804Y-85736470D01*
X132155960Y-85718935D01*
X132244115Y-85701400D01*
X132423885Y-85701400D01*
X132512040Y-85718935D01*
G37*
G36*
X137592040Y-85718935D02*
G01*
X137680196Y-85736470D01*
X137777484Y-85776768D01*
X137846277Y-85805263D01*
X137855068Y-85811137D01*
X137995749Y-85905137D01*
X138122863Y-86032251D01*
X138122864Y-86032253D01*
X138222737Y-86181723D01*
X138251232Y-86250516D01*
X138291530Y-86347804D01*
X138326600Y-86524117D01*
X138326600Y-86703883D01*
X138291530Y-86880196D01*
X138261673Y-86952277D01*
X138222737Y-87046277D01*
X138222736Y-87046278D01*
X138122863Y-87195749D01*
X137995749Y-87322863D01*
X137920505Y-87373139D01*
X137846277Y-87422737D01*
X137777484Y-87451232D01*
X137680196Y-87491530D01*
X137592039Y-87509065D01*
X137503885Y-87526600D01*
X137324115Y-87526600D01*
X137235960Y-87509065D01*
X137147804Y-87491530D01*
X137050516Y-87451232D01*
X136981723Y-87422737D01*
X136907495Y-87373139D01*
X136832251Y-87322863D01*
X136705137Y-87195749D01*
X136605264Y-87046278D01*
X136605263Y-87046277D01*
X136566327Y-86952277D01*
X136536470Y-86880196D01*
X136501400Y-86703883D01*
X136501400Y-86524117D01*
X136536470Y-86347804D01*
X136576768Y-86250516D01*
X136605263Y-86181723D01*
X136705136Y-86032253D01*
X136705137Y-86032251D01*
X136832251Y-85905137D01*
X136972932Y-85811137D01*
X136981723Y-85805263D01*
X137050516Y-85776768D01*
X137147804Y-85736470D01*
X137235960Y-85718935D01*
X137324115Y-85701400D01*
X137503885Y-85701400D01*
X137592040Y-85718935D01*
G37*
G36*
X140132040Y-85718935D02*
G01*
X140220196Y-85736470D01*
X140317484Y-85776768D01*
X140386277Y-85805263D01*
X140395068Y-85811137D01*
X140535749Y-85905137D01*
X140662863Y-86032251D01*
X140662864Y-86032253D01*
X140762737Y-86181723D01*
X140791232Y-86250516D01*
X140831530Y-86347804D01*
X140866600Y-86524117D01*
X140866600Y-86703883D01*
X140831530Y-86880196D01*
X140801673Y-86952277D01*
X140762737Y-87046277D01*
X140762736Y-87046278D01*
X140662863Y-87195749D01*
X140535749Y-87322863D01*
X140460505Y-87373139D01*
X140386277Y-87422737D01*
X140317484Y-87451232D01*
X140220196Y-87491530D01*
X140132039Y-87509065D01*
X140043885Y-87526600D01*
X139864115Y-87526600D01*
X139775960Y-87509065D01*
X139687804Y-87491530D01*
X139590516Y-87451232D01*
X139521723Y-87422737D01*
X139447495Y-87373139D01*
X139372251Y-87322863D01*
X139245137Y-87195749D01*
X139145264Y-87046278D01*
X139145263Y-87046277D01*
X139106327Y-86952277D01*
X139076470Y-86880196D01*
X139041400Y-86703883D01*
X139041400Y-86524117D01*
X139076470Y-86347804D01*
X139116768Y-86250516D01*
X139145263Y-86181723D01*
X139245136Y-86032253D01*
X139245137Y-86032251D01*
X139372251Y-85905137D01*
X139512932Y-85811137D01*
X139521723Y-85805263D01*
X139590516Y-85776768D01*
X139687804Y-85736470D01*
X139775960Y-85718935D01*
X139864115Y-85701400D01*
X140043885Y-85701400D01*
X140132040Y-85718935D01*
G37*
G36*
X145212040Y-85718935D02*
G01*
X145300196Y-85736470D01*
X145397484Y-85776768D01*
X145466277Y-85805263D01*
X145475068Y-85811137D01*
X145615749Y-85905137D01*
X145742863Y-86032251D01*
X145742864Y-86032253D01*
X145842737Y-86181723D01*
X145871232Y-86250516D01*
X145911530Y-86347804D01*
X145946600Y-86524117D01*
X145946600Y-86703883D01*
X145911530Y-86880196D01*
X145881673Y-86952277D01*
X145842737Y-87046277D01*
X145842736Y-87046278D01*
X145742863Y-87195749D01*
X145615749Y-87322863D01*
X145540505Y-87373139D01*
X145466277Y-87422737D01*
X145397484Y-87451232D01*
X145300196Y-87491530D01*
X145212039Y-87509065D01*
X145123885Y-87526600D01*
X144944115Y-87526600D01*
X144855960Y-87509065D01*
X144767804Y-87491530D01*
X144670516Y-87451232D01*
X144601723Y-87422737D01*
X144527495Y-87373139D01*
X144452251Y-87322863D01*
X144325137Y-87195749D01*
X144225264Y-87046278D01*
X144225263Y-87046277D01*
X144186327Y-86952277D01*
X144156470Y-86880196D01*
X144121400Y-86703883D01*
X144121400Y-86524117D01*
X144156470Y-86347804D01*
X144196768Y-86250516D01*
X144225263Y-86181723D01*
X144325136Y-86032253D01*
X144325137Y-86032251D01*
X144452251Y-85905137D01*
X144592932Y-85811137D01*
X144601723Y-85805263D01*
X144670516Y-85776768D01*
X144767804Y-85736470D01*
X144855960Y-85718935D01*
X144944115Y-85701400D01*
X145123885Y-85701400D01*
X145212040Y-85718935D01*
G37*
G36*
X147752040Y-85718935D02*
G01*
X147840196Y-85736470D01*
X147937484Y-85776768D01*
X148006277Y-85805263D01*
X148015068Y-85811137D01*
X148155749Y-85905137D01*
X148282863Y-86032251D01*
X148282864Y-86032253D01*
X148382737Y-86181723D01*
X148411232Y-86250516D01*
X148451530Y-86347804D01*
X148486600Y-86524117D01*
X148486600Y-86703883D01*
X148451530Y-86880196D01*
X148421673Y-86952277D01*
X148382737Y-87046277D01*
X148382736Y-87046278D01*
X148282863Y-87195749D01*
X148155749Y-87322863D01*
X148080505Y-87373139D01*
X148006277Y-87422737D01*
X147937484Y-87451232D01*
X147840196Y-87491530D01*
X147752039Y-87509065D01*
X147663885Y-87526600D01*
X147484115Y-87526600D01*
X147395960Y-87509065D01*
X147307804Y-87491530D01*
X147210516Y-87451232D01*
X147141723Y-87422737D01*
X147067495Y-87373139D01*
X146992251Y-87322863D01*
X146865137Y-87195749D01*
X146765264Y-87046278D01*
X146765263Y-87046277D01*
X146726327Y-86952277D01*
X146696470Y-86880196D01*
X146661400Y-86703883D01*
X146661400Y-86524117D01*
X146696470Y-86347804D01*
X146736768Y-86250516D01*
X146765263Y-86181723D01*
X146865136Y-86032253D01*
X146865137Y-86032251D01*
X146992251Y-85905137D01*
X147132932Y-85811137D01*
X147141723Y-85805263D01*
X147210516Y-85776768D01*
X147307804Y-85736470D01*
X147395960Y-85718935D01*
X147484115Y-85701400D01*
X147663885Y-85701400D01*
X147752040Y-85718935D01*
G37*
G36*
X150292040Y-85718935D02*
G01*
X150380196Y-85736470D01*
X150477484Y-85776768D01*
X150546277Y-85805263D01*
X150555068Y-85811137D01*
X150695749Y-85905137D01*
X150822863Y-86032251D01*
X150822864Y-86032253D01*
X150922737Y-86181723D01*
X150951232Y-86250516D01*
X150991530Y-86347804D01*
X151026600Y-86524117D01*
X151026600Y-86703883D01*
X150991530Y-86880196D01*
X150961673Y-86952277D01*
X150922737Y-87046277D01*
X150922736Y-87046278D01*
X150822863Y-87195749D01*
X150695749Y-87322863D01*
X150620505Y-87373139D01*
X150546277Y-87422737D01*
X150477484Y-87451232D01*
X150380196Y-87491530D01*
X150292039Y-87509065D01*
X150203885Y-87526600D01*
X150024115Y-87526600D01*
X149935960Y-87509065D01*
X149847804Y-87491530D01*
X149750516Y-87451232D01*
X149681723Y-87422737D01*
X149607495Y-87373139D01*
X149532251Y-87322863D01*
X149405137Y-87195749D01*
X149305264Y-87046278D01*
X149305263Y-87046277D01*
X149266327Y-86952277D01*
X149236470Y-86880196D01*
X149201400Y-86703883D01*
X149201400Y-86524117D01*
X149236470Y-86347804D01*
X149276768Y-86250516D01*
X149305263Y-86181723D01*
X149405136Y-86032253D01*
X149405137Y-86032251D01*
X149532251Y-85905137D01*
X149672932Y-85811137D01*
X149681723Y-85805263D01*
X149750516Y-85776768D01*
X149847804Y-85736470D01*
X149935960Y-85718935D01*
X150024115Y-85701400D01*
X150203885Y-85701400D01*
X150292040Y-85718935D01*
G37*
G36*
X152832040Y-85718935D02*
G01*
X152920196Y-85736470D01*
X153017484Y-85776768D01*
X153086277Y-85805263D01*
X153095068Y-85811137D01*
X153235749Y-85905137D01*
X153362863Y-86032251D01*
X153362864Y-86032253D01*
X153462737Y-86181723D01*
X153491232Y-86250516D01*
X153531530Y-86347804D01*
X153566600Y-86524117D01*
X153566600Y-86703883D01*
X153531530Y-86880196D01*
X153501673Y-86952277D01*
X153462737Y-87046277D01*
X153462736Y-87046278D01*
X153362863Y-87195749D01*
X153235749Y-87322863D01*
X153160505Y-87373139D01*
X153086277Y-87422737D01*
X153017484Y-87451232D01*
X152920196Y-87491530D01*
X152832039Y-87509065D01*
X152743885Y-87526600D01*
X152564115Y-87526600D01*
X152475960Y-87509065D01*
X152387804Y-87491530D01*
X152290516Y-87451232D01*
X152221723Y-87422737D01*
X152147495Y-87373139D01*
X152072251Y-87322863D01*
X151945137Y-87195749D01*
X151845264Y-87046278D01*
X151845263Y-87046277D01*
X151806327Y-86952277D01*
X151776470Y-86880196D01*
X151741400Y-86703883D01*
X151741400Y-86524117D01*
X151776470Y-86347804D01*
X151816768Y-86250516D01*
X151845263Y-86181723D01*
X151945136Y-86032253D01*
X151945137Y-86032251D01*
X152072251Y-85905137D01*
X152212932Y-85811137D01*
X152221723Y-85805263D01*
X152290516Y-85776768D01*
X152387804Y-85736470D01*
X152475960Y-85718935D01*
X152564115Y-85701400D01*
X152743885Y-85701400D01*
X152832040Y-85718935D01*
G37*
G36*
X155372040Y-85718935D02*
G01*
X155460196Y-85736470D01*
X155557484Y-85776768D01*
X155626277Y-85805263D01*
X155635068Y-85811137D01*
X155775749Y-85905137D01*
X155902863Y-86032251D01*
X155902864Y-86032253D01*
X156002737Y-86181723D01*
X156031232Y-86250516D01*
X156071530Y-86347804D01*
X156106600Y-86524117D01*
X156106600Y-86703883D01*
X156071530Y-86880196D01*
X156041673Y-86952277D01*
X156002737Y-87046277D01*
X156002736Y-87046278D01*
X155902863Y-87195749D01*
X155775749Y-87322863D01*
X155700505Y-87373139D01*
X155626277Y-87422737D01*
X155557484Y-87451232D01*
X155460196Y-87491530D01*
X155372039Y-87509065D01*
X155283885Y-87526600D01*
X155104115Y-87526600D01*
X155015960Y-87509065D01*
X154927804Y-87491530D01*
X154830516Y-87451232D01*
X154761723Y-87422737D01*
X154687495Y-87373139D01*
X154612251Y-87322863D01*
X154485137Y-87195749D01*
X154385264Y-87046278D01*
X154385263Y-87046277D01*
X154346327Y-86952277D01*
X154316470Y-86880196D01*
X154281400Y-86703883D01*
X154281400Y-86524117D01*
X154316470Y-86347804D01*
X154356768Y-86250516D01*
X154385263Y-86181723D01*
X154485136Y-86032253D01*
X154485137Y-86032251D01*
X154612251Y-85905137D01*
X154752932Y-85811137D01*
X154761723Y-85805263D01*
X154830516Y-85776768D01*
X154927804Y-85736470D01*
X155015960Y-85718935D01*
X155104115Y-85701400D01*
X155283885Y-85701400D01*
X155372040Y-85718935D01*
G37*
G36*
X142672040Y-85718935D02*
G01*
X142760196Y-85736470D01*
X142857484Y-85776768D01*
X142926277Y-85805263D01*
X142935068Y-85811137D01*
X143075749Y-85905137D01*
X143202863Y-86032251D01*
X143202864Y-86032253D01*
X143302737Y-86181723D01*
X143331232Y-86250516D01*
X143371530Y-86347804D01*
X143406600Y-86524117D01*
X143406600Y-86703883D01*
X143371530Y-86880196D01*
X143341673Y-86952277D01*
X143302737Y-87046277D01*
X143302736Y-87046278D01*
X143202863Y-87195749D01*
X143075749Y-87322863D01*
X143000505Y-87373139D01*
X142926277Y-87422737D01*
X142857484Y-87451232D01*
X142760196Y-87491530D01*
X142672039Y-87509065D01*
X142583885Y-87526600D01*
X142404115Y-87526600D01*
X142315960Y-87509065D01*
X142227804Y-87491530D01*
X142130516Y-87451232D01*
X142061723Y-87422737D01*
X141987495Y-87373139D01*
X141912251Y-87322863D01*
X141785137Y-87195749D01*
X141685264Y-87046278D01*
X141685263Y-87046277D01*
X141646327Y-86952277D01*
X141616470Y-86880196D01*
X141581400Y-86703883D01*
X141581400Y-86524117D01*
X141616470Y-86347804D01*
X141656768Y-86250516D01*
X141685263Y-86181723D01*
X141785136Y-86032253D01*
X141785137Y-86032251D01*
X141912251Y-85905137D01*
X142052932Y-85811137D01*
X142061723Y-85805263D01*
X142130516Y-85776768D01*
X142227804Y-85736470D01*
X142315960Y-85718935D01*
X142404115Y-85701400D01*
X142583885Y-85701400D01*
X142672040Y-85718935D01*
G37*
G36*
X180745039Y-85624935D02*
G01*
X180833196Y-85642470D01*
X180930484Y-85682768D01*
X180999277Y-85711263D01*
X180999278Y-85711264D01*
X181148749Y-85811137D01*
X181275863Y-85938251D01*
X181278291Y-85941885D01*
X181375737Y-86087723D01*
X181388358Y-86118194D01*
X181444530Y-86253804D01*
X181479600Y-86430117D01*
X181479600Y-86609883D01*
X181444530Y-86786196D01*
X181405594Y-86880194D01*
X181375737Y-86952277D01*
X181375736Y-86952278D01*
X181275863Y-87101749D01*
X181148749Y-87228863D01*
X181073505Y-87279139D01*
X180999277Y-87328737D01*
X180930484Y-87357232D01*
X180833196Y-87397530D01*
X180745039Y-87415065D01*
X180656885Y-87432600D01*
X180477115Y-87432600D01*
X180388960Y-87415065D01*
X180300804Y-87397530D01*
X180203516Y-87357232D01*
X180134723Y-87328737D01*
X180060495Y-87279139D01*
X179985251Y-87228863D01*
X179858137Y-87101749D01*
X179758264Y-86952278D01*
X179758263Y-86952277D01*
X179728406Y-86880194D01*
X179689470Y-86786196D01*
X179654400Y-86609883D01*
X179654400Y-86430117D01*
X179689470Y-86253804D01*
X179745642Y-86118194D01*
X179758263Y-86087723D01*
X179855709Y-85941885D01*
X179858137Y-85938251D01*
X179985251Y-85811137D01*
X180134722Y-85711264D01*
X180134723Y-85711263D01*
X180203516Y-85682768D01*
X180300804Y-85642470D01*
X180388961Y-85624935D01*
X180477115Y-85607400D01*
X180656885Y-85607400D01*
X180745039Y-85624935D01*
G37*
G36*
X163645039Y-85624935D02*
G01*
X163733196Y-85642470D01*
X163830484Y-85682768D01*
X163899277Y-85711263D01*
X163899278Y-85711264D01*
X164048749Y-85811137D01*
X164175863Y-85938251D01*
X164178291Y-85941885D01*
X164275737Y-86087723D01*
X164288358Y-86118194D01*
X164344530Y-86253804D01*
X164379600Y-86430117D01*
X164379600Y-86609883D01*
X164344530Y-86786196D01*
X164305594Y-86880194D01*
X164275737Y-86952277D01*
X164275736Y-86952278D01*
X164175863Y-87101749D01*
X164048749Y-87228863D01*
X163973505Y-87279139D01*
X163899277Y-87328737D01*
X163830484Y-87357232D01*
X163733196Y-87397530D01*
X163645039Y-87415065D01*
X163556885Y-87432600D01*
X163377115Y-87432600D01*
X163288960Y-87415065D01*
X163200804Y-87397530D01*
X163103516Y-87357232D01*
X163034723Y-87328737D01*
X162960495Y-87279139D01*
X162885251Y-87228863D01*
X162758137Y-87101749D01*
X162658264Y-86952278D01*
X162658263Y-86952277D01*
X162628406Y-86880194D01*
X162589470Y-86786196D01*
X162554400Y-86609883D01*
X162554400Y-86430117D01*
X162589470Y-86253804D01*
X162645642Y-86118194D01*
X162658263Y-86087723D01*
X162755709Y-85941885D01*
X162758137Y-85938251D01*
X162885251Y-85811137D01*
X163034722Y-85711264D01*
X163034723Y-85711263D01*
X163103516Y-85682768D01*
X163200804Y-85642470D01*
X163288961Y-85624935D01*
X163377115Y-85607400D01*
X163556885Y-85607400D01*
X163645039Y-85624935D01*
G37*
G36*
X177700622Y-84952277D02*
G01*
X177812196Y-84974470D01*
X177909484Y-85014768D01*
X177978277Y-85043263D01*
X177978278Y-85043264D01*
X178127749Y-85143137D01*
X178254863Y-85270251D01*
X178254864Y-85270253D01*
X178354737Y-85419723D01*
X178383232Y-85488516D01*
X178423530Y-85585804D01*
X178458600Y-85762117D01*
X178458600Y-85941883D01*
X178423530Y-86118196D01*
X178397216Y-86181722D01*
X178354737Y-86284277D01*
X178354736Y-86284278D01*
X178254863Y-86433749D01*
X178127749Y-86560863D01*
X178054385Y-86609883D01*
X177978277Y-86660737D01*
X177909484Y-86689232D01*
X177812196Y-86729530D01*
X177724039Y-86747065D01*
X177635885Y-86764600D01*
X177456115Y-86764600D01*
X177367961Y-86747065D01*
X177279804Y-86729530D01*
X177182516Y-86689232D01*
X177113723Y-86660737D01*
X177037615Y-86609883D01*
X176964251Y-86560863D01*
X176837137Y-86433749D01*
X176737264Y-86284278D01*
X176737263Y-86284277D01*
X176694784Y-86181722D01*
X176668470Y-86118196D01*
X176633400Y-85941883D01*
X176633400Y-85762117D01*
X176668470Y-85585804D01*
X176708768Y-85488516D01*
X176737263Y-85419723D01*
X176837136Y-85270253D01*
X176837137Y-85270251D01*
X176964251Y-85143137D01*
X177113722Y-85043264D01*
X177113723Y-85043263D01*
X177182516Y-85014768D01*
X177279804Y-84974470D01*
X177391378Y-84952277D01*
X177456115Y-84939400D01*
X177635885Y-84939400D01*
X177700622Y-84952277D01*
G37*
G36*
X175160622Y-84952277D02*
G01*
X175272196Y-84974470D01*
X175369484Y-85014768D01*
X175438277Y-85043263D01*
X175438278Y-85043264D01*
X175587749Y-85143137D01*
X175714863Y-85270251D01*
X175714864Y-85270253D01*
X175814737Y-85419723D01*
X175843232Y-85488516D01*
X175883530Y-85585804D01*
X175918600Y-85762117D01*
X175918600Y-85941883D01*
X175883530Y-86118196D01*
X175857216Y-86181722D01*
X175814737Y-86284277D01*
X175814736Y-86284278D01*
X175714863Y-86433749D01*
X175587749Y-86560863D01*
X175514385Y-86609883D01*
X175438277Y-86660737D01*
X175369484Y-86689232D01*
X175272196Y-86729530D01*
X175184039Y-86747065D01*
X175095885Y-86764600D01*
X174916115Y-86764600D01*
X174827961Y-86747065D01*
X174739804Y-86729530D01*
X174642516Y-86689232D01*
X174573723Y-86660737D01*
X174497615Y-86609883D01*
X174424251Y-86560863D01*
X174297137Y-86433749D01*
X174197264Y-86284278D01*
X174197263Y-86284277D01*
X174154784Y-86181722D01*
X174128470Y-86118196D01*
X174093400Y-85941883D01*
X174093400Y-85762117D01*
X174128470Y-85585804D01*
X174168768Y-85488516D01*
X174197263Y-85419723D01*
X174297136Y-85270253D01*
X174297137Y-85270251D01*
X174424251Y-85143137D01*
X174573722Y-85043264D01*
X174573723Y-85043263D01*
X174642516Y-85014768D01*
X174739804Y-84974470D01*
X174851378Y-84952277D01*
X174916115Y-84939400D01*
X175095885Y-84939400D01*
X175160622Y-84952277D01*
G37*
G36*
X180745040Y-83624935D02*
G01*
X180833196Y-83642470D01*
X180930484Y-83682768D01*
X180999277Y-83711263D01*
X180999278Y-83711264D01*
X181148749Y-83811137D01*
X181275863Y-83938251D01*
X181326139Y-84013495D01*
X181375737Y-84087723D01*
X181404232Y-84156516D01*
X181444530Y-84253804D01*
X181479600Y-84430117D01*
X181479600Y-84609883D01*
X181444530Y-84786196D01*
X181404541Y-84882736D01*
X181375737Y-84952277D01*
X181375736Y-84952278D01*
X181275863Y-85101749D01*
X181148749Y-85228863D01*
X181086807Y-85270251D01*
X180999277Y-85328737D01*
X180938286Y-85354000D01*
X180833196Y-85397530D01*
X180745039Y-85415065D01*
X180656885Y-85432600D01*
X180477115Y-85432600D01*
X180388960Y-85415065D01*
X180300804Y-85397530D01*
X180195714Y-85354000D01*
X180134723Y-85328737D01*
X180047193Y-85270251D01*
X179985251Y-85228863D01*
X179858137Y-85101749D01*
X179758264Y-84952278D01*
X179758263Y-84952277D01*
X179729459Y-84882736D01*
X179689470Y-84786196D01*
X179654400Y-84609883D01*
X179654400Y-84430117D01*
X179689470Y-84253804D01*
X179729768Y-84156516D01*
X179758263Y-84087723D01*
X179807861Y-84013495D01*
X179858137Y-83938251D01*
X179985251Y-83811137D01*
X180134722Y-83711264D01*
X180134723Y-83711263D01*
X180203516Y-83682768D01*
X180300804Y-83642470D01*
X180388960Y-83624935D01*
X180477115Y-83607400D01*
X180656885Y-83607400D01*
X180745040Y-83624935D01*
G37*
G36*
X163645040Y-83624935D02*
G01*
X163733196Y-83642470D01*
X163830484Y-83682768D01*
X163899277Y-83711263D01*
X163899278Y-83711264D01*
X164048749Y-83811137D01*
X164175863Y-83938251D01*
X164226139Y-84013495D01*
X164275737Y-84087723D01*
X164304232Y-84156516D01*
X164344530Y-84253804D01*
X164379600Y-84430117D01*
X164379600Y-84609883D01*
X164344530Y-84786196D01*
X164304541Y-84882736D01*
X164275737Y-84952277D01*
X164275736Y-84952278D01*
X164175863Y-85101749D01*
X164048749Y-85228863D01*
X163986807Y-85270251D01*
X163899277Y-85328737D01*
X163838286Y-85354000D01*
X163733196Y-85397530D01*
X163645039Y-85415065D01*
X163556885Y-85432600D01*
X163377115Y-85432600D01*
X163288960Y-85415065D01*
X163200804Y-85397530D01*
X163095714Y-85354000D01*
X163034723Y-85328737D01*
X162947193Y-85270251D01*
X162885251Y-85228863D01*
X162758137Y-85101749D01*
X162658264Y-84952278D01*
X162658263Y-84952277D01*
X162629459Y-84882736D01*
X162589470Y-84786196D01*
X162554400Y-84609883D01*
X162554400Y-84430117D01*
X162589470Y-84253804D01*
X162629768Y-84156516D01*
X162658263Y-84087723D01*
X162707861Y-84013495D01*
X162758137Y-83938251D01*
X162885251Y-83811137D01*
X163034722Y-83711264D01*
X163034723Y-83711263D01*
X163103516Y-83682768D01*
X163200804Y-83642470D01*
X163288960Y-83624935D01*
X163377115Y-83607400D01*
X163556885Y-83607400D01*
X163645040Y-83624935D01*
G37*
G36*
X159268000Y-85354000D02*
G01*
X157470000Y-85354000D01*
X157470000Y-83556000D01*
X159268000Y-83556000D01*
X159268000Y-85354000D01*
G37*
G36*
X132512040Y-83178935D02*
G01*
X132600196Y-83196470D01*
X132678399Y-83228863D01*
X132766277Y-83265263D01*
X132766278Y-83265264D01*
X132915749Y-83365137D01*
X133042863Y-83492251D01*
X133042864Y-83492253D01*
X133142737Y-83641723D01*
X133143046Y-83642470D01*
X133211530Y-83807804D01*
X133246600Y-83984117D01*
X133246600Y-84163883D01*
X133211530Y-84340196D01*
X133174284Y-84430115D01*
X133142737Y-84506277D01*
X133142736Y-84506278D01*
X133042863Y-84655749D01*
X132915749Y-84782863D01*
X132840505Y-84833139D01*
X132766277Y-84882737D01*
X132697484Y-84911232D01*
X132600196Y-84951530D01*
X132512039Y-84969065D01*
X132423885Y-84986600D01*
X132244115Y-84986600D01*
X132155961Y-84969065D01*
X132067804Y-84951530D01*
X131970516Y-84911232D01*
X131901723Y-84882737D01*
X131827495Y-84833139D01*
X131752251Y-84782863D01*
X131625137Y-84655749D01*
X131525264Y-84506278D01*
X131525263Y-84506277D01*
X131493716Y-84430115D01*
X131456470Y-84340196D01*
X131421400Y-84163883D01*
X131421400Y-83984117D01*
X131456470Y-83807804D01*
X131524954Y-83642470D01*
X131525263Y-83641723D01*
X131625136Y-83492253D01*
X131625137Y-83492251D01*
X131752251Y-83365137D01*
X131901722Y-83265264D01*
X131901723Y-83265263D01*
X131989601Y-83228863D01*
X132067804Y-83196470D01*
X132155960Y-83178935D01*
X132244115Y-83161400D01*
X132423885Y-83161400D01*
X132512040Y-83178935D01*
G37*
G36*
X145212040Y-83178935D02*
G01*
X145300196Y-83196470D01*
X145378399Y-83228863D01*
X145466277Y-83265263D01*
X145466278Y-83265264D01*
X145615749Y-83365137D01*
X145742863Y-83492251D01*
X145742864Y-83492253D01*
X145842737Y-83641723D01*
X145843046Y-83642470D01*
X145911530Y-83807804D01*
X145946600Y-83984117D01*
X145946600Y-84163883D01*
X145911530Y-84340196D01*
X145874284Y-84430115D01*
X145842737Y-84506277D01*
X145842736Y-84506278D01*
X145742863Y-84655749D01*
X145615749Y-84782863D01*
X145540505Y-84833139D01*
X145466277Y-84882737D01*
X145397484Y-84911232D01*
X145300196Y-84951530D01*
X145212039Y-84969065D01*
X145123885Y-84986600D01*
X144944115Y-84986600D01*
X144855961Y-84969065D01*
X144767804Y-84951530D01*
X144670516Y-84911232D01*
X144601723Y-84882737D01*
X144527495Y-84833139D01*
X144452251Y-84782863D01*
X144325137Y-84655749D01*
X144225264Y-84506278D01*
X144225263Y-84506277D01*
X144193716Y-84430115D01*
X144156470Y-84340196D01*
X144121400Y-84163883D01*
X144121400Y-83984117D01*
X144156470Y-83807804D01*
X144224954Y-83642470D01*
X144225263Y-83641723D01*
X144325136Y-83492253D01*
X144325137Y-83492251D01*
X144452251Y-83365137D01*
X144601722Y-83265264D01*
X144601723Y-83265263D01*
X144689601Y-83228863D01*
X144767804Y-83196470D01*
X144855960Y-83178935D01*
X144944115Y-83161400D01*
X145123885Y-83161400D01*
X145212040Y-83178935D01*
G37*
G36*
X140132040Y-83178935D02*
G01*
X140220196Y-83196470D01*
X140298399Y-83228863D01*
X140386277Y-83265263D01*
X140386278Y-83265264D01*
X140535749Y-83365137D01*
X140662863Y-83492251D01*
X140662864Y-83492253D01*
X140762737Y-83641723D01*
X140763046Y-83642470D01*
X140831530Y-83807804D01*
X140866600Y-83984117D01*
X140866600Y-84163883D01*
X140831530Y-84340196D01*
X140794284Y-84430115D01*
X140762737Y-84506277D01*
X140762736Y-84506278D01*
X140662863Y-84655749D01*
X140535749Y-84782863D01*
X140460505Y-84833139D01*
X140386277Y-84882737D01*
X140317484Y-84911232D01*
X140220196Y-84951530D01*
X140132039Y-84969065D01*
X140043885Y-84986600D01*
X139864115Y-84986600D01*
X139775961Y-84969065D01*
X139687804Y-84951530D01*
X139590516Y-84911232D01*
X139521723Y-84882737D01*
X139447495Y-84833139D01*
X139372251Y-84782863D01*
X139245137Y-84655749D01*
X139145264Y-84506278D01*
X139145263Y-84506277D01*
X139113716Y-84430115D01*
X139076470Y-84340196D01*
X139041400Y-84163883D01*
X139041400Y-83984117D01*
X139076470Y-83807804D01*
X139144954Y-83642470D01*
X139145263Y-83641723D01*
X139245136Y-83492253D01*
X139245137Y-83492251D01*
X139372251Y-83365137D01*
X139521722Y-83265264D01*
X139521723Y-83265263D01*
X139609601Y-83228863D01*
X139687804Y-83196470D01*
X139775960Y-83178935D01*
X139864115Y-83161400D01*
X140043885Y-83161400D01*
X140132040Y-83178935D01*
G37*
G36*
X137592040Y-83178935D02*
G01*
X137680196Y-83196470D01*
X137758399Y-83228863D01*
X137846277Y-83265263D01*
X137846278Y-83265264D01*
X137995749Y-83365137D01*
X138122863Y-83492251D01*
X138122864Y-83492253D01*
X138222737Y-83641723D01*
X138223046Y-83642470D01*
X138291530Y-83807804D01*
X138326600Y-83984117D01*
X138326600Y-84163883D01*
X138291530Y-84340196D01*
X138254284Y-84430115D01*
X138222737Y-84506277D01*
X138222736Y-84506278D01*
X138122863Y-84655749D01*
X137995749Y-84782863D01*
X137920505Y-84833139D01*
X137846277Y-84882737D01*
X137777484Y-84911232D01*
X137680196Y-84951530D01*
X137592039Y-84969065D01*
X137503885Y-84986600D01*
X137324115Y-84986600D01*
X137235961Y-84969065D01*
X137147804Y-84951530D01*
X137050516Y-84911232D01*
X136981723Y-84882737D01*
X136907495Y-84833139D01*
X136832251Y-84782863D01*
X136705137Y-84655749D01*
X136605264Y-84506278D01*
X136605263Y-84506277D01*
X136573716Y-84430115D01*
X136536470Y-84340196D01*
X136501400Y-84163883D01*
X136501400Y-83984117D01*
X136536470Y-83807804D01*
X136604954Y-83642470D01*
X136605263Y-83641723D01*
X136705136Y-83492253D01*
X136705137Y-83492251D01*
X136832251Y-83365137D01*
X136981722Y-83265264D01*
X136981723Y-83265263D01*
X137069601Y-83228863D01*
X137147804Y-83196470D01*
X137235960Y-83178935D01*
X137324115Y-83161400D01*
X137503885Y-83161400D01*
X137592040Y-83178935D01*
G37*
G36*
X135052040Y-83178935D02*
G01*
X135140196Y-83196470D01*
X135218399Y-83228863D01*
X135306277Y-83265263D01*
X135306278Y-83265264D01*
X135455749Y-83365137D01*
X135582863Y-83492251D01*
X135582864Y-83492253D01*
X135682737Y-83641723D01*
X135683046Y-83642470D01*
X135751530Y-83807804D01*
X135786600Y-83984117D01*
X135786600Y-84163883D01*
X135751530Y-84340196D01*
X135714284Y-84430115D01*
X135682737Y-84506277D01*
X135682736Y-84506278D01*
X135582863Y-84655749D01*
X135455749Y-84782863D01*
X135380505Y-84833139D01*
X135306277Y-84882737D01*
X135237484Y-84911232D01*
X135140196Y-84951530D01*
X135052039Y-84969065D01*
X134963885Y-84986600D01*
X134784115Y-84986600D01*
X134695961Y-84969065D01*
X134607804Y-84951530D01*
X134510516Y-84911232D01*
X134441723Y-84882737D01*
X134367495Y-84833139D01*
X134292251Y-84782863D01*
X134165137Y-84655749D01*
X134065264Y-84506278D01*
X134065263Y-84506277D01*
X134033716Y-84430115D01*
X133996470Y-84340196D01*
X133961400Y-84163883D01*
X133961400Y-83984117D01*
X133996470Y-83807804D01*
X134064954Y-83642470D01*
X134065263Y-83641723D01*
X134165136Y-83492253D01*
X134165137Y-83492251D01*
X134292251Y-83365137D01*
X134441722Y-83265264D01*
X134441723Y-83265263D01*
X134529601Y-83228863D01*
X134607804Y-83196470D01*
X134695960Y-83178935D01*
X134784115Y-83161400D01*
X134963885Y-83161400D01*
X135052040Y-83178935D01*
G37*
G36*
X155372040Y-83178935D02*
G01*
X155460196Y-83196470D01*
X155538399Y-83228863D01*
X155626277Y-83265263D01*
X155626278Y-83265264D01*
X155775749Y-83365137D01*
X155902863Y-83492251D01*
X155902864Y-83492253D01*
X156002737Y-83641723D01*
X156003046Y-83642470D01*
X156071530Y-83807804D01*
X156106600Y-83984117D01*
X156106600Y-84163883D01*
X156071530Y-84340196D01*
X156034284Y-84430115D01*
X156002737Y-84506277D01*
X156002736Y-84506278D01*
X155902863Y-84655749D01*
X155775749Y-84782863D01*
X155700505Y-84833139D01*
X155626277Y-84882737D01*
X155557484Y-84911232D01*
X155460196Y-84951530D01*
X155372039Y-84969065D01*
X155283885Y-84986600D01*
X155104115Y-84986600D01*
X155015961Y-84969065D01*
X154927804Y-84951530D01*
X154830516Y-84911232D01*
X154761723Y-84882737D01*
X154687495Y-84833139D01*
X154612251Y-84782863D01*
X154485137Y-84655749D01*
X154385264Y-84506278D01*
X154385263Y-84506277D01*
X154353716Y-84430115D01*
X154316470Y-84340196D01*
X154281400Y-84163883D01*
X154281400Y-83984117D01*
X154316470Y-83807804D01*
X154384954Y-83642470D01*
X154385263Y-83641723D01*
X154485136Y-83492253D01*
X154485137Y-83492251D01*
X154612251Y-83365137D01*
X154761722Y-83265264D01*
X154761723Y-83265263D01*
X154849601Y-83228863D01*
X154927804Y-83196470D01*
X155015960Y-83178935D01*
X155104115Y-83161400D01*
X155283885Y-83161400D01*
X155372040Y-83178935D01*
G37*
G36*
X152832040Y-83178935D02*
G01*
X152920196Y-83196470D01*
X152998399Y-83228863D01*
X153086277Y-83265263D01*
X153086278Y-83265264D01*
X153235749Y-83365137D01*
X153362863Y-83492251D01*
X153362864Y-83492253D01*
X153462737Y-83641723D01*
X153463046Y-83642470D01*
X153531530Y-83807804D01*
X153566600Y-83984117D01*
X153566600Y-84163883D01*
X153531530Y-84340196D01*
X153494284Y-84430115D01*
X153462737Y-84506277D01*
X153462736Y-84506278D01*
X153362863Y-84655749D01*
X153235749Y-84782863D01*
X153160505Y-84833139D01*
X153086277Y-84882737D01*
X153017484Y-84911232D01*
X152920196Y-84951530D01*
X152832039Y-84969065D01*
X152743885Y-84986600D01*
X152564115Y-84986600D01*
X152475961Y-84969065D01*
X152387804Y-84951530D01*
X152290516Y-84911232D01*
X152221723Y-84882737D01*
X152147495Y-84833139D01*
X152072251Y-84782863D01*
X151945137Y-84655749D01*
X151845264Y-84506278D01*
X151845263Y-84506277D01*
X151813716Y-84430115D01*
X151776470Y-84340196D01*
X151741400Y-84163883D01*
X151741400Y-83984117D01*
X151776470Y-83807804D01*
X151844954Y-83642470D01*
X151845263Y-83641723D01*
X151945136Y-83492253D01*
X151945137Y-83492251D01*
X152072251Y-83365137D01*
X152221722Y-83265264D01*
X152221723Y-83265263D01*
X152309601Y-83228863D01*
X152387804Y-83196470D01*
X152475960Y-83178935D01*
X152564115Y-83161400D01*
X152743885Y-83161400D01*
X152832040Y-83178935D01*
G37*
G36*
X150292040Y-83178935D02*
G01*
X150380196Y-83196470D01*
X150458399Y-83228863D01*
X150546277Y-83265263D01*
X150546278Y-83265264D01*
X150695749Y-83365137D01*
X150822863Y-83492251D01*
X150822864Y-83492253D01*
X150922737Y-83641723D01*
X150923046Y-83642470D01*
X150991530Y-83807804D01*
X151026600Y-83984117D01*
X151026600Y-84163883D01*
X150991530Y-84340196D01*
X150954284Y-84430115D01*
X150922737Y-84506277D01*
X150922736Y-84506278D01*
X150822863Y-84655749D01*
X150695749Y-84782863D01*
X150620505Y-84833139D01*
X150546277Y-84882737D01*
X150477484Y-84911232D01*
X150380196Y-84951530D01*
X150292039Y-84969065D01*
X150203885Y-84986600D01*
X150024115Y-84986600D01*
X149935961Y-84969065D01*
X149847804Y-84951530D01*
X149750516Y-84911232D01*
X149681723Y-84882737D01*
X149607495Y-84833139D01*
X149532251Y-84782863D01*
X149405137Y-84655749D01*
X149305264Y-84506278D01*
X149305263Y-84506277D01*
X149273716Y-84430115D01*
X149236470Y-84340196D01*
X149201400Y-84163883D01*
X149201400Y-83984117D01*
X149236470Y-83807804D01*
X149304954Y-83642470D01*
X149305263Y-83641723D01*
X149405136Y-83492253D01*
X149405137Y-83492251D01*
X149532251Y-83365137D01*
X149681722Y-83265264D01*
X149681723Y-83265263D01*
X149769601Y-83228863D01*
X149847804Y-83196470D01*
X149935960Y-83178935D01*
X150024115Y-83161400D01*
X150203885Y-83161400D01*
X150292040Y-83178935D01*
G37*
G36*
X147752040Y-83178935D02*
G01*
X147840196Y-83196470D01*
X147918399Y-83228863D01*
X148006277Y-83265263D01*
X148006278Y-83265264D01*
X148155749Y-83365137D01*
X148282863Y-83492251D01*
X148282864Y-83492253D01*
X148382737Y-83641723D01*
X148383046Y-83642470D01*
X148451530Y-83807804D01*
X148486600Y-83984117D01*
X148486600Y-84163883D01*
X148451530Y-84340196D01*
X148414284Y-84430115D01*
X148382737Y-84506277D01*
X148382736Y-84506278D01*
X148282863Y-84655749D01*
X148155749Y-84782863D01*
X148080505Y-84833139D01*
X148006277Y-84882737D01*
X147937484Y-84911232D01*
X147840196Y-84951530D01*
X147752039Y-84969065D01*
X147663885Y-84986600D01*
X147484115Y-84986600D01*
X147395961Y-84969065D01*
X147307804Y-84951530D01*
X147210516Y-84911232D01*
X147141723Y-84882737D01*
X147067495Y-84833139D01*
X146992251Y-84782863D01*
X146865137Y-84655749D01*
X146765264Y-84506278D01*
X146765263Y-84506277D01*
X146733716Y-84430115D01*
X146696470Y-84340196D01*
X146661400Y-84163883D01*
X146661400Y-83984117D01*
X146696470Y-83807804D01*
X146764954Y-83642470D01*
X146765263Y-83641723D01*
X146865136Y-83492253D01*
X146865137Y-83492251D01*
X146992251Y-83365137D01*
X147141722Y-83265264D01*
X147141723Y-83265263D01*
X147229601Y-83228863D01*
X147307804Y-83196470D01*
X147395960Y-83178935D01*
X147484115Y-83161400D01*
X147663885Y-83161400D01*
X147752040Y-83178935D01*
G37*
G36*
X142672040Y-83178935D02*
G01*
X142760196Y-83196470D01*
X142838399Y-83228863D01*
X142926277Y-83265263D01*
X142926278Y-83265264D01*
X143075749Y-83365137D01*
X143202863Y-83492251D01*
X143202864Y-83492253D01*
X143302737Y-83641723D01*
X143303046Y-83642470D01*
X143371530Y-83807804D01*
X143406600Y-83984117D01*
X143406600Y-84163883D01*
X143371530Y-84340196D01*
X143334284Y-84430115D01*
X143302737Y-84506277D01*
X143302736Y-84506278D01*
X143202863Y-84655749D01*
X143075749Y-84782863D01*
X143000505Y-84833139D01*
X142926277Y-84882737D01*
X142857484Y-84911232D01*
X142760196Y-84951530D01*
X142672039Y-84969065D01*
X142583885Y-84986600D01*
X142404115Y-84986600D01*
X142315961Y-84969065D01*
X142227804Y-84951530D01*
X142130516Y-84911232D01*
X142061723Y-84882737D01*
X141987495Y-84833139D01*
X141912251Y-84782863D01*
X141785137Y-84655749D01*
X141685264Y-84506278D01*
X141685263Y-84506277D01*
X141653716Y-84430115D01*
X141616470Y-84340196D01*
X141581400Y-84163883D01*
X141581400Y-83984117D01*
X141616470Y-83807804D01*
X141684954Y-83642470D01*
X141685263Y-83641723D01*
X141785136Y-83492253D01*
X141785137Y-83492251D01*
X141912251Y-83365137D01*
X142061722Y-83265264D01*
X142061723Y-83265263D01*
X142149601Y-83228863D01*
X142227804Y-83196470D01*
X142315960Y-83178935D01*
X142404115Y-83161400D01*
X142583885Y-83161400D01*
X142672040Y-83178935D01*
G37*
G36*
X129972040Y-83178935D02*
G01*
X130060196Y-83196470D01*
X130138399Y-83228863D01*
X130226277Y-83265263D01*
X130226278Y-83265264D01*
X130375749Y-83365137D01*
X130502863Y-83492251D01*
X130502864Y-83492253D01*
X130602737Y-83641723D01*
X130603046Y-83642470D01*
X130671530Y-83807804D01*
X130706600Y-83984117D01*
X130706600Y-84163883D01*
X130671530Y-84340196D01*
X130634284Y-84430115D01*
X130602737Y-84506277D01*
X130602736Y-84506278D01*
X130502863Y-84655749D01*
X130375749Y-84782863D01*
X130300505Y-84833139D01*
X130226277Y-84882737D01*
X130157484Y-84911232D01*
X130060196Y-84951530D01*
X129972039Y-84969065D01*
X129883885Y-84986600D01*
X129704115Y-84986600D01*
X129615961Y-84969065D01*
X129527804Y-84951530D01*
X129430516Y-84911232D01*
X129361723Y-84882737D01*
X129287495Y-84833139D01*
X129212251Y-84782863D01*
X129085137Y-84655749D01*
X128985264Y-84506278D01*
X128985263Y-84506277D01*
X128953716Y-84430115D01*
X128916470Y-84340196D01*
X128881400Y-84163883D01*
X128881400Y-83984117D01*
X128916470Y-83807804D01*
X128984954Y-83642470D01*
X128985263Y-83641723D01*
X129085136Y-83492253D01*
X129085137Y-83492251D01*
X129212251Y-83365137D01*
X129361722Y-83265264D01*
X129361723Y-83265263D01*
X129449601Y-83228863D01*
X129527804Y-83196470D01*
X129615960Y-83178935D01*
X129704115Y-83161400D01*
X129883885Y-83161400D01*
X129972040Y-83178935D01*
G37*
G36*
X175184039Y-82416935D02*
G01*
X175272196Y-82434470D01*
X175369484Y-82474768D01*
X175438277Y-82503263D01*
X175438278Y-82503264D01*
X175587749Y-82603137D01*
X175714863Y-82730251D01*
X175714864Y-82730253D01*
X175814737Y-82879723D01*
X175843232Y-82948516D01*
X175883530Y-83045804D01*
X175918600Y-83222117D01*
X175918600Y-83401883D01*
X175883530Y-83578196D01*
X175843232Y-83675484D01*
X175814737Y-83744277D01*
X175814736Y-83744278D01*
X175714863Y-83893749D01*
X175587749Y-84020863D01*
X175512505Y-84071139D01*
X175438277Y-84120737D01*
X175369484Y-84149232D01*
X175272196Y-84189530D01*
X175184039Y-84207065D01*
X175095885Y-84224600D01*
X174916115Y-84224600D01*
X174827961Y-84207065D01*
X174739804Y-84189530D01*
X174642516Y-84149232D01*
X174573723Y-84120737D01*
X174499495Y-84071139D01*
X174424251Y-84020863D01*
X174297137Y-83893749D01*
X174197264Y-83744278D01*
X174197263Y-83744277D01*
X174168768Y-83675484D01*
X174128470Y-83578196D01*
X174093400Y-83401883D01*
X174093400Y-83222117D01*
X174128470Y-83045804D01*
X174168768Y-82948516D01*
X174197263Y-82879723D01*
X174297136Y-82730253D01*
X174297137Y-82730251D01*
X174424251Y-82603137D01*
X174573722Y-82503264D01*
X174573723Y-82503263D01*
X174642516Y-82474768D01*
X174739804Y-82434470D01*
X174827961Y-82416935D01*
X174916115Y-82399400D01*
X175095885Y-82399400D01*
X175184039Y-82416935D01*
G37*
G36*
X178458600Y-84224600D02*
G01*
X176633400Y-84224600D01*
X176633400Y-82399400D01*
X178458600Y-82399400D01*
X178458600Y-84224600D01*
G37*
G36*
X163645039Y-81624935D02*
G01*
X163733196Y-81642470D01*
X163830484Y-81682768D01*
X163899277Y-81711263D01*
X163899278Y-81711264D01*
X164048749Y-81811137D01*
X164175863Y-81938251D01*
X164175864Y-81938253D01*
X164275737Y-82087723D01*
X164304232Y-82156516D01*
X164344530Y-82253804D01*
X164379600Y-82430117D01*
X164379600Y-82609883D01*
X164344530Y-82786196D01*
X164304232Y-82883484D01*
X164275737Y-82952277D01*
X164275736Y-82952278D01*
X164175863Y-83101749D01*
X164048749Y-83228863D01*
X163994272Y-83265263D01*
X163899277Y-83328737D01*
X163830484Y-83357232D01*
X163733196Y-83397530D01*
X163645039Y-83415065D01*
X163556885Y-83432600D01*
X163377115Y-83432600D01*
X163288961Y-83415065D01*
X163200804Y-83397530D01*
X163103516Y-83357232D01*
X163034723Y-83328737D01*
X162939728Y-83265263D01*
X162885251Y-83228863D01*
X162758137Y-83101749D01*
X162658264Y-82952278D01*
X162658263Y-82952277D01*
X162629768Y-82883484D01*
X162589470Y-82786196D01*
X162554400Y-82609883D01*
X162554400Y-82430117D01*
X162589470Y-82253804D01*
X162629768Y-82156516D01*
X162658263Y-82087723D01*
X162758136Y-81938253D01*
X162758137Y-81938251D01*
X162885251Y-81811137D01*
X163034722Y-81711264D01*
X163034723Y-81711263D01*
X163103516Y-81682768D01*
X163200804Y-81642470D01*
X163288960Y-81624935D01*
X163377115Y-81607400D01*
X163556885Y-81607400D01*
X163645039Y-81624935D01*
G37*
G36*
X180745039Y-81624935D02*
G01*
X180833196Y-81642470D01*
X180930484Y-81682768D01*
X180999277Y-81711263D01*
X180999278Y-81711264D01*
X181148749Y-81811137D01*
X181275863Y-81938251D01*
X181275864Y-81938253D01*
X181375737Y-82087723D01*
X181404232Y-82156516D01*
X181444530Y-82253804D01*
X181479600Y-82430117D01*
X181479600Y-82609883D01*
X181444530Y-82786196D01*
X181404232Y-82883484D01*
X181375737Y-82952277D01*
X181375736Y-82952278D01*
X181275863Y-83101749D01*
X181148749Y-83228863D01*
X181094272Y-83265263D01*
X180999277Y-83328737D01*
X180930484Y-83357232D01*
X180833196Y-83397530D01*
X180745039Y-83415065D01*
X180656885Y-83432600D01*
X180477115Y-83432600D01*
X180388961Y-83415065D01*
X180300804Y-83397530D01*
X180203516Y-83357232D01*
X180134723Y-83328737D01*
X180039728Y-83265263D01*
X179985251Y-83228863D01*
X179858137Y-83101749D01*
X179758264Y-82952278D01*
X179758263Y-82952277D01*
X179729768Y-82883484D01*
X179689470Y-82786196D01*
X179654400Y-82609883D01*
X179654400Y-82430117D01*
X179689470Y-82253804D01*
X179729768Y-82156516D01*
X179758263Y-82087723D01*
X179858136Y-81938253D01*
X179858137Y-81938251D01*
X179985251Y-81811137D01*
X180134722Y-81711264D01*
X180134723Y-81711263D01*
X180203516Y-81682768D01*
X180300804Y-81642470D01*
X180388960Y-81624935D01*
X180477115Y-81607400D01*
X180656885Y-81607400D01*
X180745039Y-81624935D01*
G37*
M02*
