G04 #@! TF.GenerationSoftware,KiCad,Pcbnew,5.1.6-c6e7f7d~87~ubuntu18.04.1*
G04 #@! TF.CreationDate,2020-07-15T21:48:52+02:00*
G04 #@! TF.ProjectId,BT-Pcb-328P,42542d50-6362-42d3-9332-38502e6b6963,3.0*
G04 #@! TF.SameCoordinates,Original*
G04 #@! TF.FileFunction,Paste,Bot*
G04 #@! TF.FilePolarity,Positive*
%FSLAX46Y46*%
G04 Gerber Fmt 4.6, Leading zero omitted, Abs format (unit mm)*
G04 Created by KiCad (PCBNEW 5.1.6-c6e7f7d~87~ubuntu18.04.1) date 2020-07-15 21:48:52*
%MOMM*%
%LPD*%
G01*
G04 APERTURE LIST*
G04 #@! TA.AperFunction,Profile*
%ADD10C,0.150000*%
G04 #@! TD*
%ADD11R,2.000000X1.000000*%
%ADD12R,2.540000X3.510000*%
G04 APERTURE END LIST*
D10*
X184040000Y-138320000D02*
X184040000Y-81320000D01*
X127040000Y-138320000D02*
X127040000Y-81320000D01*
X127040000Y-138320000D02*
X184040000Y-138320000D01*
X127040000Y-81320000D02*
X184040000Y-81320000D01*
D11*
X158560000Y-89834000D03*
X158560000Y-91104000D03*
X158560000Y-92374000D03*
X158560000Y-93644000D03*
X158560000Y-94914000D03*
X158560000Y-96184000D03*
X158560000Y-97454000D03*
X158560000Y-98724000D03*
G36*
G01*
X169020000Y-101642000D02*
X169020000Y-100542000D01*
G75*
G02*
X169270000Y-100292000I250000J0D01*
G01*
X171770000Y-100292000D01*
G75*
G02*
X172020000Y-100542000I0J-250000D01*
G01*
X172020000Y-101642000D01*
G75*
G02*
X171770000Y-101892000I-250000J0D01*
G01*
X169270000Y-101892000D01*
G75*
G02*
X169020000Y-101642000I0J250000D01*
G01*
G37*
G36*
G01*
X173420000Y-101642000D02*
X173420000Y-100542000D01*
G75*
G02*
X173670000Y-100292000I250000J0D01*
G01*
X176170000Y-100292000D01*
G75*
G02*
X176420000Y-100542000I0J-250000D01*
G01*
X176420000Y-101642000D01*
G75*
G02*
X176170000Y-101892000I-250000J0D01*
G01*
X173670000Y-101892000D01*
G75*
G02*
X173420000Y-101642000I0J250000D01*
G01*
G37*
G36*
G01*
X163852000Y-110532000D02*
X163852000Y-109432000D01*
G75*
G02*
X164102000Y-109182000I250000J0D01*
G01*
X167102000Y-109182000D01*
G75*
G02*
X167352000Y-109432000I0J-250000D01*
G01*
X167352000Y-110532000D01*
G75*
G02*
X167102000Y-110782000I-250000J0D01*
G01*
X164102000Y-110782000D01*
G75*
G02*
X163852000Y-110532000I0J250000D01*
G01*
G37*
G36*
G01*
X169452000Y-110532000D02*
X169452000Y-109432000D01*
G75*
G02*
X169702000Y-109182000I250000J0D01*
G01*
X172702000Y-109182000D01*
G75*
G02*
X172952000Y-109432000I0J-250000D01*
G01*
X172952000Y-110532000D01*
G75*
G02*
X172702000Y-110782000I-250000J0D01*
G01*
X169702000Y-110782000D01*
G75*
G02*
X169452000Y-110532000I0J250000D01*
G01*
G37*
D12*
X170220000Y-127838000D03*
X140860000Y-127838000D03*
M02*
